<?xml version="1.0" encoding="utf-8"?>
<!-- Generator: Adobe Illustrator 30.0.0, SVG Export Plug-In . SVG Version: 9.03 Build 0)  -->
<svg version="1.1" id="Layer_1" xmlns="http://www.w3.org/2000/svg" xmlns:xlink="http://www.w3.org/1999/xlink" x="0px" y="0px"
	 viewBox="0 0 240 240" style="enable-background:new 0 0 240 240;" xml:space="preserve">
<style type="text/css">
	.st0{fill:#D50E48;}
	.st1{fill:#FD2A5C;}
	.st2{fill:#ECEEEE;}
	.st3{fill:#FFFFFF;}
	.st4{fill:#B7CACE;}
	.st5{fill:#FC5F88;}
	.st6{fill:#00400A;}
	.st7{fill:#006324;}
</style>
<rect x="196.39" y="124.13" class="st0" width="8.28" height="8.28"/>
<rect x="196.39" y="115.85" class="st1" width="8.28" height="8.28"/>
<rect x="196.39" y="107.57" class="st2" width="8.28" height="8.28"/>
<rect x="188.11" y="148.96" class="st3" width="8.28" height="8.28"/>
<rect x="188.11" y="140.69" class="st4" width="8.28" height="8.28"/>
<rect x="188.11" y="132.41" class="st0" width="8.28" height="8.28"/>
<rect x="188.11" y="124.13" class="st1" width="8.28" height="8.28"/>
<rect x="188.11" y="115.85" class="st5" width="8.28" height="8.28"/>
<rect x="188.11" y="107.57" class="st5" width="8.28" height="8.28"/>
<rect x="188.11" y="99.3" class="st2" width="8.28" height="8.28"/>
<rect x="188.11" y="91.02" class="st2" width="8.28" height="8.28"/>
<rect x="179.83" y="157.24" class="st2" width="8.28" height="8.29"/>
<rect x="179.83" y="148.96" class="st3" width="8.28" height="8.28"/>
<rect x="179.83" y="140.69" class="st4" width="8.28" height="8.28"/>
<rect x="179.83" y="132.41" class="st0" width="8.28" height="8.28"/>
<rect x="179.83" y="124.13" class="st5" width="8.28" height="8.28"/>
<rect x="179.83" y="115.85" class="st5" width="8.28" height="8.28"/>
<rect x="179.83" y="107.57" class="st1" width="8.28" height="8.28"/>
<rect x="179.83" y="99.3" class="st1" width="8.28" height="8.28"/>
<rect x="179.83" y="91.02" class="st1" width="8.28" height="8.28"/>
<rect x="179.83" y="82.74" class="st2" width="8.28" height="8.28"/>
<rect x="171.56" y="157.24" class="st2" width="8.28" height="8.29"/>
<rect x="171.56" y="148.96" class="st3" width="8.28" height="8.28"/>
<rect x="171.56" y="140.69" class="st4" width="8.28" height="8.28"/>
<rect x="171.56" y="132.41" class="st0" width="8.28" height="8.28"/>
<rect x="171.56" y="124.13" class="st1" width="8.28" height="8.28"/>
<rect x="171.56" y="115.85" class="st1" width="8.28" height="8.28"/>
<rect x="171.56" y="107.57" class="st1" width="8.28" height="8.28"/>
<rect x="171.56" y="99.3" class="st1" width="8.28" height="8.28"/>
<rect x="171.56" y="91.02" class="st1" width="8.28" height="8.28"/>
<rect x="171.56" y="82.74" class="st2" width="8.28" height="8.28"/>
<rect x="163.28" y="157.24" class="st2" width="8.28" height="8.29"/>
<rect x="163.28" y="148.96" class="st3" width="8.28" height="8.28"/>
<rect x="163.28" y="140.69" class="st3" width="8.28" height="8.28"/>
<rect x="163.28" y="132.41" class="st0" width="8.28" height="8.28"/>
<rect x="163.28" y="124.13" class="st1" width="8.28" height="8.28"/>
<rect x="163.28" y="115.85" class="st1" width="8.28" height="8.28"/>
<rect x="163.28" y="107.57" class="st1" width="8.28" height="8.28"/>
<rect x="163.28" y="99.3" class="st1" width="8.28" height="8.28"/>
<rect x="163.28" y="91.02" class="st1" width="8.28" height="8.28"/>
<rect x="163.28" y="82.74" class="st1" width="8.28" height="8.28"/>
<rect x="163.28" y="74.46" class="st1" width="8.28" height="8.28"/>
<rect x="155" y="157.24" class="st2" width="8.28" height="8.29"/>
<rect x="155" y="148.96" class="st3" width="8.28" height="8.28"/>
<rect x="155" y="140.69" class="st2" width="8.28" height="8.28"/>
<rect x="155" y="132.41" class="st4" width="8.28" height="8.28"/>
<rect x="155" y="124.13" class="st0" width="8.28" height="8.28"/>
<rect x="155" y="115.85" class="st5" width="8.28" height="8.28"/>
<rect x="155" y="107.57" class="st5" width="8.28" height="8.28"/>
<rect x="155" y="99.3" class="st5" width="8.28" height="8.28"/>
<rect x="155" y="91.02" class="st5" width="8.28" height="8.28"/>
<rect x="155" y="82.74" class="st5" width="8.28" height="8.28"/>
<rect x="155" y="74.46" class="st2" width="8.28" height="8.28"/>
<rect x="146.72" y="157.24" class="st2" width="8.28" height="8.29"/>
<rect x="146.72" y="148.96" class="st2" width="8.28" height="8.28"/>
<rect x="146.72" y="140.69" class="st3" width="8.28" height="8.28"/>
<rect x="146.72" y="132.41" class="st4" width="8.28" height="8.28"/>
<rect x="146.72" y="124.13" class="st0" width="8.28" height="8.28"/>
<rect x="146.72" y="115.85" class="st1" width="8.28" height="8.28"/>
<rect x="146.72" y="107.57" class="st1" width="8.28" height="8.28"/>
<rect x="146.72" y="99.3" class="st1" width="8.28" height="8.28"/>
<rect x="146.72" y="91.02" class="st1" width="8.28" height="8.28"/>
<rect x="146.72" y="82.74" class="st5" width="8.28" height="8.28"/>
<rect x="146.72" y="74.46" class="st5" width="8.28" height="8.28"/>
<rect x="138.44" y="157.24" class="st2" width="8.28" height="8.29"/>
<rect x="138.44" y="148.96" class="st3" width="8.28" height="8.28"/>
<rect x="138.44" y="140.69" class="st3" width="8.28" height="8.28"/>
<rect x="138.44" y="132.41" class="st3" width="8.28" height="8.28"/>
<rect x="138.44" y="124.13" class="st0" width="8.28" height="8.28"/>
<rect x="138.44" y="115.85" class="st1" width="8.28" height="8.28"/>
<rect x="138.44" y="107.57" class="st1" width="8.28" height="8.28"/>
<rect x="138.44" y="99.3" class="st1" width="8.28" height="8.28"/>
<rect x="138.44" y="91.02" class="st1" width="8.28" height="8.28"/>
<rect x="138.44" y="82.74" class="st1" width="8.28" height="8.28"/>
<rect x="138.44" y="74.46" class="st1" width="8.28" height="8.28"/>
<rect x="130.15" y="157.24" class="st6" width="8.29" height="8.29"/>
<rect x="130.15" y="148.96" class="st7" width="8.29" height="8.28"/>
<rect x="130.15" y="140.69" class="st7" width="8.29" height="8.28"/>
<rect x="130.15" y="132.41" class="st7" width="8.29" height="8.28"/>
<rect x="130.15" y="124.13" class="st7" width="8.29" height="8.28"/>
<rect x="130.15" y="115.85" class="st7" width="8.29" height="8.28"/>
<rect x="130.15" y="107.57" class="st7" width="8.29" height="8.28"/>
<rect x="130.15" y="99.3" class="st7" width="8.29" height="8.28"/>
<rect x="130.15" y="91.02" class="st1" width="8.29" height="8.28"/>
<rect x="130.15" y="82.74" class="st1" width="8.29" height="8.28"/>
<rect x="130.15" y="74.46" class="st1" width="8.29" height="8.28"/>
<rect x="121.87" y="157.24" class="st6" width="8.28" height="8.29"/>
<rect x="121.87" y="148.96" class="st6" width="8.28" height="8.28"/>
<rect x="121.87" y="140.69" class="st6" width="8.28" height="8.28"/>
<rect x="121.87" y="132.41" class="st6" width="8.28" height="8.28"/>
<rect x="121.87" y="124.13" class="st6" width="8.28" height="8.28"/>
<rect x="121.87" y="115.85" class="st6" width="8.28" height="8.28"/>
<rect x="121.87" y="107.57" class="st6" width="8.28" height="8.28"/>
<rect x="121.87" y="99.3" class="st7" width="8.28" height="8.28"/>
<rect x="121.87" y="91.02" class="st7" width="8.28" height="8.28"/>
<rect x="121.87" y="82.74" class="st1" width="8.28" height="8.28"/>
<rect x="121.87" y="74.46" class="st1" width="8.28" height="8.28"/>
<rect x="113.59" y="157.24" class="st2" width="8.28" height="8.29"/>
<rect x="113.59" y="148.96" class="st3" width="8.28" height="8.28"/>
<rect x="113.59" y="140.69" class="st3" width="8.28" height="8.28"/>
<rect x="113.59" y="132.41" class="st3" width="8.28" height="8.28"/>
<rect x="113.59" y="124.13" class="st4" width="8.28" height="8.28"/>
<rect x="113.59" y="115.85" class="st1" width="8.28" height="8.28"/>
<rect x="113.59" y="107.57" class="st1" width="8.28" height="8.28"/>
<rect x="113.59" y="99.3" class="st6" width="8.28" height="8.28"/>
<rect x="113.59" y="91.02" class="st7" width="8.28" height="8.28"/>
<rect x="113.59" y="82.74" class="st7" width="8.28" height="8.28"/>
<rect x="113.59" y="74.46" class="st1" width="8.28" height="8.28"/>
<rect x="105.32" y="157.24" class="st2" width="8.28" height="8.29"/>
<rect x="105.32" y="148.96" class="st3" width="8.28" height="8.28"/>
<rect x="105.32" y="140.69" class="st2" width="8.28" height="8.28"/>
<rect x="105.32" y="132.41" class="st3" width="8.28" height="8.28"/>
<rect x="105.32" y="124.13" class="st0" width="8.28" height="8.28"/>
<rect x="105.32" y="115.85" class="st1" width="8.28" height="8.28"/>
<rect x="105.32" y="107.57" class="st1" width="8.28" height="8.28"/>
<rect x="105.32" y="99.3" class="st1" width="8.28" height="8.28"/>
<rect x="105.32" y="91.02" class="st6" width="8.28" height="8.28"/>
<rect x="105.32" y="82.74" class="st7" width="8.28" height="8.28"/>
<rect x="105.32" y="74.46" class="st7" width="8.28" height="8.28"/>
<rect x="97.04" y="157.24" class="st2" width="8.28" height="8.29"/>
<rect x="97.04" y="148.96" class="st3" width="8.28" height="8.28"/>
<rect x="97.04" y="140.69" class="st3" width="8.28" height="8.28"/>
<rect x="97.04" y="132.41" class="st2" width="8.28" height="8.28"/>
<rect x="97.04" y="124.13" class="st0" width="8.28" height="8.28"/>
<rect x="97.04" y="115.85" class="st1" width="8.28" height="8.28"/>
<rect x="97.04" y="107.57" class="st1" width="8.28" height="8.28"/>
<rect x="97.04" y="99.3" class="st1" width="8.28" height="8.28"/>
<rect x="97.04" y="91.02" class="st1" width="8.28" height="8.28"/>
<rect x="97.04" y="82.74" class="st6" width="8.28" height="8.28"/>
<rect x="97.04" y="74.46" class="st7" width="8.28" height="8.28"/>
<rect x="88.76" y="157.24" class="st2" width="8.28" height="8.29"/>
<rect x="88.76" y="148.96" class="st2" width="8.28" height="8.28"/>
<rect x="88.76" y="140.69" class="st3" width="8.28" height="8.28"/>
<rect x="88.76" y="132.41" class="st4" width="8.28" height="8.28"/>
<rect x="88.76" y="124.13" class="st0" width="8.28" height="8.28"/>
<rect x="88.76" y="115.85" class="st5" width="8.28" height="8.28"/>
<rect x="88.76" y="107.57" class="st5" width="8.28" height="8.28"/>
<rect x="88.76" y="99.3" class="st1" width="8.28" height="8.28"/>
<rect x="88.76" y="91.02" class="st1" width="8.28" height="8.28"/>
<rect x="88.76" y="82.74" class="st1" width="8.28" height="8.28"/>
<rect x="88.76" y="74.46" class="st6" width="8.28" height="8.28"/>
<rect x="80.48" y="157.24" class="st4" width="8.28" height="8.29"/>
<rect x="80.48" y="148.96" class="st3" width="8.28" height="8.28"/>
<rect x="80.48" y="140.69" class="st4" width="8.28" height="8.28"/>
<rect x="80.48" y="132.41" class="st0" width="8.28" height="8.28"/>
<rect x="80.48" y="124.13" class="st0" width="8.28" height="8.28"/>
<rect x="80.48" y="115.85" class="st1" width="8.28" height="8.28"/>
<rect x="80.48" y="107.57" class="st5" width="8.28" height="8.28"/>
<rect x="80.48" y="99.3" class="st5" width="8.28" height="8.28"/>
<rect x="80.48" y="91.02" class="st5" width="8.28" height="8.28"/>
<rect x="80.48" y="82.74" class="st1" width="8.28" height="8.28"/>
<rect x="72.2" y="157.24" class="st4" width="8.28" height="8.29"/>
<rect x="72.2" y="148.96" class="st3" width="8.28" height="8.28"/>
<rect x="72.2" y="140.69" class="st0" width="8.28" height="8.28"/>
<rect x="72.2" y="132.41" class="st0" width="8.28" height="8.28"/>
<rect x="72.2" y="124.13" class="st1" width="8.28" height="8.28"/>
<rect x="72.2" y="115.85" class="st1" width="8.28" height="8.28"/>
<rect x="72.2" y="107.57" class="st1" width="8.28" height="8.28"/>
<rect x="72.2" y="99.3" class="st1" width="8.28" height="8.28"/>
<rect x="72.2" y="91.02" class="st5" width="8.28" height="8.28"/>
<rect x="72.2" y="82.74" class="st5" width="8.28" height="8.28"/>
<rect x="63.93" y="157.24" class="st4" width="8.28" height="8.29"/>
<rect x="63.93" y="148.96" class="st2" width="8.28" height="8.28"/>
<rect x="63.93" y="140.69" class="st0" width="8.28" height="8.28"/>
<rect x="63.93" y="132.41" class="st1" width="8.28" height="8.28"/>
<rect x="63.93" y="124.13" class="st5" width="8.28" height="8.28"/>
<rect x="63.93" y="115.85" class="st1" width="8.28" height="8.28"/>
<rect x="63.93" y="107.57" class="st1" width="8.28" height="8.28"/>
<rect x="63.93" y="99.3" class="st1" width="8.28" height="8.28"/>
<rect x="63.93" y="91.02" class="st1" width="8.28" height="8.28"/>
<rect x="63.93" y="82.74" class="st5" width="8.28" height="8.28"/>
<rect x="55.65" y="157.24" class="st4" width="8.28" height="8.29"/>
<rect x="55.65" y="148.96" class="st3" width="8.28" height="8.28"/>
<rect x="55.65" y="140.69" class="st0" width="8.28" height="8.28"/>
<rect x="55.65" y="132.41" class="st1" width="8.28" height="8.28"/>
<rect x="55.65" y="124.13" class="st5" width="8.28" height="8.28"/>
<rect x="55.65" y="115.85" class="st5" width="8.28" height="8.28"/>
<rect x="55.65" y="107.57" class="st1" width="8.28" height="8.28"/>
<rect x="55.65" y="99.3" class="st1" width="8.28" height="8.28"/>
<rect x="55.65" y="91.02" class="st1" width="8.28" height="8.28"/>
<rect x="47.37" y="157.24" class="st4" width="8.28" height="8.29"/>
<rect x="47.37" y="148.96" class="st3" width="8.28" height="8.28"/>
<rect x="47.37" y="140.69" class="st0" width="8.28" height="8.28"/>
<rect x="47.37" y="132.41" class="st1" width="8.28" height="8.28"/>
<rect x="47.37" y="124.13" class="st1" width="8.28" height="8.28"/>
<rect x="47.37" y="115.85" class="st5" width="8.28" height="8.28"/>
<rect x="47.37" y="107.57" class="st1" width="8.28" height="8.28"/>
<rect x="47.37" y="99.3" class="st1" width="8.28" height="8.28"/>
<rect x="39.09" y="148.96" class="st4" width="8.28" height="8.28"/>
<rect x="39.09" y="140.69" class="st0" width="8.28" height="8.28"/>
<rect x="39.09" y="132.41" class="st0" width="8.28" height="8.28"/>
<rect x="39.09" y="124.13" class="st1" width="8.28" height="8.28"/>
<rect x="39.09" y="115.85" class="st1" width="8.28" height="8.28"/>
<rect x="30.81" y="140.69" class="st0" width="8.28" height="8.28"/>
<rect x="30.81" y="132.41" class="st0" width="8.28" height="8.28"/>
<rect x="30.81" y="124.13" class="st0" width="8.28" height="8.28"/>
</svg>
