<?xml version="1.0" encoding="utf-8"?>
<!-- Generator: Adobe Illustrator 30.0.0, SVG Export Plug-In . SVG Version: 9.03 Build 0)  -->
<svg version="1.1" id="Layer_1" xmlns="http://www.w3.org/2000/svg" xmlns:xlink="http://www.w3.org/1999/xlink" x="0px" y="0px"
	 viewBox="0 0 240 240" style="enable-background:new 0 0 240 240;" xml:space="preserve">
<style type="text/css">
	.st0{fill:#06995A;}
	.st1{fill:#C86100;}
	.st2{fill:#D50E48;}
	.st3{fill:#FD2A5C;}
	.st4{fill:#006324;}
	.st5{fill:#FF9700;}
	.st6{fill:#FFD300;}
	.st7{fill:#00400A;}
	.st8{fill:#FDDEA7;}
	.st9{fill:#8C3F00;}
</style>
<rect x="211.93" y="124.55" class="st0" width="8.36" height="8.36"/>
<rect x="211.93" y="116.19" class="st0" width="8.36" height="8.36"/>
<rect x="211.93" y="107.83" class="st0" width="8.36" height="8.36"/>
<rect x="203.57" y="174.68" class="st1" width="8.36" height="8.36"/>
<rect x="203.57" y="166.33" class="st1" width="8.36" height="8.36"/>
<rect x="203.57" y="149.61" class="st2" width="8.36" height="8.36"/>
<rect x="203.57" y="141.26" class="st3" width="8.36" height="8.36"/>
<rect x="203.57" y="124.55" class="st0" width="8.36" height="8.36"/>
<rect x="203.57" y="116.19" class="st0" width="8.36" height="8.36"/>
<rect x="203.57" y="107.83" class="st0" width="8.36" height="8.36"/>
<rect x="203.57" y="91.12" class="st1" width="8.36" height="8.36"/>
<rect x="203.57" y="82.77" class="st1" width="8.36" height="8.36"/>
<rect x="195.21" y="183.04" class="st1" width="8.36" height="8.36"/>
<rect x="195.21" y="174.68" class="st1" width="8.36" height="8.36"/>
<rect x="195.21" y="166.33" class="st1" width="8.36" height="8.36"/>
<rect x="195.21" y="157.97" class="st2" width="8.36" height="8.36"/>
<rect x="195.21" y="149.61" class="st2" width="8.36" height="8.36"/>
<rect x="195.21" y="141.26" class="st3" width="8.36" height="8.36"/>
<rect x="195.21" y="132.9" class="st3" width="8.36" height="8.36"/>
<rect x="195.21" y="124.55" class="st3" width="8.36" height="8.36"/>
<rect x="195.21" y="116.19" class="st0" width="8.36" height="8.36"/>
<rect x="195.21" y="107.83" class="st0" width="8.36" height="8.36"/>
<rect x="195.21" y="99.48" class="st4" width="8.36" height="8.36"/>
<rect x="195.21" y="91.12" class="st1" width="8.36" height="8.36"/>
<rect x="195.21" y="82.77" class="st1" width="8.36" height="8.36"/>
<rect x="195.21" y="74.39" class="st1" width="8.36" height="8.37"/>
<rect x="186.86" y="191.4" class="st1" width="8.36" height="8.36"/>
<rect x="186.86" y="183.04" class="st1" width="8.36" height="8.36"/>
<rect x="186.86" y="174.68" class="st1" width="8.36" height="8.36"/>
<rect x="186.86" y="166.33" class="st1" width="8.36" height="8.36"/>
<rect x="186.86" y="157.97" class="st2" width="8.36" height="8.36"/>
<rect x="186.86" y="149.61" class="st3" width="8.36" height="8.36"/>
<rect x="186.86" y="141.26" class="st3" width="8.36" height="8.36"/>
<rect x="186.86" y="132.9" class="st3" width="8.36" height="8.36"/>
<rect x="186.86" y="124.55" class="st0" width="8.36" height="8.36"/>
<rect x="186.86" y="116.19" class="st4" width="8.36" height="8.36"/>
<rect x="186.86" y="107.83" class="st4" width="8.36" height="8.36"/>
<rect x="186.86" y="99.48" class="st4" width="8.36" height="8.36"/>
<rect x="186.86" y="91.12" class="st1" width="8.36" height="8.36"/>
<rect x="186.86" y="82.77" class="st1" width="8.36" height="8.36"/>
<rect x="186.86" y="74.39" class="st1" width="8.36" height="8.37"/>
<rect x="186.86" y="66.04" class="st5" width="8.36" height="8.36"/>
<rect x="178.5" y="191.4" class="st1" width="8.36" height="8.36"/>
<rect x="178.5" y="183.04" class="st1" width="8.36" height="8.36"/>
<rect x="178.5" y="174.68" class="st5" width="8.36" height="8.36"/>
<rect x="178.5" y="166.33" class="st5" width="8.36" height="8.36"/>
<rect x="178.5" y="157.97" class="st2" width="8.36" height="8.36"/>
<rect x="178.5" y="149.61" class="st3" width="8.36" height="8.36"/>
<rect x="178.5" y="141.26" class="st3" width="8.36" height="8.36"/>
<rect x="178.5" y="132.9" class="st3" width="8.36" height="8.36"/>
<rect x="178.5" y="124.55" class="st0" width="8.36" height="8.36"/>
<rect x="178.5" y="116.19" class="st0" width="8.36" height="8.36"/>
<rect x="178.5" y="107.83" class="st4" width="8.36" height="8.36"/>
<rect x="178.5" y="99.48" class="st4" width="8.36" height="8.36"/>
<rect x="178.5" y="91.12" class="st1" width="8.36" height="8.36"/>
<rect x="178.5" y="82.77" class="st5" width="8.36" height="8.36"/>
<rect x="178.5" y="74.39" class="st5" width="8.36" height="8.37"/>
<rect x="178.5" y="66.04" class="st5" width="8.36" height="8.36"/>
<rect x="178.5" y="57.68" class="st6" width="8.36" height="8.36"/>
<rect x="170.15" y="191.4" class="st1" width="8.36" height="8.36"/>
<rect x="170.15" y="183.04" class="st5" width="8.36" height="8.36"/>
<rect x="170.15" y="174.68" class="st5" width="8.36" height="8.36"/>
<rect x="170.15" y="166.33" class="st5" width="8.36" height="8.36"/>
<rect x="170.15" y="157.97" class="st2" width="8.36" height="8.36"/>
<rect x="170.15" y="149.61" class="st3" width="8.36" height="8.36"/>
<rect x="170.15" y="141.26" class="st3" width="8.36" height="8.36"/>
<rect x="170.15" y="132.9" class="st3" width="8.36" height="8.36"/>
<rect x="170.15" y="124.55" class="st0" width="8.36" height="8.36"/>
<rect x="170.15" y="116.19" class="st0" width="8.36" height="8.36"/>
<rect x="170.15" y="107.83" class="st0" width="8.36" height="8.36"/>
<rect x="170.15" y="99.48" class="st7" width="8.36" height="8.36"/>
<rect x="170.15" y="91.12" class="st1" width="8.36" height="8.36"/>
<rect x="170.15" y="82.77" class="st5" width="8.36" height="8.36"/>
<rect x="170.15" y="74.39" class="st5" width="8.36" height="8.37"/>
<rect x="170.15" y="66.04" class="st5" width="8.36" height="8.36"/>
<rect x="170.15" y="57.68" class="st6" width="8.36" height="8.36"/>
<rect x="170.15" y="49.32" class="st6" width="8.36" height="8.36"/>
<rect x="161.77" y="191.4" class="st1" width="8.37" height="8.36"/>
<rect x="161.77" y="183.04" class="st5" width="8.37" height="8.36"/>
<rect x="161.77" y="174.68" class="st5" width="8.37" height="8.36"/>
<rect x="161.77" y="166.33" class="st5" width="8.37" height="8.36"/>
<rect x="161.77" y="157.97" class="st2" width="8.37" height="8.36"/>
<rect x="161.77" y="149.61" class="st2" width="8.37" height="8.36"/>
<rect x="161.77" y="141.26" class="st3" width="8.37" height="8.36"/>
<rect x="161.77" y="132.9" class="st6" width="8.37" height="8.36"/>
<rect x="161.77" y="124.55" class="st0" width="8.37" height="8.36"/>
<rect x="161.77" y="116.19" class="st0" width="8.37" height="8.36"/>
<rect x="161.77" y="107.83" class="st4" width="8.37" height="8.36"/>
<rect x="161.77" y="99.48" class="st7" width="8.37" height="8.36"/>
<rect x="161.77" y="91.12" class="st1" width="8.37" height="8.36"/>
<rect x="161.77" y="82.77" class="st5" width="8.37" height="8.36"/>
<rect x="161.77" y="74.39" class="st5" width="8.37" height="8.37"/>
<rect x="161.77" y="66.04" class="st5" width="8.37" height="8.36"/>
<rect x="161.77" y="57.68" class="st5" width="8.37" height="8.36"/>
<rect x="161.77" y="49.32" class="st5" width="8.37" height="8.36"/>
<rect x="153.42" y="191.4" class="st1" width="8.36" height="8.36"/>
<rect x="153.42" y="183.04" class="st5" width="8.36" height="8.36"/>
<rect x="153.42" y="174.68" class="st5" width="8.36" height="8.36"/>
<rect x="153.42" y="166.33" class="st5" width="8.36" height="8.36"/>
<rect x="153.42" y="157.97" class="st2" width="8.36" height="8.36"/>
<rect x="153.42" y="149.61" class="st2" width="8.36" height="8.36"/>
<rect x="153.42" y="141.26" class="st6" width="8.36" height="8.36"/>
<rect x="153.42" y="132.9" class="st6" width="8.36" height="8.36"/>
<rect x="153.42" y="124.55" class="st0" width="8.36" height="8.36"/>
<rect x="153.42" y="116.19" class="st0" width="8.36" height="8.36"/>
<rect x="153.42" y="107.83" class="st4" width="8.36" height="8.36"/>
<rect x="153.42" y="99.48" class="st7" width="8.36" height="8.36"/>
<rect x="153.42" y="91.12" class="st1" width="8.36" height="8.36"/>
<rect x="153.42" y="82.77" class="st5" width="8.36" height="8.36"/>
<rect x="153.42" y="74.39" class="st5" width="8.36" height="8.37"/>
<rect x="153.42" y="66.04" class="st5" width="8.36" height="8.36"/>
<rect x="153.42" y="57.68" class="st8" width="8.36" height="8.36"/>
<rect x="153.42" y="49.32" class="st5" width="8.36" height="8.36"/>
<rect x="153.42" y="40.97" class="st6" width="8.36" height="8.36"/>
<rect x="145.06" y="191.4" class="st1" width="8.36" height="8.36"/>
<rect x="145.06" y="183.04" class="st5" width="8.36" height="8.36"/>
<rect x="145.06" y="174.68" class="st5" width="8.36" height="8.36"/>
<rect x="145.06" y="166.33" class="st5" width="8.36" height="8.36"/>
<rect x="145.06" y="157.97" class="st2" width="8.36" height="8.36"/>
<rect x="145.06" y="149.61" class="st6" width="8.36" height="8.36"/>
<rect x="145.06" y="141.26" class="st8" width="8.36" height="8.36"/>
<rect x="145.06" y="132.9" class="st6" width="8.36" height="8.36"/>
<rect x="145.06" y="124.55" class="st6" width="8.36" height="8.36"/>
<rect x="145.06" y="116.19" class="st0" width="8.36" height="8.36"/>
<rect x="145.06" y="107.83" class="st0" width="8.36" height="8.36"/>
<rect x="145.06" y="99.48" class="st7" width="8.36" height="8.36"/>
<rect x="145.06" y="91.12" class="st1" width="8.36" height="8.36"/>
<rect x="145.06" y="82.77" class="st5" width="8.36" height="8.36"/>
<rect x="145.06" y="74.39" class="st5" width="8.36" height="8.37"/>
<rect x="145.06" y="66.04" class="st5" width="8.36" height="8.36"/>
<rect x="145.06" y="57.68" class="st8" width="8.36" height="8.36"/>
<rect x="145.06" y="49.32" class="st5" width="8.36" height="8.36"/>
<rect x="145.06" y="40.97" class="st6" width="8.36" height="8.36"/>
<rect x="136.7" y="191.4" class="st1" width="8.36" height="8.36"/>
<rect x="136.7" y="183.04" class="st5" width="8.36" height="8.36"/>
<rect x="136.7" y="174.68" class="st5" width="8.36" height="8.36"/>
<rect x="136.7" y="166.33" class="st5" width="8.36" height="8.36"/>
<rect x="136.7" y="157.97" class="st6" width="8.36" height="8.36"/>
<rect x="136.7" y="149.61" class="st8" width="8.36" height="8.36"/>
<rect x="136.7" y="141.26" class="st8" width="8.36" height="8.36"/>
<rect x="136.7" y="132.9" class="st6" width="8.36" height="8.36"/>
<rect x="136.7" y="124.55" class="st6" width="8.36" height="8.36"/>
<rect x="136.7" y="116.19" class="st0" width="8.36" height="8.36"/>
<rect x="136.7" y="107.83" class="st0" width="8.36" height="8.36"/>
<rect x="136.7" y="99.48" class="st4" width="8.36" height="8.36"/>
<rect x="136.7" y="91.12" class="st1" width="8.36" height="8.36"/>
<rect x="136.7" y="82.77" class="st5" width="8.36" height="8.36"/>
<rect x="136.7" y="74.39" class="st5" width="8.36" height="8.37"/>
<rect x="136.7" y="66.04" class="st5" width="8.36" height="8.36"/>
<rect x="136.7" y="57.68" class="st5" width="8.36" height="8.36"/>
<rect x="136.7" y="49.32" class="st5" width="8.36" height="8.36"/>
<rect x="136.7" y="40.97" class="st6" width="8.36" height="8.36"/>
<rect x="128.35" y="191.4" class="st1" width="8.36" height="8.36"/>
<rect x="128.35" y="183.04" class="st5" width="8.36" height="8.36"/>
<rect x="128.35" y="174.68" class="st5" width="8.36" height="8.36"/>
<rect x="128.35" y="166.33" class="st6" width="8.36" height="8.36"/>
<rect x="128.35" y="157.97" class="st6" width="8.36" height="8.36"/>
<rect x="128.35" y="149.61" class="st8" width="8.36" height="8.36"/>
<rect x="128.35" y="141.26" class="st6" width="8.36" height="8.36"/>
<rect x="128.35" y="132.9" class="st6" width="8.36" height="8.36"/>
<rect x="128.35" y="124.55" class="st4" width="8.36" height="8.36"/>
<rect x="128.35" y="116.19" class="st4" width="8.36" height="8.36"/>
<rect x="128.35" y="107.83" class="st0" width="8.36" height="8.36"/>
<rect x="128.35" y="99.48" class="st4" width="8.36" height="8.36"/>
<rect x="128.35" y="91.12" class="st1" width="8.36" height="8.36"/>
<rect x="128.35" y="82.77" class="st1" width="8.36" height="8.36"/>
<rect x="128.35" y="74.39" class="st5" width="8.36" height="8.37"/>
<rect x="128.35" y="66.04" class="st5" width="8.36" height="8.36"/>
<rect x="128.35" y="57.68" class="st5" width="8.36" height="8.36"/>
<rect x="128.35" y="49.32" class="st5" width="8.36" height="8.36"/>
<rect x="128.35" y="40.97" class="st6" width="8.36" height="8.36"/>
<rect x="119.99" y="191.4" class="st1" width="8.36" height="8.36"/>
<rect x="119.99" y="183.04" class="st5" width="8.36" height="8.36"/>
<rect x="119.99" y="174.68" class="st9" width="8.36" height="8.36"/>
<rect x="119.99" y="166.33" class="st6" width="8.36" height="8.36"/>
<rect x="119.99" y="157.97" class="st8" width="8.36" height="8.36"/>
<rect x="119.99" y="149.61" class="st8" width="8.36" height="8.36"/>
<rect x="119.99" y="141.26" class="st6" width="8.36" height="8.36"/>
<rect x="119.99" y="132.9" class="st6" width="8.36" height="8.36"/>
<rect x="119.99" y="124.55" class="st4" width="8.36" height="8.36"/>
<rect x="119.99" y="116.19" class="st4" width="8.36" height="8.36"/>
<rect x="119.99" y="107.83" class="st7" width="8.36" height="8.36"/>
<rect x="119.99" y="99.48" class="st7" width="8.36" height="8.36"/>
<rect x="119.99" y="91.12" class="st1" width="8.36" height="8.36"/>
<rect x="119.99" y="82.77" class="st1" width="8.36" height="8.36"/>
<rect x="119.99" y="74.39" class="st5" width="8.36" height="8.37"/>
<rect x="119.99" y="66.04" class="st5" width="8.36" height="8.36"/>
<rect x="119.99" y="57.68" class="st8" width="8.36" height="8.36"/>
<rect x="119.99" y="49.32" class="st5" width="8.36" height="8.36"/>
<rect x="119.99" y="40.97" class="st6" width="8.36" height="8.36"/>
<rect x="111.64" y="191.4" class="st1" width="8.36" height="8.36"/>
<rect x="111.64" y="183.04" class="st5" width="8.36" height="8.36"/>
<rect x="111.64" y="174.68" class="st1" width="8.36" height="8.36"/>
<rect x="111.64" y="166.33" class="st9" width="8.36" height="8.36"/>
<rect x="111.64" y="157.97" class="st6" width="8.36" height="8.36"/>
<rect x="111.64" y="149.61" class="st6" width="8.36" height="8.36"/>
<rect x="111.64" y="141.26" class="st6" width="8.36" height="8.36"/>
<rect x="111.64" y="132.9" class="st6" width="8.36" height="8.36"/>
<rect x="111.64" y="124.55" class="st0" width="8.36" height="8.36"/>
<rect x="111.64" y="116.19" class="st4" width="8.36" height="8.36"/>
<rect x="111.64" y="107.83" class="st7" width="8.36" height="8.36"/>
<rect x="111.64" y="99.48" class="st7" width="8.36" height="8.36"/>
<rect x="111.64" y="91.12" class="st1" width="8.36" height="8.36"/>
<rect x="111.64" y="82.77" class="st1" width="8.36" height="8.36"/>
<rect x="111.64" y="74.39" class="st5" width="8.36" height="8.37"/>
<rect x="111.64" y="66.04" class="st5" width="8.36" height="8.36"/>
<rect x="111.64" y="57.68" class="st8" width="8.36" height="8.36"/>
<rect x="111.64" y="49.32" class="st5" width="8.36" height="8.36"/>
<rect x="111.64" y="40.97" class="st5" width="8.36" height="8.36"/>
<rect x="103.28" y="191.4" class="st1" width="8.36" height="8.36"/>
<rect x="103.28" y="183.04" class="st5" width="8.36" height="8.36"/>
<rect x="103.28" y="174.68" class="st1" width="8.36" height="8.36"/>
<rect x="103.28" y="166.33" class="st1" width="8.36" height="8.36"/>
<rect x="103.28" y="157.97" class="st2" width="8.36" height="8.36"/>
<rect x="103.28" y="149.61" class="st6" width="8.36" height="8.36"/>
<rect x="103.28" y="141.26" class="st6" width="8.36" height="8.36"/>
<rect x="103.28" y="132.9" class="st6" width="8.36" height="8.36"/>
<rect x="103.28" y="124.55" class="st0" width="8.36" height="8.36"/>
<rect x="103.28" y="116.19" class="st4" width="8.36" height="8.36"/>
<rect x="103.28" y="107.83" class="st7" width="8.36" height="8.36"/>
<rect x="103.28" y="99.48" class="st7" width="8.36" height="8.36"/>
<rect x="103.28" y="91.12" class="st1" width="8.36" height="8.36"/>
<rect x="103.28" y="82.77" class="st1" width="8.36" height="8.36"/>
<rect x="103.28" y="74.39" class="st5" width="8.36" height="8.37"/>
<rect x="103.28" y="66.04" class="st5" width="8.36" height="8.36"/>
<rect x="103.28" y="57.68" class="st5" width="8.36" height="8.36"/>
<rect x="103.28" y="49.32" class="st5" width="8.36" height="8.36"/>
<rect x="103.28" y="40.97" class="st5" width="8.36" height="8.36"/>
<rect x="94.92" y="191.4" class="st1" width="8.36" height="8.36"/>
<rect x="94.92" y="183.04" class="st5" width="8.36" height="8.36"/>
<rect x="94.92" y="174.68" class="st5" width="8.36" height="8.36"/>
<rect x="94.92" y="166.33" class="st1" width="8.36" height="8.36"/>
<rect x="94.92" y="157.97" class="st2" width="8.36" height="8.36"/>
<rect x="94.92" y="149.61" class="st6" width="8.36" height="8.36"/>
<rect x="94.92" y="141.26" class="st6" width="8.36" height="8.36"/>
<rect x="94.92" y="132.9" class="st6" width="8.36" height="8.36"/>
<rect x="94.92" y="124.55" class="st0" width="8.36" height="8.36"/>
<rect x="94.92" y="116.19" class="st4" width="8.36" height="8.36"/>
<rect x="94.92" y="107.83" class="st4" width="8.36" height="8.36"/>
<rect x="94.92" y="99.48" class="st7" width="8.36" height="8.36"/>
<rect x="94.92" y="91.12" class="st1" width="8.36" height="8.36"/>
<rect x="94.92" y="82.77" class="st1" width="8.36" height="8.36"/>
<rect x="94.92" y="74.39" class="st5" width="8.36" height="8.37"/>
<rect x="94.92" y="66.04" class="st5" width="8.36" height="8.36"/>
<rect x="94.92" y="57.68" class="st5" width="8.36" height="8.36"/>
<rect x="94.92" y="49.32" class="st5" width="8.36" height="8.36"/>
<rect x="94.92" y="40.97" class="st5" width="8.36" height="8.36"/>
<rect x="86.57" y="191.4" class="st1" width="8.36" height="8.36"/>
<rect x="86.57" y="183.04" class="st5" width="8.36" height="8.36"/>
<rect x="86.57" y="174.68" class="st5" width="8.36" height="8.36"/>
<rect x="86.57" y="166.33" class="st5" width="8.36" height="8.36"/>
<rect x="86.57" y="157.97" class="st2" width="8.36" height="8.36"/>
<rect x="86.57" y="149.61" class="st2" width="8.36" height="8.36"/>
<rect x="86.57" y="141.26" class="st6" width="8.36" height="8.36"/>
<rect x="86.57" y="132.9" class="st6" width="8.36" height="8.36"/>
<rect x="86.57" y="124.55" class="st0" width="8.36" height="8.36"/>
<rect x="86.57" y="116.19" class="st0" width="8.36" height="8.36"/>
<rect x="86.57" y="107.83" class="st0" width="8.36" height="8.36"/>
<rect x="86.57" y="99.48" class="st4" width="8.36" height="8.36"/>
<rect x="86.57" y="91.12" class="st1" width="8.36" height="8.36"/>
<rect x="86.57" y="82.77" class="st5" width="8.36" height="8.36"/>
<rect x="86.57" y="74.39" class="st5" width="8.36" height="8.37"/>
<rect x="86.57" y="66.04" class="st5" width="8.36" height="8.36"/>
<rect x="86.57" y="57.68" class="st8" width="8.36" height="8.36"/>
<rect x="86.57" y="49.32" class="st5" width="8.36" height="8.36"/>
<rect x="86.57" y="40.97" class="st5" width="8.36" height="8.36"/>
<rect x="78.21" y="191.4" class="st1" width="8.36" height="8.36"/>
<rect x="78.21" y="183.04" class="st5" width="8.36" height="8.36"/>
<rect x="78.21" y="174.68" class="st5" width="8.36" height="8.36"/>
<rect x="78.21" y="166.33" class="st5" width="8.36" height="8.36"/>
<rect x="78.21" y="157.97" class="st2" width="8.36" height="8.36"/>
<rect x="78.21" y="149.61" class="st2" width="8.36" height="8.36"/>
<rect x="78.21" y="141.26" class="st6" width="8.36" height="8.36"/>
<rect x="78.21" y="132.9" class="st6" width="8.36" height="8.36"/>
<rect x="78.21" y="124.55" class="st0" width="8.36" height="8.36"/>
<rect x="78.21" y="116.19" class="st0" width="8.36" height="8.36"/>
<rect x="78.21" y="107.83" class="st0" width="8.36" height="8.36"/>
<rect x="78.21" y="99.48" class="st4" width="8.36" height="8.36"/>
<rect x="78.21" y="91.12" class="st1" width="8.36" height="8.36"/>
<rect x="78.21" y="82.77" class="st5" width="8.36" height="8.36"/>
<rect x="78.21" y="74.39" class="st5" width="8.36" height="8.37"/>
<rect x="78.21" y="66.04" class="st5" width="8.36" height="8.36"/>
<rect x="78.21" y="57.68" class="st8" width="8.36" height="8.36"/>
<rect x="78.21" y="49.32" class="st5" width="8.36" height="8.36"/>
<rect x="78.21" y="40.97" class="st5" width="8.36" height="8.36"/>
<rect x="69.85" y="191.4" class="st1" width="8.36" height="8.36"/>
<rect x="69.85" y="183.04" class="st5" width="8.36" height="8.36"/>
<rect x="69.85" y="174.68" class="st5" width="8.36" height="8.36"/>
<rect x="69.85" y="166.33" class="st5" width="8.36" height="8.36"/>
<rect x="69.85" y="157.97" class="st2" width="8.36" height="8.36"/>
<rect x="69.85" y="149.61" class="st2" width="8.36" height="8.36"/>
<rect x="69.85" y="141.26" class="st6" width="8.36" height="8.36"/>
<rect x="69.85" y="132.9" class="st6" width="8.36" height="8.36"/>
<rect x="69.85" y="124.55" class="st0" width="8.36" height="8.36"/>
<rect x="69.85" y="116.19" class="st0" width="8.36" height="8.36"/>
<rect x="69.85" y="107.83" class="st4" width="8.36" height="8.36"/>
<rect x="69.85" y="99.48" class="st7" width="8.36" height="8.36"/>
<rect x="69.85" y="91.12" class="st1" width="8.36" height="8.36"/>
<rect x="69.85" y="82.77" class="st5" width="8.36" height="8.36"/>
<rect x="69.85" y="74.39" class="st5" width="8.36" height="8.37"/>
<rect x="69.85" y="66.04" class="st5" width="8.36" height="8.36"/>
<rect x="69.85" y="57.68" class="st5" width="8.36" height="8.36"/>
<rect x="69.85" y="49.32" class="st5" width="8.36" height="8.36"/>
<rect x="61.5" y="191.4" class="st1" width="8.36" height="8.36"/>
<rect x="61.5" y="183.04" class="st5" width="8.36" height="8.36"/>
<rect x="61.5" y="174.68" class="st5" width="8.36" height="8.36"/>
<rect x="61.5" y="166.33" class="st5" width="8.36" height="8.36"/>
<rect x="61.5" y="157.97" class="st2" width="8.36" height="8.36"/>
<rect x="61.5" y="149.61" class="st2" width="8.36" height="8.36"/>
<rect x="61.5" y="141.26" class="st2" width="8.36" height="8.36"/>
<rect x="61.5" y="132.9" class="st6" width="8.36" height="8.36"/>
<rect x="61.5" y="124.55" class="st6" width="8.36" height="8.36"/>
<rect x="61.5" y="116.19" class="st6" width="8.36" height="8.36"/>
<rect x="61.5" y="107.83" class="st4" width="8.36" height="8.36"/>
<rect x="61.5" y="99.48" class="st7" width="8.36" height="8.36"/>
<rect x="61.5" y="91.12" class="st1" width="8.36" height="8.36"/>
<rect x="61.5" y="82.77" class="st5" width="8.36" height="8.36"/>
<rect x="61.5" y="74.39" class="st5" width="8.36" height="8.37"/>
<rect x="61.5" y="66.04" class="st5" width="8.36" height="8.36"/>
<rect x="61.5" y="57.68" class="st5" width="8.36" height="8.36"/>
<rect x="61.5" y="49.32" class="st5" width="8.36" height="8.36"/>
<rect x="53.14" y="191.4" class="st1" width="8.36" height="8.36"/>
<rect x="53.14" y="183.04" class="st1" width="8.36" height="8.36"/>
<rect x="53.14" y="174.68" class="st5" width="8.36" height="8.36"/>
<rect x="53.14" y="166.33" class="st5" width="8.36" height="8.36"/>
<rect x="53.14" y="157.97" class="st2" width="8.36" height="8.36"/>
<rect x="53.14" y="149.61" class="st2" width="8.36" height="8.36"/>
<rect x="53.14" y="141.26" class="st2" width="8.36" height="8.36"/>
<rect x="53.14" y="132.9" class="st6" width="8.36" height="8.36"/>
<rect x="53.14" y="124.55" class="st6" width="8.36" height="8.36"/>
<rect x="53.14" y="116.19" class="st4" width="8.36" height="8.36"/>
<rect x="53.14" y="107.83" class="st7" width="8.36" height="8.36"/>
<rect x="53.14" y="99.48" class="st7" width="8.36" height="8.36"/>
<rect x="53.14" y="91.12" class="st1" width="8.36" height="8.36"/>
<rect x="53.14" y="82.77" class="st5" width="8.36" height="8.36"/>
<rect x="53.14" y="74.39" class="st5" width="8.36" height="8.37"/>
<rect x="53.14" y="66.04" class="st5" width="8.36" height="8.36"/>
<rect x="53.14" y="57.68" class="st5" width="8.36" height="8.36"/>
<rect x="44.79" y="191.4" class="st9" width="8.36" height="8.36"/>
<rect x="44.79" y="183.04" class="st1" width="8.36" height="8.36"/>
<rect x="44.79" y="174.68" class="st1" width="8.36" height="8.36"/>
<rect x="44.79" y="166.33" class="st1" width="8.36" height="8.36"/>
<rect x="44.79" y="157.97" class="st2" width="8.36" height="8.36"/>
<rect x="44.79" y="149.61" class="st2" width="8.36" height="8.36"/>
<rect x="44.79" y="141.26" class="st2" width="8.36" height="8.36"/>
<rect x="44.79" y="132.9" class="st3" width="8.36" height="8.36"/>
<rect x="44.79" y="124.55" class="st6" width="8.36" height="8.36"/>
<rect x="44.79" y="116.19" class="st4" width="8.36" height="8.36"/>
<rect x="44.79" y="107.83" class="st4" width="8.36" height="8.36"/>
<rect x="44.79" y="99.48" class="st7" width="8.36" height="8.36"/>
<rect x="44.79" y="91.12" class="st1" width="8.36" height="8.36"/>
<rect x="44.79" y="82.77" class="st1" width="8.36" height="8.36"/>
<rect x="44.79" y="74.39" class="st1" width="8.36" height="8.37"/>
<rect x="44.79" y="66.04" class="st1" width="8.36" height="8.36"/>
<rect x="36.43" y="191.4" class="st9" width="8.36" height="8.36"/>
<rect x="36.43" y="183.04" class="st9" width="8.36" height="8.36"/>
<rect x="36.43" y="174.68" class="st1" width="8.36" height="8.36"/>
<rect x="36.43" y="166.33" class="st1" width="8.36" height="8.36"/>
<rect x="36.43" y="157.97" class="st2" width="8.36" height="8.36"/>
<rect x="36.43" y="149.61" class="st2" width="8.36" height="8.36"/>
<rect x="36.43" y="141.26" class="st2" width="8.36" height="8.36"/>
<rect x="36.43" y="132.9" class="st3" width="8.36" height="8.36"/>
<rect x="36.43" y="124.55" class="st4" width="8.36" height="8.36"/>
<rect x="36.43" y="116.19" class="st4" width="8.36" height="8.36"/>
<rect x="36.43" y="107.83" class="st7" width="8.36" height="8.36"/>
<rect x="36.43" y="99.48" class="st7" width="8.36" height="8.36"/>
<rect x="36.43" y="91.12" class="st1" width="8.36" height="8.36"/>
<rect x="36.43" y="82.77" class="st1" width="8.36" height="8.36"/>
<rect x="36.43" y="74.39" class="st9" width="8.36" height="8.37"/>
<rect x="36.43" y="66.04" class="st9" width="8.36" height="8.36"/>
<rect x="28.07" y="183.04" class="st9" width="8.36" height="8.36"/>
<rect x="28.07" y="174.68" class="st9" width="8.36" height="8.36"/>
<rect x="28.07" y="166.33" class="st9" width="8.36" height="8.36"/>
<rect x="28.07" y="149.61" class="st2" width="8.36" height="8.36"/>
<rect x="28.07" y="141.26" class="st2" width="8.36" height="8.36"/>
<rect x="28.07" y="124.55" class="st4" width="8.36" height="8.36"/>
<rect x="28.07" y="116.19" class="st4" width="8.36" height="8.36"/>
<rect x="28.07" y="107.83" class="st7" width="8.36" height="8.36"/>
<rect x="28.07" y="91.12" class="st1" width="8.36" height="8.36"/>
<rect x="28.07" y="82.77" class="st9" width="8.36" height="8.36"/>
<rect x="28.07" y="74.39" class="st9" width="8.36" height="8.37"/>
<rect x="19.72" y="174.68" class="st9" width="8.36" height="8.36"/>
<rect x="19.72" y="166.33" class="st9" width="8.36" height="8.36"/>
<rect x="19.72" y="116.19" class="st7" width="8.36" height="8.36"/>
<rect x="19.72" y="91.12" class="st9" width="8.36" height="8.36"/>
<rect x="19.72" y="82.77" class="st9" width="8.36" height="8.36"/>
</svg>
