<?xml version="1.0" encoding="utf-8"?>
<!-- Generator: Adobe Illustrator 30.0.0, SVG Export Plug-In . SVG Version: 9.03 Build 0)  -->
<svg version="1.1" id="Layer_1" xmlns="http://www.w3.org/2000/svg" xmlns:xlink="http://www.w3.org/1999/xlink" x="0px" y="0px"
	 viewBox="0 0 240 240" style="enable-background:new 0 0 240 240;" xml:space="preserve">
<style type="text/css">
	.st0{fill:#B1E1F0;}
	.st1{fill:#FFFFFF;}
	.st2{fill:#1F565E;}
	.st3{fill:#1C525B;}
	.st4{fill:#1D545C;}
	.st5{fill:#6190A1;}
	.st6{fill:#1A4A51;}
	.st7{fill:#DEE4E8;}
	.st8{fill:#1F535B;}
	.st9{fill:#598B9D;}
	.st10{fill:#284F54;}
	.st11{fill:#D3DCE1;}
	.st12{fill:#1D525A;}
	.st13{fill:#426167;}
	.st14{fill:#617C83;}
	.st15{fill:#759DAD;}
	.st16{fill:#1A4D54;}
	.st17{fill:#6692A3;}
	.st18{fill:#1B4F56;}
	.st19{fill:#1C4E54;}
	.st20{fill:#516E74;}
	.st21{fill:#1B5159;}
	.st22{fill:#1B4950;}
	.st23{fill:#33565C;}
	.st24{fill:#1D5159;}
	.st25{fill:#1F545D;}
	.st26{fill:#294E53;}
	.st27{fill:#1A4D55;}
	.st28{fill:#1A484F;}
	.st29{fill:#1C4C52;}
	.st30{fill:#84A7B5;}
	.st31{fill:#1E555E;}
	.st32{fill:#1B4E55;}
	.st33{fill:#4B6971;}
	.st34{fill:#55899B;}
	.st35{fill:#365A60;}
	.st36{fill:#C1CCD4;}
	.st37{fill:#E2E7EB;}
	.st38{fill:#40575B;}
	.st39{fill:#2B5156;}
	.st40{fill:#AEBCC4;}
	.st41{fill:#284A4C;}
	.st42{fill:#2E4D51;}
	.st43{fill:#748A93;}
	.st44{fill:#294B4E;}
	.st45{fill:#436269;}
	.st46{fill:#40595C;}
	.st47{fill:#538899;}
	.st48{fill:#4D868F;}
	.st49{fill:#27636F;}
	.st50{fill:#7F939C;}
	.st51{fill:#2D5352;}
	.st52{fill:#5F6F73;}
	.st53{fill:#638996;}
	.st54{fill:#377D8F;}
	.st55{fill:#768F99;}
	.st56{fill:#627277;}
	.st57{fill:#183D42;}
	.st58{fill:#7D909A;}
	.st59{fill:#657579;}
	.st60{fill:#506367;}
	.st61{fill:#CED1D7;}
	.st62{fill:#ACB1B9;}
	.st63{fill:#D4D7DC;}
	.st64{fill:#B1B6BD;}
	.st65{fill:#969E9E;}
	.st66{fill:#292627;}
	.st67{fill:#BDBFC1;}
	.st68{fill:#989A9D;}
	.st69{fill:#A12E1A;}
	.st70{fill:#EF4930;}
</style>
<polygon class="st0" points="24.68,240.13 24.68,239.78 27.02,239.78 27.02,237.79 24.68,237.79 24.68,235.8 22.35,235.8 
	22.35,233.81 20.01,233.81 20.01,229.84 17.68,229.84 17.68,215.91 15.34,215.91 15.34,217.9 13.01,217.9 13.01,219.89 -1,219.89 
	-1,217.9 -3.34,217.9 -3.34,215.91 -5.67,215.91 -5.67,213.93 -8.01,213.93 -8.01,215.91 -10.34,215.91 -10.34,219.89 
	-12.68,219.89 -12.68,221.88 -15.01,221.88 -15.01,223.87 -17.35,223.87 -17.35,225.86 -22.02,225.86 -22.02,227.85 -40.7,227.85 
	-40.7,225.86 -45.37,225.86 -45.37,223.87 -47.71,223.87 -47.71,221.88 -50.04,221.88 -50.04,219.89 -54.71,219.89 -54.71,221.88 
	-57.05,221.88 -57.05,223.87 -61.54,223.87 -61.54,240.13 "/>
<polygon class="st1" points="31.69,219.89 31.69,215.91 29.35,215.91 29.35,213.93 27.02,213.93 27.02,211.94 24.68,211.94 
	24.68,209.95 17.68,209.95 17.68,203.98 15.34,203.98 15.34,198.02 13.01,198.02 13.01,196.03 10.67,196.03 10.67,194.04 
	8.34,194.04 8.34,192.05 6,192.05 6,190.06 -12.68,190.06 -12.68,192.05 -15.01,192.05 -15.01,188.07 -17.35,188.07 -17.35,186.08 
	-22.02,186.08 -22.02,184.09 -24.35,184.09 -24.35,182.11 -38.37,182.11 -38.37,184.09 -43.04,184.09 -43.04,186.08 -45.37,186.08 
	-45.37,188.07 -47.71,188.07 -47.71,190.06 -50.04,190.06 -50.04,192.05 -52.38,192.05 -52.38,198.02 -61.54,198.02 -61.54,223.87 
	-57.05,223.87 -57.05,221.88 -54.71,221.88 -54.71,219.89 -50.04,219.89 -50.04,221.88 -47.71,221.88 -47.71,223.87 -45.37,223.87 
	-45.37,225.86 -40.7,225.86 -40.7,227.85 -22.02,227.85 -22.02,225.86 -17.35,225.86 -17.35,223.87 -15.01,223.87 -15.01,221.88 
	-12.68,221.88 -12.68,219.89 -10.34,219.89 -10.34,215.91 -8.01,215.91 -8.01,213.93 -5.67,213.93 -5.67,215.91 -3.34,215.91 
	-3.34,217.9 -1,217.9 -1,219.89 13.01,219.89 13.01,217.9 15.34,217.9 15.34,215.91 17.68,215.91 17.68,229.84 20.01,229.84 
	20.01,233.81 22.35,233.81 22.35,235.8 24.68,235.8 24.68,237.79 27.02,237.79 27.02,239.78 29.35,239.78 29.35,235.8 31.69,235.8 
	31.69,233.81 34.03,233.81 34.03,219.89 "/>
<polygon class="st0" points="35.11,112.04 35.11,110.88 33.74,110.88 33.74,109.72 32.38,109.72 32.38,108.55 32.38,107.39 
	31.01,107.39 31.01,106.23 31.01,105.06 31.01,103.9 31.01,102.74 31.01,101.58 31.01,100.41 31.01,99.25 29.65,99.25 29.65,100.41 
	28.28,100.41 28.28,101.58 26.92,101.58 25.55,101.58 24.19,101.58 22.82,101.58 21.46,101.58 20.09,101.58 20.09,100.41 
	18.72,100.41 18.72,99.25 17.36,99.25 17.36,98.09 15.99,98.09 15.99,99.25 14.63,99.25 14.63,100.41 14.63,101.58 13.26,101.58 
	13.26,102.74 11.9,102.74 11.9,103.9 10.53,103.9 10.53,105.06 9.17,105.06 7.8,105.06 7.8,106.23 6.44,106.23 5.07,106.23 
	3.7,106.23 2.34,106.23 0.97,106.23 -0.39,106.23 -1.76,106.23 -3.12,106.23 -3.12,105.06 -4.49,105.06 -5.85,105.06 -5.85,103.9 
	-7.22,103.9 -7.22,102.74 -8.58,102.74 -8.58,101.58 -9.95,101.58 -11.31,101.58 -11.31,102.74 -12.68,102.74 -12.68,103.9 
	-14.04,103.9 -15.41,103.9 -16.78,103.9 -18.14,103.9 -19.51,103.9 -20.87,103.9 -20.87,102.74 -22.24,102.74 -22.24,101.58 
	-23.6,101.58 -23.6,100.41 -23.6,99.25 -24.97,99.25 -24.97,98.09 -24.97,96.92 -24.97,95.76 -24.97,94.6 -26.33,94.6 -26.33,95.76 
	-26.33,96.92 -26.33,98.09 -27.7,98.09 -27.7,99.25 -27.7,100.41 -27.7,101.58 -27.7,102.74 -27.7,103.9 -27.7,105.06 
	-26.33,105.06 -26.33,106.23 -26.33,107.39 -26.33,108.55 -24.97,108.55 -24.97,109.72 -24.97,110.88 -23.6,110.88 -23.6,112.04 
	-22.24,112.04 -22.24,113.2 -20.87,113.2 -19.51,113.2 -19.51,114.37 -18.14,114.37 -16.78,114.37 -15.41,114.37 -14.04,114.37 
	-12.68,114.37 -11.31,114.37 -9.95,114.37 -8.58,114.37 -7.22,114.37 -5.85,114.37 -4.49,114.37 -3.12,114.37 -1.76,114.37 
	-0.39,114.37 0.97,114.37 2.34,114.37 3.7,114.37 5.07,114.37 6.44,114.37 7.8,114.37 9.17,114.37 10.53,114.37 11.9,114.37 
	13.26,114.37 14.63,114.37 15.99,114.37 17.36,114.37 18.72,114.37 20.09,114.37 21.46,114.37 22.82,114.37 24.19,114.37 
	25.55,114.37 26.92,114.37 28.28,114.37 29.65,114.37 31.01,114.37 32.38,114.37 33.74,114.37 35.11,114.37 35.11,113.2 
	36.48,113.2 36.48,112.04 "/>
<polygon class="st1" points="39.21,101.58 39.21,100.41 39.21,99.25 37.84,99.25 37.84,98.09 36.48,98.09 36.48,96.92 35.11,96.92 
	35.11,95.76 33.74,95.76 32.38,95.76 31.01,95.76 31.01,94.6 31.01,93.44 31.01,92.27 29.65,92.27 29.65,91.11 29.65,89.95 
	29.65,88.78 28.28,88.78 28.28,87.62 26.92,87.62 26.92,86.46 25.55,86.46 25.55,85.3 24.19,85.3 24.19,84.13 22.82,84.13 
	21.46,84.13 20.09,84.13 18.72,84.13 17.36,84.13 15.99,84.13 14.63,84.13 13.26,84.13 13.26,85.3 11.9,85.3 11.9,84.13 11.9,82.97 
	10.53,82.97 10.53,81.81 9.17,81.81 7.8,81.81 7.8,80.64 6.44,80.64 6.44,79.48 5.07,79.48 3.7,79.48 2.34,79.48 0.97,79.48 
	-0.39,79.48 -1.76,79.48 -1.76,80.64 -3.12,80.64 -4.49,80.64 -4.49,81.81 -5.85,81.81 -5.85,82.97 -7.22,82.97 -7.22,84.13 
	-8.58,84.13 -8.58,85.3 -9.95,85.3 -9.95,86.46 -9.95,87.62 -9.95,88.78 -11.31,88.78 -12.68,88.78 -14.04,88.78 -15.41,88.78 
	-16.78,88.78 -18.14,88.78 -19.51,88.78 -19.51,89.95 -20.87,89.95 -22.24,89.95 -22.24,91.11 -23.6,91.11 -23.6,92.27 
	-24.97,92.27 -24.97,93.44 -24.97,94.6 -24.97,95.76 -24.97,96.92 -24.97,98.09 -24.97,99.25 -23.6,99.25 -23.6,100.41 
	-23.6,101.58 -22.24,101.58 -22.24,102.74 -20.87,102.74 -20.87,103.9 -19.51,103.9 -18.14,103.9 -16.78,103.9 -15.41,103.9 
	-14.04,103.9 -12.68,103.9 -12.68,102.74 -11.31,102.74 -11.31,101.58 -9.95,101.58 -8.58,101.58 -8.58,102.74 -7.22,102.74 
	-7.22,103.9 -5.85,103.9 -5.85,105.06 -4.49,105.06 -3.12,105.06 -3.12,106.23 -1.76,106.23 -0.39,106.23 0.97,106.23 2.34,106.23 
	3.7,106.23 5.07,106.23 6.44,106.23 7.8,106.23 7.8,105.06 9.17,105.06 10.53,105.06 10.53,103.9 11.9,103.9 11.9,102.74 
	13.26,102.74 13.26,101.58 14.63,101.58 14.63,100.41 14.63,99.25 15.99,99.25 15.99,98.09 17.36,98.09 17.36,99.25 18.72,99.25 
	18.72,100.41 20.09,100.41 20.09,101.58 21.46,101.58 22.82,101.58 24.19,101.58 25.55,101.58 26.92,101.58 28.28,101.58 
	28.28,100.41 29.65,100.41 29.65,99.25 31.01,99.25 31.01,100.41 31.01,101.58 31.01,102.74 31.01,103.9 31.01,105.06 31.01,106.23 
	31.01,107.39 32.38,107.39 32.38,108.55 32.38,109.72 33.74,109.72 33.74,110.88 35.11,110.88 35.11,112.04 36.48,112.04 
	36.48,113.2 37.84,113.2 37.84,112.04 37.84,110.88 39.21,110.88 39.21,109.72 40.57,109.72 40.57,108.55 40.57,107.39 
	40.57,106.23 40.57,105.06 40.57,103.9 40.57,102.74 40.57,101.58 "/>
<polygon class="st0" points="239.89,116.95 239.89,115.78 238.53,115.78 238.53,114.62 237.16,114.62 237.16,113.46 237.16,112.29 
	235.8,112.29 235.8,111.13 235.8,109.97 235.8,108.81 235.8,107.64 235.8,106.48 235.8,105.32 235.8,104.15 234.43,104.15 
	234.43,105.32 233.07,105.32 233.07,106.48 231.7,106.48 230.33,106.48 228.97,106.48 227.6,106.48 226.24,106.48 224.87,106.48 
	224.87,105.32 223.51,105.32 223.51,104.15 222.14,104.15 222.14,102.99 220.78,102.99 220.78,104.15 219.41,104.15 219.41,105.32 
	219.41,106.48 218.05,106.48 218.05,107.64 216.68,107.64 216.68,108.81 215.31,108.81 215.31,109.97 213.95,109.97 212.58,109.97 
	212.58,111.13 211.22,111.13 209.85,111.13 208.49,111.13 207.12,111.13 205.76,111.13 204.39,111.13 203.03,111.13 201.66,111.13 
	201.66,109.97 200.29,109.97 198.93,109.97 198.93,108.81 197.57,108.81 197.57,107.64 196.2,107.64 196.2,106.48 194.83,106.48 
	193.47,106.48 193.47,107.64 192.1,107.64 192.1,108.81 190.74,108.81 189.37,108.81 188.01,108.81 186.64,108.81 185.28,108.81 
	183.91,108.81 183.91,107.64 182.55,107.64 182.55,106.48 181.18,106.48 181.18,105.32 181.18,104.15 179.81,104.15 179.81,102.99 
	179.81,101.83 179.81,100.67 179.81,99.5 178.45,99.5 178.45,100.67 178.45,101.83 178.45,102.99 177.08,102.99 177.08,104.15 
	177.08,105.32 177.08,106.48 177.08,107.64 177.08,108.81 177.08,109.97 178.45,109.97 178.45,111.13 178.45,112.29 178.45,113.46 
	179.81,113.46 179.81,114.62 179.81,115.78 181.18,115.78 181.18,116.95 182.55,116.95 182.55,118.11 183.91,118.11 185.28,118.11 
	185.28,119.27 186.64,119.27 188.01,119.27 189.37,119.27 190.74,119.27 192.1,119.27 193.47,119.27 194.83,119.27 196.2,119.27 
	197.57,119.27 198.93,119.27 200.29,119.27 201.66,119.27 203.03,119.27 204.39,119.27 205.76,119.27 207.12,119.27 208.49,119.27 
	209.85,119.27 211.22,119.27 212.58,119.27 213.95,119.27 215.31,119.27 216.68,119.27 218.05,119.27 219.41,119.27 220.78,119.27 
	222.14,119.27 223.51,119.27 224.87,119.27 226.24,119.27 227.6,119.27 228.97,119.27 230.33,119.27 231.7,119.27 233.07,119.27 
	234.43,119.27 235.8,119.27 237.16,119.27 238.53,119.27 239.89,119.27 239.89,118.11 241.26,118.11 241.26,116.95 "/>
<polygon class="st1" points="243.99,106.48 243.99,105.32 243.99,104.15 242.62,104.15 242.62,102.99 241.26,102.99 241.26,101.83 
	239.89,101.83 239.89,100.67 238.53,100.67 237.16,100.67 235.8,100.67 235.8,99.5 235.8,98.34 235.8,97.18 234.43,97.18 
	234.43,96.02 234.43,94.85 234.43,93.69 233.07,93.69 233.07,92.53 231.7,92.53 231.7,91.36 230.33,91.36 230.33,90.2 228.97,90.2 
	228.97,89.04 227.6,89.04 226.24,89.04 224.87,89.04 223.51,89.04 222.14,89.04 220.78,89.04 219.41,89.04 218.05,89.04 
	218.05,90.2 216.68,90.2 216.68,89.04 216.68,87.88 215.31,87.88 215.31,86.71 213.95,86.71 212.58,86.71 212.58,85.55 
	211.22,85.55 211.22,84.39 209.85,84.39 208.49,84.39 207.12,84.39 205.76,84.39 204.39,84.39 203.03,84.39 203.03,85.55 
	201.66,85.55 200.29,85.55 200.29,86.71 198.93,86.71 198.93,87.88 197.57,87.88 197.57,89.04 196.2,89.04 196.2,90.2 194.83,90.2 
	194.83,91.36 194.83,92.53 194.83,93.69 193.47,93.69 192.1,93.69 190.74,93.69 189.37,93.69 188.01,93.69 186.64,93.69 
	185.28,93.69 185.28,94.85 183.91,94.85 182.55,94.85 182.55,96.02 181.18,96.02 181.18,97.18 179.81,97.18 179.81,98.34 
	179.81,99.5 179.81,100.67 179.81,101.83 179.81,102.99 179.81,104.15 181.18,104.15 181.18,105.32 181.18,106.48 182.55,106.48 
	182.55,107.64 183.91,107.64 183.91,108.81 185.28,108.81 186.64,108.81 188.01,108.81 189.37,108.81 190.74,108.81 192.1,108.81 
	192.1,107.64 193.47,107.64 193.47,106.48 194.83,106.48 196.2,106.48 196.2,107.64 197.57,107.64 197.57,108.81 198.93,108.81 
	198.93,109.97 200.29,109.97 201.66,109.97 201.66,111.13 203.03,111.13 204.39,111.13 205.76,111.13 207.12,111.13 208.49,111.13 
	209.85,111.13 211.22,111.13 212.58,111.13 212.58,109.97 213.95,109.97 215.31,109.97 215.31,108.81 216.68,108.81 216.68,107.64 
	218.05,107.64 218.05,106.48 219.41,106.48 219.41,105.32 219.41,104.15 220.78,104.15 220.78,102.99 222.14,102.99 222.14,104.15 
	223.51,104.15 223.51,105.32 224.87,105.32 224.87,106.48 226.24,106.48 227.6,106.48 228.97,106.48 230.33,106.48 231.7,106.48 
	233.07,106.48 233.07,105.32 234.43,105.32 234.43,104.15 235.8,104.15 235.8,105.32 235.8,106.48 235.8,107.64 235.8,108.81 
	235.8,109.97 235.8,111.13 235.8,112.29 237.16,112.29 237.16,113.46 237.16,114.62 238.53,114.62 238.53,115.78 239.89,115.78 
	239.89,116.95 241.26,116.95 241.26,118.11 242.62,118.11 242.62,116.95 242.62,115.78 243.99,115.78 243.99,114.62 245.35,114.62 
	245.35,113.46 245.35,112.29 245.35,111.13 245.35,109.97 245.35,108.81 245.35,107.64 245.35,106.48 "/>
<rect x="160.65" y="238.33" class="st2" width="3.81" height="1.8"/>
<rect x="137.79" y="238.33" class="st3" width="3.81" height="1.8"/>
<rect x="-29.81" y="238.33" class="st4" width="3.81" height="1.8"/>
<rect x="259.69" y="236.53" class="st5" width="3.81" height="1.8"/>
<rect x="130.17" y="236.53" class="st6" width="3.81" height="1.8"/>
<rect x="259.69" y="234.73" class="st7" width="3.81" height="1.8"/>
<rect x="-22.2" y="232.92" class="st8" width="3.81" height="1.8"/>
<rect x="255.88" y="231.12" class="st9" width="3.81" height="1.8"/>
<rect x="-33.62" y="231.12" class="st10" width="3.81" height="1.8"/>
<rect x="255.88" y="229.32" class="st11" width="3.81" height="1.8"/>
<rect x="164.46" y="229.32" class="st12" width="3.81" height="1.8"/>
<rect x="-29.81" y="227.52" class="st13" width="3.81" height="1.8"/>
<rect x="-26.01" y="223.92" class="st14" width="3.81" height="1.8"/>
<rect x="248.26" y="220.32" class="st15" width="3.81" height="1.8"/>
<rect x="-6.96" y="220.32" class="st16" width="3.81" height="1.8"/>
<rect x="-3.15" y="218.51" class="st3" width="3.81" height="1.8"/>
<rect x="244.45" y="216.71" class="st17" width="3.81" height="1.8"/>
<rect x="175.88" y="216.71" class="st18" width="3.81" height="1.8"/>
<rect x="145.41" y="216.71" class="st19" width="3.81" height="1.8"/>
<rect x="65.42" y="216.71" class="st6" width="3.81" height="1.8"/>
<rect x="240.64" y="213.11" class="st9" width="3.81" height="1.8"/>
<rect x="-14.58" y="213.11" class="st20" width="3.81" height="1.8"/>
<rect x="8.28" y="209.51" class="st21" width="3.81" height="1.8"/>
<rect x="160.65" y="207.71" class="st22" width="3.81" height="1.8"/>
<rect x="-6.96" y="207.71" class="st23" width="3.81" height="1.8"/>
<rect x="160.65" y="205.9" class="st24" width="3.81" height="1.8"/>
<rect x="73.03" y="205.9" class="st25" width="3.81" height="1.8"/>
<rect x="-3.15" y="205.9" class="st26" width="3.81" height="1.8"/>
<rect x="145.41" y="198.7" class="st2" width="3.81" height="1.8"/>
<rect x="73.03" y="198.7" class="st27" width="3.81" height="1.8"/>
<rect x="191.12" y="196.9" class="st28" width="3.81" height="1.8"/>
<rect x="130.17" y="196.9" class="st29" width="3.81" height="1.8"/>
<rect x="221.59" y="193.3" class="st30" width="3.81" height="1.8"/>
<rect x="31.13" y="191.49" class="st21" width="3.81" height="1.8"/>
<rect x="76.84" y="187.89" class="st31" width="3.81" height="1.8"/>
<rect x="187.31" y="186.09" class="st32" width="3.81" height="1.8"/>
<rect x="122.55" y="186.09" class="st28" width="3.81" height="1.8"/>
<rect x="23.51" y="186.09" class="st14" width="3.81" height="1.8"/>
<rect x="27.32" y="184.29" class="st33" width="3.81" height="1.8"/>
<rect x="210.17" y="180.69" class="st34" width="3.81" height="1.8"/>
<rect x="42.56" y="180.69" class="st29" width="3.81" height="1.8"/>
<rect x="183.5" y="178.88" class="st32" width="3.81" height="1.8"/>
<rect x="179.69" y="178.88" class="st27" width="3.81" height="1.8"/>
<rect x="31.13" y="178.88" class="st35" width="3.81" height="1.8"/>
<rect x="111.13" y="177.08" class="st22" width="3.81" height="1.8"/>
<rect x="31.13" y="177.08" class="st36" width="3.81" height="1.8"/>
<rect x="107.32" y="175.28" class="st12" width="3.81" height="1.8"/>
<rect x="46.37" y="173.48" class="st24" width="3.81" height="1.8"/>
<rect x="103.51" y="171.68" class="st29" width="3.81" height="1.8"/>
<rect x="50.18" y="166.28" class="st25" width="3.81" height="1.8"/>
<rect x="38.75" y="166.28" class="st37" width="3.81" height="1.8"/>
<rect x="99.7" y="162.67" class="st38" width="3.81" height="1.8"/>
<rect x="42.56" y="162.67" class="st39" width="3.81" height="1.8"/>
<rect x="42.56" y="160.87" class="st40" width="3.81" height="1.8"/>
<rect x="103.51" y="159.07" class="st41" width="3.81" height="1.8"/>
<rect x="107.32" y="155.47" class="st42" width="3.81" height="1.8"/>
<rect x="46.37" y="155.47" class="st43" width="3.81" height="1.8"/>
<rect x="111.13" y="153.67" class="st44" width="3.81" height="1.8"/>
<rect x="50.18" y="150.06" class="st45" width="3.81" height="1.8"/>
<rect x="160.65" y="148.26" class="st6" width="3.81" height="1.8"/>
<rect x="118.74" y="146.46" class="st46" width="3.81" height="1.8"/>
<rect x="175.88" y="144.66" class="st47" width="3.81" height="1.8"/>
<rect x="172.07" y="144.66" class="st48" width="3.81" height="1.8"/>
<polygon class="st49" points="248.26,234.73 248.26,232.92 248.26,231.12 244.45,231.12 244.45,229.32 244.45,227.52 244.45,225.72 
	240.64,225.72 240.64,223.92 240.64,222.12 236.83,222.12 236.83,220.32 236.83,218.51 233.02,218.51 233.02,216.71 233.02,214.91 
	229.21,214.91 229.21,213.11 229.21,211.31 225.4,211.31 225.4,209.51 225.4,207.71 221.59,207.71 221.59,205.9 221.59,204.1 
	217.78,204.1 217.78,202.3 217.78,200.5 217.78,198.7 213.98,198.7 213.98,196.9 213.98,195.1 210.17,195.1 210.17,193.3 
	210.17,191.49 206.36,191.49 206.36,189.69 206.36,187.89 202.55,187.89 202.55,189.69 202.55,191.49 202.55,193.3 202.55,195.1 
	206.36,195.1 206.36,196.9 206.36,198.7 206.36,200.5 210.17,200.5 210.17,202.3 210.17,204.1 210.17,205.9 210.17,207.71 
	210.17,209.51 210.17,211.31 206.36,211.31 202.55,211.31 202.55,209.51 198.74,209.51 198.74,207.71 194.93,207.71 194.93,205.9 
	194.93,204.1 191.12,204.1 191.12,202.3 187.31,202.3 187.31,200.5 187.31,198.7 183.5,198.7 183.5,196.9 183.5,195.1 179.69,195.1 
	179.69,196.9 179.69,198.7 179.69,200.5 183.5,200.5 183.5,202.3 183.5,204.1 183.5,205.9 187.31,205.9 187.31,207.71 
	187.31,209.51 191.12,209.51 191.12,211.31 191.12,213.11 194.93,213.11 194.93,214.91 194.93,216.71 198.74,216.71 198.74,218.51 
	198.74,220.32 202.55,220.32 202.55,222.12 202.55,223.92 206.36,223.92 206.36,225.72 206.36,227.52 206.36,229.32 210.17,229.32 
	210.17,231.12 210.17,232.92 210.17,234.73 213.98,234.73 213.98,236.53 213.98,238.33 217.78,238.33 217.78,240.13 221.59,240.13 
	225.4,240.13 229.21,240.13 233.02,240.13 236.83,240.13 240.64,240.13 244.45,240.13 248.26,240.13 252.07,240.13 252.07,238.33 
	252.07,236.53 252.07,234.73 "/>
<rect x="141.6" y="229.32" class="st49" width="3.81" height="1.8"/>
<rect x="168.26" y="223.92" class="st49" width="3.81" height="1.8"/>
<rect x="145.41" y="218.51" class="st49" width="3.81" height="1.8"/>
<rect x="69.23" y="211.31" class="st49" width="3.81" height="1.8"/>
<rect x="160.65" y="209.51" class="st49" width="3.81" height="1.8"/>
<polygon class="st49" points="160.65,204.1 160.65,205.9 164.46,205.9 164.46,204.1 164.46,202.3 160.65,202.3 "/>
<rect x="156.84" y="198.7" class="st49" width="3.81" height="1.8"/>
<polygon class="st49" points="130.17,196.9 130.17,195.1 130.17,193.3 130.17,191.49 126.36,191.49 126.36,189.69 126.36,187.89 
	122.55,187.89 122.55,186.09 122.55,184.29 118.74,184.29 118.74,182.49 118.74,180.69 114.94,180.69 114.94,178.88 111.13,178.88 
	111.13,177.08 107.32,177.08 107.32,175.28 107.32,173.48 103.51,173.48 103.51,171.68 103.51,169.88 103.51,168.08 99.7,168.08 
	95.89,168.08 95.89,169.88 95.89,171.68 95.89,173.48 95.89,175.28 95.89,177.08 95.89,178.88 95.89,180.69 95.89,182.49 
	95.89,184.29 95.89,186.09 99.7,186.09 99.7,187.89 99.7,189.69 99.7,191.49 99.7,193.3 99.7,195.1 95.89,195.1 95.89,196.9 
	95.89,198.7 95.89,200.5 95.89,202.3 95.89,204.1 92.08,204.1 92.08,205.9 92.08,207.71 92.08,209.51 92.08,211.31 88.27,211.31 
	88.27,213.11 88.27,214.91 88.27,216.71 84.46,216.71 84.46,218.51 84.46,220.32 80.65,220.32 80.65,222.12 80.65,223.92 
	80.65,225.72 76.84,225.72 76.84,227.52 76.84,229.32 76.84,231.12 73.03,231.12 73.03,232.92 73.03,234.73 73.03,236.53 
	69.23,236.53 69.23,238.33 69.23,240.13 73.03,240.13 76.84,240.13 80.65,240.13 84.46,240.13 88.27,240.13 92.08,240.13 
	95.89,240.13 99.7,240.13 103.51,240.13 107.32,240.13 111.13,240.13 114.94,240.13 118.74,240.13 122.55,240.13 126.36,240.13 
	130.17,240.13 130.17,238.33 130.17,236.53 133.98,236.53 133.98,234.73 133.98,232.92 133.98,231.12 133.98,229.32 133.98,227.52 
	133.98,225.72 133.98,223.92 133.98,222.12 133.98,220.32 133.98,218.51 133.98,216.71 133.98,214.91 133.98,213.11 133.98,211.31 
	133.98,209.51 133.98,207.71 133.98,205.9 133.98,204.1 133.98,202.3 133.98,200.5 133.98,198.7 130.17,198.7 "/>
<rect x="187.31" y="191.49" class="st49" width="3.81" height="1.8"/>
<rect x="141.6" y="191.49" class="st49" width="3.81" height="1.8"/>
<polygon class="st49" points="160.65,189.69 160.65,187.89 156.84,187.89 156.84,186.09 153.03,186.09 153.03,187.89 153.03,189.69 
	156.84,189.69 "/>
<rect x="76.84" y="186.09" class="st49" width="3.81" height="1.8"/>
<polygon class="st49" points="69.23,186.09 69.23,184.29 69.23,182.49 69.23,180.69 69.23,178.88 69.23,177.08 69.23,175.28 
	69.23,173.48 69.23,171.68 69.23,169.88 69.23,168.08 69.23,166.28 69.23,164.47 69.23,162.67 69.23,160.87 69.23,159.07 
	73.03,159.07 73.03,157.27 73.03,155.47 73.03,153.67 73.03,151.86 73.03,150.06 69.23,150.06 69.23,151.86 69.23,153.67 
	69.23,155.47 65.42,155.47 65.42,157.27 65.42,159.07 61.61,159.07 61.61,160.87 61.61,162.67 57.8,162.67 57.8,164.47 
	53.99,164.47 53.99,166.28 53.99,168.08 50.18,168.08 50.18,169.88 50.18,171.68 50.18,173.48 50.18,175.28 46.37,175.28 
	46.37,177.08 46.37,178.88 46.37,180.69 46.37,182.49 42.56,182.49 42.56,184.29 42.56,186.09 38.75,186.09 38.75,187.89 
	38.75,189.69 34.94,189.69 34.94,191.49 34.94,193.3 31.13,193.3 31.13,195.1 27.32,195.1 27.32,196.9 27.32,198.7 23.51,198.7 
	23.51,200.5 19.71,200.5 19.71,202.3 19.71,204.1 15.9,204.1 15.9,205.9 15.9,207.71 12.09,207.71 12.09,209.51 12.09,211.31 
	8.28,211.31 8.28,213.11 4.47,213.11 4.47,214.91 4.47,216.71 0.66,216.71 0.66,218.51 0.66,220.32 -3.15,220.32 -3.15,222.12 
	-6.96,222.12 -6.96,223.92 -6.96,225.72 -10.77,225.72 -10.77,227.52 -14.58,227.52 -14.58,229.32 -18.39,229.32 -18.39,231.12 
	-18.39,232.92 -18.39,234.73 -22.2,234.73 -22.2,236.53 -26.01,236.53 -26.01,238.33 -26.01,240.13 -22.2,240.13 -18.39,240.13 
	-14.58,240.13 -10.77,240.13 -6.96,240.13 -3.15,240.13 0.66,240.13 4.47,240.13 8.28,240.13 12.09,240.13 15.9,240.13 
	19.71,240.13 23.51,240.13 27.32,240.13 31.13,240.13 34.94,240.13 38.75,240.13 42.56,240.13 42.56,238.33 42.56,236.53 
	42.56,234.73 46.37,234.73 46.37,232.92 46.37,231.12 46.37,229.32 50.18,229.32 50.18,227.52 50.18,225.72 53.99,225.72 
	53.99,223.92 53.99,222.12 57.8,222.12 57.8,220.32 61.61,220.32 61.61,218.51 61.61,216.71 61.61,214.91 65.42,214.91 
	65.42,213.11 65.42,211.31 65.42,209.51 65.42,207.71 65.42,205.9 65.42,204.1 65.42,202.3 65.42,200.5 65.42,198.7 65.42,196.9 
	65.42,195.1 65.42,193.3 65.42,191.49 65.42,189.69 65.42,187.89 69.23,187.89 "/>
<polygon class="st49" points="202.55,184.29 202.55,182.49 198.74,182.49 198.74,184.29 198.74,186.09 198.74,187.89 202.55,187.89 
	202.55,186.09 "/>
<polygon class="st49" points="198.74,178.88 194.93,178.88 194.93,180.69 194.93,182.49 198.74,182.49 198.74,180.69 "/>
<rect x="191.12" y="175.28" class="st49" width="3.81" height="1.8"/>
<polygon class="st49" points="153.03,175.28 153.03,173.48 153.03,171.68 149.22,171.68 149.22,173.48 149.22,175.28 149.22,177.08 
	153.03,177.08 "/>
<rect x="175.88" y="173.48" class="st49" width="3.81" height="1.8"/>
<rect x="179.69" y="171.68" class="st49" width="3.81" height="1.8"/>
<rect x="187.31" y="169.88" class="st49" width="3.81" height="1.8"/>
<rect x="172.07" y="168.08" class="st49" width="3.81" height="1.8"/>
<rect x="175.88" y="164.47" class="st49" width="3.81" height="1.8"/>
<rect x="137.79" y="159.07" class="st49" width="3.81" height="1.8"/>
<rect x="164.46" y="157.27" class="st49" width="3.81" height="1.8"/>
<rect x="168.26" y="151.86" class="st49" width="3.81" height="1.8"/>
<polygon class="st49" points="76.84,148.26 76.84,146.46 73.03,146.46 73.03,148.26 73.03,150.06 76.84,150.06 "/>
<rect x="164.46" y="146.46" class="st49" width="3.81" height="1.8"/>
<polygon class="st49" points="80.65,144.66 80.65,142.86 76.84,142.86 76.84,144.66 76.84,146.46 80.65,146.46 "/>
<rect x="57.8" y="142.86" class="st50" width="3.81" height="1.8"/>
<rect x="130.17" y="141.06" class="st51" width="3.81" height="1.8"/>
<rect x="122.55" y="141.06" class="st52" width="3.81" height="1.8"/>
<rect x="88.27" y="141.06" class="st53" width="3.81" height="1.8"/>
<path class="st54" d="M259.69,238.33v-1.8v-1.8v-1.8h-3.81v-1.8v-1.8v-1.8v-1.8h-3.81v-1.8v-1.8h-3.81v-1.8v-1.8h-3.81v-1.8v-1.8
	h-3.81v-1.8v-1.8v-1.8h-3.81v-1.8v-1.8h-3.81v-1.8v-1.8h-3.81v-1.8v-1.8h-3.81v-1.8v-1.8h-3.81v-1.8v-1.8v-1.8h-3.81v-1.8v-1.8
	h-3.81v-1.8v-1.8h-3.81v-1.8v-1.8v-1.8h-3.81v-1.8v-1.8h-3.81v-1.8v-1.8h-3.81v-1.8v-1.8h-3.81v-1.8v-1.8h-3.81v-1.8v-1.8h-3.81
	v-1.8v-1.8v-1.8h-3.81v-1.8v-1.8h-3.81v-1.8v-1.8h-3.81h-3.81h-3.81v1.8v1.8v1.8h3.81v1.8v1.8v1.8v1.8h3.81v1.8v1.8v1.8h3.81v1.8
	v1.8v1.8v1.8h3.81v1.8v1.8v1.8v1.8h3.81v1.8v1.8v1.8v1.8h3.81v1.8v1.8v1.8v1.8h-3.81v-1.8v-1.8v-1.8v-1.8h-3.81v-1.8v-1.8v-1.8
	h-3.81v-1.8v-1.8v-1.8h-3.81v1.8h-3.81h-3.81v-1.8h-3.81v-1.8h-3.81v-1.8v-1.8h-3.81v-1.8v-1.8h-3.81v-1.8v-1.8h-3.81v-1.8v-1.8
	h-3.81v-1.8v-1.8h-3.81v1.8v1.8v1.8h-3.81v1.8v1.8v1.8v1.8v1.8v1.8v1.8v1.8v1.8v1.8v1.8v1.8v1.8v1.8h3.81v1.8v1.8v1.8h3.81v1.8v1.8
	v1.8v1.8h3.81v1.8v1.8v1.8v1.8v1.8v1.8v1.8v1.8v1.8v1.8v1.8v1.8h-3.81v1.8v1.8v1.8v1.8v1.8v1.8h-3.81v1.8v1.8v1.8v1.8v1.8h3.81h3.81
	h3.81h3.81h3.81v-1.8h3.81v-1.8v-1.8v-1.8v-1.8v-1.8h3.81v-1.8v-1.8v-1.8h3.81v-1.8v-1.8h3.81v-1.8v-1.8h3.81v-1.8v-1.8v-1.8v-1.8
	v-1.8v-1.8v-1.8v-1.8v-1.8v-1.8v-1.8v-1.8h3.81v1.8v1.8h3.81v1.8v1.8h3.81v1.8h3.81v1.8v1.8h3.81v1.8h3.81v1.8h3.81h3.81v-1.8v-1.8
	v-1.8v-1.8v-1.8v-1.8h-3.81v-1.8v-1.8v-1.8h-3.81v-1.8v-1.8v-1.8v-1.8h-3.81v-1.8v-1.8v-1.8h-3.81v-1.8v-1.8h3.81v1.8v1.8h3.81v1.8
	v1.8v1.8h3.81v1.8v1.8h3.81v1.8v1.8h3.81v1.8v1.8h3.81v1.8v1.8v1.8h3.81v1.8v1.8h3.81v1.8v1.8h3.81v1.8v1.8h3.81v1.8v1.8h3.81v1.8
	v1.8h3.81v1.8v1.8h3.81v1.8v1.8v1.8h3.81v1.8v1.8h3.81v1.8v1.8v1.8h3.81h3.81h3.81v-1.8H259.69z M187.31,169.88h3.81v1.8h-3.81
	V169.88z M160.65,209.51v-1.8v-1.8v-1.8v-1.8h3.81v1.8v1.8v1.8v1.8v1.8h-3.81V209.51z M153.03,173.48v1.8v1.8h-3.81v-1.8v-1.8v-1.8
	h3.81V173.48z M156.84,198.7v-1.8v-1.8v-1.8v-1.8v-1.8h-3.81v-1.8v-1.8v-1.8v-1.8v-1.8h3.81v1.8v1.8v1.8v1.8h3.81v1.8v1.8v1.8v1.8
	v1.8v1.8v1.8h-3.81V198.7z M191.12,196.9v-1.8h3.81v1.8v1.8h-3.81V196.9z M191.12,177.08v-1.8h3.81v1.8H191.12z"/>
<polygon class="st54" points="172.07,171.68 172.07,173.48 175.88,173.48 175.88,171.68 175.88,169.88 172.07,169.88 "/>
<rect x="168.26" y="164.47" class="st54" width="3.81" height="1.8"/>
<path class="st54" d="M95.89,162.67v-1.8v-1.8v-1.8v-1.8h-3.81v-1.8v-1.8v-1.8v-1.8v-1.8v-1.8v-1.8h-3.81v-1.8h-3.81v1.8h-3.81v1.8
	v1.8h-3.81v1.8v1.8h-3.81v1.8v1.8v1.8v1.8v1.8h-3.81v1.8v1.8v1.8v1.8v1.8v1.8v1.8v1.8v1.8v1.8v1.8v1.8v1.8v1.8v1.8v1.8h-3.81v1.8
	v1.8v1.8v1.8v1.8v1.8v1.8v1.8v1.8v1.8v1.8v1.8v1.8v1.8v1.8h-3.81v1.8v1.8v1.8H57.8v1.8h-3.81v1.8v1.8h-3.81v1.8v1.8h-3.81v1.8v1.8
	v1.8h-3.81v1.8v1.8v1.8h3.81h3.81h3.81h3.81h3.81h3.81h3.81v-1.8v-1.8h3.81v-1.8v-1.8v-1.8h3.81v-1.8v-1.8v-1.8h3.81v-1.8v-1.8v-1.8
	h3.81v-1.8v-1.8h3.81v-1.8v-1.8v-1.8h3.81v-1.8v-1.8v-1.8v-1.8h3.81v-1.8v-1.8v-1.8v-1.8v-1.8h3.81v-1.8v-1.8v-1.8v-1.8v-1.8h-3.81
	v-1.8v-1.8v-1.8v-1.8v-1.8v-1.8v-1.8v-1.8v-1.8v-1.8h3.81v-1.8v-1.8h-3.81V162.67z M69.23,211.31v-1.8v-1.8h3.81v-1.8v-1.8v-1.8
	v-1.8v-1.8h3.81v-1.8v-1.8v-1.8v-1.8v-1.8v-1.8v-1.8h3.81v1.8v1.8v1.8v1.8v1.8v1.8v1.8v1.8h-3.81v1.8v1.8v1.8v1.8h-3.81v1.8v1.8v1.8
	h-3.81V211.31z M65.42,216.71h3.81v1.8h-3.81V216.71z"/>
<rect x="164.46" y="159.07" class="st54" width="3.81" height="1.8"/>
<polygon class="st54" points="160.65,153.67 160.65,155.47 160.65,157.27 164.46,157.27 164.46,155.47 164.46,153.67 164.46,151.86 
	164.46,150.06 160.65,150.06 160.65,151.86 "/>
<polygon class="st54" points="164.46,144.66 164.46,142.86 160.65,142.86 160.65,141.06 156.84,141.06 156.84,142.86 156.84,144.66 
	156.84,146.46 156.84,148.26 156.84,150.06 160.65,150.06 160.65,148.26 160.65,146.46 164.46,146.46 168.26,146.46 168.26,144.66 
	"/>
<rect x="80.65" y="141.06" class="st55" width="3.81" height="1.8"/>
<rect x="69.23" y="141.06" class="st56" width="3.81" height="1.8"/>
<rect x="61.61" y="141.06" class="st45" width="3.81" height="1.8"/>
<polygon class="st57" points="213.98,238.33 213.98,236.53 213.98,234.73 210.17,234.73 210.17,232.92 210.17,231.12 210.17,229.32 
	206.36,229.32 206.36,227.52 206.36,225.72 206.36,223.92 202.55,223.92 202.55,222.12 202.55,220.32 198.74,220.32 198.74,218.51 
	198.74,216.71 194.93,216.71 194.93,214.91 194.93,213.11 191.12,213.11 191.12,211.31 191.12,209.51 187.31,209.51 187.31,207.71 
	187.31,205.9 183.5,205.9 183.5,204.1 183.5,202.3 183.5,200.5 179.69,200.5 179.69,202.3 179.69,204.1 179.69,205.9 179.69,207.71 
	179.69,209.51 179.69,211.31 179.69,213.11 179.69,214.91 179.69,216.71 179.69,218.51 175.88,218.51 175.88,220.32 172.07,220.32 
	172.07,222.12 172.07,223.92 172.07,225.72 168.26,225.72 168.26,227.52 168.26,229.32 168.26,231.12 164.46,231.12 164.46,232.92 
	164.46,234.73 164.46,236.53 164.46,238.33 164.46,240.13 168.26,240.13 172.07,240.13 175.88,240.13 179.69,240.13 183.5,240.13 
	187.31,240.13 191.12,240.13 194.93,240.13 198.74,240.13 202.55,240.13 206.36,240.13 210.17,240.13 213.98,240.13 217.78,240.13 
	217.78,238.33 "/>
<polygon class="st57" points="69.23,209.51 69.23,211.31 73.03,211.31 73.03,209.51 73.03,207.71 69.23,207.71 "/>
<polygon class="st57" points="73.03,202.3 73.03,204.1 73.03,205.9 76.84,205.9 76.84,204.1 76.84,202.3 76.84,200.5 73.03,200.5 
	"/>
<polygon class="st57" points="145.41,198.7 145.41,196.9 145.41,195.1 145.41,193.3 141.6,193.3 141.6,191.49 141.6,189.69 
	141.6,187.89 141.6,186.09 137.79,186.09 137.79,184.29 137.79,182.49 137.79,180.69 137.79,178.88 137.79,177.08 137.79,175.28 
	137.79,173.48 137.79,171.68 137.79,169.88 137.79,168.08 137.79,166.28 137.79,164.47 137.79,162.67 137.79,160.87 137.79,159.07 
	141.6,159.07 141.6,157.27 141.6,155.47 141.6,153.67 141.6,151.86 141.6,150.06 137.79,150.06 137.79,148.26 137.79,146.46 
	133.98,146.46 133.98,144.66 133.98,142.86 130.17,142.86 130.17,141.06 130.17,139.26 126.36,139.26 126.36,141.06 126.36,142.86 
	122.55,142.86 122.55,144.66 122.55,146.46 122.55,148.26 118.74,148.26 118.74,150.06 114.94,150.06 114.94,151.86 114.94,153.67 
	114.94,155.47 111.13,155.47 111.13,157.27 107.32,157.27 107.32,159.07 107.32,160.87 103.51,160.87 103.51,162.67 103.51,164.47 
	99.7,164.47 99.7,166.28 99.7,168.08 103.51,168.08 103.51,169.88 103.51,171.68 107.32,171.68 107.32,173.48 107.32,175.28 
	111.13,175.28 111.13,177.08 114.94,177.08 114.94,178.88 114.94,180.69 118.74,180.69 118.74,182.49 118.74,184.29 122.55,184.29 
	122.55,186.09 126.36,186.09 126.36,187.89 126.36,189.69 126.36,191.49 130.17,191.49 130.17,193.3 130.17,195.1 130.17,196.9 
	133.98,196.9 133.98,198.7 133.98,200.5 133.98,202.3 133.98,204.1 133.98,205.9 133.98,207.71 133.98,209.51 133.98,211.31 
	133.98,213.11 133.98,214.91 133.98,216.71 133.98,218.51 133.98,220.32 133.98,222.12 133.98,223.92 133.98,225.72 133.98,227.52 
	133.98,229.32 133.98,231.12 133.98,232.92 133.98,234.73 133.98,236.53 133.98,238.33 130.17,238.33 130.17,240.13 133.98,240.13 
	137.79,240.13 137.79,238.33 141.6,238.33 141.6,236.53 141.6,234.73 141.6,232.92 141.6,231.12 141.6,229.32 145.41,229.32 
	145.41,227.52 145.41,225.72 145.41,223.92 145.41,222.12 145.41,220.32 145.41,218.51 145.41,216.71 149.22,216.71 149.22,214.91 
	149.22,213.11 149.22,211.31 149.22,209.51 149.22,207.71 149.22,205.9 149.22,204.1 149.22,202.3 149.22,200.5 145.41,200.5 "/>
<rect x="191.12" y="195.1" class="st57" width="3.81" height="1.8"/>
<polygon class="st57" points="156.84,191.49 156.84,193.3 156.84,195.1 156.84,196.9 156.84,198.7 160.65,198.7 160.65,196.9 
	160.65,195.1 160.65,193.3 160.65,191.49 160.65,189.69 156.84,189.69 "/>
<polygon class="st57" points="76.84,191.49 76.84,193.3 76.84,195.1 76.84,196.9 76.84,198.7 76.84,200.5 80.65,200.5 80.65,198.7 
	80.65,196.9 80.65,195.1 80.65,193.3 80.65,191.49 80.65,189.69 76.84,189.69 "/>
<polygon class="st57" points="187.31,189.69 187.31,191.49 191.12,191.49 191.12,189.69 191.12,187.89 187.31,187.89 "/>
<polygon class="st57" points="156.84,184.29 156.84,182.49 156.84,180.69 153.03,180.69 153.03,182.49 153.03,184.29 153.03,186.09 
	156.84,186.09 "/>
<polygon class="st57" points="183.5,182.49 183.5,184.29 183.5,186.09 187.31,186.09 187.31,184.29 187.31,182.49 187.31,180.69 
	183.5,180.69 "/>
<polygon class="st57" points="179.69,177.08 179.69,178.88 183.5,178.88 183.5,177.08 183.5,175.28 183.5,173.48 179.69,173.48 
	179.69,175.28 "/>
<polygon class="st57" points="69.23,153.67 69.23,151.86 69.23,150.06 73.03,150.06 73.03,148.26 73.03,146.46 76.84,146.46 
	76.84,144.66 76.84,142.86 73.03,142.86 69.23,142.86 69.23,141.06 65.42,141.06 65.42,142.86 61.61,142.86 61.61,144.66 
	57.8,144.66 57.8,146.46 53.99,146.46 53.99,148.26 53.99,150.06 53.99,151.86 50.18,151.86 50.18,153.67 50.18,155.47 
	50.18,157.27 46.37,157.27 46.37,159.07 46.37,160.87 46.37,162.67 46.37,164.47 42.56,164.47 42.56,166.28 42.56,168.08 
	38.75,168.08 38.75,169.88 38.75,171.68 38.75,173.48 34.94,173.48 34.94,175.28 34.94,177.08 34.94,178.88 34.94,180.69 
	31.13,180.69 31.13,182.49 31.13,184.29 31.13,186.09 27.32,186.09 27.32,187.89 23.51,187.89 23.51,189.69 19.71,189.69 
	19.71,191.49 19.71,193.3 15.9,193.3 15.9,195.1 12.09,195.1 12.09,196.9 12.09,198.7 8.28,198.7 8.28,200.5 4.47,200.5 4.47,202.3 
	4.47,204.1 0.66,204.1 0.66,205.9 0.66,207.71 -3.15,207.71 -3.15,209.51 -6.96,209.51 -6.96,211.31 -10.77,211.31 -10.77,213.11 
	-10.77,214.91 -14.58,214.91 -14.58,216.71 -18.39,216.71 -18.39,218.51 -18.39,220.32 -22.2,220.32 -22.2,222.12 -22.2,223.92 
	-22.2,225.72 -26.01,225.72 -26.01,227.52 -26.01,229.32 -29.81,229.32 -29.81,231.12 -29.81,232.92 -33.62,232.92 -33.62,234.73 
	-37.43,234.73 -37.43,236.53 -37.43,238.33 -41.24,238.33 -41.24,240.13 -37.43,240.13 -33.62,240.13 -29.81,240.13 -29.81,238.33 
	-26.01,238.33 -26.01,236.53 -22.2,236.53 -22.2,234.73 -22.2,232.92 -18.39,232.92 -18.39,231.12 -18.39,229.32 -14.58,229.32 
	-14.58,227.52 -10.77,227.52 -10.77,225.72 -6.96,225.72 -6.96,223.92 -6.96,222.12 -6.96,220.32 -3.15,220.32 -3.15,218.51 
	0.66,218.51 0.66,216.71 4.47,216.71 4.47,214.91 4.47,213.11 8.28,213.11 8.28,211.31 8.28,209.51 12.09,209.51 12.09,207.71 
	15.9,207.71 15.9,205.9 15.9,204.1 19.71,204.1 19.71,202.3 19.71,200.5 23.51,200.5 23.51,198.7 27.32,198.7 27.32,196.9 
	27.32,195.1 31.13,195.1 31.13,193.3 31.13,191.49 34.94,191.49 34.94,189.69 38.75,189.69 38.75,187.89 38.75,186.09 42.56,186.09 
	42.56,184.29 42.56,182.49 42.56,180.69 46.37,180.69 46.37,178.88 46.37,177.08 46.37,175.28 46.37,173.48 50.18,173.48 
	50.18,171.68 50.18,169.88 50.18,168.08 50.18,166.28 53.99,166.28 53.99,164.47 57.8,164.47 57.8,162.67 61.61,162.67 
	61.61,160.87 61.61,159.07 65.42,159.07 65.42,157.27 65.42,155.47 69.23,155.47 "/>
<polygon class="st57" points="164.46,151.86 164.46,153.67 164.46,155.47 164.46,157.27 168.26,157.27 168.26,159.07 168.26,160.87 
	168.26,162.67 168.26,164.47 172.07,164.47 172.07,166.28 172.07,168.08 175.88,168.08 175.88,169.88 175.88,171.68 175.88,173.48 
	179.69,173.48 179.69,171.68 179.69,169.88 179.69,168.08 179.69,166.28 175.88,166.28 175.88,164.47 175.88,162.67 175.88,160.87 
	175.88,159.07 172.07,159.07 172.07,157.27 172.07,155.47 172.07,153.67 168.26,153.67 168.26,151.86 168.26,150.06 168.26,148.26 
	164.46,148.26 164.46,150.06 "/>
<rect x="160.65" y="146.46" class="st57" width="3.81" height="1.8"/>
<rect x="84.46" y="139.26" class="st58" width="3.81" height="1.8"/>
<rect x="65.42" y="139.26" class="st59" width="3.81" height="1.8"/>
<rect x="126.36" y="137.45" class="st60" width="3.81" height="1.8"/>
<rect x="69.23" y="133.85" class="st61" width="3.81" height="1.8"/>
<rect x="73.03" y="132.05" class="st62" width="3.81" height="1.8"/>
<rect x="80.65" y="124.85" class="st63" width="3.81" height="1.8"/>
<rect x="84.46" y="123.04" class="st64" width="3.81" height="1.8"/>
<rect x="92.08" y="115.84" class="st62" width="3.81" height="1.8"/>
<rect x="95.89" y="112.24" class="st62" width="3.81" height="1.8"/>
<rect x="99.7" y="108.63" class="st62" width="3.81" height="1.8"/>
<polygon class="st65" points="126.36,123.04 126.36,121.24 126.36,119.44 126.36,117.64 126.36,115.84 126.36,114.04 126.36,112.24 
	122.55,112.24 122.55,110.43 122.55,108.63 122.55,106.83 118.74,106.83 118.74,105.03 118.74,103.23 118.74,101.43 118.74,99.63 
	118.74,97.83 114.94,97.83 114.94,99.63 111.13,99.63 111.13,101.43 111.13,103.23 107.32,103.23 107.32,105.03 107.32,106.83 
	103.51,106.83 103.51,108.63 103.51,110.43 99.7,110.43 99.7,112.24 99.7,114.04 95.89,114.04 95.89,115.84 95.89,117.64 
	92.08,117.64 92.08,119.44 88.27,119.44 88.27,121.24 88.27,123.04 88.27,124.85 84.46,124.85 84.46,126.65 80.65,126.65 
	80.65,128.45 76.84,128.45 76.84,130.25 76.84,132.05 76.84,133.85 73.03,133.85 73.03,135.65 69.23,135.65 69.23,137.45 
	65.42,137.45 65.42,139.26 69.23,139.26 69.23,141.06 73.03,141.06 73.03,142.86 76.84,142.86 80.65,142.86 80.65,141.06 
	84.46,141.06 84.46,139.26 88.27,139.26 88.27,141.06 92.08,141.06 92.08,142.86 92.08,144.66 92.08,146.46 92.08,148.26 
	92.08,150.06 92.08,151.86 92.08,153.67 92.08,155.47 95.89,155.47 95.89,157.27 95.89,159.07 95.89,160.87 95.89,162.67 
	95.89,164.47 99.7,164.47 99.7,162.67 103.51,162.67 103.51,160.87 103.51,159.07 107.32,159.07 107.32,157.27 107.32,155.47 
	111.13,155.47 111.13,153.67 114.94,153.67 114.94,151.86 114.94,150.06 118.74,150.06 118.74,148.26 118.74,146.46 122.55,146.46 
	122.55,144.66 122.55,142.86 122.55,141.06 126.36,141.06 126.36,139.26 126.36,137.45 130.17,137.45 130.17,135.65 130.17,133.85 
	130.17,132.05 130.17,130.25 130.17,128.45 130.17,126.65 130.17,124.85 130.17,123.04 "/>
<rect x="111.13" y="97.83" class="st62" width="3.81" height="1.8"/>
<polygon class="st1" points="172.07,141.06 172.07,139.26 172.07,137.45 168.26,137.45 168.26,135.65 164.46,135.65 164.46,133.85 
	160.65,133.85 160.65,132.05 160.65,130.25 156.84,130.25 156.84,128.45 153.03,128.45 153.03,126.65 149.22,126.65 149.22,124.85 
	149.22,123.04 145.41,123.04 145.41,121.24 145.41,119.44 141.6,119.44 141.6,117.64 141.6,115.84 137.79,115.84 137.79,114.04 
	137.79,112.24 133.98,112.24 133.98,110.43 130.17,110.43 130.17,108.63 130.17,106.83 126.36,106.83 126.36,105.03 126.36,103.23 
	122.55,103.23 122.55,101.43 122.55,99.63 118.74,99.63 118.74,101.43 118.74,103.23 118.74,105.03 118.74,106.83 122.55,106.83 
	122.55,108.63 122.55,110.43 122.55,112.24 126.36,112.24 126.36,114.04 126.36,115.84 126.36,117.64 126.36,119.44 126.36,119.44 
	126.36,121.24 126.36,121.24 126.36,123.04 130.17,123.04 130.17,124.85 130.17,126.65 130.17,128.45 130.17,130.25 130.17,132.05 
	130.17,133.85 130.17,135.65 130.17,137.45 130.17,139.26 130.17,141.06 133.98,141.06 133.98,142.86 133.98,144.66 133.98,146.46 
	137.79,146.46 137.79,148.26 137.79,150.06 141.6,150.06 141.6,151.86 141.6,153.67 141.6,155.47 145.41,155.47 145.41,157.27 
	145.41,159.07 149.22,159.07 149.22,160.87 149.22,162.67 153.03,162.67 153.03,164.47 153.03,166.28 156.84,166.28 156.84,168.08 
	156.84,169.88 160.65,169.88 160.65,171.68 160.65,173.48 164.46,173.48 164.46,173.48 164.46,175.28 168.26,175.28 168.26,177.08 
	172.07,177.08 175.88,177.08 175.88,175.28 175.88,173.48 172.07,173.48 172.07,171.68 172.07,169.88 172.07,168.08 172.07,168.08 
	172.07,166.28 168.26,166.28 168.26,164.47 168.26,162.67 168.26,160.87 164.46,160.87 164.46,162.67 164.46,162.67 164.46,160.87 
	164.46,159.07 164.46,157.27 160.65,157.27 160.65,155.47 160.65,153.67 160.65,151.86 160.65,150.06 156.84,150.06 156.84,148.26 
	156.84,146.46 156.84,144.66 156.84,142.86 156.84,141.06 160.65,141.06 160.65,142.86 164.46,142.86 164.46,144.66 168.26,144.66 
	168.26,146.46 172.07,146.46 172.07,144.66 172.07,144.66 175.88,144.66 175.88,142.86 175.88,141.06 "/>
<rect x="114.94" y="96.02" class="st1" width="3.81" height="1.8"/>
<polygon class="st0" points="29.38,240.13 102.73,240.13 102.73,238.72 101.03,238.72 101.03,228.55 99.32,228.55 99.32,230.01 
	97.62,230.01 97.62,231.46 87.38,231.46 87.38,230.01 85.67,230.01 85.67,228.55 83.97,228.55 83.97,227.1 82.26,227.1 
	82.26,228.55 80.56,228.55 80.56,231.46 78.85,231.46 78.85,232.91 77.14,232.91 77.14,234.36 75.44,234.36 75.44,235.82 
	72.03,235.82 72.03,237.27 58.38,237.27 58.38,235.82 54.97,235.82 54.97,234.36 53.26,234.36 53.26,232.91 51.56,232.91 
	51.56,231.46 48.14,231.46 48.14,232.91 46.44,232.91 46.44,234.36 36.2,234.36 36.2,232.91 34.5,232.91 34.5,231.46 32.79,231.46 
	32.79,228.55 31.09,228.55 31.09,222.74 29.38,222.74 29.38,227.1 27.67,227.1 27.67,235.82 29.38,235.82 "/>
<polygon class="st1" points="32.79,231.46 34.5,231.46 34.5,232.91 36.2,232.91 36.2,234.36 46.44,234.36 46.44,232.91 
	48.14,232.91 48.14,231.46 51.56,231.46 51.56,232.91 53.26,232.91 53.26,234.36 54.97,234.36 54.97,235.82 58.38,235.82 
	58.38,237.27 72.03,237.27 72.03,235.82 75.44,235.82 75.44,234.36 77.14,234.36 77.14,232.91 78.85,232.91 78.85,231.46 
	80.56,231.46 80.56,228.55 82.26,228.55 82.26,227.1 83.97,227.1 83.97,228.55 85.67,228.55 85.67,230.01 87.38,230.01 
	87.38,231.46 97.62,231.46 97.62,230.01 99.32,230.01 99.32,228.55 101.03,228.55 101.03,238.72 102.73,238.72 102.73,240.13 
	112.97,240.13 112.97,231.46 111.26,231.46 111.26,228.55 109.56,228.55 109.56,227.1 107.85,227.1 107.85,225.65 106.14,225.65 
	106.14,224.19 101.03,224.19 101.03,219.84 99.32,219.84 99.32,215.48 97.62,215.48 97.62,214.02 95.91,214.02 95.91,212.57 
	94.2,212.57 94.2,211.12 92.5,211.12 92.5,209.67 78.85,209.67 78.85,211.12 77.14,211.12 77.14,208.21 75.44,208.21 75.44,206.76 
	72.03,206.76 72.03,205.31 70.32,205.31 70.32,203.85 60.09,203.85 60.09,205.31 56.67,205.31 56.67,206.76 54.97,206.76 
	54.97,208.21 53.26,208.21 53.26,209.67 51.56,209.67 51.56,211.12 49.85,211.12 49.85,215.48 37.91,215.48 37.91,216.93 
	34.5,216.93 34.5,218.38 32.79,218.38 32.79,219.84 31.09,219.84 31.09,228.55 32.79,228.55 "/>
<polygon class="st0" points="87.92,232.33 89.88,232.33 89.88,235.66 91.83,235.66 91.83,237.33 93.79,237.33 93.79,239 97.71,239 
	97.71,240.13 176.09,240.13 176.09,239 178.05,239 178.05,237.33 176.09,237.33 176.09,235.66 174.13,235.66 174.13,234 172.17,234 
	172.17,230.66 170.21,230.66 170.21,218.98 168.25,218.98 168.25,220.65 166.29,220.65 166.29,222.31 154.54,222.31 154.54,220.65 
	152.58,220.65 152.58,218.98 150.62,218.98 150.62,217.31 148.66,217.31 148.66,218.98 146.7,218.98 146.7,222.31 144.74,222.31 
	144.74,223.98 142.78,223.98 142.78,225.65 140.82,225.65 140.82,227.32 136.9,227.32 136.9,228.99 121.23,228.99 121.23,227.32 
	117.31,227.32 117.31,225.65 115.35,225.65 115.35,223.98 113.39,223.98 113.39,222.31 109.47,222.31 109.47,223.98 107.51,223.98 
	107.51,225.65 95.75,225.65 95.75,223.98 93.79,223.98 93.79,222.31 91.83,222.31 91.83,218.98 89.88,218.98 89.88,212.3 
	87.92,212.3 87.92,217.31 85.96,217.31 85.96,227.32 87.92,227.32 "/>
<polygon class="st1" points="181.97,222.31 181.97,220.65 181.97,218.98 180.01,218.98 180.01,217.31 178.05,217.31 178.05,215.64 
	176.09,215.64 176.09,213.97 174.13,213.97 172.17,213.97 170.21,213.97 170.21,212.3 170.21,210.63 170.21,208.96 168.25,208.96 
	168.25,207.3 168.25,205.63 168.25,203.96 166.29,203.96 166.29,202.29 164.33,202.29 164.33,200.62 162.37,200.62 162.37,198.95 
	160.41,198.95 160.41,197.28 158.45,197.28 156.49,197.28 154.54,197.28 152.58,197.28 150.62,197.28 148.66,197.28 146.7,197.28 
	144.74,197.28 144.74,198.95 142.78,198.95 142.78,197.28 142.78,195.61 140.82,195.61 140.82,193.95 138.86,193.95 136.9,193.95 
	136.9,192.28 134.94,192.28 134.94,190.61 132.98,190.61 131.02,190.61 129.06,190.61 127.1,190.61 125.14,190.61 123.19,190.61 
	123.19,192.28 121.23,192.28 119.27,192.28 119.27,193.95 117.31,193.95 117.31,195.61 115.35,195.61 115.35,197.28 113.39,197.28 
	113.39,198.95 111.43,198.95 111.43,200.62 111.43,202.29 111.43,203.96 109.47,203.96 107.51,203.96 105.55,203.96 103.59,203.96 
	101.63,203.96 99.67,203.96 97.71,203.96 97.71,205.63 95.75,205.63 93.79,205.63 93.79,207.3 91.83,207.3 91.83,208.96 
	89.88,208.96 89.88,210.63 89.88,212.3 89.88,213.97 89.88,215.64 89.88,217.31 89.88,218.98 91.83,218.98 91.83,220.65 
	91.83,222.31 93.79,222.31 93.79,223.98 95.75,223.98 95.75,225.65 97.71,225.65 99.67,225.65 101.63,225.65 103.59,225.65 
	105.55,225.65 107.51,225.65 107.51,223.98 109.47,223.98 109.47,222.31 111.43,222.31 113.39,222.31 113.39,223.98 115.35,223.98 
	115.35,225.65 117.31,225.65 117.31,227.32 119.27,227.32 121.23,227.32 121.23,228.99 123.19,228.99 125.14,228.99 127.1,228.99 
	129.06,228.99 131.02,228.99 132.98,228.99 134.94,228.99 136.9,228.99 136.9,227.32 138.86,227.32 140.82,227.32 140.82,225.65 
	142.78,225.65 142.78,223.98 144.74,223.98 144.74,222.31 146.7,222.31 146.7,220.65 146.7,218.98 148.66,218.98 148.66,217.31 
	150.62,217.31 150.62,218.98 152.58,218.98 152.58,220.65 154.54,220.65 154.54,222.31 156.49,222.31 158.45,222.31 160.41,222.31 
	162.37,222.31 164.33,222.31 166.29,222.31 166.29,220.65 168.25,220.65 168.25,218.98 170.21,218.98 170.21,220.65 170.21,222.31 
	170.21,223.98 170.21,225.65 170.21,227.32 170.21,228.99 170.21,230.66 172.17,230.66 172.17,232.33 172.17,234 174.13,234 
	174.13,235.66 176.09,235.66 176.09,237.33 178.05,237.33 178.05,239 180.01,239 180.01,237.33 180.01,235.66 181.97,235.66 
	181.97,234 183.93,234 183.93,232.33 183.93,230.66 183.93,228.99 183.93,227.32 183.93,225.65 183.93,223.98 183.93,222.31 "/>
<polygon class="st0" points="151.14,232.83 153.1,232.83 153.1,236.17 155.06,236.17 155.06,237.84 157.02,237.84 157.02,239.5 
	160.94,239.5 160.94,240.63 239.32,240.63 239.32,239.5 241.28,239.5 241.28,237.84 239.32,237.84 239.32,236.17 237.36,236.17 
	237.36,234.5 235.4,234.5 235.4,231.16 233.44,231.16 233.44,219.48 231.48,219.48 231.48,221.15 229.52,221.15 229.52,222.82 
	217.76,222.82 217.76,221.15 215.8,221.15 215.8,219.48 213.84,219.48 213.84,217.81 211.88,217.81 211.88,219.48 209.93,219.48 
	209.93,222.82 207.97,222.82 207.97,224.49 206.01,224.49 206.01,226.15 204.05,226.15 204.05,227.82 200.13,227.82 200.13,229.49 
	184.45,229.49 184.45,227.82 180.53,227.82 180.53,226.15 178.58,226.15 178.58,224.49 176.62,224.49 176.62,222.82 172.7,222.82 
	172.7,224.49 170.74,224.49 170.74,226.15 158.98,226.15 158.98,224.49 157.02,224.49 157.02,222.82 155.06,222.82 155.06,219.48 
	153.1,219.48 153.1,212.81 151.14,212.81 151.14,217.81 149.18,217.81 149.18,227.82 151.14,227.82 "/>
<polygon class="st1" points="245.19,222.82 245.19,221.15 245.19,219.48 243.24,219.48 243.24,217.81 241.28,217.81 241.28,216.14 
	239.32,216.14 239.32,214.47 237.36,214.47 235.4,214.47 233.44,214.47 233.44,212.81 233.44,211.14 233.44,209.47 231.48,209.47 
	231.48,207.8 231.48,206.13 231.48,204.46 229.52,204.46 229.52,202.79 227.56,202.79 227.56,201.12 225.6,201.12 225.6,199.46 
	223.64,199.46 223.64,197.79 221.68,197.79 219.72,197.79 217.76,197.79 215.8,197.79 213.84,197.79 211.88,197.79 209.93,197.79 
	207.97,197.79 207.97,199.46 206.01,199.46 206.01,197.79 206.01,196.12 204.05,196.12 204.05,194.45 202.09,194.45 200.13,194.45 
	200.13,192.78 198.17,192.78 198.17,191.11 196.21,191.11 194.25,191.11 192.29,191.11 190.33,191.11 188.37,191.11 186.41,191.11 
	186.41,192.78 184.45,192.78 182.49,192.78 182.49,194.45 180.53,194.45 180.53,196.12 178.58,196.12 178.58,197.79 176.62,197.79 
	176.62,199.46 174.66,199.46 174.66,201.12 174.66,202.79 174.66,204.46 172.7,204.46 170.74,204.46 168.78,204.46 166.82,204.46 
	164.86,204.46 162.9,204.46 160.94,204.46 160.94,206.13 158.98,206.13 157.02,206.13 157.02,207.8 155.06,207.8 155.06,209.47 
	153.1,209.47 153.1,211.14 153.1,212.81 153.1,214.47 153.1,216.14 153.1,217.81 153.1,219.48 155.06,219.48 155.06,221.15 
	155.06,222.82 157.02,222.82 157.02,224.49 158.98,224.49 158.98,226.15 160.94,226.15 162.9,226.15 164.86,226.15 166.82,226.15 
	168.78,226.15 170.74,226.15 170.74,224.49 172.7,224.49 172.7,222.82 174.66,222.82 176.62,222.82 176.62,224.49 178.58,224.49 
	178.58,226.15 180.53,226.15 180.53,227.82 182.49,227.82 184.45,227.82 184.45,229.49 186.41,229.49 188.37,229.49 190.33,229.49 
	192.29,229.49 194.25,229.49 196.21,229.49 198.17,229.49 200.13,229.49 200.13,227.82 202.09,227.82 204.05,227.82 204.05,226.15 
	206.01,226.15 206.01,224.49 207.97,224.49 207.97,222.82 209.93,222.82 209.93,221.15 209.93,219.48 211.88,219.48 211.88,217.81 
	213.84,217.81 213.84,219.48 215.8,219.48 215.8,221.15 217.76,221.15 217.76,222.82 219.72,222.82 221.68,222.82 223.64,222.82 
	225.6,222.82 227.56,222.82 229.52,222.82 229.52,221.15 231.48,221.15 231.48,219.48 233.44,219.48 233.44,221.15 233.44,222.82 
	233.44,224.49 233.44,226.15 233.44,227.82 233.44,229.49 233.44,231.16 235.4,231.16 235.4,232.83 235.4,234.5 237.36,234.5 
	237.36,236.17 239.32,236.17 239.32,237.84 241.28,237.84 241.28,239.5 243.24,239.5 243.24,237.84 243.24,236.17 245.19,236.17 
	245.19,234.5 247.15,234.5 247.15,232.83 247.15,231.16 247.15,229.49 247.15,227.82 247.15,226.15 247.15,224.49 247.15,222.82 "/>
<polygon class="st0" points="283.23,240.13 283.23,223.59 282.62,223.59 282.62,225.43 269.63,225.43 269.63,223.59 267.46,223.59 
	267.46,221.75 265.3,221.75 265.3,219.9 263.13,219.9 263.13,221.75 260.96,221.75 260.96,225.43 258.8,225.43 258.8,227.28 
	256.63,227.28 256.63,229.12 254.47,229.12 254.47,230.97 250.14,230.97 250.14,232.81 232.82,232.81 232.82,230.97 228.48,230.97 
	228.48,229.12 226.32,229.12 226.32,227.28 224.15,227.28 224.15,225.43 219.82,225.43 219.82,227.28 217.66,227.28 217.66,229.12 
	204.67,229.12 204.67,227.28 202.5,227.28 202.5,225.43 200.33,225.43 200.33,221.75 198.17,221.75 198.17,214.37 196,214.37 
	196,219.9 193.84,219.9 193.84,230.97 196,230.97 196,236.5 198.17,236.5 198.17,240.13 "/>
<polygon class="st1" points="283.23,205.15 282.62,205.15 282.62,203.31 280.45,203.31 280.45,201.46 278.29,201.46 278.29,199.62 
	276.12,199.62 276.12,197.77 258.8,197.77 258.8,199.62 256.63,199.62 256.63,195.93 254.47,195.93 254.47,194.08 250.14,194.08 
	250.14,192.24 247.97,192.24 247.97,190.4 234.98,190.4 234.98,192.24 230.65,192.24 230.65,194.08 228.48,194.08 228.48,195.93 
	226.32,195.93 226.32,197.77 224.15,197.77 224.15,199.62 221.99,199.62 221.99,205.15 206.83,205.15 206.83,206.99 202.5,206.99 
	202.5,208.84 200.33,208.84 200.33,210.68 198.17,210.68 198.17,221.75 200.33,221.75 200.33,225.43 202.5,225.43 202.5,227.28 
	204.67,227.28 204.67,229.12 217.66,229.12 217.66,227.28 219.82,227.28 219.82,225.43 224.15,225.43 224.15,227.28 226.32,227.28 
	226.32,229.12 228.48,229.12 228.48,230.97 232.82,230.97 232.82,232.81 250.14,232.81 250.14,230.97 254.47,230.97 254.47,229.12 
	256.63,229.12 256.63,227.28 258.8,227.28 258.8,225.43 260.96,225.43 260.96,221.75 263.13,221.75 263.13,219.9 265.3,219.9 
	265.3,221.75 267.46,221.75 267.46,223.59 269.63,223.59 269.63,225.43 282.62,225.43 282.62,223.59 283.23,223.59 "/>
<rect x="114.24" y="42.6" class="st66" width="4.18" height="62.57"/>
<polygon class="st67" points="126.52,103.73 126.52,99.39 122.33,99.39 122.33,94.86 111.17,94.86 111.17,99.39 106.99,99.39 
	106.99,103.73 104.2,103.73 104.2,108.54 129.31,108.54 129.31,103.73 "/>
<rect x="111.17" y="94.86" class="st68" width="4.09" height="4.53"/>
<polygon class="st68" points="111.08,103.73 111.08,99.39 106.99,99.39 106.99,103.73 104.2,103.73 104.2,108.54 108.29,108.54 
	108.29,103.73 "/>
<rect x="118.43" y="46.25" class="st69" width="12.28" height="28.88"/>
<rect x="147.73" y="46.25" class="st69" width="12.28" height="28.88"/>
<rect x="130.71" y="48.37" class="st70" width="17.02" height="28.88"/>
</svg>
