<?xml version="1.0" encoding="utf-8"?>
<!-- Generator: Adobe Illustrator 30.0.0, SVG Export Plug-In . SVG Version: 9.03 Build 0)  -->
<svg version="1.1" id="Layer_1" xmlns="http://www.w3.org/2000/svg" xmlns:xlink="http://www.w3.org/1999/xlink" x="0px" y="0px"
	 viewBox="0 0 240 240" style="enable-background:new 0 0 240 240;" xml:space="preserve">
<style type="text/css">
	.st0{fill:#B6C87F;}
	.st1{fill:#689078;}
	.st2{fill:#83B07F;}
	.st3{fill:#F4F1E8;}
	.st4{fill:#FFFCEA;}
	.st5{fill:#E3DBD1;}
</style>
<g>
	<g id="XMLID_1_">
		<rect x="192" y="139.69" class="st0" width="4.4" height="4.41"/>
		<rect x="187.59" y="144.1" class="st1" width="4.41" height="4.46"/>
		<rect x="187.59" y="139.69" class="st2" width="4.41" height="4.41"/>
		<rect x="183.13" y="157.38" class="st3" width="4.46" height="4.46"/>
		<rect x="183.13" y="152.97" class="st3" width="4.46" height="4.41"/>
		<rect x="183.13" y="148.56" class="st4" width="4.46" height="4.4"/>
		<rect x="183.13" y="144.1" class="st1" width="4.46" height="4.46"/>
		<rect x="183.13" y="139.69" class="st2" width="4.46" height="4.41"/>
		<rect x="183.13" y="135.29" class="st0" width="4.46" height="4.4"/>
		<rect x="183.13" y="73.31" class="st5" width="4.46" height="4.46"/>
		<rect x="183.13" y="68.9" class="st4" width="4.46" height="4.41"/>
		<rect x="183.13" y="64.49" class="st4" width="4.46" height="4.4"/>
		<rect x="178.72" y="157.38" class="st5" width="4.4" height="4.46"/>
		<rect x="178.72" y="152.97" class="st3" width="4.4" height="4.41"/>
		<rect x="178.72" y="148.56" class="st3" width="4.4" height="4.4"/>
		<rect x="178.72" y="144.1" class="st1" width="4.4" height="4.46"/>
		<rect x="178.72" y="139.69" class="st2" width="4.4" height="4.41"/>
		<rect x="178.72" y="135.29" class="st0" width="4.4" height="4.4"/>
		<rect x="178.72" y="73.31" class="st5" width="4.4" height="4.46"/>
		<rect x="178.72" y="68.9" class="st3" width="4.4" height="4.41"/>
		<rect x="178.72" y="64.49" class="st3" width="4.4" height="4.4"/>
		<rect x="178.72" y="60.03" class="st4" width="4.4" height="4.46"/>
		<rect x="178.72" y="55.62" class="st4" width="4.4" height="4.41"/>
		<rect x="174.31" y="157.38" class="st1" width="4.41" height="4.46"/>
		<rect x="174.31" y="152.97" class="st5" width="4.41" height="4.41"/>
		<rect x="174.31" y="148.56" class="st3" width="4.41" height="4.4"/>
		<rect x="174.31" y="144.1" class="st3" width="4.41" height="4.46"/>
		<rect x="174.31" y="139.69" class="st3" width="4.41" height="4.41"/>
		<rect x="174.31" y="135.29" class="st4" width="4.41" height="4.4"/>
		<rect x="174.31" y="130.82" class="st4" width="4.41" height="4.46"/>
		<rect x="174.31" y="113.14" class="st3" width="4.41" height="4.4"/>
		<rect x="174.31" y="108.73" class="st4" width="4.41" height="4.41"/>
		<rect x="174.31" y="68.9" class="st5" width="4.41" height="4.41"/>
		<rect x="174.31" y="64.49" class="st3" width="4.41" height="4.4"/>
		<rect x="174.31" y="60.03" class="st3" width="4.41" height="4.46"/>
		<rect x="174.31" y="55.62" class="st3" width="4.41" height="4.41"/>
		<rect x="174.31" y="51.22" class="st4" width="4.41" height="4.4"/>
		<rect x="174.31" y="46.75" class="st4" width="4.41" height="4.46"/>
		<rect x="169.85" y="161.84" class="st3" width="4.46" height="4.4"/>
		<rect x="169.85" y="157.38" class="st3" width="4.46" height="4.46"/>
		<rect x="169.85" y="152.97" class="st4" width="4.46" height="4.41"/>
		<rect x="169.85" y="148.56" class="st3" width="4.46" height="4.4"/>
		<rect x="169.85" y="144.1" class="st3" width="4.46" height="4.46"/>
		<rect x="169.85" y="139.69" class="st3" width="4.46" height="4.41"/>
		<rect x="169.85" y="135.29" class="st3" width="4.46" height="4.4"/>
		<rect x="169.85" y="130.82" class="st3" width="4.46" height="4.46"/>
		<rect x="169.85" y="126.41" class="st4" width="4.46" height="4.41"/>
		<rect x="169.85" y="117.55" class="st5" width="4.46" height="4.46"/>
		<rect x="169.85" y="113.14" class="st3" width="4.46" height="4.4"/>
		<rect x="169.85" y="108.73" class="st3" width="4.46" height="4.41"/>
		<rect x="169.85" y="104.32" class="st4" width="4.46" height="4.41"/>
		<rect x="169.85" y="77.77" class="st5" width="4.46" height="4.4"/>
		<rect x="169.85" y="73.31" class="st3" width="4.46" height="4.46"/>
		<rect x="169.85" y="68.9" class="st4" width="4.46" height="4.41"/>
		<rect x="169.85" y="64.49" class="st3" width="4.46" height="4.4"/>
		<rect x="169.85" y="60.03" class="st3" width="4.46" height="4.46"/>
		<rect x="169.85" y="55.62" class="st3" width="4.46" height="4.41"/>
		<rect x="169.85" y="51.22" class="st3" width="4.46" height="4.4"/>
		<rect x="169.85" y="46.75" class="st3" width="4.46" height="4.46"/>
		<rect x="165.45" y="161.84" class="st5" width="4.41" height="4.4"/>
		<rect x="165.45" y="157.38" class="st5" width="4.41" height="4.46"/>
		<rect x="165.45" y="152.97" class="st3" width="4.41" height="4.41"/>
		<rect x="165.45" y="148.56" class="st3" width="4.41" height="4.4"/>
		<rect x="165.45" y="144.1" class="st3" width="4.41" height="4.46"/>
		<rect x="165.45" y="139.69" class="st3" width="4.41" height="4.41"/>
		<rect x="165.45" y="135.29" class="st3" width="4.41" height="4.4"/>
		<rect x="165.45" y="130.82" class="st3" width="4.41" height="4.46"/>
		<rect x="165.45" y="126.41" class="st3" width="4.41" height="4.41"/>
		<rect x="165.45" y="122.01" class="st4" width="4.41" height="4.4"/>
		<rect x="165.45" y="117.55" class="st5" width="4.41" height="4.46"/>
		<rect x="165.45" y="113.14" class="st5" width="4.41" height="4.4"/>
		<rect x="165.45" y="108.73" class="st3" width="4.41" height="4.41"/>
		<rect x="165.45" y="104.32" class="st3" width="4.41" height="4.41"/>
		<rect x="165.45" y="99.86" class="st3" width="4.41" height="4.46"/>
		<rect x="165.45" y="95.45" class="st4" width="4.41" height="4.41"/>
		<rect x="165.45" y="91.05" class="st4" width="4.41" height="4.4"/>
		<rect x="165.45" y="77.77" class="st5" width="4.41" height="4.4"/>
		<rect x="165.45" y="73.31" class="st3" width="4.41" height="4.46"/>
		<rect x="165.45" y="68.9" class="st3" width="4.41" height="4.41"/>
		<rect x="165.45" y="64.49" class="st3" width="4.41" height="4.4"/>
		<rect x="165.45" y="60.03" class="st3" width="4.41" height="4.46"/>
		<rect x="165.45" y="55.62" class="st3" width="4.41" height="4.41"/>
		<rect x="165.45" y="51.22" class="st3" width="4.41" height="4.4"/>
		<rect x="165.45" y="46.75" class="st3" width="4.41" height="4.46"/>
		<rect x="165.45" y="42.35" class="st4" width="4.41" height="4.41"/>
		<rect x="161.04" y="161.84" class="st1" width="4.41" height="4.4"/>
		<rect x="161.04" y="157.38" class="st5" width="4.41" height="4.46"/>
		<rect x="161.04" y="152.97" class="st3" width="4.41" height="4.41"/>
		<rect x="161.04" y="148.56" class="st3" width="4.41" height="4.4"/>
		<rect x="161.04" y="144.1" class="st3" width="4.41" height="4.46"/>
		<rect x="161.04" y="139.69" class="st3" width="4.41" height="4.41"/>
		<rect x="161.04" y="135.29" class="st3" width="4.41" height="4.4"/>
		<rect x="161.04" y="130.82" class="st3" width="4.41" height="4.46"/>
		<rect x="161.04" y="126.41" class="st3" width="4.41" height="4.41"/>
		<rect x="161.04" y="122.01" class="st3" width="4.41" height="4.4"/>
		<rect x="161.04" y="113.14" class="st5" width="4.41" height="4.4"/>
		<rect x="161.04" y="108.73" class="st3" width="4.41" height="4.41"/>
		<rect x="161.04" y="104.32" class="st3" width="4.41" height="4.41"/>
		<rect x="161.04" y="99.86" class="st3" width="4.41" height="4.46"/>
		<rect x="161.04" y="95.45" class="st3" width="4.41" height="4.41"/>
		<rect x="161.04" y="91.05" class="st3" width="4.41" height="4.4"/>
		<rect x="161.04" y="86.59" class="st4" width="4.41" height="4.46"/>
		<rect x="161.04" y="77.77" class="st5" width="4.41" height="4.4"/>
		<rect x="161.04" y="73.31" class="st3" width="4.41" height="4.46"/>
		<rect x="161.04" y="68.9" class="st3" width="4.41" height="4.41"/>
		<rect x="161.04" y="64.49" class="st3" width="4.41" height="4.4"/>
		<rect x="161.04" y="60.03" class="st3" width="4.41" height="4.46"/>
		<rect x="161.04" y="55.62" class="st3" width="4.41" height="4.41"/>
		<rect x="161.04" y="51.22" class="st3" width="4.41" height="4.4"/>
		<rect x="161.04" y="46.75" class="st3" width="4.41" height="4.46"/>
		<rect x="161.04" y="42.35" class="st3" width="4.41" height="4.41"/>
		<rect x="156.58" y="166.25" class="st1" width="4.46" height="4.41"/>
		<rect x="156.58" y="161.84" class="st1" width="4.46" height="4.4"/>
		<rect x="156.58" y="152.97" class="st3" width="4.46" height="4.41"/>
		<rect x="156.58" y="148.56" class="st3" width="4.46" height="4.4"/>
		<rect x="156.58" y="144.1" class="st3" width="4.46" height="4.46"/>
		<rect x="156.58" y="139.69" class="st3" width="4.46" height="4.41"/>
		<rect x="156.58" y="135.29" class="st3" width="4.46" height="4.4"/>
		<rect x="156.58" y="130.82" class="st3" width="4.46" height="4.46"/>
		<rect x="156.58" y="126.41" class="st3" width="4.46" height="4.41"/>
		<rect x="156.58" y="117.55" class="st3" width="4.46" height="4.46"/>
		<rect x="156.58" y="113.14" class="st4" width="4.46" height="4.4"/>
		<rect x="156.58" y="108.73" class="st4" width="4.46" height="4.41"/>
		<rect x="156.58" y="104.32" class="st3" width="4.46" height="4.41"/>
		<rect x="156.58" y="99.86" class="st3" width="4.46" height="4.46"/>
		<rect x="156.58" y="95.45" class="st3" width="4.46" height="4.41"/>
		<rect x="156.58" y="91.05" class="st3" width="4.46" height="4.4"/>
		<rect x="156.58" y="86.59" class="st3" width="4.46" height="4.46"/>
		<rect x="156.58" y="82.18" class="st4" width="4.46" height="4.41"/>
		<rect x="156.58" y="73.31" class="st5" width="4.46" height="4.46"/>
		<rect x="156.58" y="68.9" class="st3" width="4.46" height="4.41"/>
		<rect x="156.58" y="64.49" class="st3" width="4.46" height="4.4"/>
		<rect x="156.58" y="60.03" class="st3" width="4.46" height="4.46"/>
		<rect x="156.58" y="55.62" class="st3" width="4.46" height="4.41"/>
		<rect x="156.58" y="51.22" class="st3" width="4.46" height="4.4"/>
		<rect x="156.58" y="46.75" class="st3" width="4.46" height="4.46"/>
		<rect x="156.58" y="42.35" class="st3" width="4.46" height="4.41"/>
		<rect x="152.17" y="166.25" class="st1" width="4.41" height="4.41"/>
		<rect x="152.17" y="161.84" class="st3" width="4.41" height="4.4"/>
		<rect x="152.17" y="157.38" class="st4" width="4.41" height="4.46"/>
		<rect x="152.17" y="152.97" class="st3" width="4.41" height="4.41"/>
		<rect x="152.17" y="148.56" class="st3" width="4.41" height="4.4"/>
		<rect x="152.17" y="144.1" class="st3" width="4.41" height="4.46"/>
		<rect x="152.17" y="139.69" class="st3" width="4.41" height="4.41"/>
		<rect x="152.17" y="135.29" class="st3" width="4.41" height="4.4"/>
		<rect x="152.17" y="130.82" class="st3" width="4.41" height="4.46"/>
		<rect x="152.17" y="126.41" class="st3" width="4.41" height="4.41"/>
		<rect x="152.17" y="122.01" class="st5" width="4.41" height="4.4"/>
		<rect x="152.17" y="117.55" class="st3" width="4.41" height="4.46"/>
		<rect x="152.17" y="113.14" class="st3" width="4.41" height="4.4"/>
		<rect x="152.17" y="108.73" class="st3" width="4.41" height="4.41"/>
		<rect x="152.17" y="104.32" class="st3" width="4.41" height="4.41"/>
		<rect x="152.17" y="99.86" class="st3" width="4.41" height="4.46"/>
		<rect x="152.17" y="95.45" class="st3" width="4.41" height="4.41"/>
		<rect x="152.17" y="91.05" class="st3" width="4.41" height="4.4"/>
		<rect x="152.17" y="86.59" class="st3" width="4.41" height="4.46"/>
		<rect x="152.17" y="82.18" class="st4" width="4.41" height="4.41"/>
		<rect x="152.17" y="77.77" class="st5" width="4.41" height="4.4"/>
		<rect x="152.17" y="73.31" class="st3" width="4.41" height="4.46"/>
		<rect x="152.17" y="68.9" class="st4" width="4.41" height="4.41"/>
		<rect x="152.17" y="64.49" class="st3" width="4.41" height="4.4"/>
		<rect x="152.17" y="60.03" class="st3" width="4.41" height="4.46"/>
		<rect x="152.17" y="55.62" class="st3" width="4.41" height="4.41"/>
		<rect x="152.17" y="51.22" class="st3" width="4.41" height="4.4"/>
		<rect x="152.17" y="46.75" class="st3" width="4.41" height="4.46"/>
		<rect x="152.17" y="42.35" class="st3" width="4.41" height="4.41"/>
		<rect x="147.76" y="170.66" class="st1" width="4.4" height="4.46"/>
		<rect x="147.76" y="166.25" class="st1" width="4.4" height="4.41"/>
		<rect x="147.76" y="161.84" class="st5" width="4.4" height="4.4"/>
		<rect x="147.76" y="157.38" class="st3" width="4.4" height="4.46"/>
		<rect x="147.76" y="152.97" class="st3" width="4.4" height="4.41"/>
		<rect x="147.76" y="148.56" class="st2" width="4.4" height="4.4"/>
		<rect x="147.76" y="144.1" class="st5" width="4.4" height="4.46"/>
		<rect x="147.76" y="139.69" class="st5" width="4.4" height="4.41"/>
		<rect x="147.76" y="135.29" class="st5" width="4.4" height="4.4"/>
		<rect x="147.76" y="130.82" class="st5" width="4.4" height="4.46"/>
		<rect x="147.76" y="126.41" class="st1" width="4.4" height="4.41"/>
		<rect x="147.76" y="122.01" class="st5" width="4.4" height="4.4"/>
		<rect x="147.76" y="117.55" class="st5" width="4.4" height="4.46"/>
		<rect x="147.76" y="113.14" class="st3" width="4.4" height="4.4"/>
		<rect x="147.76" y="108.73" class="st3" width="4.4" height="4.41"/>
		<rect x="147.76" y="104.32" class="st3" width="4.4" height="4.41"/>
		<rect x="147.76" y="99.86" class="st3" width="4.4" height="4.46"/>
		<rect x="147.76" y="95.45" class="st3" width="4.4" height="4.41"/>
		<rect x="147.76" y="91.05" class="st3" width="4.4" height="4.4"/>
		<rect x="147.76" y="86.59" class="st3" width="4.4" height="4.46"/>
		<rect x="147.76" y="82.18" class="st3" width="4.4" height="4.41"/>
		<rect x="147.76" y="77.77" class="st5" width="4.4" height="4.4"/>
		<rect x="147.76" y="73.31" class="st3" width="4.4" height="4.46"/>
		<rect x="147.76" y="68.9" class="st3" width="4.4" height="4.41"/>
		<rect x="147.76" y="64.49" class="st3" width="4.4" height="4.4"/>
		<rect x="147.76" y="60.03" class="st3" width="4.4" height="4.46"/>
		<rect x="147.76" y="55.62" class="st3" width="4.4" height="4.41"/>
		<rect x="147.76" y="51.22" class="st5" width="4.4" height="4.4"/>
		<rect x="147.76" y="46.75" class="st5" width="4.4" height="4.46"/>
		<rect x="143.3" y="170.66" class="st1" width="4.46" height="4.46"/>
		<rect x="143.3" y="166.25" class="st1" width="4.46" height="4.41"/>
		<rect x="143.3" y="161.84" class="st1" width="4.46" height="4.4"/>
		<rect x="143.3" y="157.38" class="st5" width="4.46" height="4.46"/>
		<rect x="143.3" y="152.97" class="st2" width="4.46" height="4.41"/>
		<rect x="143.3" y="148.56" class="st2" width="4.46" height="4.4"/>
		<rect x="143.3" y="144.1" class="st0" width="4.46" height="4.46"/>
		<rect x="143.3" y="130.82" class="st1" width="4.46" height="4.46"/>
		<rect x="143.3" y="126.41" class="st2" width="4.46" height="4.41"/>
		<rect x="143.3" y="117.55" class="st5" width="4.46" height="4.46"/>
		<rect x="143.3" y="113.14" class="st5" width="4.46" height="4.4"/>
		<rect x="143.3" y="108.73" class="st3" width="4.46" height="4.41"/>
		<rect x="143.3" y="104.32" class="st3" width="4.46" height="4.41"/>
		<rect x="143.3" y="99.86" class="st3" width="4.46" height="4.46"/>
		<rect x="143.3" y="95.45" class="st3" width="4.46" height="4.41"/>
		<rect x="143.3" y="91.05" class="st3" width="4.46" height="4.4"/>
		<rect x="143.3" y="86.59" class="st3" width="4.46" height="4.46"/>
		<rect x="143.3" y="82.18" class="st3" width="4.46" height="4.41"/>
		<rect x="143.3" y="77.77" class="st5" width="4.46" height="4.4"/>
		<rect x="143.3" y="73.31" class="st5" width="4.46" height="4.46"/>
		<rect x="143.3" y="68.9" class="st3" width="4.46" height="4.41"/>
		<rect x="143.3" y="60.03" class="st5" width="4.46" height="4.46"/>
		<rect x="143.3" y="55.62" class="st5" width="4.46" height="4.41"/>
		<rect x="143.3" y="51.22" class="st1" width="4.46" height="4.4"/>
		<rect x="143.3" y="46.75" class="st0" width="4.46" height="4.46"/>
		<rect x="138.89" y="175.11" class="st1" width="4.41" height="4.41"/>
		<rect x="138.89" y="170.66" class="st1" width="4.41" height="4.46"/>
		<rect x="138.89" y="166.25" class="st1" width="4.41" height="4.41"/>
		<rect x="138.89" y="161.84" class="st2" width="4.41" height="4.4"/>
		<rect x="138.89" y="157.38" class="st2" width="4.41" height="4.46"/>
		<rect x="138.89" y="152.97" class="st2" width="4.41" height="4.41"/>
		<rect x="138.89" y="148.56" class="st0" width="4.41" height="4.4"/>
		<rect x="138.89" y="130.82" class="st2" width="4.41" height="4.46"/>
		<rect x="138.89" y="117.55" class="st4" width="4.41" height="4.46"/>
		<rect x="138.89" y="113.14" class="st4" width="4.41" height="4.4"/>
		<rect x="138.89" y="108.73" class="st3" width="4.41" height="4.41"/>
		<rect x="138.89" y="104.32" class="st3" width="4.41" height="4.41"/>
		<rect x="138.89" y="99.86" class="st3" width="4.41" height="4.46"/>
		<rect x="138.89" y="95.45" class="st3" width="4.41" height="4.41"/>
		<rect x="138.89" y="91.05" class="st3" width="4.41" height="4.4"/>
		<rect x="138.89" y="86.59" class="st3" width="4.41" height="4.46"/>
		<rect x="138.89" y="55.62" class="st1" width="4.41" height="4.41"/>
		<rect x="138.89" y="51.22" class="st0" width="4.41" height="4.4"/>
		<rect x="134.49" y="175.11" class="st1" width="4.4" height="4.41"/>
		<rect x="134.49" y="170.66" class="st1" width="4.4" height="4.46"/>
		<rect x="134.49" y="166.25" class="st2" width="4.4" height="4.41"/>
		<rect x="134.49" y="161.84" class="st2" width="4.4" height="4.4"/>
		<rect x="134.49" y="157.38" class="st2" width="4.4" height="4.46"/>
		<rect x="134.49" y="152.97" class="st0" width="4.4" height="4.41"/>
		<rect x="134.49" y="130.82" class="st2" width="4.4" height="4.46"/>
		<rect x="134.49" y="122.01" class="st5" width="4.4" height="4.4"/>
		<rect x="134.49" y="117.55" class="st3" width="4.4" height="4.46"/>
		<rect x="134.49" y="113.14" class="st3" width="4.4" height="4.4"/>
		<rect x="134.49" y="108.73" class="st3" width="4.4" height="4.41"/>
		<rect x="134.49" y="104.32" class="st5" width="4.4" height="4.41"/>
		<rect x="134.49" y="99.86" class="st5" width="4.4" height="4.46"/>
		<rect x="134.49" y="95.45" class="st5" width="4.4" height="4.41"/>
		<rect x="134.49" y="91.05" class="st5" width="4.4" height="4.4"/>
		<rect x="134.49" y="86.59" class="st5" width="4.4" height="4.46"/>
		<rect x="134.49" y="60.03" class="st1" width="4.4" height="4.46"/>
		<rect x="134.49" y="55.62" class="st2" width="4.4" height="4.41"/>
		<rect x="130.08" y="179.52" class="st1" width="4.41" height="4.41"/>
		<rect x="130.08" y="175.11" class="st1" width="4.41" height="4.41"/>
		<rect x="130.08" y="170.66" class="st2" width="4.41" height="4.46"/>
		<rect x="130.08" y="166.25" class="st2" width="4.41" height="4.41"/>
		<rect x="130.08" y="161.84" class="st2" width="4.41" height="4.4"/>
		<rect x="130.08" y="157.38" class="st0" width="4.41" height="4.46"/>
		<rect x="130.08" y="135.29" class="st1" width="4.41" height="4.4"/>
		<rect x="130.08" y="130.82" class="st2" width="4.41" height="4.46"/>
		<rect x="130.08" y="117.55" class="st5" width="4.41" height="4.46"/>
		<rect x="130.08" y="113.14" class="st5" width="4.41" height="4.4"/>
		<rect x="130.08" y="95.45" class="st1" width="4.41" height="4.41"/>
		<rect x="130.08" y="91.05" class="st0" width="4.41" height="4.4"/>
		<rect x="130.08" y="64.49" class="st1" width="4.41" height="4.4"/>
		<rect x="130.08" y="60.03" class="st2" width="4.41" height="4.46"/>
		<rect x="125.61" y="188.34" class="st1" width="4.46" height="4.46"/>
		<rect x="125.61" y="183.93" class="st1" width="4.46" height="4.4"/>
		<rect x="125.61" y="179.52" class="st1" width="4.46" height="4.41"/>
		<rect x="125.61" y="175.11" class="st2" width="4.46" height="4.41"/>
		<rect x="125.61" y="170.66" class="st2" width="4.46" height="4.46"/>
		<rect x="125.61" y="166.25" class="st2" width="4.46" height="4.41"/>
		<rect x="125.61" y="135.29" class="st2" width="4.46" height="4.4"/>
		<rect x="125.61" y="99.86" class="st1" width="4.46" height="4.46"/>
		<rect x="125.61" y="95.45" class="st0" width="4.46" height="4.41"/>
		<rect x="125.61" y="73.31" class="st1" width="4.46" height="4.46"/>
		<rect x="125.61" y="68.9" class="st2" width="4.46" height="4.41"/>
		<rect x="125.61" y="64.49" class="st2" width="4.46" height="4.4"/>
		<rect x="121.21" y="201.62" class="st1" width="4.4" height="4.46"/>
		<rect x="121.21" y="197.21" class="st1" width="4.4" height="4.4"/>
		<rect x="121.21" y="192.8" class="st1" width="4.4" height="4.41"/>
		<rect x="121.21" y="188.34" class="st1" width="4.4" height="4.46"/>
		<rect x="121.21" y="183.93" class="st1" width="4.4" height="4.4"/>
		<rect x="121.21" y="179.52" class="st2" width="4.4" height="4.41"/>
		<rect x="121.21" y="175.11" class="st2" width="4.4" height="4.41"/>
		<rect x="121.21" y="170.66" class="st2" width="4.4" height="4.46"/>
		<rect x="121.21" y="139.69" class="st2" width="4.4" height="4.41"/>
		<rect x="121.21" y="135.29" class="st2" width="4.4" height="4.4"/>
		<rect x="121.21" y="104.32" class="st1" width="4.4" height="4.41"/>
		<rect x="121.21" y="99.86" class="st2" width="4.4" height="4.46"/>
		<rect x="121.21" y="77.77" class="st1" width="4.4" height="4.4"/>
		<rect x="121.21" y="73.31" class="st2" width="4.4" height="4.46"/>
		<rect x="116.8" y="197.21" class="st1" width="4.41" height="4.4"/>
		<rect x="116.8" y="192.8" class="st1" width="4.41" height="4.41"/>
		<rect x="116.8" y="188.34" class="st1" width="4.41" height="4.46"/>
		<rect x="116.8" y="183.93" class="st1" width="4.41" height="4.4"/>
		<rect x="116.8" y="179.52" class="st1" width="4.41" height="4.41"/>
		<rect x="116.8" y="175.11" class="st1" width="4.41" height="4.41"/>
		<rect x="116.8" y="144.1" class="st1" width="4.41" height="4.46"/>
		<rect x="116.8" y="139.69" class="st2" width="4.41" height="4.41"/>
		<rect x="116.8" y="113.14" class="st1" width="4.41" height="4.4"/>
		<rect x="116.8" y="108.73" class="st2" width="4.41" height="4.41"/>
		<rect x="116.8" y="104.32" class="st2" width="4.41" height="4.41"/>
		<rect x="116.8" y="91.05" class="st1" width="4.41" height="4.4"/>
		<rect x="116.8" y="86.59" class="st2" width="4.41" height="4.46"/>
		<rect x="116.8" y="82.18" class="st2" width="4.41" height="4.41"/>
		<rect x="112.33" y="192.8" class="st1" width="4.46" height="4.41"/>
		<rect x="112.33" y="188.34" class="st1" width="4.46" height="4.46"/>
		<rect x="112.33" y="183.93" class="st1" width="4.46" height="4.4"/>
		<rect x="112.33" y="179.52" class="st1" width="4.46" height="4.41"/>
		<rect x="112.33" y="175.11" class="st1" width="4.46" height="4.41"/>
		<rect x="112.33" y="170.66" class="st1" width="4.46" height="4.46"/>
		<rect x="112.33" y="166.25" class="st2" width="4.46" height="4.41"/>
		<rect x="112.33" y="161.84" class="st2" width="4.46" height="4.4"/>
		<rect x="112.33" y="157.38" class="st2" width="4.46" height="4.46"/>
		<rect x="112.33" y="152.97" class="st1" width="4.46" height="4.41"/>
		<rect x="112.33" y="148.56" class="st1" width="4.46" height="4.4"/>
		<rect x="112.33" y="144.1" class="st1" width="4.46" height="4.46"/>
		<rect x="112.33" y="117.55" class="st1" width="4.46" height="4.46"/>
		<rect x="112.33" y="113.14" class="st2" width="4.46" height="4.4"/>
		<rect x="112.33" y="99.86" class="st1" width="4.46" height="4.46"/>
		<rect x="112.33" y="95.45" class="st2" width="4.46" height="4.41"/>
		<rect x="112.33" y="91.05" class="st2" width="4.46" height="4.4"/>
		<rect x="107.93" y="188.34" class="st1" width="4.4" height="4.46"/>
		<rect x="107.93" y="183.93" class="st1" width="4.4" height="4.4"/>
		<rect x="107.93" y="179.52" class="st1" width="4.4" height="4.41"/>
		<rect x="107.93" y="175.11" class="st2" width="4.4" height="4.41"/>
		<rect x="107.93" y="170.66" class="st1" width="4.4" height="4.46"/>
		<rect x="107.93" y="166.25" class="st1" width="4.4" height="4.41"/>
		<rect x="107.93" y="161.84" class="st1" width="4.4" height="4.4"/>
		<rect x="107.93" y="157.38" class="st2" width="4.4" height="4.46"/>
		<rect x="107.93" y="152.97" class="st2" width="4.4" height="4.41"/>
		<rect x="107.93" y="148.56" class="st2" width="4.4" height="4.4"/>
		<rect x="107.93" y="144.1" class="st2" width="4.4" height="4.46"/>
		<rect x="107.93" y="139.69" class="st2" width="4.4" height="4.41"/>
		<rect x="107.93" y="135.29" class="st2" width="4.4" height="4.4"/>
		<rect x="107.93" y="130.82" class="st1" width="4.4" height="4.46"/>
		<rect x="107.93" y="126.41" class="st1" width="4.4" height="4.41"/>
		<rect x="107.93" y="122.01" class="st1" width="4.4" height="4.4"/>
		<rect x="107.93" y="117.55" class="st2" width="4.4" height="4.46"/>
		<rect x="107.93" y="113.14" class="st2" width="4.4" height="4.4"/>
		<rect x="107.93" y="108.73" class="st1" width="4.4" height="4.41"/>
		<rect x="107.93" y="104.32" class="st2" width="4.4" height="4.41"/>
		<rect x="103.52" y="183.93" class="st1" width="4.41" height="4.4"/>
		<rect x="103.52" y="179.52" class="st1" width="4.41" height="4.41"/>
		<rect x="103.52" y="175.11" class="st1" width="4.41" height="4.41"/>
		<rect x="103.52" y="170.66" class="st2" width="4.41" height="4.46"/>
		<rect x="103.52" y="166.25" class="st1" width="4.41" height="4.41"/>
		<rect x="103.52" y="161.84" class="st1" width="4.41" height="4.4"/>
		<rect x="103.52" y="157.38" class="st1" width="4.41" height="4.46"/>
		<rect x="103.52" y="152.97" class="st1" width="4.41" height="4.41"/>
		<rect x="103.52" y="148.56" class="st2" width="4.41" height="4.4"/>
		<rect x="103.52" y="144.1" class="st2" width="4.41" height="4.46"/>
		<rect x="103.52" y="139.69" class="st2" width="4.41" height="4.41"/>
		<rect x="103.52" y="135.29" class="st2" width="4.41" height="4.4"/>
		<rect x="103.52" y="130.82" class="st2" width="4.41" height="4.46"/>
		<rect x="99.06" y="179.52" class="st1" width="4.46" height="4.41"/>
		<rect x="99.06" y="175.11" class="st1" width="4.46" height="4.41"/>
		<rect x="99.06" y="170.66" class="st2" width="4.46" height="4.46"/>
		<rect x="99.06" y="166.25" class="st2" width="4.46" height="4.41"/>
		<rect x="99.06" y="161.84" class="st2" width="4.46" height="4.4"/>
		<rect x="99.06" y="157.38" class="st1" width="4.46" height="4.46"/>
		<rect x="99.06" y="152.97" class="st1" width="4.46" height="4.41"/>
		<rect x="99.06" y="148.56" class="st1" width="4.46" height="4.4"/>
		<rect x="99.06" y="144.1" class="st1" width="4.46" height="4.46"/>
		<rect x="99.06" y="139.69" class="st2" width="4.46" height="4.41"/>
		<rect x="99.06" y="135.29" class="st2" width="4.46" height="4.4"/>
		<rect x="99.06" y="130.82" class="st2" width="4.46" height="4.46"/>
		<rect x="99.06" y="126.41" class="st0" width="4.46" height="4.41"/>
		<rect x="94.65" y="179.52" class="st1" width="4.4" height="4.41"/>
		<rect x="94.65" y="175.11" class="st1" width="4.4" height="4.41"/>
		<rect x="94.65" y="170.66" class="st1" width="4.4" height="4.46"/>
		<rect x="94.65" y="166.25" class="st2" width="4.4" height="4.41"/>
		<rect x="94.65" y="161.84" class="st2" width="4.4" height="4.4"/>
		<rect x="94.65" y="157.38" class="st2" width="4.4" height="4.46"/>
		<rect x="94.65" y="152.97" class="st1" width="4.4" height="4.41"/>
		<rect x="94.65" y="148.56" class="st1" width="4.4" height="4.4"/>
		<rect x="94.65" y="144.1" class="st1" width="4.4" height="4.46"/>
		<rect x="94.65" y="139.69" class="st1" width="4.4" height="4.41"/>
		<rect x="94.65" y="135.29" class="st2" width="4.4" height="4.4"/>
		<rect x="94.65" y="130.82" class="st2" width="4.4" height="4.46"/>
		<rect x="94.65" y="126.41" class="st2" width="4.4" height="4.41"/>
		<rect x="94.65" y="122.01" class="st2" width="4.4" height="4.4"/>
		<rect x="94.65" y="117.55" class="st0" width="4.4" height="4.46"/>
		<rect x="90.24" y="175.11" class="st1" width="4.41" height="4.41"/>
		<rect x="90.24" y="170.66" class="st1" width="4.41" height="4.46"/>
		<rect x="90.24" y="166.25" class="st1" width="4.41" height="4.41"/>
		<rect x="90.24" y="161.84" class="st2" width="4.41" height="4.4"/>
		<rect x="90.24" y="157.38" class="st2" width="4.41" height="4.46"/>
		<rect x="90.24" y="152.97" class="st2" width="4.41" height="4.41"/>
		<rect x="90.24" y="148.56" class="st1" width="4.41" height="4.4"/>
		<rect x="90.24" y="144.1" class="st1" width="4.41" height="4.46"/>
		<rect x="90.24" y="139.69" class="st1" width="4.41" height="4.41"/>
		<rect x="90.24" y="135.29" class="st1" width="4.41" height="4.4"/>
		<rect x="90.24" y="130.82" class="st1" width="4.41" height="4.46"/>
		<rect x="90.24" y="126.41" class="st2" width="4.41" height="4.41"/>
		<rect x="90.24" y="122.01" class="st2" width="4.41" height="4.4"/>
		<rect x="90.24" y="117.55" class="st2" width="4.41" height="4.46"/>
		<rect x="90.24" y="113.14" class="st0" width="4.41" height="4.4"/>
		<rect x="85.78" y="175.11" class="st1" width="4.46" height="4.41"/>
		<rect x="85.78" y="170.66" class="st1" width="4.46" height="4.46"/>
		<rect x="85.78" y="166.25" class="st1" width="4.46" height="4.41"/>
		<rect x="85.78" y="161.84" class="st1" width="4.46" height="4.4"/>
		<rect x="85.78" y="157.38" class="st2" width="4.46" height="4.46"/>
		<rect x="85.78" y="152.97" class="st2" width="4.46" height="4.41"/>
		<rect x="85.78" y="144.1" class="st1" width="4.46" height="4.46"/>
		<rect x="85.78" y="139.69" class="st1" width="4.46" height="4.41"/>
		<rect x="85.78" y="135.29" class="st1" width="4.46" height="4.4"/>
		<rect x="85.78" y="130.82" class="st1" width="4.46" height="4.46"/>
		<rect x="85.78" y="126.41" class="st1" width="4.46" height="4.41"/>
		<rect x="85.78" y="122.01" class="st2" width="4.46" height="4.4"/>
		<rect x="85.78" y="117.55" class="st2" width="4.46" height="4.46"/>
		<rect x="85.78" y="113.14" class="st2" width="4.46" height="4.4"/>
		<rect x="85.78" y="108.73" class="st0" width="4.46" height="4.41"/>
		<rect x="81.37" y="170.66" class="st1" width="4.41" height="4.46"/>
		<rect x="81.37" y="166.25" class="st1" width="4.41" height="4.41"/>
		<rect x="81.37" y="161.84" class="st1" width="4.41" height="4.4"/>
		<rect x="81.37" y="157.38" class="st2" width="4.41" height="4.46"/>
		<rect x="81.37" y="152.97" class="st2" width="4.41" height="4.41"/>
		<rect x="81.37" y="148.56" class="st2" width="4.41" height="4.4"/>
		<rect x="81.37" y="135.29" class="st1" width="4.41" height="4.4"/>
		<rect x="81.37" y="130.82" class="st1" width="4.41" height="4.46"/>
		<rect x="81.37" y="126.41" class="st1" width="4.41" height="4.41"/>
		<rect x="81.37" y="122.01" class="st1" width="4.41" height="4.4"/>
		<rect x="81.37" y="117.55" class="st2" width="4.41" height="4.46"/>
		<rect x="81.37" y="113.14" class="st2" width="4.41" height="4.4"/>
		<rect x="81.37" y="108.73" class="st2" width="4.41" height="4.41"/>
		<rect x="81.37" y="104.32" class="st0" width="4.41" height="4.41"/>
		<rect x="76.97" y="170.66" class="st1" width="4.41" height="4.46"/>
		<rect x="76.97" y="166.25" class="st1" width="4.41" height="4.41"/>
		<rect x="76.97" y="161.84" class="st1" width="4.41" height="4.4"/>
		<rect x="76.97" y="157.38" class="st1" width="4.41" height="4.46"/>
		<rect x="76.97" y="152.97" class="st2" width="4.41" height="4.41"/>
		<rect x="76.97" y="148.56" class="st2" width="4.41" height="4.4"/>
		<rect x="76.97" y="144.1" class="st0" width="4.41" height="4.46"/>
		<rect x="76.97" y="126.41" class="st1" width="4.41" height="4.41"/>
		<rect x="76.97" y="122.01" class="st1" width="4.41" height="4.4"/>
		<rect x="76.97" y="117.55" class="st1" width="4.41" height="4.46"/>
		<rect x="76.97" y="113.14" class="st2" width="4.41" height="4.4"/>
		<rect x="76.97" y="108.73" class="st2" width="4.41" height="4.41"/>
		<rect x="76.97" y="104.32" class="st0" width="4.41" height="4.41"/>
		<rect x="72.51" y="166.25" class="st1" width="4.46" height="4.41"/>
		<rect x="72.51" y="161.84" class="st1" width="4.46" height="4.4"/>
		<rect x="72.51" y="157.38" class="st1" width="4.46" height="4.46"/>
		<rect x="72.51" y="152.97" class="st2" width="4.46" height="4.41"/>
		<rect x="72.51" y="148.56" class="st2" width="4.46" height="4.4"/>
		<rect x="72.51" y="144.1" class="st0" width="4.46" height="4.46"/>
		<rect x="72.51" y="117.55" class="st1" width="4.46" height="4.46"/>
		<rect x="72.51" y="113.14" class="st1" width="4.46" height="4.4"/>
		<rect x="72.51" y="108.73" class="st1" width="4.46" height="4.41"/>
		<rect x="72.51" y="104.32" class="st2" width="4.46" height="4.41"/>
		<rect x="72.51" y="99.86" class="st0" width="4.46" height="4.46"/>
		<rect x="68.1" y="166.25" class="st1" width="4.41" height="4.41"/>
		<rect x="68.1" y="161.84" class="st1" width="4.41" height="4.4"/>
		<rect x="68.1" y="157.38" class="st1" width="4.41" height="4.46"/>
		<rect x="68.1" y="152.97" class="st2" width="4.41" height="4.41"/>
		<rect x="68.1" y="148.56" class="st2" width="4.41" height="4.4"/>
		<rect x="68.1" y="144.1" class="st0" width="4.41" height="4.46"/>
		<rect x="68.1" y="108.73" class="st1" width="4.41" height="4.41"/>
		<rect x="68.1" y="104.32" class="st1" width="4.41" height="4.41"/>
		<rect x="68.1" y="99.86" class="st2" width="4.41" height="4.46"/>
		<rect x="68.1" y="95.45" class="st0" width="4.41" height="4.41"/>
		<rect x="63.69" y="166.25" class="st1" width="4.41" height="4.41"/>
		<rect x="63.69" y="161.84" class="st1" width="4.41" height="4.4"/>
		<rect x="63.69" y="157.38" class="st1" width="4.41" height="4.46"/>
		<rect x="63.69" y="152.97" class="st2" width="4.41" height="4.41"/>
		<rect x="63.69" y="148.56" class="st2" width="4.41" height="4.4"/>
		<rect x="63.69" y="144.1" class="st0" width="4.41" height="4.46"/>
		<rect x="63.69" y="99.86" class="st1" width="4.41" height="4.46"/>
		<rect x="63.69" y="95.45" class="st2" width="4.41" height="4.41"/>
		<rect x="63.69" y="91.05" class="st0" width="4.41" height="4.4"/>
		<rect x="59.28" y="161.84" class="st1" width="4.41" height="4.4"/>
		<rect x="59.28" y="157.38" class="st1" width="4.41" height="4.46"/>
		<rect x="59.28" y="152.97" class="st2" width="4.41" height="4.41"/>
		<rect x="59.28" y="148.56" class="st2" width="4.41" height="4.4"/>
		<rect x="59.28" y="144.1" class="st0" width="4.41" height="4.46"/>
		<rect x="59.28" y="95.45" class="st1" width="4.41" height="4.41"/>
		<rect x="59.28" y="91.05" class="st0" width="4.41" height="4.4"/>
		<rect x="54.82" y="161.84" class="st1" width="4.46" height="4.4"/>
		<rect x="54.82" y="157.38" class="st1" width="4.46" height="4.46"/>
		<rect x="54.82" y="152.97" class="st2" width="4.46" height="4.41"/>
		<rect x="54.82" y="148.56" class="st2" width="4.46" height="4.4"/>
		<rect x="54.82" y="144.1" class="st0" width="4.46" height="4.46"/>
		<rect x="54.82" y="91.05" class="st1" width="4.46" height="4.4"/>
		<rect x="50.41" y="161.84" class="st1" width="4.41" height="4.4"/>
		<rect x="50.41" y="157.38" class="st2" width="4.41" height="4.46"/>
		<rect x="50.41" y="152.97" class="st2" width="4.41" height="4.41"/>
		<rect x="50.41" y="148.56" class="st0" width="4.41" height="4.4"/>
		<rect x="46.01" y="161.84" class="st1" width="4.41" height="4.4"/>
		<rect x="46.01" y="157.38" class="st2" width="4.41" height="4.46"/>
		<rect x="46.01" y="152.97" class="st0" width="4.41" height="4.41"/>
		<rect x="41.54" y="161.84" class="st1" width="4.46" height="4.4"/>
		<rect x="41.54" y="157.38" class="st0" width="4.46" height="4.46"/>
		<rect x="37.14" y="161.84" class="st0" width="4.41" height="4.4"/>
	</g>
</g>
</svg>
