<?xml version="1.0" encoding="utf-8"?>
<!-- Generator: Adobe Illustrator 30.0.0, SVG Export Plug-In . SVG Version: 9.03 Build 0)  -->
<svg version="1.1" id="Layer_1" xmlns="http://www.w3.org/2000/svg" xmlns:xlink="http://www.w3.org/1999/xlink" x="0px" y="0px"
	 viewBox="0 0 240 240" style="enable-background:new 0 0 240 240;" xml:space="preserve">
<style type="text/css">
	.st0{fill:#FF400C;}
	.st1{fill:#FFFFFF;}
	.st2{fill:#FFDE8D;}
	.st3{opacity:0.4;fill:#8E0C00;}
</style>
<g>
	<polygon class="st0" points="213.2,68.25 208.16,68.25 208.16,63.21 203.13,63.21 203.13,58.17 36.87,58.17 36.87,63.21 
		31.84,63.21 31.84,68.25 26.8,68.25 26.8,169.01 31.84,169.01 31.84,174.04 36.87,174.04 36.87,184.12 203.13,184.12 
		203.13,174.04 208.16,174.04 208.16,169.01 213.2,169.01 	"/>
	<rect x="36.87" y="118.63" class="st1" width="166.25" height="50.38"/>
	<rect x="67.1" y="133.74" transform="matrix(-1.836970e-16 1 -1 -1.836970e-16 226.0312 51.5241)" width="40.3" height="10.08"/>
	<rect x="87.25" y="133.74" transform="matrix(-1.836970e-16 1 -1 -1.836970e-16 246.1828 31.3725)" width="40.3" height="10.08"/>
	<rect x="112.44" y="133.74" transform="matrix(-1.836970e-16 1 -1 -1.836970e-16 271.3725 6.1829)" width="40.3" height="10.08"/>
	
		<rect x="132.59" y="133.74" transform="matrix(-1.836970e-16 1 -1 -1.836970e-16 291.5242 -13.9689)" width="40.3" height="10.08"/>
	
		<rect x="152.75" y="133.74" transform="matrix(-1.836970e-16 1 -1 -1.836970e-16 311.6759 -34.1206)" width="40.3" height="10.08"/>
	<rect x="172.9" y="133.74" transform="matrix(-1.836970e-16 1 -1 -1.836970e-16 331.8275 -54.2722)" width="40.3" height="10.08"/>
	<rect x="46.95" y="133.74" transform="matrix(-1.836970e-16 1 -1 -1.836970e-16 205.8794 71.6759)" width="40.3" height="10.08"/>
	<rect x="26.8" y="133.74" transform="matrix(-1.836970e-16 1 -1 -1.836970e-16 185.7278 91.8276)" width="40.3" height="10.08"/>
	<polygon class="st2" points="67.1,83.36 62.06,83.36 62.06,78.32 51.99,78.32 51.99,83.36 46.95,83.36 46.95,98.47 51.99,98.47 
		51.99,103.51 62.06,103.51 62.06,98.47 67.1,98.47 	"/>
	
		<rect x="82.22" y="93.44" transform="matrix(-1.836970e-16 1 -1 -1.836970e-16 185.7278 11.2207)" class="st2" width="10.08" height="10.08"/>
	
		<rect x="102.37" y="93.44" transform="matrix(-1.836970e-16 1 -1 -1.836970e-16 205.8794 -8.931)" class="st2" width="10.08" height="10.08"/>
	
		<rect x="122.52" y="93.44" transform="matrix(-1.836970e-16 1 -1 -1.836970e-16 226.0311 -29.0827)" class="st2" width="10.08" height="10.08"/>
	
		<rect x="142.67" y="93.44" transform="matrix(-1.836970e-16 1 -1 -1.836970e-16 246.1829 -49.2344)" class="st2" width="10.08" height="10.08"/>
	
		<rect x="175.42" y="85.88" transform="matrix(-1.836970e-16 1 -1 -1.836970e-16 278.9294 -81.9809)" class="st2" width="10.08" height="25.19"/>
	
		<rect x="175.42" y="65.73" transform="matrix(-1.836970e-16 1 -1 -1.836970e-16 258.7777 -102.1326)" class="st2" width="10.08" height="25.19"/>
	
		<rect x="117.48" y="98.47" transform="matrix(-1.836970e-16 1 -1 -1.836970e-16 301.6 61.6)" class="st3" width="5.04" height="166.25"/>
	<polygon class="st3" points="208.16,169.01 208.16,73.28 203.13,73.28 203.13,68.25 36.87,68.25 36.87,73.28 31.84,73.28 
		31.84,169.01 26.8,169.01 26.8,68.25 31.84,68.25 31.84,63.21 36.87,63.21 36.87,58.17 203.13,58.17 203.13,63.21 208.16,63.21 
		208.16,68.25 213.2,68.25 213.2,169.01 	"/>
	<rect x="145.19" y="75.8" transform="matrix(-1.836970e-16 1 -1 -1.836970e-16 228.5501 -66.8671)" width="5.04" height="10.08"/>
	<rect x="125.04" y="75.8" transform="matrix(-1.836970e-16 1 -1 -1.836970e-16 208.3984 -46.7154)" width="5.04" height="10.08"/>
	<rect x="104.89" y="75.8" transform="matrix(-1.836970e-16 1 -1 -1.836970e-16 188.2467 -26.5637)" width="5.04" height="10.08"/>
	<rect x="84.73" y="75.8" transform="matrix(-1.836970e-16 1 -1 -1.836970e-16 168.0951 -6.412)" width="5.04" height="10.08"/>
</g>
</svg>
