<?xml version="1.0" encoding="utf-8"?>
<!-- Generator: Adobe Illustrator 30.0.0, SVG Export Plug-In . SVG Version: 9.03 Build 0)  -->
<svg version="1.1" id="Layer_1" xmlns="http://www.w3.org/2000/svg" xmlns:xlink="http://www.w3.org/1999/xlink" x="0px" y="0px"
	 viewBox="0 0 240 240" style="enable-background:new 0 0 240 240;" xml:space="preserve">
<style type="text/css">
	.st0{fill:#ECEEEE;}
	.st1{fill:#FD2A5C;}
	.st2{fill:#FFFFFF;}
	.st3{fill:#1D2375;}
	.st4{fill:#2E3190;}
	.st5{fill:#B7CACE;}
	.st6{fill:#AAB8BB;}
	.st7{fill:#606060;}
	.st8{fill:#96A4A6;}
	.st9{fill:#3A42A8;}
</style>
<rect x="197.95" y="25.04" class="st0" width="8.33" height="8.33"/>
<rect x="189.62" y="25.04" class="st0" width="8.33" height="8.33"/>
<rect x="181.29" y="25.04" class="st0" width="8.33" height="8.33"/>
<rect x="172.95" y="33.38" class="st1" width="8.33" height="8.33"/>
<rect x="172.95" y="25.04" class="st0" width="8.33" height="8.33"/>
<rect x="164.62" y="183.38" class="st2" width="8.33" height="8.33"/>
<rect x="164.62" y="175.05" class="st2" width="8.33" height="8.33"/>
<rect x="164.62" y="166.72" class="st2" width="8.33" height="8.33"/>
<rect x="164.62" y="158.38" class="st2" width="8.33" height="8.33"/>
<rect x="164.62" y="150.05" class="st2" width="8.33" height="8.33"/>
<rect x="164.62" y="141.72" class="st2" width="8.33" height="8.33"/>
<rect x="164.62" y="133.37" class="st2" width="8.33" height="8.35"/>
<rect x="164.62" y="125.04" class="st2" width="8.33" height="8.33"/>
<rect x="164.62" y="116.7" class="st2" width="8.33" height="8.33"/>
<rect x="164.62" y="108.37" class="st2" width="8.33" height="8.33"/>
<rect x="164.62" y="100.04" class="st2" width="8.33" height="8.33"/>
<rect x="164.62" y="91.7" class="st2" width="8.33" height="8.33"/>
<rect x="164.62" y="83.37" class="st2" width="8.33" height="8.33"/>
<rect x="164.62" y="75.04" class="st2" width="8.33" height="8.33"/>
<rect x="164.62" y="41.71" class="st0" width="8.33" height="8.33"/>
<rect x="164.62" y="33.38" class="st1" width="8.33" height="8.33"/>
<rect x="156.29" y="191.71" class="st3" width="8.33" height="8.33"/>
<rect x="156.29" y="183.38" class="st4" width="8.33" height="8.33"/>
<rect x="156.29" y="175.05" class="st4" width="8.33" height="8.33"/>
<rect x="156.29" y="166.72" class="st4" width="8.33" height="8.33"/>
<rect x="156.29" y="158.38" class="st0" width="8.33" height="8.33"/>
<rect x="156.29" y="150.05" class="st4" width="8.33" height="8.33"/>
<rect x="156.29" y="141.72" class="st4" width="8.33" height="8.33"/>
<rect x="156.29" y="133.37" class="st0" width="8.33" height="8.35"/>
<rect x="156.29" y="125.04" class="st4" width="8.33" height="8.33"/>
<rect x="156.29" y="116.7" class="st4" width="8.33" height="8.33"/>
<rect x="156.29" y="108.37" class="st5" width="8.33" height="8.33"/>
<rect x="156.29" y="100.04" class="st0" width="8.33" height="8.33"/>
<rect x="156.29" y="91.7" class="st2" width="8.33" height="8.33"/>
<rect x="156.29" y="83.37" class="st6" width="8.33" height="8.33"/>
<rect x="156.29" y="75.04" class="st5" width="8.33" height="8.33"/>
<rect x="156.29" y="66.71" class="st2" width="8.33" height="8.33"/>
<rect x="156.29" y="50.04" class="st1" width="8.33" height="8.33"/>
<rect x="156.29" y="41.71" class="st0" width="8.33" height="8.33"/>
<rect x="147.96" y="200.05" class="st3" width="8.33" height="8.33"/>
<rect x="147.96" y="191.71" class="st4" width="8.33" height="8.33"/>
<rect x="147.96" y="183.38" class="st4" width="8.33" height="8.33"/>
<rect x="147.96" y="175.05" class="st4" width="8.33" height="8.33"/>
<rect x="147.96" y="166.72" class="st5" width="8.33" height="8.33"/>
<rect x="147.96" y="158.38" class="st4" width="8.33" height="8.33"/>
<rect x="147.96" y="150.05" class="st4" width="8.33" height="8.33"/>
<rect x="147.96" y="141.72" class="st0" width="8.33" height="8.33"/>
<rect x="147.96" y="133.37" class="st4" width="8.33" height="8.35"/>
<rect x="147.96" y="125.04" class="st4" width="8.33" height="8.33"/>
<rect x="147.96" y="116.7" class="st5" width="8.33" height="8.33"/>
<rect x="147.96" y="108.37" class="st0" width="8.33" height="8.33"/>
<rect x="147.96" y="100.04" class="st2" width="8.33" height="8.33"/>
<rect x="147.96" y="91.7" class="st7" width="8.33" height="8.33"/>
<rect x="147.96" y="83.37" class="st6" width="8.33" height="8.33"/>
<rect x="147.96" y="75.04" class="st5" width="8.33" height="8.33"/>
<rect x="147.96" y="66.71" class="st6" width="8.33" height="8.33"/>
<rect x="147.96" y="58.37" class="st0" width="8.33" height="8.33"/>
<rect x="147.96" y="50.04" class="st1" width="8.33" height="8.33"/>
<rect x="139.62" y="200.05" class="st3" width="8.33" height="8.33"/>
<rect x="139.62" y="191.71" class="st4" width="8.33" height="8.33"/>
<rect x="139.62" y="183.38" class="st4" width="8.33" height="8.33"/>
<rect x="139.62" y="175.05" class="st5" width="8.33" height="8.33"/>
<rect x="139.62" y="166.72" class="st4" width="8.33" height="8.33"/>
<rect x="139.62" y="158.38" class="st4" width="8.33" height="8.33"/>
<rect x="139.62" y="150.05" class="st0" width="8.33" height="8.33"/>
<rect x="139.62" y="141.72" class="st4" width="8.33" height="8.33"/>
<rect x="139.62" y="133.37" class="st4" width="8.33" height="8.35"/>
<rect x="139.62" y="125.04" class="st5" width="8.33" height="8.33"/>
<rect x="139.62" y="116.7" class="st0" width="8.33" height="8.33"/>
<rect x="139.62" y="108.37" class="st2" width="8.33" height="8.33"/>
<rect x="139.62" y="100.04" class="st2" width="8.33" height="8.33"/>
<rect x="139.62" y="91.7" class="st7" width="8.33" height="8.33"/>
<rect x="139.62" y="83.37" class="st6" width="8.33" height="8.33"/>
<rect x="139.62" y="75.04" class="st7" width="8.33" height="8.33"/>
<rect x="139.62" y="66.71" class="st1" width="8.33" height="8.33"/>
<rect x="139.62" y="58.37" class="st0" width="8.33" height="8.33"/>
<rect x="131.27" y="200.05" class="st3" width="8.35" height="8.33"/>
<rect x="131.27" y="191.71" class="st4" width="8.35" height="8.33"/>
<rect x="131.27" y="183.38" class="st5" width="8.35" height="8.33"/>
<rect x="131.27" y="175.05" class="st4" width="8.35" height="8.33"/>
<rect x="131.27" y="166.72" class="st4" width="8.35" height="8.33"/>
<rect x="131.27" y="158.38" class="st0" width="8.35" height="8.33"/>
<rect x="131.27" y="150.05" class="st4" width="8.35" height="8.33"/>
<rect x="131.27" y="141.72" class="st4" width="8.35" height="8.33"/>
<rect x="131.27" y="133.37" class="st5" width="8.35" height="8.35"/>
<rect x="131.27" y="125.04" class="st0" width="8.35" height="8.33"/>
<rect x="131.27" y="116.7" class="st2" width="8.35" height="8.33"/>
<rect x="131.27" y="108.37" class="st2" width="8.35" height="8.33"/>
<rect x="131.27" y="100.04" class="st2" width="8.35" height="8.33"/>
<rect x="131.27" y="91.7" class="st7" width="8.35" height="8.33"/>
<rect x="131.27" y="83.37" class="st6" width="8.35" height="8.33"/>
<rect x="131.27" y="75.04" class="st0" width="8.35" height="8.33"/>
<rect x="131.27" y="66.71" class="st1" width="8.35" height="8.33"/>
<rect x="131.27" y="58.37" class="st5" width="8.35" height="8.33"/>
<rect x="122.94" y="200.05" class="st3" width="8.33" height="8.33"/>
<rect x="122.94" y="191.71" class="st5" width="8.33" height="8.33"/>
<rect x="122.94" y="183.38" class="st4" width="8.33" height="8.33"/>
<rect x="122.94" y="175.05" class="st4" width="8.33" height="8.33"/>
<rect x="122.94" y="166.72" class="st5" width="8.33" height="8.33"/>
<rect x="122.94" y="158.38" class="st4" width="8.33" height="8.33"/>
<rect x="122.94" y="150.05" class="st4" width="8.33" height="8.33"/>
<rect x="122.94" y="141.72" class="st5" width="8.33" height="8.33"/>
<rect x="122.94" y="133.37" class="st0" width="8.33" height="8.35"/>
<rect x="122.94" y="125.04" class="st2" width="8.33" height="8.33"/>
<rect x="122.94" y="116.7" class="st2" width="8.33" height="8.33"/>
<rect x="122.94" y="108.37" class="st2" width="8.33" height="8.33"/>
<rect x="122.94" y="100.04" class="st2" width="8.33" height="8.33"/>
<rect x="122.94" y="91.7" class="st7" width="8.33" height="8.33"/>
<rect x="122.94" y="83.37" class="st6" width="8.33" height="8.33"/>
<rect x="122.94" y="75.04" class="st0" width="8.33" height="8.33"/>
<rect x="122.94" y="66.71" class="st5" width="8.33" height="8.33"/>
<rect x="122.94" y="58.37" class="st5" width="8.33" height="8.33"/>
<rect x="114.61" y="200.05" class="st3" width="8.33" height="8.33"/>
<rect x="114.61" y="191.71" class="st4" width="8.33" height="8.33"/>
<rect x="114.61" y="183.38" class="st4" width="8.33" height="8.33"/>
<rect x="114.61" y="175.05" class="st5" width="8.33" height="8.33"/>
<rect x="114.61" y="166.72" class="st4" width="8.33" height="8.33"/>
<rect x="114.61" y="158.38" class="st4" width="8.33" height="8.33"/>
<rect x="114.61" y="150.05" class="st5" width="8.33" height="8.33"/>
<rect x="114.61" y="141.72" class="st0" width="8.33" height="8.33"/>
<rect x="114.61" y="133.37" class="st2" width="8.33" height="8.35"/>
<rect x="114.61" y="125.04" class="st2" width="8.33" height="8.33"/>
<rect x="114.61" y="116.7" class="st2" width="8.33" height="8.33"/>
<rect x="114.61" y="108.37" class="st2" width="8.33" height="8.33"/>
<rect x="114.61" y="100.04" class="st2" width="8.33" height="8.33"/>
<rect x="114.61" y="91.7" class="st7" width="8.33" height="8.33"/>
<rect x="114.61" y="83.37" class="st6" width="8.33" height="8.33"/>
<rect x="114.61" y="75.04" class="st7" width="8.33" height="8.33"/>
<rect x="114.61" y="66.71" class="st5" width="8.33" height="8.33"/>
<rect x="114.61" y="58.37" class="st5" width="8.33" height="8.33"/>
<rect x="106.28" y="200.05" class="st3" width="8.33" height="8.33"/>
<rect x="106.28" y="191.71" class="st4" width="8.33" height="8.33"/>
<rect x="106.28" y="183.38" class="st5" width="8.33" height="8.33"/>
<rect x="106.28" y="175.05" class="st4" width="8.33" height="8.33"/>
<rect x="106.28" y="166.72" class="st4" width="8.33" height="8.33"/>
<rect x="106.28" y="158.38" class="st5" width="8.33" height="8.33"/>
<rect x="106.28" y="150.05" class="st0" width="8.33" height="8.33"/>
<rect x="106.28" y="141.72" class="st2" width="8.33" height="8.33"/>
<rect x="106.28" y="133.37" class="st2" width="8.33" height="8.35"/>
<rect x="106.28" y="125.04" class="st2" width="8.33" height="8.33"/>
<rect x="106.28" y="116.7" class="st2" width="8.33" height="8.33"/>
<rect x="106.28" y="108.37" class="st2" width="8.33" height="8.33"/>
<rect x="106.28" y="100.04" class="st0" width="8.33" height="8.33"/>
<rect x="106.28" y="91.7" class="st7" width="8.33" height="8.33"/>
<rect x="106.28" y="83.37" class="st6" width="8.33" height="8.33"/>
<rect x="106.28" y="75.04" class="st8" width="8.33" height="8.33"/>
<rect x="106.28" y="66.71" class="st5" width="8.33" height="8.33"/>
<rect x="106.28" y="58.37" class="st5" width="8.33" height="8.33"/>
<rect x="97.94" y="200.05" class="st3" width="8.33" height="8.33"/>
<rect x="97.94" y="191.71" class="st5" width="8.33" height="8.33"/>
<rect x="97.94" y="183.38" class="st4" width="8.33" height="8.33"/>
<rect x="97.94" y="175.05" class="st4" width="8.33" height="8.33"/>
<rect x="97.94" y="166.72" class="st5" width="8.33" height="8.33"/>
<rect x="97.94" y="158.38" class="st0" width="8.33" height="8.33"/>
<rect x="97.94" y="150.05" class="st2" width="8.33" height="8.33"/>
<rect x="97.94" y="141.72" class="st2" width="8.33" height="8.33"/>
<rect x="97.94" y="133.37" class="st2" width="8.33" height="8.35"/>
<rect x="97.94" y="125.04" class="st2" width="8.33" height="8.33"/>
<rect x="97.94" y="116.7" class="st2" width="8.33" height="8.33"/>
<rect x="97.94" y="108.37" class="st0" width="8.33" height="8.33"/>
<rect x="97.94" y="100.04" class="st9" width="8.33" height="8.33"/>
<rect x="97.94" y="91.7" class="st7" width="8.33" height="8.33"/>
<rect x="97.94" y="83.37" class="st6" width="8.33" height="8.33"/>
<rect x="97.94" y="75.04" class="st8" width="8.33" height="8.33"/>
<rect x="97.94" y="66.71" class="st5" width="8.33" height="8.33"/>
<rect x="97.94" y="58.37" class="st5" width="8.33" height="8.33"/>
<rect x="89.61" y="200.05" class="st3" width="8.33" height="8.33"/>
<rect x="89.61" y="191.71" class="st4" width="8.33" height="8.33"/>
<rect x="89.61" y="183.38" class="st4" width="8.33" height="8.33"/>
<rect x="89.61" y="175.05" class="st5" width="8.33" height="8.33"/>
<rect x="89.61" y="166.72" class="st0" width="8.33" height="8.33"/>
<rect x="89.61" y="158.38" class="st2" width="8.33" height="8.33"/>
<rect x="89.61" y="150.05" class="st2" width="8.33" height="8.33"/>
<rect x="89.61" y="141.72" class="st2" width="8.33" height="8.33"/>
<rect x="89.61" y="133.37" class="st2" width="8.33" height="8.35"/>
<rect x="89.61" y="125.04" class="st2" width="8.33" height="8.33"/>
<rect x="89.61" y="116.7" class="st0" width="8.33" height="8.33"/>
<rect x="89.61" y="108.37" class="st4" width="8.33" height="8.33"/>
<rect x="89.61" y="100.04" class="st4" width="8.33" height="8.33"/>
<rect x="89.61" y="91.7" class="st7" width="8.33" height="8.33"/>
<rect x="89.61" y="83.37" class="st6" width="8.33" height="8.33"/>
<rect x="89.61" y="75.04" class="st6" width="8.33" height="8.33"/>
<rect x="89.61" y="66.71" class="st5" width="8.33" height="8.33"/>
<rect x="89.61" y="58.37" class="st5" width="8.33" height="8.33"/>
<rect x="81.28" y="200.05" class="st3" width="8.33" height="8.33"/>
<rect x="81.28" y="191.71" class="st4" width="8.33" height="8.33"/>
<rect x="81.28" y="183.38" class="st5" width="8.33" height="8.33"/>
<rect x="81.28" y="175.05" class="st0" width="8.33" height="8.33"/>
<rect x="81.28" y="166.72" class="st0" width="8.33" height="8.33"/>
<rect x="81.28" y="158.38" class="st2" width="8.33" height="8.33"/>
<rect x="81.28" y="150.05" class="st2" width="8.33" height="8.33"/>
<rect x="81.28" y="141.72" class="st2" width="8.33" height="8.33"/>
<rect x="81.28" y="133.37" class="st2" width="8.33" height="8.35"/>
<rect x="81.28" y="125.04" class="st0" width="8.33" height="8.33"/>
<rect x="81.28" y="116.7" class="st4" width="8.33" height="8.33"/>
<rect x="81.28" y="108.37" class="st4" width="8.33" height="8.33"/>
<rect x="81.28" y="100.04" class="st4" width="8.33" height="8.33"/>
<rect x="81.28" y="91.7" class="st7" width="8.33" height="8.33"/>
<rect x="81.28" y="83.37" class="st7" width="8.33" height="8.33"/>
<rect x="81.28" y="75.04" class="st6" width="8.33" height="8.33"/>
<rect x="81.28" y="66.71" class="st6" width="8.33" height="8.33"/>
<rect x="81.28" y="58.37" class="st8" width="8.33" height="8.33"/>
<rect x="72.94" y="191.71" class="st3" width="8.33" height="8.33"/>
<rect x="72.94" y="183.38" class="st5" width="8.33" height="8.33"/>
<rect x="72.94" y="175.05" class="st0" width="8.33" height="8.33"/>
<rect x="72.94" y="166.72" class="st0" width="8.33" height="8.33"/>
<rect x="72.94" y="158.38" class="st0" width="8.33" height="8.33"/>
<rect x="72.94" y="150.05" class="st0" width="8.33" height="8.33"/>
<rect x="72.94" y="141.72" class="st0" width="8.33" height="8.33"/>
<rect x="72.94" y="133.37" class="st0" width="8.33" height="8.35"/>
<rect x="72.94" y="125.04" class="st3" width="8.33" height="8.33"/>
<rect x="72.94" y="116.7" class="st3" width="8.33" height="8.33"/>
<rect x="72.94" y="108.37" class="st3" width="8.33" height="8.33"/>
<rect x="72.94" y="100.04" class="st3" width="8.33" height="8.33"/>
<rect x="72.94" y="91.7" class="st3" width="8.33" height="8.33"/>
<rect x="72.94" y="83.37" class="st7" width="8.33" height="8.33"/>
<rect x="72.94" y="75.04" class="st7" width="8.33" height="8.33"/>
<rect x="72.94" y="66.71" class="st7" width="8.33" height="8.33"/>
<rect x="64.61" y="183.38" class="st5" width="8.33" height="8.33"/>
<rect x="64.61" y="175.05" class="st5" width="8.33" height="8.33"/>
<rect x="64.61" y="166.72" class="st5" width="8.33" height="8.33"/>
<rect x="64.61" y="158.38" class="st5" width="8.33" height="8.33"/>
<rect x="64.61" y="150.05" class="st5" width="8.33" height="8.33"/>
<rect x="64.61" y="141.72" class="st5" width="8.33" height="8.33"/>
<rect x="64.61" y="133.37" class="st3" width="8.33" height="8.35"/>
<rect x="64.61" y="125.04" class="st3" width="8.33" height="8.33"/>
<rect x="64.61" y="116.7" class="st3" width="8.33" height="8.33"/>
<rect x="64.61" y="108.37" class="st3" width="8.33" height="8.33"/>
<rect x="64.61" y="100.04" class="st3" width="8.33" height="8.33"/>
<rect x="64.61" y="91.7" class="st3" width="8.33" height="8.33"/>
<rect x="64.61" y="83.37" class="st3" width="8.33" height="8.33"/>
<rect x="64.61" y="75.04" class="st3" width="8.33" height="8.33"/>
</svg>
