<?xml version="1.0" encoding="utf-8"?>
<!-- Generator: Adobe Illustrator 30.0.0, SVG Export Plug-In . SVG Version: 9.03 Build 0)  -->
<svg version="1.1" id="Layer_1" xmlns="http://www.w3.org/2000/svg" xmlns:xlink="http://www.w3.org/1999/xlink" x="0px" y="0px"
	 viewBox="0 0 240 240" style="enable-background:new 0 0 240 240;" xml:space="preserve">
<style type="text/css">
	.st0{fill:#F77C72;}
	.st1{fill:#CC5552;}
	.st2{fill:#453537;}
</style>
<g>
	<g id="XMLID_99_">
		<g>
			<rect x="27.11" y="113.97" class="st0" width="6.89" height="6.87"/>
			<rect x="27.11" y="120.84" class="st0" width="6.89" height="6.89"/>
			<rect x="34" y="113.97" class="st0" width="6.89" height="6.87"/>
			<rect x="34" y="120.84" class="st0" width="6.89" height="6.89"/>
			<rect x="34" y="127.73" class="st1" width="6.89" height="6.89"/>
			<rect x="40.88" y="86.45" class="st1" width="6.87" height="6.89"/>
			<rect x="40.88" y="107.09" class="st0" width="6.87" height="6.89"/>
			<rect x="40.88" y="113.97" class="st0" width="6.87" height="6.87"/>
			<rect x="40.88" y="120.84" class="st0" width="6.87" height="6.89"/>
			<rect x="40.88" y="127.73" class="st0" width="6.87" height="6.89"/>
			<rect x="40.88" y="134.61" class="st1" width="6.87" height="6.87"/>
			<rect x="47.75" y="86.45" class="st0" width="6.89" height="6.89"/>
			<rect x="47.75" y="93.33" class="st1" width="6.89" height="6.87"/>
			<rect x="47.75" y="100.2" class="st0" width="6.89" height="6.89"/>
			<rect x="47.75" y="107.09" class="st0" width="6.89" height="6.89"/>
			<rect x="47.75" y="113.97" class="st0" width="6.89" height="6.87"/>
			<rect x="47.75" y="120.84" class="st0" width="6.89" height="6.89"/>
			<rect x="47.75" y="127.73" class="st0" width="6.89" height="6.89"/>
			<rect x="47.75" y="134.61" class="st1" width="6.89" height="6.87"/>
			<rect x="54.64" y="93.33" class="st0" width="6.89" height="6.87"/>
			<rect x="54.64" y="100.2" class="st0" width="6.89" height="6.89"/>
			<rect x="54.64" y="107.09" class="st2" width="6.89" height="6.89"/>
			<rect x="54.64" y="113.97" class="st0" width="6.89" height="6.87"/>
			<rect x="54.64" y="120.84" class="st0" width="6.89" height="6.89"/>
			<rect x="54.64" y="127.73" class="st0" width="6.89" height="6.89"/>
			<rect x="54.64" y="134.61" class="st1" width="6.89" height="6.87"/>
			<rect x="61.52" y="86.45" class="st0" width="6.87" height="6.89"/>
			<rect x="61.52" y="93.33" class="st0" width="6.87" height="6.87"/>
			<rect x="61.52" y="100.2" class="st0" width="6.87" height="6.89"/>
			<rect x="61.52" y="107.09" class="st0" width="6.87" height="6.89"/>
			<rect x="61.52" y="113.97" class="st0" width="6.87" height="6.87"/>
			<rect x="61.52" y="120.84" class="st0" width="6.87" height="6.89"/>
			<rect x="61.52" y="127.73" class="st0" width="6.87" height="6.89"/>
			<rect x="61.52" y="134.61" class="st0" width="6.87" height="6.87"/>
			<rect x="61.52" y="141.48" class="st1" width="6.87" height="6.89"/>
			<rect x="68.39" y="86.45" class="st0" width="6.89" height="6.89"/>
			<rect x="68.39" y="93.33" class="st0" width="6.89" height="6.87"/>
			<rect x="68.39" y="100.2" class="st0" width="6.89" height="6.89"/>
			<rect x="68.39" y="107.09" class="st0" width="6.89" height="6.89"/>
			<rect x="68.39" y="113.97" class="st0" width="6.89" height="6.87"/>
			<rect x="68.39" y="120.84" class="st0" width="6.89" height="6.89"/>
			<rect x="68.39" y="127.73" class="st0" width="6.89" height="6.89"/>
			<rect x="68.39" y="134.61" class="st0" width="6.89" height="6.87"/>
			<rect x="68.39" y="141.48" class="st0" width="6.89" height="6.89"/>
			<rect x="68.39" y="148.37" class="st1" width="6.89" height="6.89"/>
			<rect x="68.39" y="155.26" class="st1" width="6.89" height="6.87"/>
			<rect x="68.39" y="162.12" class="st1" width="6.89" height="6.89"/>
			<rect x="68.39" y="169.01" class="st1" width="6.89" height="6.89"/>
			<rect x="75.28" y="79.56" class="st0" width="6.89" height="6.89"/>
			<rect x="75.28" y="86.45" class="st0" width="6.89" height="6.89"/>
			<rect x="75.28" y="93.33" class="st0" width="6.89" height="6.87"/>
			<rect x="75.28" y="100.2" class="st0" width="6.89" height="6.89"/>
			<rect x="75.28" y="107.09" class="st0" width="6.89" height="6.89"/>
			<rect x="75.28" y="113.97" class="st0" width="6.89" height="6.87"/>
			<rect x="75.28" y="120.84" class="st0" width="6.89" height="6.89"/>
			<rect x="75.28" y="127.73" class="st0" width="6.89" height="6.89"/>
			<rect x="75.28" y="134.61" class="st0" width="6.89" height="6.87"/>
			<rect x="75.28" y="141.48" class="st0" width="6.89" height="6.89"/>
			<rect x="75.28" y="148.37" class="st1" width="6.89" height="6.89"/>
			<rect x="75.28" y="155.26" class="st1" width="6.89" height="6.87"/>
			<rect x="82.16" y="79.56" class="st0" width="6.87" height="6.89"/>
			<rect x="82.16" y="86.45" class="st0" width="6.87" height="6.89"/>
			<rect x="82.16" y="93.33" class="st0" width="6.87" height="6.87"/>
			<rect x="82.16" y="100.2" class="st0" width="6.87" height="6.89"/>
			<rect x="82.16" y="107.09" class="st0" width="6.87" height="6.89"/>
			<rect x="82.16" y="113.97" class="st0" width="6.87" height="6.87"/>
			<rect x="82.16" y="120.84" class="st0" width="6.87" height="6.89"/>
			<rect x="82.16" y="127.73" class="st0" width="6.87" height="6.89"/>
			<rect x="82.16" y="134.61" class="st0" width="6.87" height="6.87"/>
			<rect x="82.16" y="141.48" class="st0" width="6.87" height="6.89"/>
			<rect x="82.16" y="148.37" class="st0" width="6.87" height="6.89"/>
			<rect x="82.16" y="155.26" class="st0" width="6.87" height="6.87"/>
			<rect x="82.16" y="162.12" class="st0" width="6.87" height="6.89"/>
			<rect x="82.16" y="169.01" class="st0" width="6.87" height="6.89"/>
			<rect x="89.03" y="79.56" class="st0" width="6.89" height="6.89"/>
			<rect x="89.03" y="86.45" class="st0" width="6.89" height="6.89"/>
			<rect x="89.03" y="93.33" class="st0" width="6.89" height="6.87"/>
			<rect x="89.03" y="100.2" class="st0" width="6.89" height="6.89"/>
			<rect x="89.03" y="107.09" class="st0" width="6.89" height="6.89"/>
			<rect x="89.03" y="113.97" class="st0" width="6.89" height="6.87"/>
			<rect x="89.03" y="120.84" class="st0" width="6.89" height="6.89"/>
			<rect x="89.03" y="127.73" class="st0" width="6.89" height="6.89"/>
			<rect x="89.03" y="134.61" class="st0" width="6.89" height="6.87"/>
			<rect x="89.03" y="141.48" class="st0" width="6.89" height="6.89"/>
			<rect x="89.03" y="148.37" class="st0" width="6.89" height="6.89"/>
			<rect x="89.03" y="155.26" class="st0" width="6.89" height="6.87"/>
			<rect x="89.03" y="162.12" class="st1" width="6.89" height="6.89"/>
			<rect x="95.92" y="72.69" class="st0" width="6.89" height="6.87"/>
			<rect x="95.92" y="79.56" class="st0" width="6.89" height="6.89"/>
			<rect x="95.92" y="86.45" class="st0" width="6.89" height="6.89"/>
			<rect x="95.92" y="93.33" class="st0" width="6.89" height="6.87"/>
			<rect x="95.92" y="100.2" class="st0" width="6.89" height="6.89"/>
			<rect x="95.92" y="107.09" class="st0" width="6.89" height="6.89"/>
			<rect x="95.92" y="113.97" class="st0" width="6.89" height="6.87"/>
			<rect x="95.92" y="120.84" class="st0" width="6.89" height="6.89"/>
			<rect x="95.92" y="127.73" class="st0" width="6.89" height="6.89"/>
			<rect x="95.92" y="134.61" class="st0" width="6.89" height="6.87"/>
			<rect x="95.92" y="141.48" class="st0" width="6.89" height="6.89"/>
			<rect x="95.92" y="148.37" class="st1" width="6.89" height="6.89"/>
			<rect x="95.92" y="155.26" class="st1" width="6.89" height="6.87"/>
			<rect x="102.8" y="72.69" class="st0" width="6.87" height="6.87"/>
			<rect x="102.8" y="79.56" class="st0" width="6.87" height="6.89"/>
			<rect x="102.8" y="86.45" class="st0" width="6.87" height="6.89"/>
			<rect x="102.8" y="93.33" class="st0" width="6.87" height="6.87"/>
			<rect x="102.8" y="100.2" class="st0" width="6.87" height="6.89"/>
			<rect x="102.8" y="107.09" class="st0" width="6.87" height="6.89"/>
			<rect x="102.8" y="113.97" class="st0" width="6.87" height="6.87"/>
			<rect x="102.8" y="120.84" class="st0" width="6.87" height="6.89"/>
			<rect x="102.8" y="127.73" class="st0" width="6.87" height="6.89"/>
			<rect x="102.8" y="134.61" class="st1" width="6.87" height="6.87"/>
			<rect x="102.8" y="141.48" class="st1" width="6.87" height="6.89"/>
			<rect x="109.67" y="72.69" class="st0" width="6.89" height="6.87"/>
			<rect x="109.67" y="79.56" class="st0" width="6.89" height="6.89"/>
			<rect x="109.67" y="86.45" class="st0" width="6.89" height="6.89"/>
			<rect x="109.67" y="93.33" class="st0" width="6.89" height="6.87"/>
			<rect x="109.67" y="100.2" class="st0" width="6.89" height="6.89"/>
			<rect x="109.67" y="107.09" class="st0" width="6.89" height="6.89"/>
			<rect x="109.67" y="113.97" class="st0" width="6.89" height="6.87"/>
			<rect x="109.67" y="120.84" class="st0" width="6.89" height="6.89"/>
			<rect x="109.67" y="127.73" class="st0" width="6.89" height="6.89"/>
			<rect x="109.67" y="134.61" class="st0" width="6.89" height="6.87"/>
			<rect x="109.67" y="141.48" class="st1" width="6.89" height="6.89"/>
			<rect x="116.56" y="72.69" class="st0" width="6.89" height="6.87"/>
			<rect x="116.56" y="79.56" class="st0" width="6.89" height="6.89"/>
			<rect x="116.56" y="86.45" class="st0" width="6.89" height="6.89"/>
			<rect x="116.56" y="93.33" class="st0" width="6.89" height="6.87"/>
			<rect x="116.56" y="100.2" class="st0" width="6.89" height="6.89"/>
			<rect x="116.56" y="107.09" class="st0" width="6.89" height="6.89"/>
			<rect x="116.56" y="113.97" class="st0" width="6.89" height="6.87"/>
			<rect x="116.56" y="120.84" class="st0" width="6.89" height="6.89"/>
			<rect x="116.56" y="127.73" class="st0" width="6.89" height="6.89"/>
			<rect x="116.56" y="134.61" class="st0" width="6.89" height="6.87"/>
			<rect x="116.56" y="141.48" class="st1" width="6.89" height="6.89"/>
			<rect x="123.44" y="72.69" class="st0" width="6.87" height="6.87"/>
			<rect x="123.44" y="79.56" class="st0" width="6.87" height="6.89"/>
			<rect x="123.44" y="86.45" class="st0" width="6.87" height="6.89"/>
			<rect x="123.44" y="93.33" class="st0" width="6.87" height="6.87"/>
			<rect x="123.44" y="100.2" class="st0" width="6.87" height="6.89"/>
			<rect x="123.44" y="107.09" class="st0" width="6.87" height="6.89"/>
			<rect x="123.44" y="113.97" class="st0" width="6.87" height="6.87"/>
			<rect x="123.44" y="120.84" class="st0" width="6.87" height="6.89"/>
			<rect x="123.44" y="127.73" class="st0" width="6.87" height="6.89"/>
			<rect x="123.44" y="134.61" class="st0" width="6.87" height="6.87"/>
			<rect x="123.44" y="141.48" class="st1" width="6.87" height="6.89"/>
			<rect x="130.31" y="72.69" class="st0" width="6.89" height="6.87"/>
			<rect x="130.31" y="79.56" class="st0" width="6.89" height="6.89"/>
			<rect x="130.31" y="86.45" class="st0" width="6.89" height="6.89"/>
			<rect x="130.31" y="93.33" class="st0" width="6.89" height="6.87"/>
			<rect x="130.31" y="100.2" class="st0" width="6.89" height="6.89"/>
			<rect x="130.31" y="107.09" class="st0" width="6.89" height="6.89"/>
			<rect x="130.31" y="113.97" class="st0" width="6.89" height="6.87"/>
			<rect x="130.31" y="120.84" class="st0" width="6.89" height="6.89"/>
			<rect x="130.31" y="127.73" class="st0" width="6.89" height="6.89"/>
			<rect x="130.31" y="134.61" class="st0" width="6.89" height="6.87"/>
			<rect x="130.31" y="141.48" class="st1" width="6.89" height="6.89"/>
			<rect x="137.2" y="72.69" class="st0" width="6.89" height="6.87"/>
			<rect x="137.2" y="79.56" class="st0" width="6.89" height="6.89"/>
			<rect x="137.2" y="86.45" class="st0" width="6.89" height="6.89"/>
			<rect x="137.2" y="93.33" class="st0" width="6.89" height="6.87"/>
			<rect x="137.2" y="100.2" class="st0" width="6.89" height="6.89"/>
			<rect x="137.2" y="107.09" class="st0" width="6.89" height="6.89"/>
			<rect x="137.2" y="113.97" class="st0" width="6.89" height="6.87"/>
			<rect x="137.2" y="120.84" class="st0" width="6.89" height="6.89"/>
			<rect x="137.2" y="127.73" class="st0" width="6.89" height="6.89"/>
			<rect x="137.2" y="134.61" class="st0" width="6.89" height="6.87"/>
			<rect x="137.2" y="141.48" class="st1" width="6.89" height="6.89"/>
			<rect x="137.2" y="148.37" class="st1" width="6.89" height="6.89"/>
			<rect x="144.08" y="72.69" class="st0" width="6.87" height="6.87"/>
			<rect x="144.08" y="79.56" class="st0" width="6.87" height="6.89"/>
			<rect x="144.08" y="86.45" class="st0" width="6.87" height="6.89"/>
			<rect x="144.08" y="93.33" class="st0" width="6.87" height="6.87"/>
			<rect x="144.08" y="100.2" class="st0" width="6.87" height="6.89"/>
			<rect x="144.08" y="107.09" class="st0" width="6.87" height="6.89"/>
			<rect x="144.08" y="113.97" class="st0" width="6.87" height="6.87"/>
			<rect x="144.08" y="120.84" class="st0" width="6.87" height="6.89"/>
			<rect x="144.08" y="127.73" class="st1" width="6.87" height="6.89"/>
			<rect x="144.08" y="134.61" class="st1" width="6.87" height="6.87"/>
			<rect x="144.08" y="141.48" class="st1" width="6.87" height="6.89"/>
			<rect x="144.08" y="148.37" class="st1" width="6.87" height="6.89"/>
			<rect x="144.08" y="155.26" class="st1" width="6.87" height="6.87"/>
			<rect x="144.08" y="162.12" class="st1" width="6.87" height="6.89"/>
			<rect x="144.08" y="169.01" class="st1" width="6.87" height="6.89"/>
			<rect x="150.95" y="79.56" class="st0" width="6.89" height="6.89"/>
			<rect x="150.95" y="86.45" class="st0" width="6.89" height="6.89"/>
			<rect x="150.95" y="93.33" class="st0" width="6.89" height="6.87"/>
			<rect x="150.95" y="100.2" class="st0" width="6.89" height="6.89"/>
			<rect x="150.95" y="107.09" class="st0" width="6.89" height="6.89"/>
			<rect x="150.95" y="113.97" class="st0" width="6.89" height="6.87"/>
			<rect x="150.95" y="120.84" class="st0" width="6.89" height="6.89"/>
			<rect x="150.95" y="127.73" class="st0" width="6.89" height="6.89"/>
			<rect x="150.95" y="134.61" class="st0" width="6.89" height="6.87"/>
			<rect x="150.95" y="141.48" class="st1" width="6.89" height="6.89"/>
			<rect x="150.95" y="148.37" class="st1" width="6.89" height="6.89"/>
			<rect x="150.95" y="155.26" class="st1" width="6.89" height="6.87"/>
			<rect x="157.84" y="79.56" class="st0" width="6.89" height="6.89"/>
			<rect x="157.84" y="86.45" class="st0" width="6.89" height="6.89"/>
			<rect x="157.84" y="93.33" class="st0" width="6.89" height="6.87"/>
			<rect x="157.84" y="100.2" class="st0" width="6.89" height="6.89"/>
			<rect x="157.84" y="107.09" class="st0" width="6.89" height="6.89"/>
			<rect x="157.84" y="113.97" class="st0" width="6.89" height="6.87"/>
			<rect x="157.84" y="120.84" class="st0" width="6.89" height="6.89"/>
			<rect x="157.84" y="127.73" class="st0" width="6.89" height="6.89"/>
			<rect x="157.84" y="134.61" class="st0" width="6.89" height="6.87"/>
			<rect x="157.84" y="141.48" class="st0" width="6.89" height="6.89"/>
			<rect x="164.72" y="86.45" class="st0" width="6.87" height="6.89"/>
			<rect x="164.72" y="93.33" class="st0" width="6.87" height="6.87"/>
			<rect x="164.72" y="100.2" class="st0" width="6.87" height="6.89"/>
			<rect x="164.72" y="107.09" class="st0" width="6.87" height="6.89"/>
			<rect x="164.72" y="113.97" class="st0" width="6.87" height="6.87"/>
			<rect x="164.72" y="120.84" class="st0" width="6.87" height="6.89"/>
			<rect x="164.72" y="127.73" class="st0" width="6.87" height="6.89"/>
			<rect x="164.72" y="134.61" class="st0" width="6.87" height="6.87"/>
			<rect x="164.72" y="141.48" class="st0" width="6.87" height="6.89"/>
			<rect x="164.72" y="148.37" class="st0" width="6.87" height="6.89"/>
			<rect x="164.72" y="155.26" class="st0" width="6.87" height="6.87"/>
			<rect x="171.59" y="86.45" class="st0" width="6.89" height="6.89"/>
			<rect x="171.59" y="93.33" class="st0" width="6.89" height="6.87"/>
			<rect x="171.59" y="100.2" class="st0" width="6.89" height="6.89"/>
			<rect x="171.59" y="107.09" class="st0" width="6.89" height="6.89"/>
			<rect x="171.59" y="113.97" class="st0" width="6.89" height="6.87"/>
			<rect x="171.59" y="120.84" class="st0" width="6.89" height="6.89"/>
			<rect x="171.59" y="127.73" class="st0" width="6.89" height="6.89"/>
			<rect x="171.59" y="134.61" class="st0" width="6.89" height="6.87"/>
			<rect x="171.59" y="141.48" class="st0" width="6.89" height="6.89"/>
			<rect x="171.59" y="148.37" class="st0" width="6.89" height="6.89"/>
			<rect x="171.59" y="155.26" class="st0" width="6.89" height="6.87"/>
			<rect x="171.59" y="162.12" class="st0" width="6.89" height="6.89"/>
			<rect x="171.59" y="169.01" class="st0" width="6.89" height="6.89"/>
			<rect x="178.48" y="93.33" class="st0" width="6.89" height="6.87"/>
			<rect x="178.48" y="100.2" class="st0" width="6.89" height="6.89"/>
			<rect x="178.48" y="107.09" class="st0" width="6.89" height="6.89"/>
			<rect x="178.48" y="113.97" class="st0" width="6.89" height="6.87"/>
			<rect x="178.48" y="120.84" class="st0" width="6.89" height="6.89"/>
			<rect x="178.48" y="127.73" class="st0" width="6.89" height="6.89"/>
			<rect x="178.48" y="134.61" class="st0" width="6.89" height="6.87"/>
			<rect x="178.48" y="141.48" class="st1" width="6.89" height="6.89"/>
			<rect x="178.48" y="148.37" class="st1" width="6.89" height="6.89"/>
			<rect x="185.36" y="100.2" class="st0" width="6.87" height="6.89"/>
			<rect x="185.36" y="107.09" class="st0" width="6.87" height="6.89"/>
			<rect x="185.36" y="113.97" class="st0" width="6.87" height="6.87"/>
			<rect x="185.36" y="120.84" class="st1" width="6.87" height="6.89"/>
			<rect x="185.36" y="127.73" class="st1" width="6.87" height="6.89"/>
			<rect x="185.36" y="134.61" class="st1" width="6.87" height="6.87"/>
			<rect x="192.23" y="107.09" class="st0" width="6.89" height="6.89"/>
			<rect x="199.12" y="100.2" class="st0" width="6.89" height="6.89"/>
		</g>
	</g>
</g>
</svg>
