<?xml version="1.0" encoding="utf-8"?>
<!-- Generator: Adobe Illustrator 30.0.0, SVG Export Plug-In . SVG Version: 9.03 Build 0)  -->
<svg version="1.1" id="Layer_1" xmlns="http://www.w3.org/2000/svg" xmlns:xlink="http://www.w3.org/1999/xlink" x="0px" y="0px"
	 viewBox="0 0 240 240" style="enable-background:new 0 0 240 240;" xml:space="preserve">
<style type="text/css">
	.st0{fill:#96A4A6;}
	.st1{fill:#3A42A8;}
	.st2{fill:#1C2426;}
	.st3{fill:#FFFFFF;}
	.st4{fill:#ECEEEE;}
	.st5{fill:#B7CACE;}
	.st6{fill:#FDDEA7;}
	.st7{fill:#1D2375;}
	.st8{fill:#AAB8BB;}
</style>
<rect x="177.29" y="197.39" class="st0" width="7.64" height="7.64"/>
<rect x="177.29" y="189.75" class="st0" width="7.64" height="7.64"/>
<rect x="177.29" y="182.11" class="st1" width="7.64" height="7.64"/>
<rect x="177.29" y="174.47" class="st1" width="7.64" height="7.64"/>
<rect x="177.29" y="166.84" class="st1" width="7.64" height="7.64"/>
<rect x="177.29" y="159.2" class="st1" width="7.64" height="7.64"/>
<rect x="177.29" y="151.56" class="st1" width="7.64" height="7.64"/>
<rect x="177.29" y="143.93" class="st1" width="7.64" height="7.64"/>
<rect x="177.29" y="136.29" class="st1" width="7.64" height="7.64"/>
<rect x="177.29" y="128.65" class="st1" width="7.64" height="7.64"/>
<rect x="177.29" y="121.01" class="st1" width="7.64" height="7.64"/>
<rect x="177.29" y="113.38" class="st1" width="7.64" height="7.64"/>
<rect x="177.29" y="105.72" class="st1" width="7.64" height="7.65"/>
<rect x="177.29" y="98.09" class="st1" width="7.64" height="7.64"/>
<rect x="177.29" y="90.45" class="st1" width="7.64" height="7.64"/>
<rect x="177.29" y="82.81" class="st1" width="7.64" height="7.64"/>
<rect x="169.65" y="197.39" class="st0" width="7.64" height="7.64"/>
<rect x="169.65" y="189.75" class="st0" width="7.64" height="7.64"/>
<rect x="169.65" y="182.11" class="st1" width="7.64" height="7.64"/>
<rect x="169.65" y="174.47" class="st2" width="7.64" height="7.64"/>
<rect x="169.65" y="166.84" class="st3" width="7.64" height="7.64"/>
<rect x="169.65" y="159.2" class="st1" width="7.64" height="7.64"/>
<rect x="169.65" y="151.56" class="st1" width="7.64" height="7.64"/>
<rect x="169.65" y="143.93" class="st1" width="7.64" height="7.64"/>
<rect x="169.65" y="136.29" class="st1" width="7.64" height="7.64"/>
<rect x="169.65" y="128.65" class="st1" width="7.64" height="7.64"/>
<rect x="169.65" y="121.01" class="st1" width="7.64" height="7.64"/>
<rect x="169.65" y="113.38" class="st1" width="7.64" height="7.64"/>
<rect x="169.65" y="105.72" class="st1" width="7.64" height="7.65"/>
<rect x="169.65" y="98.09" class="st1" width="7.64" height="7.64"/>
<rect x="169.65" y="90.45" class="st1" width="7.64" height="7.64"/>
<rect x="169.65" y="82.81" class="st1" width="7.64" height="7.64"/>
<rect x="169.65" y="75.18" class="st1" width="7.64" height="7.64"/>
<rect x="169.65" y="67.54" class="st1" width="7.64" height="7.64"/>
<rect x="162.01" y="197.39" class="st0" width="7.64" height="7.64"/>
<rect x="162.01" y="189.75" class="st0" width="7.64" height="7.64"/>
<rect x="162.01" y="182.11" class="st1" width="7.64" height="7.64"/>
<rect x="162.01" y="174.47" class="st3" width="7.64" height="7.64"/>
<rect x="162.01" y="166.84" class="st2" width="7.64" height="7.64"/>
<rect x="162.01" y="159.2" class="st1" width="7.64" height="7.64"/>
<rect x="162.01" y="151.56" class="st1" width="7.64" height="7.64"/>
<rect x="162.01" y="143.93" class="st1" width="7.64" height="7.64"/>
<rect x="162.01" y="136.29" class="st1" width="7.64" height="7.64"/>
<rect x="162.01" y="128.65" class="st1" width="7.64" height="7.64"/>
<rect x="162.01" y="121.01" class="st1" width="7.64" height="7.64"/>
<rect x="162.01" y="113.38" class="st1" width="7.64" height="7.64"/>
<rect x="162.01" y="105.72" class="st1" width="7.64" height="7.65"/>
<rect x="162.01" y="98.09" class="st1" width="7.64" height="7.64"/>
<rect x="162.01" y="90.45" class="st1" width="7.64" height="7.64"/>
<rect x="162.01" y="82.81" class="st1" width="7.64" height="7.64"/>
<rect x="162.01" y="75.18" class="st1" width="7.64" height="7.64"/>
<rect x="162.01" y="67.54" class="st1" width="7.64" height="7.64"/>
<rect x="162.01" y="59.9" class="st1" width="7.64" height="7.64"/>
<rect x="162.01" y="52.26" class="st1" width="7.64" height="7.64"/>
<rect x="154.38" y="197.39" class="st0" width="7.64" height="7.64"/>
<rect x="154.38" y="189.75" class="st0" width="7.64" height="7.64"/>
<rect x="154.38" y="182.11" class="st1" width="7.64" height="7.64"/>
<rect x="154.38" y="174.47" class="st2" width="7.64" height="7.64"/>
<rect x="154.38" y="166.84" class="st3" width="7.64" height="7.64"/>
<rect x="154.38" y="159.2" class="st2" width="7.64" height="7.64"/>
<rect x="154.38" y="151.56" class="st2" width="7.64" height="7.64"/>
<rect x="154.38" y="143.93" class="st2" width="7.64" height="7.64"/>
<rect x="154.38" y="136.29" class="st2" width="7.64" height="7.64"/>
<rect x="154.38" y="128.65" class="st2" width="7.64" height="7.64"/>
<rect x="154.38" y="121.01" class="st2" width="7.64" height="7.64"/>
<rect x="154.38" y="113.38" class="st2" width="7.64" height="7.64"/>
<rect x="154.38" y="105.72" class="st2" width="7.64" height="7.65"/>
<rect x="154.38" y="98.09" class="st2" width="7.64" height="7.64"/>
<rect x="154.38" y="90.45" class="st2" width="7.64" height="7.64"/>
<rect x="154.38" y="82.81" class="st2" width="7.64" height="7.64"/>
<rect x="154.38" y="75.18" class="st2" width="7.64" height="7.64"/>
<rect x="154.38" y="67.54" class="st1" width="7.64" height="7.64"/>
<rect x="154.38" y="59.9" class="st1" width="7.64" height="7.64"/>
<rect x="154.38" y="52.26" class="st1" width="7.64" height="7.64"/>
<rect x="154.38" y="44.63" class="st1" width="7.64" height="7.64"/>
<rect x="154.38" y="36.99" class="st4" width="7.64" height="7.64"/>
<rect x="154.38" y="29.35" class="st4" width="7.64" height="7.64"/>
<rect x="146.74" y="197.39" class="st0" width="7.64" height="7.64"/>
<rect x="146.74" y="189.75" class="st0" width="7.64" height="7.64"/>
<rect x="146.74" y="182.11" class="st1" width="7.64" height="7.64"/>
<rect x="146.74" y="174.47" class="st3" width="7.64" height="7.64"/>
<rect x="146.74" y="166.84" class="st2" width="7.64" height="7.64"/>
<rect x="146.74" y="159.2" class="st1" width="7.64" height="7.64"/>
<rect x="146.74" y="151.56" class="st1" width="7.64" height="7.64"/>
<rect x="146.74" y="143.93" class="st1" width="7.64" height="7.64"/>
<rect x="146.74" y="136.29" class="st1" width="7.64" height="7.64"/>
<rect x="146.74" y="128.65" class="st1" width="7.64" height="7.64"/>
<rect x="146.74" y="121.01" class="st1" width="7.64" height="7.64"/>
<rect x="146.74" y="113.38" class="st1" width="7.64" height="7.64"/>
<rect x="146.74" y="105.72" class="st1" width="7.64" height="7.65"/>
<rect x="146.74" y="98.09" class="st1" width="7.64" height="7.64"/>
<rect x="146.74" y="90.45" class="st1" width="7.64" height="7.64"/>
<rect x="146.74" y="82.81" class="st1" width="7.64" height="7.64"/>
<rect x="146.74" y="75.18" class="st1" width="7.64" height="7.64"/>
<rect x="146.74" y="67.54" class="st1" width="7.64" height="7.64"/>
<rect x="146.74" y="59.9" class="st1" width="7.64" height="7.64"/>
<rect x="146.74" y="52.26" class="st1" width="7.64" height="7.64"/>
<rect x="146.74" y="44.63" class="st5" width="7.64" height="7.64"/>
<rect x="146.74" y="36.99" class="st4" width="7.64" height="7.64"/>
<rect x="146.74" y="29.35" class="st4" width="7.64" height="7.64"/>
<rect x="139.1" y="197.39" class="st0" width="7.64" height="7.64"/>
<rect x="139.1" y="189.75" class="st0" width="7.64" height="7.64"/>
<rect x="139.1" y="182.11" class="st1" width="7.64" height="7.64"/>
<rect x="139.1" y="174.47" class="st2" width="7.64" height="7.64"/>
<rect x="139.1" y="166.84" class="st3" width="7.64" height="7.64"/>
<rect x="139.1" y="159.2" class="st1" width="7.64" height="7.64"/>
<rect x="139.1" y="151.56" class="st1" width="7.64" height="7.64"/>
<rect x="139.1" y="143.93" class="st1" width="7.64" height="7.64"/>
<rect x="139.1" y="136.29" class="st1" width="7.64" height="7.64"/>
<rect x="139.1" y="128.65" class="st1" width="7.64" height="7.64"/>
<rect x="139.1" y="121.01" class="st1" width="7.64" height="7.64"/>
<rect x="139.1" y="113.38" class="st1" width="7.64" height="7.64"/>
<rect x="139.1" y="105.72" class="st1" width="7.64" height="7.65"/>
<rect x="139.1" y="98.09" class="st1" width="7.64" height="7.64"/>
<rect x="139.1" y="90.45" class="st1" width="7.64" height="7.64"/>
<rect x="139.1" y="82.81" class="st1" width="7.64" height="7.64"/>
<rect x="139.1" y="75.18" class="st1" width="7.64" height="7.64"/>
<rect x="139.1" y="67.54" class="st1" width="7.64" height="7.64"/>
<rect x="139.1" y="59.9" class="st5" width="7.64" height="7.64"/>
<rect x="139.1" y="52.26" class="st5" width="7.64" height="7.64"/>
<rect x="139.1" y="44.63" class="st5" width="7.64" height="7.64"/>
<rect x="139.1" y="36.99" class="st6" width="7.64" height="7.64"/>
<rect x="139.1" y="29.35" class="st6" width="7.64" height="7.64"/>
<rect x="131.46" y="197.39" class="st0" width="7.64" height="7.64"/>
<rect x="131.46" y="189.75" class="st0" width="7.64" height="7.64"/>
<rect x="131.46" y="182.11" class="st1" width="7.64" height="7.64"/>
<rect x="131.46" y="174.47" class="st1" width="7.64" height="7.64"/>
<rect x="131.46" y="166.84" class="st1" width="7.64" height="7.64"/>
<rect x="131.46" y="159.2" class="st1" width="7.64" height="7.64"/>
<rect x="131.46" y="151.56" class="st1" width="7.64" height="7.64"/>
<rect x="131.46" y="143.93" class="st1" width="7.64" height="7.64"/>
<rect x="131.46" y="136.29" class="st1" width="7.64" height="7.64"/>
<rect x="131.46" y="128.65" class="st1" width="7.64" height="7.64"/>
<rect x="131.46" y="121.01" class="st1" width="7.64" height="7.64"/>
<rect x="131.46" y="113.38" class="st1" width="7.64" height="7.64"/>
<rect x="131.46" y="105.72" class="st1" width="7.64" height="7.65"/>
<rect x="131.46" y="98.09" class="st1" width="7.64" height="7.64"/>
<rect x="131.46" y="90.45" class="st1" width="7.64" height="7.64"/>
<rect x="131.46" y="82.81" class="st1" width="7.64" height="7.64"/>
<rect x="131.46" y="75.18" class="st5" width="7.64" height="7.64"/>
<rect x="131.46" y="67.54" class="st5" width="7.64" height="7.64"/>
<rect x="131.46" y="59.9" class="st5" width="7.64" height="7.64"/>
<rect x="131.46" y="52.26" class="st5" width="7.64" height="7.64"/>
<rect x="131.46" y="44.63" class="st5" width="7.64" height="7.64"/>
<rect x="131.46" y="36.99" class="st4" width="7.64" height="7.64"/>
<rect x="131.46" y="29.35" class="st4" width="7.64" height="7.64"/>
<rect x="123.83" y="197.39" class="st5" width="7.64" height="7.64"/>
<rect x="123.83" y="189.75" class="st5" width="7.64" height="7.64"/>
<rect x="123.83" y="182.11" class="st4" width="7.64" height="7.64"/>
<rect x="123.83" y="174.47" class="st4" width="7.64" height="7.64"/>
<rect x="123.83" y="166.84" class="st4" width="7.64" height="7.64"/>
<rect x="123.83" y="159.2" class="st4" width="7.64" height="7.64"/>
<rect x="123.83" y="151.56" class="st4" width="7.64" height="7.64"/>
<rect x="123.83" y="143.93" class="st7" width="7.64" height="7.64"/>
<rect x="123.83" y="136.29" class="st7" width="7.64" height="7.64"/>
<rect x="123.83" y="128.65" class="st7" width="7.64" height="7.64"/>
<rect x="123.83" y="121.01" class="st7" width="7.64" height="7.64"/>
<rect x="123.83" y="113.38" class="st7" width="7.64" height="7.64"/>
<rect x="123.83" y="105.72" class="st7" width="7.64" height="7.65"/>
<rect x="123.83" y="98.09" class="st7" width="7.64" height="7.64"/>
<rect x="123.83" y="90.45" class="st8" width="7.64" height="7.64"/>
<rect x="123.83" y="82.81" class="st5" width="7.64" height="7.64"/>
<rect x="123.83" y="75.18" class="st5" width="7.64" height="7.64"/>
<rect x="123.83" y="67.54" class="st5" width="7.64" height="7.64"/>
<rect x="123.83" y="59.9" class="st5" width="7.64" height="7.64"/>
<rect x="123.83" y="52.26" class="st5" width="7.64" height="7.64"/>
<rect x="123.83" y="44.63" class="st5" width="7.64" height="7.64"/>
<rect x="123.83" y="36.99" class="st4" width="7.64" height="7.64"/>
<rect x="123.83" y="29.35" class="st4" width="7.64" height="7.64"/>
<rect x="116.19" y="197.39" class="st5" width="7.64" height="7.64"/>
<rect x="116.19" y="189.75" class="st5" width="7.64" height="7.64"/>
<rect x="116.19" y="182.11" class="st4" width="7.64" height="7.64"/>
<rect x="116.19" y="174.47" class="st4" width="7.64" height="7.64"/>
<rect x="116.19" y="166.84" class="st4" width="7.64" height="7.64"/>
<rect x="116.19" y="159.2" class="st4" width="7.64" height="7.64"/>
<rect x="116.19" y="151.56" class="st4" width="7.64" height="7.64"/>
<rect x="116.19" y="143.93" class="st7" width="7.64" height="7.64"/>
<rect x="116.19" y="136.29" class="st7" width="7.64" height="7.64"/>
<rect x="116.19" y="128.65" class="st7" width="7.64" height="7.64"/>
<rect x="116.19" y="121.01" class="st7" width="7.64" height="7.64"/>
<rect x="116.19" y="113.38" class="st7" width="7.64" height="7.64"/>
<rect x="116.19" y="105.72" class="st7" width="7.64" height="7.65"/>
<rect x="116.19" y="98.09" class="st7" width="7.64" height="7.64"/>
<rect x="116.19" y="90.45" class="st8" width="7.64" height="7.64"/>
<rect x="116.19" y="82.81" class="st5" width="7.64" height="7.64"/>
<rect x="116.19" y="75.18" class="st5" width="7.64" height="7.64"/>
<rect x="116.19" y="67.54" class="st5" width="7.64" height="7.64"/>
<rect x="116.19" y="59.9" class="st5" width="7.64" height="7.64"/>
<rect x="116.19" y="52.26" class="st5" width="7.64" height="7.64"/>
<rect x="116.19" y="44.63" class="st5" width="7.64" height="7.64"/>
<rect x="116.19" y="36.99" class="st6" width="7.64" height="7.64"/>
<rect x="116.19" y="29.35" class="st6" width="7.64" height="7.64"/>
<rect x="108.55" y="197.39" class="st5" width="7.64" height="7.64"/>
<rect x="108.55" y="189.75" class="st5" width="7.64" height="7.64"/>
<rect x="108.55" y="182.11" class="st4" width="7.64" height="7.64"/>
<rect x="108.55" y="174.47" class="st6" width="7.64" height="7.64"/>
<rect x="108.55" y="166.84" class="st6" width="7.64" height="7.64"/>
<rect x="108.55" y="159.2" class="st6" width="7.64" height="7.64"/>
<rect x="108.55" y="151.56" class="st6" width="7.64" height="7.64"/>
<rect x="108.55" y="143.93" class="st7" width="7.64" height="7.64"/>
<rect x="108.55" y="136.29" class="st7" width="7.64" height="7.64"/>
<rect x="108.55" y="128.65" class="st7" width="7.64" height="7.64"/>
<rect x="108.55" y="121.01" class="st7" width="7.64" height="7.64"/>
<rect x="108.55" y="98.09" class="st7" width="7.64" height="7.64"/>
<rect x="108.55" y="90.45" class="st8" width="7.64" height="7.64"/>
<rect x="108.55" y="82.81" class="st5" width="7.64" height="7.64"/>
<rect x="108.55" y="75.18" class="st5" width="7.64" height="7.64"/>
<rect x="108.55" y="67.54" class="st1" width="7.64" height="7.64"/>
<rect x="108.55" y="59.9" class="st5" width="7.64" height="7.64"/>
<rect x="108.55" y="52.26" class="st5" width="7.64" height="7.64"/>
<rect x="108.55" y="44.63" class="st5" width="7.64" height="7.64"/>
<rect x="108.55" y="36.99" class="st4" width="7.64" height="7.64"/>
<rect x="108.55" y="29.35" class="st4" width="7.64" height="7.64"/>
<rect x="100.91" y="197.39" class="st5" width="7.64" height="7.64"/>
<rect x="100.91" y="189.75" class="st5" width="7.64" height="7.64"/>
<rect x="100.91" y="182.11" class="st4" width="7.64" height="7.64"/>
<rect x="100.91" y="174.47" class="st4" width="7.64" height="7.64"/>
<rect x="100.91" y="166.84" class="st6" width="7.64" height="7.64"/>
<rect x="100.91" y="159.2" class="st6" width="7.64" height="7.64"/>
<rect x="100.91" y="151.56" class="st7" width="7.64" height="7.64"/>
<rect x="100.91" y="143.93" class="st7" width="7.64" height="7.64"/>
<rect x="100.91" y="136.29" class="st7" width="7.64" height="7.64"/>
<rect x="100.91" y="128.65" class="st7" width="7.64" height="7.64"/>
<rect x="100.91" y="121.01" class="st7" width="7.64" height="7.64"/>
<rect x="100.91" y="113.38" class="st7" width="7.64" height="7.64"/>
<rect x="100.91" y="98.09" class="st7" width="7.64" height="7.64"/>
<rect x="100.91" y="90.45" class="st8" width="7.64" height="7.64"/>
<rect x="100.91" y="82.81" class="st5" width="7.64" height="7.64"/>
<rect x="100.91" y="75.18" class="st1" width="7.64" height="7.64"/>
<rect x="100.91" y="67.54" class="st1" width="7.64" height="7.64"/>
<rect x="100.91" y="59.9" class="st1" width="7.64" height="7.64"/>
<rect x="100.91" y="52.26" class="st5" width="7.64" height="7.64"/>
<rect x="100.91" y="44.63" class="st5" width="7.64" height="7.64"/>
<rect x="100.91" y="36.99" class="st4" width="7.64" height="7.64"/>
<rect x="100.91" y="29.35" class="st4" width="7.64" height="7.64"/>
<rect x="93.26" y="197.39" class="st5" width="7.65" height="7.64"/>
<rect x="93.26" y="189.75" class="st5" width="7.65" height="7.64"/>
<rect x="93.26" y="182.11" class="st4" width="7.65" height="7.64"/>
<rect x="93.26" y="174.47" class="st6" width="7.65" height="7.64"/>
<rect x="93.26" y="166.84" class="st6" width="7.65" height="7.64"/>
<rect x="93.26" y="159.2" class="st7" width="7.65" height="7.64"/>
<rect x="93.26" y="151.56" class="st7" width="7.65" height="7.64"/>
<rect x="93.26" y="143.93" class="st7" width="7.65" height="7.64"/>
<rect x="93.26" y="136.29" class="st7" width="7.65" height="7.64"/>
<rect x="93.26" y="128.65" class="st7" width="7.65" height="7.64"/>
<rect x="93.26" y="121.01" class="st7" width="7.65" height="7.64"/>
<rect x="93.26" y="98.09" class="st7" width="7.65" height="7.64"/>
<rect x="93.26" y="90.45" class="st8" width="7.65" height="7.64"/>
<rect x="93.26" y="82.81" class="st5" width="7.65" height="7.64"/>
<rect x="93.26" y="75.18" class="st7" width="7.65" height="7.64"/>
<rect x="93.26" y="67.54" class="st1" width="7.65" height="7.64"/>
<rect x="93.26" y="59.9" class="st7" width="7.65" height="7.64"/>
<rect x="93.26" y="52.26" class="st5" width="7.65" height="7.64"/>
<rect x="93.26" y="44.63" class="st5" width="7.65" height="7.64"/>
<rect x="93.26" y="36.99" class="st6" width="7.65" height="7.64"/>
<rect x="93.26" y="29.35" class="st6" width="7.65" height="7.64"/>
<rect x="85.62" y="197.39" class="st5" width="7.64" height="7.64"/>
<rect x="85.62" y="189.75" class="st5" width="7.64" height="7.64"/>
<rect x="85.62" y="182.11" class="st6" width="7.64" height="7.64"/>
<rect x="85.62" y="174.47" class="st6" width="7.64" height="7.64"/>
<rect x="85.62" y="166.84" class="st6" width="7.64" height="7.64"/>
<rect x="85.62" y="159.2" class="st4" width="7.64" height="7.64"/>
<rect x="85.62" y="151.56" class="st4" width="7.64" height="7.64"/>
<rect x="85.62" y="143.93" class="st4" width="7.64" height="7.64"/>
<rect x="85.62" y="136.29" class="st7" width="7.64" height="7.64"/>
<rect x="85.62" y="128.65" class="st7" width="7.64" height="7.64"/>
<rect x="85.62" y="121.01" class="st7" width="7.64" height="7.64"/>
<rect x="85.62" y="105.72" class="st7" width="7.64" height="7.65"/>
<rect x="85.62" y="98.09" class="st7" width="7.64" height="7.64"/>
<rect x="85.62" y="90.45" class="st8" width="7.64" height="7.64"/>
<rect x="85.62" y="82.81" class="st5" width="7.64" height="7.64"/>
<rect x="85.62" y="75.18" class="st7" width="7.64" height="7.64"/>
<rect x="85.62" y="67.54" class="st1" width="7.64" height="7.64"/>
<rect x="85.62" y="59.9" class="st7" width="7.64" height="7.64"/>
<rect x="85.62" y="52.26" class="st5" width="7.64" height="7.64"/>
<rect x="85.62" y="44.63" class="st8" width="7.64" height="7.64"/>
<rect x="85.62" y="36.99" class="st4" width="7.64" height="7.64"/>
<rect x="85.62" y="29.35" class="st4" width="7.64" height="7.64"/>
<rect x="77.99" y="197.39" class="st5" width="7.64" height="7.64"/>
<rect x="77.99" y="189.75" class="st5" width="7.64" height="7.64"/>
<rect x="77.99" y="182.11" class="st6" width="7.64" height="7.64"/>
<rect x="77.99" y="174.47" class="st6" width="7.64" height="7.64"/>
<rect x="77.99" y="166.84" class="st4" width="7.64" height="7.64"/>
<rect x="77.99" y="159.2" class="st4" width="7.64" height="7.64"/>
<rect x="77.99" y="151.56" class="st4" width="7.64" height="7.64"/>
<rect x="77.99" y="143.93" class="st4" width="7.64" height="7.64"/>
<rect x="77.99" y="136.29" class="st7" width="7.64" height="7.64"/>
<rect x="77.99" y="128.65" class="st7" width="7.64" height="7.64"/>
<rect x="77.99" y="121.01" class="st7" width="7.64" height="7.64"/>
<rect x="77.99" y="98.09" class="st7" width="7.64" height="7.64"/>
<rect x="77.99" y="90.45" class="st8" width="7.64" height="7.64"/>
<rect x="77.99" y="82.81" class="st5" width="7.64" height="7.64"/>
<rect x="77.99" y="75.18" class="st5" width="7.64" height="7.64"/>
<rect x="77.99" y="67.54" class="st7" width="7.64" height="7.64"/>
<rect x="77.99" y="59.9" class="st5" width="7.64" height="7.64"/>
<rect x="77.99" y="52.26" class="st8" width="7.64" height="7.64"/>
<rect x="77.99" y="44.63" class="st8" width="7.64" height="7.64"/>
<rect x="77.99" y="36.99" class="st4" width="7.64" height="7.64"/>
<rect x="77.99" y="29.35" class="st4" width="7.64" height="7.64"/>
<rect x="70.35" y="197.39" class="st5" width="7.64" height="7.64"/>
<rect x="70.35" y="189.75" class="st5" width="7.64" height="7.64"/>
<rect x="70.35" y="182.11" class="st6" width="7.64" height="7.64"/>
<rect x="70.35" y="174.47" class="st6" width="7.64" height="7.64"/>
<rect x="70.35" y="166.84" class="st6" width="7.64" height="7.64"/>
<rect x="70.35" y="159.2" class="st4" width="7.64" height="7.64"/>
<rect x="70.35" y="151.56" class="st4" width="7.64" height="7.64"/>
<rect x="70.35" y="143.93" class="st4" width="7.64" height="7.64"/>
<rect x="70.35" y="136.29" class="st7" width="7.64" height="7.64"/>
<rect x="70.35" y="128.65" class="st7" width="7.64" height="7.64"/>
<rect x="70.35" y="121.01" class="st7" width="7.64" height="7.64"/>
<rect x="70.35" y="113.38" class="st7" width="7.64" height="7.64"/>
<rect x="70.35" y="98.09" class="st7" width="7.64" height="7.64"/>
<rect x="70.35" y="90.45" class="st8" width="7.64" height="7.64"/>
<rect x="70.35" y="82.81" class="st5" width="7.64" height="7.64"/>
<rect x="70.35" y="75.18" class="st5" width="7.64" height="7.64"/>
<rect x="70.35" y="67.54" class="st8" width="7.64" height="7.64"/>
<rect x="70.35" y="59.9" class="st8" width="7.64" height="7.64"/>
<rect x="70.35" y="52.26" class="st8" width="7.64" height="7.64"/>
<rect x="62.71" y="197.39" class="st5" width="7.64" height="7.64"/>
<rect x="62.71" y="189.75" class="st5" width="7.64" height="7.64"/>
<rect x="62.71" y="182.11" class="st6" width="7.64" height="7.64"/>
<rect x="62.71" y="174.47" class="st6" width="7.64" height="7.64"/>
<rect x="62.71" y="166.84" class="st6" width="7.64" height="7.64"/>
<rect x="62.71" y="159.2" class="st4" width="7.64" height="7.64"/>
<rect x="62.71" y="151.56" class="st4" width="7.64" height="7.64"/>
<rect x="62.71" y="143.93" class="st7" width="7.64" height="7.64"/>
<rect x="62.71" y="136.29" class="st7" width="7.64" height="7.64"/>
<rect x="62.71" y="128.65" class="st7" width="7.64" height="7.64"/>
<rect x="62.71" y="121.01" class="st7" width="7.64" height="7.64"/>
<rect x="62.71" y="98.09" class="st7" width="7.64" height="7.64"/>
<rect x="62.71" y="90.45" class="st8" width="7.64" height="7.64"/>
<rect x="62.71" y="82.81" class="st8" width="7.64" height="7.64"/>
<rect x="62.71" y="75.18" class="st8" width="7.64" height="7.64"/>
<rect x="62.71" y="67.54" class="st8" width="7.64" height="7.64"/>
<rect x="55.08" y="197.39" class="st5" width="7.64" height="7.64"/>
<rect x="55.08" y="189.75" class="st5" width="7.64" height="7.64"/>
<rect x="55.08" y="182.11" class="st6" width="7.64" height="7.64"/>
<rect x="55.08" y="174.47" class="st6" width="7.64" height="7.64"/>
<rect x="55.08" y="166.84" class="st4" width="7.64" height="7.64"/>
<rect x="55.08" y="159.2" class="st4" width="7.64" height="7.64"/>
<rect x="55.08" y="151.56" class="st7" width="7.64" height="7.64"/>
<rect x="55.08" y="143.93" class="st7" width="7.64" height="7.64"/>
<rect x="55.08" y="136.29" class="st7" width="7.64" height="7.64"/>
<rect x="55.08" y="128.65" class="st7" width="7.64" height="7.64"/>
<rect x="55.08" y="121.01" class="st7" width="7.64" height="7.64"/>
<rect x="55.08" y="113.38" class="st7" width="7.64" height="7.64"/>
<rect x="55.08" y="105.72" class="st7" width="7.64" height="7.65"/>
<rect x="55.08" y="98.09" class="st7" width="7.64" height="7.64"/>
<rect x="55.08" y="90.45" class="st8" width="7.64" height="7.64"/>
<rect x="55.08" y="82.81" class="st8" width="7.64" height="7.64"/>
</svg>
