<?xml version="1.0" encoding="utf-8"?>
<!-- Generator: Adobe Illustrator 30.0.0, SVG Export Plug-In . SVG Version: 9.03 Build 0)  -->
<svg version="1.1" id="Layer_1" xmlns="http://www.w3.org/2000/svg" xmlns:xlink="http://www.w3.org/1999/xlink" x="0px" y="0px"
	 viewBox="0 0 240 240" style="enable-background:new 0 0 240 240;" xml:space="preserve">
<style type="text/css">
	.st0{fill:#A0BEC2;}
	.st1{fill:#FFFFFF;}
	.st2{fill:#DCE4DD;}
	.st3{fill:#0E0202;}
	.st4{fill:#002229;}
	.st5{fill:#002D38;}
	.st6{fill:#004650;}
</style>
<g>
	<rect x="208.18" y="158.45" class="st0" width="5.66" height="5.67"/>
	<rect x="208.18" y="152.77" class="st0" width="5.66" height="5.67"/>
	<rect x="208.18" y="147.12" class="st0" width="5.66" height="5.66"/>
	<rect x="208.18" y="141.44" class="st0" width="5.66" height="5.67"/>
	<rect x="208.18" y="135.77" class="st0" width="5.66" height="5.67"/>
	<rect x="202.5" y="164.12" class="st0" width="5.67" height="5.67"/>
	<rect x="202.5" y="158.45" class="st1" width="5.67" height="5.67"/>
	<rect x="202.5" y="152.77" class="st1" width="5.67" height="5.67"/>
	<rect x="202.5" y="147.12" class="st1" width="5.67" height="5.66"/>
	<rect x="202.5" y="141.44" class="st1" width="5.67" height="5.67"/>
	<rect x="202.5" y="135.77" class="st1" width="5.67" height="5.67"/>
	<rect x="202.5" y="130.09" class="st0" width="5.67" height="5.67"/>
	<rect x="202.5" y="124.42" class="st0" width="5.67" height="5.67"/>
	<rect x="202.5" y="118.74" class="st0" width="5.67" height="5.67"/>
	<rect x="196.83" y="169.8" class="st0" width="5.67" height="5.67"/>
	<rect x="196.83" y="164.12" class="st1" width="5.67" height="5.67"/>
	<rect x="196.83" y="158.45" class="st1" width="5.67" height="5.67"/>
	<rect x="196.83" y="152.77" class="st1" width="5.67" height="5.67"/>
	<rect x="196.83" y="147.12" class="st1" width="5.67" height="5.66"/>
	<rect x="196.83" y="141.44" class="st1" width="5.67" height="5.67"/>
	<rect x="196.83" y="135.77" class="st1" width="5.67" height="5.67"/>
	<rect x="196.83" y="130.09" class="st1" width="5.67" height="5.67"/>
	<rect x="196.83" y="124.42" class="st1" width="5.67" height="5.67"/>
	<rect x="196.83" y="118.74" class="st1" width="5.67" height="5.67"/>
	<rect x="196.83" y="113.08" class="st0" width="5.67" height="5.66"/>
	<rect x="191.16" y="175.47" class="st0" width="5.67" height="5.67"/>
	<rect x="191.16" y="169.8" class="st1" width="5.67" height="5.67"/>
	<rect x="191.16" y="164.12" class="st1" width="5.67" height="5.67"/>
	<rect x="191.16" y="158.45" class="st1" width="5.67" height="5.67"/>
	<rect x="191.16" y="152.77" class="st1" width="5.67" height="5.67"/>
	<rect x="191.16" y="147.12" class="st1" width="5.67" height="5.66"/>
	<rect x="191.16" y="141.44" class="st1" width="5.67" height="5.67"/>
	<rect x="191.16" y="135.77" class="st1" width="5.67" height="5.67"/>
	<rect x="191.16" y="130.09" class="st1" width="5.67" height="5.67"/>
	<rect x="191.16" y="124.42" class="st1" width="5.67" height="5.67"/>
	<rect x="191.16" y="118.74" class="st1" width="5.67" height="5.67"/>
	<rect x="191.16" y="113.08" class="st1" width="5.67" height="5.66"/>
	<rect x="191.16" y="107.41" class="st0" width="5.67" height="5.67"/>
	<rect x="191.16" y="101.74" class="st0" width="5.67" height="5.67"/>
	<rect x="185.48" y="175.47" class="st0" width="5.67" height="5.67"/>
	<rect x="185.48" y="169.8" class="st1" width="5.67" height="5.67"/>
	<rect x="185.48" y="164.12" class="st2" width="5.67" height="5.67"/>
	<rect x="185.48" y="158.45" class="st2" width="5.67" height="5.67"/>
	<rect x="185.48" y="152.77" class="st2" width="5.67" height="5.67"/>
	<rect x="185.48" y="147.12" class="st1" width="5.67" height="5.66"/>
	<rect x="185.48" y="141.44" class="st1" width="5.67" height="5.67"/>
	<rect x="185.48" y="135.77" class="st2" width="5.67" height="5.67"/>
	<rect x="185.48" y="130.09" class="st1" width="5.67" height="5.67"/>
	<rect x="185.48" y="124.42" class="st1" width="5.67" height="5.67"/>
	<rect x="185.48" y="118.74" class="st1" width="5.67" height="5.67"/>
	<rect x="185.48" y="113.08" class="st1" width="5.67" height="5.66"/>
	<rect x="185.48" y="107.41" class="st1" width="5.67" height="5.67"/>
	<rect x="185.48" y="101.74" class="st1" width="5.67" height="5.67"/>
	<rect x="185.48" y="96.06" class="st0" width="5.67" height="5.67"/>
	<rect x="179.81" y="181.15" class="st0" width="5.67" height="5.66"/>
	<rect x="179.81" y="175.47" class="st1" width="5.67" height="5.67"/>
	<rect x="179.81" y="169.8" class="st1" width="5.67" height="5.67"/>
	<rect x="179.81" y="164.12" class="st2" width="5.67" height="5.67"/>
	<rect x="179.81" y="158.45" class="st1" width="5.67" height="5.67"/>
	<rect x="179.81" y="152.77" class="st2" width="5.67" height="5.67"/>
	<rect x="179.81" y="147.12" class="st1" width="5.67" height="5.66"/>
	<rect x="179.81" y="141.44" class="st2" width="5.67" height="5.67"/>
	<rect x="179.81" y="135.77" class="st2" width="5.67" height="5.67"/>
	<rect x="179.81" y="130.09" class="st1" width="5.67" height="5.67"/>
	<rect x="179.81" y="124.42" class="st1" width="5.67" height="5.67"/>
	<rect x="179.81" y="118.74" class="st1" width="5.67" height="5.67"/>
	<rect x="179.81" y="113.08" class="st1" width="5.67" height="5.66"/>
	<rect x="179.81" y="107.41" class="st1" width="5.67" height="5.67"/>
	<rect x="179.81" y="101.74" class="st1" width="5.67" height="5.67"/>
	<rect x="179.81" y="96.06" class="st1" width="5.67" height="5.67"/>
	<rect x="179.81" y="90.39" class="st0" width="5.67" height="5.67"/>
	<rect x="174.15" y="181.15" class="st0" width="5.66" height="5.66"/>
	<rect x="174.15" y="175.47" class="st2" width="5.66" height="5.67"/>
	<rect x="174.15" y="169.8" class="st1" width="5.66" height="5.67"/>
	<rect x="174.15" y="164.12" class="st1" width="5.66" height="5.67"/>
	<rect x="174.15" y="158.45" class="st1" width="5.66" height="5.67"/>
	<rect x="174.15" y="152.77" class="st2" width="5.66" height="5.67"/>
	<rect x="174.15" y="147.12" class="st1" width="5.66" height="5.66"/>
	<rect x="174.15" y="141.44" class="st1" width="5.66" height="5.67"/>
	<rect x="174.15" y="135.77" class="st1" width="5.66" height="5.67"/>
	<rect x="174.15" y="130.09" class="st1" width="5.66" height="5.67"/>
	<rect x="174.15" y="124.42" class="st1" width="5.66" height="5.67"/>
	<rect x="174.15" y="118.74" class="st2" width="5.66" height="5.67"/>
	<rect x="174.15" y="113.08" class="st2" width="5.66" height="5.66"/>
	<rect x="174.15" y="107.41" class="st1" width="5.66" height="5.67"/>
	<rect x="174.15" y="101.74" class="st1" width="5.66" height="5.67"/>
	<rect x="174.15" y="96.06" class="st1" width="5.66" height="5.67"/>
	<rect x="174.15" y="90.39" class="st1" width="5.66" height="5.67"/>
	<rect x="174.15" y="84.71" class="st0" width="5.66" height="5.67"/>
	<rect x="168.47" y="181.15" class="st0" width="5.67" height="5.66"/>
	<rect x="168.47" y="175.47" class="st2" width="5.67" height="5.67"/>
	<rect x="168.47" y="169.8" class="st2" width="5.67" height="5.67"/>
	<rect x="168.47" y="164.12" class="st1" width="5.67" height="5.67"/>
	<rect x="168.47" y="158.45" class="st1" width="5.67" height="5.67"/>
	<rect x="168.47" y="152.77" class="st1" width="5.67" height="5.67"/>
	<rect x="168.47" y="147.12" class="st1" width="5.67" height="5.66"/>
	<rect x="168.47" y="141.44" class="st1" width="5.67" height="5.67"/>
	<rect x="168.47" y="135.77" class="st1" width="5.67" height="5.67"/>
	<rect x="168.47" y="130.09" class="st1" width="5.67" height="5.67"/>
	<rect x="168.47" y="124.42" class="st1" width="5.67" height="5.67"/>
	<rect x="168.47" y="118.74" class="st1" width="5.67" height="5.67"/>
	<rect x="168.47" y="113.08" class="st1" width="5.67" height="5.66"/>
	<rect x="168.47" y="107.41" class="st2" width="5.67" height="5.67"/>
	<rect x="168.47" y="101.74" class="st1" width="5.67" height="5.67"/>
	<rect x="168.47" y="96.06" class="st2" width="5.67" height="5.67"/>
	<rect x="168.47" y="90.39" class="st1" width="5.67" height="5.67"/>
	<rect x="168.47" y="84.71" class="st1" width="5.67" height="5.67"/>
	<rect x="168.47" y="79.05" class="st0" width="5.67" height="5.66"/>
	<rect x="162.8" y="181.15" class="st0" width="5.67" height="5.66"/>
	<rect x="162.8" y="175.47" class="st1" width="5.67" height="5.67"/>
	<rect x="162.8" y="169.8" class="st1" width="5.67" height="5.67"/>
	<rect x="162.8" y="164.12" class="st1" width="5.67" height="5.67"/>
	<rect x="162.8" y="158.45" class="st1" width="5.67" height="5.67"/>
	<rect x="162.8" y="152.77" class="st1" width="5.67" height="5.67"/>
	<rect x="162.8" y="147.12" class="st1" width="5.67" height="5.66"/>
	<rect x="162.8" y="141.44" class="st1" width="5.67" height="5.67"/>
	<rect x="162.8" y="135.77" class="st1" width="5.67" height="5.67"/>
	<rect x="162.8" y="130.09" class="st1" width="5.67" height="5.67"/>
	<rect x="162.8" y="124.42" class="st1" width="5.67" height="5.67"/>
	<rect x="162.8" y="118.74" class="st1" width="5.67" height="5.67"/>
	<rect x="162.8" y="113.08" class="st2" width="5.67" height="5.66"/>
	<rect x="162.8" y="107.41" class="st2" width="5.67" height="5.67"/>
	<rect x="162.8" y="101.74" class="st1" width="5.67" height="5.67"/>
	<rect x="162.8" y="96.06" class="st2" width="5.67" height="5.67"/>
	<rect x="162.8" y="90.39" class="st1" width="5.67" height="5.67"/>
	<rect x="162.8" y="84.71" class="st2" width="5.67" height="5.67"/>
	<rect x="162.8" y="79.05" class="st1" width="5.67" height="5.66"/>
	<rect x="162.8" y="73.38" class="st0" width="5.67" height="5.67"/>
	<rect x="157.12" y="181.15" class="st0" width="5.67" height="5.66"/>
	<rect x="157.12" y="175.47" class="st3" width="5.67" height="5.67"/>
	<rect x="157.12" y="169.8" class="st3" width="5.67" height="5.67"/>
	<rect x="157.12" y="164.12" class="st3" width="5.67" height="5.67"/>
	<rect x="157.12" y="158.45" class="st3" width="5.67" height="5.67"/>
	<rect x="157.12" y="152.77" class="st3" width="5.67" height="5.67"/>
	<rect x="157.12" y="147.12" class="st3" width="5.67" height="5.66"/>
	<rect x="157.12" y="141.44" class="st3" width="5.67" height="5.67"/>
	<rect x="157.12" y="135.77" class="st3" width="5.67" height="5.67"/>
	<rect x="157.12" y="130.09" class="st3" width="5.67" height="5.67"/>
	<rect x="157.12" y="124.42" class="st1" width="5.67" height="5.67"/>
	<rect x="157.12" y="118.74" class="st1" width="5.67" height="5.67"/>
	<rect x="157.12" y="113.08" class="st2" width="5.67" height="5.66"/>
	<rect x="157.12" y="107.41" class="st1" width="5.67" height="5.67"/>
	<rect x="157.12" y="101.74" class="st1" width="5.67" height="5.67"/>
	<rect x="157.12" y="96.06" class="st1" width="5.67" height="5.67"/>
	<rect x="157.12" y="90.39" class="st1" width="5.67" height="5.67"/>
	<rect x="157.12" y="84.71" class="st1" width="5.67" height="5.67"/>
	<rect x="157.12" y="79.05" class="st2" width="5.67" height="5.66"/>
	<rect x="157.12" y="73.38" class="st1" width="5.67" height="5.67"/>
	<rect x="157.12" y="67.7" class="st0" width="5.67" height="5.67"/>
	<rect x="151.45" y="181.15" class="st3" width="5.67" height="5.66"/>
	<rect x="151.45" y="175.47" class="st4" width="5.67" height="5.67"/>
	<rect x="151.45" y="169.8" class="st4" width="5.67" height="5.67"/>
	<rect x="151.45" y="164.12" class="st4" width="5.67" height="5.67"/>
	<rect x="151.45" y="158.45" class="st5" width="5.67" height="5.67"/>
	<rect x="151.45" y="152.77" class="st5" width="5.67" height="5.67"/>
	<rect x="151.45" y="147.12" class="st5" width="5.67" height="5.66"/>
	<rect x="151.45" y="141.44" class="st6" width="5.67" height="5.67"/>
	<rect x="151.45" y="135.77" class="st6" width="5.67" height="5.67"/>
	<rect x="151.45" y="130.09" class="st6" width="5.67" height="5.67"/>
	<rect x="151.45" y="124.42" class="st3" width="5.67" height="5.67"/>
	<rect x="151.45" y="118.74" class="st1" width="5.67" height="5.67"/>
	<rect x="151.45" y="113.08" class="st2" width="5.67" height="5.66"/>
	<rect x="151.45" y="107.41" class="st1" width="5.67" height="5.67"/>
	<rect x="151.45" y="101.74" class="st2" width="5.67" height="5.67"/>
	<rect x="151.45" y="96.06" class="st2" width="5.67" height="5.67"/>
	<rect x="151.45" y="90.39" class="st1" width="5.67" height="5.67"/>
	<rect x="151.45" y="84.71" class="st1" width="5.67" height="5.67"/>
	<rect x="151.45" y="79.05" class="st1" width="5.67" height="5.66"/>
	<rect x="151.45" y="73.38" class="st1" width="5.67" height="5.67"/>
	<rect x="151.45" y="67.7" class="st1" width="5.67" height="5.67"/>
	<rect x="151.45" y="62.03" class="st0" width="5.67" height="5.67"/>
	<rect x="145.78" y="181.15" class="st3" width="5.67" height="5.66"/>
	<rect x="145.78" y="175.47" class="st4" width="5.67" height="5.67"/>
	<rect x="145.78" y="169.8" class="st4" width="5.67" height="5.67"/>
	<rect x="145.78" y="164.12" class="st5" width="5.67" height="5.67"/>
	<rect x="145.78" y="158.45" class="st5" width="5.67" height="5.67"/>
	<rect x="145.78" y="152.77" class="st5" width="5.67" height="5.67"/>
	<rect x="145.78" y="147.12" class="st5" width="5.67" height="5.66"/>
	<rect x="145.78" y="141.44" class="st5" width="5.67" height="5.67"/>
	<rect x="145.78" y="135.77" class="st6" width="5.67" height="5.67"/>
	<rect x="145.78" y="130.09" class="st6" width="5.67" height="5.67"/>
	<rect x="145.78" y="124.42" class="st3" width="5.67" height="5.67"/>
	<rect x="145.78" y="118.74" class="st1" width="5.67" height="5.67"/>
	<rect x="145.78" y="113.08" class="st1" width="5.67" height="5.66"/>
	<rect x="145.78" y="107.41" class="st2" width="5.67" height="5.67"/>
	<rect x="145.78" y="101.74" class="st1" width="5.67" height="5.67"/>
	<rect x="145.78" y="96.06" class="st1" width="5.67" height="5.67"/>
	<rect x="145.78" y="90.39" class="st1" width="5.67" height="5.67"/>
	<rect x="145.78" y="84.71" class="st1" width="5.67" height="5.67"/>
	<rect x="145.78" y="79.05" class="st1" width="5.67" height="5.66"/>
	<rect x="145.78" y="73.38" class="st1" width="5.67" height="5.67"/>
	<rect x="145.78" y="67.7" class="st1" width="5.67" height="5.67"/>
	<rect x="145.78" y="62.03" class="st1" width="5.67" height="5.67"/>
	<rect x="145.78" y="56.35" class="st0" width="5.67" height="5.67"/>
	<rect x="140.12" y="181.15" class="st3" width="5.66" height="5.66"/>
	<rect x="140.12" y="175.47" class="st4" width="5.66" height="5.67"/>
	<rect x="140.12" y="169.8" class="st4" width="5.66" height="5.67"/>
	<rect x="140.12" y="164.12" class="st5" width="5.66" height="5.67"/>
	<rect x="140.12" y="158.45" class="st5" width="5.66" height="5.67"/>
	<rect x="140.12" y="152.77" class="st5" width="5.66" height="5.67"/>
	<rect x="140.12" y="147.12" class="st5" width="5.66" height="5.66"/>
	<rect x="140.12" y="141.44" class="st5" width="5.66" height="5.67"/>
	<rect x="140.12" y="135.77" class="st6" width="5.66" height="5.67"/>
	<rect x="140.12" y="130.09" class="st6" width="5.66" height="5.67"/>
	<rect x="140.12" y="124.42" class="st3" width="5.66" height="5.67"/>
	<rect x="140.12" y="118.74" class="st1" width="5.66" height="5.67"/>
	<rect x="140.12" y="113.08" class="st1" width="5.66" height="5.66"/>
	<rect x="140.12" y="107.41" class="st2" width="5.66" height="5.67"/>
	<rect x="140.12" y="101.74" class="st2" width="5.66" height="5.67"/>
	<rect x="140.12" y="96.06" class="st1" width="5.66" height="5.67"/>
	<rect x="140.12" y="90.39" class="st1" width="5.66" height="5.67"/>
	<rect x="140.12" y="84.71" class="st1" width="5.66" height="5.67"/>
	<rect x="140.12" y="79.05" class="st1" width="5.66" height="5.66"/>
	<rect x="140.12" y="73.38" class="st1" width="5.66" height="5.67"/>
	<rect x="140.12" y="67.7" class="st1" width="5.66" height="5.67"/>
	<rect x="140.12" y="62.03" class="st1" width="5.66" height="5.67"/>
	<rect x="140.12" y="56.35" class="st0" width="5.66" height="5.67"/>
	<rect x="134.44" y="181.15" class="st3" width="5.67" height="5.66"/>
	<rect x="134.44" y="175.47" class="st4" width="5.67" height="5.67"/>
	<rect x="134.44" y="169.8" class="st4" width="5.67" height="5.67"/>
	<rect x="134.44" y="164.12" class="st5" width="5.67" height="5.67"/>
	<rect x="134.44" y="158.45" class="st5" width="5.67" height="5.67"/>
	<rect x="134.44" y="152.77" class="st5" width="5.67" height="5.67"/>
	<rect x="134.44" y="147.12" class="st5" width="5.67" height="5.66"/>
	<rect x="134.44" y="141.44" class="st5" width="5.67" height="5.67"/>
	<rect x="134.44" y="135.77" class="st6" width="5.67" height="5.67"/>
	<rect x="134.44" y="130.09" class="st6" width="5.67" height="5.67"/>
	<rect x="134.44" y="124.42" class="st3" width="5.67" height="5.67"/>
	<rect x="134.44" y="118.74" class="st1" width="5.67" height="5.67"/>
	<rect x="134.44" y="113.08" class="st1" width="5.67" height="5.66"/>
	<rect x="134.44" y="107.41" class="st1" width="5.67" height="5.67"/>
	<rect x="134.44" y="101.74" class="st2" width="5.67" height="5.67"/>
	<rect x="134.44" y="96.06" class="st1" width="5.67" height="5.67"/>
	<rect x="134.44" y="90.39" class="st1" width="5.67" height="5.67"/>
	<rect x="134.44" y="84.71" class="st1" width="5.67" height="5.67"/>
	<rect x="134.44" y="79.05" class="st1" width="5.67" height="5.66"/>
	<rect x="134.44" y="73.38" class="st1" width="5.67" height="5.67"/>
	<rect x="134.44" y="67.7" class="st1" width="5.67" height="5.67"/>
	<rect x="134.44" y="62.03" class="st1" width="5.67" height="5.67"/>
	<rect x="134.44" y="56.35" class="st1" width="5.67" height="5.67"/>
	<rect x="134.44" y="50.68" class="st0" width="5.67" height="5.67"/>
	<rect x="128.77" y="181.15" class="st3" width="5.67" height="5.66"/>
	<rect x="128.77" y="175.47" class="st4" width="5.67" height="5.67"/>
	<rect x="128.77" y="169.8" class="st4" width="5.67" height="5.67"/>
	<rect x="128.77" y="164.12" class="st5" width="5.67" height="5.67"/>
	<rect x="128.77" y="158.45" class="st5" width="5.67" height="5.67"/>
	<rect x="128.77" y="152.77" class="st5" width="5.67" height="5.67"/>
	<rect x="128.77" y="147.12" class="st5" width="5.67" height="5.66"/>
	<rect x="128.77" y="141.44" class="st5" width="5.67" height="5.67"/>
	<rect x="128.77" y="135.77" class="st6" width="5.67" height="5.67"/>
	<rect x="128.77" y="130.09" class="st6" width="5.67" height="5.67"/>
	<rect x="128.77" y="124.42" class="st3" width="5.67" height="5.67"/>
	<rect x="128.77" y="118.74" class="st1" width="5.67" height="5.67"/>
	<rect x="128.77" y="113.08" class="st1" width="5.67" height="5.66"/>
	<rect x="128.77" y="107.41" class="st1" width="5.67" height="5.67"/>
	<rect x="128.77" y="101.74" class="st2" width="5.67" height="5.67"/>
	<rect x="128.77" y="96.06" class="st1" width="5.67" height="5.67"/>
	<rect x="128.77" y="90.39" class="st1" width="5.67" height="5.67"/>
	<rect x="128.77" y="84.71" class="st1" width="5.67" height="5.67"/>
	<rect x="128.77" y="79.05" class="st1" width="5.67" height="5.66"/>
	<rect x="128.77" y="73.38" class="st2" width="5.67" height="5.67"/>
	<rect x="128.77" y="67.7" class="st1" width="5.67" height="5.67"/>
	<rect x="128.77" y="62.03" class="st1" width="5.67" height="5.67"/>
	<rect x="128.77" y="56.35" class="st1" width="5.67" height="5.67"/>
	<rect x="128.77" y="50.68" class="st0" width="5.67" height="5.67"/>
	<rect x="123.09" y="181.15" class="st3" width="5.67" height="5.66"/>
	<rect x="123.09" y="175.47" class="st4" width="5.67" height="5.67"/>
	<rect x="123.09" y="169.8" class="st4" width="5.67" height="5.67"/>
	<rect x="123.09" y="164.12" class="st5" width="5.67" height="5.67"/>
	<rect x="123.09" y="158.45" class="st5" width="5.67" height="5.67"/>
	<rect x="123.09" y="152.77" class="st5" width="5.67" height="5.67"/>
	<rect x="123.09" y="147.12" class="st5" width="5.67" height="5.66"/>
	<rect x="123.09" y="141.44" class="st5" width="5.67" height="5.67"/>
	<rect x="123.09" y="135.77" class="st6" width="5.67" height="5.67"/>
	<rect x="123.09" y="130.09" class="st6" width="5.67" height="5.67"/>
	<rect x="123.09" y="124.42" class="st3" width="5.67" height="5.67"/>
	<rect x="123.09" y="118.74" class="st1" width="5.67" height="5.67"/>
	<rect x="123.09" y="113.08" class="st1" width="5.67" height="5.66"/>
	<rect x="123.09" y="107.41" class="st1" width="5.67" height="5.67"/>
	<rect x="123.09" y="101.74" class="st1" width="5.67" height="5.67"/>
	<rect x="123.09" y="96.06" class="st1" width="5.67" height="5.67"/>
	<rect x="123.09" y="90.39" class="st1" width="5.67" height="5.67"/>
	<rect x="123.09" y="84.71" class="st1" width="5.67" height="5.67"/>
	<rect x="123.09" y="79.05" class="st1" width="5.67" height="5.66"/>
	<rect x="123.09" y="73.38" class="st2" width="5.67" height="5.67"/>
	<rect x="123.09" y="67.7" class="st2" width="5.67" height="5.67"/>
	<rect x="123.09" y="62.03" class="st1" width="5.67" height="5.67"/>
	<rect x="123.09" y="56.35" class="st1" width="5.67" height="5.67"/>
	<rect x="123.09" y="50.68" class="st0" width="5.67" height="5.67"/>
	<rect x="117.42" y="181.15" class="st3" width="5.67" height="5.66"/>
	<rect x="117.42" y="175.47" class="st4" width="5.67" height="5.67"/>
	<rect x="117.42" y="169.8" class="st4" width="5.67" height="5.67"/>
	<rect x="117.42" y="164.12" class="st5" width="5.67" height="5.67"/>
	<rect x="117.42" y="158.45" class="st5" width="5.67" height="5.67"/>
	<rect x="117.42" y="152.77" class="st5" width="5.67" height="5.67"/>
	<rect x="117.42" y="147.12" class="st5" width="5.67" height="5.66"/>
	<rect x="117.42" y="141.44" class="st5" width="5.67" height="5.67"/>
	<rect x="117.42" y="135.77" class="st6" width="5.67" height="5.67"/>
	<rect x="117.42" y="130.09" class="st6" width="5.67" height="5.67"/>
	<rect x="117.42" y="124.42" class="st3" width="5.67" height="5.67"/>
	<rect x="117.42" y="118.74" class="st1" width="5.67" height="5.67"/>
	<rect x="117.42" y="113.08" class="st1" width="5.67" height="5.66"/>
	<rect x="117.42" y="107.41" class="st1" width="5.67" height="5.67"/>
	<rect x="117.42" y="101.74" class="st1" width="5.67" height="5.67"/>
	<rect x="117.42" y="96.06" class="st1" width="5.67" height="5.67"/>
	<rect x="117.42" y="90.39" class="st1" width="5.67" height="5.67"/>
	<rect x="117.42" y="84.71" class="st1" width="5.67" height="5.67"/>
	<rect x="117.42" y="79.05" class="st1" width="5.67" height="5.66"/>
	<rect x="117.42" y="73.38" class="st1" width="5.67" height="5.67"/>
	<rect x="117.42" y="67.7" class="st1" width="5.67" height="5.67"/>
	<rect x="117.42" y="62.03" class="st2" width="5.67" height="5.67"/>
	<rect x="117.42" y="56.35" class="st1" width="5.67" height="5.67"/>
	<rect x="117.42" y="50.68" class="st0" width="5.67" height="5.67"/>
	<rect x="111.74" y="181.15" class="st3" width="5.67" height="5.66"/>
	<rect x="111.74" y="175.47" class="st4" width="5.67" height="5.67"/>
	<rect x="111.74" y="169.8" class="st4" width="5.67" height="5.67"/>
	<rect x="111.74" y="164.12" class="st5" width="5.67" height="5.67"/>
	<rect x="111.74" y="158.45" class="st5" width="5.67" height="5.67"/>
	<rect x="111.74" y="152.77" class="st5" width="5.67" height="5.67"/>
	<rect x="111.74" y="147.12" class="st5" width="5.67" height="5.66"/>
	<rect x="111.74" y="141.44" class="st5" width="5.67" height="5.67"/>
	<rect x="111.74" y="135.77" class="st6" width="5.67" height="5.67"/>
	<rect x="111.74" y="130.09" class="st6" width="5.67" height="5.67"/>
	<rect x="111.74" y="124.42" class="st3" width="5.67" height="5.67"/>
	<rect x="111.74" y="118.74" class="st1" width="5.67" height="5.67"/>
	<rect x="111.74" y="113.08" class="st2" width="5.67" height="5.66"/>
	<rect x="111.74" y="107.41" class="st1" width="5.67" height="5.67"/>
	<rect x="111.74" y="101.74" class="st1" width="5.67" height="5.67"/>
	<rect x="111.74" y="96.06" class="st1" width="5.67" height="5.67"/>
	<rect x="111.74" y="90.39" class="st2" width="5.67" height="5.67"/>
	<rect x="111.74" y="84.71" class="st2" width="5.67" height="5.67"/>
	<rect x="111.74" y="79.05" class="st1" width="5.67" height="5.66"/>
	<rect x="111.74" y="73.38" class="st1" width="5.67" height="5.67"/>
	<rect x="111.74" y="67.7" class="st1" width="5.67" height="5.67"/>
	<rect x="111.74" y="62.03" class="st1" width="5.67" height="5.67"/>
	<rect x="111.74" y="56.35" class="st1" width="5.67" height="5.67"/>
	<rect x="111.74" y="50.68" class="st0" width="5.67" height="5.67"/>
	<rect x="106.09" y="181.15" class="st3" width="5.66" height="5.66"/>
	<rect x="106.09" y="175.47" class="st4" width="5.66" height="5.67"/>
	<rect x="106.09" y="169.8" class="st4" width="5.66" height="5.67"/>
	<rect x="106.09" y="164.12" class="st5" width="5.66" height="5.67"/>
	<rect x="106.09" y="158.45" class="st5" width="5.66" height="5.67"/>
	<rect x="106.09" y="152.77" class="st5" width="5.66" height="5.67"/>
	<rect x="106.09" y="147.12" class="st5" width="5.66" height="5.66"/>
	<rect x="106.09" y="141.44" class="st5" width="5.66" height="5.67"/>
	<rect x="106.09" y="135.77" class="st6" width="5.66" height="5.67"/>
	<rect x="106.09" y="130.09" class="st6" width="5.66" height="5.67"/>
	<rect x="106.09" y="124.42" class="st3" width="5.66" height="5.67"/>
	<rect x="106.09" y="118.74" class="st1" width="5.66" height="5.67"/>
	<rect x="106.09" y="113.08" class="st2" width="5.66" height="5.66"/>
	<rect x="106.09" y="107.41" class="st1" width="5.66" height="5.67"/>
	<rect x="106.09" y="101.74" class="st1" width="5.66" height="5.67"/>
	<rect x="106.09" y="96.06" class="st1" width="5.66" height="5.67"/>
	<rect x="106.09" y="90.39" class="st1" width="5.66" height="5.67"/>
	<rect x="106.09" y="84.71" class="st1" width="5.66" height="5.67"/>
	<rect x="106.09" y="79.05" class="st2" width="5.66" height="5.66"/>
	<rect x="106.09" y="73.38" class="st2" width="5.66" height="5.67"/>
	<rect x="106.09" y="67.7" class="st1" width="5.66" height="5.67"/>
	<rect x="106.09" y="62.03" class="st1" width="5.66" height="5.67"/>
	<rect x="106.09" y="56.35" class="st1" width="5.66" height="5.67"/>
	<rect x="106.09" y="50.68" class="st0" width="5.66" height="5.67"/>
	<rect x="100.41" y="181.15" class="st3" width="5.67" height="5.66"/>
	<rect x="100.41" y="175.47" class="st4" width="5.67" height="5.67"/>
	<rect x="100.41" y="169.8" class="st4" width="5.67" height="5.67"/>
	<rect x="100.41" y="164.12" class="st5" width="5.67" height="5.67"/>
	<rect x="100.41" y="158.45" class="st5" width="5.67" height="5.67"/>
	<rect x="100.41" y="152.77" class="st5" width="5.67" height="5.67"/>
	<rect x="100.41" y="147.12" class="st5" width="5.67" height="5.66"/>
	<rect x="100.41" y="141.44" class="st5" width="5.67" height="5.67"/>
	<rect x="100.41" y="135.77" class="st6" width="5.67" height="5.67"/>
	<rect x="100.41" y="130.09" class="st6" width="5.67" height="5.67"/>
	<rect x="100.41" y="124.42" class="st3" width="5.67" height="5.67"/>
	<rect x="100.41" y="118.74" class="st1" width="5.67" height="5.67"/>
	<rect x="100.41" y="113.08" class="st1" width="5.67" height="5.66"/>
	<rect x="100.41" y="107.41" class="st2" width="5.67" height="5.67"/>
	<rect x="100.41" y="101.74" class="st1" width="5.67" height="5.67"/>
	<rect x="100.41" y="96.06" class="st1" width="5.67" height="5.67"/>
	<rect x="100.41" y="90.39" class="st2" width="5.67" height="5.67"/>
	<rect x="100.41" y="84.71" class="st2" width="5.67" height="5.67"/>
	<rect x="100.41" y="79.05" class="st2" width="5.67" height="5.66"/>
	<rect x="100.41" y="73.38" class="st1" width="5.67" height="5.67"/>
	<rect x="100.41" y="67.7" class="st1" width="5.67" height="5.67"/>
	<rect x="100.41" y="62.03" class="st1" width="5.67" height="5.67"/>
	<rect x="100.41" y="56.35" class="st0" width="5.67" height="5.67"/>
	<rect x="94.74" y="181.15" class="st3" width="5.67" height="5.66"/>
	<rect x="94.74" y="175.47" class="st4" width="5.67" height="5.67"/>
	<rect x="94.74" y="169.8" class="st4" width="5.67" height="5.67"/>
	<rect x="94.74" y="164.12" class="st5" width="5.67" height="5.67"/>
	<rect x="94.74" y="158.45" class="st5" width="5.67" height="5.67"/>
	<rect x="94.74" y="152.77" class="st5" width="5.67" height="5.67"/>
	<rect x="94.74" y="147.12" class="st5" width="5.67" height="5.66"/>
	<rect x="94.74" y="141.44" class="st5" width="5.67" height="5.67"/>
	<rect x="94.74" y="135.77" class="st6" width="5.67" height="5.67"/>
	<rect x="94.74" y="130.09" class="st6" width="5.67" height="5.67"/>
	<rect x="94.74" y="124.42" class="st3" width="5.67" height="5.67"/>
	<rect x="94.74" y="118.74" class="st1" width="5.67" height="5.67"/>
	<rect x="94.74" y="113.08" class="st1" width="5.67" height="5.66"/>
	<rect x="94.74" y="107.41" class="st2" width="5.67" height="5.67"/>
	<rect x="94.74" y="101.74" class="st1" width="5.67" height="5.67"/>
	<rect x="94.74" y="96.06" class="st2" width="5.67" height="5.67"/>
	<rect x="94.74" y="90.39" class="st1" width="5.67" height="5.67"/>
	<rect x="94.74" y="84.71" class="st1" width="5.67" height="5.67"/>
	<rect x="94.74" y="79.05" class="st1" width="5.67" height="5.66"/>
	<rect x="94.74" y="73.38" class="st1" width="5.67" height="5.67"/>
	<rect x="94.74" y="67.7" class="st1" width="5.67" height="5.67"/>
	<rect x="94.74" y="62.03" class="st0" width="5.67" height="5.67"/>
	<rect x="89.06" y="181.15" class="st3" width="5.67" height="5.66"/>
	<rect x="89.06" y="175.47" class="st4" width="5.67" height="5.67"/>
	<rect x="89.06" y="169.8" class="st4" width="5.67" height="5.67"/>
	<rect x="89.06" y="164.12" class="st5" width="5.67" height="5.67"/>
	<rect x="89.06" y="158.45" class="st5" width="5.67" height="5.67"/>
	<rect x="89.06" y="152.77" class="st5" width="5.67" height="5.67"/>
	<rect x="89.06" y="147.12" class="st5" width="5.67" height="5.66"/>
	<rect x="89.06" y="141.44" class="st5" width="5.67" height="5.67"/>
	<rect x="89.06" y="135.77" class="st6" width="5.67" height="5.67"/>
	<rect x="89.06" y="130.09" class="st6" width="5.67" height="5.67"/>
	<rect x="89.06" y="124.42" class="st3" width="5.67" height="5.67"/>
	<rect x="89.06" y="118.74" class="st1" width="5.67" height="5.67"/>
	<rect x="89.06" y="113.08" class="st1" width="5.67" height="5.66"/>
	<rect x="89.06" y="107.41" class="st1" width="5.67" height="5.67"/>
	<rect x="89.06" y="101.74" class="st1" width="5.67" height="5.67"/>
	<rect x="89.06" y="96.06" class="st1" width="5.67" height="5.67"/>
	<rect x="89.06" y="90.39" class="st1" width="5.67" height="5.67"/>
	<rect x="89.06" y="84.71" class="st1" width="5.67" height="5.67"/>
	<rect x="89.06" y="79.05" class="st1" width="5.67" height="5.66"/>
	<rect x="89.06" y="73.38" class="st1" width="5.67" height="5.67"/>
	<rect x="89.06" y="67.7" class="st1" width="5.67" height="5.67"/>
	<rect x="89.06" y="62.03" class="st0" width="5.67" height="5.67"/>
	<rect x="83.39" y="181.15" class="st3" width="5.67" height="5.66"/>
	<rect x="83.39" y="175.47" class="st4" width="5.67" height="5.67"/>
	<rect x="83.39" y="169.8" class="st4" width="5.67" height="5.67"/>
	<rect x="83.39" y="164.12" class="st4" width="5.67" height="5.67"/>
	<rect x="83.39" y="158.45" class="st5" width="5.67" height="5.67"/>
	<rect x="83.39" y="152.77" class="st5" width="5.67" height="5.67"/>
	<rect x="83.39" y="147.12" class="st5" width="5.67" height="5.66"/>
	<rect x="83.39" y="141.44" class="st6" width="5.67" height="5.67"/>
	<rect x="83.39" y="135.77" class="st6" width="5.67" height="5.67"/>
	<rect x="83.39" y="130.09" class="st6" width="5.67" height="5.67"/>
	<rect x="83.39" y="124.42" class="st3" width="5.67" height="5.67"/>
	<rect x="83.39" y="118.74" class="st1" width="5.67" height="5.67"/>
	<rect x="83.39" y="113.08" class="st1" width="5.67" height="5.66"/>
	<rect x="83.39" y="107.41" class="st1" width="5.67" height="5.67"/>
	<rect x="83.39" y="101.74" class="st1" width="5.67" height="5.67"/>
	<rect x="83.39" y="96.06" class="st1" width="5.67" height="5.67"/>
	<rect x="83.39" y="90.39" class="st1" width="5.67" height="5.67"/>
	<rect x="83.39" y="84.71" class="st1" width="5.67" height="5.67"/>
	<rect x="83.39" y="79.05" class="st1" width="5.67" height="5.66"/>
	<rect x="83.39" y="73.38" class="st1" width="5.67" height="5.67"/>
	<rect x="83.39" y="67.7" class="st0" width="5.67" height="5.67"/>
	<rect x="77.71" y="181.15" class="st0" width="5.67" height="5.66"/>
	<rect x="77.71" y="175.47" class="st3" width="5.67" height="5.67"/>
	<rect x="77.71" y="169.8" class="st3" width="5.67" height="5.67"/>
	<rect x="77.71" y="164.12" class="st3" width="5.67" height="5.67"/>
	<rect x="77.71" y="158.45" class="st3" width="5.67" height="5.67"/>
	<rect x="77.71" y="152.77" class="st3" width="5.67" height="5.67"/>
	<rect x="77.71" y="147.12" class="st3" width="5.67" height="5.66"/>
	<rect x="77.71" y="141.44" class="st3" width="5.67" height="5.67"/>
	<rect x="77.71" y="135.77" class="st3" width="5.67" height="5.67"/>
	<rect x="77.71" y="130.09" class="st3" width="5.67" height="5.67"/>
	<rect x="77.71" y="124.42" class="st1" width="5.67" height="5.67"/>
	<rect x="77.71" y="118.74" class="st1" width="5.67" height="5.67"/>
	<rect x="77.71" y="113.08" class="st1" width="5.67" height="5.66"/>
	<rect x="77.71" y="107.41" class="st1" width="5.67" height="5.67"/>
	<rect x="77.71" y="101.74" class="st1" width="5.67" height="5.67"/>
	<rect x="77.71" y="96.06" class="st1" width="5.67" height="5.67"/>
	<rect x="77.71" y="90.39" class="st1" width="5.67" height="5.67"/>
	<rect x="77.71" y="84.71" class="st1" width="5.67" height="5.67"/>
	<rect x="77.71" y="79.05" class="st0" width="5.67" height="5.66"/>
	<rect x="77.71" y="73.38" class="st0" width="5.67" height="5.67"/>
	<rect x="72.06" y="181.15" class="st0" width="5.66" height="5.66"/>
	<rect x="72.06" y="175.47" class="st1" width="5.66" height="5.67"/>
	<rect x="72.06" y="169.8" class="st1" width="5.66" height="5.67"/>
	<rect x="72.06" y="164.12" class="st1" width="5.66" height="5.67"/>
	<rect x="72.06" y="158.45" class="st1" width="5.66" height="5.67"/>
	<rect x="72.06" y="152.77" class="st1" width="5.66" height="5.67"/>
	<rect x="72.06" y="147.12" class="st1" width="5.66" height="5.66"/>
	<rect x="72.06" y="141.44" class="st1" width="5.66" height="5.67"/>
	<rect x="72.06" y="135.77" class="st1" width="5.66" height="5.67"/>
	<rect x="72.06" y="130.09" class="st1" width="5.66" height="5.67"/>
	<rect x="72.06" y="124.42" class="st1" width="5.66" height="5.67"/>
	<rect x="72.06" y="118.74" class="st1" width="5.66" height="5.67"/>
	<rect x="72.06" y="113.08" class="st1" width="5.66" height="5.66"/>
	<rect x="72.06" y="107.41" class="st1" width="5.66" height="5.67"/>
	<rect x="72.06" y="101.74" class="st1" width="5.66" height="5.67"/>
	<rect x="72.06" y="96.06" class="st1" width="5.66" height="5.67"/>
	<rect x="72.06" y="90.39" class="st1" width="5.66" height="5.67"/>
	<rect x="72.06" y="84.71" class="st1" width="5.66" height="5.67"/>
	<rect x="72.06" y="79.05" class="st0" width="5.66" height="5.66"/>
	<rect x="66.38" y="181.15" class="st0" width="5.67" height="5.66"/>
	<rect x="66.38" y="175.47" class="st1" width="5.67" height="5.67"/>
	<rect x="66.38" y="169.8" class="st1" width="5.67" height="5.67"/>
	<rect x="66.38" y="164.12" class="st1" width="5.67" height="5.67"/>
	<rect x="66.38" y="158.45" class="st1" width="5.67" height="5.67"/>
	<rect x="66.38" y="152.77" class="st1" width="5.67" height="5.67"/>
	<rect x="66.38" y="147.12" class="st1" width="5.67" height="5.66"/>
	<rect x="66.38" y="141.44" class="st1" width="5.67" height="5.67"/>
	<rect x="66.38" y="135.77" class="st1" width="5.67" height="5.67"/>
	<rect x="66.38" y="130.09" class="st1" width="5.67" height="5.67"/>
	<rect x="66.38" y="124.42" class="st1" width="5.67" height="5.67"/>
	<rect x="66.38" y="118.74" class="st1" width="5.67" height="5.67"/>
	<rect x="66.38" y="113.08" class="st1" width="5.67" height="5.66"/>
	<rect x="66.38" y="107.41" class="st1" width="5.67" height="5.67"/>
	<rect x="66.38" y="101.74" class="st1" width="5.67" height="5.67"/>
	<rect x="66.38" y="96.06" class="st1" width="5.67" height="5.67"/>
	<rect x="66.38" y="90.39" class="st0" width="5.67" height="5.67"/>
	<rect x="66.38" y="84.71" class="st0" width="5.67" height="5.67"/>
	<rect x="60.71" y="181.15" class="st0" width="5.67" height="5.66"/>
	<rect x="60.71" y="175.47" class="st1" width="5.67" height="5.67"/>
	<rect x="60.71" y="169.8" class="st1" width="5.67" height="5.67"/>
	<rect x="60.71" y="164.12" class="st1" width="5.67" height="5.67"/>
	<rect x="60.71" y="158.45" class="st1" width="5.67" height="5.67"/>
	<rect x="60.71" y="152.77" class="st1" width="5.67" height="5.67"/>
	<rect x="60.71" y="147.12" class="st1" width="5.67" height="5.66"/>
	<rect x="60.71" y="141.44" class="st1" width="5.67" height="5.67"/>
	<rect x="60.71" y="135.77" class="st1" width="5.67" height="5.67"/>
	<rect x="60.71" y="130.09" class="st1" width="5.67" height="5.67"/>
	<rect x="60.71" y="124.42" class="st1" width="5.67" height="5.67"/>
	<rect x="60.71" y="118.74" class="st1" width="5.67" height="5.67"/>
	<rect x="60.71" y="113.08" class="st2" width="5.67" height="5.66"/>
	<rect x="60.71" y="107.41" class="st1" width="5.67" height="5.67"/>
	<rect x="60.71" y="101.74" class="st1" width="5.67" height="5.67"/>
	<rect x="60.71" y="96.06" class="st1" width="5.67" height="5.67"/>
	<rect x="60.71" y="90.39" class="st0" width="5.67" height="5.67"/>
	<rect x="55.03" y="181.15" class="st0" width="5.67" height="5.66"/>
	<rect x="55.03" y="175.47" class="st1" width="5.67" height="5.67"/>
	<rect x="55.03" y="169.8" class="st2" width="5.67" height="5.67"/>
	<rect x="55.03" y="164.12" class="st2" width="5.67" height="5.67"/>
	<rect x="55.03" y="158.45" class="st1" width="5.67" height="5.67"/>
	<rect x="55.03" y="152.77" class="st1" width="5.67" height="5.67"/>
	<rect x="55.03" y="147.12" class="st1" width="5.67" height="5.66"/>
	<rect x="55.03" y="141.44" class="st2" width="5.67" height="5.67"/>
	<rect x="55.03" y="135.77" class="st1" width="5.67" height="5.67"/>
	<rect x="55.03" y="130.09" class="st1" width="5.67" height="5.67"/>
	<rect x="55.03" y="124.42" class="st2" width="5.67" height="5.67"/>
	<rect x="55.03" y="118.74" class="st2" width="5.67" height="5.67"/>
	<rect x="55.03" y="113.08" class="st2" width="5.67" height="5.66"/>
	<rect x="55.03" y="107.41" class="st1" width="5.67" height="5.67"/>
	<rect x="55.03" y="101.74" class="st0" width="5.67" height="5.67"/>
	<rect x="55.03" y="96.06" class="st0" width="5.67" height="5.67"/>
	<rect x="49.36" y="181.15" class="st0" width="5.67" height="5.66"/>
	<rect x="49.36" y="175.47" class="st1" width="5.67" height="5.67"/>
	<rect x="49.36" y="169.8" class="st2" width="5.67" height="5.67"/>
	<rect x="49.36" y="164.12" class="st2" width="5.67" height="5.67"/>
	<rect x="49.36" y="158.45" class="st1" width="5.67" height="5.67"/>
	<rect x="49.36" y="152.77" class="st1" width="5.67" height="5.67"/>
	<rect x="49.36" y="147.12" class="st1" width="5.67" height="5.66"/>
	<rect x="49.36" y="141.44" class="st1" width="5.67" height="5.67"/>
	<rect x="49.36" y="135.77" class="st1" width="5.67" height="5.67"/>
	<rect x="49.36" y="130.09" class="st2" width="5.67" height="5.67"/>
	<rect x="49.36" y="124.42" class="st2" width="5.67" height="5.67"/>
	<rect x="49.36" y="118.74" class="st1" width="5.67" height="5.67"/>
	<rect x="49.36" y="113.08" class="st1" width="5.67" height="5.66"/>
	<rect x="49.36" y="107.41" class="st0" width="5.67" height="5.67"/>
	<rect x="43.68" y="181.15" class="st0" width="5.67" height="5.66"/>
	<rect x="43.68" y="175.47" class="st1" width="5.67" height="5.67"/>
	<rect x="43.68" y="169.8" class="st1" width="5.67" height="5.67"/>
	<rect x="43.68" y="164.12" class="st2" width="5.67" height="5.67"/>
	<rect x="43.68" y="158.45" class="st1" width="5.67" height="5.67"/>
	<rect x="43.68" y="152.77" class="st1" width="5.67" height="5.67"/>
	<rect x="43.68" y="147.12" class="st1" width="5.67" height="5.66"/>
	<rect x="43.68" y="141.44" class="st1" width="5.67" height="5.67"/>
	<rect x="43.68" y="135.77" class="st1" width="5.67" height="5.67"/>
	<rect x="43.68" y="130.09" class="st1" width="5.67" height="5.67"/>
	<rect x="43.68" y="124.42" class="st1" width="5.67" height="5.67"/>
	<rect x="43.68" y="118.74" class="st1" width="5.67" height="5.67"/>
	<rect x="43.68" y="113.08" class="st0" width="5.67" height="5.66"/>
	<rect x="38.03" y="175.47" class="st0" width="5.66" height="5.67"/>
	<rect x="38.03" y="169.8" class="st0" width="5.66" height="5.67"/>
	<rect x="38.03" y="164.12" class="st1" width="5.66" height="5.67"/>
	<rect x="38.03" y="158.45" class="st1" width="5.66" height="5.67"/>
	<rect x="38.03" y="152.77" class="st1" width="5.66" height="5.67"/>
	<rect x="38.03" y="147.12" class="st1" width="5.66" height="5.66"/>
	<rect x="38.03" y="141.44" class="st1" width="5.66" height="5.67"/>
	<rect x="38.03" y="135.77" class="st1" width="5.66" height="5.67"/>
	<rect x="38.03" y="130.09" class="st1" width="5.66" height="5.67"/>
	<rect x="38.03" y="124.42" class="st0" width="5.66" height="5.67"/>
	<rect x="38.03" y="118.74" class="st0" width="5.66" height="5.67"/>
	<rect x="32.35" y="164.12" class="st0" width="5.67" height="5.67"/>
	<rect x="32.35" y="158.45" class="st1" width="5.67" height="5.67"/>
	<rect x="32.35" y="152.77" class="st1" width="5.67" height="5.67"/>
	<rect x="32.35" y="147.12" class="st1" width="5.67" height="5.66"/>
	<rect x="32.35" y="141.44" class="st1" width="5.67" height="5.67"/>
	<rect x="32.35" y="135.77" class="st0" width="5.67" height="5.67"/>
	<rect x="32.35" y="130.09" class="st0" width="5.67" height="5.67"/>
	<rect x="26.68" y="158.45" class="st0" width="5.67" height="5.67"/>
	<rect x="26.68" y="152.77" class="st0" width="5.67" height="5.67"/>
	<rect x="26.68" y="147.12" class="st0" width="5.67" height="5.66"/>
	<rect x="26.68" y="141.44" class="st0" width="5.67" height="5.67"/>
</g>
</svg>
