<?xml version="1.0" encoding="utf-8"?>
<!-- Generator: Adobe Illustrator 30.0.0, SVG Export Plug-In . SVG Version: 9.03 Build 0)  -->
<svg version="1.1" id="Layer_1" xmlns="http://www.w3.org/2000/svg" xmlns:xlink="http://www.w3.org/1999/xlink" x="0px" y="0px"
	 viewBox="0 0 240 240" style="enable-background:new 0 0 240 240;" xml:space="preserve">
<style type="text/css">
	.st0{fill:#9C0001;}
	.st1{fill:#76211A;}
	.st2{fill:#C30001;}
	.st3{fill:#F52727;}
	.st4{fill:#E60201;}
	.st5{fill:#8C0A05;}
	.st6{fill:#FF6764;}
	.st7{fill:#DE0000;}
	.st8{fill:#FD6560;}
	.st9{fill:#9A0002;}
	.st10{fill:#C40002;}
	.st11{fill:#780202;}
	.st12{fill:#FE4F4A;}
</style>
<g>
	<rect x="135.76" y="212.13" class="st0" width="7.35" height="7.33"/>
	<rect x="128.42" y="212.13" class="st0" width="7.35" height="7.33"/>
	<rect x="106.37" y="212.13" class="st1" width="7.35" height="7.33"/>
	<rect x="157.81" y="204.8" class="st2" width="7.35" height="7.33"/>
	<rect x="113.72" y="204.8" class="st3" width="7.35" height="7.33"/>
	<rect x="113.72" y="197.48" class="st3" width="7.35" height="7.33"/>
	<rect x="99.02" y="197.48" class="st2" width="7.35" height="7.33"/>
	<rect x="121.07" y="190.15" class="st3" width="7.35" height="7.33"/>
	<rect x="172.5" y="182.83" class="st0" width="7.35" height="7.33"/>
	<g>
		<rect x="150.46" y="204.8" class="st4" width="7.35" height="7.33"/>
		<rect x="143.11" y="204.8" class="st4" width="7.35" height="7.33"/>
		<rect x="135.76" y="204.8" class="st4" width="7.35" height="7.33"/>
		<rect x="128.42" y="204.8" class="st4" width="7.35" height="7.33"/>
		<rect x="121.07" y="204.8" class="st4" width="7.35" height="7.33"/>
		<rect x="157.81" y="197.48" class="st4" width="7.35" height="7.33"/>
		<rect x="150.46" y="197.48" class="st4" width="7.35" height="7.33"/>
		<rect x="143.11" y="197.48" class="st4" width="7.35" height="7.33"/>
		<rect x="135.76" y="197.48" class="st4" width="7.35" height="7.33"/>
		<rect x="128.42" y="197.48" class="st4" width="7.35" height="7.33"/>
		<rect x="121.07" y="197.48" class="st4" width="7.35" height="7.33"/>
		<rect x="157.81" y="190.15" class="st4" width="7.35" height="7.33"/>
		<rect x="150.46" y="190.15" class="st4" width="7.35" height="7.33"/>
		<rect x="143.11" y="190.15" class="st4" width="7.35" height="7.33"/>
		<rect x="135.76" y="190.15" class="st4" width="7.35" height="7.33"/>
		<rect x="128.42" y="190.15" class="st4" width="7.35" height="7.33"/>
		<rect x="157.81" y="182.83" class="st4" width="7.35" height="7.33"/>
		<rect x="150.46" y="182.83" class="st4" width="7.35" height="7.33"/>
		<rect x="143.11" y="182.83" class="st4" width="7.35" height="7.33"/>
	</g>
	<rect x="135.76" y="182.83" class="st3" width="7.35" height="7.33"/>
	<rect x="128.42" y="182.83" class="st3" width="7.35" height="7.33"/>
	<rect x="121.07" y="182.83" class="st3" width="7.35" height="7.33"/>
	<rect x="165.16" y="175.5" class="st5" width="7.35" height="7.33"/>
	<rect x="157.81" y="175.5" class="st3" width="7.35" height="7.33"/>
	<rect x="150.46" y="175.5" class="st3" width="7.35" height="7.33"/>
	<rect x="143.11" y="175.5" class="st3" width="7.35" height="7.33"/>
	<g>
		<rect x="113.72" y="190.15" class="st6" width="7.35" height="7.33"/>
		<rect x="113.72" y="182.83" class="st6" width="7.35" height="7.33"/>
		<rect x="135.76" y="175.5" class="st3" width="7.35" height="7.33"/>
		<rect x="128.42" y="175.5" class="st3" width="7.35" height="7.33"/>
		<rect x="121.07" y="175.5" class="st6" width="7.35" height="7.33"/>
		<rect x="113.72" y="175.5" class="st6" width="7.35" height="7.33"/>
	</g>
	<g>
		<g>
			<g>
				<rect x="91.68" y="197.48" class="st7" width="7.35" height="7.33"/>
			</g>
			<g>
				<rect x="84.33" y="197.48" class="st7" width="7.35" height="7.33"/>
			</g>
			<g>
				<rect x="76.98" y="197.48" class="st7" width="7.35" height="7.33"/>
			</g>
			<g>
				<rect x="99.02" y="190.15" class="st7" width="7.35" height="7.33"/>
			</g>
			<rect x="91.68" y="190.15" class="st4" width="7.35" height="7.33"/>
			<rect x="84.33" y="190.15" class="st4" width="7.35" height="7.33"/>
			<rect x="76.98" y="190.15" class="st4" width="7.35" height="7.33"/>
			<rect x="91.68" y="182.83" class="st4" width="7.35" height="7.33"/>
			<rect x="84.33" y="182.83" class="st4" width="7.35" height="7.33"/>
			<rect x="76.98" y="182.83" class="st4" width="7.35" height="7.33"/>
			<rect x="91.68" y="175.5" class="st4" width="7.35" height="7.33"/>
			<rect x="84.33" y="175.5" class="st4" width="7.35" height="7.33"/>
		</g>
	</g>
	<rect x="165.16" y="168.18" class="st2" width="7.35" height="7.33"/>
	<rect x="157.81" y="168.18" class="st2" width="7.35" height="7.33"/>
	<rect x="150.46" y="168.18" class="st3" width="7.35" height="7.33"/>
	<rect x="143.11" y="168.18" class="st6" width="7.35" height="7.33"/>
	<rect x="135.76" y="168.18" class="st8" width="7.35" height="7.33"/>
	<rect x="128.42" y="168.18" class="st6" width="7.35" height="7.33"/>
	<rect x="121.07" y="168.18" class="st6" width="7.35" height="7.33"/>
	<rect x="113.72" y="168.18" class="st2" width="7.35" height="7.33"/>
	<rect x="99.02" y="168.18" class="st3" width="7.35" height="7.33"/>
	<g>
		<g>
			<g>
				<rect x="69.63" y="197.48" class="st7" width="7.35" height="7.33"/>
			</g>
			<g>
				<rect x="62.28" y="197.48" class="st7" width="7.35" height="7.33"/>
			</g>
			<rect x="69.63" y="190.15" class="st4" width="7.35" height="7.33"/>
			<rect x="62.28" y="190.15" class="st3" width="7.35" height="7.33"/>
			<rect x="54.94" y="190.15" class="st3" width="7.35" height="7.33"/>
			<g>
				<rect x="99.02" y="182.83" class="st7" width="7.35" height="7.33"/>
			</g>
			<rect x="69.63" y="182.83" class="st4" width="7.35" height="7.33"/>
			<rect x="62.28" y="182.83" class="st3" width="7.35" height="7.33"/>
			<rect x="54.94" y="182.83" class="st3" width="7.35" height="7.33"/>
			<g>
				<rect x="99.02" y="175.5" class="st7" width="7.35" height="7.33"/>
			</g>
			<rect x="76.98" y="175.5" class="st4" width="7.35" height="7.33"/>
			<rect x="69.63" y="175.5" class="st3" width="7.35" height="7.33"/>
			<rect x="62.28" y="175.5" class="st3" width="7.35" height="7.33"/>
			<rect x="91.68" y="168.18" class="st3" width="7.35" height="7.33"/>
			<rect x="84.33" y="168.18" class="st3" width="7.35" height="7.33"/>
			<rect x="76.98" y="168.18" class="st3" width="7.35" height="7.33"/>
			<rect x="69.63" y="168.18" class="st3" width="7.35" height="7.33"/>
		</g>
	</g>
	<rect x="54.94" y="168.18" class="st6" width="7.35" height="7.33"/>
	<rect x="165.16" y="160.85" class="st2" width="7.35" height="7.33"/>
	<rect x="157.81" y="160.85" class="st7" width="7.35" height="7.33"/>
	<rect x="150.46" y="160.85" class="st7" width="7.35" height="7.33"/>
	<rect x="143.11" y="160.85" class="st7" width="7.35" height="7.33"/>
	<rect x="135.76" y="160.85" class="st7" width="7.35" height="7.33"/>
	<rect x="128.42" y="160.85" class="st7" width="7.35" height="7.33"/>
	<g>
		<rect x="121.07" y="212.13" class="st0" width="7.35" height="7.33"/>
		<rect x="113.72" y="212.13" class="st0" width="7.35" height="7.33"/>
		<rect x="106.37" y="204.8" class="st0" width="7.35" height="7.33"/>
		<rect x="106.37" y="197.48" class="st0" width="7.35" height="7.33"/>
		<rect x="106.37" y="190.15" class="st0" width="7.35" height="7.33"/>
		<rect x="106.37" y="182.83" class="st0" width="7.35" height="7.33"/>
		<rect x="106.37" y="175.5" class="st0" width="7.35" height="7.33"/>
		<rect x="106.37" y="168.18" class="st0" width="7.35" height="7.33"/>
		<rect x="121.07" y="160.85" class="st7" width="7.35" height="7.33"/>
		<rect x="113.72" y="160.85" class="st7" width="7.35" height="7.33"/>
	</g>
	<rect x="106.37" y="160.85" class="st7" width="7.35" height="7.33"/>
	<rect x="91.68" y="160.85" class="st3" width="7.35" height="7.33"/>
	<g>
		<rect x="54.94" y="175.5" class="st6" width="7.35" height="7.33"/>
		<rect x="62.28" y="168.18" class="st6" width="7.35" height="7.33"/>
		<rect x="84.33" y="160.85" class="st6" width="7.35" height="7.33"/>
		<rect x="76.98" y="160.85" class="st6" width="7.35" height="7.33"/>
		<rect x="69.63" y="160.85" class="st6" width="7.35" height="7.33"/>
	</g>
	<rect x="62.28" y="160.85" class="st6" width="7.35" height="7.33"/>
	<rect x="179.85" y="153.53" class="st9" width="7.35" height="7.33"/>
	<rect x="128.42" y="153.53" class="st7" width="7.35" height="7.33"/>
	<rect x="121.07" y="153.53" class="st7" width="7.35" height="7.33"/>
	<rect x="113.72" y="153.53" class="st7" width="7.35" height="7.33"/>
	<rect x="106.37" y="153.53" class="st7" width="7.35" height="7.33"/>
	<rect x="99.02" y="153.53" class="st7" width="7.35" height="7.33"/>
	<g>
		<rect x="99.02" y="160.85" class="st10" width="7.35" height="7.33"/>
		<rect x="91.68" y="153.53" class="st10" width="7.35" height="7.33"/>
		<rect x="84.33" y="153.53" class="st10" width="7.35" height="7.33"/>
		<rect x="76.98" y="153.53" class="st10" width="7.35" height="7.33"/>
		<rect x="69.63" y="153.53" class="st10" width="7.35" height="7.33"/>
	</g>
	<g>
		<rect x="99.02" y="204.8" class="st0" width="7.35" height="7.33"/>
		<rect x="91.68" y="204.8" class="st0" width="7.35" height="7.33"/>
		<rect x="84.33" y="204.8" class="st0" width="7.35" height="7.33"/>
		<rect x="76.98" y="204.8" class="st0" width="7.35" height="7.33"/>
		<rect x="69.63" y="204.8" class="st0" width="7.35" height="7.33"/>
		<rect x="62.28" y="204.8" class="st0" width="7.35" height="7.33"/>
		<rect x="54.94" y="197.48" class="st0" width="7.35" height="7.33"/>
		<rect x="47.59" y="190.15" class="st0" width="7.35" height="7.33"/>
		<rect x="47.59" y="182.83" class="st0" width="7.35" height="7.33"/>
		<rect x="47.59" y="175.5" class="st0" width="7.35" height="7.33"/>
		<rect x="47.59" y="168.18" class="st0" width="7.35" height="7.33"/>
		<rect x="54.94" y="160.85" class="st0" width="7.35" height="7.33"/>
		<rect x="62.28" y="153.53" class="st0" width="7.35" height="7.33"/>
	</g>
	<g>
		<rect x="165.16" y="153.53" class="st9" width="7.35" height="7.33"/>
		<rect x="157.81" y="153.53" class="st7" width="7.35" height="7.33"/>
		<rect x="150.46" y="153.53" class="st7" width="7.35" height="7.33"/>
		<rect x="143.11" y="153.53" class="st10" width="7.35" height="7.33"/>
		<rect x="135.76" y="153.53" class="st10" width="7.35" height="7.33"/>
		<rect x="172.5" y="146.2" class="st7" width="7.35" height="7.33"/>
	</g>
	<rect x="135.76" y="146.2" class="st4" width="7.35" height="7.33"/>
	<rect x="128.42" y="146.2" class="st10" width="7.35" height="7.33"/>
	<rect x="121.07" y="146.2" class="st10" width="7.35" height="7.33"/>
	<rect x="113.72" y="146.2" class="st7" width="7.35" height="7.33"/>
	<rect x="106.37" y="146.2" class="st7" width="7.35" height="7.33"/>
	<rect x="99.02" y="146.2" class="st7" width="7.35" height="7.33"/>
	<rect x="91.68" y="146.2" class="st7" width="7.35" height="7.33"/>
	<rect x="84.33" y="146.2" class="st7" width="7.35" height="7.33"/>
	<rect x="76.98" y="146.2" class="st7" width="7.35" height="7.33"/>
	<rect x="69.63" y="146.2" class="st7" width="7.35" height="7.33"/>
	<rect x="62.28" y="146.2" class="st0" width="7.35" height="7.33"/>
	<rect x="91.68" y="138.88" class="st7" width="7.35" height="7.33"/>
	<rect x="84.33" y="138.88" class="st4" width="7.35" height="7.33"/>
	<rect x="76.98" y="138.88" class="st4" width="7.35" height="7.33"/>
	<rect x="99.02" y="131.55" class="st4" width="7.35" height="7.33"/>
	<rect x="91.68" y="131.55" class="st4" width="7.35" height="7.33"/>
	<rect x="84.33" y="131.55" class="st4" width="7.35" height="7.33"/>
	<rect x="76.98" y="131.55" class="st4" width="7.35" height="7.33"/>
	<g>
		<g>
			<g>
				<rect x="165.16" y="146.2" class="st7" width="7.35" height="7.33"/>
			</g>
			<rect x="157.81" y="146.2" class="st4" width="7.35" height="7.33"/>
			<rect x="150.46" y="146.2" class="st4" width="7.35" height="7.33"/>
			<rect x="143.11" y="146.2" class="st4" width="7.35" height="7.33"/>
			<g>
				<rect x="172.5" y="138.88" class="st7" width="7.35" height="7.33"/>
			</g>
			<rect x="165.16" y="138.88" class="st4" width="7.35" height="7.33"/>
			<rect x="157.81" y="138.88" class="st4" width="7.35" height="7.33"/>
			<rect x="150.46" y="138.88" class="st4" width="7.35" height="7.33"/>
			<rect x="143.11" y="138.88" class="st4" width="7.35" height="7.33"/>
			<rect x="135.76" y="138.88" class="st4" width="7.35" height="7.33"/>
			<rect x="172.5" y="131.55" class="st4" width="7.35" height="7.33"/>
			<rect x="165.16" y="131.55" class="st4" width="7.35" height="7.33"/>
			<rect x="157.81" y="131.55" class="st4" width="7.35" height="7.33"/>
			<rect x="150.46" y="131.55" class="st4" width="7.35" height="7.33"/>
			<rect x="143.11" y="131.55" class="st4" width="7.35" height="7.33"/>
			<rect x="135.76" y="131.55" class="st4" width="7.35" height="7.33"/>
			<rect x="172.5" y="124.23" class="st4" width="7.35" height="7.33"/>
			<rect x="165.16" y="124.23" class="st4" width="7.35" height="7.33"/>
			<rect x="157.81" y="124.23" class="st4" width="7.35" height="7.33"/>
			<rect x="150.46" y="124.23" class="st4" width="7.35" height="7.33"/>
			<rect x="143.11" y="124.23" class="st4" width="7.35" height="7.33"/>
		</g>
	</g>
	<rect x="99.02" y="124.23" class="st4" width="7.35" height="7.33"/>
	<rect x="91.68" y="124.23" class="st4" width="7.35" height="7.33"/>
	<rect x="84.33" y="124.23" class="st4" width="7.35" height="7.33"/>
	<rect x="76.98" y="124.23" class="st4" width="7.35" height="7.33"/>
	<rect x="172.5" y="116.9" class="st7" width="7.35" height="7.33"/>
	<g>
		<g>
			<rect x="128.42" y="138.88" class="st3" width="7.35" height="7.33"/>
			<rect x="128.42" y="131.55" class="st3" width="7.35" height="7.33"/>
			<rect x="135.76" y="124.23" class="st3" width="7.35" height="7.33"/>
			<rect x="128.42" y="124.23" class="st3" width="7.35" height="7.33"/>
			<rect x="165.16" y="116.9" class="st3" width="7.35" height="7.33"/>
			<rect x="157.81" y="116.9" class="st3" width="7.35" height="7.33"/>
			<rect x="150.46" y="116.9" class="st3" width="7.35" height="7.33"/>
			<rect x="143.11" y="116.9" class="st3" width="7.35" height="7.33"/>
			<rect x="135.76" y="116.9" class="st3" width="7.35" height="7.33"/>
		</g>
	</g>
	<rect x="91.68" y="116.9" class="st4" width="7.35" height="7.33"/>
	<rect x="84.33" y="116.9" class="st4" width="7.35" height="7.33"/>
	<g>
		<rect x="157.81" y="212.13" class="st0" width="7.35" height="7.33"/>
		<rect x="150.46" y="212.13" class="st0" width="7.35" height="7.33"/>
		<rect x="143.11" y="212.13" class="st0" width="7.35" height="7.33"/>
		<rect x="165.16" y="204.8" class="st0" width="7.35" height="7.33"/>
		<rect x="165.16" y="197.48" class="st0" width="7.35" height="7.33"/>
		<rect x="165.16" y="190.15" class="st0" width="7.35" height="7.33"/>
		<rect x="165.16" y="182.83" class="st0" width="7.35" height="7.33"/>
		<rect x="172.5" y="175.5" class="st0" width="7.35" height="7.33"/>
		<rect x="172.5" y="168.18" class="st0" width="7.35" height="7.33"/>
		<rect x="172.5" y="160.85" class="st0" width="7.35" height="7.33"/>
		<rect x="172.5" y="153.53" class="st11" width="7.35" height="7.33"/>
		<rect x="179.85" y="146.2" class="st0" width="7.35" height="7.33"/>
		<rect x="179.85" y="138.88" class="st0" width="7.35" height="7.33"/>
		<rect x="179.85" y="131.55" class="st0" width="7.35" height="7.33"/>
		<rect x="179.85" y="124.23" class="st0" width="7.35" height="7.33"/>
		<rect x="179.85" y="116.9" class="st0" width="7.35" height="7.33"/>
		<rect x="179.85" y="109.58" class="st0" width="7.35" height="7.33"/>
	</g>
	<g>
		<rect x="128.42" y="116.9" class="st6" width="7.35" height="7.33"/>
		<rect x="165.16" y="109.58" class="st6" width="7.35" height="7.33"/>
		<rect x="157.81" y="109.58" class="st6" width="7.35" height="7.33"/>
		<rect x="150.46" y="109.58" class="st6" width="7.35" height="7.33"/>
		<rect x="143.11" y="109.58" class="st6" width="7.35" height="7.33"/>
		<rect x="135.76" y="109.58" class="st6" width="7.35" height="7.33"/>
	</g>
	<rect x="187.2" y="102.25" class="st0" width="7.35" height="7.33"/>
	<rect x="179.85" y="102.25" class="st11" width="7.35" height="7.33"/>
	<rect x="172.5" y="102.25" class="st9" width="7.35" height="7.33"/>
	<g>
		<rect x="121.07" y="138.88" class="st10" width="7.35" height="7.33"/>
		<rect x="121.07" y="131.55" class="st10" width="7.35" height="7.33"/>
		<rect x="121.07" y="124.23" class="st10" width="7.35" height="7.33"/>
		<rect x="121.07" y="116.9" class="st10" width="7.35" height="7.33"/>
		<rect x="172.5" y="109.58" class="st12" width="7.35" height="7.33"/>
		<rect x="128.42" y="109.58" class="st10" width="7.35" height="7.33"/>
		<rect x="165.16" y="102.25" class="st10" width="7.35" height="7.33"/>
		<rect x="157.81" y="102.25" class="st10" width="7.35" height="7.33"/>
		<rect x="150.46" y="102.25" class="st10" width="7.35" height="7.33"/>
		<rect x="143.11" y="102.25" class="st10" width="7.35" height="7.33"/>
		<rect x="135.76" y="102.25" class="st10" width="7.35" height="7.33"/>
	</g>
	<g>
		<g>
			<rect x="99.02" y="138.88" class="st2" width="7.35" height="7.33"/>
			<rect x="106.37" y="131.55" class="st2" width="7.35" height="7.33"/>
			<rect x="106.37" y="124.23" class="st2" width="7.35" height="7.33"/>
			<rect x="106.37" y="116.9" class="st2" width="7.35" height="7.33"/>
			<rect x="106.37" y="109.58" class="st2" width="7.35" height="7.33"/>
			<rect x="106.37" y="102.25" class="st2" width="7.35" height="7.33"/>
		</g>
	</g>
	<g>
		<rect x="69.63" y="131.55" class="st3" width="7.35" height="7.33"/>
		<rect x="62.28" y="131.55" class="st3" width="7.35" height="7.33"/>
		<rect x="69.63" y="124.23" class="st3" width="7.35" height="7.33"/>
		<rect x="62.28" y="124.23" class="st3" width="7.35" height="7.33"/>
		<rect x="99.02" y="116.9" class="st3" width="7.35" height="7.33"/>
		<rect x="76.98" y="116.9" class="st3" width="7.35" height="7.33"/>
		<rect x="69.63" y="116.9" class="st3" width="7.35" height="7.33"/>
		<rect x="62.28" y="116.9" class="st3" width="7.35" height="7.33"/>
		<rect x="99.02" y="109.58" class="st3" width="7.35" height="7.33"/>
		<rect x="91.68" y="109.58" class="st3" width="7.35" height="7.33"/>
		<rect x="84.33" y="109.58" class="st3" width="7.35" height="7.33"/>
		<rect x="76.98" y="109.58" class="st3" width="7.35" height="7.33"/>
		<rect x="69.63" y="109.58" class="st3" width="7.35" height="7.33"/>
		<rect x="99.02" y="102.25" class="st12" width="7.35" height="7.33"/>
		<rect x="91.68" y="102.25" class="st12" width="7.35" height="7.33"/>
	</g>
	<g>
		<g>
			<rect x="62.28" y="109.58" class="st6" width="7.35" height="7.33"/>
			<rect x="84.33" y="102.25" class="st6" width="7.35" height="7.33"/>
			<rect x="76.98" y="102.25" class="st6" width="7.35" height="7.33"/>
			<rect x="69.63" y="102.25" class="st6" width="7.35" height="7.33"/>
		</g>
	</g>
	<rect x="187.2" y="94.92" class="st0" width="7.35" height="7.33"/>
	<rect x="179.85" y="94.92" class="st7" width="7.35" height="7.33"/>
	<rect x="99.02" y="94.92" class="st7" width="7.35" height="7.33"/>
	<rect x="91.68" y="94.92" class="st7" width="7.35" height="7.33"/>
	<rect x="187.2" y="87.6" class="st0" width="7.35" height="7.33"/>
	<rect x="179.85" y="87.6" class="st7" width="7.35" height="7.33"/>
	<rect x="91.68" y="87.6" class="st3" width="7.35" height="7.33"/>
	<rect x="84.33" y="87.6" class="st3" width="7.35" height="7.33"/>
	<rect x="187.2" y="80.27" class="st0" width="7.35" height="7.33"/>
	<rect x="179.85" y="80.27" class="st3" width="7.35" height="7.33"/>
	<rect x="172.5" y="80.27" class="st3" width="7.35" height="7.33"/>
	<rect x="84.33" y="80.27" class="st3" width="7.35" height="7.33"/>
	<rect x="187.2" y="72.95" class="st0" width="7.35" height="7.33"/>
	<rect x="179.85" y="72.95" class="st3" width="7.35" height="7.33"/>
	<rect x="172.5" y="72.95" class="st3" width="7.35" height="7.33"/>
	<rect x="165.16" y="72.95" class="st3" width="7.35" height="7.33"/>
	<g>
		<g>
			<rect x="150.46" y="72.95" class="st2" width="7.35" height="7.33"/>
			<rect x="113.72" y="72.95" class="st2" width="7.35" height="7.33"/>
		</g>
	</g>
	<rect x="91.68" y="72.95" class="st3" width="7.35" height="7.33"/>
	<rect x="84.33" y="72.95" class="st3" width="7.35" height="7.33"/>
	<rect x="187.2" y="65.62" class="st11" width="7.35" height="7.33"/>
	<rect x="179.85" y="65.62" class="st0" width="7.35" height="7.33"/>
	<rect x="172.5" y="65.62" class="st3" width="7.35" height="7.33"/>
	<rect x="165.16" y="65.62" class="st3" width="7.35" height="7.33"/>
	<rect x="157.81" y="65.62" class="st3" width="7.35" height="7.33"/>
	<g>
		<g>
			<rect x="113.72" y="138.88" class="st4" width="7.35" height="7.33"/>
			<g>
				<rect x="106.37" y="138.88" class="st7" width="7.35" height="7.33"/>
			</g>
			<rect x="113.72" y="131.55" class="st4" width="7.35" height="7.33"/>
			<rect x="113.72" y="124.23" class="st4" width="7.35" height="7.33"/>
			<rect x="113.72" y="116.9" class="st4" width="7.35" height="7.33"/>
			<rect x="121.07" y="109.58" class="st4" width="7.35" height="7.33"/>
			<rect x="113.72" y="109.58" class="st4" width="7.35" height="7.33"/>
			<rect x="128.42" y="102.25" class="st4" width="7.35" height="7.33"/>
			<rect x="121.07" y="102.25" class="st4" width="7.35" height="7.33"/>
			<rect x="113.72" y="102.25" class="st4" width="7.35" height="7.33"/>
			<g>
				<rect x="172.5" y="94.92" class="st7" width="7.35" height="7.33"/>
			</g>
			<g>
				<rect x="165.16" y="94.92" class="st7" width="7.35" height="7.33"/>
			</g>
			<g>
				<rect x="157.81" y="94.92" class="st7" width="7.35" height="7.33"/>
			</g>
			<g>
				<rect x="150.46" y="94.92" class="st7" width="7.35" height="7.33"/>
			</g>
			<g>
				<rect x="143.11" y="94.92" class="st7" width="7.35" height="7.33"/>
			</g>
			<g>
				<rect x="135.76" y="94.92" class="st7" width="7.35" height="7.33"/>
			</g>
			<rect x="128.42" y="94.92" class="st4" width="7.35" height="7.33"/>
			<rect x="121.07" y="94.92" class="st4" width="7.35" height="7.33"/>
			<rect x="113.72" y="94.92" class="st4" width="7.35" height="7.33"/>
			<rect x="106.37" y="94.92" class="st4" width="7.35" height="7.33"/>
			<g>
				<rect x="172.5" y="87.6" class="st7" width="7.35" height="7.33"/>
			</g>
			<g>
				<rect x="165.16" y="87.6" class="st7" width="7.35" height="7.33"/>
			</g>
			<rect x="157.81" y="87.6" class="st4" width="7.35" height="7.33"/>
			<rect x="150.46" y="87.6" class="st4" width="7.35" height="7.33"/>
			<rect x="143.11" y="87.6" class="st4" width="7.35" height="7.33"/>
			<rect x="135.76" y="87.6" class="st4" width="7.35" height="7.33"/>
			<rect x="128.42" y="87.6" class="st4" width="7.35" height="7.33"/>
			<rect x="121.07" y="87.6" class="st4" width="7.35" height="7.33"/>
			<rect x="113.72" y="87.6" class="st4" width="7.35" height="7.33"/>
			<rect x="106.37" y="87.6" class="st4" width="7.35" height="7.33"/>
			<rect x="99.02" y="87.6" class="st4" width="7.35" height="7.33"/>
			<rect x="165.16" y="80.27" class="st4" width="7.35" height="7.33"/>
			<rect x="157.81" y="80.27" class="st4" width="7.35" height="7.33"/>
			<rect x="150.46" y="80.27" class="st4" width="7.35" height="7.33"/>
			<rect x="143.11" y="80.27" class="st4" width="7.35" height="7.33"/>
			<rect x="135.76" y="80.27" class="st4" width="7.35" height="7.33"/>
			<rect x="113.72" y="80.27" class="st4" width="7.35" height="7.33"/>
			<rect x="106.37" y="80.27" class="st4" width="7.35" height="7.33"/>
			<rect x="99.02" y="80.27" class="st4" width="7.35" height="7.33"/>
			<rect x="91.68" y="80.27" class="st4" width="7.35" height="7.33"/>
			<rect x="157.81" y="72.95" class="st4" width="7.35" height="7.33"/>
			<rect x="135.76" y="72.95" class="st4" width="7.35" height="7.33"/>
			<rect x="128.42" y="72.95" class="st4" width="7.35" height="7.33"/>
			<rect x="121.07" y="72.95" class="st4" width="7.35" height="7.33"/>
			<rect x="99.02" y="72.95" class="st4" width="7.35" height="7.33"/>
			<rect x="135.76" y="65.62" class="st4" width="7.35" height="7.33"/>
			<rect x="128.42" y="65.62" class="st4" width="7.35" height="7.33"/>
			<rect x="121.07" y="65.62" class="st4" width="7.35" height="7.33"/>
		</g>
	</g>
	<g>
		<g>
			<rect x="128.42" y="80.27" class="st0" width="7.35" height="7.33"/>
			<rect x="121.07" y="80.27" class="st0" width="7.35" height="7.33"/>
			<rect x="143.11" y="72.95" class="st0" width="7.35" height="7.33"/>
			<rect x="106.37" y="72.95" class="st0" width="7.35" height="7.33"/>
			<rect x="150.46" y="65.62" class="st0" width="7.35" height="7.33"/>
			<rect x="143.11" y="65.62" class="st0" width="7.35" height="7.33"/>
			<rect x="113.72" y="65.62" class="st0" width="7.35" height="7.33"/>
			<rect x="106.37" y="65.62" class="st0" width="7.35" height="7.33"/>
		</g>
	</g>
	<rect x="99.02" y="65.62" class="st3" width="7.35" height="7.33"/>
	<rect x="91.68" y="65.62" class="st3" width="7.35" height="7.33"/>
	<rect x="187.2" y="58.3" class="st0" width="7.35" height="7.33"/>
	<rect x="179.85" y="58.3" class="st2" width="7.35" height="7.33"/>
	<rect x="172.5" y="58.3" class="st2" width="7.35" height="7.33"/>
	<rect x="165.16" y="58.3" class="st3" width="7.35" height="7.33"/>
	<rect x="157.81" y="58.3" class="st3" width="7.35" height="7.33"/>
	<rect x="150.46" y="58.3" class="st3" width="7.35" height="7.33"/>
	<rect x="143.11" y="58.3" class="st3" width="7.35" height="7.33"/>
	<rect x="135.76" y="58.3" class="st3" width="7.35" height="7.33"/>
	<rect x="128.42" y="58.3" class="st3" width="7.35" height="7.33"/>
	<rect x="121.07" y="58.3" class="st3" width="7.35" height="7.33"/>
	<rect x="113.72" y="58.3" class="st3" width="7.35" height="7.33"/>
	<rect x="106.37" y="58.3" class="st3" width="7.35" height="7.33"/>
	<rect x="187.2" y="50.97" class="st0" width="7.35" height="7.33"/>
	<rect x="179.85" y="50.97" class="st2" width="7.35" height="7.33"/>
	<rect x="172.5" y="50.97" class="st4" width="7.35" height="7.33"/>
	<rect x="165.16" y="50.97" class="st4" width="7.35" height="7.33"/>
	<rect x="157.81" y="50.97" class="st12" width="7.35" height="7.33"/>
	<g>
		<rect x="84.33" y="65.62" class="st6" width="7.35" height="7.33"/>
		<rect x="99.02" y="58.3" class="st12" width="7.35" height="7.33"/>
		<rect x="91.68" y="58.3" class="st6" width="7.35" height="7.33"/>
		<rect x="143.11" y="50.97" class="st6" width="7.35" height="7.33"/>
		<rect x="135.76" y="50.97" class="st6" width="7.35" height="7.33"/>
		<rect x="128.42" y="50.97" class="st6" width="7.35" height="7.33"/>
		<rect x="121.07" y="50.97" class="st6" width="7.35" height="7.33"/>
		<rect x="113.72" y="50.97" class="st6" width="7.35" height="7.33"/>
		<rect x="106.37" y="50.97" class="st6" width="7.35" height="7.33"/>
		<rect x="99.02" y="50.97" class="st6" width="7.35" height="7.33"/>
	</g>
	<rect x="187.2" y="43.65" class="st0" width="7.35" height="7.33"/>
	<rect x="179.85" y="43.65" class="st2" width="7.35" height="7.33"/>
	<rect x="172.5" y="43.65" class="st4" width="7.35" height="7.33"/>
	<g>
		<g>
			<rect x="69.63" y="138.88" class="st10" width="7.35" height="7.33"/>
			<rect x="62.28" y="138.88" class="st10" width="7.35" height="7.33"/>
			<rect x="54.94" y="131.55" class="st10" width="7.35" height="7.33"/>
			<rect x="54.94" y="124.23" class="st10" width="7.35" height="7.33"/>
			<rect x="54.94" y="116.9" class="st10" width="7.35" height="7.33"/>
			<rect x="54.94" y="109.58" class="st10" width="7.35" height="7.33"/>
			<rect x="62.28" y="102.25" class="st10" width="7.35" height="7.33"/>
			<rect x="84.33" y="94.92" class="st10" width="7.35" height="7.33"/>
			<rect x="76.98" y="94.92" class="st10" width="7.35" height="7.33"/>
			<rect x="69.63" y="94.92" class="st10" width="7.35" height="7.33"/>
			<rect x="76.98" y="87.6" class="st10" width="7.35" height="7.33"/>
			<rect x="76.98" y="80.27" class="st10" width="7.35" height="7.33"/>
			<rect x="76.98" y="72.95" class="st10" width="7.35" height="7.33"/>
			<rect x="76.98" y="65.62" class="st10" width="7.35" height="7.33"/>
			<rect x="84.33" y="58.3" class="st10" width="7.35" height="7.33"/>
			<rect x="91.68" y="50.97" class="st10" width="7.35" height="7.33"/>
			<rect x="106.37" y="43.65" class="st10" width="7.35" height="7.33"/>
			<rect x="99.02" y="43.65" class="st10" width="7.35" height="7.33"/>
		</g>
	</g>
	<rect x="187.2" y="36.32" class="st0" width="7.35" height="7.33"/>
	<rect x="179.85" y="36.32" class="st0" width="7.35" height="7.33"/>
	<rect x="172.5" y="36.32" class="st3" width="7.35" height="7.33"/>
	<g>
		<rect x="165.16" y="43.65" class="st6" width="7.35" height="7.33"/>
		<rect x="157.81" y="43.65" class="st6" width="7.35" height="7.33"/>
		<rect x="165.16" y="36.32" class="st6" width="7.35" height="7.33"/>
	</g>
	<rect x="113.72" y="36.32" class="st2" width="7.35" height="7.33"/>
	<rect x="106.37" y="36.32" class="st3" width="7.35" height="7.33"/>
	<rect x="179.85" y="29" class="st0" width="7.35" height="7.33"/>
	<g>
		<rect x="150.46" y="50.97" class="st10" width="7.35" height="7.33"/>
		<rect x="150.46" y="43.65" class="st10" width="7.35" height="7.33"/>
		<rect x="157.81" y="36.32" class="st10" width="7.35" height="7.33"/>
		<rect x="150.46" y="36.32" class="st10" width="7.35" height="7.33"/>
		<rect x="172.5" y="29" class="st10" width="7.35" height="7.33"/>
		<rect x="165.16" y="29" class="st10" width="7.35" height="7.33"/>
		<rect x="157.81" y="29" class="st10" width="7.35" height="7.33"/>
	</g>
	<rect x="106.37" y="29" class="st3" width="7.35" height="7.33"/>
	<g>
		<rect x="91.68" y="43.65" class="st12" width="7.35" height="7.33"/>
		<rect x="99.02" y="36.32" class="st6" width="7.35" height="7.33"/>
		<rect x="91.68" y="36.32" class="st6" width="7.35" height="7.33"/>
		<rect x="99.02" y="29" class="st6" width="7.35" height="7.33"/>
	</g>
	<g>
		<g>
			<rect x="143.11" y="43.65" class="st11" width="7.35" height="7.33"/>
			<rect x="135.76" y="43.65" class="st0" width="7.35" height="7.33"/>
			<rect x="128.42" y="43.65" class="st0" width="7.35" height="7.33"/>
			<rect x="121.07" y="43.65" class="st0" width="7.35" height="7.33"/>
			<rect x="113.72" y="43.65" class="st0" width="7.35" height="7.33"/>
			<rect x="121.07" y="36.32" class="st11" width="7.35" height="7.33"/>
			<rect x="121.07" y="29" class="st0" width="7.35" height="7.33"/>
			<rect x="113.72" y="29" class="st0" width="7.35" height="7.33"/>
			<rect x="113.72" y="21.67" class="st0" width="7.35" height="7.33"/>
			<rect x="106.37" y="21.67" class="st0" width="7.35" height="7.33"/>
		</g>
	</g>
	<g>
		<rect x="84.33" y="50.97" class="st10" width="7.35" height="7.33"/>
		<rect x="84.33" y="43.65" class="st10" width="7.35" height="7.33"/>
		<rect x="84.33" y="36.32" class="st10" width="7.35" height="7.33"/>
		<rect x="91.68" y="29" class="st10" width="7.35" height="7.33"/>
		<rect x="84.33" y="29" class="st10" width="7.35" height="7.33"/>
		<rect x="99.02" y="21.67" class="st10" width="7.35" height="7.33"/>
		<rect x="91.68" y="21.67" class="st10" width="7.35" height="7.33"/>
	</g>
</g>
</svg>
