<?xml version="1.0" encoding="utf-8"?>
<!-- Generator: Adobe Illustrator 30.0.0, SVG Export Plug-In . SVG Version: 9.03 Build 0)  -->
<svg version="1.1" xmlns="http://www.w3.org/2000/svg" xmlns:xlink="http://www.w3.org/1999/xlink" x="0px" y="0px"
	 viewBox="0 0 24 24" style="enable-background:new 0 0 24 24;" xml:space="preserve">
<style type="text/css">
	.st0{fill-rule:evenodd;clip-rule:evenodd;}
	.st1{fill-rule:evenodd;clip-rule:evenodd;fill:#B1060F;}
	.st2{fill-rule:evenodd;clip-rule:evenodd;fill:url(#SVGID_1_);}
	.st3{fill-rule:evenodd;clip-rule:evenodd;fill:#E50914;}
</style>
<g id="Layer_2">
	<rect class="st0" width="24" height="24"/>
</g>
<g id="Layer_1">
	<g transform="translate(12.494543 6.7556334)">
		<g transform="translate(81.631476 113.77111) scale(.29074)">
			<path class="st1" d="M-276.95-408.16l-0.03,15.44l-0.03,15.44l-1.27-3.58c0,0,0-0.01,0-0.01l-1.64,34.37
				c1.61,4.56,2.48,6.99,2.49,7c0.01,0.01,0.93,0.07,2.04,0.12c3.37,0.17,7.54,0.53,10.7,0.92c0.73,0.09,1.36,0.14,1.4,0.1
				s0.06-15.75,0.05-34.93l-0.02-34.87H-276.95z M-287.91-354.25l0.02-14.78l1.09,3.09c0.17,0.48,0.22,0.63,0.39,1.09l1.64-34.36
				c-0.35-0.98-0.17-0.47-0.56-1.59c-1.34-3.79-2.48-7.01-2.53-7.14l-0.09-0.25h-13.77v34.9c0,19.2,0.02,34.92,0.04,34.94
				c0.02,0.02,1.21-0.09,2.64-0.25s3.41-0.36,4.39-0.44c1.51-0.13,6.02-0.42,6.55-0.42"/>
			
				<radialGradient id="SVGID_1_" cx="-610.5755" cy="-853.4618" r="33.8809" gradientTransform="matrix(0.0707 -0.0245 -0.897 -2.5906 -1005.4578 -2599.5742)" gradientUnits="userSpaceOnUse">
				<stop  offset="0" style="stop-color:#000000"/>
				<stop  offset="1" style="stop-color:#000000;stop-opacity:0"/>
			</radialGradient>
			<path class="st2" d="M-301.71-408.2v19.59l13.8,36.61c0-0.84,0-1.29,0-2.25l0.02-14.78l1.09,3.09
				c6.08,17.2,9.34,26.42,9.36,26.44c0.01,0.01,0.93,0.07,2.04,0.12c3.37,0.17,7.54,0.53,10.7,0.92c0.73,0.09,1.36,0.14,1.4,0.1
				c0.03-0.02,0.04-7.73,0.05-18.6l-13.74-39.49l-0.01,3.74l-0.03,15.44l-1.27-3.58c-1.24-3.5-2.07-5.84-7.06-19.94
				c-1.34-3.79-2.48-7.01-2.53-7.14l-0.09-0.25H-301.71L-301.71-408.2z"/>
			<path class="st3" d="M-301.71-408.2l13.83,39.19v-0.02l1.09,3.09c6.08,17.2,9.34,26.42,9.36,26.44c0.01,0.01,0.93,0.07,2.04,0.12
				c3.37,0.17,7.54,0.53,10.7,0.92c0.73,0.09,1.36,0.14,1.4,0.1L-277-377.29v0.01l-1.27-3.58c-1.24-3.5-2.07-5.84-7.06-19.94
				c-1.34-3.79-2.48-7.01-2.53-7.14l-0.09-0.25L-301.71-408.2L-301.71-408.2z"/>
			<path class="st1" d="M-276.95-408.16l-0.03,15.44l-0.03,15.44l-1.27-3.58c0,0,0-0.01,0-0.01l-1.64,34.37
				c1.61,4.56,2.48,6.99,2.49,7c0.01,0.01,0.93,0.07,2.04,0.12c3.37,0.17,7.54,0.53,10.7,0.92c0.73,0.09,1.36,0.14,1.4,0.1
				s0.06-15.75,0.05-34.93l-0.02-34.87H-276.95z"/>
			<path class="st3" d="M-301.71-408.2l13.83,39.19v-0.02l1.09,3.09c6.08,17.2,9.34,26.42,9.36,26.44c0.01,0.01,0.93,0.07,2.04,0.12
				c3.37,0.17,7.54,0.53,10.7,0.92c0.73,0.09,1.36,0.14,1.4,0.1L-277-377.29v0.01l-1.27-3.58c-1.24-3.5-2.07-5.84-7.06-19.94
				c-1.34-3.79-2.48-7.01-2.53-7.14l-0.09-0.25L-301.71-408.2L-301.71-408.2z"/>
		</g>
	</g>
</g>
</svg>
