<svg width="142" height="109" viewBox="0 0 142 109" fill="none" xmlns="http://www.w3.org/2000/svg">
<path d="M138 0C140.209 0 142 1.79086 142 4V105C142 107.209 140.209 109 138 109H4C1.79086 109 0 107.209 0 105V4C1.28853e-06 1.79086 1.79086 0 4 0H138ZM16 8C11.5817 8 8 11.5817 8 16V92C8 96.4183 11.5817 100 16 100H92C96.4183 100 100 96.4183 100 92V16C100 11.5817 96.4183 8 92 8H16ZM27.25 27.0859C27.2502 24.0069 30.5834 22.0825 33.25 23.6221L79 50.0361C81.6665 51.5758 81.6665 55.4242 79 56.9639L33.25 83.3779C30.5834 84.9175 27.2502 82.9931 27.25 79.9141V27.0859ZM126.5 30C122.358 30 119 33.3579 119 37.5C119 41.6421 122.358 45 126.5 45C130.642 45 134 41.6421 134 37.5C134 33.3579 130.642 30 126.5 30ZM126.5 8C122.358 8 119 11.3579 119 15.5C119 19.6421 122.358 23 126.5 23C130.642 23 134 19.6421 134 15.5C134 11.3579 130.642 8 126.5 8Z" fill="white"/>
</svg>
