<?xml version="1.0" encoding="utf-8"?>
<!-- Generator: Adobe Illustrator 30.0.0, SVG Export Plug-In . SVG Version: 9.03 Build 0)  -->
<svg version="1.1" id="Layer_1" xmlns="http://www.w3.org/2000/svg" xmlns:xlink="http://www.w3.org/1999/xlink" x="0px" y="0px"
	 viewBox="0 0 240 240" style="enable-background:new 0 0 240 240;" xml:space="preserve">
<style type="text/css">
	.st0{fill:#83FF86;}
	.st1{fill:#65B786;}
	.st2{fill:#141013;}
</style>
<polygon class="st0" points="120,157.38 120,165.81 128.43,165.81 128.43,157.38 128.43,148.95 120,148.95 "/>
<polygon class="st0" points="60.99,157.38 60.99,165.81 69.42,165.81 69.42,157.38 69.42,148.95 60.99,148.95 "/>
<path class="st1" d="M212.72,115.24v8.43h-8.43v-8.43h-8.43v8.43h-8.43H179h-8.43v-8.43h-8.43v-8.43h-8.43v-8.43h-8.43v-8.43h-8.43
	h-8.43H120h-8.43h-8.43h-8.43h-8.43h-8.43v8.43h-8.43h-8.43v8.43h-8.43v8.43h-8.43H35.7h-8.43h-8.43v8.43v8.43v8.43h8.43h8.43h8.43
	h8.43h8.43h8.43h8.43v8.43v8.43v8.43h8.43h8.43v-8.43v-8.43v-8.43h8.43h8.43H120h8.43h8.43v8.43v8.43v8.43h8.43h8.43v-8.43v-8.43
	v-8.43h8.43v-8.43h8.43h8.43h8.43h8.43v8.43h8.43v-8.43h8.43v8.43h8.43v-8.43v-8.43v-8.43
	C221.16,115.24,212.72,115.24,212.72,115.24z M27.28,132.1v-8.43h8.43v8.43H27.28z M44.14,132.1v-8.43h8.43v8.43H44.14z"/>
<polygon class="st0" points="162.15,89.95 162.15,81.52 162.15,73.09 153.72,73.09 145.29,73.09 145.29,81.52 145.29,89.95 
	153.72,89.95 "/>
<polygon class="st0" points="120,81.52 120,73.09 120,64.66 111.57,64.66 103.14,64.66 103.14,73.09 103.14,81.52 111.57,81.52 "/>
<polygon class="st0" points="77.85,73.09 69.42,73.09 60.99,73.09 60.99,81.52 60.99,89.95 69.42,89.95 77.85,89.95 77.85,81.52 "/>
<polygon class="st2" points="128.43,165.81 136.86,165.81 136.86,157.38 136.86,148.95 136.86,140.52 128.43,140.52 120,140.52 
	111.57,140.52 103.14,140.52 94.71,140.52 94.71,148.95 94.71,157.38 94.71,165.81 103.14,165.81 103.14,157.38 103.14,148.95 
	111.57,148.95 111.57,157.38 111.57,165.81 120,165.81 120,157.38 120,148.95 128.43,148.95 128.43,157.38 "/>
<rect x="212.72" y="140.52" class="st2" width="8.43" height="8.43"/>
<rect x="195.86" y="140.52" class="st2" width="8.43" height="8.43"/>
<polygon class="st2" points="153.72,148.95 153.72,157.38 153.72,165.81 162.15,165.81 162.15,157.38 162.15,148.95 162.15,140.52 
	153.72,140.52 "/>
<rect x="204.29" y="132.1" class="st2" width="8.43" height="8.43"/>
<polygon class="st2" points="187.43,132.1 179.01,132.1 170.58,132.1 162.15,132.1 162.15,140.52 170.58,140.52 179.01,140.52 
	187.43,140.52 195.86,140.52 195.86,132.1 "/>
<rect x="44.14" y="123.67" class="st2" width="8.43" height="8.43"/>
<rect x="27.28" y="123.67" class="st2" width="8.43" height="8.43"/>
<polygon class="st2" points="221.15,123.67 221.15,132.1 221.15,140.52 229.58,140.52 229.58,132.1 229.58,123.67 229.58,115.24 
	221.15,115.24 "/>
<rect x="204.29" y="115.24" class="st2" width="8.43" height="8.43"/>
<polygon class="st2" points="179.01,115.24 170.58,115.24 170.58,123.67 179.01,123.67 187.43,123.67 195.86,123.67 195.86,115.24 
	187.43,115.24 "/>
<polygon class="st2" points="10.42,123.67 10.42,132.1 10.42,140.52 10.42,148.95 18.85,148.95 27.28,148.95 35.71,148.95 
	44.14,148.95 52.57,148.95 52.57,157.38 52.57,165.81 60.99,165.81 60.99,157.38 60.99,148.95 69.42,148.95 69.42,157.38 
	69.42,165.81 77.85,165.81 77.85,157.38 77.85,148.95 77.85,140.52 69.42,140.52 60.99,140.52 52.57,140.52 44.14,140.52 
	35.71,140.52 27.28,140.52 18.85,140.52 18.85,132.1 18.85,123.67 18.85,115.24 10.42,115.24 "/>
<rect x="212.72" y="106.81" class="st2" width="8.43" height="8.43"/>
<rect x="195.86" y="106.81" class="st2" width="8.43" height="8.43"/>
<rect x="162.15" y="106.81" class="st2" width="8.43" height="8.43"/>
<polygon class="st2" points="35.71,106.81 27.28,106.81 18.85,106.81 18.85,115.24 27.28,115.24 35.71,115.24 44.14,115.24 
	52.57,115.24 52.57,106.81 44.14,106.81 "/>
<rect x="52.57" y="98.38" class="st2" width="8.43" height="8.43"/>
<polygon class="st2" points="162.15,89.95 153.72,89.95 145.29,89.95 145.29,98.38 153.72,98.38 153.72,106.81 162.15,106.81 
	162.15,98.38 "/>
<polygon class="st2" points="60.99,89.95 60.99,98.38 69.42,98.38 77.85,98.38 77.85,89.95 69.42,89.95 "/>
<polygon class="st2" points="162.15,89.95 170.58,89.95 170.58,81.52 170.58,73.09 162.15,73.09 162.15,81.52 "/>
<polygon class="st2" points="145.29,73.09 136.86,73.09 136.86,81.52 128.43,81.52 128.43,73.09 128.43,64.66 120,64.66 120,73.09 
	120,81.52 111.57,81.52 103.14,81.52 103.14,73.09 103.14,64.66 94.71,64.66 94.71,73.09 94.71,81.52 86.28,81.52 86.28,73.09 
	77.85,73.09 77.85,81.52 77.85,89.95 86.28,89.95 94.71,89.95 103.14,89.95 111.57,89.95 120,89.95 128.43,89.95 136.86,89.95 
	145.29,89.95 145.29,81.52 "/>
<polygon class="st2" points="60.99,73.09 52.57,73.09 52.57,81.52 52.57,89.95 60.99,89.95 60.99,81.52 "/>
<polygon class="st2" points="162.15,73.09 162.15,64.66 153.72,64.66 145.29,64.66 145.29,73.09 153.72,73.09 "/>
<polygon class="st2" points="77.85,73.09 77.85,64.66 69.42,64.66 60.99,64.66 60.99,73.09 69.42,73.09 "/>
<polygon class="st2" points="120,64.66 120,56.23 111.57,56.23 103.14,56.23 103.14,64.66 111.57,64.66 "/>
<rect x="52.57" y="165.81" class="st2" width="50.58" height="7.35"/>
<rect x="111.57" y="165.81" class="st2" width="50.58" height="7.35"/>
</svg>
