<?xml version="1.0" encoding="utf-8"?>
<!-- Generator: Adobe Illustrator 30.0.0, SVG Export Plug-In . SVG Version: 9.03 Build 0)  -->
<svg version="1.1" id="Layer_1" xmlns="http://www.w3.org/2000/svg" xmlns:xlink="http://www.w3.org/1999/xlink" x="0px" y="0px"
	 viewBox="0 0 240 240" style="enable-background:new 0 0 240 240;" xml:space="preserve">
<style type="text/css">
	.st0{fill:#8C3F00;}
	.st1{fill:#C86100;}
	.st2{fill:#FDDEA7;}
	.st3{fill:#FF9700;}
</style>
<rect x="201.88" y="153.73" class="st0" width="7.12" height="7.12"/>
<rect x="201.88" y="146.61" class="st1" width="7.12" height="7.12"/>
<rect x="201.88" y="139.49" class="st2" width="7.12" height="7.12"/>
<rect x="201.88" y="132.38" class="st2" width="7.12" height="7.12"/>
<rect x="194.76" y="160.85" class="st0" width="7.12" height="7.12"/>
<rect x="194.76" y="153.73" class="st1" width="7.12" height="7.12"/>
<rect x="194.76" y="146.61" class="st3" width="7.12" height="7.12"/>
<rect x="194.76" y="139.49" class="st3" width="7.12" height="7.12"/>
<rect x="194.76" y="132.38" class="st2" width="7.12" height="7.12"/>
<rect x="194.76" y="125.26" class="st2" width="7.12" height="7.12"/>
<rect x="194.76" y="118.14" class="st2" width="7.12" height="7.12"/>
<rect x="194.76" y="111.02" class="st2" width="7.12" height="7.12"/>
<rect x="187.64" y="160.85" class="st0" width="7.12" height="7.12"/>
<rect x="187.64" y="153.73" class="st1" width="7.12" height="7.12"/>
<rect x="187.64" y="146.61" class="st1" width="7.12" height="7.12"/>
<rect x="187.64" y="139.49" class="st3" width="7.12" height="7.12"/>
<rect x="187.64" y="132.38" class="st3" width="7.12" height="7.12"/>
<rect x="187.64" y="125.26" class="st3" width="7.12" height="7.12"/>
<rect x="187.64" y="118.14" class="st3" width="7.12" height="7.12"/>
<rect x="187.64" y="111.02" class="st2" width="7.12" height="7.12"/>
<rect x="187.64" y="103.9" class="st2" width="7.12" height="7.12"/>
<rect x="187.64" y="96.78" class="st2" width="7.12" height="7.12"/>
<rect x="180.52" y="153.73" class="st0" width="7.12" height="7.12"/>
<rect x="180.52" y="146.61" class="st1" width="7.12" height="7.12"/>
<rect x="180.52" y="139.49" class="st3" width="7.12" height="7.12"/>
<rect x="180.52" y="132.38" class="st3" width="7.12" height="7.12"/>
<rect x="180.52" y="125.26" class="st3" width="7.12" height="7.12"/>
<rect x="180.52" y="118.14" class="st3" width="7.12" height="7.12"/>
<rect x="180.52" y="111.02" class="st3" width="7.12" height="7.12"/>
<rect x="180.52" y="103.9" class="st3" width="7.12" height="7.12"/>
<rect x="180.52" y="96.78" class="st2" width="7.12" height="7.12"/>
<rect x="173.4" y="153.73" class="st0" width="7.12" height="7.12"/>
<rect x="173.4" y="146.61" class="st1" width="7.12" height="7.12"/>
<rect x="173.4" y="139.49" class="st1" width="7.12" height="7.12"/>
<rect x="173.4" y="132.38" class="st3" width="7.12" height="7.12"/>
<rect x="173.4" y="125.26" class="st3" width="7.12" height="7.12"/>
<rect x="173.4" y="118.14" class="st3" width="7.12" height="7.12"/>
<rect x="173.4" y="111.02" class="st3" width="7.12" height="7.12"/>
<rect x="173.4" y="103.9" class="st3" width="7.12" height="7.12"/>
<rect x="173.4" y="96.78" class="st2" width="7.12" height="7.12"/>
<rect x="173.4" y="89.66" class="st2" width="7.12" height="7.12"/>
<rect x="166.28" y="153.73" class="st0" width="7.12" height="7.12"/>
<rect x="166.28" y="146.61" class="st0" width="7.12" height="7.12"/>
<rect x="166.28" y="139.49" class="st1" width="7.12" height="7.12"/>
<rect x="166.28" y="132.38" class="st3" width="7.12" height="7.12"/>
<rect x="166.28" y="125.26" class="st3" width="7.12" height="7.12"/>
<rect x="166.28" y="118.14" class="st3" width="7.12" height="7.12"/>
<rect x="166.28" y="111.02" class="st3" width="7.12" height="7.12"/>
<rect x="166.28" y="103.9" class="st3" width="7.12" height="7.12"/>
<rect x="166.28" y="96.78" class="st3" width="7.12" height="7.12"/>
<rect x="166.28" y="89.66" class="st2" width="7.12" height="7.12"/>
<rect x="159.16" y="146.61" class="st0" width="7.12" height="7.12"/>
<rect x="159.16" y="139.49" class="st1" width="7.12" height="7.12"/>
<rect x="159.16" y="132.38" class="st1" width="7.12" height="7.12"/>
<rect x="159.16" y="125.26" class="st1" width="7.12" height="7.12"/>
<rect x="159.16" y="118.14" class="st1" width="7.12" height="7.12"/>
<rect x="159.16" y="111.02" class="st1" width="7.12" height="7.12"/>
<rect x="159.16" y="103.9" class="st1" width="7.12" height="7.12"/>
<rect x="159.16" y="96.78" class="st1" width="7.12" height="7.12"/>
<rect x="159.16" y="89.66" class="st3" width="7.12" height="7.12"/>
<rect x="159.16" y="82.54" class="st2" width="7.12" height="7.12"/>
<rect x="152.04" y="146.61" class="st0" width="7.12" height="7.12"/>
<rect x="152.04" y="139.49" class="st1" width="7.12" height="7.12"/>
<rect x="152.04" y="132.38" class="st1" width="7.12" height="7.12"/>
<rect x="152.04" y="125.26" class="st0" width="7.12" height="7.12"/>
<rect x="152.04" y="118.14" class="st0" width="7.12" height="7.12"/>
<rect x="152.04" y="111.02" class="st0" width="7.12" height="7.12"/>
<rect x="152.04" y="103.9" class="st0" width="7.12" height="7.12"/>
<rect x="152.04" y="96.78" class="st0" width="7.12" height="7.12"/>
<rect x="152.04" y="89.66" class="st0" width="7.12" height="7.12"/>
<rect x="152.04" y="82.54" class="st1" width="7.12" height="7.12"/>
<rect x="144.91" y="146.61" class="st0" width="7.13" height="7.12"/>
<rect x="144.91" y="139.49" class="st0" width="7.13" height="7.12"/>
<rect x="144.91" y="132.38" class="st0" width="7.13" height="7.12"/>
<rect x="144.91" y="125.26" class="st0" width="7.13" height="7.12"/>
<rect x="144.91" y="118.14" class="st2" width="7.13" height="7.12"/>
<rect x="144.91" y="111.02" class="st2" width="7.13" height="7.12"/>
<rect x="144.91" y="103.9" class="st2" width="7.13" height="7.12"/>
<rect x="144.91" y="96.78" class="st2" width="7.13" height="7.12"/>
<rect x="144.91" y="89.66" class="st2" width="7.13" height="7.12"/>
<rect x="144.91" y="82.54" class="st2" width="7.13" height="7.12"/>
<rect x="144.91" y="75.42" class="st1" width="7.13" height="7.12"/>
<rect x="137.79" y="153.73" class="st0" width="7.12" height="7.12"/>
<rect x="137.79" y="146.61" class="st0" width="7.12" height="7.12"/>
<rect x="137.79" y="139.49" class="st0" width="7.12" height="7.12"/>
<rect x="137.79" y="132.38" class="st2" width="7.12" height="7.12"/>
<rect x="137.79" y="125.26" class="st2" width="7.12" height="7.12"/>
<rect x="137.79" y="118.14" class="st3" width="7.12" height="7.12"/>
<rect x="137.79" y="111.02" class="st3" width="7.12" height="7.12"/>
<rect x="137.79" y="103.9" class="st3" width="7.12" height="7.12"/>
<rect x="137.79" y="96.78" class="st3" width="7.12" height="7.12"/>
<rect x="137.79" y="89.66" class="st3" width="7.12" height="7.12"/>
<rect x="137.79" y="82.54" class="st3" width="7.12" height="7.12"/>
<rect x="137.79" y="75.42" class="st2" width="7.12" height="7.12"/>
<rect x="137.79" y="68.3" class="st1" width="7.12" height="7.12"/>
<rect x="130.67" y="160.85" class="st0" width="7.12" height="7.12"/>
<rect x="130.67" y="153.73" class="st0" width="7.12" height="7.12"/>
<rect x="130.67" y="146.61" class="st2" width="7.12" height="7.12"/>
<rect x="130.67" y="139.49" class="st2" width="7.12" height="7.12"/>
<rect x="130.67" y="132.38" class="st3" width="7.12" height="7.12"/>
<rect x="130.67" y="125.26" class="st3" width="7.12" height="7.12"/>
<rect x="130.67" y="118.14" class="st3" width="7.12" height="7.12"/>
<rect x="130.67" y="111.02" class="st3" width="7.12" height="7.12"/>
<rect x="130.67" y="103.9" class="st3" width="7.12" height="7.12"/>
<rect x="130.67" y="96.78" class="st3" width="7.12" height="7.12"/>
<rect x="130.67" y="89.66" class="st3" width="7.12" height="7.12"/>
<rect x="130.67" y="82.54" class="st3" width="7.12" height="7.12"/>
<rect x="130.67" y="75.42" class="st2" width="7.12" height="7.12"/>
<rect x="130.67" y="68.3" class="st1" width="7.12" height="7.12"/>
<rect x="123.55" y="160.85" class="st0" width="7.12" height="7.12"/>
<rect x="123.55" y="153.73" class="st1" width="7.12" height="7.12"/>
<rect x="123.55" y="146.61" class="st2" width="7.12" height="7.12"/>
<rect x="123.55" y="139.49" class="st3" width="7.12" height="7.12"/>
<rect x="123.55" y="132.38" class="st3" width="7.12" height="7.12"/>
<rect x="123.55" y="125.26" class="st3" width="7.12" height="7.12"/>
<rect x="123.55" y="118.14" class="st3" width="7.12" height="7.12"/>
<rect x="123.55" y="111.02" class="st3" width="7.12" height="7.12"/>
<rect x="123.55" y="103.9" class="st3" width="7.12" height="7.12"/>
<rect x="123.55" y="96.78" class="st3" width="7.12" height="7.12"/>
<rect x="123.55" y="89.66" class="st3" width="7.12" height="7.12"/>
<rect x="123.55" y="82.54" class="st3" width="7.12" height="7.12"/>
<rect x="123.55" y="75.42" class="st3" width="7.12" height="7.12"/>
<rect x="123.55" y="68.3" class="st0" width="7.12" height="7.12"/>
<rect x="116.43" y="160.85" class="st0" width="7.12" height="7.12"/>
<rect x="116.43" y="153.73" class="st1" width="7.12" height="7.12"/>
<rect x="116.43" y="146.61" class="st2" width="7.12" height="7.12"/>
<rect x="116.43" y="139.49" class="st3" width="7.12" height="7.12"/>
<rect x="116.43" y="132.38" class="st3" width="7.12" height="7.12"/>
<rect x="116.43" y="125.26" class="st3" width="7.12" height="7.12"/>
<rect x="116.43" y="118.14" class="st3" width="7.12" height="7.12"/>
<rect x="116.43" y="111.02" class="st3" width="7.12" height="7.12"/>
<rect x="116.43" y="103.9" class="st3" width="7.12" height="7.12"/>
<rect x="116.43" y="96.78" class="st3" width="7.12" height="7.12"/>
<rect x="116.43" y="89.66" class="st3" width="7.12" height="7.12"/>
<rect x="116.43" y="82.54" class="st3" width="7.12" height="7.12"/>
<rect x="116.43" y="75.42" class="st3" width="7.12" height="7.12"/>
<rect x="116.43" y="68.3" class="st0" width="7.12" height="7.12"/>
<rect x="109.31" y="160.85" class="st0" width="7.12" height="7.12"/>
<rect x="109.31" y="153.73" class="st0" width="7.12" height="7.12"/>
<rect x="109.31" y="146.61" class="st1" width="7.12" height="7.12"/>
<rect x="109.31" y="139.49" class="st1" width="7.12" height="7.12"/>
<rect x="109.31" y="132.38" class="st3" width="7.12" height="7.12"/>
<rect x="109.31" y="125.26" class="st3" width="7.12" height="7.12"/>
<rect x="109.31" y="118.14" class="st3" width="7.12" height="7.12"/>
<rect x="109.31" y="111.02" class="st3" width="7.12" height="7.12"/>
<rect x="109.31" y="103.9" class="st3" width="7.12" height="7.12"/>
<rect x="109.31" y="96.78" class="st3" width="7.12" height="7.12"/>
<rect x="109.31" y="89.66" class="st3" width="7.12" height="7.12"/>
<rect x="109.31" y="82.54" class="st3" width="7.12" height="7.12"/>
<rect x="109.31" y="75.42" class="st3" width="7.12" height="7.12"/>
<rect x="109.31" y="68.3" class="st0" width="7.12" height="7.12"/>
<rect x="102.19" y="153.73" class="st0" width="7.12" height="7.12"/>
<rect x="102.19" y="146.61" class="st0" width="7.12" height="7.12"/>
<rect x="102.19" y="139.49" class="st0" width="7.12" height="7.12"/>
<rect x="102.19" y="132.38" class="st1" width="7.12" height="7.12"/>
<rect x="102.19" y="125.26" class="st1" width="7.12" height="7.12"/>
<rect x="102.19" y="118.14" class="st1" width="7.12" height="7.12"/>
<rect x="102.19" y="111.02" class="st1" width="7.12" height="7.12"/>
<rect x="102.19" y="103.9" class="st3" width="7.12" height="7.12"/>
<rect x="102.19" y="96.78" class="st3" width="7.12" height="7.12"/>
<rect x="102.19" y="89.66" class="st3" width="7.12" height="7.12"/>
<rect x="102.19" y="82.54" class="st3" width="7.12" height="7.12"/>
<rect x="102.19" y="75.42" class="st3" width="7.12" height="7.12"/>
<rect x="102.19" y="68.3" class="st0" width="7.12" height="7.12"/>
<rect x="95.07" y="146.61" class="st0" width="7.12" height="7.12"/>
<rect x="95.07" y="139.49" class="st0" width="7.12" height="7.12"/>
<rect x="95.07" y="132.38" class="st0" width="7.12" height="7.12"/>
<rect x="95.07" y="125.26" class="st0" width="7.12" height="7.12"/>
<rect x="95.07" y="118.14" class="st0" width="7.12" height="7.12"/>
<rect x="95.07" y="111.02" class="st1" width="7.12" height="7.12"/>
<rect x="95.07" y="103.9" class="st1" width="7.12" height="7.12"/>
<rect x="95.07" y="96.78" class="st1" width="7.12" height="7.12"/>
<rect x="95.07" y="89.66" class="st1" width="7.12" height="7.12"/>
<rect x="95.07" y="82.54" class="st3" width="7.12" height="7.12"/>
<rect x="95.07" y="75.42" class="st0" width="7.12" height="7.12"/>
<rect x="87.96" y="146.61" class="st0" width="7.12" height="7.12"/>
<rect x="87.96" y="139.49" class="st1" width="7.12" height="7.12"/>
<rect x="87.96" y="132.38" class="st1" width="7.12" height="7.12"/>
<rect x="87.96" y="125.26" class="st1" width="7.12" height="7.12"/>
<rect x="87.96" y="118.14" class="st0" width="7.12" height="7.12"/>
<rect x="87.96" y="111.02" class="st0" width="7.12" height="7.12"/>
<rect x="87.96" y="103.9" class="st0" width="7.12" height="7.12"/>
<rect x="87.96" y="96.78" class="st0" width="7.12" height="7.12"/>
<rect x="87.96" y="89.66" class="st0" width="7.12" height="7.12"/>
<rect x="87.96" y="82.54" class="st0" width="7.12" height="7.12"/>
<rect x="87.96" y="75.42" class="st0" width="7.12" height="7.12"/>
<rect x="80.84" y="146.61" class="st0" width="7.12" height="7.12"/>
<rect x="80.84" y="139.49" class="st1" width="7.12" height="7.12"/>
<rect x="80.84" y="132.38" class="st2" width="7.12" height="7.12"/>
<rect x="80.84" y="125.26" class="st2" width="7.12" height="7.12"/>
<rect x="80.84" y="118.14" class="st2" width="7.12" height="7.12"/>
<rect x="80.84" y="111.02" class="st2" width="7.12" height="7.12"/>
<rect x="80.84" y="103.9" class="st2" width="7.12" height="7.12"/>
<rect x="80.84" y="96.78" class="st2" width="7.12" height="7.12"/>
<rect x="80.84" y="89.66" class="st1" width="7.12" height="7.12"/>
<rect x="80.84" y="82.54" class="st0" width="7.12" height="7.12"/>
<rect x="73.72" y="153.73" class="st0" width="7.12" height="7.12"/>
<rect x="73.72" y="146.61" class="st0" width="7.12" height="7.12"/>
<rect x="73.72" y="139.49" class="st1" width="7.12" height="7.12"/>
<rect x="73.72" y="132.38" class="st3" width="7.12" height="7.12"/>
<rect x="73.72" y="125.26" class="st3" width="7.12" height="7.12"/>
<rect x="73.72" y="118.14" class="st3" width="7.12" height="7.12"/>
<rect x="73.72" y="111.02" class="st3" width="7.12" height="7.12"/>
<rect x="73.72" y="103.9" class="st2" width="7.12" height="7.12"/>
<rect x="73.72" y="96.78" class="st1" width="7.12" height="7.12"/>
<rect x="73.72" y="89.66" class="st0" width="7.12" height="7.12"/>
<rect x="73.72" y="82.54" class="st0" width="7.12" height="7.12"/>
<rect x="66.6" y="153.73" class="st0" width="7.12" height="7.12"/>
<rect x="66.6" y="146.61" class="st1" width="7.12" height="7.12"/>
<rect x="66.6" y="139.49" class="st1" width="7.12" height="7.12"/>
<rect x="66.6" y="132.38" class="st3" width="7.12" height="7.12"/>
<rect x="66.6" y="125.26" class="st3" width="7.12" height="7.12"/>
<rect x="66.6" y="118.14" class="st3" width="7.12" height="7.12"/>
<rect x="66.6" y="111.02" class="st3" width="7.12" height="7.12"/>
<rect x="66.6" y="103.9" class="st3" width="7.12" height="7.12"/>
<rect x="66.6" y="96.78" class="st1" width="7.12" height="7.12"/>
<rect x="66.6" y="89.66" class="st0" width="7.12" height="7.12"/>
<rect x="59.48" y="153.73" class="st0" width="7.12" height="7.12"/>
<rect x="59.48" y="146.61" class="st1" width="7.12" height="7.12"/>
<rect x="59.48" y="139.49" class="st3" width="7.12" height="7.12"/>
<rect x="59.48" y="132.38" class="st3" width="7.12" height="7.12"/>
<rect x="59.48" y="125.26" class="st3" width="7.12" height="7.12"/>
<rect x="59.48" y="118.14" class="st3" width="7.12" height="7.12"/>
<rect x="59.48" y="111.02" class="st1" width="7.12" height="7.12"/>
<rect x="59.48" y="103.9" class="st1" width="7.12" height="7.12"/>
<rect x="59.48" y="96.78" class="st0" width="7.12" height="7.12"/>
<rect x="59.48" y="89.66" class="st0" width="7.12" height="7.12"/>
<rect x="52.36" y="160.85" class="st0" width="7.12" height="7.12"/>
<rect x="52.36" y="153.73" class="st0" width="7.12" height="7.12"/>
<rect x="52.36" y="146.61" class="st1" width="7.12" height="7.12"/>
<rect x="52.36" y="139.49" class="st1" width="7.12" height="7.12"/>
<rect x="52.36" y="132.38" class="st3" width="7.12" height="7.12"/>
<rect x="52.36" y="125.26" class="st3" width="7.12" height="7.12"/>
<rect x="52.36" y="118.14" class="st1" width="7.12" height="7.12"/>
<rect x="52.36" y="111.02" class="st1" width="7.12" height="7.12"/>
<rect x="52.36" y="103.9" class="st0" width="7.12" height="7.12"/>
<rect x="52.36" y="96.78" class="st0" width="7.12" height="7.12"/>
<rect x="45.24" y="160.85" class="st0" width="7.12" height="7.12"/>
<rect x="45.24" y="153.73" class="st1" width="7.12" height="7.12"/>
<rect x="45.24" y="146.61" class="st1" width="7.12" height="7.12"/>
<rect x="45.24" y="139.49" class="st1" width="7.12" height="7.12"/>
<rect x="45.24" y="132.38" class="st1" width="7.12" height="7.12"/>
<rect x="45.24" y="125.26" class="st1" width="7.12" height="7.12"/>
<rect x="45.24" y="118.14" class="st0" width="7.12" height="7.12"/>
<rect x="45.24" y="111.02" class="st0" width="7.12" height="7.12"/>
<rect x="38.12" y="160.85" class="st0" width="7.12" height="7.12"/>
<rect x="38.12" y="153.73" class="st1" width="7.12" height="7.12"/>
<rect x="38.12" y="146.61" class="st1" width="7.12" height="7.12"/>
<rect x="38.12" y="139.49" class="st1" width="7.12" height="7.12"/>
<rect x="38.12" y="132.38" class="st0" width="7.12" height="7.12"/>
<rect x="38.12" y="125.26" class="st0" width="7.12" height="7.12"/>
<rect x="38.12" y="118.14" class="st0" width="7.12" height="7.12"/>
<rect x="31" y="160.85" class="st0" width="7.12" height="7.12"/>
<rect x="31" y="153.73" class="st0" width="7.12" height="7.12"/>
<rect x="31" y="146.61" class="st0" width="7.12" height="7.12"/>
<rect x="31" y="139.49" class="st0" width="7.12" height="7.12"/>
<rect x="31" y="132.38" class="st0" width="7.12" height="7.12"/>
</svg>
