<?xml version="1.0" encoding="utf-8"?>
<!-- Generator: Adobe Illustrator 30.0.0, SVG Export Plug-In . SVG Version: 9.03 Build 0)  -->
<svg version="1.1" id="Layer_1" xmlns="http://www.w3.org/2000/svg" xmlns:xlink="http://www.w3.org/1999/xlink" x="0px" y="0px"
	 viewBox="0 0 240 240" style="enable-background:new 0 0 240 240;" xml:space="preserve">
<style type="text/css">
	.st0{fill:#3A42A8;}
	.st1{fill:#1D2375;}
	.st2{fill:#2E3190;}
	.st3{fill:#FD2A5C;}
	.st4{fill:#ECEEEE;}
	.st5{fill:#FC5F88;}
	.st6{fill:#D50E48;}
	.st7{fill:#B7CACE;}
	.st8{fill:#96A4A6;}
</style>
<rect x="176.62" y="196.35" class="st0" width="8.41" height="8.39"/>
<rect x="176.62" y="187.94" class="st0" width="8.41" height="8.41"/>
<rect x="176.62" y="179.54" class="st0" width="8.41" height="8.39"/>
<rect x="176.62" y="171.15" class="st0" width="8.41" height="8.39"/>
<rect x="176.62" y="162.76" class="st0" width="8.41" height="8.39"/>
<rect x="168.22" y="204.74" class="st1" width="8.39" height="8.39"/>
<rect x="168.22" y="196.35" class="st1" width="8.39" height="8.39"/>
<rect x="168.22" y="187.94" class="st2" width="8.39" height="8.41"/>
<rect x="168.22" y="179.54" class="st2" width="8.39" height="8.39"/>
<rect x="168.22" y="171.15" class="st2" width="8.39" height="8.39"/>
<rect x="168.22" y="162.76" class="st2" width="8.39" height="8.39"/>
<rect x="168.22" y="154.36" class="st0" width="8.39" height="8.39"/>
<rect x="159.83" y="204.74" class="st1" width="8.39" height="8.39"/>
<rect x="159.83" y="196.35" class="st3" width="8.39" height="8.39"/>
<rect x="159.83" y="187.94" class="st2" width="8.39" height="8.41"/>
<rect x="159.83" y="179.54" class="st2" width="8.39" height="8.39"/>
<rect x="159.83" y="171.15" class="st2" width="8.39" height="8.39"/>
<rect x="159.83" y="162.76" class="st2" width="8.39" height="8.39"/>
<rect x="159.83" y="154.36" class="st0" width="8.39" height="8.39"/>
<rect x="151.44" y="204.74" class="st1" width="8.39" height="8.39"/>
<rect x="151.44" y="196.35" class="st1" width="8.39" height="8.39"/>
<rect x="151.44" y="187.94" class="st2" width="8.39" height="8.41"/>
<rect x="151.44" y="179.54" class="st2" width="8.39" height="8.39"/>
<rect x="151.44" y="171.15" class="st2" width="8.39" height="8.39"/>
<rect x="151.44" y="162.76" class="st2" width="8.39" height="8.39"/>
<rect x="151.44" y="154.36" class="st0" width="8.39" height="8.39"/>
<rect x="151.44" y="70.42" class="st4" width="8.39" height="8.39"/>
<rect x="151.44" y="62.03" class="st4" width="8.39" height="8.39"/>
<rect x="151.44" y="53.64" class="st4" width="8.39" height="8.39"/>
<rect x="151.44" y="45.24" class="st4" width="8.39" height="8.39"/>
<rect x="151.44" y="36.85" class="st4" width="8.39" height="8.39"/>
<rect x="143.04" y="204.74" class="st1" width="8.39" height="8.39"/>
<rect x="143.04" y="196.35" class="st3" width="8.39" height="8.39"/>
<rect x="143.04" y="187.94" class="st2" width="8.39" height="8.41"/>
<rect x="143.04" y="179.54" class="st2" width="8.39" height="8.39"/>
<rect x="143.04" y="171.15" class="st2" width="8.39" height="8.39"/>
<rect x="143.04" y="162.76" class="st2" width="8.39" height="8.39"/>
<rect x="143.04" y="154.36" class="st0" width="8.39" height="8.39"/>
<rect x="143.04" y="78.82" class="st3" width="8.39" height="8.39"/>
<rect x="143.04" y="70.42" class="st5" width="8.39" height="8.39"/>
<rect x="143.04" y="62.03" class="st5" width="8.39" height="8.39"/>
<rect x="143.04" y="53.64" class="st5" width="8.39" height="8.39"/>
<rect x="143.04" y="45.24" class="st5" width="8.39" height="8.39"/>
<rect x="143.04" y="36.85" class="st5" width="8.39" height="8.39"/>
<rect x="143.04" y="28.46" class="st4" width="8.39" height="8.39"/>
<rect x="134.65" y="204.74" class="st1" width="8.39" height="8.39"/>
<rect x="134.65" y="196.35" class="st1" width="8.39" height="8.39"/>
<rect x="134.65" y="187.94" class="st2" width="8.39" height="8.41"/>
<rect x="134.65" y="179.54" class="st2" width="8.39" height="8.39"/>
<rect x="134.65" y="171.15" class="st2" width="8.39" height="8.39"/>
<rect x="134.65" y="162.76" class="st2" width="8.39" height="8.39"/>
<rect x="134.65" y="154.36" class="st0" width="8.39" height="8.39"/>
<rect x="134.65" y="87.21" class="st6" width="8.39" height="8.39"/>
<rect x="134.65" y="78.82" class="st3" width="8.39" height="8.39"/>
<rect x="134.65" y="70.42" class="st5" width="8.39" height="8.39"/>
<rect x="134.65" y="62.03" class="st5" width="8.39" height="8.39"/>
<rect x="134.65" y="53.64" class="st5" width="8.39" height="8.39"/>
<rect x="134.65" y="45.24" class="st5" width="8.39" height="8.39"/>
<rect x="134.65" y="36.85" class="st5" width="8.39" height="8.39"/>
<rect x="134.65" y="28.46" class="st5" width="8.39" height="8.39"/>
<rect x="134.65" y="20.05" class="st4" width="8.39" height="8.41"/>
<rect x="126.25" y="204.74" class="st1" width="8.39" height="8.39"/>
<rect x="126.25" y="196.35" class="st3" width="8.39" height="8.39"/>
<rect x="126.25" y="187.94" class="st2" width="8.39" height="8.41"/>
<rect x="126.25" y="179.54" class="st2" width="8.39" height="8.39"/>
<rect x="126.25" y="171.15" class="st2" width="8.39" height="8.39"/>
<rect x="126.25" y="162.76" class="st2" width="8.39" height="8.39"/>
<rect x="126.25" y="154.36" class="st0" width="8.39" height="8.39"/>
<rect x="126.25" y="145.97" class="st7" width="8.39" height="8.39"/>
<rect x="126.25" y="137.57" class="st7" width="8.39" height="8.39"/>
<rect x="126.25" y="129.18" class="st7" width="8.39" height="8.39"/>
<rect x="126.25" y="120.79" class="st7" width="8.39" height="8.39"/>
<rect x="126.25" y="112.39" class="st7" width="8.39" height="8.39"/>
<rect x="126.25" y="104" class="st7" width="8.39" height="8.39"/>
<rect x="126.25" y="95.61" class="st8" width="8.39" height="8.39"/>
<rect x="126.25" y="87.21" class="st6" width="8.39" height="8.39"/>
<rect x="126.25" y="78.82" class="st3" width="8.39" height="8.39"/>
<rect x="126.25" y="70.42" class="st3" width="8.39" height="8.39"/>
<rect x="126.25" y="62.03" class="st5" width="8.39" height="8.39"/>
<rect x="126.25" y="53.64" class="st5" width="8.39" height="8.39"/>
<rect x="126.25" y="45.24" class="st5" width="8.39" height="8.39"/>
<rect x="126.25" y="36.85" class="st5" width="8.39" height="8.39"/>
<rect x="126.25" y="28.46" class="st5" width="8.39" height="8.39"/>
<rect x="126.25" y="20.05" class="st4" width="8.39" height="8.41"/>
<rect x="117.86" y="204.74" class="st1" width="8.39" height="8.39"/>
<rect x="117.86" y="196.35" class="st1" width="8.39" height="8.39"/>
<rect x="117.86" y="187.94" class="st2" width="8.39" height="8.41"/>
<rect x="117.86" y="179.54" class="st2" width="8.39" height="8.39"/>
<rect x="117.86" y="171.15" class="st2" width="8.39" height="8.39"/>
<rect x="117.86" y="162.76" class="st2" width="8.39" height="8.39"/>
<rect x="117.86" y="154.36" class="st0" width="8.39" height="8.39"/>
<rect x="117.86" y="145.97" class="st7" width="8.39" height="8.39"/>
<rect x="117.86" y="137.57" class="st7" width="8.39" height="8.39"/>
<rect x="117.86" y="129.18" class="st7" width="8.39" height="8.39"/>
<rect x="117.86" y="120.79" class="st7" width="8.39" height="8.39"/>
<rect x="117.86" y="112.39" class="st7" width="8.39" height="8.39"/>
<rect x="117.86" y="104" class="st7" width="8.39" height="8.39"/>
<rect x="117.86" y="95.61" class="st8" width="8.39" height="8.39"/>
<rect x="117.86" y="87.21" class="st6" width="8.39" height="8.39"/>
<rect x="117.86" y="78.82" class="st3" width="8.39" height="8.39"/>
<rect x="117.86" y="70.42" class="st3" width="8.39" height="8.39"/>
<rect x="117.86" y="62.03" class="st3" width="8.39" height="8.39"/>
<rect x="117.86" y="53.64" class="st5" width="8.39" height="8.39"/>
<rect x="117.86" y="45.24" class="st5" width="8.39" height="8.39"/>
<rect x="117.86" y="36.85" class="st5" width="8.39" height="8.39"/>
<rect x="117.86" y="28.46" class="st5" width="8.39" height="8.39"/>
<rect x="117.86" y="20.05" class="st4" width="8.39" height="8.41"/>
<rect x="109.47" y="204.74" class="st1" width="8.39" height="8.39"/>
<rect x="109.47" y="196.35" class="st1" width="8.39" height="8.39"/>
<rect x="109.47" y="187.94" class="st2" width="8.39" height="8.41"/>
<rect x="109.47" y="179.54" class="st2" width="8.39" height="8.39"/>
<rect x="109.47" y="171.15" class="st2" width="8.39" height="8.39"/>
<rect x="109.47" y="162.76" class="st2" width="8.39" height="8.39"/>
<rect x="109.47" y="154.36" class="st2" width="8.39" height="8.39"/>
<rect x="109.47" y="145.97" class="st8" width="8.39" height="8.39"/>
<rect x="109.47" y="137.57" class="st8" width="8.39" height="8.39"/>
<rect x="109.47" y="129.18" class="st8" width="8.39" height="8.39"/>
<rect x="109.47" y="120.79" class="st8" width="8.39" height="8.39"/>
<rect x="109.47" y="112.39" class="st8" width="8.39" height="8.39"/>
<rect x="109.47" y="104" class="st8" width="8.39" height="8.39"/>
<rect x="109.47" y="95.61" class="st8" width="8.39" height="8.39"/>
<rect x="109.47" y="87.21" class="st6" width="8.39" height="8.39"/>
<rect x="109.47" y="78.82" class="st3" width="8.39" height="8.39"/>
<rect x="109.47" y="70.42" class="st3" width="8.39" height="8.39"/>
<rect x="109.47" y="62.03" class="st3" width="8.39" height="8.39"/>
<rect x="109.47" y="53.64" class="st3" width="8.39" height="8.39"/>
<rect x="109.47" y="45.24" class="st5" width="8.39" height="8.39"/>
<rect x="109.47" y="36.85" class="st5" width="8.39" height="8.39"/>
<rect x="109.47" y="28.46" class="st5" width="8.39" height="8.39"/>
<rect x="109.47" y="20.05" class="st4" width="8.39" height="8.41"/>
<rect x="101.07" y="204.74" class="st1" width="8.39" height="8.39"/>
<rect x="101.07" y="196.35" class="st6" width="8.39" height="8.39"/>
<rect x="101.07" y="187.94" class="st5" width="8.39" height="8.41"/>
<rect x="101.07" y="179.54" class="st5" width="8.39" height="8.39"/>
<rect x="101.07" y="171.15" class="st2" width="8.39" height="8.39"/>
<rect x="101.07" y="162.76" class="st2" width="8.39" height="8.39"/>
<rect x="101.07" y="154.36" class="st2" width="8.39" height="8.39"/>
<rect x="101.07" y="87.21" class="st6" width="8.39" height="8.39"/>
<rect x="101.07" y="78.82" class="st3" width="8.39" height="8.39"/>
<rect x="101.07" y="70.42" class="st3" width="8.39" height="8.39"/>
<rect x="101.07" y="62.03" class="st3" width="8.39" height="8.39"/>
<rect x="101.07" y="53.64" class="st3" width="8.39" height="8.39"/>
<rect x="101.07" y="45.24" class="st3" width="8.39" height="8.39"/>
<rect x="101.07" y="36.85" class="st3" width="8.39" height="8.39"/>
<rect x="101.07" y="28.46" class="st5" width="8.39" height="8.39"/>
<rect x="101.07" y="20.05" class="st4" width="8.39" height="8.41"/>
<rect x="92.68" y="204.74" class="st1" width="8.39" height="8.39"/>
<rect x="92.68" y="196.35" class="st6" width="8.39" height="8.39"/>
<rect x="92.68" y="187.94" class="st1" width="8.39" height="8.41"/>
<rect x="92.68" y="179.54" class="st3" width="8.39" height="8.39"/>
<rect x="92.68" y="171.15" class="st2" width="8.39" height="8.39"/>
<rect x="92.68" y="162.76" class="st2" width="8.39" height="8.39"/>
<rect x="92.68" y="154.36" class="st2" width="8.39" height="8.39"/>
<rect x="92.68" y="78.82" class="st6" width="8.39" height="8.39"/>
<rect x="92.68" y="70.42" class="st3" width="8.39" height="8.39"/>
<rect x="92.68" y="62.03" class="st3" width="8.39" height="8.39"/>
<rect x="92.68" y="53.64" class="st3" width="8.39" height="8.39"/>
<rect x="92.68" y="45.24" class="st3" width="8.39" height="8.39"/>
<rect x="92.68" y="36.85" class="st3" width="8.39" height="8.39"/>
<rect x="92.68" y="28.46" class="st6" width="8.39" height="8.39"/>
<rect x="84.29" y="204.74" class="st1" width="8.39" height="8.39"/>
<rect x="84.29" y="196.35" class="st6" width="8.39" height="8.39"/>
<rect x="84.29" y="187.94" class="st1" width="8.39" height="8.41"/>
<rect x="84.29" y="179.54" class="st3" width="8.39" height="8.39"/>
<rect x="84.29" y="171.15" class="st2" width="8.39" height="8.39"/>
<rect x="84.29" y="162.76" class="st2" width="8.39" height="8.39"/>
<rect x="84.29" y="154.36" class="st2" width="8.39" height="8.39"/>
<rect x="84.29" y="70.42" class="st6" width="8.39" height="8.39"/>
<rect x="84.29" y="62.03" class="st6" width="8.39" height="8.39"/>
<rect x="84.29" y="53.64" class="st6" width="8.39" height="8.39"/>
<rect x="84.29" y="45.24" class="st6" width="8.39" height="8.39"/>
<rect x="84.29" y="36.85" class="st6" width="8.39" height="8.39"/>
<rect x="75.89" y="204.74" class="st1" width="8.39" height="8.39"/>
<rect x="75.89" y="196.35" class="st6" width="8.39" height="8.39"/>
<rect x="75.89" y="187.94" class="st6" width="8.39" height="8.41"/>
<rect x="75.89" y="179.54" class="st3" width="8.39" height="8.39"/>
<rect x="75.89" y="171.15" class="st2" width="8.39" height="8.39"/>
<rect x="75.89" y="162.76" class="st2" width="8.39" height="8.39"/>
<rect x="75.89" y="154.36" class="st2" width="8.39" height="8.39"/>
<rect x="67.5" y="204.74" class="st1" width="8.39" height="8.39"/>
<rect x="67.5" y="196.35" class="st1" width="8.39" height="8.39"/>
<rect x="67.5" y="187.94" class="st1" width="8.39" height="8.41"/>
<rect x="67.5" y="179.54" class="st2" width="8.39" height="8.39"/>
<rect x="67.5" y="171.15" class="st2" width="8.39" height="8.39"/>
<rect x="67.5" y="162.76" class="st2" width="8.39" height="8.39"/>
<rect x="67.5" y="154.36" class="st1" width="8.39" height="8.39"/>
<rect x="59.1" y="196.35" class="st1" width="8.39" height="8.39"/>
<rect x="59.1" y="187.94" class="st1" width="8.39" height="8.41"/>
<rect x="59.1" y="179.54" class="st1" width="8.39" height="8.39"/>
<rect x="59.1" y="171.15" class="st1" width="8.39" height="8.39"/>
<rect x="59.1" y="162.76" class="st1" width="8.39" height="8.39"/>
</svg>
