<?xml version="1.0" encoding="utf-8"?>
<!-- Generator: Adobe Illustrator 30.0.0, SVG Export Plug-In . SVG Version: 9.03 Build 0)  -->
<svg version="1.1" id="Layer_1" xmlns="http://www.w3.org/2000/svg" xmlns:xlink="http://www.w3.org/1999/xlink" x="0px" y="0px"
	 viewBox="0 0 240 240" style="enable-background:new 0 0 240 240;" xml:space="preserve">
<style type="text/css">
	.st0{fill:#2B2B2B;}
	.st1{fill:#F3F3F3;}
	.st2{fill:#FFFFFF;}
	.st3{fill:#FF9C1E;}
	.st4{fill:#FFCE0B;}
</style>
<rect x="198.1" y="158.88" class="st0" width="7.1" height="7.1"/>
<rect x="198.1" y="151.78" class="st0" width="7.1" height="7.1"/>
<rect x="198.1" y="144.68" class="st0" width="7.1" height="7.1"/>
<rect x="198.1" y="137.58" class="st0" width="7.1" height="7.1"/>
<rect x="191" y="165.98" class="st0" width="7.1" height="7.1"/>
<rect x="191" y="158.88" class="st0" width="7.1" height="7.1"/>
<rect x="191" y="151.78" class="st1" width="7.1" height="7.1"/>
<rect x="191" y="144.68" class="st1" width="7.1" height="7.1"/>
<rect x="191" y="137.58" class="st0" width="7.1" height="7.1"/>
<rect x="191" y="130.48" class="st0" width="7.1" height="7.1"/>
<rect x="191" y="123.38" class="st0" width="7.1" height="7.1"/>
<rect x="191" y="116.28" class="st0" width="7.1" height="7.1"/>
<rect x="191" y="109.18" class="st0" width="7.1" height="7.1"/>
<rect x="191" y="102.08" class="st0" width="7.1" height="7.1"/>
<rect x="191" y="94.98" class="st0" width="7.1" height="7.1"/>
<rect x="183.9" y="173.08" class="st0" width="7.1" height="7.1"/>
<rect x="183.9" y="165.98" class="st0" width="7.1" height="7.1"/>
<rect x="183.9" y="158.88" class="st1" width="7.1" height="7.1"/>
<rect x="183.9" y="151.78" class="st1" width="7.1" height="7.1"/>
<rect x="183.9" y="144.68" class="st1" width="7.1" height="7.1"/>
<rect x="183.9" y="137.58" class="st1" width="7.1" height="7.1"/>
<rect x="183.9" y="130.48" class="st1" width="7.1" height="7.1"/>
<rect x="183.9" y="123.38" class="st1" width="7.1" height="7.1"/>
<rect x="183.9" y="116.28" class="st1" width="7.1" height="7.1"/>
<rect x="183.9" y="109.18" class="st1" width="7.1" height="7.1"/>
<rect x="183.9" y="102.08" class="st1" width="7.1" height="7.1"/>
<rect x="183.9" y="94.98" class="st0" width="7.1" height="7.1"/>
<rect x="183.9" y="87.88" class="st0" width="7.1" height="7.1"/>
<rect x="183.9" y="80.78" class="st0" width="7.1" height="7.1"/>
<rect x="176.8" y="180.18" class="st0" width="7.1" height="7.1"/>
<rect x="176.8" y="173.08" class="st0" width="7.1" height="7.1"/>
<rect x="176.8" y="165.98" class="st1" width="7.1" height="7.1"/>
<rect x="176.8" y="158.88" class="st1" width="7.1" height="7.1"/>
<rect x="176.8" y="151.78" class="st2" width="7.1" height="7.1"/>
<rect x="176.8" y="144.68" class="st2" width="7.1" height="7.1"/>
<rect x="176.8" y="137.58" class="st2" width="7.1" height="7.1"/>
<rect x="176.8" y="130.48" class="st2" width="7.1" height="7.1"/>
<rect x="176.8" y="123.38" class="st2" width="7.1" height="7.1"/>
<rect x="176.8" y="116.28" class="st2" width="7.1" height="7.1"/>
<rect x="176.8" y="109.18" class="st2" width="7.1" height="7.1"/>
<rect x="176.8" y="102.08" class="st1" width="7.1" height="7.1"/>
<rect x="176.8" y="94.98" class="st1" width="7.1" height="7.1"/>
<rect x="176.8" y="87.88" class="st1" width="7.1" height="7.1"/>
<rect x="176.8" y="80.78" class="st0" width="7.1" height="7.1"/>
<rect x="169.7" y="187.28" class="st0" width="7.1" height="7.1"/>
<rect x="169.7" y="180.18" class="st0" width="7.1" height="7.1"/>
<rect x="169.7" y="173.08" class="st1" width="7.1" height="7.1"/>
<rect x="169.7" y="165.98" class="st1" width="7.1" height="7.1"/>
<rect x="169.7" y="158.88" class="st2" width="7.1" height="7.1"/>
<rect x="169.7" y="151.78" class="st2" width="7.1" height="7.1"/>
<rect x="169.7" y="144.68" class="st1" width="7.1" height="7.1"/>
<rect x="169.7" y="137.58" class="st1" width="7.1" height="7.1"/>
<rect x="169.7" y="130.48" class="st1" width="7.1" height="7.1"/>
<rect x="169.7" y="123.38" class="st2" width="7.1" height="7.1"/>
<rect x="169.7" y="116.28" class="st2" width="7.1" height="7.1"/>
<rect x="169.7" y="109.18" class="st2" width="7.1" height="7.1"/>
<rect x="169.7" y="102.08" class="st2" width="7.1" height="7.1"/>
<rect x="169.7" y="94.98" class="st2" width="7.1" height="7.1"/>
<rect x="169.7" y="87.88" class="st2" width="7.1" height="7.1"/>
<rect x="169.7" y="80.78" class="st1" width="7.1" height="7.1"/>
<rect x="169.7" y="73.68" class="st0" width="7.1" height="7.1"/>
<rect x="169.7" y="66.58" class="st0" width="7.1" height="7.1"/>
<rect x="162.6" y="187.28" class="st0" width="7.1" height="7.1"/>
<rect x="162.6" y="180.18" class="st1" width="7.1" height="7.1"/>
<rect x="162.6" y="173.08" class="st1" width="7.1" height="7.1"/>
<rect x="162.6" y="165.98" class="st2" width="7.1" height="7.1"/>
<rect x="162.6" y="158.88" class="st2" width="7.1" height="7.1"/>
<rect x="162.6" y="151.78" class="st1" width="7.1" height="7.1"/>
<rect x="162.6" y="144.68" class="st1" width="7.1" height="7.1"/>
<rect x="162.6" y="137.58" class="st0" width="7.1" height="7.1"/>
<rect x="162.6" y="130.48" class="st0" width="7.1" height="7.1"/>
<rect x="162.6" y="123.38" class="st0" width="7.1" height="7.1"/>
<rect x="162.6" y="116.28" class="st2" width="7.1" height="7.1"/>
<rect x="162.6" y="109.18" class="st2" width="7.1" height="7.1"/>
<rect x="162.6" y="102.08" class="st2" width="7.1" height="7.1"/>
<rect x="162.6" y="94.98" class="st2" width="7.1" height="7.1"/>
<rect x="162.6" y="87.88" class="st2" width="7.1" height="7.1"/>
<rect x="162.6" y="80.78" class="st1" width="7.1" height="7.1"/>
<rect x="162.6" y="73.68" class="st1" width="7.1" height="7.1"/>
<rect x="162.6" y="66.58" class="st1" width="7.1" height="7.1"/>
<rect x="162.6" y="59.48" class="st0" width="7.1" height="7.1"/>
<rect x="155.5" y="187.28" class="st0" width="7.1" height="7.1"/>
<rect x="155.5" y="180.18" class="st1" width="7.1" height="7.1"/>
<rect x="155.5" y="173.08" class="st2" width="7.1" height="7.1"/>
<rect x="155.5" y="165.98" class="st2" width="7.1" height="7.1"/>
<rect x="155.5" y="158.88" class="st1" width="7.1" height="7.1"/>
<rect x="155.5" y="151.78" class="st1" width="7.1" height="7.1"/>
<rect x="155.5" y="144.68" class="st0" width="7.1" height="7.1"/>
<rect x="155.5" y="137.58" class="st3" width="7.1" height="7.1"/>
<rect x="155.5" y="130.48" class="st3" width="7.1" height="7.1"/>
<rect x="155.5" y="123.38" class="st4" width="7.1" height="7.1"/>
<rect x="155.5" y="116.28" class="st0" width="7.1" height="7.1"/>
<rect x="155.5" y="109.18" class="st2" width="7.1" height="7.1"/>
<rect x="155.5" y="102.08" class="st2" width="7.1" height="7.1"/>
<rect x="155.5" y="94.98" class="st2" width="7.1" height="7.1"/>
<rect x="155.5" y="87.88" class="st2" width="7.1" height="7.1"/>
<rect x="155.5" y="80.78" class="st2" width="7.1" height="7.1"/>
<rect x="155.5" y="73.68" class="st1" width="7.1" height="7.1"/>
<rect x="155.5" y="66.58" class="st1" width="7.1" height="7.1"/>
<rect x="155.5" y="59.48" class="st0" width="7.1" height="7.1"/>
<rect x="148.4" y="187.28" class="st0" width="7.1" height="7.1"/>
<rect x="148.4" y="180.18" class="st1" width="7.1" height="7.1"/>
<rect x="148.4" y="173.08" class="st2" width="7.1" height="7.1"/>
<rect x="148.4" y="165.98" class="st2" width="7.1" height="7.1"/>
<rect x="148.4" y="158.88" class="st1" width="7.1" height="7.1"/>
<rect x="148.4" y="151.78" class="st0" width="7.1" height="7.1"/>
<rect x="148.4" y="144.68" class="st3" width="7.1" height="7.1"/>
<rect x="148.4" y="137.58" class="st4" width="7.1" height="7.1"/>
<rect x="148.4" y="130.48" class="st4" width="7.1" height="7.1"/>
<rect x="148.4" y="123.38" class="st4" width="7.1" height="7.1"/>
<rect x="148.4" y="116.28" class="st4" width="7.1" height="7.1"/>
<rect x="148.4" y="109.18" class="st0" width="7.1" height="7.1"/>
<rect x="148.4" y="102.08" class="st2" width="7.1" height="7.1"/>
<rect x="148.4" y="94.98" class="st2" width="7.1" height="7.1"/>
<rect x="148.4" y="87.88" class="st2" width="7.1" height="7.1"/>
<rect x="148.4" y="80.78" class="st1" width="7.1" height="7.1"/>
<rect x="148.4" y="73.68" class="st1" width="7.1" height="7.1"/>
<rect x="148.4" y="66.58" class="st1" width="7.1" height="7.1"/>
<rect x="148.4" y="59.48" class="st0" width="7.1" height="7.1"/>
<rect x="148.4" y="52.38" class="st0" width="7.1" height="7.1"/>
<rect x="141.3" y="187.28" class="st0" width="7.1" height="7.1"/>
<rect x="141.3" y="180.18" class="st1" width="7.1" height="7.1"/>
<rect x="141.3" y="173.08" class="st2" width="7.1" height="7.1"/>
<rect x="141.3" y="165.98" class="st2" width="7.1" height="7.1"/>
<rect x="141.3" y="158.88" class="st1" width="7.1" height="7.1"/>
<rect x="141.3" y="151.78" class="st0" width="7.1" height="7.1"/>
<rect x="141.3" y="144.68" class="st3" width="7.1" height="7.1"/>
<rect x="141.3" y="137.58" class="st4" width="7.1" height="7.1"/>
<rect x="141.3" y="130.48" class="st4" width="7.1" height="7.1"/>
<rect x="141.3" y="123.38" class="st4" width="7.1" height="7.1"/>
<rect x="141.3" y="116.28" class="st4" width="7.1" height="7.1"/>
<rect x="141.3" y="109.18" class="st0" width="7.1" height="7.1"/>
<rect x="141.3" y="102.08" class="st2" width="7.1" height="7.1"/>
<rect x="141.3" y="94.98" class="st2" width="7.1" height="7.1"/>
<rect x="141.3" y="87.88" class="st2" width="7.1" height="7.1"/>
<rect x="141.3" y="80.78" class="st1" width="7.1" height="7.1"/>
<rect x="141.3" y="73.68" class="st1" width="7.1" height="7.1"/>
<rect x="141.3" y="66.58" class="st1" width="7.1" height="7.1"/>
<rect x="141.3" y="59.48" class="st1" width="7.1" height="7.1"/>
<rect x="141.3" y="52.38" class="st0" width="7.1" height="7.1"/>
<rect x="134.2" y="187.28" class="st0" width="7.1" height="7.1"/>
<rect x="134.2" y="180.18" class="st1" width="7.1" height="7.1"/>
<rect x="134.2" y="173.08" class="st1" width="7.1" height="7.1"/>
<rect x="134.2" y="165.98" class="st2" width="7.1" height="7.1"/>
<rect x="134.2" y="158.88" class="st1" width="7.1" height="7.1"/>
<rect x="134.2" y="151.78" class="st0" width="7.1" height="7.1"/>
<rect x="134.2" y="144.68" class="st3" width="7.1" height="7.1"/>
<rect x="134.2" y="137.58" class="st4" width="7.1" height="7.1"/>
<rect x="134.2" y="130.48" class="st4" width="7.1" height="7.1"/>
<rect x="134.2" y="123.38" class="st4" width="7.1" height="7.1"/>
<rect x="134.2" y="116.28" class="st4" width="7.1" height="7.1"/>
<rect x="134.2" y="109.18" class="st0" width="7.1" height="7.1"/>
<rect x="134.2" y="102.08" class="st2" width="7.1" height="7.1"/>
<rect x="134.2" y="94.98" class="st2" width="7.1" height="7.1"/>
<rect x="134.2" y="87.88" class="st1" width="7.1" height="7.1"/>
<rect x="134.2" y="80.78" class="st1" width="7.1" height="7.1"/>
<rect x="134.2" y="73.68" class="st1" width="7.1" height="7.1"/>
<rect x="134.2" y="66.58" class="st1" width="7.1" height="7.1"/>
<rect x="134.2" y="59.48" class="st1" width="7.1" height="7.1"/>
<rect x="134.2" y="52.38" class="st0" width="7.1" height="7.1"/>
<rect x="127.1" y="187.28" class="st0" width="7.1" height="7.1"/>
<rect x="127.1" y="180.18" class="st0" width="7.1" height="7.1"/>
<rect x="127.1" y="173.08" class="st1" width="7.1" height="7.1"/>
<rect x="127.1" y="165.98" class="st2" width="7.1" height="7.1"/>
<rect x="127.1" y="158.88" class="st1" width="7.1" height="7.1"/>
<rect x="127.1" y="151.78" class="st1" width="7.1" height="7.1"/>
<rect x="127.1" y="144.68" class="st0" width="7.1" height="7.1"/>
<rect x="127.1" y="137.58" class="st3" width="7.1" height="7.1"/>
<rect x="127.1" y="130.48" class="st4" width="7.1" height="7.1"/>
<rect x="127.1" y="123.38" class="st4" width="7.1" height="7.1"/>
<rect x="127.1" y="116.28" class="st0" width="7.1" height="7.1"/>
<rect x="127.1" y="109.18" class="st2" width="7.1" height="7.1"/>
<rect x="127.1" y="102.08" class="st2" width="7.1" height="7.1"/>
<rect x="127.1" y="94.98" class="st2" width="7.1" height="7.1"/>
<rect x="127.1" y="87.88" class="st1" width="7.1" height="7.1"/>
<rect x="127.1" y="80.78" class="st1" width="7.1" height="7.1"/>
<rect x="127.1" y="73.68" class="st1" width="7.1" height="7.1"/>
<rect x="127.1" y="66.58" class="st1" width="7.1" height="7.1"/>
<rect x="127.1" y="59.48" class="st1" width="7.1" height="7.1"/>
<rect x="127.1" y="52.38" class="st0" width="7.1" height="7.1"/>
<rect x="120" y="180.18" class="st0" width="7.1" height="7.1"/>
<rect x="120" y="173.08" class="st1" width="7.1" height="7.1"/>
<rect x="120" y="165.98" class="st2" width="7.1" height="7.1"/>
<rect x="120" y="158.88" class="st2" width="7.1" height="7.1"/>
<rect x="120" y="151.78" class="st1" width="7.1" height="7.1"/>
<rect x="120" y="144.68" class="st1" width="7.1" height="7.1"/>
<rect x="120" y="137.58" class="st0" width="7.1" height="7.1"/>
<rect x="120" y="130.48" class="st0" width="7.1" height="7.1"/>
<rect x="120" y="123.38" class="st0" width="7.1" height="7.1"/>
<rect x="120" y="116.28" class="st2" width="7.1" height="7.1"/>
<rect x="120" y="109.18" class="st2" width="7.1" height="7.1"/>
<rect x="120" y="102.08" class="st2" width="7.1" height="7.1"/>
<rect x="120" y="94.98" class="st2" width="7.1" height="7.1"/>
<rect x="120" y="87.88" class="st1" width="7.1" height="7.1"/>
<rect x="120" y="80.78" class="st1" width="7.1" height="7.1"/>
<rect x="120" y="73.68" class="st1" width="7.1" height="7.1"/>
<rect x="120" y="66.58" class="st1" width="7.1" height="7.1"/>
<rect x="120" y="59.48" class="st1" width="7.1" height="7.1"/>
<rect x="120" y="52.38" class="st0" width="7.1" height="7.1"/>
<rect x="112.9" y="180.18" class="st0" width="7.1" height="7.1"/>
<rect x="112.9" y="173.08" class="st0" width="7.1" height="7.1"/>
<rect x="112.9" y="165.98" class="st1" width="7.1" height="7.1"/>
<rect x="112.9" y="158.88" class="st2" width="7.1" height="7.1"/>
<rect x="112.9" y="151.78" class="st2" width="7.1" height="7.1"/>
<rect x="112.9" y="144.68" class="st1" width="7.1" height="7.1"/>
<rect x="112.9" y="137.58" class="st1" width="7.1" height="7.1"/>
<rect x="112.9" y="130.48" class="st2" width="7.1" height="7.1"/>
<rect x="112.9" y="123.38" class="st2" width="7.1" height="7.1"/>
<rect x="112.9" y="116.28" class="st2" width="7.1" height="7.1"/>
<rect x="112.9" y="109.18" class="st2" width="7.1" height="7.1"/>
<rect x="112.9" y="102.08" class="st2" width="7.1" height="7.1"/>
<rect x="112.9" y="94.98" class="st2" width="7.1" height="7.1"/>
<rect x="112.9" y="87.88" class="st1" width="7.1" height="7.1"/>
<rect x="112.9" y="80.78" class="st1" width="7.1" height="7.1"/>
<rect x="112.9" y="73.68" class="st1" width="7.1" height="7.1"/>
<rect x="112.9" y="66.58" class="st1" width="7.1" height="7.1"/>
<rect x="112.9" y="59.48" class="st0" width="7.1" height="7.1"/>
<rect x="112.9" y="52.38" class="st0" width="7.1" height="7.1"/>
<rect x="105.8" y="173.08" class="st0" width="7.1" height="7.1"/>
<rect x="105.8" y="165.98" class="st0" width="7.1" height="7.1"/>
<rect x="105.8" y="158.88" class="st1" width="7.1" height="7.1"/>
<rect x="105.8" y="151.78" class="st2" width="7.1" height="7.1"/>
<rect x="105.8" y="144.68" class="st2" width="7.1" height="7.1"/>
<rect x="105.8" y="137.58" class="st2" width="7.1" height="7.1"/>
<rect x="105.8" y="130.48" class="st2" width="7.1" height="7.1"/>
<rect x="105.8" y="123.38" class="st2" width="7.1" height="7.1"/>
<rect x="105.8" y="116.28" class="st2" width="7.1" height="7.1"/>
<rect x="105.8" y="109.18" class="st2" width="7.1" height="7.1"/>
<rect x="105.8" y="102.08" class="st2" width="7.1" height="7.1"/>
<rect x="105.8" y="94.98" class="st1" width="7.1" height="7.1"/>
<rect x="105.8" y="87.88" class="st1" width="7.1" height="7.1"/>
<rect x="105.8" y="80.78" class="st1" width="7.1" height="7.1"/>
<rect x="105.8" y="73.68" class="st1" width="7.1" height="7.1"/>
<rect x="105.8" y="66.58" class="st1" width="7.1" height="7.1"/>
<rect x="105.8" y="59.48" class="st0" width="7.1" height="7.1"/>
<rect x="98.7" y="165.98" class="st0" width="7.1" height="7.1"/>
<rect x="98.7" y="158.88" class="st1" width="7.1" height="7.1"/>
<rect x="98.7" y="151.78" class="st1" width="7.1" height="7.1"/>
<rect x="98.7" y="144.68" class="st2" width="7.1" height="7.1"/>
<rect x="98.7" y="137.58" class="st2" width="7.1" height="7.1"/>
<rect x="98.7" y="130.48" class="st2" width="7.1" height="7.1"/>
<rect x="98.7" y="123.38" class="st2" width="7.1" height="7.1"/>
<rect x="98.7" y="116.28" class="st2" width="7.1" height="7.1"/>
<rect x="98.7" y="109.18" class="st2" width="7.1" height="7.1"/>
<rect x="98.7" y="102.08" class="st2" width="7.1" height="7.1"/>
<rect x="98.7" y="94.98" class="st1" width="7.1" height="7.1"/>
<rect x="98.7" y="87.88" class="st1" width="7.1" height="7.1"/>
<rect x="98.7" y="80.78" class="st1" width="7.1" height="7.1"/>
<rect x="98.7" y="73.68" class="st1" width="7.1" height="7.1"/>
<rect x="98.7" y="66.58" class="st1" width="7.1" height="7.1"/>
<rect x="98.7" y="59.48" class="st0" width="7.1" height="7.1"/>
<rect x="91.6" y="165.98" class="st0" width="7.1" height="7.1"/>
<rect x="91.6" y="158.88" class="st0" width="7.1" height="7.1"/>
<rect x="91.6" y="151.78" class="st1" width="7.1" height="7.1"/>
<rect x="91.6" y="144.68" class="st2" width="7.1" height="7.1"/>
<rect x="91.6" y="137.58" class="st2" width="7.1" height="7.1"/>
<rect x="91.6" y="130.48" class="st2" width="7.1" height="7.1"/>
<rect x="91.6" y="123.38" class="st2" width="7.1" height="7.1"/>
<rect x="91.6" y="116.28" class="st2" width="7.1" height="7.1"/>
<rect x="91.6" y="109.18" class="st2" width="7.1" height="7.1"/>
<rect x="91.6" y="102.08" class="st2" width="7.1" height="7.1"/>
<rect x="91.6" y="94.98" class="st1" width="7.1" height="7.1"/>
<rect x="91.6" y="87.88" class="st1" width="7.1" height="7.1"/>
<rect x="91.6" y="80.78" class="st1" width="7.1" height="7.1"/>
<rect x="91.6" y="73.68" class="st1" width="7.1" height="7.1"/>
<rect x="91.6" y="66.58" class="st0" width="7.1" height="7.1"/>
<rect x="91.6" y="59.48" class="st0" width="7.1" height="7.1"/>
<rect x="84.5" y="158.88" class="st0" width="7.1" height="7.1"/>
<rect x="84.5" y="151.78" class="st1" width="7.1" height="7.1"/>
<rect x="84.5" y="144.68" class="st2" width="7.1" height="7.1"/>
<rect x="84.5" y="137.58" class="st2" width="7.1" height="7.1"/>
<rect x="84.5" y="130.48" class="st2" width="7.1" height="7.1"/>
<rect x="84.5" y="123.38" class="st2" width="7.1" height="7.1"/>
<rect x="84.5" y="116.28" class="st2" width="7.1" height="7.1"/>
<rect x="84.5" y="109.18" class="st2" width="7.1" height="7.1"/>
<rect x="84.5" y="102.08" class="st2" width="7.1" height="7.1"/>
<rect x="84.5" y="94.98" class="st1" width="7.1" height="7.1"/>
<rect x="84.5" y="87.88" class="st1" width="7.1" height="7.1"/>
<rect x="84.5" y="80.78" class="st1" width="7.1" height="7.1"/>
<rect x="84.5" y="73.68" class="st1" width="7.1" height="7.1"/>
<rect x="84.5" y="66.58" class="st0" width="7.1" height="7.1"/>
<rect x="77.4" y="165.98" class="st0" width="7.1" height="7.1"/>
<rect x="77.4" y="158.88" class="st1" width="7.1" height="7.1"/>
<rect x="77.4" y="151.78" class="st1" width="7.1" height="7.1"/>
<rect x="77.4" y="144.68" class="st2" width="7.1" height="7.1"/>
<rect x="77.4" y="137.58" class="st2" width="7.1" height="7.1"/>
<rect x="77.4" y="130.48" class="st2" width="7.1" height="7.1"/>
<rect x="77.4" y="123.38" class="st2" width="7.1" height="7.1"/>
<rect x="77.4" y="116.28" class="st2" width="7.1" height="7.1"/>
<rect x="77.4" y="109.18" class="st2" width="7.1" height="7.1"/>
<rect x="77.4" y="102.08" class="st2" width="7.1" height="7.1"/>
<rect x="77.4" y="94.98" class="st1" width="7.1" height="7.1"/>
<rect x="77.4" y="87.88" class="st1" width="7.1" height="7.1"/>
<rect x="77.4" y="80.78" class="st1" width="7.1" height="7.1"/>
<rect x="77.4" y="73.68" class="st1" width="7.1" height="7.1"/>
<rect x="77.4" y="66.58" class="st0" width="7.1" height="7.1"/>
<rect x="70.3" y="165.98" class="st0" width="7.1" height="7.1"/>
<rect x="70.3" y="158.88" class="st0" width="7.1" height="7.1"/>
<rect x="70.3" y="151.78" class="st1" width="7.1" height="7.1"/>
<rect x="70.3" y="144.68" class="st1" width="7.1" height="7.1"/>
<rect x="70.3" y="137.58" class="st2" width="7.1" height="7.1"/>
<rect x="70.3" y="130.48" class="st2" width="7.1" height="7.1"/>
<rect x="70.3" y="123.38" class="st2" width="7.1" height="7.1"/>
<rect x="70.3" y="116.28" class="st2" width="7.1" height="7.1"/>
<rect x="70.3" y="109.18" class="st2" width="7.1" height="7.1"/>
<rect x="70.3" y="102.08" class="st2" width="7.1" height="7.1"/>
<rect x="70.3" y="94.98" class="st1" width="7.1" height="7.1"/>
<rect x="70.3" y="87.88" class="st1" width="7.1" height="7.1"/>
<rect x="70.3" y="80.78" class="st1" width="7.1" height="7.1"/>
<rect x="70.3" y="73.68" class="st0" width="7.1" height="7.1"/>
<rect x="70.3" y="66.58" class="st0" width="7.1" height="7.1"/>
<rect x="63.2" y="158.88" class="st0" width="7.1" height="7.1"/>
<rect x="63.2" y="151.78" class="st1" width="7.1" height="7.1"/>
<rect x="63.2" y="144.68" class="st2" width="7.1" height="7.1"/>
<rect x="63.2" y="137.58" class="st2" width="7.1" height="7.1"/>
<rect x="63.2" y="130.48" class="st2" width="7.1" height="7.1"/>
<rect x="63.2" y="123.38" class="st2" width="7.1" height="7.1"/>
<rect x="63.2" y="116.28" class="st2" width="7.1" height="7.1"/>
<rect x="63.2" y="109.18" class="st2" width="7.1" height="7.1"/>
<rect x="63.2" y="102.08" class="st1" width="7.1" height="7.1"/>
<rect x="63.2" y="94.98" class="st1" width="7.1" height="7.1"/>
<rect x="63.2" y="87.88" class="st1" width="7.1" height="7.1"/>
<rect x="63.2" y="80.78" class="st1" width="7.1" height="7.1"/>
<rect x="63.2" y="73.68" class="st0" width="7.1" height="7.1"/>
<rect x="56.1" y="158.88" class="st0" width="7.1" height="7.1"/>
<rect x="56.1" y="151.78" class="st1" width="7.1" height="7.1"/>
<rect x="56.1" y="144.68" class="st2" width="7.1" height="7.1"/>
<rect x="56.1" y="137.58" class="st2" width="7.1" height="7.1"/>
<rect x="56.1" y="130.48" class="st2" width="7.1" height="7.1"/>
<rect x="56.1" y="123.38" class="st2" width="7.1" height="7.1"/>
<rect x="56.1" y="116.28" class="st2" width="7.1" height="7.1"/>
<rect x="56.1" y="109.18" class="st2" width="7.1" height="7.1"/>
<rect x="56.1" y="102.08" class="st1" width="7.1" height="7.1"/>
<rect x="56.1" y="94.98" class="st1" width="7.1" height="7.1"/>
<rect x="56.1" y="87.88" class="st1" width="7.1" height="7.1"/>
<rect x="56.1" y="80.78" class="st0" width="7.1" height="7.1"/>
<rect x="56.1" y="73.68" class="st0" width="7.1" height="7.1"/>
<rect x="49" y="158.88" class="st0" width="7.1" height="7.1"/>
<rect x="49" y="151.78" class="st0" width="7.1" height="7.1"/>
<rect x="49" y="144.68" class="st1" width="7.1" height="7.1"/>
<rect x="49" y="137.58" class="st2" width="7.1" height="7.1"/>
<rect x="49" y="130.48" class="st2" width="7.1" height="7.1"/>
<rect x="49" y="123.38" class="st2" width="7.1" height="7.1"/>
<rect x="49" y="116.28" class="st1" width="7.1" height="7.1"/>
<rect x="49" y="109.18" class="st1" width="7.1" height="7.1"/>
<rect x="49" y="102.08" class="st1" width="7.1" height="7.1"/>
<rect x="49" y="94.98" class="st1" width="7.1" height="7.1"/>
<rect x="49" y="87.88" class="st0" width="7.1" height="7.1"/>
<rect x="49" y="80.78" class="st0" width="7.1" height="7.1"/>
<rect x="41.9" y="151.78" class="st0" width="7.1" height="7.1"/>
<rect x="41.9" y="144.68" class="st0" width="7.1" height="7.1"/>
<rect x="41.9" y="137.58" class="st1" width="7.1" height="7.1"/>
<rect x="41.9" y="130.48" class="st1" width="7.1" height="7.1"/>
<rect x="41.9" y="123.38" class="st1" width="7.1" height="7.1"/>
<rect x="41.9" y="116.28" class="st1" width="7.1" height="7.1"/>
<rect x="41.9" y="109.18" class="st0" width="7.1" height="7.1"/>
<rect x="41.9" y="102.08" class="st0" width="7.1" height="7.1"/>
<rect x="41.9" y="94.98" class="st0" width="7.1" height="7.1"/>
<rect x="41.9" y="87.88" class="st0" width="7.1" height="7.1"/>
<rect x="34.8" y="144.68" class="st0" width="7.1" height="7.1"/>
<rect x="34.8" y="137.58" class="st0" width="7.1" height="7.1"/>
<rect x="34.8" y="130.48" class="st0" width="7.1" height="7.1"/>
<rect x="34.8" y="123.38" class="st0" width="7.1" height="7.1"/>
<rect x="34.8" y="116.28" class="st0" width="7.1" height="7.1"/>
<rect x="34.8" y="109.18" class="st0" width="7.1" height="7.1"/>
</svg>
