<?xml version="1.0" encoding="utf-8"?>
<!-- Generator: Adobe Illustrator 30.0.0, SVG Export Plug-In . SVG Version: 9.03 Build 0)  -->
<svg version="1.1" id="Layer_1" xmlns="http://www.w3.org/2000/svg" xmlns:xlink="http://www.w3.org/1999/xlink" x="0px" y="0px"
	 viewBox="0 0 240 240" style="enable-background:new 0 0 240 240;" xml:space="preserve">
<style type="text/css">
	.st0{fill:#8C3F00;}
	.st1{fill:#FF9700;}
	.st2{fill:#ECEEEE;}
	.st3{fill:#FD2A5C;}
	.st4{fill:#FFD300;}
	.st5{fill:#FDDEA7;}
	.st6{fill:#FC5F88;}
	.st7{fill:#AAB8BB;}
	.st8{fill:#D50E48;}
	.st9{fill:#06995A;}
</style>
<rect x="187.44" y="62.87" class="st0" width="7.29" height="7.29"/>
<rect x="187.44" y="55.58" class="st1" width="7.29" height="7.29"/>
<rect x="187.44" y="48.29" class="st1" width="7.29" height="7.29"/>
<rect x="180.15" y="70.16" class="st0" width="7.29" height="7.29"/>
<rect x="180.15" y="62.87" class="st0" width="7.29" height="7.29"/>
<rect x="180.15" y="55.58" class="st0" width="7.29" height="7.29"/>
<rect x="180.15" y="48.29" class="st1" width="7.29" height="7.29"/>
<rect x="172.86" y="150.36" class="st2" width="7.29" height="7.29"/>
<rect x="172.86" y="143.07" class="st2" width="7.29" height="7.29"/>
<rect x="172.86" y="135.78" class="st2" width="7.29" height="7.29"/>
<rect x="172.86" y="128.49" class="st2" width="7.29" height="7.29"/>
<rect x="172.86" y="121.2" class="st2" width="7.29" height="7.29"/>
<rect x="172.86" y="113.91" class="st2" width="7.29" height="7.29"/>
<rect x="172.86" y="106.62" class="st2" width="7.29" height="7.29"/>
<rect x="172.86" y="84.74" class="st0" width="7.29" height="7.29"/>
<rect x="172.86" y="77.45" class="st1" width="7.29" height="7.29"/>
<rect x="172.86" y="70.16" class="st1" width="7.29" height="7.29"/>
<rect x="172.86" y="62.87" class="st0" width="7.29" height="7.29"/>
<rect x="172.86" y="55.58" class="st0" width="7.29" height="7.29"/>
<rect x="165.57" y="150.36" class="st2" width="7.29" height="7.29"/>
<rect x="165.57" y="143.07" class="st2" width="7.29" height="7.29"/>
<rect x="165.57" y="135.78" class="st2" width="7.29" height="7.29"/>
<rect x="165.57" y="128.49" class="st2" width="7.29" height="7.29"/>
<rect x="165.57" y="121.2" class="st2" width="7.29" height="7.29"/>
<rect x="165.57" y="113.91" class="st2" width="7.29" height="7.29"/>
<rect x="165.57" y="106.62" class="st2" width="7.29" height="7.29"/>
<rect x="165.57" y="92.04" class="st0" width="7.29" height="7.29"/>
<rect x="165.57" y="84.74" class="st0" width="7.29" height="7.29"/>
<rect x="165.57" y="77.45" class="st0" width="7.29" height="7.29"/>
<rect x="165.57" y="70.16" class="st1" width="7.29" height="7.29"/>
<rect x="165.57" y="62.87" class="st0" width="7.29" height="7.29"/>
<rect x="158.26" y="150.36" class="st2" width="7.31" height="7.29"/>
<rect x="158.26" y="143.07" class="st2" width="7.31" height="7.29"/>
<rect x="158.26" y="135.78" class="st0" width="7.31" height="7.29"/>
<rect x="158.26" y="128.49" class="st1" width="7.31" height="7.29"/>
<rect x="158.26" y="121.2" class="st3" width="7.31" height="7.29"/>
<rect x="158.26" y="113.91" class="st1" width="7.31" height="7.29"/>
<rect x="158.26" y="106.62" class="st4" width="7.31" height="7.29"/>
<rect x="158.26" y="99.33" class="st1" width="7.31" height="7.29"/>
<rect x="158.26" y="92.04" class="st1" width="7.31" height="7.29"/>
<rect x="158.26" y="84.74" class="st0" width="7.31" height="7.29"/>
<rect x="158.26" y="77.45" class="st0" width="7.31" height="7.29"/>
<rect x="158.26" y="70.16" class="st0" width="7.31" height="7.29"/>
<rect x="150.97" y="150.36" class="st2" width="7.29" height="7.29"/>
<rect x="150.97" y="143.07" class="st2" width="7.29" height="7.29"/>
<rect x="150.97" y="135.78" class="st0" width="7.29" height="7.29"/>
<rect x="150.97" y="128.49" class="st1" width="7.29" height="7.29"/>
<rect x="150.97" y="121.2" class="st3" width="7.29" height="7.29"/>
<rect x="150.97" y="113.91" class="st1" width="7.29" height="7.29"/>
<rect x="150.97" y="106.62" class="st4" width="7.29" height="7.29"/>
<rect x="150.97" y="99.33" class="st0" width="7.29" height="7.29"/>
<rect x="150.97" y="92.04" class="st1" width="7.29" height="7.29"/>
<rect x="150.97" y="84.74" class="st0" width="7.29" height="7.29"/>
<rect x="150.97" y="77.45" class="st2" width="7.29" height="7.29"/>
<rect x="143.68" y="208.71" class="st2" width="7.29" height="7.29"/>
<rect x="143.68" y="150.36" class="st2" width="7.29" height="7.29"/>
<rect x="143.68" y="143.07" class="st2" width="7.29" height="7.29"/>
<rect x="143.68" y="135.78" class="st0" width="7.29" height="7.29"/>
<rect x="143.68" y="128.49" class="st1" width="7.29" height="7.29"/>
<rect x="143.68" y="121.2" class="st3" width="7.29" height="7.29"/>
<rect x="143.68" y="113.91" class="st1" width="7.29" height="7.29"/>
<rect x="143.68" y="106.62" class="st4" width="7.29" height="7.29"/>
<rect x="143.68" y="99.33" class="st0" width="7.29" height="7.29"/>
<rect x="143.68" y="92.04" class="st0" width="7.29" height="7.29"/>
<rect x="143.68" y="84.74" class="st2" width="7.29" height="7.29"/>
<rect x="143.68" y="77.45" class="st2" width="7.29" height="7.29"/>
<rect x="143.68" y="70.16" class="st5" width="7.29" height="7.29"/>
<rect x="143.68" y="62.87" class="st2" width="7.29" height="7.29"/>
<rect x="143.68" y="55.58" class="st2" width="7.29" height="7.29"/>
<rect x="136.39" y="208.71" class="st2" width="7.29" height="7.29"/>
<rect x="136.39" y="201.42" class="st2" width="7.29" height="7.29"/>
<rect x="136.39" y="150.36" class="st2" width="7.29" height="7.29"/>
<rect x="136.39" y="143.07" class="st2" width="7.29" height="7.29"/>
<rect x="136.39" y="135.78" class="st0" width="7.29" height="7.29"/>
<rect x="136.39" y="128.49" class="st1" width="7.29" height="7.29"/>
<rect x="136.39" y="121.2" class="st3" width="7.29" height="7.29"/>
<rect x="136.39" y="113.91" class="st1" width="7.29" height="7.29"/>
<rect x="136.39" y="106.62" class="st4" width="7.29" height="7.29"/>
<rect x="136.39" y="99.33" class="st0" width="7.29" height="7.29"/>
<rect x="136.39" y="92.04" class="st5" width="7.29" height="7.29"/>
<rect x="136.39" y="84.74" class="st2" width="7.29" height="7.29"/>
<rect x="136.39" y="77.45" class="st2" width="7.29" height="7.29"/>
<rect x="136.39" y="70.16" class="st2" width="7.29" height="7.29"/>
<rect x="136.39" y="62.87" class="st2" width="7.29" height="7.29"/>
<rect x="136.39" y="55.58" class="st2" width="7.29" height="7.29"/>
<rect x="136.39" y="48.29" class="st2" width="7.29" height="7.29"/>
<rect x="129.1" y="208.71" class="st2" width="7.29" height="7.29"/>
<rect x="129.1" y="201.42" class="st2" width="7.29" height="7.29"/>
<rect x="129.1" y="194.13" class="st2" width="7.29" height="7.29"/>
<rect x="129.1" y="150.36" class="st2" width="7.29" height="7.29"/>
<rect x="129.1" y="143.07" class="st2" width="7.29" height="7.29"/>
<rect x="129.1" y="135.78" class="st0" width="7.29" height="7.29"/>
<rect x="129.1" y="128.49" class="st1" width="7.29" height="7.29"/>
<rect x="129.1" y="121.2" class="st3" width="7.29" height="7.29"/>
<rect x="129.1" y="113.91" class="st1" width="7.29" height="7.29"/>
<rect x="129.1" y="106.62" class="st4" width="7.29" height="7.29"/>
<rect x="129.1" y="99.33" class="st6" width="7.29" height="7.29"/>
<rect x="129.1" y="92.04" class="st6" width="7.29" height="7.29"/>
<rect x="129.1" y="84.74" class="st2" width="7.29" height="7.29"/>
<rect x="129.1" y="77.45" class="st2" width="7.29" height="7.29"/>
<rect x="129.1" y="70.16" class="st2" width="7.29" height="7.29"/>
<rect x="129.1" y="62.87" class="st5" width="7.29" height="7.29"/>
<rect x="129.1" y="55.58" class="st1" width="7.29" height="7.29"/>
<rect x="129.1" y="48.29" class="st5" width="7.29" height="7.29"/>
<rect x="129.1" y="41" class="st2" width="7.29" height="7.29"/>
<rect x="129.1" y="33.71" class="st5" width="7.29" height="7.29"/>
<rect x="129.1" y="26.4" class="st5" width="7.29" height="7.31"/>
<rect x="121.81" y="208.71" class="st2" width="7.29" height="7.29"/>
<rect x="121.81" y="201.42" class="st2" width="7.29" height="7.29"/>
<rect x="121.81" y="194.13" class="st2" width="7.29" height="7.29"/>
<rect x="121.81" y="186.84" class="st2" width="7.29" height="7.29"/>
<rect x="121.81" y="179.54" class="st2" width="7.29" height="7.29"/>
<rect x="121.81" y="172.24" class="st2" width="7.29" height="7.31"/>
<rect x="121.81" y="164.95" class="st2" width="7.29" height="7.29"/>
<rect x="121.81" y="157.66" class="st7" width="7.29" height="7.29"/>
<rect x="121.81" y="150.36" class="st2" width="7.29" height="7.29"/>
<rect x="121.81" y="143.07" class="st2" width="7.29" height="7.29"/>
<rect x="121.81" y="135.78" class="st0" width="7.29" height="7.29"/>
<rect x="121.81" y="128.49" class="st1" width="7.29" height="7.29"/>
<rect x="121.81" y="121.2" class="st3" width="7.29" height="7.29"/>
<rect x="121.81" y="113.91" class="st1" width="7.29" height="7.29"/>
<rect x="121.81" y="106.62" class="st4" width="7.29" height="7.29"/>
<rect x="121.81" y="99.33" class="st6" width="7.29" height="7.29"/>
<rect x="121.81" y="92.04" class="st6" width="7.29" height="7.29"/>
<rect x="121.81" y="84.74" class="st6" width="7.29" height="7.29"/>
<rect x="121.81" y="77.45" class="st2" width="7.29" height="7.29"/>
<rect x="121.81" y="70.16" class="st2" width="7.29" height="7.29"/>
<rect x="121.81" y="62.87" class="st5" width="7.29" height="7.29"/>
<rect x="121.81" y="55.58" class="st1" width="7.29" height="7.29"/>
<rect x="121.81" y="48.29" class="st2" width="7.29" height="7.29"/>
<rect x="121.81" y="41" class="st5" width="7.29" height="7.29"/>
<rect x="121.81" y="33.71" class="st5" width="7.29" height="7.29"/>
<rect x="121.81" y="26.4" class="st5" width="7.29" height="7.31"/>
<rect x="114.52" y="208.71" class="st2" width="7.29" height="7.29"/>
<rect x="114.52" y="201.42" class="st2" width="7.29" height="7.29"/>
<rect x="114.52" y="194.13" class="st2" width="7.29" height="7.29"/>
<rect x="114.52" y="186.84" class="st2" width="7.29" height="7.29"/>
<rect x="114.52" y="179.54" class="st2" width="7.29" height="7.29"/>
<rect x="114.52" y="172.24" class="st2" width="7.29" height="7.31"/>
<rect x="114.52" y="164.95" class="st2" width="7.29" height="7.29"/>
<rect x="114.52" y="157.66" class="st7" width="7.29" height="7.29"/>
<rect x="114.52" y="150.36" class="st2" width="7.29" height="7.29"/>
<rect x="114.52" y="143.07" class="st2" width="7.29" height="7.29"/>
<rect x="114.52" y="135.78" class="st0" width="7.29" height="7.29"/>
<rect x="114.52" y="128.49" class="st1" width="7.29" height="7.29"/>
<rect x="114.52" y="121.2" class="st3" width="7.29" height="7.29"/>
<rect x="114.52" y="113.91" class="st1" width="7.29" height="7.29"/>
<rect x="114.52" y="106.62" class="st4" width="7.29" height="7.29"/>
<rect x="114.52" y="99.33" class="st8" width="7.29" height="7.29"/>
<rect x="114.52" y="92.04" class="st8" width="7.29" height="7.29"/>
<rect x="114.52" y="84.74" class="st6" width="7.29" height="7.29"/>
<rect x="114.52" y="77.45" class="st2" width="7.29" height="7.29"/>
<rect x="114.52" y="70.16" class="st5" width="7.29" height="7.29"/>
<rect x="114.52" y="62.87" class="st1" width="7.29" height="7.29"/>
<rect x="114.52" y="55.58" class="st2" width="7.29" height="7.29"/>
<rect x="114.52" y="48.29" class="st2" width="7.29" height="7.29"/>
<rect x="114.52" y="41" class="st5" width="7.29" height="7.29"/>
<rect x="107.23" y="208.71" class="st2" width="7.29" height="7.29"/>
<rect x="107.23" y="201.42" class="st2" width="7.29" height="7.29"/>
<rect x="107.23" y="194.13" class="st2" width="7.29" height="7.29"/>
<rect x="107.23" y="186.84" class="st2" width="7.29" height="7.29"/>
<rect x="107.23" y="179.54" class="st2" width="7.29" height="7.29"/>
<rect x="107.23" y="172.24" class="st2" width="7.29" height="7.31"/>
<rect x="107.23" y="164.95" class="st2" width="7.29" height="7.29"/>
<rect x="107.23" y="157.66" class="st7" width="7.29" height="7.29"/>
<rect x="107.23" y="150.36" class="st2" width="7.29" height="7.29"/>
<rect x="107.23" y="143.07" class="st2" width="7.29" height="7.29"/>
<rect x="107.23" y="135.78" class="st0" width="7.29" height="7.29"/>
<rect x="107.23" y="128.49" class="st1" width="7.29" height="7.29"/>
<rect x="107.23" y="121.2" class="st3" width="7.29" height="7.29"/>
<rect x="107.23" y="113.91" class="st1" width="7.29" height="7.29"/>
<rect x="107.23" y="106.62" class="st4" width="7.29" height="7.29"/>
<rect x="107.23" y="99.33" class="st8" width="7.29" height="7.29"/>
<rect x="107.23" y="92.04" class="st8" width="7.29" height="7.29"/>
<rect x="107.23" y="84.74" class="st8" width="7.29" height="7.29"/>
<rect x="107.23" y="77.45" class="st5" width="7.29" height="7.29"/>
<rect x="107.23" y="70.16" class="st5" width="7.29" height="7.29"/>
<rect x="107.23" y="62.87" class="st2" width="7.29" height="7.29"/>
<rect x="107.23" y="55.58" class="st2" width="7.29" height="7.29"/>
<rect x="107.23" y="48.29" class="st2" width="7.29" height="7.29"/>
<rect x="107.23" y="41" class="st6" width="7.29" height="7.29"/>
<rect x="99.93" y="208.71" class="st2" width="7.29" height="7.29"/>
<rect x="99.93" y="201.42" class="st2" width="7.29" height="7.29"/>
<rect x="99.93" y="194.13" class="st2" width="7.29" height="7.29"/>
<rect x="99.93" y="186.84" class="st2" width="7.29" height="7.29"/>
<rect x="99.93" y="179.54" class="st2" width="7.29" height="7.29"/>
<rect x="99.93" y="172.24" class="st2" width="7.29" height="7.31"/>
<rect x="99.93" y="164.95" class="st2" width="7.29" height="7.29"/>
<rect x="99.93" y="157.66" class="st7" width="7.29" height="7.29"/>
<rect x="99.93" y="150.36" class="st2" width="7.29" height="7.29"/>
<rect x="99.93" y="143.07" class="st2" width="7.29" height="7.29"/>
<rect x="99.93" y="135.78" class="st0" width="7.29" height="7.29"/>
<rect x="99.93" y="128.49" class="st1" width="7.29" height="7.29"/>
<rect x="99.93" y="121.2" class="st3" width="7.29" height="7.29"/>
<rect x="99.93" y="113.91" class="st1" width="7.29" height="7.29"/>
<rect x="99.93" y="106.62" class="st4" width="7.29" height="7.29"/>
<rect x="99.93" y="99.33" class="st8" width="7.29" height="7.29"/>
<rect x="99.93" y="92.04" class="st8" width="7.29" height="7.29"/>
<rect x="99.93" y="84.74" class="st1" width="7.29" height="7.29"/>
<rect x="99.93" y="77.45" class="st5" width="7.29" height="7.29"/>
<rect x="99.93" y="70.16" class="st2" width="7.29" height="7.29"/>
<rect x="99.93" y="62.87" class="st2" width="7.29" height="7.29"/>
<rect x="99.93" y="55.58" class="st2" width="7.29" height="7.29"/>
<rect x="99.93" y="48.29" class="st8" width="7.29" height="7.29"/>
<rect x="99.93" y="41" class="st6" width="7.29" height="7.29"/>
<rect x="92.64" y="208.71" class="st2" width="7.29" height="7.29"/>
<rect x="92.64" y="201.42" class="st2" width="7.29" height="7.29"/>
<rect x="92.64" y="194.13" class="st2" width="7.29" height="7.29"/>
<rect x="92.64" y="150.36" class="st2" width="7.29" height="7.29"/>
<rect x="92.64" y="143.07" class="st2" width="7.29" height="7.29"/>
<rect x="92.64" y="135.78" class="st0" width="7.29" height="7.29"/>
<rect x="92.64" y="128.49" class="st1" width="7.29" height="7.29"/>
<rect x="92.64" y="121.2" class="st3" width="7.29" height="7.29"/>
<rect x="92.64" y="113.91" class="st1" width="7.29" height="7.29"/>
<rect x="92.64" y="106.62" class="st4" width="7.29" height="7.29"/>
<rect x="92.64" y="99.33" class="st1" width="7.29" height="7.29"/>
<rect x="92.64" y="92.04" class="st1" width="7.29" height="7.29"/>
<rect x="92.64" y="84.74" class="st1" width="7.29" height="7.29"/>
<rect x="92.64" y="77.45" class="st5" width="7.29" height="7.29"/>
<rect x="92.64" y="70.16" class="st2" width="7.29" height="7.29"/>
<rect x="92.64" y="62.87" class="st2" width="7.29" height="7.29"/>
<rect x="92.64" y="55.58" class="st8" width="7.29" height="7.29"/>
<rect x="92.64" y="48.29" class="st8" width="7.29" height="7.29"/>
<rect x="92.64" y="41" class="st6" width="7.29" height="7.29"/>
<rect x="85.35" y="208.71" class="st2" width="7.29" height="7.29"/>
<rect x="85.35" y="201.42" class="st2" width="7.29" height="7.29"/>
<rect x="85.35" y="150.36" class="st2" width="7.29" height="7.29"/>
<rect x="85.35" y="143.07" class="st2" width="7.29" height="7.29"/>
<rect x="85.35" y="135.78" class="st0" width="7.29" height="7.29"/>
<rect x="85.35" y="128.49" class="st1" width="7.29" height="7.29"/>
<rect x="85.35" y="121.2" class="st3" width="7.29" height="7.29"/>
<rect x="85.35" y="113.91" class="st1" width="7.29" height="7.29"/>
<rect x="85.35" y="106.62" class="st4" width="7.29" height="7.29"/>
<rect x="85.35" y="99.33" class="st6" width="7.29" height="7.29"/>
<rect x="85.35" y="92.04" class="st6" width="7.29" height="7.29"/>
<rect x="85.35" y="84.74" class="st5" width="7.29" height="7.29"/>
<rect x="85.35" y="77.45" class="st5" width="7.29" height="7.29"/>
<rect x="85.35" y="70.16" class="st2" width="7.29" height="7.29"/>
<rect x="85.35" y="62.87" class="st2" width="7.29" height="7.29"/>
<rect x="85.35" y="55.58" class="st8" width="7.29" height="7.29"/>
<rect x="85.35" y="48.29" class="st8" width="7.29" height="7.29"/>
<rect x="85.35" y="41" class="st9" width="7.29" height="7.29"/>
<rect x="85.35" y="33.71" class="st9" width="7.29" height="7.29"/>
<rect x="78.06" y="208.71" class="st2" width="7.29" height="7.29"/>
<rect x="78.06" y="150.36" class="st2" width="7.29" height="7.29"/>
<rect x="78.06" y="143.07" class="st2" width="7.29" height="7.29"/>
<rect x="78.06" y="135.78" class="st0" width="7.29" height="7.29"/>
<rect x="78.06" y="128.49" class="st1" width="7.29" height="7.29"/>
<rect x="78.06" y="121.2" class="st3" width="7.29" height="7.29"/>
<rect x="78.06" y="113.91" class="st1" width="7.29" height="7.29"/>
<rect x="78.06" y="106.62" class="st4" width="7.29" height="7.29"/>
<rect x="78.06" y="99.33" class="st6" width="7.29" height="7.29"/>
<rect x="78.06" y="92.04" class="st6" width="7.29" height="7.29"/>
<rect x="78.06" y="84.74" class="st6" width="7.29" height="7.29"/>
<rect x="78.06" y="77.45" class="st5" width="7.29" height="7.29"/>
<rect x="78.06" y="70.16" class="st2" width="7.29" height="7.29"/>
<rect x="78.06" y="62.87" class="st2" width="7.29" height="7.29"/>
<rect x="78.06" y="33.71" class="st9" width="7.29" height="7.29"/>
<rect x="70.77" y="150.36" class="st2" width="7.29" height="7.29"/>
<rect x="70.77" y="143.07" class="st2" width="7.29" height="7.29"/>
<rect x="70.77" y="135.78" class="st0" width="7.29" height="7.29"/>
<rect x="70.77" y="128.49" class="st1" width="7.29" height="7.29"/>
<rect x="70.77" y="121.2" class="st3" width="7.29" height="7.29"/>
<rect x="70.77" y="113.91" class="st1" width="7.29" height="7.29"/>
<rect x="70.77" y="106.62" class="st4" width="7.29" height="7.29"/>
<rect x="70.77" y="99.33" class="st8" width="7.29" height="7.29"/>
<rect x="70.77" y="92.04" class="st8" width="7.29" height="7.29"/>
<rect x="70.77" y="84.74" class="st6" width="7.29" height="7.29"/>
<rect x="70.77" y="77.45" class="st2" width="7.29" height="7.29"/>
<rect x="70.77" y="70.16" class="st2" width="7.29" height="7.29"/>
<rect x="70.77" y="33.71" class="st9" width="7.29" height="7.29"/>
<rect x="63.48" y="150.36" class="st2" width="7.29" height="7.29"/>
<rect x="63.48" y="143.07" class="st2" width="7.29" height="7.29"/>
<rect x="63.48" y="135.78" class="st0" width="7.29" height="7.29"/>
<rect x="63.48" y="128.49" class="st1" width="7.29" height="7.29"/>
<rect x="63.48" y="121.2" class="st3" width="7.29" height="7.29"/>
<rect x="63.48" y="113.91" class="st1" width="7.29" height="7.29"/>
<rect x="63.48" y="106.62" class="st4" width="7.29" height="7.29"/>
<rect x="63.48" y="99.33" class="st8" width="7.29" height="7.29"/>
<rect x="63.48" y="92.04" class="st8" width="7.29" height="7.29"/>
<rect x="63.48" y="84.74" class="st8" width="7.29" height="7.29"/>
<rect x="63.48" y="33.71" class="st9" width="7.29" height="7.29"/>
<rect x="56.19" y="150.36" class="st2" width="7.29" height="7.29"/>
<rect x="56.19" y="143.07" class="st2" width="7.29" height="7.29"/>
<rect x="56.19" y="135.78" class="st2" width="7.29" height="7.29"/>
<rect x="56.19" y="128.49" class="st2" width="7.29" height="7.29"/>
<rect x="56.19" y="121.2" class="st2" width="7.29" height="7.29"/>
<rect x="56.19" y="113.91" class="st2" width="7.29" height="7.29"/>
<rect x="56.19" y="106.62" class="st2" width="7.29" height="7.29"/>
<rect x="56.19" y="99.33" class="st8" width="7.29" height="7.29"/>
<rect x="56.19" y="92.04" class="st8" width="7.29" height="7.29"/>
<rect x="56.19" y="41" class="st9" width="7.29" height="7.29"/>
<rect x="56.19" y="33.71" class="st9" width="7.29" height="7.29"/>
<rect x="48.9" y="150.36" class="st2" width="7.29" height="7.29"/>
<rect x="48.9" y="143.07" class="st2" width="7.29" height="7.29"/>
<rect x="48.9" y="135.78" class="st2" width="7.29" height="7.29"/>
<rect x="48.9" y="128.49" class="st2" width="7.29" height="7.29"/>
<rect x="48.9" y="121.2" class="st2" width="7.29" height="7.29"/>
<rect x="48.9" y="113.91" class="st2" width="7.29" height="7.29"/>
<rect x="48.9" y="106.62" class="st2" width="7.29" height="7.29"/>
</svg>
