<?xml version="1.0" encoding="utf-8"?>
<!-- Generator: Adobe Illustrator 30.0.0, SVG Export Plug-In . SVG Version: 9.03 Build 0)  -->
<svg version="1.1" id="Layer_1" xmlns="http://www.w3.org/2000/svg" xmlns:xlink="http://www.w3.org/1999/xlink" x="0px" y="0px"
	 viewBox="0 0 240 240" style="enable-background:new 0 0 240 240;" xml:space="preserve">
<style type="text/css">
	.st0{fill:#F73526;}
	.st1{fill:#F1BE86;}
	.st2{fill:#2ECFB5;}
	.st3{fill:#68D7BB;}
	.st4{fill:#00B7A4;}
	.st5{fill:#FFBD28;}
	.st6{fill:#FFE7AD;}
</style>
<rect x="200.8" y="198.49" class="st0" width="6.67" height="6.67"/>
<rect x="174.11" y="198.49" class="st0" width="6.67" height="6.67"/>
<rect x="60.68" y="198.49" class="st0" width="6.67" height="6.67"/>
<rect x="27.32" y="198.49" class="st0" width="6.67" height="6.67"/>
<rect x="200.8" y="191.82" class="st0" width="6.67" height="6.67"/>
<rect x="174.11" y="191.82" class="st0" width="6.67" height="6.67"/>
<rect x="167.44" y="191.82" class="st0" width="6.67" height="6.67"/>
<rect x="60.68" y="191.82" class="st0" width="6.67" height="6.67"/>
<rect x="27.32" y="191.82" class="st0" width="6.67" height="6.67"/>
<rect x="200.8" y="185.14" class="st0" width="6.67" height="6.67"/>
<rect x="194.13" y="185.14" class="st0" width="6.67" height="6.67"/>
<rect x="174.11" y="185.14" class="st0" width="6.67" height="6.67"/>
<rect x="167.44" y="185.14" class="st0" width="6.67" height="6.67"/>
<rect x="67.36" y="185.14" class="st0" width="6.67" height="6.67"/>
<rect x="60.68" y="185.14" class="st0" width="6.67" height="6.67"/>
<rect x="33.99" y="185.14" class="st0" width="6.67" height="6.67"/>
<rect x="33.99" y="191.82" class="st0" width="6.67" height="6.67"/>
<rect x="27.32" y="185.14" class="st0" width="6.67" height="6.67"/>
<rect x="200.8" y="178.47" class="st0" width="6.67" height="6.67"/>
<rect x="194.13" y="178.47" class="st0" width="6.67" height="6.67"/>
<rect x="174.11" y="178.47" class="st0" width="6.67" height="6.67"/>
<rect x="167.44" y="178.47" class="st0" width="6.67" height="6.67"/>
<rect x="160.77" y="178.47" class="st0" width="6.67" height="6.67"/>
<rect x="67.36" y="178.47" class="st0" width="6.67" height="6.67"/>
<rect x="60.68" y="178.47" class="st0" width="6.67" height="6.67"/>
<rect x="33.99" y="178.47" class="st0" width="6.67" height="6.67"/>
<rect x="27.32" y="178.47" class="st0" width="6.67" height="6.67"/>
<rect x="200.8" y="171.8" class="st0" width="6.67" height="6.67"/>
<rect x="194.13" y="171.8" class="st0" width="6.67" height="6.67"/>
<rect x="187.45" y="171.8" class="st0" width="6.67" height="6.67"/>
<rect x="174.11" y="171.8" class="st0" width="6.67" height="6.67"/>
<rect x="167.44" y="171.8" class="st0" width="6.67" height="6.67"/>
<rect x="160.77" y="171.8" class="st0" width="6.67" height="6.67"/>
<rect x="74.03" y="171.8" class="st0" width="6.67" height="6.67"/>
<rect x="67.36" y="171.8" class="st0" width="6.67" height="6.67"/>
<rect x="60.68" y="171.8" class="st0" width="6.67" height="6.67"/>
<rect x="40.67" y="171.8" class="st0" width="6.67" height="6.67"/>
<rect x="40.67" y="178.47" class="st0" width="6.67" height="6.67"/>
<rect x="33.99" y="171.8" class="st0" width="6.67" height="6.67"/>
<rect x="27.32" y="171.8" class="st0" width="6.67" height="6.67"/>
<rect x="207.47" y="165.13" class="st1" width="6.67" height="6.67"/>
<rect x="214.14" y="158.46" class="st1" width="6.67" height="6.67"/>
<rect x="207.47" y="158.46" class="st1" width="6.67" height="6.67"/>
<rect x="214.14" y="151.78" class="st1" width="6.67" height="6.67"/>
<rect x="207.47" y="151.78" class="st1" width="6.67" height="6.67"/>
<rect x="214.14" y="145.11" class="st1" width="6.67" height="6.67"/>
<rect x="207.47" y="145.11" class="st1" width="6.67" height="6.67"/>
<rect x="214.14" y="138.44" class="st1" width="6.67" height="6.67"/>
<rect x="207.47" y="138.44" class="st1" width="6.67" height="6.67"/>
<rect x="214.14" y="131.77" class="st1" width="6.67" height="6.67"/>
<rect x="207.47" y="131.77" class="st1" width="6.67" height="6.67"/>
<rect x="120.73" y="131.77" class="st1" width="6.67" height="6.67"/>
<rect x="114.06" y="131.77" class="st1" width="6.67" height="6.67"/>
<rect x="107.39" y="131.77" class="st1" width="6.67" height="6.67"/>
<rect x="100.72" y="131.77" class="st1" width="6.67" height="6.67"/>
<rect x="94.04" y="131.77" class="st1" width="6.67" height="6.67"/>
<rect x="87.37" y="131.77" class="st1" width="6.67" height="6.67"/>
<rect x="80.7" y="131.77" class="st1" width="6.67" height="6.67"/>
<rect x="74.03" y="131.77" class="st1" width="6.67" height="6.67"/>
<rect x="67.36" y="131.77" class="st1" width="6.67" height="6.67"/>
<rect x="60.68" y="131.77" class="st1" width="6.67" height="6.67"/>
<rect x="54.01" y="131.77" class="st1" width="6.67" height="6.67"/>
<rect x="47.34" y="131.77" class="st1" width="6.67" height="6.67"/>
<rect x="40.67" y="131.77" class="st1" width="6.67" height="6.67"/>
<rect x="33.99" y="131.77" class="st1" width="6.67" height="6.67"/>
<rect x="214.14" y="125.09" class="st1" width="6.67" height="6.67"/>
<rect x="207.47" y="125.09" class="st1" width="6.67" height="6.67"/>
<rect x="120.73" y="125.09" class="st2" width="6.67" height="6.67"/>
<rect x="114.06" y="125.09" class="st2" width="6.67" height="6.67"/>
<rect x="107.39" y="125.09" class="st2" width="6.67" height="6.67"/>
<rect x="100.72" y="125.09" class="st2" width="6.67" height="6.67"/>
<rect x="94.04" y="125.09" class="st2" width="6.67" height="6.67"/>
<rect x="87.37" y="125.09" class="st2" width="6.67" height="6.67"/>
<rect x="80.7" y="125.09" class="st2" width="6.67" height="6.67"/>
<rect x="74.03" y="125.09" class="st2" width="6.67" height="6.67"/>
<rect x="67.36" y="125.09" class="st2" width="6.67" height="6.67"/>
<rect x="60.68" y="125.09" class="st2" width="6.67" height="6.67"/>
<rect x="54.01" y="125.09" class="st3" width="6.67" height="6.67"/>
<rect x="47.34" y="125.09" class="st3" width="6.67" height="6.67"/>
<rect x="40.67" y="125.09" class="st3" width="6.67" height="6.67"/>
<rect x="33.99" y="125.09" class="st3" width="6.67" height="6.67"/>
<rect x="27.32" y="125.09" class="st1" width="6.67" height="6.67"/>
<rect x="214.14" y="118.42" class="st1" width="6.67" height="6.67"/>
<rect x="207.47" y="118.42" class="st1" width="6.67" height="6.67"/>
<rect x="180.78" y="118.42" class="st1" width="6.67" height="6.67"/>
<rect x="174.11" y="118.42" class="st1" width="6.67" height="6.67"/>
<rect x="167.44" y="118.42" class="st1" width="6.67" height="6.67"/>
<rect x="120.73" y="118.42" class="st2" width="6.67" height="6.67"/>
<rect x="114.06" y="118.42" class="st2" width="6.67" height="6.67"/>
<rect x="107.39" y="118.42" class="st2" width="6.67" height="6.67"/>
<rect x="100.72" y="118.42" class="st2" width="6.67" height="6.67"/>
<rect x="94.04" y="118.42" class="st2" width="6.67" height="6.67"/>
<rect x="87.37" y="118.42" class="st2" width="6.67" height="6.67"/>
<rect x="80.7" y="118.42" class="st2" width="6.67" height="6.67"/>
<rect x="74.03" y="118.42" class="st2" width="6.67" height="6.67"/>
<rect x="67.36" y="118.42" class="st2" width="6.67" height="6.67"/>
<rect x="60.68" y="118.42" class="st3" width="6.67" height="6.67"/>
<rect x="54.01" y="118.42" class="st3" width="6.67" height="6.67"/>
<rect x="47.34" y="118.42" class="st3" width="6.67" height="6.67"/>
<rect x="40.67" y="118.42" class="st3" width="6.67" height="6.67"/>
<rect x="33.99" y="118.42" class="st3" width="6.67" height="6.67"/>
<rect x="27.32" y="118.42" class="st1" width="6.67" height="6.67"/>
<rect x="214.14" y="111.75" class="st1" width="6.67" height="6.67"/>
<rect x="207.47" y="111.75" class="st1" width="6.67" height="6.67"/>
<rect x="180.78" y="111.75" class="st1" width="6.67" height="6.67"/>
<rect x="174.11" y="111.75" class="st0" width="6.67" height="6.67"/>
<rect x="167.44" y="111.75" class="st0" width="6.67" height="6.67"/>
<rect x="120.73" y="111.75" class="st2" width="6.67" height="6.67"/>
<rect x="114.06" y="111.75" class="st2" width="6.67" height="6.67"/>
<rect x="107.39" y="111.75" class="st2" width="6.67" height="6.67"/>
<rect x="100.72" y="111.75" class="st2" width="6.67" height="6.67"/>
<rect x="94.04" y="111.75" class="st2" width="6.67" height="6.67"/>
<rect x="87.37" y="111.75" class="st2" width="6.67" height="6.67"/>
<rect x="80.7" y="111.75" class="st2" width="6.67" height="6.67"/>
<rect x="74.03" y="111.75" class="st2" width="6.67" height="6.67"/>
<rect x="67.36" y="111.75" class="st3" width="6.67" height="6.67"/>
<rect x="60.68" y="111.75" class="st3" width="6.67" height="6.67"/>
<rect x="54.01" y="111.75" class="st3" width="6.67" height="6.67"/>
<rect x="47.34" y="111.75" class="st3" width="6.67" height="6.67"/>
<rect x="40.67" y="111.75" class="st3" width="6.67" height="6.67"/>
<rect x="33.99" y="111.75" class="st3" width="6.67" height="6.67"/>
<rect x="27.32" y="111.75" class="st1" width="6.67" height="6.67"/>
<rect x="214.14" y="105.08" class="st1" width="6.67" height="6.67"/>
<rect x="207.47" y="105.08" class="st1" width="6.67" height="6.67"/>
<rect x="180.78" y="105.08" class="st1" width="6.67" height="6.67"/>
<rect x="174.11" y="105.08" class="st0" width="6.67" height="6.67"/>
<rect x="167.44" y="105.08" class="st0" width="6.67" height="6.67"/>
<rect x="120.73" y="105.08" class="st2" width="6.67" height="6.67"/>
<rect x="114.06" y="105.08" class="st2" width="6.67" height="6.67"/>
<rect x="107.39" y="105.08" class="st2" width="6.67" height="6.67"/>
<rect x="100.72" y="105.08" class="st2" width="6.67" height="6.67"/>
<rect x="94.04" y="105.08" class="st2" width="6.67" height="6.67"/>
<rect x="87.37" y="105.08" class="st2" width="6.67" height="6.67"/>
<rect x="80.7" y="105.08" class="st2" width="6.67" height="6.67"/>
<rect x="74.03" y="105.08" class="st3" width="6.67" height="6.67"/>
<rect x="67.36" y="105.08" class="st3" width="6.67" height="6.67"/>
<rect x="60.68" y="105.08" class="st3" width="6.67" height="6.67"/>
<rect x="54.01" y="105.08" class="st3" width="6.67" height="6.67"/>
<rect x="47.34" y="105.08" class="st3" width="6.67" height="6.67"/>
<rect x="40.67" y="105.08" class="st3" width="6.67" height="6.67"/>
<rect x="33.99" y="105.08" class="st3" width="6.67" height="6.67"/>
<rect x="27.32" y="105.08" class="st1" width="6.67" height="6.67"/>
<rect x="214.14" y="98.41" class="st1" width="6.67" height="6.67"/>
<rect x="207.47" y="98.41" class="st1" width="6.67" height="6.67"/>
<rect x="120.73" y="98.41" class="st2" width="6.67" height="6.67"/>
<rect x="114.06" y="98.41" class="st2" width="6.67" height="6.67"/>
<rect x="107.39" y="98.41" class="st2" width="6.67" height="6.67"/>
<rect x="100.72" y="98.41" class="st2" width="6.67" height="6.67"/>
<rect x="94.04" y="98.41" class="st2" width="6.67" height="6.67"/>
<rect x="87.37" y="98.41" class="st2" width="6.67" height="6.67"/>
<rect x="80.7" y="98.41" class="st3" width="6.67" height="6.67"/>
<rect x="74.03" y="98.41" class="st3" width="6.67" height="6.67"/>
<rect x="67.36" y="98.41" class="st3" width="6.67" height="6.67"/>
<rect x="60.68" y="98.41" class="st3" width="6.67" height="6.67"/>
<rect x="54.01" y="98.41" class="st3" width="6.67" height="6.67"/>
<rect x="47.34" y="98.41" class="st3" width="6.67" height="6.67"/>
<rect x="40.67" y="98.41" class="st3" width="6.67" height="6.67"/>
<rect x="33.99" y="98.41" class="st3" width="6.67" height="6.67"/>
<rect x="27.32" y="98.41" class="st1" width="6.67" height="6.67"/>
<rect x="214.14" y="91.73" class="st1" width="6.67" height="6.67"/>
<rect x="207.47" y="91.73" class="st1" width="6.67" height="6.67"/>
<rect x="154.09" y="91.73" class="st4" width="6.67" height="6.67"/>
<rect x="147.42" y="91.73" class="st5" width="6.67" height="6.67"/>
<rect x="140.75" y="91.73" class="st4" width="6.67" height="6.67"/>
<rect x="120.73" y="91.73" class="st2" width="6.67" height="6.67"/>
<rect x="114.06" y="91.73" class="st2" width="6.67" height="6.67"/>
<rect x="107.39" y="91.73" class="st2" width="6.67" height="6.67"/>
<rect x="100.72" y="91.73" class="st2" width="6.67" height="6.67"/>
<rect x="94.04" y="91.73" class="st2" width="6.67" height="6.67"/>
<rect x="87.37" y="91.73" class="st3" width="6.67" height="6.67"/>
<rect x="80.7" y="91.73" class="st3" width="6.67" height="6.67"/>
<rect x="74.03" y="91.73" class="st3" width="6.67" height="6.67"/>
<rect x="67.36" y="91.73" class="st3" width="6.67" height="6.67"/>
<rect x="60.68" y="91.73" class="st3" width="6.67" height="6.67"/>
<rect x="54.01" y="91.73" class="st3" width="6.67" height="6.67"/>
<rect x="47.34" y="91.73" class="st3" width="6.67" height="6.67"/>
<rect x="40.67" y="91.73" class="st6" width="6.67" height="6.67"/>
<rect x="33.99" y="91.73" class="st3" width="6.67" height="6.67"/>
<rect x="27.32" y="91.73" class="st1" width="6.67" height="6.67"/>
<rect x="214.14" y="85.06" class="st1" width="6.67" height="6.67"/>
<rect x="207.47" y="85.06" class="st1" width="6.67" height="6.67"/>
<rect x="120.73" y="85.06" class="st2" width="6.67" height="6.67"/>
<rect x="114.06" y="85.06" class="st2" width="6.67" height="6.67"/>
<rect x="107.39" y="85.06" class="st2" width="6.67" height="6.67"/>
<rect x="100.72" y="85.06" class="st2" width="6.67" height="6.67"/>
<rect x="94.04" y="85.06" class="st3" width="6.67" height="6.67"/>
<rect x="87.37" y="85.06" class="st3" width="6.67" height="6.67"/>
<rect x="80.7" y="85.06" class="st3" width="6.67" height="6.67"/>
<rect x="74.03" y="85.06" class="st3" width="6.67" height="6.67"/>
<rect x="67.36" y="85.06" class="st3" width="6.67" height="6.67"/>
<rect x="60.68" y="85.06" class="st3" width="6.67" height="6.67"/>
<rect x="54.01" y="85.06" class="st3" width="6.67" height="6.67"/>
<rect x="47.34" y="85.06" class="st3" width="6.67" height="6.67"/>
<rect x="40.67" y="85.06" class="st6" width="6.67" height="6.67"/>
<rect x="33.99" y="85.06" class="st3" width="6.67" height="6.67"/>
<rect x="27.32" y="85.06" class="st1" width="6.67" height="6.67"/>
<rect x="214.14" y="78.39" class="st1" width="6.67" height="6.67"/>
<rect x="207.47" y="78.39" class="st1" width="6.67" height="6.67"/>
<rect x="187.45" y="78.39" class="st2" width="6.67" height="6.67"/>
<rect x="180.78" y="78.39" class="st2" width="6.67" height="6.67"/>
<rect x="174.11" y="78.39" class="st2" width="6.67" height="6.67"/>
<rect x="167.44" y="78.39" class="st2" width="6.67" height="6.67"/>
<rect x="160.77" y="78.39" class="st2" width="6.67" height="6.67"/>
<rect x="154.09" y="78.39" class="st2" width="6.67" height="6.67"/>
<rect x="147.42" y="78.39" class="st2" width="6.67" height="6.67"/>
<rect x="140.75" y="78.39" class="st2" width="6.67" height="6.67"/>
<rect x="120.73" y="78.39" class="st2" width="6.67" height="6.67"/>
<rect x="114.06" y="78.39" class="st2" width="6.67" height="6.67"/>
<rect x="107.39" y="78.39" class="st2" width="6.67" height="6.67"/>
<rect x="100.72" y="78.39" class="st3" width="6.67" height="6.67"/>
<rect x="94.04" y="78.39" class="st3" width="6.67" height="6.67"/>
<rect x="87.37" y="78.39" class="st3" width="6.67" height="6.67"/>
<rect x="80.7" y="78.39" class="st3" width="6.67" height="6.67"/>
<rect x="74.03" y="78.39" class="st3" width="6.67" height="6.67"/>
<rect x="67.36" y="78.39" class="st3" width="6.67" height="6.67"/>
<rect x="60.68" y="78.39" class="st3" width="6.67" height="6.67"/>
<rect x="54.01" y="78.39" class="st3" width="6.67" height="6.67"/>
<rect x="47.34" y="78.39" class="st6" width="6.67" height="6.67"/>
<rect x="40.67" y="78.39" class="st3" width="6.67" height="6.67"/>
<rect x="33.99" y="78.39" class="st3" width="6.67" height="6.67"/>
<rect x="27.32" y="78.39" class="st1" width="6.67" height="6.67"/>
<rect x="214.14" y="71.72" class="st1" width="6.67" height="6.67"/>
<rect x="207.47" y="71.72" class="st1" width="6.67" height="6.67"/>
<rect x="187.45" y="71.72" class="st2" width="6.67" height="6.67"/>
<rect x="180.78" y="71.72" class="st2" width="6.67" height="6.67"/>
<rect x="174.11" y="71.72" class="st2" width="6.67" height="6.67"/>
<rect x="167.44" y="71.72" class="st2" width="6.67" height="6.67"/>
<rect x="160.77" y="71.72" class="st2" width="6.67" height="6.67"/>
<rect x="154.09" y="71.72" class="st2" width="6.67" height="6.67"/>
<rect x="147.42" y="71.72" class="st2" width="6.67" height="6.67"/>
<rect x="140.75" y="71.72" class="st2" width="6.67" height="6.67"/>
<rect x="120.73" y="71.72" class="st2" width="6.67" height="6.67"/>
<rect x="114.06" y="71.72" class="st2" width="6.67" height="6.67"/>
<rect x="107.39" y="71.72" class="st3" width="6.67" height="6.67"/>
<rect x="100.72" y="71.72" class="st3" width="6.67" height="6.67"/>
<rect x="94.04" y="71.72" class="st3" width="6.67" height="6.67"/>
<rect x="87.37" y="71.72" class="st3" width="6.67" height="6.67"/>
<rect x="80.7" y="71.72" class="st3" width="6.67" height="6.67"/>
<rect x="74.03" y="71.72" class="st3" width="6.67" height="6.67"/>
<rect x="67.36" y="71.72" class="st3" width="6.67" height="6.67"/>
<rect x="60.68" y="71.72" class="st3" width="6.67" height="6.67"/>
<rect x="54.01" y="71.72" class="st6" width="6.67" height="6.67"/>
<rect x="47.34" y="71.72" class="st3" width="6.67" height="6.67"/>
<rect x="40.67" y="71.72" class="st6" width="6.67" height="6.67"/>
<rect x="33.99" y="71.72" class="st3" width="6.67" height="6.67"/>
<rect x="27.32" y="71.72" class="st1" width="6.67" height="6.67"/>
<rect x="214.14" y="65.05" class="st1" width="6.67" height="6.67"/>
<rect x="207.47" y="65.05" class="st1" width="6.67" height="6.67"/>
<rect x="120.73" y="65.05" class="st2" width="6.67" height="6.67"/>
<rect x="114.06" y="65.05" class="st3" width="6.67" height="6.67"/>
<rect x="107.39" y="65.05" class="st3" width="6.67" height="6.67"/>
<rect x="100.72" y="65.05" class="st3" width="6.67" height="6.67"/>
<rect x="94.04" y="65.05" class="st3" width="6.67" height="6.67"/>
<rect x="87.37" y="65.05" class="st3" width="6.67" height="6.67"/>
<rect x="80.7" y="65.05" class="st3" width="6.67" height="6.67"/>
<rect x="74.03" y="65.05" class="st3" width="6.67" height="6.67"/>
<rect x="67.36" y="65.05" class="st3" width="6.67" height="6.67"/>
<rect x="60.68" y="65.05" class="st3" width="6.67" height="6.67"/>
<rect x="54.01" y="65.05" class="st3" width="6.67" height="6.67"/>
<rect x="47.34" y="65.05" class="st3" width="6.67" height="6.67"/>
<rect x="40.67" y="65.05" class="st3" width="6.67" height="6.67"/>
<rect x="33.99" y="65.05" class="st3" width="6.67" height="6.67"/>
<rect x="27.32" y="65.05" class="st1" width="6.67" height="6.67"/>
<rect x="214.14" y="58.37" class="st1" width="6.67" height="6.67"/>
<rect x="207.47" y="58.37" class="st1" width="6.67" height="6.67"/>
<rect x="214.14" y="51.7" class="st1" width="6.67" height="6.67"/>
<rect x="207.47" y="51.7" class="st1" width="6.67" height="6.67"/>
<rect x="207.47" y="45.03" class="st1" width="6.67" height="6.67"/>
<rect x="160.77" y="105.08" class="st6" width="6.67" height="6.67"/>
<rect x="200.8" y="45.03" class="st6" width="6.67" height="6.67"/>
<rect x="194.13" y="45.03" class="st6" width="6.67" height="6.67"/>
<rect x="187.45" y="45.03" class="st6" width="6.67" height="6.67"/>
<rect x="180.78" y="45.03" class="st6" width="6.67" height="6.67"/>
<rect x="174.11" y="45.03" class="st6" width="6.67" height="6.67"/>
<rect x="167.44" y="45.03" class="st6" width="6.67" height="6.67"/>
<rect x="160.77" y="45.03" class="st6" width="6.67" height="6.67"/>
<rect x="154.09" y="45.03" class="st6" width="6.67" height="6.67"/>
<rect x="147.42" y="45.03" class="st6" width="6.67" height="6.67"/>
<rect x="140.75" y="45.03" class="st6" width="6.67" height="6.67"/>
<rect x="134.08" y="45.03" class="st6" width="6.67" height="6.67"/>
<rect x="127.4" y="45.03" class="st6" width="6.67" height="6.67"/>
<rect x="120.73" y="45.03" class="st6" width="6.67" height="6.67"/>
<rect x="114.06" y="45.03" class="st6" width="6.67" height="6.67"/>
<rect x="107.39" y="45.03" class="st6" width="6.67" height="6.67"/>
<rect x="100.72" y="45.03" class="st6" width="6.67" height="6.67"/>
<rect x="94.04" y="45.03" class="st6" width="6.67" height="6.67"/>
<rect x="87.37" y="45.03" class="st6" width="6.67" height="6.67"/>
<rect x="80.7" y="45.03" class="st6" width="6.67" height="6.67"/>
<rect x="74.03" y="45.03" class="st6" width="6.67" height="6.67"/>
<rect x="67.36" y="45.03" class="st6" width="6.67" height="6.67"/>
<rect x="60.68" y="45.03" class="st6" width="6.67" height="6.67"/>
<rect x="54.01" y="45.03" class="st6" width="6.67" height="6.67"/>
<rect x="47.34" y="45.03" class="st6" width="6.67" height="6.67"/>
<rect x="40.67" y="45.03" class="st6" width="6.67" height="6.67"/>
<rect x="33.99" y="45.03" class="st6" width="6.67" height="6.67"/>
<rect x="27.32" y="45.03" class="st6" width="6.67" height="6.67"/>
<rect x="20.65" y="45.03" class="st6" width="6.67" height="6.67"/>
<rect x="200.8" y="165.13" class="st6" width="6.67" height="6.67"/>
<rect x="194.13" y="165.13" class="st6" width="6.67" height="6.67"/>
<rect x="187.45" y="165.13" class="st6" width="6.67" height="6.67"/>
<rect x="180.78" y="165.13" class="st6" width="6.67" height="6.67"/>
<rect x="174.11" y="165.13" class="st6" width="6.67" height="6.67"/>
<rect x="167.44" y="165.13" class="st6" width="6.67" height="6.67"/>
<rect x="160.77" y="165.13" class="st6" width="6.67" height="6.67"/>
<rect x="154.09" y="165.13" class="st6" width="6.67" height="6.67"/>
<rect x="147.42" y="165.13" class="st6" width="6.67" height="6.67"/>
<rect x="140.75" y="165.13" class="st6" width="6.67" height="6.67"/>
<rect x="134.08" y="165.13" class="st6" width="6.67" height="6.67"/>
<rect x="127.4" y="165.13" class="st6" width="6.67" height="6.67"/>
<rect x="120.73" y="165.13" class="st6" width="6.67" height="6.67"/>
<rect x="114.06" y="165.13" class="st6" width="6.67" height="6.67"/>
<rect x="107.39" y="165.13" class="st6" width="6.67" height="6.67"/>
<rect x="100.72" y="165.13" class="st6" width="6.67" height="6.67"/>
<rect x="94.04" y="165.13" class="st6" width="6.67" height="6.67"/>
<rect x="87.37" y="165.13" class="st6" width="6.67" height="6.67"/>
<rect x="80.7" y="165.13" class="st6" width="6.67" height="6.67"/>
<rect x="74.03" y="165.13" class="st6" width="6.67" height="6.67"/>
<rect x="67.36" y="165.13" class="st6" width="6.67" height="6.67"/>
<rect x="60.68" y="165.13" class="st6" width="6.67" height="6.67"/>
<rect x="54.01" y="165.13" class="st6" width="6.67" height="6.67"/>
<rect x="47.34" y="165.13" class="st6" width="6.67" height="6.67"/>
<rect x="40.67" y="165.13" class="st6" width="6.67" height="6.67"/>
<rect x="33.99" y="165.13" class="st6" width="6.67" height="6.67"/>
<rect x="27.32" y="165.13" class="st6" width="6.67" height="6.67"/>
<rect x="20.65" y="165.13" class="st6" width="6.67" height="6.67"/>
<rect x="200.8" y="158.46" class="st6" width="6.67" height="6.67"/>
<rect x="194.13" y="158.46" class="st6" width="6.67" height="6.67"/>
<rect x="187.45" y="158.46" class="st6" width="6.67" height="6.67"/>
<rect x="180.78" y="158.46" class="st6" width="6.67" height="6.67"/>
<rect x="174.11" y="158.46" class="st6" width="6.67" height="6.67"/>
<rect x="167.44" y="158.46" class="st6" width="6.67" height="6.67"/>
<rect x="160.77" y="158.46" class="st6" width="6.67" height="6.67"/>
<rect x="154.09" y="158.46" class="st6" width="6.67" height="6.67"/>
<rect x="147.42" y="158.46" class="st6" width="6.67" height="6.67"/>
<rect x="140.75" y="158.46" class="st6" width="6.67" height="6.67"/>
<rect x="134.08" y="158.46" class="st6" width="6.67" height="6.67"/>
<rect x="127.4" y="158.46" class="st6" width="6.67" height="6.67"/>
<rect x="120.73" y="158.46" class="st6" width="6.67" height="6.67"/>
<rect x="114.06" y="158.46" class="st6" width="6.67" height="6.67"/>
<rect x="107.39" y="158.46" class="st6" width="6.67" height="6.67"/>
<rect x="100.72" y="158.46" class="st6" width="6.67" height="6.67"/>
<rect x="94.04" y="158.46" class="st6" width="6.67" height="6.67"/>
<rect x="87.37" y="158.46" class="st6" width="6.67" height="6.67"/>
<rect x="80.7" y="158.46" class="st6" width="6.67" height="6.67"/>
<rect x="74.03" y="158.46" class="st6" width="6.67" height="6.67"/>
<rect x="67.36" y="158.46" class="st6" width="6.67" height="6.67"/>
<rect x="60.68" y="158.46" class="st6" width="6.67" height="6.67"/>
<rect x="54.01" y="158.46" class="st6" width="6.67" height="6.67"/>
<rect x="47.34" y="158.46" class="st6" width="6.67" height="6.67"/>
<rect x="40.67" y="158.46" class="st6" width="6.67" height="6.67"/>
<rect x="33.99" y="158.46" class="st6" width="6.67" height="6.67"/>
<rect x="27.32" y="158.46" class="st6" width="6.67" height="6.67"/>
<rect x="20.65" y="158.46" class="st6" width="6.67" height="6.67"/>
<rect x="13.98" y="158.46" class="st6" width="6.67" height="6.67"/>
<rect x="200.8" y="151.78" class="st6" width="6.67" height="6.67"/>
<rect x="194.13" y="151.78" class="st6" width="6.67" height="6.67"/>
<rect x="187.45" y="151.78" class="st6" width="6.67" height="6.67"/>
<rect x="180.78" y="151.78" class="st6" width="6.67" height="6.67"/>
<rect x="174.11" y="151.78" class="st6" width="6.67" height="6.67"/>
<rect x="167.44" y="151.78" class="st6" width="6.67" height="6.67"/>
<rect x="160.77" y="151.78" class="st6" width="6.67" height="6.67"/>
<rect x="154.09" y="151.78" class="st6" width="6.67" height="6.67"/>
<rect x="147.42" y="151.78" class="st6" width="6.67" height="6.67"/>
<rect x="140.75" y="151.78" class="st6" width="6.67" height="6.67"/>
<rect x="134.08" y="151.78" class="st6" width="6.67" height="6.67"/>
<rect x="127.4" y="151.78" class="st6" width="6.67" height="6.67"/>
<rect x="120.73" y="151.78" class="st6" width="6.67" height="6.67"/>
<rect x="114.06" y="151.78" class="st6" width="6.67" height="6.67"/>
<rect x="107.39" y="151.78" class="st6" width="6.67" height="6.67"/>
<rect x="100.72" y="151.78" class="st6" width="6.67" height="6.67"/>
<rect x="94.04" y="151.78" class="st6" width="6.67" height="6.67"/>
<rect x="87.37" y="151.78" class="st6" width="6.67" height="6.67"/>
<rect x="80.7" y="151.78" class="st6" width="6.67" height="6.67"/>
<rect x="74.03" y="151.78" class="st6" width="6.67" height="6.67"/>
<rect x="67.36" y="151.78" class="st6" width="6.67" height="6.67"/>
<rect x="60.68" y="151.78" class="st6" width="6.67" height="6.67"/>
<rect x="54.01" y="151.78" class="st6" width="6.67" height="6.67"/>
<rect x="47.34" y="151.78" class="st6" width="6.67" height="6.67"/>
<rect x="40.67" y="151.78" class="st6" width="6.67" height="6.67"/>
<rect x="33.99" y="151.78" class="st6" width="6.67" height="6.67"/>
<rect x="27.32" y="151.78" class="st6" width="6.67" height="6.67"/>
<rect x="20.65" y="151.78" class="st6" width="6.67" height="6.67"/>
<rect x="13.98" y="151.78" class="st6" width="6.67" height="6.67"/>
<rect x="200.8" y="145.11" class="st6" width="6.67" height="6.67"/>
<rect x="194.13" y="145.11" class="st6" width="6.67" height="6.67"/>
<rect x="187.45" y="145.11" class="st6" width="6.67" height="6.67"/>
<rect x="180.78" y="145.11" class="st6" width="6.67" height="6.67"/>
<rect x="174.11" y="145.11" class="st6" width="6.67" height="6.67"/>
<rect x="167.44" y="145.11" class="st6" width="6.67" height="6.67"/>
<rect x="160.77" y="145.11" class="st6" width="6.67" height="6.67"/>
<rect x="154.09" y="145.11" class="st6" width="6.67" height="6.67"/>
<rect x="147.42" y="145.11" class="st6" width="6.67" height="6.67"/>
<rect x="140.75" y="145.11" class="st6" width="6.67" height="6.67"/>
<rect x="134.08" y="145.11" class="st6" width="6.67" height="6.67"/>
<rect x="127.4" y="145.11" class="st6" width="6.67" height="6.67"/>
<rect x="120.73" y="145.11" class="st6" width="6.67" height="6.67"/>
<rect x="114.06" y="145.11" class="st6" width="6.67" height="6.67"/>
<rect x="107.39" y="145.11" class="st6" width="6.67" height="6.67"/>
<rect x="100.72" y="145.11" class="st6" width="6.67" height="6.67"/>
<rect x="94.04" y="145.11" class="st6" width="6.67" height="6.67"/>
<rect x="87.37" y="145.11" class="st6" width="6.67" height="6.67"/>
<rect x="80.7" y="145.11" class="st6" width="6.67" height="6.67"/>
<rect x="74.03" y="145.11" class="st6" width="6.67" height="6.67"/>
<rect x="67.36" y="145.11" class="st6" width="6.67" height="6.67"/>
<rect x="60.68" y="145.11" class="st6" width="6.67" height="6.67"/>
<rect x="54.01" y="145.11" class="st6" width="6.67" height="6.67"/>
<rect x="47.34" y="145.11" class="st6" width="6.67" height="6.67"/>
<rect x="40.67" y="145.11" class="st6" width="6.67" height="6.67"/>
<rect x="33.99" y="145.11" class="st6" width="6.67" height="6.67"/>
<rect x="27.32" y="145.11" class="st6" width="6.67" height="6.67"/>
<rect x="20.65" y="145.11" class="st6" width="6.67" height="6.67"/>
<rect x="13.98" y="145.11" class="st6" width="6.67" height="6.67"/>
<rect x="200.8" y="138.44" class="st6" width="6.67" height="6.67"/>
<rect x="194.13" y="138.44" class="st6" width="6.67" height="6.67"/>
<rect x="187.45" y="138.44" class="st6" width="6.67" height="6.67"/>
<rect x="180.78" y="138.44" class="st6" width="6.67" height="6.67"/>
<rect x="174.11" y="138.44" class="st6" width="6.67" height="6.67"/>
<rect x="167.44" y="138.44" class="st6" width="6.67" height="6.67"/>
<rect x="160.77" y="138.44" class="st6" width="6.67" height="6.67"/>
<rect x="154.09" y="138.44" class="st6" width="6.67" height="6.67"/>
<rect x="147.42" y="138.44" class="st6" width="6.67" height="6.67"/>
<rect x="140.75" y="138.44" class="st6" width="6.67" height="6.67"/>
<rect x="134.08" y="138.44" class="st6" width="6.67" height="6.67"/>
<rect x="127.4" y="138.44" class="st6" width="6.67" height="6.67"/>
<rect x="120.73" y="138.44" class="st6" width="6.67" height="6.67"/>
<rect x="114.06" y="138.44" class="st6" width="6.67" height="6.67"/>
<rect x="107.39" y="138.44" class="st6" width="6.67" height="6.67"/>
<rect x="100.72" y="138.44" class="st6" width="6.67" height="6.67"/>
<rect x="94.04" y="138.44" class="st6" width="6.67" height="6.67"/>
<rect x="87.37" y="138.44" class="st6" width="6.67" height="6.67"/>
<rect x="80.7" y="138.44" class="st6" width="6.67" height="6.67"/>
<rect x="74.03" y="138.44" class="st6" width="6.67" height="6.67"/>
<rect x="67.36" y="138.44" class="st6" width="6.67" height="6.67"/>
<rect x="60.68" y="138.44" class="st6" width="6.67" height="6.67"/>
<rect x="54.01" y="138.44" class="st6" width="6.67" height="6.67"/>
<rect x="47.34" y="138.44" class="st6" width="6.67" height="6.67"/>
<rect x="40.67" y="138.44" class="st6" width="6.67" height="6.67"/>
<rect x="33.99" y="138.44" class="st6" width="6.67" height="6.67"/>
<rect x="27.32" y="138.44" class="st6" width="6.67" height="6.67"/>
<rect x="20.65" y="138.44" class="st6" width="6.67" height="6.67"/>
<rect x="13.98" y="138.44" class="st6" width="6.67" height="6.67"/>
<rect x="200.8" y="131.77" class="st6" width="6.67" height="6.67"/>
<rect x="194.13" y="131.77" class="st6" width="6.67" height="6.67"/>
<rect x="187.45" y="131.77" class="st6" width="6.67" height="6.67"/>
<rect x="180.78" y="131.77" class="st6" width="6.67" height="6.67"/>
<rect x="174.11" y="131.77" class="st6" width="6.67" height="6.67"/>
<rect x="167.44" y="131.77" class="st6" width="6.67" height="6.67"/>
<rect x="160.77" y="131.77" class="st6" width="6.67" height="6.67"/>
<rect x="154.09" y="131.77" class="st6" width="6.67" height="6.67"/>
<rect x="147.42" y="131.77" class="st6" width="6.67" height="6.67"/>
<rect x="140.75" y="131.77" class="st6" width="6.67" height="6.67"/>
<rect x="134.08" y="131.77" class="st6" width="6.67" height="6.67"/>
<rect x="127.4" y="131.77" class="st6" width="6.67" height="6.67"/>
<rect x="27.32" y="131.77" class="st6" width="6.67" height="6.67"/>
<rect x="20.65" y="131.77" class="st6" width="6.67" height="6.67"/>
<rect x="13.98" y="131.77" class="st6" width="6.67" height="6.67"/>
<rect x="200.8" y="125.09" class="st6" width="6.67" height="6.67"/>
<rect x="194.13" y="125.09" class="st6" width="6.67" height="6.67"/>
<rect x="187.45" y="125.09" class="st6" width="6.67" height="6.67"/>
<rect x="180.78" y="125.09" class="st6" width="6.67" height="6.67"/>
<rect x="174.11" y="125.09" class="st6" width="6.67" height="6.67"/>
<rect x="167.44" y="125.09" class="st6" width="6.67" height="6.67"/>
<rect x="160.77" y="125.09" class="st6" width="6.67" height="6.67"/>
<rect x="154.09" y="125.09" class="st6" width="6.67" height="6.67"/>
<rect x="147.42" y="125.09" class="st6" width="6.67" height="6.67"/>
<rect x="140.75" y="125.09" class="st6" width="6.67" height="6.67"/>
<rect x="134.08" y="125.09" class="st6" width="6.67" height="6.67"/>
<rect x="127.4" y="125.09" class="st6" width="6.67" height="6.67"/>
<rect x="20.65" y="125.09" class="st6" width="6.67" height="6.67"/>
<rect x="13.98" y="125.09" class="st6" width="6.67" height="6.67"/>
<rect x="200.8" y="118.42" class="st6" width="6.67" height="6.67"/>
<rect x="194.13" y="118.42" class="st6" width="6.67" height="6.67"/>
<rect x="187.45" y="118.42" class="st6" width="6.67" height="6.67"/>
<rect x="160.77" y="118.42" class="st6" width="6.67" height="6.67"/>
<rect x="154.09" y="118.42" class="st6" width="6.67" height="6.67"/>
<rect x="147.42" y="118.42" class="st6" width="6.67" height="6.67"/>
<rect x="140.75" y="118.42" class="st6" width="6.67" height="6.67"/>
<rect x="134.08" y="118.42" class="st6" width="6.67" height="6.67"/>
<rect x="127.4" y="118.42" class="st6" width="6.67" height="6.67"/>
<rect x="20.65" y="118.42" class="st6" width="6.67" height="6.67"/>
<rect x="13.98" y="118.42" class="st6" width="6.67" height="6.67"/>
<rect x="200.8" y="111.75" class="st6" width="6.67" height="6.67"/>
<rect x="194.13" y="111.75" class="st6" width="6.67" height="6.67"/>
<rect x="187.45" y="111.75" class="st6" width="6.67" height="6.67"/>
<rect x="160.77" y="111.75" class="st6" width="6.67" height="6.67"/>
<rect x="154.09" y="111.75" class="st6" width="6.67" height="6.67"/>
<rect x="147.42" y="111.75" class="st6" width="6.67" height="6.67"/>
<rect x="140.75" y="111.75" class="st6" width="6.67" height="6.67"/>
<rect x="134.08" y="111.75" class="st6" width="6.67" height="6.67"/>
<rect x="127.4" y="111.75" class="st6" width="6.67" height="6.67"/>
<rect x="20.65" y="111.75" class="st6" width="6.67" height="6.67"/>
<rect x="13.98" y="111.75" class="st6" width="6.67" height="6.67"/>
<rect x="200.8" y="105.08" class="st6" width="6.67" height="6.67"/>
<rect x="194.13" y="105.08" class="st6" width="6.67" height="6.67"/>
<rect x="187.45" y="105.08" class="st6" width="6.67" height="6.67"/>
<rect x="154.09" y="105.08" class="st6" width="6.67" height="6.67"/>
<rect x="147.42" y="105.08" class="st6" width="6.67" height="6.67"/>
<rect x="140.75" y="105.08" class="st6" width="6.67" height="6.67"/>
<rect x="134.08" y="105.08" class="st6" width="6.67" height="6.67"/>
<rect x="127.4" y="105.08" class="st6" width="6.67" height="6.67"/>
<rect x="20.65" y="105.08" class="st6" width="6.67" height="6.67"/>
<rect x="13.98" y="105.08" class="st6" width="6.67" height="6.67"/>
<rect x="200.8" y="98.41" class="st6" width="6.67" height="6.67"/>
<rect x="194.13" y="98.41" class="st6" width="6.67" height="6.67"/>
<rect x="187.45" y="98.41" class="st6" width="6.67" height="6.67"/>
<rect x="180.78" y="98.41" class="st6" width="6.67" height="6.67"/>
<rect x="174.11" y="98.41" class="st6" width="6.67" height="6.67"/>
<rect x="167.44" y="98.41" class="st6" width="6.67" height="6.67"/>
<rect x="160.77" y="98.41" class="st6" width="6.67" height="6.67"/>
<rect x="154.09" y="98.41" class="st6" width="6.67" height="6.67"/>
<rect x="147.42" y="98.41" class="st6" width="6.67" height="6.67"/>
<rect x="140.75" y="98.41" class="st6" width="6.67" height="6.67"/>
<rect x="134.08" y="98.41" class="st6" width="6.67" height="6.67"/>
<rect x="127.4" y="98.41" class="st6" width="6.67" height="6.67"/>
<rect x="20.65" y="98.41" class="st6" width="6.67" height="6.67"/>
<rect x="13.98" y="98.41" class="st6" width="6.67" height="6.67"/>
<rect x="200.8" y="91.73" class="st6" width="6.67" height="6.67"/>
<rect x="194.13" y="91.73" class="st6" width="6.67" height="6.67"/>
<rect x="187.45" y="91.73" class="st6" width="6.67" height="6.67"/>
<rect x="180.78" y="91.73" class="st6" width="6.67" height="6.67"/>
<rect x="174.11" y="91.73" class="st6" width="6.67" height="6.67"/>
<rect x="167.44" y="91.73" class="st6" width="6.67" height="6.67"/>
<rect x="160.77" y="91.73" class="st6" width="6.67" height="6.67"/>
<rect x="134.08" y="91.73" class="st6" width="6.67" height="6.67"/>
<rect x="127.4" y="91.73" class="st6" width="6.67" height="6.67"/>
<rect x="20.65" y="91.73" class="st6" width="6.67" height="6.67"/>
<rect x="13.98" y="91.73" class="st6" width="6.67" height="6.67"/>
<rect x="200.8" y="85.06" class="st6" width="6.67" height="6.67"/>
<rect x="194.13" y="85.06" class="st6" width="6.67" height="6.67"/>
<rect x="187.45" y="85.06" class="st6" width="6.67" height="6.67"/>
<rect x="180.78" y="85.06" class="st6" width="6.67" height="6.67"/>
<rect x="174.11" y="85.06" class="st6" width="6.67" height="6.67"/>
<rect x="167.44" y="85.06" class="st6" width="6.67" height="6.67"/>
<rect x="160.77" y="85.06" class="st6" width="6.67" height="6.67"/>
<rect x="154.09" y="85.06" class="st6" width="6.67" height="6.67"/>
<rect x="147.42" y="85.06" class="st6" width="6.67" height="6.67"/>
<rect x="140.75" y="85.06" class="st6" width="6.67" height="6.67"/>
<rect x="134.08" y="85.06" class="st6" width="6.67" height="6.67"/>
<rect x="127.4" y="85.06" class="st6" width="6.67" height="6.67"/>
<rect x="20.65" y="85.06" class="st6" width="6.67" height="6.67"/>
<rect x="13.98" y="85.06" class="st6" width="6.67" height="6.67"/>
<rect x="200.8" y="78.39" class="st6" width="6.67" height="6.67"/>
<rect x="194.13" y="78.39" class="st6" width="6.67" height="6.67"/>
<rect x="134.08" y="78.39" class="st6" width="6.67" height="6.67"/>
<rect x="127.4" y="78.39" class="st6" width="6.67" height="6.67"/>
<rect x="20.65" y="78.39" class="st6" width="6.67" height="6.67"/>
<rect x="13.98" y="78.39" class="st6" width="6.67" height="6.67"/>
<rect x="200.8" y="71.72" class="st6" width="6.67" height="6.67"/>
<rect x="194.13" y="71.72" class="st6" width="6.67" height="6.67"/>
<rect x="134.08" y="71.72" class="st6" width="6.67" height="6.67"/>
<rect x="127.4" y="71.72" class="st6" width="6.67" height="6.67"/>
<rect x="20.65" y="71.72" class="st6" width="6.67" height="6.67"/>
<rect x="13.98" y="71.72" class="st6" width="6.67" height="6.67"/>
<rect x="200.8" y="65.05" class="st6" width="6.67" height="6.67"/>
<rect x="194.13" y="65.05" class="st6" width="6.67" height="6.67"/>
<rect x="187.45" y="65.05" class="st6" width="6.67" height="6.67"/>
<rect x="180.78" y="65.05" class="st6" width="6.67" height="6.67"/>
<rect x="174.11" y="65.05" class="st6" width="6.67" height="6.67"/>
<rect x="167.44" y="65.05" class="st6" width="6.67" height="6.67"/>
<rect x="160.77" y="65.05" class="st6" width="6.67" height="6.67"/>
<rect x="154.09" y="65.05" class="st6" width="6.67" height="6.67"/>
<rect x="147.42" y="65.05" class="st6" width="6.67" height="6.67"/>
<rect x="140.75" y="65.05" class="st6" width="6.67" height="6.67"/>
<rect x="134.08" y="65.05" class="st6" width="6.67" height="6.67"/>
<rect x="127.4" y="65.05" class="st6" width="6.67" height="6.67"/>
<rect x="20.65" y="65.05" class="st6" width="6.67" height="6.67"/>
<rect x="13.98" y="65.05" class="st6" width="6.67" height="6.67"/>
<rect x="200.8" y="58.37" class="st6" width="6.67" height="6.67"/>
<rect x="194.13" y="58.37" class="st6" width="6.67" height="6.67"/>
<rect x="187.45" y="58.37" class="st6" width="6.67" height="6.67"/>
<rect x="180.78" y="58.37" class="st6" width="6.67" height="6.67"/>
<rect x="174.11" y="58.37" class="st6" width="6.67" height="6.67"/>
<rect x="167.44" y="58.37" class="st6" width="6.67" height="6.67"/>
<rect x="160.77" y="58.37" class="st6" width="6.67" height="6.67"/>
<rect x="154.09" y="58.37" class="st6" width="6.67" height="6.67"/>
<rect x="147.42" y="58.37" class="st6" width="6.67" height="6.67"/>
<rect x="140.75" y="58.37" class="st6" width="6.67" height="6.67"/>
<rect x="134.08" y="58.37" class="st6" width="6.67" height="6.67"/>
<rect x="127.4" y="58.37" class="st6" width="6.67" height="6.67"/>
<rect x="120.73" y="58.37" class="st6" width="6.67" height="6.67"/>
<rect x="114.06" y="58.37" class="st6" width="6.67" height="6.67"/>
<rect x="107.39" y="58.37" class="st6" width="6.67" height="6.67"/>
<rect x="100.72" y="58.37" class="st6" width="6.67" height="6.67"/>
<rect x="94.04" y="58.37" class="st6" width="6.67" height="6.67"/>
<rect x="87.37" y="58.37" class="st6" width="6.67" height="6.67"/>
<rect x="80.7" y="58.37" class="st6" width="6.67" height="6.67"/>
<rect x="74.03" y="58.37" class="st6" width="6.67" height="6.67"/>
<rect x="67.36" y="58.37" class="st6" width="6.67" height="6.67"/>
<rect x="60.68" y="58.37" class="st6" width="6.67" height="6.67"/>
<rect x="54.01" y="58.37" class="st6" width="6.67" height="6.67"/>
<rect x="47.34" y="58.37" class="st6" width="6.67" height="6.67"/>
<rect x="40.67" y="58.37" class="st6" width="6.67" height="6.67"/>
<rect x="33.99" y="58.37" class="st6" width="6.67" height="6.67"/>
<rect x="27.32" y="58.37" class="st6" width="6.67" height="6.67"/>
<rect x="20.65" y="58.37" class="st6" width="6.67" height="6.67"/>
<rect x="13.98" y="58.37" class="st6" width="6.67" height="6.67"/>
<rect x="200.8" y="51.7" class="st6" width="6.67" height="6.67"/>
<rect x="194.13" y="51.7" class="st6" width="6.67" height="6.67"/>
<rect x="187.45" y="51.7" class="st6" width="6.67" height="6.67"/>
<rect x="180.78" y="51.7" class="st6" width="6.67" height="6.67"/>
<rect x="174.11" y="51.7" class="st6" width="6.67" height="6.67"/>
<rect x="167.44" y="51.7" class="st6" width="6.67" height="6.67"/>
<rect x="160.77" y="51.7" class="st6" width="6.67" height="6.67"/>
<rect x="154.09" y="51.7" class="st6" width="6.67" height="6.67"/>
<rect x="147.42" y="51.7" class="st6" width="6.67" height="6.67"/>
<rect x="140.75" y="51.7" class="st6" width="6.67" height="6.67"/>
<rect x="134.08" y="51.7" class="st6" width="6.67" height="6.67"/>
<rect x="127.4" y="51.7" class="st6" width="6.67" height="6.67"/>
<rect x="120.73" y="51.7" class="st6" width="6.67" height="6.67"/>
<rect x="114.06" y="51.7" class="st6" width="6.67" height="6.67"/>
<rect x="107.39" y="51.7" class="st6" width="6.67" height="6.67"/>
<rect x="100.72" y="51.7" class="st6" width="6.67" height="6.67"/>
<rect x="94.04" y="51.7" class="st6" width="6.67" height="6.67"/>
<rect x="87.37" y="51.7" class="st6" width="6.67" height="6.67"/>
<rect x="80.7" y="51.7" class="st6" width="6.67" height="6.67"/>
<rect x="74.03" y="51.7" class="st6" width="6.67" height="6.67"/>
<rect x="67.36" y="51.7" class="st6" width="6.67" height="6.67"/>
<rect x="60.68" y="51.7" class="st6" width="6.67" height="6.67"/>
<rect x="54.01" y="51.7" class="st6" width="6.67" height="6.67"/>
<rect x="47.34" y="51.7" class="st6" width="6.67" height="6.67"/>
<rect x="40.67" y="51.7" class="st6" width="6.67" height="6.67"/>
<rect x="33.99" y="51.7" class="st6" width="6.67" height="6.67"/>
<rect x="27.32" y="51.7" class="st6" width="6.67" height="6.67"/>
<rect x="20.65" y="51.7" class="st6" width="6.67" height="6.67"/>
<rect x="13.98" y="51.7" class="st6" width="6.67" height="6.67"/>
</svg>
