<?xml version="1.0" encoding="utf-8"?>
<!-- Generator: Adobe Illustrator 30.0.0, SVG Export Plug-In . SVG Version: 9.03 Build 0)  -->
<svg version="1.1" id="Layer_1" xmlns="http://www.w3.org/2000/svg" xmlns:xlink="http://www.w3.org/1999/xlink" x="0px" y="0px"
	 viewBox="0 0 240 240" style="enable-background:new 0 0 240 240;" xml:space="preserve">
<style type="text/css">
	.st0{fill:#E7A086;}
	.st1{fill:#FFE88F;}
	.st2{fill:#610C15;}
	.st3{fill:#761821;}
	.st4{fill:#87232B;}
	.st5{fill:#A84A53;}
</style>
<rect x="125.93" y="203.38" class="st0" width="5.09" height="5.09"/>
<rect x="120.84" y="203.38" class="st0" width="5.09" height="5.09"/>
<rect x="115.74" y="203.38" class="st0" width="5.09" height="5.09"/>
<rect x="131.02" y="198.29" class="st1" width="5.09" height="5.09"/>
<rect x="125.93" y="198.29" class="st1" width="5.09" height="5.09"/>
<rect x="120.84" y="198.29" class="st1" width="5.09" height="5.09"/>
<rect x="115.74" y="198.29" class="st0" width="5.09" height="5.09"/>
<rect x="110.65" y="198.29" class="st0" width="5.09" height="5.09"/>
<rect x="131.02" y="193.2" class="st1" width="5.09" height="5.09"/>
<rect x="125.93" y="193.2" class="st1" width="5.09" height="5.09"/>
<rect x="120.84" y="193.2" class="st1" width="5.09" height="5.09"/>
<rect x="115.74" y="193.2" class="st0" width="5.09" height="5.09"/>
<rect x="110.65" y="193.2" class="st0" width="5.09" height="5.09"/>
<rect x="131.02" y="188.11" class="st1" width="5.09" height="5.09"/>
<rect x="125.93" y="188.11" class="st1" width="5.09" height="5.09"/>
<rect x="120.84" y="188.11" class="st1" width="5.09" height="5.09"/>
<rect x="115.74" y="188.11" class="st0" width="5.09" height="5.09"/>
<rect x="110.65" y="188.11" class="st0" width="5.09" height="5.09"/>
<rect x="131.02" y="183.02" class="st1" width="5.09" height="5.09"/>
<rect x="125.93" y="183.02" class="st1" width="5.09" height="5.09"/>
<rect x="120.84" y="183.02" class="st1" width="5.09" height="5.09"/>
<rect x="115.74" y="183.02" class="st0" width="5.09" height="5.09"/>
<rect x="110.65" y="183.02" class="st0" width="5.09" height="5.09"/>
<rect x="131.02" y="177.92" class="st1" width="5.09" height="5.09"/>
<rect x="125.93" y="177.92" class="st1" width="5.09" height="5.09"/>
<rect x="120.84" y="177.92" class="st1" width="5.09" height="5.09"/>
<rect x="115.74" y="177.92" class="st0" width="5.09" height="5.09"/>
<rect x="110.65" y="177.92" class="st0" width="5.09" height="5.09"/>
<rect x="131.02" y="172.83" class="st1" width="5.09" height="5.09"/>
<rect x="125.93" y="172.83" class="st1" width="5.09" height="5.09"/>
<rect x="120.84" y="172.83" class="st1" width="5.09" height="5.09"/>
<rect x="115.74" y="172.83" class="st0" width="5.09" height="5.09"/>
<rect x="110.65" y="172.83" class="st0" width="5.09" height="5.09"/>
<rect x="131.02" y="167.74" class="st0" width="5.09" height="5.09"/>
<rect x="125.93" y="167.74" class="st0" width="5.09" height="5.09"/>
<rect x="120.84" y="167.74" class="st0" width="5.09" height="5.09"/>
<rect x="115.74" y="167.74" class="st0" width="5.09" height="5.09"/>
<rect x="110.65" y="167.74" class="st0" width="5.09" height="5.09"/>
<rect x="151.39" y="162.65" class="st2" width="5.09" height="5.09"/>
<rect x="146.29" y="162.65" class="st2" width="5.09" height="5.09"/>
<rect x="141.2" y="162.65" class="st2" width="5.09" height="5.09"/>
<rect x="136.11" y="162.65" class="st2" width="5.09" height="5.09"/>
<rect x="131.02" y="162.65" class="st2" width="5.09" height="5.09"/>
<rect x="125.93" y="162.65" class="st2" width="5.09" height="5.09"/>
<rect x="120.84" y="162.65" class="st2" width="5.09" height="5.09"/>
<rect x="115.74" y="162.65" class="st2" width="5.09" height="5.09"/>
<rect x="110.65" y="162.65" class="st2" width="5.09" height="5.09"/>
<rect x="105.56" y="162.65" class="st2" width="5.09" height="5.09"/>
<rect x="100.47" y="162.65" class="st2" width="5.09" height="5.09"/>
<rect x="95.38" y="162.65" class="st2" width="5.09" height="5.09"/>
<rect x="90.28" y="162.65" class="st2" width="5.09" height="5.09"/>
<rect x="156.48" y="157.56" class="st2" width="5.09" height="5.09"/>
<rect x="151.39" y="157.56" class="st2" width="5.09" height="5.09"/>
<rect x="146.29" y="157.56" class="st2" width="5.09" height="5.09"/>
<rect x="141.2" y="157.56" class="st2" width="5.09" height="5.09"/>
<rect x="136.11" y="157.56" class="st2" width="5.09" height="5.09"/>
<rect x="131.02" y="157.56" class="st2" width="5.09" height="5.09"/>
<rect x="125.93" y="157.56" class="st2" width="5.09" height="5.09"/>
<rect x="120.84" y="157.56" class="st2" width="5.09" height="5.09"/>
<rect x="115.74" y="157.56" class="st2" width="5.09" height="5.09"/>
<rect x="110.65" y="157.56" class="st2" width="5.09" height="5.09"/>
<rect x="105.56" y="157.56" class="st2" width="5.09" height="5.09"/>
<rect x="100.47" y="157.56" class="st2" width="5.09" height="5.09"/>
<rect x="95.38" y="157.56" class="st2" width="5.09" height="5.09"/>
<rect x="90.28" y="157.56" class="st2" width="5.09" height="5.09"/>
<rect x="85.19" y="157.56" class="st2" width="5.09" height="5.09"/>
<rect x="161.57" y="152.46" class="st2" width="5.09" height="5.09"/>
<rect x="156.48" y="152.46" class="st3" width="5.09" height="5.09"/>
<rect x="151.39" y="152.46" class="st3" width="5.09" height="5.09"/>
<rect x="146.29" y="152.46" class="st3" width="5.09" height="5.09"/>
<rect x="141.2" y="152.46" class="st3" width="5.09" height="5.09"/>
<rect x="136.11" y="152.46" class="st3" width="5.09" height="5.09"/>
<rect x="131.02" y="152.46" class="st3" width="5.09" height="5.09"/>
<rect x="125.93" y="152.46" class="st3" width="5.09" height="5.09"/>
<rect x="120.84" y="152.46" class="st3" width="5.09" height="5.09"/>
<rect x="115.74" y="152.46" class="st3" width="5.09" height="5.09"/>
<rect x="110.65" y="152.46" class="st3" width="5.09" height="5.09"/>
<rect x="105.56" y="152.46" class="st2" width="5.09" height="5.09"/>
<rect x="100.47" y="152.46" class="st2" width="5.09" height="5.09"/>
<rect x="95.38" y="152.46" class="st2" width="5.09" height="5.09"/>
<rect x="90.28" y="152.46" class="st2" width="5.09" height="5.09"/>
<rect x="85.19" y="152.46" class="st2" width="5.09" height="5.09"/>
<rect x="80.1" y="152.46" class="st2" width="5.09" height="5.09"/>
<rect x="161.57" y="147.37" class="st3" width="5.09" height="5.09"/>
<rect x="156.48" y="147.37" class="st4" width="5.09" height="5.09"/>
<rect x="151.39" y="147.37" class="st4" width="5.09" height="5.09"/>
<rect x="146.29" y="147.37" class="st4" width="5.09" height="5.09"/>
<rect x="141.2" y="147.37" class="st4" width="5.09" height="5.09"/>
<rect x="136.11" y="147.37" class="st4" width="5.09" height="5.09"/>
<rect x="131.02" y="147.37" class="st4" width="5.09" height="5.09"/>
<rect x="125.93" y="147.37" class="st4" width="5.09" height="5.09"/>
<rect x="120.84" y="147.37" class="st4" width="5.09" height="5.09"/>
<rect x="115.74" y="147.37" class="st4" width="5.09" height="5.09"/>
<rect x="110.65" y="147.37" class="st4" width="5.09" height="5.09"/>
<rect x="105.56" y="147.37" class="st3" width="5.09" height="5.09"/>
<rect x="100.47" y="147.37" class="st3" width="5.09" height="5.09"/>
<rect x="95.38" y="147.37" class="st2" width="5.09" height="5.09"/>
<rect x="90.28" y="147.37" class="st2" width="5.09" height="5.09"/>
<rect x="85.19" y="147.37" class="st2" width="5.09" height="5.09"/>
<rect x="80.1" y="147.37" class="st2" width="5.09" height="5.09"/>
<rect x="161.57" y="142.28" class="st4" width="5.09" height="5.09"/>
<rect x="156.48" y="142.28" class="st4" width="5.09" height="5.09"/>
<rect x="151.39" y="142.28" class="st4" width="5.09" height="5.09"/>
<rect x="146.29" y="142.28" class="st4" width="5.09" height="5.09"/>
<rect x="141.2" y="142.28" class="st4" width="5.09" height="5.09"/>
<rect x="136.11" y="142.28" class="st4" width="5.09" height="5.09"/>
<rect x="131.02" y="142.28" class="st4" width="5.09" height="5.09"/>
<rect x="125.93" y="142.28" class="st4" width="5.09" height="5.09"/>
<rect x="120.84" y="142.28" class="st4" width="5.09" height="5.09"/>
<rect x="115.74" y="142.28" class="st5" width="5.09" height="5.09"/>
<rect x="110.65" y="142.28" class="st4" width="5.09" height="5.09"/>
<rect x="105.56" y="142.28" class="st4" width="5.09" height="5.09"/>
<rect x="100.47" y="142.28" class="st3" width="5.09" height="5.09"/>
<rect x="95.38" y="142.28" class="st2" width="5.09" height="5.09"/>
<rect x="90.28" y="142.28" class="st2" width="5.09" height="5.09"/>
<rect x="85.19" y="142.28" class="st2" width="5.09" height="5.09"/>
<rect x="80.1" y="142.28" class="st2" width="5.09" height="5.09"/>
<rect x="161.57" y="137.19" class="st4" width="5.09" height="5.09"/>
<rect x="156.48" y="137.19" class="st4" width="5.09" height="5.09"/>
<rect x="151.39" y="137.19" class="st4" width="5.09" height="5.09"/>
<rect x="146.29" y="137.19" class="st4" width="5.09" height="5.09"/>
<rect x="141.2" y="137.19" class="st4" width="5.09" height="5.09"/>
<rect x="136.11" y="137.19" class="st4" width="5.09" height="5.09"/>
<rect x="131.02" y="137.19" class="st4" width="5.09" height="5.09"/>
<rect x="125.93" y="137.19" class="st4" width="5.09" height="5.09"/>
<rect x="120.84" y="137.19" class="st4" width="5.09" height="5.09"/>
<rect x="115.74" y="137.19" class="st4" width="5.09" height="5.09"/>
<rect x="110.65" y="137.19" class="st5" width="5.09" height="5.09"/>
<rect x="105.56" y="137.19" class="st4" width="5.09" height="5.09"/>
<rect x="100.47" y="137.19" class="st3" width="5.09" height="5.09"/>
<rect x="95.38" y="137.19" class="st2" width="5.09" height="5.09"/>
<rect x="90.28" y="137.19" class="st2" width="5.09" height="5.09"/>
<rect x="85.19" y="137.19" class="st2" width="5.09" height="5.09"/>
<rect x="80.1" y="137.19" class="st2" width="5.09" height="5.09"/>
<rect x="161.57" y="132.1" class="st4" width="5.09" height="5.09"/>
<rect x="156.48" y="132.1" class="st4" width="5.09" height="5.09"/>
<rect x="151.39" y="132.1" class="st4" width="5.09" height="5.09"/>
<rect x="146.29" y="132.1" class="st4" width="5.09" height="5.09"/>
<rect x="141.2" y="132.1" class="st4" width="5.09" height="5.09"/>
<rect x="136.11" y="132.1" class="st4" width="5.09" height="5.09"/>
<rect x="131.02" y="132.1" class="st4" width="5.09" height="5.09"/>
<rect x="125.93" y="132.1" class="st4" width="5.09" height="5.09"/>
<rect x="120.84" y="132.1" class="st5" width="5.09" height="5.09"/>
<rect x="115.74" y="132.1" class="st4" width="5.09" height="5.09"/>
<rect x="110.65" y="132.1" class="st4" width="5.09" height="5.09"/>
<rect x="105.56" y="132.1" class="st4" width="5.09" height="5.09"/>
<rect x="100.47" y="132.1" class="st3" width="5.09" height="5.09"/>
<rect x="95.38" y="132.1" class="st2" width="5.09" height="5.09"/>
<rect x="90.28" y="132.1" class="st2" width="5.09" height="5.09"/>
<rect x="85.19" y="132.1" class="st2" width="5.09" height="5.09"/>
<rect x="80.1" y="132.1" class="st2" width="5.09" height="5.09"/>
<rect x="161.57" y="127.01" class="st4" width="5.09" height="5.09"/>
<rect x="156.48" y="127.01" class="st4" width="5.09" height="5.09"/>
<rect x="151.39" y="127.01" class="st4" width="5.09" height="5.09"/>
<rect x="146.29" y="127.01" class="st4" width="5.09" height="5.09"/>
<rect x="141.2" y="127.01" class="st4" width="5.09" height="5.09"/>
<rect x="136.11" y="127.01" class="st4" width="5.09" height="5.09"/>
<rect x="131.02" y="127.01" class="st4" width="5.09" height="5.09"/>
<rect x="125.93" y="127.01" class="st4" width="5.09" height="5.09"/>
<rect x="120.84" y="127.01" class="st4" width="5.09" height="5.09"/>
<rect x="115.74" y="127.01" class="st4" width="5.09" height="5.09"/>
<rect x="110.65" y="127.01" class="st4" width="5.09" height="5.09"/>
<rect x="105.56" y="127.01" class="st4" width="5.09" height="5.09"/>
<rect x="100.47" y="127.01" class="st3" width="5.09" height="5.09"/>
<rect x="95.38" y="127.01" class="st2" width="5.09" height="5.09"/>
<rect x="90.28" y="127.01" class="st2" width="5.09" height="5.09"/>
<rect x="85.19" y="127.01" class="st2" width="5.09" height="5.09"/>
<rect x="80.1" y="127.01" class="st2" width="5.09" height="5.09"/>
<rect x="161.57" y="121.91" class="st4" width="5.09" height="5.09"/>
<rect x="156.48" y="121.91" class="st4" width="5.09" height="5.09"/>
<rect x="151.39" y="121.91" class="st4" width="5.09" height="5.09"/>
<rect x="146.29" y="121.91" class="st4" width="5.09" height="5.09"/>
<rect x="141.2" y="121.91" class="st4" width="5.09" height="5.09"/>
<rect x="136.11" y="121.91" class="st4" width="5.09" height="5.09"/>
<rect x="131.02" y="121.91" class="st4" width="5.09" height="5.09"/>
<rect x="125.93" y="121.91" class="st4" width="5.09" height="5.09"/>
<rect x="120.84" y="121.91" class="st4" width="5.09" height="5.09"/>
<rect x="115.74" y="121.91" class="st4" width="5.09" height="5.09"/>
<rect x="110.65" y="121.91" class="st4" width="5.09" height="5.09"/>
<rect x="105.56" y="121.91" class="st4" width="5.09" height="5.09"/>
<rect x="100.47" y="121.91" class="st3" width="5.09" height="5.09"/>
<rect x="95.38" y="121.91" class="st2" width="5.09" height="5.09"/>
<rect x="90.28" y="121.91" class="st2" width="5.09" height="5.09"/>
<rect x="85.19" y="121.91" class="st2" width="5.09" height="5.09"/>
<rect x="80.1" y="121.91" class="st2" width="5.09" height="5.09"/>
<rect x="161.57" y="116.82" class="st4" width="5.09" height="5.09"/>
<rect x="156.48" y="116.82" class="st4" width="5.09" height="5.09"/>
<rect x="151.39" y="116.82" class="st4" width="5.09" height="5.09"/>
<rect x="146.29" y="116.82" class="st4" width="5.09" height="5.09"/>
<rect x="141.2" y="116.82" class="st4" width="5.09" height="5.09"/>
<rect x="136.11" y="116.82" class="st4" width="5.09" height="5.09"/>
<rect x="131.02" y="116.82" class="st4" width="5.09" height="5.09"/>
<rect x="125.93" y="116.82" class="st4" width="5.09" height="5.09"/>
<rect x="120.84" y="116.82" class="st4" width="5.09" height="5.09"/>
<rect x="115.74" y="116.82" class="st4" width="5.09" height="5.09"/>
<rect x="110.65" y="116.82" class="st4" width="5.09" height="5.09"/>
<rect x="105.56" y="116.82" class="st4" width="5.09" height="5.09"/>
<rect x="100.47" y="116.82" class="st3" width="5.09" height="5.09"/>
<rect x="95.38" y="116.82" class="st2" width="5.09" height="5.09"/>
<rect x="90.28" y="116.82" class="st2" width="5.09" height="5.09"/>
<rect x="85.19" y="116.82" class="st2" width="5.09" height="5.09"/>
<rect x="80.1" y="116.82" class="st2" width="5.09" height="5.09"/>
<rect x="161.57" y="111.73" class="st4" width="5.09" height="5.09"/>
<rect x="156.48" y="111.73" class="st4" width="5.09" height="5.09"/>
<rect x="151.39" y="111.73" class="st4" width="5.09" height="5.09"/>
<rect x="146.29" y="111.73" class="st4" width="5.09" height="5.09"/>
<rect x="141.2" y="111.73" class="st4" width="5.09" height="5.09"/>
<rect x="136.11" y="111.73" class="st4" width="5.09" height="5.09"/>
<rect x="131.02" y="111.73" class="st4" width="5.09" height="5.09"/>
<rect x="125.93" y="111.73" class="st4" width="5.09" height="5.09"/>
<rect x="120.84" y="111.73" class="st4" width="5.09" height="5.09"/>
<rect x="115.74" y="111.73" class="st4" width="5.09" height="5.09"/>
<rect x="110.65" y="111.73" class="st4" width="5.09" height="5.09"/>
<rect x="105.56" y="111.73" class="st4" width="5.09" height="5.09"/>
<rect x="100.47" y="111.73" class="st3" width="5.09" height="5.09"/>
<rect x="95.38" y="111.73" class="st2" width="5.09" height="5.09"/>
<rect x="90.28" y="111.73" class="st2" width="5.09" height="5.09"/>
<rect x="85.19" y="111.73" class="st2" width="5.09" height="5.09"/>
<rect x="80.1" y="111.73" class="st2" width="5.09" height="5.09"/>
<rect x="161.57" y="106.64" class="st4" width="5.09" height="5.09"/>
<rect x="156.48" y="106.64" class="st4" width="5.09" height="5.09"/>
<rect x="151.39" y="106.64" class="st4" width="5.09" height="5.09"/>
<rect x="146.29" y="106.64" class="st4" width="5.09" height="5.09"/>
<rect x="141.2" y="106.64" class="st4" width="5.09" height="5.09"/>
<rect x="136.11" y="106.64" class="st4" width="5.09" height="5.09"/>
<rect x="131.02" y="106.64" class="st4" width="5.09" height="5.09"/>
<rect x="125.93" y="106.64" class="st4" width="5.09" height="5.09"/>
<rect x="120.84" y="106.64" class="st4" width="5.09" height="5.09"/>
<rect x="115.74" y="106.64" class="st4" width="5.09" height="5.09"/>
<rect x="110.65" y="106.64" class="st4" width="5.09" height="5.09"/>
<rect x="105.56" y="106.64" class="st4" width="5.09" height="5.09"/>
<rect x="100.47" y="106.64" class="st3" width="5.09" height="5.09"/>
<rect x="95.38" y="106.64" class="st2" width="5.09" height="5.09"/>
<rect x="90.28" y="106.64" class="st2" width="5.09" height="5.09"/>
<rect x="85.19" y="106.64" class="st2" width="5.09" height="5.09"/>
<rect x="80.1" y="106.64" class="st2" width="5.09" height="5.09"/>
<rect x="161.57" y="101.55" class="st4" width="5.09" height="5.09"/>
<rect x="156.48" y="101.55" class="st4" width="5.09" height="5.09"/>
<rect x="151.39" y="101.55" class="st4" width="5.09" height="5.09"/>
<rect x="146.29" y="101.55" class="st4" width="5.09" height="5.09"/>
<rect x="141.2" y="101.55" class="st4" width="5.09" height="5.09"/>
<rect x="136.11" y="101.55" class="st4" width="5.09" height="5.09"/>
<rect x="131.02" y="101.55" class="st4" width="5.09" height="5.09"/>
<rect x="125.93" y="101.55" class="st4" width="5.09" height="5.09"/>
<rect x="120.84" y="101.55" class="st4" width="5.09" height="5.09"/>
<rect x="115.74" y="101.55" class="st4" width="5.09" height="5.09"/>
<rect x="110.65" y="101.55" class="st4" width="5.09" height="5.09"/>
<rect x="105.56" y="101.55" class="st4" width="5.09" height="5.09"/>
<rect x="100.47" y="101.55" class="st3" width="5.09" height="5.09"/>
<rect x="95.38" y="101.55" class="st2" width="5.09" height="5.09"/>
<rect x="90.28" y="101.55" class="st2" width="5.09" height="5.09"/>
<rect x="85.19" y="101.55" class="st2" width="5.09" height="5.09"/>
<rect x="80.1" y="101.55" class="st2" width="5.09" height="5.09"/>
<rect x="161.57" y="96.46" class="st4" width="5.09" height="5.09"/>
<rect x="156.48" y="96.46" class="st4" width="5.09" height="5.09"/>
<rect x="151.39" y="96.46" class="st4" width="5.09" height="5.09"/>
<rect x="146.29" y="96.46" class="st4" width="5.09" height="5.09"/>
<rect x="141.2" y="96.46" class="st4" width="5.09" height="5.09"/>
<rect x="136.11" y="96.46" class="st4" width="5.09" height="5.09"/>
<rect x="131.02" y="96.46" class="st4" width="5.09" height="5.09"/>
<rect x="125.93" y="96.46" class="st4" width="5.09" height="5.09"/>
<rect x="120.84" y="96.46" class="st4" width="5.09" height="5.09"/>
<rect x="115.74" y="96.46" class="st4" width="5.09" height="5.09"/>
<rect x="110.65" y="96.46" class="st4" width="5.09" height="5.09"/>
<rect x="105.56" y="96.46" class="st4" width="5.09" height="5.09"/>
<rect x="100.47" y="96.46" class="st3" width="5.09" height="5.09"/>
<rect x="95.38" y="96.46" class="st2" width="5.09" height="5.09"/>
<rect x="90.28" y="96.46" class="st2" width="5.09" height="5.09"/>
<rect x="85.19" y="96.46" class="st2" width="5.09" height="5.09"/>
<rect x="80.1" y="96.46" class="st2" width="5.09" height="5.09"/>
<rect x="161.57" y="91.36" class="st4" width="5.09" height="5.09"/>
<rect x="156.48" y="91.36" class="st4" width="5.09" height="5.09"/>
<rect x="151.39" y="91.36" class="st4" width="5.09" height="5.09"/>
<rect x="146.29" y="91.36" class="st4" width="5.09" height="5.09"/>
<rect x="141.2" y="91.36" class="st4" width="5.09" height="5.09"/>
<rect x="136.11" y="91.36" class="st4" width="5.09" height="5.09"/>
<rect x="131.02" y="91.36" class="st4" width="5.09" height="5.09"/>
<rect x="125.93" y="91.36" class="st4" width="5.09" height="5.09"/>
<rect x="120.84" y="91.36" class="st4" width="5.09" height="5.09"/>
<rect x="115.74" y="91.36" class="st4" width="5.09" height="5.09"/>
<rect x="110.65" y="91.36" class="st4" width="5.09" height="5.09"/>
<rect x="105.56" y="91.36" class="st4" width="5.09" height="5.09"/>
<rect x="100.47" y="91.36" class="st3" width="5.09" height="5.09"/>
<rect x="95.38" y="91.36" class="st2" width="5.09" height="5.09"/>
<rect x="90.28" y="91.36" class="st2" width="5.09" height="5.09"/>
<rect x="85.19" y="91.36" class="st2" width="5.09" height="5.09"/>
<rect x="80.1" y="91.36" class="st2" width="5.09" height="5.09"/>
<rect x="161.57" y="86.26" class="st4" width="5.09" height="5.09"/>
<rect x="156.48" y="86.26" class="st4" width="5.09" height="5.09"/>
<rect x="151.39" y="86.26" class="st4" width="5.09" height="5.09"/>
<rect x="146.29" y="86.26" class="st4" width="5.09" height="5.09"/>
<rect x="141.2" y="86.26" class="st4" width="5.09" height="5.09"/>
<rect x="136.11" y="86.26" class="st4" width="5.09" height="5.09"/>
<rect x="131.02" y="86.26" class="st4" width="5.09" height="5.09"/>
<rect x="125.93" y="86.26" class="st4" width="5.09" height="5.09"/>
<rect x="120.84" y="86.26" class="st4" width="5.09" height="5.09"/>
<rect x="115.74" y="86.26" class="st4" width="5.09" height="5.09"/>
<rect x="110.65" y="86.26" class="st4" width="5.09" height="5.09"/>
<rect x="105.56" y="86.26" class="st4" width="5.09" height="5.09"/>
<rect x="100.47" y="86.26" class="st3" width="5.09" height="5.09"/>
<rect x="95.38" y="86.26" class="st2" width="5.09" height="5.09"/>
<rect x="90.28" y="86.26" class="st2" width="5.09" height="5.09"/>
<rect x="85.19" y="86.26" class="st2" width="5.09" height="5.09"/>
<rect x="80.1" y="86.26" class="st2" width="5.09" height="5.09"/>
<rect x="161.57" y="81.17" class="st4" width="5.09" height="5.09"/>
<rect x="156.48" y="81.17" class="st4" width="5.09" height="5.09"/>
<rect x="151.39" y="81.17" class="st4" width="5.09" height="5.09"/>
<rect x="146.29" y="81.17" class="st4" width="5.09" height="5.09"/>
<rect x="141.2" y="81.17" class="st4" width="5.09" height="5.09"/>
<rect x="136.11" y="81.17" class="st4" width="5.09" height="5.09"/>
<rect x="131.02" y="81.17" class="st4" width="5.09" height="5.09"/>
<rect x="125.93" y="81.17" class="st4" width="5.09" height="5.09"/>
<rect x="120.84" y="81.17" class="st4" width="5.09" height="5.09"/>
<rect x="115.74" y="81.17" class="st4" width="5.09" height="5.09"/>
<rect x="110.65" y="81.17" class="st4" width="5.09" height="5.09"/>
<rect x="105.56" y="81.17" class="st4" width="5.09" height="5.09"/>
<rect x="100.47" y="81.17" class="st3" width="5.09" height="5.09"/>
<rect x="95.38" y="81.17" class="st2" width="5.09" height="5.09"/>
<rect x="90.28" y="81.17" class="st2" width="5.09" height="5.09"/>
<rect x="85.19" y="81.17" class="st2" width="5.09" height="5.09"/>
<rect x="80.1" y="81.17" class="st2" width="5.09" height="5.09"/>
<rect x="161.57" y="76.08" class="st4" width="5.09" height="5.09"/>
<rect x="156.48" y="76.08" class="st4" width="5.09" height="5.09"/>
<rect x="151.39" y="76.08" class="st4" width="5.09" height="5.09"/>
<rect x="146.29" y="76.08" class="st4" width="5.09" height="5.09"/>
<rect x="141.2" y="76.08" class="st4" width="5.09" height="5.09"/>
<rect x="136.11" y="76.08" class="st4" width="5.09" height="5.09"/>
<rect x="131.02" y="76.08" class="st4" width="5.09" height="5.09"/>
<rect x="125.93" y="76.08" class="st4" width="5.09" height="5.09"/>
<rect x="120.84" y="76.08" class="st4" width="5.09" height="5.09"/>
<rect x="115.74" y="76.08" class="st4" width="5.09" height="5.09"/>
<rect x="110.65" y="76.08" class="st4" width="5.09" height="5.09"/>
<rect x="105.56" y="76.08" class="st4" width="5.09" height="5.09"/>
<rect x="100.47" y="76.08" class="st3" width="5.09" height="5.09"/>
<rect x="95.38" y="76.08" class="st2" width="5.09" height="5.09"/>
<rect x="90.28" y="76.08" class="st2" width="5.09" height="5.09"/>
<rect x="85.19" y="76.08" class="st2" width="5.09" height="5.09"/>
<rect x="80.1" y="76.08" class="st2" width="5.09" height="5.09"/>
<rect x="161.57" y="70.99" class="st4" width="5.09" height="5.09"/>
<rect x="156.48" y="70.99" class="st4" width="5.09" height="5.09"/>
<rect x="151.39" y="70.99" class="st4" width="5.09" height="5.09"/>
<rect x="146.29" y="70.99" class="st4" width="5.09" height="5.09"/>
<rect x="141.2" y="70.99" class="st4" width="5.09" height="5.09"/>
<rect x="136.11" y="70.99" class="st4" width="5.09" height="5.09"/>
<rect x="131.02" y="70.99" class="st4" width="5.09" height="5.09"/>
<rect x="125.93" y="70.99" class="st4" width="5.09" height="5.09"/>
<rect x="120.84" y="70.99" class="st4" width="5.09" height="5.09"/>
<rect x="115.74" y="70.99" class="st4" width="5.09" height="5.09"/>
<rect x="110.65" y="70.99" class="st4" width="5.09" height="5.09"/>
<rect x="105.56" y="70.99" class="st4" width="5.09" height="5.09"/>
<rect x="100.47" y="70.99" class="st3" width="5.09" height="5.09"/>
<rect x="95.38" y="70.99" class="st2" width="5.09" height="5.09"/>
<rect x="90.28" y="70.99" class="st2" width="5.09" height="5.09"/>
<rect x="85.19" y="70.99" class="st2" width="5.09" height="5.09"/>
<rect x="80.1" y="70.99" class="st2" width="5.09" height="5.09"/>
<rect x="161.57" y="65.9" class="st4" width="5.09" height="5.09"/>
<rect x="156.48" y="65.9" class="st4" width="5.09" height="5.09"/>
<rect x="151.39" y="65.9" class="st4" width="5.09" height="5.09"/>
<rect x="146.29" y="65.9" class="st4" width="5.09" height="5.09"/>
<rect x="141.2" y="65.9" class="st4" width="5.09" height="5.09"/>
<rect x="136.11" y="65.9" class="st4" width="5.09" height="5.09"/>
<rect x="131.02" y="65.9" class="st4" width="5.09" height="5.09"/>
<rect x="125.93" y="65.9" class="st4" width="5.09" height="5.09"/>
<rect x="120.84" y="65.9" class="st4" width="5.09" height="5.09"/>
<rect x="115.74" y="65.9" class="st4" width="5.09" height="5.09"/>
<rect x="110.65" y="65.9" class="st4" width="5.09" height="5.09"/>
<rect x="105.56" y="65.9" class="st4" width="5.09" height="5.09"/>
<rect x="100.47" y="65.9" class="st3" width="5.09" height="5.09"/>
<rect x="95.38" y="65.9" class="st2" width="5.09" height="5.09"/>
<rect x="90.28" y="65.9" class="st2" width="5.09" height="5.09"/>
<rect x="85.19" y="65.9" class="st2" width="5.09" height="5.09"/>
<rect x="80.1" y="65.9" class="st2" width="5.09" height="5.09"/>
<rect x="161.57" y="60.8" class="st4" width="5.09" height="5.09"/>
<rect x="156.48" y="60.8" class="st4" width="5.09" height="5.09"/>
<rect x="151.39" y="60.8" class="st4" width="5.09" height="5.09"/>
<rect x="146.29" y="60.8" class="st4" width="5.09" height="5.09"/>
<rect x="141.2" y="60.8" class="st4" width="5.09" height="5.09"/>
<rect x="136.11" y="60.8" class="st4" width="5.09" height="5.09"/>
<rect x="131.02" y="60.8" class="st4" width="5.09" height="5.09"/>
<rect x="125.93" y="60.8" class="st4" width="5.09" height="5.09"/>
<rect x="120.84" y="60.8" class="st4" width="5.09" height="5.09"/>
<rect x="115.74" y="60.8" class="st4" width="5.09" height="5.09"/>
<rect x="110.65" y="60.8" class="st4" width="5.09" height="5.09"/>
<rect x="105.56" y="60.8" class="st4" width="5.09" height="5.09"/>
<rect x="100.47" y="60.8" class="st3" width="5.09" height="5.09"/>
<rect x="95.38" y="60.8" class="st2" width="5.09" height="5.09"/>
<rect x="90.28" y="60.8" class="st2" width="5.09" height="5.09"/>
<rect x="85.19" y="60.8" class="st2" width="5.09" height="5.09"/>
<rect x="80.1" y="60.8" class="st2" width="5.09" height="5.09"/>
<rect x="161.57" y="55.71" class="st4" width="5.09" height="5.09"/>
<rect x="156.48" y="55.71" class="st4" width="5.09" height="5.09"/>
<rect x="151.39" y="55.71" class="st4" width="5.09" height="5.09"/>
<rect x="146.29" y="55.71" class="st4" width="5.09" height="5.09"/>
<rect x="141.2" y="55.71" class="st4" width="5.09" height="5.09"/>
<rect x="136.11" y="55.71" class="st4" width="5.09" height="5.09"/>
<rect x="131.02" y="55.71" class="st4" width="5.09" height="5.09"/>
<rect x="125.93" y="55.71" class="st4" width="5.09" height="5.09"/>
<rect x="120.84" y="55.71" class="st4" width="5.09" height="5.09"/>
<rect x="115.74" y="55.71" class="st4" width="5.09" height="5.09"/>
<rect x="110.65" y="55.71" class="st4" width="5.09" height="5.09"/>
<rect x="105.56" y="55.71" class="st4" width="5.09" height="5.09"/>
<rect x="100.47" y="55.71" class="st3" width="5.09" height="5.09"/>
<rect x="95.38" y="55.71" class="st2" width="5.09" height="5.09"/>
<rect x="90.28" y="55.71" class="st2" width="5.09" height="5.09"/>
<rect x="85.19" y="55.71" class="st2" width="5.09" height="5.09"/>
<rect x="80.1" y="55.71" class="st2" width="5.09" height="5.09"/>
<rect x="156.48" y="50.62" class="st4" width="5.09" height="5.09"/>
<rect x="151.39" y="50.62" class="st4" width="5.09" height="5.09"/>
<rect x="146.29" y="50.62" class="st4" width="5.09" height="5.09"/>
<rect x="141.2" y="50.62" class="st4" width="5.09" height="5.09"/>
<rect x="136.11" y="50.62" class="st4" width="5.09" height="5.09"/>
<rect x="131.02" y="50.62" class="st4" width="5.09" height="5.09"/>
<rect x="125.93" y="50.62" class="st4" width="5.09" height="5.09"/>
<rect x="120.84" y="50.62" class="st4" width="5.09" height="5.09"/>
<rect x="115.74" y="50.62" class="st4" width="5.09" height="5.09"/>
<rect x="110.65" y="50.62" class="st4" width="5.09" height="5.09"/>
<rect x="105.56" y="50.62" class="st3" width="5.09" height="5.09"/>
<rect x="100.47" y="50.62" class="st2" width="5.09" height="5.09"/>
<rect x="95.38" y="50.62" class="st2" width="5.09" height="5.09"/>
<rect x="90.28" y="50.62" class="st2" width="5.09" height="5.09"/>
<rect x="85.19" y="50.62" class="st2" width="5.09" height="5.09"/>
<rect x="156.48" y="45.53" class="st5" width="5.09" height="5.09"/>
<rect x="151.39" y="45.53" class="st4" width="5.09" height="5.09"/>
<rect x="146.29" y="45.53" class="st4" width="5.09" height="5.09"/>
<rect x="141.2" y="45.53" class="st4" width="5.09" height="5.09"/>
<rect x="136.11" y="45.53" class="st4" width="5.09" height="5.09"/>
<rect x="131.02" y="45.53" class="st4" width="5.09" height="5.09"/>
<rect x="125.93" y="45.53" class="st4" width="5.09" height="5.09"/>
<rect x="120.84" y="45.53" class="st4" width="5.09" height="5.09"/>
<rect x="115.74" y="45.53" class="st4" width="5.09" height="5.09"/>
<rect x="110.65" y="45.53" class="st5" width="5.09" height="5.09"/>
<rect x="105.56" y="45.53" class="st3" width="5.09" height="5.09"/>
<rect x="100.47" y="45.53" class="st2" width="5.09" height="5.09"/>
<rect x="95.38" y="45.53" class="st2" width="5.09" height="5.09"/>
<rect x="90.28" y="45.53" class="st2" width="5.09" height="5.09"/>
<rect x="85.19" y="45.53" class="st2" width="5.09" height="5.09"/>
<rect x="151.39" y="40.44" class="st5" width="5.09" height="5.09"/>
<rect x="146.29" y="40.44" class="st4" width="5.09" height="5.09"/>
<rect x="141.2" y="40.44" class="st4" width="5.09" height="5.09"/>
<rect x="136.11" y="40.44" class="st4" width="5.09" height="5.09"/>
<rect x="131.02" y="40.44" class="st4" width="5.09" height="5.09"/>
<rect x="125.93" y="40.44" class="st4" width="5.09" height="5.09"/>
<rect x="120.84" y="40.44" class="st4" width="5.09" height="5.09"/>
<rect x="115.74" y="40.44" class="st5" width="5.09" height="5.09"/>
<rect x="110.65" y="40.44" class="st3" width="5.09" height="5.09"/>
<rect x="105.56" y="40.44" class="st2" width="5.09" height="5.09"/>
<rect x="100.47" y="40.44" class="st2" width="5.09" height="5.09"/>
<rect x="95.38" y="40.44" class="st2" width="5.09" height="5.09"/>
<rect x="90.28" y="40.44" class="st2" width="5.09" height="5.09"/>
<rect x="146.29" y="35.34" class="st5" width="5.09" height="5.09"/>
<rect x="141.2" y="35.34" class="st4" width="5.09" height="5.09"/>
<rect x="136.11" y="35.34" class="st4" width="5.09" height="5.09"/>
<rect x="131.02" y="35.34" class="st4" width="5.09" height="5.09"/>
<rect x="125.93" y="35.34" class="st4" width="5.09" height="5.09"/>
<rect x="120.84" y="35.34" class="st5" width="5.09" height="5.09"/>
<rect x="115.74" y="35.34" class="st3" width="5.09" height="5.09"/>
<rect x="110.65" y="35.34" class="st2" width="5.09" height="5.09"/>
<rect x="105.56" y="35.34" class="st2" width="5.09" height="5.09"/>
<rect x="100.47" y="35.34" class="st2" width="5.09" height="5.09"/>
<rect x="95.38" y="35.34" class="st2" width="5.09" height="5.09"/>
<rect x="141.2" y="30.25" class="st5" width="5.09" height="5.09"/>
<rect x="136.11" y="30.25" class="st5" width="5.09" height="5.09"/>
<rect x="131.02" y="30.25" class="st5" width="5.09" height="5.09"/>
<rect x="125.93" y="30.25" class="st5" width="5.09" height="5.09"/>
<rect x="120.84" y="30.25" class="st3" width="5.09" height="5.09"/>
<rect x="115.74" y="30.25" class="st2" width="5.09" height="5.09"/>
<rect x="110.65" y="30.25" class="st2" width="5.09" height="5.09"/>
<rect x="105.56" y="30.25" class="st2" width="5.09" height="5.09"/>
<rect x="100.47" y="30.25" class="st2" width="5.09" height="5.09"/>
</svg>
