<?xml version="1.0" encoding="utf-8"?>
<!-- Generator: Adobe Illustrator 30.0.0, SVG Export Plug-In . SVG Version: 9.03 Build 0)  -->
<svg version="1.1" id="Layer_1" xmlns="http://www.w3.org/2000/svg" xmlns:xlink="http://www.w3.org/1999/xlink" x="0px" y="0px"
	 viewBox="0 0 240 240" style="enable-background:new 0 0 240 240;" xml:space="preserve">
<style type="text/css">
	.st0{fill:#FC5F88;}
	.st1{fill:#06995A;}
	.st2{fill:#8C3F00;}
	.st3{fill:#EBC794;}
	.st4{fill:#C86100;}
	.st5{fill:#FD2A5C;}
	.st6{fill:#D50E48;}
	.st7{fill:#00400A;}
	.st8{fill:#FDDEA7;}
	.st9{fill:#FF9700;}
	.st10{fill:#FFD300;}
	.st11{fill:#006324;}
</style>
<rect x="189.71" y="161.68" class="st0" width="9.43" height="9.43"/>
<rect x="189.71" y="142.83" class="st1" width="9.43" height="9.43"/>
<rect x="180.28" y="189.97" class="st2" width="9.43" height="9.43"/>
<rect x="180.28" y="180.54" class="st3" width="9.43" height="9.43"/>
<rect x="180.28" y="171.11" class="st4" width="9.43" height="9.43"/>
<rect x="180.28" y="161.68" class="st5" width="9.43" height="9.43"/>
<rect x="180.28" y="152.26" class="st6" width="9.43" height="9.43"/>
<rect x="180.28" y="142.83" class="st6" width="9.43" height="9.43"/>
<rect x="180.28" y="133.4" class="st7" width="9.43" height="9.43"/>
<rect x="180.28" y="123.97" class="st2" width="9.43" height="9.43"/>
<rect x="180.28" y="114.55" class="st8" width="9.43" height="9.43"/>
<rect x="180.28" y="105.12" class="st4" width="9.43" height="9.43"/>
<rect x="170.86" y="189.97" class="st2" width="9.43" height="9.43"/>
<rect x="170.86" y="180.54" class="st3" width="9.43" height="9.43"/>
<rect x="170.86" y="171.11" class="st2" width="9.43" height="9.43"/>
<rect x="170.86" y="161.68" class="st5" width="9.43" height="9.43"/>
<rect x="170.86" y="152.26" class="st6" width="9.43" height="9.43"/>
<rect x="170.86" y="142.83" class="st7" width="9.43" height="9.43"/>
<rect x="170.86" y="133.4" class="st7" width="9.43" height="9.43"/>
<rect x="170.86" y="123.97" class="st2" width="9.43" height="9.43"/>
<rect x="170.86" y="114.55" class="st8" width="9.43" height="9.43"/>
<rect x="170.86" y="105.12" class="st4" width="9.43" height="9.43"/>
<rect x="170.86" y="95.69" class="st8" width="9.43" height="9.43"/>
<rect x="161.43" y="189.97" class="st2" width="9.43" height="9.43"/>
<rect x="161.43" y="180.54" class="st3" width="9.43" height="9.43"/>
<rect x="161.43" y="171.11" class="st2" width="9.43" height="9.43"/>
<rect x="161.43" y="161.68" class="st5" width="9.43" height="9.43"/>
<rect x="161.43" y="152.26" class="st6" width="9.43" height="9.43"/>
<rect x="161.43" y="142.83" class="st7" width="9.43" height="9.43"/>
<rect x="161.43" y="133.4" class="st7" width="9.43" height="9.43"/>
<rect x="161.43" y="123.97" class="st2" width="9.43" height="9.43"/>
<rect x="161.43" y="114.55" class="st8" width="9.43" height="9.43"/>
<rect x="161.43" y="105.12" class="st4" width="9.43" height="9.43"/>
<rect x="161.43" y="95.69" class="st8" width="9.43" height="9.43"/>
<rect x="161.43" y="86.26" class="st8" width="9.43" height="9.43"/>
<rect x="152" y="189.97" class="st2" width="9.43" height="9.43"/>
<rect x="152" y="180.54" class="st3" width="9.43" height="9.43"/>
<rect x="152" y="171.11" class="st2" width="9.43" height="9.43"/>
<rect x="152" y="161.68" class="st6" width="9.43" height="9.43"/>
<rect x="152" y="152.26" class="st9" width="9.43" height="9.43"/>
<rect x="152" y="142.83" class="st6" width="9.43" height="9.43"/>
<rect x="152" y="133.4" class="st7" width="9.43" height="9.43"/>
<rect x="152" y="123.97" class="st2" width="9.43" height="9.43"/>
<rect x="152" y="114.55" class="st8" width="9.43" height="9.43"/>
<rect x="152" y="105.12" class="st4" width="9.43" height="9.43"/>
<rect x="152" y="95.69" class="st8" width="9.43" height="9.43"/>
<rect x="152" y="86.26" class="st8" width="9.43" height="9.43"/>
<rect x="152" y="76.84" class="st8" width="9.43" height="9.43"/>
<rect x="142.57" y="189.97" class="st2" width="9.43" height="9.43"/>
<rect x="142.57" y="180.54" class="st3" width="9.43" height="9.43"/>
<rect x="142.57" y="171.11" class="st2" width="9.43" height="9.43"/>
<rect x="142.57" y="161.68" class="st10" width="9.43" height="9.43"/>
<rect x="142.57" y="152.26" class="st9" width="9.43" height="9.43"/>
<rect x="142.57" y="142.83" class="st11" width="9.43" height="9.43"/>
<rect x="142.57" y="133.4" class="st7" width="9.43" height="9.43"/>
<rect x="142.57" y="123.97" class="st2" width="9.43" height="9.43"/>
<rect x="142.57" y="114.55" class="st8" width="9.43" height="9.43"/>
<rect x="142.57" y="105.12" class="st4" width="9.43" height="9.43"/>
<rect x="142.57" y="95.69" class="st8" width="9.43" height="9.43"/>
<rect x="142.57" y="86.26" class="st3" width="9.43" height="9.43"/>
<rect x="142.57" y="76.84" class="st8" width="9.43" height="9.43"/>
<rect x="142.57" y="67.41" class="st8" width="9.43" height="9.43"/>
<rect x="133.13" y="189.97" class="st2" width="9.45" height="9.43"/>
<rect x="133.13" y="180.54" class="st3" width="9.45" height="9.43"/>
<rect x="133.13" y="171.11" class="st2" width="9.45" height="9.43"/>
<rect x="133.13" y="161.68" class="st10" width="9.45" height="9.43"/>
<rect x="133.13" y="152.26" class="st1" width="9.45" height="9.43"/>
<rect x="133.13" y="142.83" class="st11" width="9.45" height="9.43"/>
<rect x="133.13" y="133.4" class="st7" width="9.45" height="9.43"/>
<rect x="133.13" y="123.97" class="st2" width="9.45" height="9.43"/>
<rect x="133.13" y="114.55" class="st8" width="9.45" height="9.43"/>
<rect x="133.13" y="105.12" class="st4" width="9.45" height="9.43"/>
<rect x="133.13" y="95.69" class="st8" width="9.45" height="9.43"/>
<rect x="133.13" y="86.26" class="st8" width="9.45" height="9.43"/>
<rect x="133.13" y="76.84" class="st8" width="9.45" height="9.43"/>
<rect x="133.13" y="67.41" class="st3" width="9.45" height="9.43"/>
<rect x="133.13" y="57.98" class="st8" width="9.45" height="9.43"/>
<rect x="123.7" y="189.97" class="st2" width="9.43" height="9.43"/>
<rect x="123.7" y="180.54" class="st3" width="9.43" height="9.43"/>
<rect x="123.7" y="171.11" class="st2" width="9.43" height="9.43"/>
<rect x="123.7" y="161.68" class="st0" width="9.43" height="9.43"/>
<rect x="123.7" y="152.26" class="st9" width="9.43" height="9.43"/>
<rect x="123.7" y="142.83" class="st11" width="9.43" height="9.43"/>
<rect x="123.7" y="133.4" class="st7" width="9.43" height="9.43"/>
<rect x="123.7" y="123.97" class="st2" width="9.43" height="9.43"/>
<rect x="123.7" y="114.55" class="st8" width="9.43" height="9.43"/>
<rect x="123.7" y="105.12" class="st4" width="9.43" height="9.43"/>
<rect x="123.7" y="95.69" class="st8" width="9.43" height="9.43"/>
<rect x="123.7" y="86.26" class="st8" width="9.43" height="9.43"/>
<rect x="123.7" y="76.84" class="st8" width="9.43" height="9.43"/>
<rect x="123.7" y="67.41" class="st8" width="9.43" height="9.43"/>
<rect x="123.7" y="57.98" class="st8" width="9.43" height="9.43"/>
<rect x="123.7" y="48.53" class="st8" width="9.43" height="9.45"/>
<rect x="114.27" y="189.97" class="st2" width="9.43" height="9.43"/>
<rect x="114.27" y="180.54" class="st4" width="9.43" height="9.43"/>
<rect x="114.27" y="171.11" class="st2" width="9.43" height="9.43"/>
<rect x="114.27" y="161.68" class="st0" width="9.43" height="9.43"/>
<rect x="114.27" y="152.26" class="st6" width="9.43" height="9.43"/>
<rect x="114.27" y="142.83" class="st11" width="9.43" height="9.43"/>
<rect x="114.27" y="133.4" class="st7" width="9.43" height="9.43"/>
<rect x="114.27" y="123.97" class="st2" width="9.43" height="9.43"/>
<rect x="114.27" y="114.55" class="st3" width="9.43" height="9.43"/>
<rect x="114.27" y="105.12" class="st4" width="9.43" height="9.43"/>
<rect x="114.27" y="95.69" class="st8" width="9.43" height="9.43"/>
<rect x="114.27" y="86.26" class="st3" width="9.43" height="9.43"/>
<rect x="114.27" y="76.84" class="st8" width="9.43" height="9.43"/>
<rect x="114.27" y="67.41" class="st3" width="9.43" height="9.43"/>
<rect x="114.27" y="57.98" class="st8" width="9.43" height="9.43"/>
<rect x="114.27" y="48.53" class="st3" width="9.43" height="9.45"/>
<rect x="104.84" y="189.97" class="st2" width="9.43" height="9.43"/>
<rect x="104.84" y="180.54" class="st4" width="9.43" height="9.43"/>
<rect x="104.84" y="171.11" class="st2" width="9.43" height="9.43"/>
<rect x="104.84" y="161.68" class="st6" width="9.43" height="9.43"/>
<rect x="104.84" y="152.26" class="st9" width="9.43" height="9.43"/>
<rect x="104.84" y="142.83" class="st11" width="9.43" height="9.43"/>
<rect x="104.84" y="133.4" class="st7" width="9.43" height="9.43"/>
<rect x="104.84" y="123.97" class="st2" width="9.43" height="9.43"/>
<rect x="104.84" y="114.55" class="st3" width="9.43" height="9.43"/>
<rect x="104.84" y="105.12" class="st4" width="9.43" height="9.43"/>
<rect x="104.84" y="95.69" class="st8" width="9.43" height="9.43"/>
<rect x="104.84" y="86.26" class="st8" width="9.43" height="9.43"/>
<rect x="104.84" y="76.84" class="st8" width="9.43" height="9.43"/>
<rect x="104.84" y="67.41" class="st8" width="9.43" height="9.43"/>
<rect x="104.84" y="57.98" class="st8" width="9.43" height="9.43"/>
<rect x="104.84" y="48.53" class="st8" width="9.43" height="9.45"/>
<rect x="104.84" y="39.11" class="st4" width="9.43" height="9.43"/>
<rect x="95.42" y="189.97" class="st2" width="9.43" height="9.43"/>
<rect x="95.42" y="180.54" class="st4" width="9.43" height="9.43"/>
<rect x="95.42" y="171.11" class="st2" width="9.43" height="9.43"/>
<rect x="95.42" y="161.68" class="st10" width="9.43" height="9.43"/>
<rect x="95.42" y="152.26" class="st1" width="9.43" height="9.43"/>
<rect x="95.42" y="142.83" class="st7" width="9.43" height="9.43"/>
<rect x="95.42" y="133.4" class="st7" width="9.43" height="9.43"/>
<rect x="95.42" y="123.97" class="st2" width="9.43" height="9.43"/>
<rect x="95.42" y="114.55" class="st3" width="9.43" height="9.43"/>
<rect x="95.42" y="105.12" class="st4" width="9.43" height="9.43"/>
<rect x="95.42" y="95.69" class="st8" width="9.43" height="9.43"/>
<rect x="95.42" y="86.26" class="st8" width="9.43" height="9.43"/>
<rect x="95.42" y="76.84" class="st8" width="9.43" height="9.43"/>
<rect x="95.42" y="67.41" class="st3" width="9.43" height="9.43"/>
<rect x="95.42" y="57.98" class="st8" width="9.43" height="9.43"/>
<rect x="95.42" y="48.53" class="st4" width="9.43" height="9.45"/>
<rect x="85.99" y="189.97" class="st2" width="9.43" height="9.43"/>
<rect x="85.99" y="180.54" class="st4" width="9.43" height="9.43"/>
<rect x="85.99" y="171.11" class="st10" width="9.43" height="9.43"/>
<rect x="85.99" y="161.68" class="st10" width="9.43" height="9.43"/>
<rect x="85.99" y="152.26" class="st1" width="9.43" height="9.43"/>
<rect x="85.99" y="142.83" class="st7" width="9.43" height="9.43"/>
<rect x="85.99" y="133.4" class="st7" width="9.43" height="9.43"/>
<rect x="85.99" y="123.97" class="st2" width="9.43" height="9.43"/>
<rect x="85.99" y="114.55" class="st3" width="9.43" height="9.43"/>
<rect x="85.99" y="105.12" class="st4" width="9.43" height="9.43"/>
<rect x="85.99" y="95.69" class="st8" width="9.43" height="9.43"/>
<rect x="85.99" y="86.26" class="st3" width="9.43" height="9.43"/>
<rect x="85.99" y="76.84" class="st8" width="9.43" height="9.43"/>
<rect x="85.99" y="67.41" class="st8" width="9.43" height="9.43"/>
<rect x="85.99" y="57.98" class="st4" width="9.43" height="9.43"/>
<rect x="76.56" y="189.97" class="st2" width="9.43" height="9.43"/>
<rect x="76.56" y="180.54" class="st4" width="9.43" height="9.43"/>
<rect x="76.56" y="171.11" class="st2" width="9.43" height="9.43"/>
<rect x="76.56" y="161.68" class="st9" width="9.43" height="9.43"/>
<rect x="76.56" y="152.26" class="st9" width="9.43" height="9.43"/>
<rect x="76.56" y="142.83" class="st11" width="9.43" height="9.43"/>
<rect x="76.56" y="133.4" class="st7" width="9.43" height="9.43"/>
<rect x="76.56" y="123.97" class="st2" width="9.43" height="9.43"/>
<rect x="76.56" y="114.55" class="st3" width="9.43" height="9.43"/>
<rect x="76.56" y="105.12" class="st4" width="9.43" height="9.43"/>
<rect x="76.56" y="95.69" class="st8" width="9.43" height="9.43"/>
<rect x="76.56" y="86.26" class="st8" width="9.43" height="9.43"/>
<rect x="76.56" y="76.84" class="st8" width="9.43" height="9.43"/>
<rect x="76.56" y="67.41" class="st4" width="9.43" height="9.43"/>
<rect x="67.13" y="189.97" class="st2" width="9.43" height="9.43"/>
<rect x="67.13" y="180.54" class="st4" width="9.43" height="9.43"/>
<rect x="67.13" y="171.11" class="st2" width="9.43" height="9.43"/>
<rect x="67.13" y="161.68" class="st6" width="9.43" height="9.43"/>
<rect x="67.13" y="152.26" class="st9" width="9.43" height="9.43"/>
<rect x="67.13" y="142.83" class="st11" width="9.43" height="9.43"/>
<rect x="67.13" y="133.4" class="st7" width="9.43" height="9.43"/>
<rect x="67.13" y="123.97" class="st2" width="9.43" height="9.43"/>
<rect x="67.13" y="114.55" class="st3" width="9.43" height="9.43"/>
<rect x="67.13" y="105.12" class="st4" width="9.43" height="9.43"/>
<rect x="67.13" y="95.69" class="st8" width="9.43" height="9.43"/>
<rect x="67.13" y="86.26" class="st8" width="9.43" height="9.43"/>
<rect x="67.13" y="76.84" class="st4" width="9.43" height="9.43"/>
<rect x="57.7" y="189.97" class="st2" width="9.43" height="9.43"/>
<rect x="57.7" y="180.54" class="st4" width="9.43" height="9.43"/>
<rect x="57.7" y="171.11" class="st2" width="9.43" height="9.43"/>
<rect x="57.7" y="161.68" class="st0" width="9.43" height="9.43"/>
<rect x="57.7" y="152.26" class="st6" width="9.43" height="9.43"/>
<rect x="57.7" y="142.83" class="st11" width="9.43" height="9.43"/>
<rect x="57.7" y="133.4" class="st7" width="9.43" height="9.43"/>
<rect x="57.7" y="123.97" class="st2" width="9.43" height="9.43"/>
<rect x="57.7" y="114.55" class="st3" width="9.43" height="9.43"/>
<rect x="57.7" y="105.12" class="st4" width="9.43" height="9.43"/>
<rect x="57.7" y="95.69" class="st8" width="9.43" height="9.43"/>
<rect x="57.7" y="86.26" class="st4" width="9.43" height="9.43"/>
<rect x="48.28" y="189.97" class="st4" width="9.43" height="9.43"/>
<rect x="48.28" y="180.54" class="st4" width="9.43" height="9.43"/>
<rect x="48.28" y="171.11" class="st4" width="9.43" height="9.43"/>
<rect x="48.28" y="161.68" class="st5" width="9.43" height="9.43"/>
<rect x="48.28" y="152.26" class="st0" width="9.43" height="9.43"/>
<rect x="48.28" y="142.83" class="st6" width="9.43" height="9.43"/>
<rect x="48.28" y="133.4" class="st7" width="9.43" height="9.43"/>
<rect x="48.28" y="123.97" class="st2" width="9.43" height="9.43"/>
<rect x="48.28" y="114.55" class="st4" width="9.43" height="9.43"/>
<rect x="48.28" y="105.12" class="st4" width="9.43" height="9.43"/>
<rect x="48.28" y="95.69" class="st4" width="9.43" height="9.43"/>
<rect x="38.85" y="161.68" class="st6" width="9.43" height="9.43"/>
<rect x="38.85" y="142.83" class="st7" width="9.43" height="9.43"/>
</svg>
