<?xml version="1.0" encoding="utf-8"?>
<!-- Generator: Adobe Illustrator 30.0.0, SVG Export Plug-In . SVG Version: 9.03 Build 0)  -->
<svg version="1.1" id="Layer_1" xmlns="http://www.w3.org/2000/svg" xmlns:xlink="http://www.w3.org/1999/xlink" x="0px" y="0px"
	 viewBox="0 0 240 240" style="enable-background:new 0 0 240 240;" xml:space="preserve">
<style type="text/css">
	.st0{fill:#9B4102;}
	.st1{fill:#BB5F20;}
	.st2{fill:#CE7231;}
	.st3{fill:#EFBA6E;}
	.st4{fill:#EFB76D;}
	.st5{fill:#F7C77B;}
	.st6{fill:#EAB67C;}
	.st7{fill:#FBE7C2;}
	.st8{fill:#F9C97D;}
	.st9{fill:#FDD687;}
	.st10{fill:#DFAB7B;}
	.st11{fill:#FFF1D4;}
	.st12{fill:#F6E0BB;}
	.st13{fill:#FFE8A8;}
	.st14{fill:#FFF4D6;}
</style>
<g>
	<g>
		<g>
			<g>
				<rect x="64.92" y="185.93" class="st0" width="7.35" height="7.33"/>
			</g>
			<g>
				<rect x="57.57" y="185.93" class="st0" width="7.35" height="7.33"/>
			</g>
			<g>
				<rect x="50.22" y="185.93" class="st0" width="7.35" height="7.33"/>
			</g>
			<g>
				<rect x="42.87" y="185.93" class="st0" width="7.35" height="7.33"/>
			</g>
			<rect x="35.52" y="185.93" class="st1" width="7.35" height="7.33"/>
			<g>
				<rect x="28.18" y="185.93" class="st2" width="7.35" height="7.33"/>
			</g>
			<g>
				<rect x="116.35" y="178.6" class="st0" width="7.35" height="7.33"/>
			</g>
			<g>
				<rect x="109" y="178.6" class="st0" width="7.35" height="7.33"/>
			</g>
			<g>
				<rect x="101.66" y="178.6" class="st0" width="7.35" height="7.33"/>
			</g>
			<g>
				<rect x="94.31" y="178.6" class="st0" width="7.35" height="7.33"/>
			</g>
			<g>
				<rect x="86.96" y="178.6" class="st0" width="7.35" height="7.33"/>
			</g>
			<g>
				<rect x="79.61" y="178.6" class="st0" width="7.35" height="7.33"/>
			</g>
			<rect x="72.26" y="178.6" class="st1" width="7.35" height="7.33"/>
			<g>
				<rect x="64.92" y="178.6" class="st2" width="7.35" height="7.33"/>
			</g>
			<g>
				<rect x="160.44" y="171.28" class="st0" width="7.35" height="7.33"/>
			</g>
			<g>
				<rect x="153.09" y="171.28" class="st0" width="7.35" height="7.33"/>
			</g>
			<g>
				<rect x="145.74" y="171.28" class="st0" width="7.35" height="7.33"/>
			</g>
			<g>
				<rect x="138.4" y="171.28" class="st0" width="7.35" height="7.33"/>
			</g>
			<g>
				<rect x="131.05" y="171.28" class="st0" width="7.35" height="7.33"/>
			</g>
			<rect x="123.7" y="171.28" class="st1" width="7.35" height="7.33"/>
			<g>
				<rect x="116.35" y="171.28" class="st2" width="7.35" height="7.33"/>
			</g>
			<g>
				<rect x="189.83" y="163.95" class="st0" width="7.35" height="7.33"/>
			</g>
			<g>
				<rect x="182.49" y="163.95" class="st0" width="7.35" height="7.33"/>
			</g>
			<g>
				<rect x="175.14" y="163.95" class="st0" width="7.35" height="7.33"/>
			</g>
			<g>
				<rect x="167.79" y="163.95" class="st0" width="7.35" height="7.33"/>
			</g>
			<rect x="160.44" y="163.95" class="st1" width="7.35" height="7.33"/>
			<g>
				<rect x="189.83" y="156.63" class="st0" width="7.35" height="7.33"/>
			</g>
		</g>
	</g>
	<g>
		<g>
			<rect x="57.57" y="178.6" class="st3" width="7.35" height="7.33"/>
			<rect x="50.22" y="178.6" class="st3" width="7.35" height="7.33"/>
			<rect x="42.87" y="178.6" class="st3" width="7.35" height="7.33"/>
			<rect x="35.52" y="178.6" class="st3" width="7.35" height="7.33"/>
			<rect x="28.18" y="178.6" class="st3" width="7.35" height="7.33"/>
			<rect x="109" y="171.28" class="st3" width="7.35" height="7.33"/>
			<rect x="101.66" y="171.28" class="st3" width="7.35" height="7.33"/>
			<rect x="94.31" y="171.28" class="st3" width="7.35" height="7.33"/>
			<rect x="86.96" y="171.28" class="st3" width="7.35" height="7.33"/>
			<rect x="79.61" y="171.28" class="st3" width="7.35" height="7.33"/>
			<rect x="72.26" y="171.28" class="st3" width="7.35" height="7.33"/>
			<rect x="64.92" y="171.28" class="st3" width="7.35" height="7.33"/>
			<rect x="153.09" y="163.95" class="st3" width="7.35" height="7.33"/>
			<rect x="145.74" y="163.95" class="st3" width="7.35" height="7.33"/>
			<rect x="138.4" y="163.95" class="st3" width="7.35" height="7.33"/>
			<rect x="131.05" y="163.95" class="st3" width="7.35" height="7.33"/>
			<rect x="123.7" y="163.95" class="st3" width="7.35" height="7.33"/>
			<rect x="116.35" y="163.95" class="st3" width="7.35" height="7.33"/>
			<rect x="182.49" y="156.63" class="st3" width="7.35" height="7.33"/>
			<rect x="175.14" y="156.63" class="st3" width="7.35" height="7.33"/>
			<rect x="167.79" y="156.63" class="st3" width="7.35" height="7.33"/>
			<rect x="160.44" y="156.63" class="st3" width="7.35" height="7.33"/>
		</g>
	</g>
	<rect x="153.09" y="156.63" class="st4" width="7.35" height="7.33"/>
	<rect x="35.52" y="149.3" class="st5" width="7.35" height="7.33"/>
	<rect x="175.14" y="141.98" class="st4" width="7.35" height="7.33"/>
	<rect x="35.52" y="141.98" class="st5" width="7.35" height="7.33"/>
	<rect x="182.49" y="134.65" class="st4" width="7.35" height="7.33"/>
	<rect x="35.52" y="134.65" class="st5" width="7.35" height="7.33"/>
	<g>
		<g>
			<rect x="57.57" y="171.28" class="st5" width="7.35" height="7.33"/>
			<rect x="50.22" y="171.28" class="st5" width="7.35" height="7.33"/>
			<rect x="42.87" y="171.28" class="st5" width="7.35" height="7.33"/>
			<rect x="35.52" y="171.28" class="st5" width="7.35" height="7.33"/>
			<rect x="109" y="163.95" class="st5" width="7.35" height="7.33"/>
			<rect x="101.66" y="163.95" class="st5" width="7.35" height="7.33"/>
			<rect x="94.31" y="163.95" class="st5" width="7.35" height="7.33"/>
			<rect x="86.96" y="163.95" class="st5" width="7.35" height="7.33"/>
			<rect x="79.61" y="163.95" class="st5" width="7.35" height="7.33"/>
			<rect x="72.26" y="163.95" class="st5" width="7.35" height="7.33"/>
			<rect x="64.92" y="163.95" class="st5" width="7.35" height="7.33"/>
			<rect x="57.57" y="163.95" class="st5" width="7.35" height="7.33"/>
			<rect x="50.22" y="163.95" class="st5" width="7.35" height="7.33"/>
			<rect x="42.87" y="163.95" class="st5" width="7.35" height="7.33"/>
			<rect x="35.52" y="163.95" class="st5" width="7.35" height="7.33"/>
			<rect x="138.4" y="156.63" class="st5" width="7.35" height="7.33"/>
			<rect x="131.05" y="156.63" class="st5" width="7.35" height="7.33"/>
			<rect x="123.7" y="156.63" class="st5" width="7.35" height="7.33"/>
			<rect x="116.35" y="156.63" class="st5" width="7.35" height="7.33"/>
			<rect x="109" y="156.63" class="st5" width="7.35" height="7.33"/>
			<rect x="101.66" y="156.63" class="st5" width="7.35" height="7.33"/>
			<rect x="94.31" y="156.63" class="st5" width="7.35" height="7.33"/>
			<rect x="86.96" y="156.63" class="st5" width="7.35" height="7.33"/>
			<rect x="79.61" y="156.63" class="st5" width="7.35" height="7.33"/>
			<rect x="72.26" y="156.63" class="st5" width="7.35" height="7.33"/>
			<rect x="64.92" y="156.63" class="st5" width="7.35" height="7.33"/>
			<rect x="57.57" y="156.63" class="st5" width="7.35" height="7.33"/>
			<rect x="50.22" y="156.63" class="st5" width="7.35" height="7.33"/>
			<rect x="42.87" y="156.63" class="st5" width="7.35" height="7.33"/>
			<rect x="35.52" y="156.63" class="st5" width="7.35" height="7.33"/>
			<rect x="145.74" y="149.3" class="st5" width="7.35" height="7.33"/>
			<rect x="138.4" y="149.3" class="st5" width="7.35" height="7.33"/>
			<rect x="131.05" y="149.3" class="st5" width="7.35" height="7.33"/>
			<rect x="123.7" y="149.3" class="st5" width="7.35" height="7.33"/>
			<rect x="116.35" y="149.3" class="st5" width="7.35" height="7.33"/>
			<rect x="109" y="149.3" class="st5" width="7.35" height="7.33"/>
			<rect x="101.66" y="149.3" class="st5" width="7.35" height="7.33"/>
			<rect x="94.31" y="149.3" class="st5" width="7.35" height="7.33"/>
			<rect x="86.96" y="149.3" class="st5" width="7.35" height="7.33"/>
			<rect x="79.61" y="149.3" class="st5" width="7.35" height="7.33"/>
			<rect x="72.26" y="149.3" class="st5" width="7.35" height="7.33"/>
			<rect x="64.92" y="149.3" class="st5" width="7.35" height="7.33"/>
			<rect x="57.57" y="149.3" class="st5" width="7.35" height="7.33"/>
			<rect x="50.22" y="149.3" class="st5" width="7.35" height="7.33"/>
			<rect x="42.87" y="149.3" class="st5" width="7.35" height="7.33"/>
			<rect x="145.74" y="141.98" class="st5" width="7.35" height="7.33"/>
			<rect x="138.4" y="141.98" class="st5" width="7.35" height="7.33"/>
			<rect x="131.05" y="141.98" class="st5" width="7.35" height="7.33"/>
			<rect x="123.7" y="141.98" class="st5" width="7.35" height="7.33"/>
			<rect x="116.35" y="141.98" class="st5" width="7.35" height="7.33"/>
			<rect x="109" y="141.98" class="st5" width="7.35" height="7.33"/>
			<rect x="101.66" y="141.98" class="st5" width="7.35" height="7.33"/>
			<rect x="94.31" y="141.98" class="st5" width="7.35" height="7.33"/>
			<rect x="86.96" y="141.98" class="st5" width="7.35" height="7.33"/>
			<rect x="79.61" y="141.98" class="st5" width="7.35" height="7.33"/>
			<rect x="72.26" y="141.98" class="st5" width="7.35" height="7.33"/>
			<rect x="64.92" y="141.98" class="st5" width="7.35" height="7.33"/>
			<rect x="57.57" y="141.98" class="st5" width="7.35" height="7.33"/>
			<rect x="50.22" y="141.98" class="st5" width="7.35" height="7.33"/>
			<rect x="42.87" y="141.98" class="st5" width="7.35" height="7.33"/>
			<rect x="153.09" y="134.65" class="st5" width="7.35" height="7.33"/>
			<rect x="145.74" y="134.65" class="st5" width="7.35" height="7.33"/>
			<rect x="138.4" y="134.65" class="st5" width="7.35" height="7.33"/>
			<rect x="131.05" y="134.65" class="st5" width="7.35" height="7.33"/>
			<rect x="123.7" y="134.65" class="st5" width="7.35" height="7.33"/>
			<rect x="116.35" y="134.65" class="st5" width="7.35" height="7.33"/>
			<rect x="109" y="134.65" class="st5" width="7.35" height="7.33"/>
			<rect x="101.66" y="134.65" class="st5" width="7.35" height="7.33"/>
			<rect x="94.31" y="134.65" class="st5" width="7.35" height="7.33"/>
			<rect x="86.96" y="134.65" class="st5" width="7.35" height="7.33"/>
			<rect x="79.61" y="134.65" class="st5" width="7.35" height="7.33"/>
			<rect x="72.26" y="134.65" class="st5" width="7.35" height="7.33"/>
			<rect x="64.92" y="134.65" class="st5" width="7.35" height="7.33"/>
			<rect x="57.57" y="134.65" class="st5" width="7.35" height="7.33"/>
			<rect x="50.22" y="134.65" class="st5" width="7.35" height="7.33"/>
			<rect x="42.87" y="134.65" class="st5" width="7.35" height="7.33"/>
			<rect x="153.09" y="127.33" class="st5" width="7.35" height="7.33"/>
			<rect x="145.74" y="127.33" class="st5" width="7.35" height="7.33"/>
			<rect x="138.4" y="127.33" class="st5" width="7.35" height="7.33"/>
			<rect x="131.05" y="127.33" class="st5" width="7.35" height="7.33"/>
			<rect x="123.7" y="127.33" class="st5" width="7.35" height="7.33"/>
			<rect x="116.35" y="127.33" class="st5" width="7.35" height="7.33"/>
			<rect x="109" y="127.33" class="st5" width="7.35" height="7.33"/>
			<rect x="101.66" y="127.33" class="st5" width="7.35" height="7.33"/>
			<rect x="94.31" y="127.33" class="st5" width="7.35" height="7.33"/>
			<rect x="86.96" y="127.33" class="st5" width="7.35" height="7.33"/>
			<rect x="153.09" y="120" class="st5" width="7.35" height="7.33"/>
			<rect x="145.74" y="120" class="st5" width="7.35" height="7.33"/>
			<rect x="138.4" y="120" class="st5" width="7.35" height="7.33"/>
			<rect x="131.05" y="120" class="st5" width="7.35" height="7.33"/>
			<rect x="123.7" y="120" class="st5" width="7.35" height="7.33"/>
		</g>
	</g>
	<rect x="153.09" y="112.67" class="st5" width="7.35" height="7.33"/>
	<rect x="145.74" y="112.67" class="st5" width="7.35" height="7.33"/>
	<rect x="175.14" y="105.35" class="st6" width="7.35" height="7.33"/>
	<g>
		<g>
			<rect x="145.74" y="156.63" class="st4" width="7.35" height="7.33"/>
			<rect x="182.49" y="149.3" class="st4" width="7.35" height="7.33"/>
			<rect x="175.14" y="149.3" class="st4" width="7.35" height="7.33"/>
			<rect x="167.79" y="149.3" class="st4" width="7.35" height="7.33"/>
			<rect x="160.44" y="149.3" class="st4" width="7.35" height="7.33"/>
			<rect x="153.09" y="149.3" class="st4" width="7.35" height="7.33"/>
			<rect x="182.49" y="141.98" class="st4" width="7.35" height="7.33"/>
			<rect x="167.79" y="141.98" class="st4" width="7.35" height="7.33"/>
			<rect x="160.44" y="141.98" class="st4" width="7.35" height="7.33"/>
			<rect x="153.09" y="141.98" class="st4" width="7.35" height="7.33"/>
			<rect x="175.14" y="134.65" class="st4" width="7.35" height="7.33"/>
			<rect x="167.79" y="134.65" class="st4" width="7.35" height="7.33"/>
			<rect x="160.44" y="134.65" class="st4" width="7.35" height="7.33"/>
			<rect x="182.49" y="127.33" class="st4" width="7.35" height="7.33"/>
			<rect x="175.14" y="127.33" class="st4" width="7.35" height="7.33"/>
			<rect x="167.79" y="127.33" class="st4" width="7.35" height="7.33"/>
			<rect x="160.44" y="127.33" class="st4" width="7.35" height="7.33"/>
			<rect x="79.61" y="127.33" class="st4" width="7.35" height="7.33"/>
			<rect x="72.26" y="127.33" class="st4" width="7.35" height="7.33"/>
			<rect x="64.92" y="127.33" class="st4" width="7.35" height="7.33"/>
			<rect x="57.57" y="127.33" class="st4" width="7.35" height="7.33"/>
			<rect x="50.22" y="127.33" class="st4" width="7.35" height="7.33"/>
			<rect x="42.87" y="127.33" class="st4" width="7.35" height="7.33"/>
			<rect x="35.52" y="127.33" class="st4" width="7.35" height="7.33"/>
			<rect x="182.49" y="120" class="st4" width="7.35" height="7.33"/>
			<rect x="175.14" y="120" class="st4" width="7.35" height="7.33"/>
			<rect x="167.79" y="120" class="st4" width="7.35" height="7.33"/>
			<rect x="160.44" y="120" class="st4" width="7.35" height="7.33"/>
			<rect x="116.35" y="120" class="st4" width="7.35" height="7.33"/>
			<rect x="109" y="120" class="st4" width="7.35" height="7.33"/>
			<rect x="101.66" y="120" class="st4" width="7.35" height="7.33"/>
			<rect x="94.31" y="120" class="st4" width="7.35" height="7.33"/>
			<rect x="86.96" y="120" class="st4" width="7.35" height="7.33"/>
			<rect x="79.61" y="120" class="st4" width="7.35" height="7.33"/>
			<rect x="182.49" y="112.67" class="st4" width="7.35" height="7.33"/>
			<rect x="175.14" y="112.67" class="st4" width="7.35" height="7.33"/>
			<rect x="167.79" y="112.67" class="st4" width="7.35" height="7.33"/>
			<rect x="160.44" y="112.67" class="st4" width="7.35" height="7.33"/>
			<rect x="138.4" y="112.67" class="st4" width="7.35" height="7.33"/>
			<rect x="131.05" y="112.67" class="st4" width="7.35" height="7.33"/>
			<rect x="123.7" y="112.67" class="st4" width="7.35" height="7.33"/>
			<rect x="116.35" y="112.67" class="st4" width="7.35" height="7.33"/>
			<rect x="182.49" y="105.35" class="st4" width="7.35" height="7.33"/>
			<rect x="167.79" y="105.35" class="st4" width="7.35" height="7.33"/>
			<rect x="160.44" y="105.35" class="st4" width="7.35" height="7.33"/>
			<rect x="153.09" y="105.35" class="st4" width="7.35" height="7.33"/>
			<rect x="145.74" y="105.35" class="st4" width="7.35" height="7.33"/>
			<rect x="182.49" y="98.02" class="st4" width="7.35" height="7.33"/>
			<rect x="175.14" y="98.02" class="st4" width="7.35" height="7.33"/>
			<rect x="167.79" y="98.02" class="st4" width="7.35" height="7.33"/>
		</g>
	</g>
	<g>
		<rect x="197.18" y="156.63" class="st0" width="7.35" height="7.33"/>
		<rect x="197.18" y="149.3" class="st0" width="7.35" height="7.33"/>
		<rect x="197.18" y="141.98" class="st0" width="7.35" height="7.33"/>
		<rect x="197.18" y="134.65" class="st0" width="7.35" height="7.33"/>
		<rect x="197.18" y="127.33" class="st0" width="7.35" height="7.33"/>
		<rect x="197.18" y="120" class="st0" width="7.35" height="7.33"/>
		<rect x="197.18" y="112.67" class="st0" width="7.35" height="7.33"/>
		<rect x="197.18" y="105.35" class="st0" width="7.35" height="7.33"/>
		<rect x="197.18" y="98.02" class="st0" width="7.35" height="7.33"/>
		<rect x="197.18" y="90.7" class="st1" width="7.35" height="7.33"/>
		<rect x="197.18" y="83.37" class="st1" width="7.35" height="7.33"/>
	</g>
	<rect x="145.74" y="76.05" class="st7" width="7.35" height="7.33"/>
	<rect x="138.4" y="76.05" class="st7" width="7.35" height="7.33"/>
	<rect x="131.05" y="76.05" class="st7" width="7.35" height="7.33"/>
	<g>
		<g>
			<g>
				<rect x="160.44" y="90.7" class="st8" width="7.35" height="7.33"/>
			</g>
			<g>
				<rect x="153.09" y="90.7" class="st8" width="7.35" height="7.33"/>
			</g>
			<g>
				<rect x="145.74" y="90.7" class="st8" width="7.35" height="7.33"/>
			</g>
			<g>
				<rect x="138.4" y="90.7" class="st8" width="7.35" height="7.33"/>
			</g>
			<g>
				<rect x="131.05" y="90.7" class="st8" width="7.35" height="7.33"/>
			</g>
			<g>
				<rect x="123.7" y="90.7" class="st8" width="7.35" height="7.33"/>
			</g>
			<g>
				<rect x="116.35" y="90.7" class="st8" width="7.35" height="7.33"/>
			</g>
			<g>
				<rect x="167.79" y="83.37" class="st8" width="7.35" height="7.33"/>
			</g>
			<g>
				<rect x="109" y="83.37" class="st8" width="7.35" height="7.33"/>
			</g>
			<g>
				<rect x="167.79" y="76.05" class="st8" width="7.35" height="7.33"/>
			</g>
			<g>
				<rect x="109" y="76.05" class="st8" width="7.35" height="7.33"/>
			</g>
		</g>
	</g>
	<g>
		<g>
			<rect x="72.26" y="120" class="st9" width="7.35" height="7.33"/>
			<rect x="64.92" y="120" class="st9" width="7.35" height="7.33"/>
			<rect x="57.57" y="120" class="st9" width="7.35" height="7.33"/>
			<rect x="50.22" y="120" class="st9" width="7.35" height="7.33"/>
			<rect x="42.87" y="120" class="st9" width="7.35" height="7.33"/>
			<rect x="35.52" y="120" class="st9" width="7.35" height="7.33"/>
			<rect x="109" y="112.67" class="st9" width="7.35" height="7.33"/>
			<rect x="101.66" y="112.67" class="st9" width="7.35" height="7.33"/>
			<rect x="94.31" y="112.67" class="st9" width="7.35" height="7.33"/>
			<rect x="86.96" y="112.67" class="st9" width="7.35" height="7.33"/>
			<rect x="79.61" y="112.67" class="st9" width="7.35" height="7.33"/>
			<rect x="72.26" y="112.67" class="st9" width="7.35" height="7.33"/>
			<rect x="64.92" y="112.67" class="st9" width="7.35" height="7.33"/>
			<rect x="57.57" y="112.67" class="st9" width="7.35" height="7.33"/>
			<rect x="50.22" y="112.67" class="st9" width="7.35" height="7.33"/>
			<rect x="42.87" y="112.67" class="st9" width="7.35" height="7.33"/>
			<rect x="138.4" y="105.35" class="st9" width="7.35" height="7.33"/>
			<rect x="131.05" y="105.35" class="st9" width="7.35" height="7.33"/>
			<rect x="123.7" y="105.35" class="st9" width="7.35" height="7.33"/>
			<rect x="116.35" y="105.35" class="st9" width="7.35" height="7.33"/>
			<rect x="109" y="105.35" class="st9" width="7.35" height="7.33"/>
			<rect x="101.66" y="105.35" class="st9" width="7.35" height="7.33"/>
			<rect x="94.31" y="105.35" class="st9" width="7.35" height="7.33"/>
			<rect x="86.96" y="105.35" class="st9" width="7.35" height="7.33"/>
			<rect x="79.61" y="105.35" class="st9" width="7.35" height="7.33"/>
			<rect x="72.26" y="105.35" class="st9" width="7.35" height="7.33"/>
			<rect x="64.92" y="105.35" class="st9" width="7.35" height="7.33"/>
			<rect x="57.57" y="105.35" class="st9" width="7.35" height="7.33"/>
			<rect x="160.44" y="98.02" class="st9" width="7.35" height="7.33"/>
			<rect x="153.09" y="98.02" class="st9" width="7.35" height="7.33"/>
			<rect x="145.74" y="98.02" class="st9" width="7.35" height="7.33"/>
			<rect x="138.4" y="98.02" class="st9" width="7.35" height="7.33"/>
			<rect x="131.05" y="98.02" class="st9" width="7.35" height="7.33"/>
			<rect x="123.7" y="98.02" class="st9" width="7.35" height="7.33"/>
			<rect x="116.35" y="98.02" class="st9" width="7.35" height="7.33"/>
			<rect x="109" y="98.02" class="st9" width="7.35" height="7.33"/>
			<rect x="101.66" y="98.02" class="st9" width="7.35" height="7.33"/>
			<rect x="94.31" y="98.02" class="st9" width="7.35" height="7.33"/>
			<rect x="86.96" y="98.02" class="st9" width="7.35" height="7.33"/>
			<rect x="79.61" y="98.02" class="st9" width="7.35" height="7.33"/>
			<rect x="72.26" y="98.02" class="st9" width="7.35" height="7.33"/>
			<rect x="64.92" y="98.02" class="st9" width="7.35" height="7.33"/>
			<rect x="182.49" y="90.7" class="st9" width="7.35" height="7.33"/>
			<rect x="175.14" y="90.7" class="st9" width="7.35" height="7.33"/>
			<rect x="167.79" y="90.7" class="st9" width="7.35" height="7.33"/>
			<rect x="109" y="90.7" class="st9" width="7.35" height="7.33"/>
			<rect x="101.66" y="90.7" class="st9" width="7.35" height="7.33"/>
			<rect x="94.31" y="90.7" class="st9" width="7.35" height="7.33"/>
			<rect x="86.96" y="90.7" class="st9" width="7.35" height="7.33"/>
			<rect x="79.61" y="90.7" class="st9" width="7.35" height="7.33"/>
			<rect x="182.49" y="83.37" class="st9" width="7.35" height="7.33"/>
			<rect x="175.14" y="83.37" class="st9" width="7.35" height="7.33"/>
			<rect x="101.66" y="83.37" class="st9" width="7.35" height="7.33"/>
			<rect x="94.31" y="83.37" class="st9" width="7.35" height="7.33"/>
			<rect x="86.96" y="83.37" class="st9" width="7.35" height="7.33"/>
			<rect x="175.14" y="76.05" class="st9" width="7.35" height="7.33"/>
			<rect x="101.66" y="76.05" class="st9" width="7.35" height="7.33"/>
		</g>
	</g>
	<rect x="167.79" y="68.72" class="st10" width="7.35" height="7.33"/>
	<g>
		<g>
			<g>
				<rect x="160.44" y="83.37" class="st8" width="7.35" height="7.33"/>
			</g>
			<g>
				<rect x="153.09" y="83.37" class="st11" width="7.35" height="7.33"/>
			</g>
			<g>
				<rect x="145.74" y="83.37" class="st11" width="7.35" height="7.33"/>
			</g>
			<g>
				<rect x="138.4" y="83.37" class="st11" width="7.35" height="7.33"/>
			</g>
			<g>
				<rect x="160.44" y="76.05" class="st11" width="7.35" height="7.33"/>
			</g>
			<rect x="153.09" y="76.05" class="st12" width="7.35" height="7.33"/>
			<rect x="160.44" y="68.72" class="st12" width="7.35" height="7.33"/>
		</g>
	</g>
	<rect x="153.09" y="68.72" class="st12" width="7.35" height="7.33"/>
	<rect x="145.74" y="68.72" class="st12" width="7.35" height="7.33"/>
	<rect x="138.4" y="68.72" class="st7" width="7.35" height="7.33"/>
	<rect x="131.05" y="68.72" class="st7" width="7.35" height="7.33"/>
	<g>
		<rect x="131.05" y="83.37" class="st11" width="7.35" height="7.33"/>
		<rect x="123.7" y="83.37" class="st11" width="7.35" height="7.33"/>
		<rect x="116.35" y="83.37" class="st8" width="7.35" height="7.33"/>
		<rect x="123.7" y="76.05" class="st11" width="7.35" height="7.33"/>
		<rect x="116.35" y="76.05" class="st11" width="7.35" height="7.33"/>
		<rect x="123.7" y="68.72" class="st11" width="7.35" height="7.33"/>
		<rect x="116.35" y="68.72" class="st11" width="7.35" height="7.33"/>
	</g>
	<g>
		<g>
			<rect x="28.18" y="171.28" class="st13" width="7.35" height="7.33"/>
			<rect x="28.18" y="163.95" class="st13" width="7.35" height="7.33"/>
			<rect x="28.18" y="156.63" class="st13" width="7.35" height="7.33"/>
			<rect x="28.18" y="149.3" class="st13" width="7.35" height="7.33"/>
			<rect x="28.18" y="141.98" class="st13" width="7.35" height="7.33"/>
			<rect x="28.18" y="134.65" class="st13" width="7.35" height="7.33"/>
			<rect x="28.18" y="127.33" class="st13" width="7.35" height="7.33"/>
			<rect x="28.18" y="120" class="st13" width="7.35" height="7.33"/>
			<rect x="35.52" y="112.67" class="st13" width="7.35" height="7.33"/>
			<rect x="50.22" y="105.35" class="st13" width="7.35" height="7.33"/>
			<rect x="42.87" y="105.35" class="st13" width="7.35" height="7.33"/>
			<rect x="57.57" y="98.02" class="st13" width="7.35" height="7.33"/>
			<rect x="72.26" y="90.7" class="st13" width="7.35" height="7.33"/>
			<rect x="64.92" y="90.7" class="st13" width="7.35" height="7.33"/>
			<rect x="79.61" y="83.37" class="st13" width="7.35" height="7.33"/>
			<rect x="94.31" y="76.05" class="st13" width="7.35" height="7.33"/>
			<rect x="86.96" y="76.05" class="st13" width="7.35" height="7.33"/>
			<rect x="109" y="68.72" class="st13" width="7.35" height="7.33"/>
			<rect x="101.66" y="68.72" class="st13" width="7.35" height="7.33"/>
		</g>
	</g>
	<g>
		<g>
			<rect x="189.83" y="149.3" class="st0" width="7.35" height="7.33"/>
			<rect x="189.83" y="141.98" class="st0" width="7.35" height="7.33"/>
			<rect x="189.83" y="134.65" class="st0" width="7.35" height="7.33"/>
			<rect x="189.83" y="127.33" class="st0" width="7.35" height="7.33"/>
			<rect x="189.83" y="120" class="st0" width="7.35" height="7.33"/>
			<rect x="189.83" y="112.67" class="st0" width="7.35" height="7.33"/>
			<rect x="189.83" y="105.35" class="st0" width="7.35" height="7.33"/>
			<rect x="189.83" y="98.02" class="st0" width="7.35" height="7.33"/>
			<g>
				<rect x="189.83" y="90.7" class="st2" width="7.35" height="7.33"/>
			</g>
			<g>
				<rect x="189.83" y="83.37" class="st2" width="7.35" height="7.33"/>
			</g>
			<rect x="189.83" y="76.05" class="st1" width="7.35" height="7.33"/>
			<g>
				<rect x="182.49" y="76.05" class="st2" width="7.35" height="7.33"/>
			</g>
			<g>
				<rect x="182.49" y="68.72" class="st2" width="7.35" height="7.33"/>
			</g>
			<g>
				<rect x="175.14" y="68.72" class="st2" width="7.35" height="7.33"/>
			</g>
			<g>
				<rect x="175.14" y="61.4" class="st2" width="7.35" height="7.33"/>
			</g>
			<g>
				<rect x="167.79" y="61.4" class="st2" width="7.35" height="7.33"/>
			</g>
			<rect x="160.44" y="61.4" class="st1" width="7.35" height="7.33"/>
		</g>
	</g>
	<rect x="153.09" y="61.4" class="st12" width="7.35" height="7.33"/>
	<rect x="145.74" y="61.4" class="st12" width="7.35" height="7.33"/>
	<rect x="138.4" y="61.4" class="st7" width="7.35" height="7.33"/>
	<g>
		<rect x="116.35" y="61.4" class="st1" width="7.35" height="7.33"/>
		<rect x="109" y="61.4" class="st2" width="7.35" height="7.33"/>
	</g>
	<g>
		<rect x="131.05" y="61.4" class="st14" width="7.35" height="7.33"/>
		<rect x="123.7" y="61.4" class="st14" width="7.35" height="7.33"/>
		<rect x="131.05" y="54.07" class="st14" width="7.35" height="7.33"/>
	</g>
	<g>
		<g>
			<rect x="145.74" y="54.07" class="st12" width="7.35" height="7.33"/>
			<g>
				<rect x="138.4" y="54.07" class="st7" width="7.35" height="7.33"/>
			</g>
			<g>
				<rect x="138.4" y="46.75" class="st7" width="7.35" height="7.33"/>
			</g>
		</g>
	</g>
</g>
</svg>
