<?xml version="1.0" encoding="utf-8"?>
<!-- Generator: Adobe Illustrator 30.0.0, SVG Export Plug-In . SVG Version: 9.03 Build 0)  -->
<svg version="1.1" id="Layer_1" xmlns="http://www.w3.org/2000/svg" xmlns:xlink="http://www.w3.org/1999/xlink" x="0px" y="0px"
	 viewBox="0 0 240 240" style="enable-background:new 0 0 240 240;" xml:space="preserve">
<style type="text/css">
	.st0{fill:#00B08C;}
	.st1{fill:#B5D7B6;}
	.st2{fill:#009575;}
	.st3{fill:#FFE7AD;}
	.st4{fill:#FBF4DB;}
	.st5{fill:#F73526;}
	.st6{fill:#FF563C;}
	.st7{fill:#CF2A2B;}
	.st8{fill:#004E48;}
	.st9{fill:#006B65;}
	.st10{fill:#00B7A4;}
	.st11{fill:#2ECFB5;}
</style>
<rect x="191.25" y="207.02" class="st0" width="6.37" height="6.37"/>
<rect x="184.88" y="207.02" class="st0" width="6.37" height="6.37"/>
<rect x="178.51" y="207.02" class="st0" width="6.37" height="6.37"/>
<rect x="172.14" y="207.02" class="st0" width="6.37" height="6.37"/>
<rect x="165.77" y="207.02" class="st0" width="6.37" height="6.37"/>
<rect x="159.4" y="207.02" class="st0" width="6.37" height="6.37"/>
<rect x="153.03" y="207.02" class="st0" width="6.37" height="6.37"/>
<rect x="146.66" y="207.02" class="st0" width="6.37" height="6.37"/>
<rect x="140.29" y="207.02" class="st0" width="6.37" height="6.37"/>
<rect x="133.92" y="207.02" class="st0" width="6.37" height="6.37"/>
<rect x="127.54" y="207.02" class="st0" width="6.37" height="6.37"/>
<rect x="121.17" y="207.02" class="st1" width="6.37" height="6.37"/>
<rect x="114.8" y="207.02" class="st1" width="6.37" height="6.37"/>
<rect x="108.43" y="207.02" class="st1" width="6.37" height="6.37"/>
<rect x="102.06" y="207.02" class="st1" width="6.37" height="6.37"/>
<rect x="95.69" y="207.02" class="st1" width="6.37" height="6.37"/>
<rect x="89.32" y="207.02" class="st1" width="6.37" height="6.37"/>
<rect x="82.95" y="207.02" class="st1" width="6.37" height="6.37"/>
<rect x="76.58" y="207.02" class="st1" width="6.37" height="6.37"/>
<rect x="70.21" y="207.02" class="st1" width="6.37" height="6.37"/>
<rect x="63.84" y="207.02" class="st1" width="6.37" height="6.37"/>
<rect x="57.47" y="207.02" class="st1" width="6.37" height="6.37"/>
<rect x="51.09" y="207.02" class="st1" width="6.37" height="6.37"/>
<rect x="44.72" y="207.02" class="st1" width="6.37" height="6.37"/>
<rect x="191.25" y="200.64" class="st2" width="6.37" height="6.37"/>
<rect x="184.88" y="200.64" class="st2" width="6.37" height="6.37"/>
<rect x="178.51" y="200.64" class="st2" width="6.37" height="6.37"/>
<rect x="172.14" y="200.64" class="st2" width="6.37" height="6.37"/>
<rect x="165.77" y="200.64" class="st2" width="6.37" height="6.37"/>
<rect x="159.4" y="200.64" class="st2" width="6.37" height="6.37"/>
<rect x="153.03" y="200.64" class="st2" width="6.37" height="6.37"/>
<rect x="146.66" y="200.64" class="st2" width="6.37" height="6.37"/>
<rect x="140.29" y="200.64" class="st2" width="6.37" height="6.37"/>
<rect x="133.92" y="200.64" class="st2" width="6.37" height="6.37"/>
<rect x="127.54" y="200.64" class="st2" width="6.37" height="6.37"/>
<rect x="121.17" y="200.64" class="st0" width="6.37" height="6.37"/>
<rect x="114.8" y="200.64" class="st0" width="6.37" height="6.37"/>
<rect x="108.43" y="200.64" class="st0" width="6.37" height="6.37"/>
<rect x="102.06" y="200.64" class="st0" width="6.37" height="6.37"/>
<rect x="95.69" y="200.64" class="st0" width="6.37" height="6.37"/>
<rect x="89.32" y="200.64" class="st0" width="6.37" height="6.37"/>
<rect x="82.95" y="200.64" class="st0" width="6.37" height="6.37"/>
<rect x="76.58" y="200.64" class="st0" width="6.37" height="6.37"/>
<rect x="70.21" y="200.64" class="st0" width="6.37" height="6.37"/>
<rect x="63.84" y="200.64" class="st0" width="6.37" height="6.37"/>
<rect x="57.47" y="200.64" class="st0" width="6.37" height="6.37"/>
<rect x="51.09" y="200.64" class="st0" width="6.37" height="6.37"/>
<rect x="44.72" y="200.64" class="st0" width="6.37" height="6.37"/>
<rect x="191.25" y="194.27" class="st0" width="6.37" height="6.37"/>
<rect x="184.88" y="194.27" class="st0" width="6.37" height="6.37"/>
<rect x="178.51" y="194.27" class="st0" width="6.37" height="6.37"/>
<rect x="172.14" y="194.27" class="st0" width="6.37" height="6.37"/>
<rect x="165.77" y="194.27" class="st0" width="6.37" height="6.37"/>
<rect x="159.4" y="194.27" class="st0" width="6.37" height="6.37"/>
<rect x="153.03" y="194.27" class="st0" width="6.37" height="6.37"/>
<rect x="146.66" y="194.27" class="st0" width="6.37" height="6.37"/>
<rect x="140.29" y="194.27" class="st0" width="6.37" height="6.37"/>
<rect x="133.92" y="194.27" class="st0" width="6.37" height="6.37"/>
<rect x="127.54" y="194.27" class="st0" width="6.37" height="6.37"/>
<rect x="121.17" y="194.27" class="st1" width="6.37" height="6.37"/>
<rect x="114.8" y="194.27" class="st1" width="6.37" height="6.37"/>
<rect x="108.43" y="194.27" class="st1" width="6.37" height="6.37"/>
<rect x="102.06" y="194.27" class="st1" width="6.37" height="6.37"/>
<rect x="95.69" y="194.27" class="st1" width="6.37" height="6.37"/>
<rect x="89.32" y="194.27" class="st1" width="6.37" height="6.37"/>
<rect x="82.95" y="194.27" class="st1" width="6.37" height="6.37"/>
<rect x="76.58" y="194.27" class="st1" width="6.37" height="6.37"/>
<rect x="70.21" y="194.27" class="st1" width="6.37" height="6.37"/>
<rect x="63.84" y="194.27" class="st1" width="6.37" height="6.37"/>
<rect x="57.47" y="194.27" class="st1" width="6.37" height="6.37"/>
<rect x="51.09" y="194.27" class="st1" width="6.37" height="6.37"/>
<rect x="44.72" y="194.27" class="st1" width="6.37" height="6.37"/>
<rect x="191.25" y="187.9" class="st3" width="6.37" height="6.37"/>
<rect x="184.88" y="187.9" class="st3" width="6.37" height="6.37"/>
<rect x="178.51" y="187.9" class="st3" width="6.37" height="6.37"/>
<rect x="172.14" y="187.9" class="st3" width="6.37" height="6.37"/>
<rect x="165.77" y="187.9" class="st3" width="6.37" height="6.37"/>
<rect x="159.4" y="187.9" class="st3" width="6.37" height="6.37"/>
<rect x="153.03" y="187.9" class="st3" width="6.37" height="6.37"/>
<rect x="146.66" y="187.9" class="st3" width="6.37" height="6.37"/>
<rect x="140.29" y="187.9" class="st3" width="6.37" height="6.37"/>
<rect x="133.92" y="187.9" class="st3" width="6.37" height="6.37"/>
<rect x="127.54" y="187.9" class="st3" width="6.37" height="6.37"/>
<rect x="121.17" y="187.9" class="st4" width="6.37" height="6.37"/>
<rect x="114.8" y="187.9" class="st4" width="6.37" height="6.37"/>
<rect x="108.43" y="187.9" class="st4" width="6.37" height="6.37"/>
<rect x="102.06" y="187.9" class="st4" width="6.37" height="6.37"/>
<rect x="95.69" y="187.9" class="st4" width="6.37" height="6.37"/>
<rect x="89.32" y="187.9" class="st4" width="6.37" height="6.37"/>
<rect x="82.95" y="187.9" class="st4" width="6.37" height="6.37"/>
<rect x="76.58" y="187.9" class="st4" width="6.37" height="6.37"/>
<rect x="70.21" y="187.9" class="st4" width="6.37" height="6.37"/>
<rect x="63.84" y="187.9" class="st4" width="6.37" height="6.37"/>
<rect x="57.47" y="187.9" class="st4" width="6.37" height="6.37"/>
<rect x="51.09" y="187.9" class="st4" width="6.37" height="6.37"/>
<rect x="44.72" y="187.9" class="st4" width="6.37" height="6.37"/>
<rect x="191.25" y="181.53" class="st3" width="6.37" height="6.37"/>
<rect x="184.88" y="181.53" class="st3" width="6.37" height="6.37"/>
<rect x="178.51" y="181.53" class="st3" width="6.37" height="6.37"/>
<rect x="172.14" y="181.53" class="st3" width="6.37" height="6.37"/>
<rect x="165.77" y="181.53" class="st3" width="6.37" height="6.37"/>
<rect x="159.4" y="181.53" class="st3" width="6.37" height="6.37"/>
<rect x="153.03" y="181.53" class="st3" width="6.37" height="6.37"/>
<rect x="146.66" y="181.53" class="st3" width="6.37" height="6.37"/>
<rect x="140.29" y="181.53" class="st3" width="6.37" height="6.37"/>
<rect x="133.92" y="181.53" class="st3" width="6.37" height="6.37"/>
<rect x="127.54" y="181.53" class="st3" width="6.37" height="6.37"/>
<rect x="121.17" y="181.53" class="st3" width="6.37" height="6.37"/>
<rect x="114.8" y="181.53" class="st3" width="6.37" height="6.37"/>
<rect x="108.43" y="181.53" class="st3" width="6.37" height="6.37"/>
<rect x="102.06" y="181.53" class="st4" width="6.37" height="6.37"/>
<rect x="95.69" y="181.53" class="st4" width="6.37" height="6.37"/>
<rect x="89.32" y="181.53" class="st4" width="6.37" height="6.37"/>
<rect x="82.95" y="181.53" class="st4" width="6.37" height="6.37"/>
<rect x="76.58" y="181.53" class="st4" width="6.37" height="6.37"/>
<rect x="70.21" y="181.53" class="st4" width="6.37" height="6.37"/>
<rect x="63.84" y="181.53" class="st4" width="6.37" height="6.37"/>
<rect x="57.47" y="181.53" class="st4" width="6.37" height="6.37"/>
<rect x="51.09" y="181.53" class="st4" width="6.37" height="6.37"/>
<rect x="44.72" y="181.53" class="st4" width="6.37" height="6.37"/>
<rect x="191.25" y="175.16" class="st3" width="6.37" height="6.37"/>
<rect x="184.88" y="175.16" class="st3" width="6.37" height="6.37"/>
<rect x="178.51" y="175.16" class="st3" width="6.37" height="6.37"/>
<rect x="172.14" y="175.16" class="st3" width="6.37" height="6.37"/>
<rect x="165.77" y="175.16" class="st3" width="6.37" height="6.37"/>
<rect x="159.4" y="175.16" class="st3" width="6.37" height="6.37"/>
<rect x="153.03" y="175.16" class="st3" width="6.37" height="6.37"/>
<rect x="146.66" y="175.16" class="st3" width="6.37" height="6.37"/>
<rect x="140.29" y="175.16" class="st3" width="6.37" height="6.37"/>
<rect x="133.92" y="175.16" class="st3" width="6.37" height="6.37"/>
<rect x="127.54" y="175.16" class="st3" width="6.37" height="6.37"/>
<rect x="121.17" y="175.16" class="st3" width="6.37" height="6.37"/>
<rect x="114.8" y="175.16" class="st3" width="6.37" height="6.37"/>
<rect x="108.43" y="175.16" class="st3" width="6.37" height="6.37"/>
<rect x="102.06" y="175.16" class="st4" width="6.37" height="6.37"/>
<rect x="95.69" y="175.16" class="st0" width="6.37" height="6.37"/>
<rect x="89.32" y="175.16" class="st0" width="6.37" height="6.37"/>
<rect x="82.95" y="175.16" class="st0" width="6.37" height="6.37"/>
<rect x="76.58" y="175.16" class="st0" width="6.37" height="6.37"/>
<rect x="70.21" y="175.16" class="st0" width="6.37" height="6.37"/>
<rect x="63.84" y="175.16" class="st0" width="6.37" height="6.37"/>
<rect x="57.47" y="175.16" class="st0" width="6.37" height="6.37"/>
<rect x="51.09" y="175.16" class="st4" width="6.37" height="6.37"/>
<rect x="44.72" y="175.16" class="st4" width="6.37" height="6.37"/>
<rect x="191.25" y="168.79" class="st3" width="6.37" height="6.37"/>
<rect x="184.88" y="168.79" class="st3" width="6.37" height="6.37"/>
<rect x="178.51" y="168.79" class="st3" width="6.37" height="6.37"/>
<rect x="172.14" y="168.79" class="st3" width="6.37" height="6.37"/>
<rect x="165.77" y="168.79" class="st3" width="6.37" height="6.37"/>
<rect x="159.4" y="168.79" class="st3" width="6.37" height="6.37"/>
<rect x="153.03" y="168.79" class="st3" width="6.37" height="6.37"/>
<rect x="146.66" y="168.79" class="st3" width="6.37" height="6.37"/>
<rect x="140.29" y="168.79" class="st3" width="6.37" height="6.37"/>
<rect x="133.92" y="168.79" class="st3" width="6.37" height="6.37"/>
<rect x="127.54" y="168.79" class="st3" width="6.37" height="6.37"/>
<rect x="121.17" y="168.79" class="st4" width="6.37" height="6.37"/>
<rect x="114.8" y="168.79" class="st4" width="6.37" height="6.37"/>
<rect x="108.43" y="168.79" class="st4" width="6.37" height="6.37"/>
<rect x="102.06" y="168.79" class="st4" width="6.37" height="6.37"/>
<rect x="95.69" y="168.79" class="st1" width="6.37" height="6.37"/>
<rect x="89.32" y="168.79" class="st1" width="6.37" height="6.37"/>
<rect x="82.95" y="168.79" class="st1" width="6.37" height="6.37"/>
<rect x="76.58" y="168.79" class="st1" width="6.37" height="6.37"/>
<rect x="70.21" y="168.79" class="st1" width="6.37" height="6.37"/>
<rect x="63.84" y="168.79" class="st1" width="6.37" height="6.37"/>
<rect x="57.47" y="168.79" class="st1" width="6.37" height="6.37"/>
<rect x="51.09" y="168.79" class="st4" width="6.37" height="6.37"/>
<rect x="44.72" y="168.79" class="st4" width="6.37" height="6.37"/>
<rect x="191.25" y="162.42" class="st3" width="6.37" height="6.37"/>
<rect x="184.88" y="162.42" class="st4" width="6.37" height="6.37"/>
<rect x="178.51" y="162.42" class="st4" width="6.37" height="6.37"/>
<rect x="172.14" y="162.42" class="st4" width="6.37" height="6.37"/>
<rect x="165.77" y="162.42" class="st4" width="6.37" height="6.37"/>
<rect x="159.4" y="162.42" class="st4" width="6.37" height="6.37"/>
<rect x="153.03" y="162.42" class="st4" width="6.37" height="6.37"/>
<rect x="146.66" y="162.42" class="st3" width="6.37" height="6.37"/>
<rect x="140.29" y="162.42" class="st3" width="6.37" height="6.37"/>
<rect x="133.92" y="162.42" class="st3" width="6.37" height="6.37"/>
<rect x="127.54" y="162.42" class="st3" width="6.37" height="6.37"/>
<rect x="121.17" y="162.42" class="st4" width="6.37" height="6.37"/>
<rect x="114.8" y="162.42" class="st4" width="6.37" height="6.37"/>
<rect x="108.43" y="162.42" class="st4" width="6.37" height="6.37"/>
<rect x="102.06" y="162.42" class="st4" width="6.37" height="6.37"/>
<rect x="95.69" y="162.42" class="st4" width="6.37" height="6.37"/>
<rect x="89.32" y="162.42" class="st4" width="6.37" height="6.37"/>
<rect x="82.95" y="162.42" class="st4" width="6.37" height="6.37"/>
<rect x="76.58" y="162.42" class="st4" width="6.37" height="6.37"/>
<rect x="70.21" y="162.42" class="st4" width="6.37" height="6.37"/>
<rect x="63.84" y="162.42" class="st4" width="6.37" height="6.37"/>
<rect x="57.47" y="162.42" class="st4" width="6.37" height="6.37"/>
<rect x="51.09" y="162.42" class="st4" width="6.37" height="6.37"/>
<rect x="44.72" y="162.42" class="st4" width="6.37" height="6.37"/>
<rect x="191.25" y="156.05" class="st3" width="6.37" height="6.37"/>
<rect x="184.88" y="156.05" class="st3" width="6.37" height="6.37"/>
<rect x="178.51" y="156.05" class="st3" width="6.37" height="6.37"/>
<rect x="172.14" y="156.05" class="st3" width="6.37" height="6.37"/>
<rect x="165.77" y="156.05" class="st3" width="6.37" height="6.37"/>
<rect x="159.4" y="156.05" class="st3" width="6.37" height="6.37"/>
<rect x="153.03" y="156.05" class="st3" width="6.37" height="6.37"/>
<rect x="146.66" y="156.05" class="st3" width="6.37" height="6.37"/>
<rect x="140.29" y="156.05" class="st3" width="6.37" height="6.37"/>
<rect x="133.92" y="156.05" class="st3" width="6.37" height="6.37"/>
<rect x="127.54" y="156.05" class="st3" width="6.37" height="6.37"/>
<rect x="121.17" y="156.05" class="st4" width="6.37" height="6.37"/>
<rect x="114.8" y="156.05" class="st4" width="6.37" height="6.37"/>
<rect x="108.43" y="156.05" class="st4" width="6.37" height="6.37"/>
<rect x="102.06" y="156.05" class="st4" width="6.37" height="6.37"/>
<rect x="95.69" y="156.05" class="st4" width="6.37" height="6.37"/>
<rect x="89.32" y="156.05" class="st4" width="6.37" height="6.37"/>
<rect x="82.95" y="156.05" class="st4" width="6.37" height="6.37"/>
<rect x="76.58" y="156.05" class="st4" width="6.37" height="6.37"/>
<rect x="70.21" y="156.05" class="st4" width="6.37" height="6.37"/>
<rect x="63.84" y="156.05" class="st4" width="6.37" height="6.37"/>
<rect x="57.47" y="156.05" class="st4" width="6.37" height="6.37"/>
<rect x="51.09" y="156.05" class="st4" width="6.37" height="6.37"/>
<rect x="44.72" y="156.05" class="st4" width="6.37" height="6.37"/>
<rect x="191.25" y="149.68" class="st3" width="6.37" height="6.37"/>
<rect x="184.88" y="149.68" class="st5" width="6.37" height="6.37"/>
<rect x="178.51" y="149.68" class="st5" width="6.37" height="6.37"/>
<rect x="172.14" y="149.68" class="st5" width="6.37" height="6.37"/>
<rect x="165.77" y="149.68" class="st5" width="6.37" height="6.37"/>
<rect x="159.4" y="149.68" class="st5" width="6.37" height="6.37"/>
<rect x="153.03" y="149.68" class="st5" width="6.37" height="6.37"/>
<rect x="146.66" y="149.68" class="st5" width="6.37" height="6.37"/>
<rect x="140.29" y="149.68" class="st5" width="6.37" height="6.37"/>
<rect x="133.92" y="149.68" class="st5" width="6.37" height="6.37"/>
<rect x="127.54" y="149.68" class="st5" width="6.37" height="6.37"/>
<rect x="121.17" y="149.68" class="st6" width="6.37" height="6.37"/>
<rect x="114.8" y="149.68" class="st6" width="6.37" height="6.37"/>
<rect x="108.43" y="149.68" class="st6" width="6.37" height="6.37"/>
<rect x="102.06" y="149.68" class="st6" width="6.37" height="6.37"/>
<rect x="95.69" y="149.68" class="st6" width="6.37" height="6.37"/>
<rect x="89.32" y="149.68" class="st6" width="6.37" height="6.37"/>
<rect x="82.95" y="149.68" class="st6" width="6.37" height="6.37"/>
<rect x="76.58" y="149.68" class="st6" width="6.37" height="6.37"/>
<rect x="70.21" y="149.68" class="st6" width="6.37" height="6.37"/>
<rect x="63.84" y="149.68" class="st6" width="6.37" height="6.37"/>
<rect x="57.47" y="149.68" class="st6" width="6.37" height="6.37"/>
<rect x="51.09" y="149.68" class="st6" width="6.37" height="6.37"/>
<rect x="44.72" y="149.68" class="st4" width="6.37" height="6.37"/>
<rect x="191.25" y="143.31" class="st3" width="6.37" height="6.37"/>
<rect x="184.88" y="143.31" class="st5" width="6.37" height="6.37"/>
<rect x="178.51" y="143.31" class="st5" width="6.37" height="6.37"/>
<rect x="172.14" y="143.31" class="st7" width="6.37" height="6.37"/>
<rect x="165.77" y="143.31" class="st7" width="6.37" height="6.37"/>
<rect x="159.4" y="143.31" class="st7" width="6.37" height="6.37"/>
<rect x="153.03" y="143.31" class="st7" width="6.37" height="6.37"/>
<rect x="146.66" y="143.31" class="st7" width="6.37" height="6.37"/>
<rect x="140.29" y="143.31" class="st7" width="6.37" height="6.37"/>
<rect x="133.92" y="143.31" class="st7" width="6.37" height="6.37"/>
<rect x="127.54" y="143.31" class="st7" width="6.37" height="6.37"/>
<rect x="121.17" y="143.31" class="st5" width="6.37" height="6.37"/>
<rect x="114.8" y="143.31" class="st5" width="6.37" height="6.37"/>
<rect x="108.43" y="143.31" class="st5" width="6.37" height="6.37"/>
<rect x="102.06" y="143.31" class="st5" width="6.37" height="6.37"/>
<rect x="95.69" y="143.31" class="st5" width="6.37" height="6.37"/>
<rect x="89.32" y="143.31" class="st5" width="6.37" height="6.37"/>
<rect x="82.95" y="143.31" class="st5" width="6.37" height="6.37"/>
<rect x="76.58" y="143.31" class="st5" width="6.37" height="6.37"/>
<rect x="70.21" y="143.31" class="st5" width="6.37" height="6.37"/>
<rect x="63.84" y="143.31" class="st5" width="6.37" height="6.37"/>
<rect x="57.47" y="143.31" class="st6" width="6.37" height="6.37"/>
<rect x="51.09" y="143.31" class="st6" width="6.37" height="6.37"/>
<rect x="44.72" y="143.31" class="st4" width="6.37" height="6.37"/>
<rect x="191.25" y="136.94" class="st3" width="6.37" height="6.37"/>
<rect x="184.88" y="136.94" class="st5" width="6.37" height="6.37"/>
<rect x="178.51" y="136.94" class="st7" width="6.37" height="6.37"/>
<rect x="172.14" y="136.94" class="st8" width="6.37" height="6.37"/>
<rect x="165.77" y="136.94" class="st8" width="6.37" height="6.37"/>
<rect x="159.4" y="136.94" class="st8" width="6.37" height="6.37"/>
<rect x="153.03" y="136.94" class="st8" width="6.37" height="6.37"/>
<rect x="146.66" y="136.94" class="st8" width="6.37" height="6.37"/>
<rect x="140.29" y="136.94" class="st8" width="6.37" height="6.37"/>
<rect x="133.92" y="136.94" class="st8" width="6.37" height="6.37"/>
<rect x="127.54" y="136.94" class="st8" width="6.37" height="6.37"/>
<rect x="121.17" y="136.94" class="st9" width="6.37" height="6.37"/>
<rect x="114.8" y="136.94" class="st9" width="6.37" height="6.37"/>
<rect x="108.43" y="136.94" class="st9" width="6.37" height="6.37"/>
<rect x="102.06" y="136.94" class="st9" width="6.37" height="6.37"/>
<rect x="95.69" y="136.94" class="st9" width="6.37" height="6.37"/>
<rect x="89.32" y="136.94" class="st9" width="6.37" height="6.37"/>
<rect x="82.95" y="136.94" class="st9" width="6.37" height="6.37"/>
<rect x="76.58" y="136.94" class="st9" width="6.37" height="6.37"/>
<rect x="70.21" y="136.94" class="st9" width="6.37" height="6.37"/>
<rect x="63.84" y="136.94" class="st9" width="6.37" height="6.37"/>
<rect x="57.47" y="136.94" class="st5" width="6.37" height="6.37"/>
<rect x="51.09" y="136.94" class="st6" width="6.37" height="6.37"/>
<rect x="44.72" y="136.94" class="st4" width="6.37" height="6.37"/>
<rect x="191.25" y="130.57" class="st3" width="6.37" height="6.37"/>
<rect x="184.88" y="130.57" class="st5" width="6.37" height="6.37"/>
<rect x="178.51" y="130.57" class="st7" width="6.37" height="6.37"/>
<rect x="172.14" y="130.57" class="st8" width="6.37" height="6.37"/>
<rect x="165.77" y="130.57" class="st10" width="6.37" height="6.37"/>
<rect x="159.4" y="130.57" class="st10" width="6.37" height="6.37"/>
<rect x="153.03" y="130.57" class="st10" width="6.37" height="6.37"/>
<rect x="146.66" y="130.57" class="st10" width="6.37" height="6.37"/>
<rect x="140.29" y="130.57" class="st10" width="6.37" height="6.37"/>
<rect x="133.92" y="130.57" class="st10" width="6.37" height="6.37"/>
<rect x="127.54" y="130.57" class="st10" width="6.37" height="6.37"/>
<rect x="121.17" y="130.57" class="st10" width="6.37" height="6.37"/>
<rect x="114.8" y="130.57" class="st10" width="6.37" height="6.37"/>
<rect x="108.43" y="130.57" class="st10" width="6.37" height="6.37"/>
<rect x="102.06" y="130.57" class="st10" width="6.37" height="6.37"/>
<rect x="95.69" y="130.57" class="st10" width="6.37" height="6.37"/>
<rect x="89.32" y="130.57" class="st10" width="6.37" height="6.37"/>
<rect x="82.95" y="130.57" class="st10" width="6.37" height="6.37"/>
<rect x="76.58" y="130.57" class="st11" width="6.37" height="6.37"/>
<rect x="70.21" y="130.57" class="st11" width="6.37" height="6.37"/>
<rect x="63.84" y="130.57" class="st9" width="6.37" height="6.37"/>
<rect x="57.47" y="130.57" class="st5" width="6.37" height="6.37"/>
<rect x="51.09" y="130.57" class="st6" width="6.37" height="6.37"/>
<rect x="44.72" y="130.57" class="st4" width="6.37" height="6.37"/>
<rect x="191.25" y="124.19" class="st3" width="6.37" height="6.37"/>
<rect x="184.88" y="124.19" class="st5" width="6.37" height="6.37"/>
<rect x="178.51" y="124.19" class="st7" width="6.37" height="6.37"/>
<rect x="172.14" y="124.19" class="st8" width="6.37" height="6.37"/>
<rect x="165.77" y="124.19" class="st10" width="6.37" height="6.37"/>
<rect x="159.4" y="124.19" class="st10" width="6.37" height="6.37"/>
<rect x="153.03" y="124.19" class="st10" width="6.37" height="6.37"/>
<rect x="146.66" y="124.19" class="st10" width="6.37" height="6.37"/>
<rect x="140.29" y="124.19" class="st10" width="6.37" height="6.37"/>
<rect x="133.92" y="124.19" class="st10" width="6.37" height="6.37"/>
<rect x="127.54" y="124.19" class="st10" width="6.37" height="6.37"/>
<rect x="121.17" y="124.19" class="st10" width="6.37" height="6.37"/>
<rect x="114.8" y="124.19" class="st10" width="6.37" height="6.37"/>
<rect x="108.43" y="124.19" class="st10" width="6.37" height="6.37"/>
<rect x="102.06" y="124.19" class="st10" width="6.37" height="6.37"/>
<rect x="95.69" y="124.19" class="st10" width="6.37" height="6.37"/>
<rect x="89.32" y="124.19" class="st10" width="6.37" height="6.37"/>
<rect x="82.95" y="124.19" class="st11" width="6.37" height="6.37"/>
<rect x="76.58" y="124.19" class="st11" width="6.37" height="6.37"/>
<rect x="70.21" y="124.19" class="st11" width="6.37" height="6.37"/>
<rect x="63.84" y="124.19" class="st9" width="6.37" height="6.37"/>
<rect x="57.47" y="124.19" class="st5" width="6.37" height="6.37"/>
<rect x="51.09" y="124.19" class="st6" width="6.37" height="6.37"/>
<rect x="44.72" y="124.19" class="st4" width="6.37" height="6.37"/>
<rect x="191.25" y="117.82" class="st3" width="6.37" height="6.37"/>
<rect x="184.88" y="117.82" class="st5" width="6.37" height="6.37"/>
<rect x="178.51" y="117.82" class="st7" width="6.37" height="6.37"/>
<rect x="172.14" y="117.82" class="st8" width="6.37" height="6.37"/>
<rect x="165.77" y="117.82" class="st10" width="6.37" height="6.37"/>
<rect x="159.4" y="117.82" class="st10" width="6.37" height="6.37"/>
<rect x="153.03" y="117.82" class="st10" width="6.37" height="6.37"/>
<rect x="146.66" y="117.82" class="st10" width="6.37" height="6.37"/>
<rect x="140.29" y="117.82" class="st10" width="6.37" height="6.37"/>
<rect x="133.92" y="117.82" class="st10" width="6.37" height="6.37"/>
<rect x="127.54" y="117.82" class="st10" width="6.37" height="6.37"/>
<rect x="121.17" y="117.82" class="st10" width="6.37" height="6.37"/>
<rect x="114.8" y="117.82" class="st10" width="6.37" height="6.37"/>
<rect x="108.43" y="117.82" class="st10" width="6.37" height="6.37"/>
<rect x="102.06" y="117.82" class="st10" width="6.37" height="6.37"/>
<rect x="95.69" y="117.82" class="st10" width="6.37" height="6.37"/>
<rect x="89.32" y="117.82" class="st11" width="6.37" height="6.37"/>
<rect x="82.95" y="117.82" class="st11" width="6.37" height="6.37"/>
<rect x="76.58" y="117.82" class="st11" width="6.37" height="6.37"/>
<rect x="70.21" y="117.82" class="st11" width="6.37" height="6.37"/>
<rect x="63.84" y="117.82" class="st9" width="6.37" height="6.37"/>
<rect x="57.47" y="117.82" class="st5" width="6.37" height="6.37"/>
<rect x="51.09" y="117.82" class="st6" width="6.37" height="6.37"/>
<rect x="44.72" y="117.82" class="st4" width="6.37" height="6.37"/>
<rect x="191.25" y="111.45" class="st3" width="6.37" height="6.37"/>
<rect x="184.88" y="111.45" class="st5" width="6.37" height="6.37"/>
<rect x="178.51" y="111.45" class="st7" width="6.37" height="6.37"/>
<rect x="172.14" y="111.45" class="st8" width="6.37" height="6.37"/>
<rect x="165.77" y="111.45" class="st10" width="6.37" height="6.37"/>
<rect x="159.4" y="111.45" class="st10" width="6.37" height="6.37"/>
<rect x="153.03" y="111.45" class="st10" width="6.37" height="6.37"/>
<rect x="146.66" y="111.45" class="st10" width="6.37" height="6.37"/>
<rect x="140.29" y="111.45" class="st10" width="6.37" height="6.37"/>
<rect x="133.92" y="111.45" class="st10" width="6.37" height="6.37"/>
<rect x="127.54" y="111.45" class="st10" width="6.37" height="6.37"/>
<rect x="121.17" y="111.45" class="st10" width="6.37" height="6.37"/>
<rect x="114.8" y="111.45" class="st10" width="6.37" height="6.37"/>
<rect x="108.43" y="111.45" class="st10" width="6.37" height="6.37"/>
<rect x="102.06" y="111.45" class="st10" width="6.37" height="6.37"/>
<rect x="95.69" y="111.45" class="st11" width="6.37" height="6.37"/>
<rect x="89.32" y="111.45" class="st11" width="6.37" height="6.37"/>
<rect x="82.95" y="111.45" class="st11" width="6.37" height="6.37"/>
<rect x="76.58" y="111.45" class="st11" width="6.37" height="6.37"/>
<rect x="70.21" y="111.45" class="st11" width="6.37" height="6.37"/>
<rect x="63.84" y="111.45" class="st9" width="6.37" height="6.37"/>
<rect x="57.47" y="111.45" class="st5" width="6.37" height="6.37"/>
<rect x="51.09" y="111.45" class="st6" width="6.37" height="6.37"/>
<rect x="44.72" y="111.45" class="st4" width="6.37" height="6.37"/>
<rect x="191.25" y="105.08" class="st3" width="6.37" height="6.37"/>
<rect x="184.88" y="105.08" class="st5" width="6.37" height="6.37"/>
<rect x="178.51" y="105.08" class="st7" width="6.37" height="6.37"/>
<rect x="172.14" y="105.08" class="st8" width="6.37" height="6.37"/>
<rect x="165.77" y="105.08" class="st10" width="6.37" height="6.37"/>
<rect x="159.4" y="105.08" class="st10" width="6.37" height="6.37"/>
<rect x="153.03" y="105.08" class="st10" width="6.37" height="6.37"/>
<rect x="146.66" y="105.08" class="st10" width="6.37" height="6.37"/>
<rect x="140.29" y="105.08" class="st10" width="6.37" height="6.37"/>
<rect x="133.92" y="105.08" class="st10" width="6.37" height="6.37"/>
<rect x="127.54" y="105.08" class="st10" width="6.37" height="6.37"/>
<rect x="121.17" y="105.08" class="st10" width="6.37" height="6.37"/>
<rect x="114.8" y="105.08" class="st10" width="6.37" height="6.37"/>
<rect x="108.43" y="105.08" class="st10" width="6.37" height="6.37"/>
<rect x="102.06" y="105.08" class="st10" width="6.37" height="6.37"/>
<rect x="95.69" y="105.08" class="st11" width="6.37" height="6.37"/>
<rect x="89.32" y="105.08" class="st11" width="6.37" height="6.37"/>
<rect x="82.95" y="105.08" class="st11" width="6.37" height="6.37"/>
<rect x="76.58" y="105.08" class="st11" width="6.37" height="6.37"/>
<rect x="70.21" y="105.08" class="st11" width="6.37" height="6.37"/>
<rect x="63.84" y="105.08" class="st9" width="6.37" height="6.37"/>
<rect x="57.47" y="105.08" class="st5" width="6.37" height="6.37"/>
<rect x="51.09" y="105.08" class="st6" width="6.37" height="6.37"/>
<rect x="44.72" y="105.08" class="st4" width="6.37" height="6.37"/>
<rect x="191.25" y="98.71" class="st3" width="6.37" height="6.37"/>
<rect x="184.88" y="98.71" class="st5" width="6.37" height="6.37"/>
<rect x="178.51" y="98.71" class="st7" width="6.37" height="6.37"/>
<rect x="172.14" y="98.71" class="st8" width="6.37" height="6.37"/>
<rect x="165.77" y="98.71" class="st10" width="6.37" height="6.37"/>
<rect x="159.4" y="98.71" class="st10" width="6.37" height="6.37"/>
<rect x="153.03" y="98.71" class="st10" width="6.37" height="6.37"/>
<rect x="146.66" y="98.71" class="st10" width="6.37" height="6.37"/>
<rect x="140.29" y="98.71" class="st10" width="6.37" height="6.37"/>
<rect x="133.92" y="98.71" class="st10" width="6.37" height="6.37"/>
<rect x="127.54" y="98.71" class="st10" width="6.37" height="6.37"/>
<rect x="121.17" y="98.71" class="st10" width="6.37" height="6.37"/>
<rect x="114.8" y="98.71" class="st10" width="6.37" height="6.37"/>
<rect x="108.43" y="98.71" class="st10" width="6.37" height="6.37"/>
<rect x="102.06" y="98.71" class="st11" width="6.37" height="6.37"/>
<rect x="95.69" y="98.71" class="st11" width="6.37" height="6.37"/>
<rect x="89.32" y="98.71" class="st11" width="6.37" height="6.37"/>
<rect x="82.95" y="98.71" class="st11" width="6.37" height="6.37"/>
<rect x="76.58" y="98.71" class="st11" width="6.37" height="6.37"/>
<rect x="70.21" y="98.71" class="st11" width="6.37" height="6.37"/>
<rect x="63.84" y="98.71" class="st9" width="6.37" height="6.37"/>
<rect x="57.47" y="98.71" class="st5" width="6.37" height="6.37"/>
<rect x="51.09" y="98.71" class="st6" width="6.37" height="6.37"/>
<rect x="44.72" y="98.71" class="st4" width="6.37" height="6.37"/>
<rect x="191.25" y="92.34" class="st3" width="6.37" height="6.37"/>
<rect x="184.88" y="92.34" class="st5" width="6.37" height="6.37"/>
<rect x="178.51" y="92.34" class="st7" width="6.37" height="6.37"/>
<rect x="172.14" y="92.34" class="st8" width="6.37" height="6.37"/>
<rect x="165.77" y="92.34" class="st10" width="6.37" height="6.37"/>
<rect x="159.4" y="92.34" class="st10" width="6.37" height="6.37"/>
<rect x="153.03" y="92.34" class="st10" width="6.37" height="6.37"/>
<rect x="146.66" y="92.34" class="st10" width="6.37" height="6.37"/>
<rect x="140.29" y="92.34" class="st10" width="6.37" height="6.37"/>
<rect x="133.92" y="92.34" class="st10" width="6.37" height="6.37"/>
<rect x="127.54" y="92.34" class="st10" width="6.37" height="6.37"/>
<rect x="121.17" y="92.34" class="st10" width="6.37" height="6.37"/>
<rect x="114.8" y="92.34" class="st10" width="6.37" height="6.37"/>
<rect x="108.43" y="92.34" class="st11" width="6.37" height="6.37"/>
<rect x="102.06" y="92.34" class="st11" width="6.37" height="6.37"/>
<rect x="95.69" y="92.34" class="st11" width="6.37" height="6.37"/>
<rect x="89.32" y="92.34" class="st11" width="6.37" height="6.37"/>
<rect x="82.95" y="92.34" class="st11" width="6.37" height="6.37"/>
<rect x="76.58" y="92.34" class="st11" width="6.37" height="6.37"/>
<rect x="70.21" y="92.34" class="st11" width="6.37" height="6.37"/>
<rect x="63.84" y="92.34" class="st9" width="6.37" height="6.37"/>
<rect x="57.47" y="92.34" class="st5" width="6.37" height="6.37"/>
<rect x="51.09" y="92.34" class="st6" width="6.37" height="6.37"/>
<rect x="44.72" y="92.34" class="st4" width="6.37" height="6.37"/>
<rect x="191.25" y="85.97" class="st3" width="6.37" height="6.37"/>
<rect x="184.88" y="85.97" class="st5" width="6.37" height="6.37"/>
<rect x="178.51" y="85.97" class="st7" width="6.37" height="6.37"/>
<rect x="172.14" y="85.97" class="st8" width="6.37" height="6.37"/>
<rect x="165.77" y="85.97" class="st10" width="6.37" height="6.37"/>
<rect x="159.4" y="85.97" class="st10" width="6.37" height="6.37"/>
<rect x="153.03" y="85.97" class="st10" width="6.37" height="6.37"/>
<rect x="146.66" y="85.97" class="st10" width="6.37" height="6.37"/>
<rect x="140.29" y="85.97" class="st10" width="6.37" height="6.37"/>
<rect x="133.92" y="85.97" class="st10" width="6.37" height="6.37"/>
<rect x="127.54" y="85.97" class="st10" width="6.37" height="6.37"/>
<rect x="121.17" y="85.97" class="st10" width="6.37" height="6.37"/>
<rect x="114.8" y="85.97" class="st10" width="6.37" height="6.37"/>
<rect x="108.43" y="85.97" class="st11" width="6.37" height="6.37"/>
<rect x="102.06" y="85.97" class="st11" width="6.37" height="6.37"/>
<rect x="95.69" y="85.97" class="st11" width="6.37" height="6.37"/>
<rect x="89.32" y="85.97" class="st11" width="6.37" height="6.37"/>
<rect x="82.95" y="85.97" class="st11" width="6.37" height="6.37"/>
<rect x="76.58" y="85.97" class="st11" width="6.37" height="6.37"/>
<rect x="70.21" y="85.97" class="st11" width="6.37" height="6.37"/>
<rect x="63.84" y="85.97" class="st9" width="6.37" height="6.37"/>
<rect x="57.47" y="85.97" class="st5" width="6.37" height="6.37"/>
<rect x="51.09" y="85.97" class="st6" width="6.37" height="6.37"/>
<rect x="44.72" y="85.97" class="st4" width="6.37" height="6.37"/>
<rect x="191.25" y="79.6" class="st3" width="6.37" height="6.37"/>
<rect x="184.88" y="79.6" class="st5" width="6.37" height="6.37"/>
<rect x="178.51" y="79.6" class="st7" width="6.37" height="6.37"/>
<rect x="172.14" y="79.6" class="st8" width="6.37" height="6.37"/>
<rect x="165.77" y="79.6" class="st10" width="6.37" height="6.37"/>
<rect x="159.4" y="79.6" class="st10" width="6.37" height="6.37"/>
<rect x="153.03" y="79.6" class="st10" width="6.37" height="6.37"/>
<rect x="146.66" y="79.6" class="st10" width="6.37" height="6.37"/>
<rect x="140.29" y="79.6" class="st10" width="6.37" height="6.37"/>
<rect x="133.92" y="79.6" class="st10" width="6.37" height="6.37"/>
<rect x="127.54" y="79.6" class="st10" width="6.37" height="6.37"/>
<rect x="121.17" y="79.6" class="st10" width="6.37" height="6.37"/>
<rect x="114.8" y="79.6" class="st11" width="6.37" height="6.37"/>
<rect x="108.43" y="79.6" class="st11" width="6.37" height="6.37"/>
<rect x="102.06" y="79.6" class="st11" width="6.37" height="6.37"/>
<rect x="95.69" y="79.6" class="st11" width="6.37" height="6.37"/>
<rect x="89.32" y="79.6" class="st11" width="6.37" height="6.37"/>
<rect x="82.95" y="79.6" class="st11" width="6.37" height="6.37"/>
<rect x="76.58" y="79.6" class="st11" width="6.37" height="6.37"/>
<rect x="70.21" y="79.6" class="st11" width="6.37" height="6.37"/>
<rect x="63.84" y="79.6" class="st9" width="6.37" height="6.37"/>
<rect x="57.47" y="79.6" class="st5" width="6.37" height="6.37"/>
<rect x="51.09" y="79.6" class="st6" width="6.37" height="6.37"/>
<rect x="44.72" y="79.6" class="st4" width="6.37" height="6.37"/>
<rect x="191.25" y="73.23" class="st3" width="6.37" height="6.37"/>
<rect x="184.88" y="73.23" class="st5" width="6.37" height="6.37"/>
<rect x="178.51" y="73.23" class="st7" width="6.37" height="6.37"/>
<rect x="172.14" y="73.23" class="st8" width="6.37" height="6.37"/>
<rect x="165.77" y="73.23" class="st10" width="6.37" height="6.37"/>
<rect x="159.4" y="73.23" class="st10" width="6.37" height="6.37"/>
<rect x="153.03" y="73.23" class="st10" width="6.37" height="6.37"/>
<rect x="146.66" y="73.23" class="st10" width="6.37" height="6.37"/>
<rect x="140.29" y="73.23" class="st10" width="6.37" height="6.37"/>
<rect x="133.92" y="73.23" class="st10" width="6.37" height="6.37"/>
<rect x="127.54" y="73.23" class="st10" width="6.37" height="6.37"/>
<rect x="121.17" y="73.23" class="st11" width="6.37" height="6.37"/>
<rect x="114.8" y="73.23" class="st11" width="6.37" height="6.37"/>
<rect x="108.43" y="73.23" class="st11" width="6.37" height="6.37"/>
<rect x="102.06" y="73.23" class="st11" width="6.37" height="6.37"/>
<rect x="95.69" y="73.23" class="st11" width="6.37" height="6.37"/>
<rect x="89.32" y="73.23" class="st11" width="6.37" height="6.37"/>
<rect x="82.95" y="73.23" class="st11" width="6.37" height="6.37"/>
<rect x="76.58" y="73.23" class="st11" width="6.37" height="6.37"/>
<rect x="70.21" y="73.23" class="st11" width="6.37" height="6.37"/>
<rect x="63.84" y="73.23" class="st9" width="6.37" height="6.37"/>
<rect x="57.47" y="73.23" class="st5" width="6.37" height="6.37"/>
<rect x="51.09" y="73.23" class="st6" width="6.37" height="6.37"/>
<rect x="44.72" y="73.23" class="st4" width="6.37" height="6.37"/>
<rect x="191.25" y="66.86" class="st3" width="6.37" height="6.37"/>
<rect x="184.88" y="66.86" class="st5" width="6.37" height="6.37"/>
<rect x="178.51" y="66.86" class="st7" width="6.37" height="6.37"/>
<rect x="172.14" y="66.86" class="st8" width="6.37" height="6.37"/>
<rect x="165.77" y="66.86" class="st10" width="6.37" height="6.37"/>
<rect x="159.4" y="66.86" class="st10" width="6.37" height="6.37"/>
<rect x="153.03" y="66.86" class="st10" width="6.37" height="6.37"/>
<rect x="146.66" y="66.86" class="st10" width="6.37" height="6.37"/>
<rect x="140.29" y="66.86" class="st10" width="6.37" height="6.37"/>
<rect x="133.92" y="66.86" class="st10" width="6.37" height="6.37"/>
<rect x="127.54" y="66.86" class="st10" width="6.37" height="6.37"/>
<rect x="121.17" y="66.86" class="st11" width="6.37" height="6.37"/>
<rect x="114.8" y="66.86" class="st11" width="6.37" height="6.37"/>
<rect x="108.43" y="66.86" class="st11" width="6.37" height="6.37"/>
<rect x="102.06" y="66.86" class="st11" width="6.37" height="6.37"/>
<rect x="95.69" y="66.86" class="st11" width="6.37" height="6.37"/>
<rect x="89.32" y="66.86" class="st11" width="6.37" height="6.37"/>
<rect x="82.95" y="66.86" class="st11" width="6.37" height="6.37"/>
<rect x="76.58" y="66.86" class="st11" width="6.37" height="6.37"/>
<rect x="70.21" y="66.86" class="st11" width="6.37" height="6.37"/>
<rect x="63.84" y="66.86" class="st9" width="6.37" height="6.37"/>
<rect x="57.47" y="66.86" class="st5" width="6.37" height="6.37"/>
<rect x="51.09" y="66.86" class="st6" width="6.37" height="6.37"/>
<rect x="44.72" y="66.86" class="st4" width="6.37" height="6.37"/>
<rect x="191.25" y="60.49" class="st3" width="6.37" height="6.37"/>
<rect x="184.88" y="60.49" class="st5" width="6.37" height="6.37"/>
<rect x="178.51" y="60.49" class="st7" width="6.37" height="6.37"/>
<rect x="172.14" y="60.49" class="st8" width="6.37" height="6.37"/>
<rect x="165.77" y="60.49" class="st8" width="6.37" height="6.37"/>
<rect x="159.4" y="60.49" class="st8" width="6.37" height="6.37"/>
<rect x="153.03" y="60.49" class="st8" width="6.37" height="6.37"/>
<rect x="146.66" y="60.49" class="st8" width="6.37" height="6.37"/>
<rect x="140.29" y="60.49" class="st8" width="6.37" height="6.37"/>
<rect x="133.92" y="60.49" class="st8" width="6.37" height="6.37"/>
<rect x="127.54" y="60.49" class="st8" width="6.37" height="6.37"/>
<rect x="121.17" y="60.49" class="st9" width="6.37" height="6.37"/>
<rect x="114.8" y="60.49" class="st9" width="6.37" height="6.37"/>
<rect x="108.43" y="60.49" class="st9" width="6.37" height="6.37"/>
<rect x="102.06" y="60.49" class="st9" width="6.37" height="6.37"/>
<rect x="95.69" y="60.49" class="st9" width="6.37" height="6.37"/>
<rect x="89.32" y="60.49" class="st9" width="6.37" height="6.37"/>
<rect x="82.95" y="60.49" class="st9" width="6.37" height="6.37"/>
<rect x="76.58" y="60.49" class="st9" width="6.37" height="6.37"/>
<rect x="70.21" y="60.49" class="st9" width="6.37" height="6.37"/>
<rect x="63.84" y="60.49" class="st9" width="6.37" height="6.37"/>
<rect x="57.47" y="60.49" class="st5" width="6.37" height="6.37"/>
<rect x="51.09" y="60.49" class="st6" width="6.37" height="6.37"/>
<rect x="44.72" y="60.49" class="st4" width="6.37" height="6.37"/>
<rect x="191.25" y="54.12" class="st3" width="6.37" height="6.37"/>
<rect x="184.88" y="54.12" class="st5" width="6.37" height="6.37"/>
<rect x="178.51" y="54.12" class="st5" width="6.37" height="6.37"/>
<rect x="172.14" y="54.12" class="st7" width="6.37" height="6.37"/>
<rect x="165.77" y="54.12" class="st7" width="6.37" height="6.37"/>
<rect x="159.4" y="54.12" class="st7" width="6.37" height="6.37"/>
<rect x="153.03" y="54.12" class="st7" width="6.37" height="6.37"/>
<rect x="146.66" y="54.12" class="st7" width="6.37" height="6.37"/>
<rect x="140.29" y="54.12" class="st7" width="6.37" height="6.37"/>
<rect x="133.92" y="54.12" class="st7" width="6.37" height="6.37"/>
<rect x="127.54" y="54.12" class="st7" width="6.37" height="6.37"/>
<rect x="121.17" y="54.12" class="st5" width="6.37" height="6.37"/>
<rect x="114.8" y="54.12" class="st5" width="6.37" height="6.37"/>
<rect x="108.43" y="54.12" class="st5" width="6.37" height="6.37"/>
<rect x="102.06" y="54.12" class="st5" width="6.37" height="6.37"/>
<rect x="95.69" y="54.12" class="st5" width="6.37" height="6.37"/>
<rect x="89.32" y="54.12" class="st5" width="6.37" height="6.37"/>
<rect x="82.95" y="54.12" class="st5" width="6.37" height="6.37"/>
<rect x="76.58" y="54.12" class="st5" width="6.37" height="6.37"/>
<rect x="70.21" y="54.12" class="st5" width="6.37" height="6.37"/>
<rect x="63.84" y="54.12" class="st5" width="6.37" height="6.37"/>
<rect x="57.47" y="54.12" class="st6" width="6.37" height="6.37"/>
<rect x="51.09" y="54.12" class="st6" width="6.37" height="6.37"/>
<rect x="44.72" y="54.12" class="st4" width="6.37" height="6.37"/>
<rect x="191.25" y="47.74" class="st3" width="6.37" height="6.37"/>
<rect x="184.88" y="47.74" class="st5" width="6.37" height="6.37"/>
<rect x="178.51" y="47.74" class="st5" width="6.37" height="6.37"/>
<rect x="172.14" y="47.74" class="st5" width="6.37" height="6.37"/>
<rect x="165.77" y="47.74" class="st5" width="6.37" height="6.37"/>
<rect x="159.4" y="47.74" class="st5" width="6.37" height="6.37"/>
<rect x="153.03" y="47.74" class="st5" width="6.37" height="6.37"/>
<rect x="146.66" y="47.74" class="st5" width="6.37" height="6.37"/>
<rect x="140.29" y="47.74" class="st5" width="6.37" height="6.37"/>
<rect x="133.92" y="47.74" class="st5" width="6.37" height="6.37"/>
<rect x="127.54" y="47.74" class="st5" width="6.37" height="6.37"/>
<rect x="121.17" y="47.74" class="st6" width="6.37" height="6.37"/>
<rect x="114.8" y="47.74" class="st6" width="6.37" height="6.37"/>
<rect x="108.43" y="47.74" class="st6" width="6.37" height="6.37"/>
<rect x="102.06" y="47.74" class="st6" width="6.37" height="6.37"/>
<rect x="95.69" y="47.74" class="st6" width="6.37" height="6.37"/>
<rect x="89.32" y="47.74" class="st6" width="6.37" height="6.37"/>
<rect x="82.95" y="47.74" class="st6" width="6.37" height="6.37"/>
<rect x="76.58" y="47.74" class="st6" width="6.37" height="6.37"/>
<rect x="70.21" y="47.74" class="st6" width="6.37" height="6.37"/>
<rect x="63.84" y="47.74" class="st6" width="6.37" height="6.37"/>
<rect x="57.47" y="47.74" class="st6" width="6.37" height="6.37"/>
<rect x="51.09" y="47.74" class="st6" width="6.37" height="6.37"/>
<rect x="44.72" y="47.74" class="st4" width="6.37" height="6.37"/>
<rect x="191.25" y="41.37" class="st3" width="6.37" height="6.37"/>
<rect x="184.88" y="41.37" class="st3" width="6.37" height="6.37"/>
<rect x="178.51" y="41.37" class="st3" width="6.37" height="6.37"/>
<rect x="172.14" y="41.37" class="st3" width="6.37" height="6.37"/>
<rect x="165.77" y="41.37" class="st3" width="6.37" height="6.37"/>
<rect x="159.4" y="41.37" class="st3" width="6.37" height="6.37"/>
<rect x="153.03" y="41.37" class="st3" width="6.37" height="6.37"/>
<rect x="146.66" y="41.37" class="st3" width="6.37" height="6.37"/>
<rect x="140.29" y="41.37" class="st3" width="6.37" height="6.37"/>
<rect x="133.92" y="41.37" class="st3" width="6.37" height="6.37"/>
<rect x="127.54" y="41.37" class="st3" width="6.37" height="6.37"/>
<rect x="121.17" y="41.37" class="st4" width="6.37" height="6.37"/>
<rect x="114.8" y="41.37" class="st4" width="6.37" height="6.37"/>
<rect x="108.43" y="41.37" class="st4" width="6.37" height="6.37"/>
<rect x="102.06" y="41.37" class="st4" width="6.37" height="6.37"/>
<rect x="95.69" y="41.37" class="st4" width="6.37" height="6.37"/>
<rect x="89.32" y="41.37" class="st4" width="6.37" height="6.37"/>
<rect x="82.95" y="41.37" class="st4" width="6.37" height="6.37"/>
<rect x="76.58" y="41.37" class="st4" width="6.37" height="6.37"/>
<rect x="70.21" y="41.37" class="st4" width="6.37" height="6.37"/>
<rect x="63.84" y="41.37" class="st4" width="6.37" height="6.37"/>
<rect x="57.47" y="41.37" class="st4" width="6.37" height="6.37"/>
<rect x="51.09" y="41.37" class="st4" width="6.37" height="6.37"/>
<rect x="44.72" y="41.37" class="st4" width="6.37" height="6.37"/>
<rect x="121.17" y="35" class="st4" width="6.37" height="6.37"/>
<rect x="114.8" y="35" class="st4" width="6.37" height="6.37"/>
<rect x="108.43" y="35" class="st4" width="6.37" height="6.37"/>
<rect x="102.06" y="35" class="st4" width="6.37" height="6.37"/>
<rect x="95.69" y="35" class="st4" width="6.37" height="6.37"/>
<rect x="89.32" y="35" class="st4" width="6.37" height="6.37"/>
<rect x="82.95" y="35" class="st4" width="6.37" height="6.37"/>
<rect x="76.58" y="35" class="st4" width="6.37" height="6.37"/>
<rect x="70.21" y="35" class="st4" width="6.37" height="6.37"/>
<rect x="63.84" y="35" class="st4" width="6.37" height="6.37"/>
<rect x="57.47" y="35" class="st4" width="6.37" height="6.37"/>
<rect x="51.09" y="35" class="st4" width="6.37" height="6.37"/>
<rect x="44.72" y="35" class="st4" width="6.37" height="6.37"/>
<rect x="191.25" y="35" class="st3" width="6.37" height="6.37"/>
<rect x="184.88" y="35" class="st3" width="6.37" height="6.37"/>
<rect x="178.51" y="35" class="st3" width="6.37" height="6.37"/>
<rect x="172.14" y="35" class="st3" width="6.37" height="6.37"/>
<rect x="165.77" y="35" class="st3" width="6.37" height="6.37"/>
<rect x="159.4" y="35" class="st3" width="6.37" height="6.37"/>
<rect x="153.03" y="35" class="st3" width="6.37" height="6.37"/>
<rect x="146.66" y="35" class="st3" width="6.37" height="6.37"/>
<rect x="140.29" y="35" class="st3" width="6.37" height="6.37"/>
<rect x="133.92" y="35" class="st3" width="6.37" height="6.37"/>
<rect x="127.54" y="35" class="st3" width="6.37" height="6.37"/>
</svg>
