<?xml version="1.0" encoding="utf-8"?>
<!-- Generator: Adobe Illustrator 30.0.0, SVG Export Plug-In . SVG Version: 9.03 Build 0)  -->
<svg version="1.1" id="Layer_1" xmlns="http://www.w3.org/2000/svg" xmlns:xlink="http://www.w3.org/1999/xlink" x="0px" y="0px"
	 viewBox="0 0 240 240" style="enable-background:new 0 0 240 240;" xml:space="preserve">
<style type="text/css">
	.st0{fill:#FC5F88;}
	.st1{fill:#FFD300;}
	.st2{fill:#FDDEA7;}
	.st3{fill:#ECEEEE;}
	.st4{fill:#FF9700;}
	.st5{fill:#D50E48;}
	.st6{fill:#C86100;}
</style>
<rect x="182.55" y="142.01" class="st0" width="8.67" height="8.67"/>
<rect x="182.55" y="133.35" class="st0" width="8.67" height="8.67"/>
<rect x="182.55" y="124.68" class="st0" width="8.67" height="8.67"/>
<rect x="182.55" y="116.02" class="st0" width="8.67" height="8.67"/>
<rect x="182.55" y="107.33" class="st1" width="8.67" height="8.68"/>
<rect x="182.55" y="98.67" class="st1" width="8.67" height="8.67"/>
<rect x="182.55" y="90" class="st0" width="8.67" height="8.67"/>
<rect x="182.55" y="81.34" class="st0" width="8.67" height="8.67"/>
<rect x="182.55" y="72.67" class="st0" width="8.67" height="8.67"/>
<rect x="173.89" y="185.34" class="st0" width="8.67" height="8.67"/>
<rect x="173.89" y="176.68" class="st0" width="8.67" height="8.67"/>
<rect x="173.89" y="168.01" class="st0" width="8.67" height="8.67"/>
<rect x="173.89" y="159.35" class="st0" width="8.67" height="8.67"/>
<rect x="173.89" y="150.68" class="st0" width="8.67" height="8.67"/>
<rect x="173.89" y="142.01" class="st0" width="8.67" height="8.67"/>
<rect x="173.89" y="133.35" class="st0" width="8.67" height="8.67"/>
<rect x="173.89" y="124.68" class="st0" width="8.67" height="8.67"/>
<rect x="173.89" y="116.02" class="st0" width="8.67" height="8.67"/>
<rect x="173.89" y="107.33" class="st1" width="8.67" height="8.68"/>
<rect x="173.89" y="98.67" class="st1" width="8.67" height="8.67"/>
<rect x="173.89" y="90" class="st0" width="8.67" height="8.67"/>
<rect x="173.89" y="81.34" class="st0" width="8.67" height="8.67"/>
<rect x="173.89" y="72.67" class="st0" width="8.67" height="8.67"/>
<rect x="173.89" y="64" class="st2" width="8.67" height="8.67"/>
<rect x="173.89" y="55.34" class="st2" width="8.67" height="8.67"/>
<rect x="173.89" y="46.67" class="st1" width="8.67" height="8.67"/>
<rect x="173.89" y="38.01" class="st1" width="8.67" height="8.67"/>
<rect x="165.22" y="211.34" class="st0" width="8.67" height="8.67"/>
<rect x="165.22" y="202.68" class="st0" width="8.67" height="8.67"/>
<rect x="165.22" y="194.01" class="st0" width="8.67" height="8.67"/>
<rect x="165.22" y="185.34" class="st0" width="8.67" height="8.67"/>
<rect x="165.22" y="176.68" class="st0" width="8.67" height="8.67"/>
<rect x="165.22" y="168.01" class="st0" width="8.67" height="8.67"/>
<rect x="165.22" y="159.35" class="st0" width="8.67" height="8.67"/>
<rect x="165.22" y="150.68" class="st0" width="8.67" height="8.67"/>
<rect x="165.22" y="142.01" class="st0" width="8.67" height="8.67"/>
<rect x="165.22" y="133.35" class="st3" width="8.67" height="8.67"/>
<rect x="165.22" y="124.68" class="st3" width="8.67" height="8.67"/>
<rect x="165.22" y="116.02" class="st3" width="8.67" height="8.67"/>
<rect x="165.22" y="107.33" class="st1" width="8.67" height="8.68"/>
<rect x="165.22" y="98.67" class="st1" width="8.67" height="8.67"/>
<rect x="165.22" y="90" class="st3" width="8.67" height="8.67"/>
<rect x="165.22" y="81.34" class="st3" width="8.67" height="8.67"/>
<rect x="165.22" y="72.67" class="st3" width="8.67" height="8.67"/>
<rect x="165.22" y="64" class="st2" width="8.67" height="8.67"/>
<rect x="165.22" y="55.34" class="st2" width="8.67" height="8.67"/>
<rect x="165.22" y="46.67" class="st4" width="8.67" height="8.67"/>
<rect x="165.22" y="38.01" class="st2" width="8.67" height="8.67"/>
<rect x="156.54" y="211.34" class="st0" width="8.68" height="8.67"/>
<rect x="156.54" y="202.68" class="st0" width="8.68" height="8.67"/>
<rect x="156.54" y="194.01" class="st0" width="8.68" height="8.67"/>
<rect x="156.54" y="185.34" class="st0" width="8.68" height="8.67"/>
<rect x="156.54" y="176.68" class="st3" width="8.68" height="8.67"/>
<rect x="156.54" y="168.01" class="st3" width="8.68" height="8.67"/>
<rect x="156.54" y="159.35" class="st3" width="8.68" height="8.67"/>
<rect x="156.54" y="150.68" class="st3" width="8.68" height="8.67"/>
<rect x="156.54" y="142.01" class="st3" width="8.68" height="8.67"/>
<rect x="156.54" y="133.35" class="st3" width="8.68" height="8.67"/>
<rect x="156.54" y="124.68" class="st3" width="8.68" height="8.67"/>
<rect x="156.54" y="116.02" class="st3" width="8.68" height="8.67"/>
<rect x="156.54" y="107.33" class="st1" width="8.68" height="8.68"/>
<rect x="156.54" y="98.67" class="st1" width="8.68" height="8.67"/>
<rect x="156.54" y="90" class="st3" width="8.68" height="8.67"/>
<rect x="156.54" y="81.34" class="st3" width="8.68" height="8.67"/>
<rect x="156.54" y="72.67" class="st3" width="8.68" height="8.67"/>
<rect x="156.54" y="64" class="st4" width="8.68" height="8.67"/>
<rect x="156.54" y="55.34" class="st4" width="8.68" height="8.67"/>
<rect x="156.54" y="46.67" class="st4" width="8.68" height="8.67"/>
<rect x="156.54" y="38.01" class="st2" width="8.68" height="8.67"/>
<rect x="147.87" y="211.34" class="st3" width="8.67" height="8.67"/>
<rect x="147.87" y="202.68" class="st3" width="8.67" height="8.67"/>
<rect x="147.87" y="194.01" class="st3" width="8.67" height="8.67"/>
<rect x="147.87" y="185.34" class="st3" width="8.67" height="8.67"/>
<rect x="147.87" y="176.68" class="st3" width="8.67" height="8.67"/>
<rect x="147.87" y="168.01" class="st3" width="8.67" height="8.67"/>
<rect x="147.87" y="159.35" class="st3" width="8.67" height="8.67"/>
<rect x="147.87" y="150.68" class="st3" width="8.67" height="8.67"/>
<rect x="147.87" y="142.01" class="st3" width="8.67" height="8.67"/>
<rect x="147.87" y="133.35" class="st0" width="8.67" height="8.67"/>
<rect x="147.87" y="124.68" class="st0" width="8.67" height="8.67"/>
<rect x="147.87" y="116.02" class="st0" width="8.67" height="8.67"/>
<rect x="147.87" y="107.33" class="st1" width="8.67" height="8.68"/>
<rect x="147.87" y="98.67" class="st1" width="8.67" height="8.67"/>
<rect x="147.87" y="90" class="st0" width="8.67" height="8.67"/>
<rect x="147.87" y="81.34" class="st0" width="8.67" height="8.67"/>
<rect x="147.87" y="72.67" class="st0" width="8.67" height="8.67"/>
<rect x="147.87" y="64" class="st2" width="8.67" height="8.67"/>
<rect x="147.87" y="55.34" class="st2" width="8.67" height="8.67"/>
<rect x="147.87" y="46.67" class="st4" width="8.67" height="8.67"/>
<rect x="147.87" y="38.01" class="st1" width="8.67" height="8.67"/>
<rect x="147.87" y="29.34" class="st4" width="8.67" height="8.67"/>
<rect x="139.21" y="211.34" class="st3" width="8.67" height="8.67"/>
<rect x="139.21" y="202.68" class="st3" width="8.67" height="8.67"/>
<rect x="139.21" y="194.01" class="st3" width="8.67" height="8.67"/>
<rect x="139.21" y="185.34" class="st3" width="8.67" height="8.67"/>
<rect x="139.21" y="176.68" class="st3" width="8.67" height="8.67"/>
<rect x="139.21" y="168.01" class="st0" width="8.67" height="8.67"/>
<rect x="139.21" y="159.35" class="st0" width="8.67" height="8.67"/>
<rect x="139.21" y="150.68" class="st0" width="8.67" height="8.67"/>
<rect x="139.21" y="142.01" class="st0" width="8.67" height="8.67"/>
<rect x="139.21" y="133.35" class="st0" width="8.67" height="8.67"/>
<rect x="139.21" y="124.68" class="st0" width="8.67" height="8.67"/>
<rect x="139.21" y="116.02" class="st0" width="8.67" height="8.67"/>
<rect x="139.21" y="107.33" class="st1" width="8.67" height="8.68"/>
<rect x="139.21" y="98.67" class="st1" width="8.67" height="8.67"/>
<rect x="139.21" y="90" class="st0" width="8.67" height="8.67"/>
<rect x="139.21" y="81.34" class="st0" width="8.67" height="8.67"/>
<rect x="139.21" y="72.67" class="st0" width="8.67" height="8.67"/>
<rect x="139.21" y="64" class="st2" width="8.67" height="8.67"/>
<rect x="139.21" y="55.34" class="st2" width="8.67" height="8.67"/>
<rect x="139.21" y="46.67" class="st4" width="8.67" height="8.67"/>
<rect x="139.21" y="38.01" class="st2" width="8.67" height="8.67"/>
<rect x="139.21" y="29.34" class="st2" width="8.67" height="8.67"/>
<rect x="139.21" y="20.67" class="st2" width="8.67" height="8.67"/>
<rect x="130.54" y="211.34" class="st5" width="8.67" height="8.67"/>
<rect x="130.54" y="202.68" class="st5" width="8.67" height="8.67"/>
<rect x="130.54" y="194.01" class="st5" width="8.67" height="8.67"/>
<rect x="130.54" y="185.34" class="st5" width="8.67" height="8.67"/>
<rect x="130.54" y="176.68" class="st5" width="8.67" height="8.67"/>
<rect x="130.54" y="168.01" class="st5" width="8.67" height="8.67"/>
<rect x="130.54" y="159.35" class="st5" width="8.67" height="8.67"/>
<rect x="130.54" y="150.68" class="st5" width="8.67" height="8.67"/>
<rect x="130.54" y="142.01" class="st5" width="8.67" height="8.67"/>
<rect x="130.54" y="133.35" class="st5" width="8.67" height="8.67"/>
<rect x="130.54" y="124.68" class="st5" width="8.67" height="8.67"/>
<rect x="130.54" y="116.02" class="st5" width="8.67" height="8.67"/>
<rect x="130.54" y="107.33" class="st4" width="8.67" height="8.68"/>
<rect x="130.54" y="98.67" class="st4" width="8.67" height="8.67"/>
<rect x="130.54" y="90" class="st5" width="8.67" height="8.67"/>
<rect x="130.54" y="81.34" class="st5" width="8.67" height="8.67"/>
<rect x="130.54" y="72.67" class="st5" width="8.67" height="8.67"/>
<rect x="130.54" y="64" class="st4" width="8.67" height="8.67"/>
<rect x="130.54" y="55.34" class="st4" width="8.67" height="8.67"/>
<rect x="130.54" y="46.67" class="st4" width="8.67" height="8.67"/>
<rect x="130.54" y="38.01" class="st2" width="8.67" height="8.67"/>
<rect x="130.54" y="29.34" class="st1" width="8.67" height="8.67"/>
<rect x="130.54" y="20.67" class="st2" width="8.67" height="8.67"/>
<rect x="121.87" y="211.34" class="st2" width="8.67" height="8.67"/>
<rect x="121.87" y="202.68" class="st2" width="8.67" height="8.67"/>
<rect x="121.87" y="194.01" class="st2" width="8.67" height="8.67"/>
<rect x="121.87" y="185.34" class="st2" width="8.67" height="8.67"/>
<rect x="121.87" y="176.68" class="st2" width="8.67" height="8.67"/>
<rect x="121.87" y="168.01" class="st5" width="8.67" height="8.67"/>
<rect x="121.87" y="159.35" class="st5" width="8.67" height="8.67"/>
<rect x="121.87" y="150.68" class="st5" width="8.67" height="8.67"/>
<rect x="121.87" y="142.01" class="st5" width="8.67" height="8.67"/>
<rect x="121.87" y="133.35" class="st5" width="8.67" height="8.67"/>
<rect x="121.87" y="124.68" class="st5" width="8.67" height="8.67"/>
<rect x="121.87" y="116.02" class="st5" width="8.67" height="8.67"/>
<rect x="121.87" y="107.33" class="st4" width="8.67" height="8.68"/>
<rect x="121.87" y="98.67" class="st4" width="8.67" height="8.67"/>
<rect x="121.87" y="90" class="st5" width="8.67" height="8.67"/>
<rect x="121.87" y="81.34" class="st5" width="8.67" height="8.67"/>
<rect x="121.87" y="72.67" class="st5" width="8.67" height="8.67"/>
<rect x="121.87" y="64" class="st4" width="8.67" height="8.67"/>
<rect x="121.87" y="55.34" class="st1" width="8.67" height="8.67"/>
<rect x="121.87" y="46.67" class="st4" width="8.67" height="8.67"/>
<rect x="121.87" y="38.01" class="st4" width="8.67" height="8.67"/>
<rect x="121.87" y="29.34" class="st4" width="8.67" height="8.67"/>
<rect x="121.87" y="20.67" class="st2" width="8.67" height="8.67"/>
<rect x="113.21" y="211.34" class="st2" width="8.67" height="8.67"/>
<rect x="113.21" y="202.68" class="st2" width="8.67" height="8.67"/>
<rect x="113.21" y="194.01" class="st2" width="8.67" height="8.67"/>
<rect x="113.21" y="185.34" class="st2" width="8.67" height="8.67"/>
<rect x="113.21" y="176.68" class="st2" width="8.67" height="8.67"/>
<rect x="113.21" y="168.01" class="st2" width="8.67" height="8.67"/>
<rect x="113.21" y="159.35" class="st2" width="8.67" height="8.67"/>
<rect x="113.21" y="150.68" class="st2" width="8.67" height="8.67"/>
<rect x="113.21" y="142.01" class="st2" width="8.67" height="8.67"/>
<rect x="113.21" y="133.35" class="st2" width="8.67" height="8.67"/>
<rect x="113.21" y="124.68" class="st5" width="8.67" height="8.67"/>
<rect x="113.21" y="116.02" class="st5" width="8.67" height="8.67"/>
<rect x="113.21" y="107.33" class="st4" width="8.67" height="8.68"/>
<rect x="113.21" y="98.67" class="st4" width="8.67" height="8.67"/>
<rect x="113.21" y="90" class="st5" width="8.67" height="8.67"/>
<rect x="113.21" y="81.34" class="st5" width="8.67" height="8.67"/>
<rect x="113.21" y="72.67" class="st5" width="8.67" height="8.67"/>
<rect x="113.21" y="64" class="st4" width="8.67" height="8.67"/>
<rect x="113.21" y="55.34" class="st1" width="8.67" height="8.67"/>
<rect x="113.21" y="46.67" class="st1" width="8.67" height="8.67"/>
<rect x="113.21" y="38.01" class="st4" width="8.67" height="8.67"/>
<rect x="113.21" y="29.34" class="st4" width="8.67" height="8.67"/>
<rect x="113.21" y="20.67" class="st4" width="8.67" height="8.67"/>
<rect x="104.54" y="211.34" class="st5" width="8.67" height="8.67"/>
<rect x="104.54" y="202.68" class="st5" width="8.67" height="8.67"/>
<rect x="104.54" y="194.01" class="st5" width="8.67" height="8.67"/>
<rect x="104.54" y="185.34" class="st5" width="8.67" height="8.67"/>
<rect x="104.54" y="176.68" class="st5" width="8.67" height="8.67"/>
<rect x="104.54" y="168.01" class="st2" width="8.67" height="8.67"/>
<rect x="104.54" y="159.35" class="st2" width="8.67" height="8.67"/>
<rect x="104.54" y="150.68" class="st2" width="8.67" height="8.67"/>
<rect x="104.54" y="142.01" class="st2" width="8.67" height="8.67"/>
<rect x="104.54" y="133.35" class="st2" width="8.67" height="8.67"/>
<rect x="104.54" y="124.68" class="st2" width="8.67" height="8.67"/>
<rect x="104.54" y="116.02" class="st2" width="8.67" height="8.67"/>
<rect x="104.54" y="107.33" class="st4" width="8.67" height="8.68"/>
<rect x="104.54" y="98.67" class="st4" width="8.67" height="8.67"/>
<rect x="104.54" y="90" class="st2" width="8.67" height="8.67"/>
<rect x="104.54" y="81.34" class="st2" width="8.67" height="8.67"/>
<rect x="104.54" y="72.67" class="st2" width="8.67" height="8.67"/>
<rect x="104.54" y="64" class="st6" width="8.67" height="8.67"/>
<rect x="104.54" y="55.34" class="st6" width="8.67" height="8.67"/>
<rect x="104.54" y="46.67" class="st2" width="8.67" height="8.67"/>
<rect x="104.54" y="38.01" class="st4" width="8.67" height="8.67"/>
<rect x="104.54" y="29.34" class="st2" width="8.67" height="8.67"/>
<rect x="104.54" y="20.67" class="st2" width="8.67" height="8.67"/>
<rect x="95.88" y="211.34" class="st5" width="8.67" height="8.67"/>
<rect x="95.88" y="202.68" class="st5" width="8.67" height="8.67"/>
<rect x="95.88" y="194.01" class="st5" width="8.67" height="8.67"/>
<rect x="95.88" y="185.34" class="st5" width="8.67" height="8.67"/>
<rect x="95.88" y="176.68" class="st5" width="8.67" height="8.67"/>
<rect x="95.88" y="168.01" class="st5" width="8.67" height="8.67"/>
<rect x="95.88" y="159.35" class="st5" width="8.67" height="8.67"/>
<rect x="95.88" y="150.68" class="st5" width="8.67" height="8.67"/>
<rect x="95.88" y="142.01" class="st5" width="8.67" height="8.67"/>
<rect x="95.88" y="133.35" class="st2" width="8.67" height="8.67"/>
<rect x="95.88" y="124.68" class="st2" width="8.67" height="8.67"/>
<rect x="95.88" y="116.02" class="st2" width="8.67" height="8.67"/>
<rect x="95.88" y="107.33" class="st4" width="8.67" height="8.68"/>
<rect x="95.88" y="98.67" class="st4" width="8.67" height="8.67"/>
<rect x="95.88" y="90" class="st2" width="8.67" height="8.67"/>
<rect x="95.88" y="81.34" class="st2" width="8.67" height="8.67"/>
<rect x="95.88" y="72.67" class="st2" width="8.67" height="8.67"/>
<rect x="95.88" y="64" class="st6" width="8.67" height="8.67"/>
<rect x="95.88" y="55.34" class="st2" width="8.67" height="8.67"/>
<rect x="95.88" y="46.67" class="st2" width="8.67" height="8.67"/>
<rect x="95.88" y="38.01" class="st4" width="8.67" height="8.67"/>
<rect x="95.88" y="29.34" class="st2" width="8.67" height="8.67"/>
<rect x="95.88" y="20.67" class="st2" width="8.67" height="8.67"/>
<rect x="87.21" y="211.34" class="st5" width="8.67" height="8.67"/>
<rect x="87.21" y="202.68" class="st5" width="8.67" height="8.67"/>
<rect x="87.21" y="194.01" class="st5" width="8.67" height="8.67"/>
<rect x="87.21" y="185.34" class="st5" width="8.67" height="8.67"/>
<rect x="87.21" y="176.68" class="st5" width="8.67" height="8.67"/>
<rect x="87.21" y="168.01" class="st5" width="8.67" height="8.67"/>
<rect x="87.21" y="159.35" class="st5" width="8.67" height="8.67"/>
<rect x="87.21" y="150.68" class="st5" width="8.67" height="8.67"/>
<rect x="87.21" y="142.01" class="st5" width="8.67" height="8.67"/>
<rect x="87.21" y="133.35" class="st5" width="8.67" height="8.67"/>
<rect x="87.21" y="124.68" class="st5" width="8.67" height="8.67"/>
<rect x="87.21" y="116.02" class="st5" width="8.67" height="8.67"/>
<rect x="87.21" y="107.33" class="st4" width="8.67" height="8.68"/>
<rect x="87.21" y="98.67" class="st4" width="8.67" height="8.67"/>
<rect x="87.21" y="90" class="st5" width="8.67" height="8.67"/>
<rect x="87.21" y="81.34" class="st5" width="8.67" height="8.67"/>
<rect x="87.21" y="72.67" class="st5" width="8.67" height="8.67"/>
<rect x="87.21" y="64" class="st6" width="8.67" height="8.67"/>
<rect x="87.21" y="55.34" class="st6" width="8.67" height="8.67"/>
<rect x="87.21" y="46.67" class="st1" width="8.67" height="8.67"/>
<rect x="87.21" y="38.01" class="st4" width="8.67" height="8.67"/>
<rect x="87.21" y="29.34" class="st1" width="8.67" height="8.67"/>
<rect x="87.21" y="20.67" class="st1" width="8.67" height="8.67"/>
<rect x="78.54" y="211.34" class="st2" width="8.67" height="8.67"/>
<rect x="78.54" y="202.68" class="st2" width="8.67" height="8.67"/>
<rect x="78.54" y="194.01" class="st2" width="8.67" height="8.67"/>
<rect x="78.54" y="185.34" class="st2" width="8.67" height="8.67"/>
<rect x="78.54" y="176.68" class="st5" width="8.67" height="8.67"/>
<rect x="78.54" y="168.01" class="st5" width="8.67" height="8.67"/>
<rect x="78.54" y="159.35" class="st5" width="8.67" height="8.67"/>
<rect x="78.54" y="150.68" class="st5" width="8.67" height="8.67"/>
<rect x="78.54" y="142.01" class="st5" width="8.67" height="8.67"/>
<rect x="78.54" y="133.35" class="st5" width="8.67" height="8.67"/>
<rect x="78.54" y="124.68" class="st5" width="8.67" height="8.67"/>
<rect x="78.54" y="116.02" class="st5" width="8.67" height="8.67"/>
<rect x="78.54" y="107.33" class="st4" width="8.67" height="8.68"/>
<rect x="78.54" y="98.67" class="st4" width="8.67" height="8.67"/>
<rect x="78.54" y="90" class="st5" width="8.67" height="8.67"/>
<rect x="78.54" y="81.34" class="st5" width="8.67" height="8.67"/>
<rect x="78.54" y="72.67" class="st5" width="8.67" height="8.67"/>
<rect x="78.54" y="64" class="st4" width="8.67" height="8.67"/>
<rect x="78.54" y="55.34" class="st1" width="8.67" height="8.67"/>
<rect x="78.54" y="46.67" class="st1" width="8.67" height="8.67"/>
<rect x="78.54" y="38.01" class="st1" width="8.67" height="8.67"/>
<rect x="78.54" y="29.34" class="st4" width="8.67" height="8.67"/>
<rect x="69.88" y="211.34" class="st2" width="8.67" height="8.67"/>
<rect x="69.88" y="202.68" class="st2" width="8.67" height="8.67"/>
<rect x="69.88" y="194.01" class="st2" width="8.67" height="8.67"/>
<rect x="69.88" y="185.34" class="st2" width="8.67" height="8.67"/>
<rect x="69.88" y="176.68" class="st2" width="8.67" height="8.67"/>
<rect x="69.88" y="168.01" class="st2" width="8.67" height="8.67"/>
<rect x="69.88" y="159.35" class="st2" width="8.67" height="8.67"/>
<rect x="69.88" y="150.68" class="st2" width="8.67" height="8.67"/>
<rect x="69.88" y="142.01" class="st2" width="8.67" height="8.67"/>
<rect x="69.88" y="133.35" class="st2" width="8.67" height="8.67"/>
<rect x="69.88" y="124.68" class="st5" width="8.67" height="8.67"/>
<rect x="69.88" y="116.02" class="st5" width="8.67" height="8.67"/>
<rect x="69.88" y="107.33" class="st4" width="8.67" height="8.68"/>
<rect x="69.88" y="98.67" class="st4" width="8.67" height="8.67"/>
<rect x="69.88" y="90" class="st5" width="8.67" height="8.67"/>
<rect x="69.88" y="81.34" class="st5" width="8.67" height="8.67"/>
<rect x="69.88" y="72.67" class="st5" width="8.67" height="8.67"/>
<rect x="69.88" y="64" class="st4" width="8.67" height="8.67"/>
<rect x="69.88" y="55.34" class="st4" width="8.67" height="8.67"/>
<rect x="69.88" y="46.67" class="st4" width="8.67" height="8.67"/>
<rect x="69.88" y="38.01" class="st4" width="8.67" height="8.67"/>
<rect x="61.21" y="211.34" class="st5" width="8.67" height="8.67"/>
<rect x="61.21" y="202.68" class="st5" width="8.67" height="8.67"/>
<rect x="61.21" y="194.01" class="st5" width="8.67" height="8.67"/>
<rect x="61.21" y="185.34" class="st5" width="8.67" height="8.67"/>
<rect x="61.21" y="176.68" class="st5" width="8.67" height="8.67"/>
<rect x="61.21" y="168.01" class="st2" width="8.67" height="8.67"/>
<rect x="61.21" y="159.35" class="st2" width="8.67" height="8.67"/>
<rect x="61.21" y="150.68" class="st2" width="8.67" height="8.67"/>
<rect x="61.21" y="142.01" class="st2" width="8.67" height="8.67"/>
<rect x="61.21" y="133.35" class="st2" width="8.67" height="8.67"/>
<rect x="61.21" y="124.68" class="st2" width="8.67" height="8.67"/>
<rect x="61.21" y="116.02" class="st2" width="8.67" height="8.67"/>
<rect x="61.21" y="107.33" class="st4" width="8.67" height="8.68"/>
<rect x="61.21" y="98.67" class="st4" width="8.67" height="8.67"/>
<rect x="61.21" y="90" class="st2" width="8.67" height="8.67"/>
<rect x="61.21" y="81.34" class="st2" width="8.67" height="8.67"/>
<rect x="61.21" y="72.67" class="st2" width="8.67" height="8.67"/>
<rect x="61.21" y="64" class="st4" width="8.67" height="8.67"/>
<rect x="61.21" y="55.34" class="st4" width="8.67" height="8.67"/>
<rect x="61.21" y="46.67" class="st2" width="8.67" height="8.67"/>
<rect x="61.21" y="38.01" class="st2" width="8.67" height="8.67"/>
<rect x="52.55" y="211.34" class="st5" width="8.67" height="8.67"/>
<rect x="52.55" y="202.68" class="st5" width="8.67" height="8.67"/>
<rect x="52.55" y="194.01" class="st5" width="8.67" height="8.67"/>
<rect x="52.55" y="185.34" class="st5" width="8.67" height="8.67"/>
<rect x="52.55" y="176.68" class="st5" width="8.67" height="8.67"/>
<rect x="52.55" y="168.01" class="st5" width="8.67" height="8.67"/>
<rect x="52.55" y="159.35" class="st5" width="8.67" height="8.67"/>
<rect x="52.55" y="150.68" class="st5" width="8.67" height="8.67"/>
<rect x="52.55" y="142.01" class="st5" width="8.67" height="8.67"/>
<rect x="52.55" y="133.35" class="st2" width="8.67" height="8.67"/>
<rect x="52.55" y="124.68" class="st2" width="8.67" height="8.67"/>
<rect x="52.55" y="116.02" class="st2" width="8.67" height="8.67"/>
<rect x="52.55" y="107.33" class="st4" width="8.67" height="8.68"/>
<rect x="52.55" y="98.67" class="st4" width="8.67" height="8.67"/>
<rect x="52.55" y="90" class="st2" width="8.67" height="8.67"/>
<rect x="52.55" y="81.34" class="st2" width="8.67" height="8.67"/>
<rect x="52.55" y="72.67" class="st2" width="8.67" height="8.67"/>
<rect x="52.55" y="64" class="st6" width="8.67" height="8.67"/>
<rect x="52.55" y="55.34" class="st4" width="8.67" height="8.67"/>
<rect x="52.55" y="46.67" class="st2" width="8.67" height="8.67"/>
<rect x="52.55" y="38.01" class="st2" width="8.67" height="8.67"/>
<rect x="43.88" y="168.01" class="st5" width="8.67" height="8.67"/>
<rect x="43.88" y="159.35" class="st5" width="8.67" height="8.67"/>
<rect x="43.88" y="150.68" class="st5" width="8.67" height="8.67"/>
<rect x="43.88" y="142.01" class="st5" width="8.67" height="8.67"/>
<rect x="43.88" y="133.35" class="st5" width="8.67" height="8.67"/>
<rect x="43.88" y="124.68" class="st5" width="8.67" height="8.67"/>
<rect x="43.88" y="116.02" class="st5" width="8.67" height="8.67"/>
<rect x="43.88" y="107.33" class="st4" width="8.67" height="8.68"/>
<rect x="43.88" y="98.67" class="st4" width="8.67" height="8.67"/>
<rect x="43.88" y="90" class="st5" width="8.67" height="8.67"/>
<rect x="43.88" y="81.34" class="st5" width="8.67" height="8.67"/>
<rect x="43.88" y="72.67" class="st5" width="8.67" height="8.67"/>
<rect x="43.88" y="64" class="st6" width="8.67" height="8.67"/>
<rect x="43.88" y="55.34" class="st6" width="8.67" height="8.67"/>
<rect x="35.21" y="116.02" class="st5" width="8.67" height="8.67"/>
<rect x="35.21" y="107.33" class="st4" width="8.67" height="8.68"/>
<rect x="35.21" y="98.67" class="st4" width="8.67" height="8.67"/>
<rect x="35.21" y="90" class="st5" width="8.67" height="8.67"/>
<rect x="35.21" y="81.34" class="st5" width="8.67" height="8.67"/>
<rect x="35.21" y="72.67" class="st5" width="8.67" height="8.67"/>
</svg>
