<?xml version="1.0" encoding="utf-8"?>
<!-- Generator: Adobe Illustrator 30.0.0, SVG Export Plug-In . SVG Version: 9.03 Build 0)  -->
<svg version="1.1" id="Layer_1" xmlns="http://www.w3.org/2000/svg" xmlns:xlink="http://www.w3.org/1999/xlink" x="0px" y="0px"
	 viewBox="0 0 240 240" style="enable-background:new 0 0 240 240;" xml:space="preserve">
<style type="text/css">
	.st0{fill:#181818;}
	.st1{fill:#FC4F61;}
	.st2{fill:#E5F7F9;}
	.st3{fill:#96D455;}
	.st4{fill:#FF8093;}
	.st5{fill:#FE9DB1;}
	.st6{fill:#BFEA8C;}
</style>
<rect x="104.88" y="156.76" class="st0" width="9.82" height="9.82"/>
<rect x="104.88" y="147.4" class="st0" width="9.82" height="9.82"/>
<rect x="104.88" y="137.81" class="st0" width="9.82" height="9.82"/>
<rect x="114.7" y="137.81" class="st0" width="9.82" height="9.82"/>
<rect x="58.33" y="91.14" transform="matrix(-1 -1.224647e-16 1.224647e-16 -1 126.4827 192.1066)" class="st1" width="9.82" height="9.82"/>
<rect x="67.45" y="91.14" transform="matrix(-1 -1.224647e-16 1.224647e-16 -1 144.7283 192.1066)" class="st1" width="9.82" height="9.82"/>
<rect x="67.45" y="100.14" transform="matrix(-1 -1.224647e-16 1.224647e-16 -1 144.7283 210.109)" class="st1" width="9.82" height="9.82"/>
<rect x="76.81" y="100.14" transform="matrix(-1 -1.224647e-16 1.224647e-16 -1 163.4418 210.109)" class="st1" width="9.82" height="9.82"/>
<rect x="76.81" y="109.97" transform="matrix(-1 -1.224647e-16 1.224647e-16 -1 163.4418 229.7582)" class="st1" width="9.82" height="9.82"/>
<rect x="85.93" y="109.97" transform="matrix(-1 -1.224647e-16 1.224647e-16 -1 181.6875 229.7582)" class="st1" width="9.82" height="9.82"/>
<rect x="85.93" y="119.32" transform="matrix(-1 -1.224647e-16 1.224647e-16 -1 181.6875 248.4716)" class="st1" width="9.82" height="9.82"/>
<rect x="94.59" y="119.32" transform="matrix(-1 -1.224647e-16 1.224647e-16 -1 198.9974 248.4716)" class="st1" width="9.82" height="9.82"/>
<rect x="103.71" y="119.32" transform="matrix(-1 -1.224647e-16 1.224647e-16 -1 217.2431 248.4716)" class="st1" width="9.82" height="9.82"/>
<rect x="109.56" y="119.32" transform="matrix(-1 -1.224647e-16 1.224647e-16 -1 234.0853 248.4716)" class="st1" width="14.97" height="9.82"/>
<rect x="95.05" y="109.97" transform="matrix(-1 -1.224647e-16 1.224647e-16 -1 199.9331 229.7582)" class="st1" width="9.82" height="9.82"/>
<rect x="104.18" y="109.97" transform="matrix(-1 -1.224647e-16 1.224647e-16 -1 218.1788 229.7582)" class="st1" width="9.82" height="9.82"/>
<rect x="113.3" y="109.97" transform="matrix(-1 -1.224647e-16 1.224647e-16 -1 236.4244 229.7582)" class="st1" width="9.82" height="9.82"/>
<rect x="122.42" y="109.97" transform="matrix(-1 -1.224647e-16 1.224647e-16 -1 254.6701 229.7582)" class="st1" width="9.82" height="9.82"/>
<rect x="131.55" y="109.97" transform="matrix(-1 -1.224647e-16 1.224647e-16 -1 272.9157 229.7582)" class="st1" width="9.82" height="9.82"/>
<rect x="86.17" y="100.14" transform="matrix(-1 -1.224647e-16 1.224647e-16 -1 182.1553 210.109)" class="st1" width="9.82" height="9.82"/>
<rect x="95.52" y="100.14" transform="matrix(-1 -1.224647e-16 1.224647e-16 -1 200.8688 210.109)" class="st1" width="9.82" height="9.82"/>
<rect x="104.88" y="100.14" transform="matrix(-1 -1.224647e-16 1.224647e-16 -1 219.5823 210.109)" class="st1" width="9.82" height="9.82"/>
<rect x="114.24" y="100.14" transform="matrix(-1 -1.224647e-16 1.224647e-16 -1 238.2958 210.109)" class="st1" width="9.82" height="9.82"/>
<rect x="123.59" y="100.14" transform="matrix(-1 -1.224647e-16 1.224647e-16 -1 257.0093 210.109)" class="st1" width="9.82" height="9.82"/>
<rect x="132.95" y="100.14" transform="matrix(-1 -1.224647e-16 1.224647e-16 -1 275.7228 210.109)" class="st1" width="9.82" height="9.82"/>
<rect x="76.57" y="91.14" transform="matrix(-1 -1.224647e-16 1.224647e-16 -1 162.974 192.1066)" class="st1" width="9.82" height="9.82"/>
<rect x="85.7" y="91.14" transform="matrix(-1 -1.224647e-16 1.224647e-16 -1 181.2196 192.1066)" class="st1" width="9.82" height="9.82"/>
<rect x="95.05" y="91.14" transform="matrix(-1 -1.224647e-16 1.224647e-16 -1 199.9331 192.1066)" class="st1" width="9.82" height="9.82"/>
<rect x="104.41" y="91.14" transform="matrix(-1 -1.224647e-16 1.224647e-16 -1 218.6466 192.1066)" class="st1" width="9.82" height="9.82"/>
<rect x="113.77" y="91.14" transform="matrix(-1 -1.224647e-16 1.224647e-16 -1 237.3601 192.1066)" class="st1" width="9.82" height="9.82"/>
<rect x="123.12" y="91.14" transform="matrix(-1 -1.224647e-16 1.224647e-16 -1 256.0736 192.1066)" class="st1" width="9.82" height="9.82"/>
<rect x="132.48" y="91.14" transform="matrix(-1 -1.224647e-16 1.224647e-16 -1 274.7871 192.1066)" class="st1" width="9.82" height="9.82"/>
<rect x="141.84" y="91.14" transform="matrix(-1 -1.224647e-16 1.224647e-16 -1 295.8398 192.1066)" class="st1" width="12.16" height="9.82"/>
<rect x="40.32" y="72.19" transform="matrix(-1 -1.224647e-16 1.224647e-16 -1 90.4592 154.2118)" class="st2" width="9.82" height="9.82"/>
<rect x="49.44" y="72.19" transform="matrix(-1 -1.224647e-16 1.224647e-16 -1 108.7048 154.2118)" class="st2" width="9.82" height="9.82"/>
<rect x="48.6" y="81.32" transform="matrix(-1 -1.224647e-16 1.224647e-16 -1 107.0206 172.4574)" class="st2" width="9.82" height="9.82"/>
<rect x="57.49" y="81.32" transform="matrix(-1 -1.224647e-16 1.224647e-16 -1 124.7984 172.4574)" class="st2" width="9.82" height="9.82"/>
<rect x="66.38" y="81.32" transform="matrix(-1 -1.224647e-16 1.224647e-16 -1 142.5763 172.4574)" class="st2" width="9.82" height="9.82"/>
<rect x="75.26" y="81.32" transform="matrix(-1 -1.224647e-16 1.224647e-16 -1 160.3541 172.4574)" class="st2" width="9.82" height="9.82"/>
<rect x="84.15" y="81.32" transform="matrix(-1 -1.224647e-16 1.224647e-16 -1 178.1319 172.4574)" class="st2" width="9.82" height="9.82"/>
<rect x="93.04" y="81.32" transform="matrix(-1 -1.224647e-16 1.224647e-16 -1 195.9097 172.4574)" class="st2" width="9.82" height="9.82"/>
<rect x="101.93" y="81.32" transform="matrix(-1 -1.224647e-16 1.224647e-16 -1 213.6875 172.4574)" class="st2" width="9.82" height="9.82"/>
<rect x="110.82" y="81.32" transform="matrix(-1 -1.224647e-16 1.224647e-16 -1 231.4653 172.4574)" class="st2" width="9.82" height="9.82"/>
<rect x="119.71" y="81.32" transform="matrix(-1 -1.224647e-16 1.224647e-16 -1 249.2432 172.4574)" class="st2" width="9.82" height="9.82"/>
<rect x="128.6" y="81.32" transform="matrix(-1 -1.224647e-16 1.224647e-16 -1 267.021 172.4574)" class="st2" width="9.82" height="9.82"/>
<rect x="137.49" y="81.32" transform="matrix(-1 -1.224647e-16 1.224647e-16 -1 284.7988 172.4574)" class="st2" width="9.82" height="9.82"/>
<rect x="146.38" y="81.32" transform="matrix(-1 -1.224647e-16 1.224647e-16 -1 302.5766 172.4574)" class="st2" width="9.82" height="9.82"/>
<rect x="155.26" y="81.32" transform="matrix(-1 -1.224647e-16 1.224647e-16 -1 320.3544 172.4574)" class="st2" width="9.82" height="9.82"/>
<rect x="164.15" y="81.32" transform="matrix(-1 -1.224647e-16 1.224647e-16 -1 338.1323 172.4574)" class="st2" width="9.82" height="9.82"/>
<rect x="58.56" y="72.19" transform="matrix(-1 -1.224647e-16 1.224647e-16 -1 126.9505 154.2118)" class="st2" width="9.82" height="9.82"/>
<rect x="67.69" y="72.19" transform="matrix(-1 -1.224647e-16 1.224647e-16 -1 145.1962 154.2118)" class="st2" width="9.82" height="9.82"/>
<rect x="76.81" y="72.19" transform="matrix(-1 -1.224647e-16 1.224647e-16 -1 163.4418 154.2118)" class="st2" width="9.82" height="9.82"/>
<rect x="85.93" y="72.19" transform="matrix(-1 -1.224647e-16 1.224647e-16 -1 181.6875 154.2118)" class="st2" width="9.82" height="9.82"/>
<rect x="95.05" y="72.19" transform="matrix(-1 -1.224647e-16 1.224647e-16 -1 199.9331 154.2118)" class="st2" width="9.82" height="9.82"/>
<rect x="104.18" y="72.19" transform="matrix(-1 -1.224647e-16 1.224647e-16 -1 218.1788 154.2118)" class="st2" width="9.82" height="9.82"/>
<rect x="113.3" y="72.19" transform="matrix(-1 -1.224647e-16 1.224647e-16 -1 236.4244 154.2118)" class="st2" width="9.82" height="9.82"/>
<rect x="122.42" y="72.19" transform="matrix(-1 -1.224647e-16 1.224647e-16 -1 254.6701 154.2118)" class="st2" width="9.82" height="9.82"/>
<rect x="131.55" y="72.19" transform="matrix(-1 -1.224647e-16 1.224647e-16 -1 272.9157 154.2118)" class="st2" width="9.82" height="9.82"/>
<rect x="140.67" y="72.19" transform="matrix(-1 -1.224647e-16 1.224647e-16 -1 291.1614 154.2118)" class="st2" width="9.82" height="9.82"/>
<rect x="149.79" y="72.19" transform="matrix(-1 -1.224647e-16 1.224647e-16 -1 309.407 154.2118)" class="st2" width="9.82" height="9.82"/>
<rect x="158.91" y="72.19" transform="matrix(-1 -1.224647e-16 1.224647e-16 -1 327.6527 154.2118)" class="st2" width="9.82" height="9.82"/>
<rect x="168.04" y="72.19" transform="matrix(-1 -1.224647e-16 1.224647e-16 -1 345.8983 154.2118)" class="st2" width="9.82" height="9.82"/>
<rect x="177.16" y="72.19" transform="matrix(-1 -1.224647e-16 1.224647e-16 -1 364.144 154.2118)" class="st2" width="9.82" height="9.82"/>
<rect x="38.18" y="63.42" transform="matrix(-1 -1.224647e-16 1.224647e-16 -1 86.1832 136.6679)" class="st0" width="9.82" height="9.82"/>
<rect x="47.77" y="63.42" transform="matrix(-1 -1.224647e-16 1.224647e-16 -1 105.3645 136.6679)" class="st0" width="9.82" height="9.82"/>
<rect x="57.36" y="63.42" transform="matrix(-1 -1.224647e-16 1.224647e-16 -1 124.5458 136.6679)" class="st0" width="9.82" height="9.82"/>
<rect x="66.95" y="63.42" transform="matrix(-1 -1.224647e-16 1.224647e-16 -1 143.7271 136.6679)" class="st0" width="9.82" height="9.82"/>
<rect x="76.54" y="63.42" transform="matrix(-1 -1.224647e-16 1.224647e-16 -1 162.9085 136.6679)" class="st0" width="9.82" height="9.82"/>
<rect x="86.13" y="63.42" transform="matrix(-1 -1.224647e-16 1.224647e-16 -1 182.0898 136.6679)" class="st0" width="9.82" height="9.82"/>
<rect x="95.72" y="63.42" transform="matrix(-1 -1.224647e-16 1.224647e-16 -1 201.2711 136.6679)" class="st0" width="9.82" height="9.82"/>
<rect x="105.31" y="63.42" transform="matrix(-1 -1.224647e-16 1.224647e-16 -1 220.4525 136.6679)" class="st0" width="9.82" height="9.82"/>
<rect x="114.9" y="63.42" transform="matrix(-1 -1.224647e-16 1.224647e-16 -1 239.6338 136.6679)" class="st0" width="9.82" height="9.82"/>
<rect x="124.5" y="63.42" transform="matrix(-1 -1.224647e-16 1.224647e-16 -1 258.8151 136.6679)" class="st0" width="9.82" height="9.82"/>
<rect x="134.09" y="63.42" transform="matrix(-1 -1.224647e-16 1.224647e-16 -1 277.9965 136.6679)" class="st0" width="9.82" height="9.82"/>
<rect x="143.68" y="63.42" transform="matrix(-1 -1.224647e-16 1.224647e-16 -1 297.1778 136.6679)" class="st0" width="9.82" height="9.82"/>
<rect x="153.27" y="63.42" transform="matrix(-1 -1.224647e-16 1.224647e-16 -1 316.3591 136.6679)" class="st0" width="9.82" height="9.82"/>
<rect x="162.86" y="63.42" transform="matrix(-1 -1.224647e-16 1.224647e-16 -1 335.5404 136.6679)" class="st0" width="9.82" height="9.82"/>
<rect x="162.86" y="54.59" transform="matrix(-1 -1.224647e-16 1.224647e-16 -1 335.5404 118.9973)" class="st0" width="9.82" height="9.82"/>
<rect x="172.47" y="54.59" transform="matrix(-1 -1.224647e-16 1.224647e-16 -1 354.7702 118.9973)" class="st3" width="9.82" height="9.82"/>
<rect x="181.83" y="54.59" transform="matrix(-1 -1.224647e-16 1.224647e-16 -1 373.4802 118.9973)" class="st3" width="9.82" height="9.82"/>
<rect x="181.83" y="61.6" transform="matrix(-1 -1.224647e-16 1.224647e-16 -1 373.4802 133.0298)" class="st3" width="9.82" height="9.82"/>
<rect x="191.18" y="54.59" transform="matrix(-1 -1.224647e-16 1.224647e-16 -1 392.1902 118.9973)" class="st3" width="9.82" height="9.82"/>
<rect x="191.18" y="61.6" transform="matrix(-1 -1.224647e-16 1.224647e-16 -1 392.1902 133.0298)" class="st3" width="9.82" height="9.82"/>
<rect x="199.76" y="61.6" transform="matrix(-1 -1.224647e-16 1.224647e-16 -1 409.3411 133.0298)" class="st3" width="9.82" height="9.82"/>
<rect x="199.76" y="71.48" transform="matrix(-1 -1.224647e-16 1.224647e-16 -1 409.3411 152.7793)" class="st3" width="9.82" height="9.82"/>
<rect x="199.76" y="81.35" transform="matrix(-1 -1.224647e-16 1.224647e-16 -1 409.3411 172.5288)" class="st3" width="9.82" height="9.82"/>
<rect x="190.66" y="81.35" transform="matrix(-1 -1.224647e-16 1.224647e-16 -1 391.1508 172.5288)" class="st3" width="9.82" height="9.82"/>
<rect x="180.69" y="81.35" transform="matrix(-1 -1.224647e-16 1.224647e-16 -1 371.2083 172.5288)" class="st3" width="9.82" height="9.82"/>
<rect x="180.69" y="90.45" transform="matrix(-1 -1.224647e-16 1.224647e-16 -1 371.2083 190.7191)" class="st3" width="9.82" height="9.82"/>
<rect x="190.31" y="90.45" transform="matrix(-1 -1.224647e-16 1.224647e-16 -1 390.438 190.7191)" class="st3" width="9.82" height="9.82"/>
<rect x="199.78" y="86.24" transform="matrix(-1 -1.224647e-16 1.224647e-16 -1 409.3913 182.3032)" class="st3" width="9.82" height="9.82"/>
<rect x="171.6" y="90.45" transform="matrix(-1 -1.224647e-16 1.224647e-16 -1 353.018 190.7191)" class="st3" width="9.82" height="9.82"/>
<rect x="190.92" y="71.48" transform="matrix(-1 -1.224647e-16 1.224647e-16 -1 391.6706 152.7793)" class="st3" width="9.82" height="9.82"/>
<rect x="172.08" y="45.36" transform="matrix(-1 -1.224647e-16 1.224647e-16 -1 353.9906 100.5471)" class="st0" width="9.82" height="9.82"/>
<rect x="181.18" y="45.36" transform="matrix(-1 -1.224647e-16 1.224647e-16 -1 372.1809 100.5471)" class="st0" width="9.82" height="9.82"/>
<rect x="190.27" y="45.36" transform="matrix(-1 -1.224647e-16 1.224647e-16 -1 390.3712 100.5471)" class="st0" width="9.82" height="9.82"/>
<rect x="199.76" y="54.85" transform="matrix(-1 -1.224647e-16 1.224647e-16 -1 409.3411 119.517)" class="st0" width="9.82" height="9.82"/>
<rect x="209.37" y="64.46" transform="matrix(-1 -1.224647e-16 1.224647e-16 -1 428.5709 138.7468)" class="st0" width="9.82" height="9.82"/>
<rect x="209.37" y="74.08" transform="matrix(-1 -1.224647e-16 1.224647e-16 -1 428.5709 157.9765)" class="st0" width="9.82" height="9.82"/>
<rect x="209.37" y="83.69" transform="matrix(-1 -1.224647e-16 1.224647e-16 -1 428.5709 177.2063)" class="st0" width="9.82" height="9.82"/>
<rect x="199.89" y="92.4" transform="matrix(-1 -1.224647e-16 1.224647e-16 -1 409.601 194.617)" class="st0" width="9.82" height="9.82"/>
<rect x="190.53" y="99.67" transform="matrix(-1 -1.224647e-16 1.224647e-16 -1 390.891 209.1693)" class="st0" width="9.82" height="9.82"/>
<rect x="180.92" y="99.67" transform="matrix(-1 -1.224647e-16 1.224647e-16 -1 371.6612 209.1693)" class="st0" width="9.82" height="9.82"/>
<rect x="171.3" y="99.67" transform="matrix(-1 -1.224647e-16 1.224647e-16 -1 352.4315 209.1693)" class="st0" width="9.82" height="9.82"/>
<rect x="172.45" y="63.42" transform="matrix(-1 -1.224647e-16 1.224647e-16 -1 354.7218 136.6679)" class="st0" width="9.82" height="9.82"/>
<rect x="95.29" y="137.81" class="st0" width="9.82" height="9.82"/>
<rect x="104.88" y="166.11" class="st0" width="9.82" height="9.82"/>
<rect x="104.88" y="175.47" class="st0" width="9.82" height="9.82"/>
<rect x="104.88" y="184.83" class="st0" width="9.82" height="9.82"/>
<rect x="104.88" y="194.18" class="st0" width="9.82" height="9.82"/>
<rect x="95.29" y="194.18" class="st0" width="9.82" height="9.82"/>
<rect x="85.7" y="194.18" class="st0" width="9.82" height="9.82"/>
<rect x="76.11" y="194.18" class="st0" width="9.82" height="9.82"/>
<rect x="133.65" y="194.18" class="st0" width="9.82" height="9.82"/>
<rect x="124.06" y="194.18" class="st0" width="9.82" height="9.82"/>
<rect x="114.47" y="194.18" class="st0" width="9.82" height="9.82"/>
<rect x="171.43" y="81.08" class="st0" width="9.82" height="9.82"/>
<rect x="152.6" y="91.07" class="st1" width="9.82" height="9.82"/>
<rect x="57.74" y="100.38" transform="matrix(-1 -1.224647e-16 1.224647e-16 -1 125.3131 210.5862)" class="st0" width="9.82" height="9.82"/>
<rect x="48.5" y="91.14" transform="matrix(-1 -1.224647e-16 1.224647e-16 -1 106.8335 192.1066)" class="st0" width="9.82" height="9.82"/>
<rect x="124.29" y="118.63" class="st4" width="9.82" height="9.82"/>
<rect x="133.88" y="109.5" class="st4" width="9.82" height="9.82"/>
<rect x="81.95" y="100.61" class="st5" width="9.82" height="9.82"/>
<rect x="102.77" y="112.08" class="st5" width="9.82" height="9.82"/>
<rect x="114.47" y="96.87" class="st5" width="9.82" height="9.82"/>
<rect x="194.1" y="73.1" class="st6" width="9.82" height="9.82"/>
<rect x="76.46" y="119.09" transform="matrix(-1 -1.224647e-16 1.224647e-16 -1 162.7401 248.0132)" class="st0" width="9.82" height="9.82"/>
<rect x="67.45" y="110.09" transform="matrix(-1 -1.224647e-16 1.224647e-16 -1 144.7283 230.0014)" class="st0" width="9.82" height="9.82"/>
<rect x="104.88" y="128.45" class="st4" width="9.82" height="9.82"/>
<rect x="114.7" y="128.45" class="st4" width="9.82" height="9.82"/>
<rect x="95.29" y="128.45" class="st4" width="9.82" height="9.82"/>
<rect x="86.05" y="128.68" transform="matrix(-1 -1.224647e-16 1.224647e-16 -1 181.9214 267.1945)" class="st0" width="9.82" height="9.82"/>
<rect x="142.89" y="100.03" class="st4" width="9.82" height="9.82"/>
<rect x="124.29" y="128.22" class="st0" width="9.82" height="9.82"/>
<rect x="133.88" y="118.63" class="st0" width="9.82" height="9.82"/>
<rect x="142.89" y="109.62" class="st0" width="9.82" height="9.82"/>
<rect x="152.6" y="99.91" class="st0" width="9.82" height="9.82"/>
<rect x="161.84" y="90.67" class="st0" width="9.82" height="9.82"/>
<rect x="181.02" y="71.73" class="st0" width="9.82" height="9.82"/>
<rect x="38.91" y="81.55" transform="matrix(-1 -1.224647e-16 1.224647e-16 -1 87.6522 172.9253)" class="st0" width="9.82" height="9.82"/>
<rect x="30.73" y="72.19" transform="matrix(-1 -1.224647e-16 1.224647e-16 -1 71.2779 154.2118)" class="st0" width="9.82" height="9.82"/>
</svg>
