<?xml version="1.0" encoding="utf-8"?>
<!-- Generator: Adobe Illustrator 30.0.0, SVG Export Plug-In . SVG Version: 9.03 Build 0)  -->
<svg version="1.1" id="Layer_1" xmlns="http://www.w3.org/2000/svg" xmlns:xlink="http://www.w3.org/1999/xlink" x="0px" y="0px"
	 viewBox="0 0 240 240" style="enable-background:new 0 0 240 240;" xml:space="preserve">
<style type="text/css">
	.st0{fill:#C86100;}
	.st1{fill:#FF9700;}
	.st2{fill:#8C3F00;}
	.st3{fill:#FDDEA7;}
	.st4{fill:#FFD300;}
	.st5{fill:#06995A;}
	.st6{fill:#D50E48;}
	.st7{fill:#FD2A5C;}
</style>
<rect x="63.08" y="196.77" class="st0" width="8.34" height="8.34"/>
<rect x="54.74" y="196.77" class="st0" width="8.34" height="8.34"/>
<rect x="46.4" y="196.77" class="st0" width="8.34" height="8.34"/>
<rect x="38.06" y="196.77" class="st0" width="8.34" height="8.34"/>
<rect x="29.72" y="196.77" class="st0" width="8.34" height="8.34"/>
<rect x="21.38" y="196.77" class="st0" width="8.34" height="8.34"/>
<rect x="113.11" y="188.43" class="st0" width="8.36" height="8.34"/>
<rect x="104.77" y="188.43" class="st0" width="8.34" height="8.34"/>
<rect x="96.43" y="188.43" class="st0" width="8.34" height="8.34"/>
<rect x="88.09" y="188.43" class="st0" width="8.34" height="8.34"/>
<rect x="79.75" y="188.43" class="st0" width="8.34" height="8.34"/>
<rect x="71.42" y="188.43" class="st0" width="8.34" height="8.34"/>
<rect x="63.08" y="188.43" class="st0" width="8.34" height="8.34"/>
<rect x="54.74" y="188.43" class="st1" width="8.34" height="8.34"/>
<rect x="46.4" y="188.43" class="st1" width="8.34" height="8.34"/>
<rect x="38.06" y="188.43" class="st1" width="8.34" height="8.34"/>
<rect x="29.72" y="188.43" class="st1" width="8.34" height="8.34"/>
<rect x="21.38" y="188.43" class="st1" width="8.34" height="8.34"/>
<rect x="196.53" y="180.09" class="st2" width="8.34" height="8.34"/>
<rect x="188.19" y="180.09" class="st2" width="8.34" height="8.34"/>
<rect x="179.85" y="180.09" class="st2" width="8.34" height="8.34"/>
<rect x="171.51" y="180.09" class="st0" width="8.34" height="8.34"/>
<rect x="163.17" y="180.09" class="st0" width="8.34" height="8.34"/>
<rect x="154.83" y="180.09" class="st0" width="8.34" height="8.34"/>
<rect x="146.49" y="180.09" class="st0" width="8.34" height="8.34"/>
<rect x="138.15" y="180.09" class="st0" width="8.34" height="8.34"/>
<rect x="129.81" y="180.09" class="st0" width="8.34" height="8.34"/>
<rect x="121.47" y="180.09" class="st0" width="8.34" height="8.34"/>
<rect x="113.11" y="180.09" class="st1" width="8.36" height="8.34"/>
<rect x="104.77" y="180.09" class="st1" width="8.34" height="8.34"/>
<rect x="96.43" y="180.09" class="st1" width="8.34" height="8.34"/>
<rect x="88.09" y="180.09" class="st1" width="8.34" height="8.34"/>
<rect x="79.75" y="180.09" class="st1" width="8.34" height="8.34"/>
<rect x="71.42" y="180.09" class="st1" width="8.34" height="8.34"/>
<rect x="63.08" y="180.09" class="st1" width="8.34" height="8.34"/>
<rect x="54.74" y="180.09" class="st3" width="8.34" height="8.34"/>
<rect x="46.4" y="180.09" class="st3" width="8.34" height="8.34"/>
<rect x="38.06" y="180.09" class="st3" width="8.34" height="8.34"/>
<rect x="29.72" y="180.09" class="st4" width="8.34" height="8.34"/>
<rect x="204.87" y="171.75" class="st2" width="8.34" height="8.34"/>
<rect x="196.53" y="171.75" class="st2" width="8.34" height="8.34"/>
<rect x="188.19" y="171.75" class="st2" width="8.34" height="8.34"/>
<rect x="179.85" y="171.75" class="st2" width="8.34" height="8.34"/>
<rect x="171.51" y="171.75" class="st1" width="8.34" height="8.34"/>
<rect x="163.17" y="171.75" class="st1" width="8.34" height="8.34"/>
<rect x="154.83" y="171.75" class="st1" width="8.34" height="8.34"/>
<rect x="146.49" y="171.75" class="st1" width="8.34" height="8.34"/>
<rect x="138.15" y="171.75" class="st1" width="8.34" height="8.34"/>
<rect x="129.81" y="171.75" class="st1" width="8.34" height="8.34"/>
<rect x="121.47" y="171.75" class="st1" width="8.34" height="8.34"/>
<rect x="113.11" y="171.75" class="st3" width="8.36" height="8.34"/>
<rect x="104.77" y="171.75" class="st3" width="8.34" height="8.34"/>
<rect x="96.43" y="171.75" class="st3" width="8.34" height="8.34"/>
<rect x="88.09" y="171.75" class="st3" width="8.34" height="8.34"/>
<rect x="79.75" y="171.75" class="st5" width="8.34" height="8.34"/>
<rect x="71.42" y="171.75" class="st3" width="8.34" height="8.34"/>
<rect x="63.08" y="171.75" class="st6" width="8.34" height="8.34"/>
<rect x="54.74" y="171.75" class="st6" width="8.34" height="8.34"/>
<rect x="46.4" y="171.75" class="st6" width="8.34" height="8.34"/>
<rect x="38.06" y="171.75" class="st3" width="8.34" height="8.34"/>
<rect x="204.87" y="163.41" class="st2" width="8.34" height="8.34"/>
<rect x="196.53" y="163.41" class="st2" width="8.34" height="8.34"/>
<rect x="188.19" y="163.41" class="st2" width="8.34" height="8.34"/>
<rect x="179.85" y="163.41" class="st0" width="8.34" height="8.34"/>
<rect x="171.51" y="163.41" class="st3" width="8.34" height="8.34"/>
<rect x="163.17" y="163.41" class="st3" width="8.34" height="8.34"/>
<rect x="154.83" y="163.41" class="st3" width="8.34" height="8.34"/>
<rect x="146.49" y="163.41" class="st4" width="8.34" height="8.34"/>
<rect x="138.15" y="163.41" class="st3" width="8.34" height="8.34"/>
<rect x="129.81" y="163.41" class="st3" width="8.34" height="8.34"/>
<rect x="121.47" y="163.41" class="st3" width="8.34" height="8.34"/>
<rect x="113.11" y="163.41" class="st3" width="8.36" height="8.34"/>
<rect x="104.77" y="163.41" class="st5" width="8.34" height="8.34"/>
<rect x="96.43" y="163.41" class="st3" width="8.34" height="8.34"/>
<rect x="88.09" y="163.41" class="st3" width="8.34" height="8.34"/>
<rect x="79.75" y="163.41" class="st3" width="8.34" height="8.34"/>
<rect x="71.42" y="163.41" class="st3" width="8.34" height="8.34"/>
<rect x="63.08" y="163.41" class="st6" width="8.34" height="8.34"/>
<rect x="54.74" y="163.41" class="st7" width="8.34" height="8.34"/>
<rect x="46.4" y="163.41" class="st7" width="8.34" height="8.34"/>
<rect x="204.87" y="155.07" class="st2" width="8.34" height="8.34"/>
<rect x="196.53" y="155.07" class="st0" width="8.34" height="8.34"/>
<rect x="188.19" y="155.07" class="st0" width="8.34" height="8.34"/>
<rect x="179.85" y="155.07" class="st0" width="8.34" height="8.34"/>
<rect x="171.51" y="155.07" class="st3" width="8.34" height="8.34"/>
<rect x="163.17" y="155.07" class="st6" width="8.34" height="8.34"/>
<rect x="154.83" y="155.07" class="st3" width="8.34" height="8.34"/>
<rect x="146.49" y="155.07" class="st3" width="8.34" height="8.34"/>
<rect x="138.15" y="155.07" class="st3" width="8.34" height="8.34"/>
<rect x="129.81" y="155.07" class="st3" width="8.34" height="8.34"/>
<rect x="121.47" y="155.07" class="st3" width="8.34" height="8.34"/>
<rect x="113.11" y="155.07" class="st3" width="8.36" height="8.34"/>
<rect x="104.77" y="155.07" class="st3" width="8.34" height="8.34"/>
<rect x="96.43" y="155.07" class="st3" width="8.34" height="8.34"/>
<rect x="88.09" y="155.07" class="st6" width="8.34" height="8.34"/>
<rect x="79.75" y="155.07" class="st6" width="8.34" height="8.34"/>
<rect x="71.42" y="155.07" class="st3" width="8.34" height="8.34"/>
<rect x="63.08" y="155.07" class="st3" width="8.34" height="8.34"/>
<rect x="54.74" y="155.07" class="st3" width="8.34" height="8.34"/>
<rect x="46.4" y="155.07" class="st3" width="8.34" height="8.34"/>
<rect x="204.87" y="146.73" class="st2" width="8.34" height="8.34"/>
<rect x="196.53" y="146.73" class="st0" width="8.34" height="8.34"/>
<rect x="188.19" y="146.73" class="st1" width="8.34" height="8.34"/>
<rect x="179.85" y="146.73" class="st1" width="8.34" height="8.34"/>
<rect x="171.51" y="146.73" class="st3" width="8.34" height="8.34"/>
<rect x="163.17" y="146.73" class="st7" width="8.34" height="8.34"/>
<rect x="154.83" y="146.73" class="st3" width="8.34" height="8.34"/>
<rect x="146.49" y="146.73" class="st3" width="8.34" height="8.34"/>
<rect x="138.15" y="146.73" class="st6" width="8.34" height="8.34"/>
<rect x="129.81" y="146.73" class="st6" width="8.34" height="8.34"/>
<rect x="121.47" y="146.73" class="st6" width="8.34" height="8.34"/>
<rect x="113.11" y="146.73" class="st3" width="8.36" height="8.34"/>
<rect x="104.77" y="146.73" class="st4" width="8.34" height="8.34"/>
<rect x="96.43" y="146.73" class="st3" width="8.34" height="8.34"/>
<rect x="88.09" y="146.73" class="st6" width="8.34" height="8.34"/>
<rect x="79.75" y="146.73" class="st7" width="8.34" height="8.34"/>
<rect x="71.42" y="146.73" class="st3" width="8.34" height="8.34"/>
<rect x="63.08" y="146.73" class="st5" width="8.34" height="8.34"/>
<rect x="54.74" y="146.73" class="st3" width="8.34" height="8.34"/>
<rect x="204.87" y="138.39" class="st2" width="8.34" height="8.34"/>
<rect x="196.53" y="138.39" class="st0" width="8.34" height="8.34"/>
<rect x="188.19" y="138.39" class="st1" width="8.34" height="8.34"/>
<rect x="179.85" y="138.39" class="st1" width="8.34" height="8.34"/>
<rect x="171.51" y="138.39" class="st3" width="8.34" height="8.34"/>
<rect x="163.17" y="138.39" class="st3" width="8.34" height="8.34"/>
<rect x="154.83" y="138.39" class="st3" width="8.34" height="8.34"/>
<rect x="146.49" y="138.39" class="st6" width="8.34" height="8.34"/>
<rect x="138.15" y="138.39" class="st6" width="8.34" height="8.34"/>
<rect x="129.81" y="138.39" class="st7" width="8.34" height="8.34"/>
<rect x="121.47" y="138.39" class="st7" width="8.34" height="8.34"/>
<rect x="113.11" y="138.39" class="st3" width="8.36" height="8.34"/>
<rect x="104.77" y="138.39" class="st3" width="8.34" height="8.34"/>
<rect x="96.43" y="138.39" class="st3" width="8.34" height="8.34"/>
<rect x="88.09" y="138.39" class="st6" width="8.34" height="8.34"/>
<rect x="79.75" y="138.39" class="st7" width="8.34" height="8.34"/>
<rect x="71.42" y="138.39" class="st3" width="8.34" height="8.34"/>
<rect x="63.08" y="138.39" class="st3" width="8.34" height="8.34"/>
<rect x="204.87" y="130.05" class="st2" width="8.34" height="8.34"/>
<rect x="196.53" y="130.05" class="st0" width="8.34" height="8.34"/>
<rect x="188.19" y="130.05" class="st1" width="8.34" height="8.34"/>
<rect x="179.85" y="130.05" class="st1" width="8.34" height="8.34"/>
<rect x="171.51" y="130.05" class="st3" width="8.34" height="8.34"/>
<rect x="163.17" y="130.05" class="st3" width="8.34" height="8.34"/>
<rect x="154.83" y="130.05" class="st3" width="8.34" height="8.34"/>
<rect x="146.49" y="130.05" class="st3" width="8.34" height="8.34"/>
<rect x="138.15" y="130.05" class="st7" width="8.34" height="8.34"/>
<rect x="129.81" y="130.05" class="st7" width="8.34" height="8.34"/>
<rect x="121.47" y="130.05" class="st3" width="8.34" height="8.34"/>
<rect x="113.11" y="130.05" class="st3" width="8.36" height="8.34"/>
<rect x="104.77" y="130.05" class="st3" width="8.34" height="8.34"/>
<rect x="96.43" y="130.05" class="st3" width="8.34" height="8.34"/>
<rect x="88.09" y="130.05" class="st3" width="8.34" height="8.34"/>
<rect x="79.75" y="130.05" class="st3" width="8.34" height="8.34"/>
<rect x="71.42" y="130.05" class="st3" width="8.34" height="8.34"/>
<rect x="204.87" y="121.71" class="st2" width="8.34" height="8.34"/>
<rect x="196.53" y="121.71" class="st0" width="8.34" height="8.34"/>
<rect x="188.19" y="121.71" class="st1" width="8.34" height="8.34"/>
<rect x="179.85" y="121.71" class="st1" width="8.34" height="8.34"/>
<rect x="171.51" y="121.71" class="st3" width="8.34" height="8.34"/>
<rect x="163.17" y="121.71" class="st3" width="8.34" height="8.34"/>
<rect x="154.83" y="121.71" class="st3" width="8.34" height="8.34"/>
<rect x="146.49" y="121.71" class="st3" width="8.34" height="8.34"/>
<rect x="138.15" y="121.71" class="st3" width="8.34" height="8.34"/>
<rect x="129.81" y="121.71" class="st4" width="8.34" height="8.34"/>
<rect x="121.47" y="121.71" class="st3" width="8.34" height="8.34"/>
<rect x="113.11" y="121.71" class="st3" width="8.36" height="8.34"/>
<rect x="104.77" y="121.71" class="st5" width="8.34" height="8.34"/>
<rect x="96.43" y="121.71" class="st3" width="8.34" height="8.34"/>
<rect x="88.09" y="121.71" class="st4" width="8.34" height="8.34"/>
<rect x="79.75" y="121.71" class="st3" width="8.34" height="8.34"/>
<rect x="204.87" y="113.37" class="st2" width="8.34" height="8.34"/>
<rect x="196.53" y="113.37" class="st0" width="8.34" height="8.34"/>
<rect x="188.19" y="113.37" class="st1" width="8.34" height="8.34"/>
<rect x="179.85" y="113.37" class="st1" width="8.34" height="8.34"/>
<rect x="171.51" y="113.37" class="st1" width="8.34" height="8.34"/>
<rect x="163.17" y="113.37" class="st3" width="8.34" height="8.34"/>
<rect x="154.83" y="113.37" class="st5" width="8.34" height="8.34"/>
<rect x="146.49" y="113.37" class="st3" width="8.34" height="8.34"/>
<rect x="138.15" y="113.37" class="st3" width="8.34" height="8.34"/>
<rect x="129.81" y="113.37" class="st3" width="8.34" height="8.34"/>
<rect x="121.47" y="113.37" class="st3" width="8.34" height="8.34"/>
<rect x="113.11" y="113.37" class="st3" width="8.36" height="8.34"/>
<rect x="104.77" y="113.37" class="st3" width="8.34" height="8.34"/>
<rect x="96.43" y="113.37" class="st3" width="8.34" height="8.34"/>
<rect x="88.09" y="113.37" class="st3" width="8.34" height="8.34"/>
<rect x="196.53" y="105.03" class="st2" width="8.34" height="8.34"/>
<rect x="188.19" y="105.03" class="st0" width="8.34" height="8.34"/>
<rect x="179.85" y="105.03" class="st1" width="8.34" height="8.34"/>
<rect x="171.51" y="105.03" class="st1" width="8.34" height="8.34"/>
<rect x="163.17" y="105.03" class="st3" width="8.34" height="8.34"/>
<rect x="154.83" y="105.03" class="st3" width="8.34" height="8.34"/>
<rect x="146.49" y="105.03" class="st3" width="8.34" height="8.34"/>
<rect x="138.15" y="105.03" class="st6" width="8.34" height="8.34"/>
<rect x="129.81" y="105.03" class="st6" width="8.34" height="8.34"/>
<rect x="121.47" y="105.03" class="st6" width="8.34" height="8.34"/>
<rect x="113.11" y="105.03" class="st3" width="8.36" height="8.34"/>
<rect x="104.77" y="105.03" class="st4" width="8.34" height="8.34"/>
<rect x="96.43" y="105.03" class="st3" width="8.34" height="8.34"/>
<rect x="196.53" y="96.69" class="st2" width="8.34" height="8.34"/>
<rect x="188.19" y="96.69" class="st0" width="8.34" height="8.34"/>
<rect x="179.85" y="96.69" class="st1" width="8.34" height="8.34"/>
<rect x="171.51" y="96.69" class="st1" width="8.34" height="8.34"/>
<rect x="163.17" y="96.69" class="st1" width="8.34" height="8.34"/>
<rect x="154.83" y="96.69" class="st3" width="8.34" height="8.34"/>
<rect x="146.49" y="96.69" class="st3" width="8.34" height="8.34"/>
<rect x="138.15" y="96.69" class="st6" width="8.34" height="8.34"/>
<rect x="129.81" y="96.69" class="st7" width="8.34" height="8.34"/>
<rect x="121.47" y="96.69" class="st7" width="8.34" height="8.34"/>
<rect x="113.11" y="96.69" class="st3" width="8.36" height="8.34"/>
<rect x="104.77" y="96.69" class="st3" width="8.34" height="8.34"/>
<rect x="196.53" y="88.35" class="st2" width="8.34" height="8.34"/>
<rect x="188.19" y="88.35" class="st0" width="8.34" height="8.34"/>
<rect x="179.85" y="88.35" class="st1" width="8.34" height="8.34"/>
<rect x="171.51" y="88.35" class="st1" width="8.34" height="8.34"/>
<rect x="163.17" y="88.35" class="st1" width="8.34" height="8.34"/>
<rect x="154.83" y="88.35" class="st3" width="8.34" height="8.34"/>
<rect x="146.49" y="88.35" class="st3" width="8.34" height="8.34"/>
<rect x="138.15" y="88.35" class="st3" width="8.34" height="8.34"/>
<rect x="129.81" y="88.35" class="st7" width="8.34" height="8.34"/>
<rect x="121.47" y="88.35" class="st3" width="8.34" height="8.34"/>
<rect x="113.11" y="88.35" class="st3" width="8.36" height="8.34"/>
<rect x="188.19" y="79.99" class="st2" width="8.34" height="8.36"/>
<rect x="179.85" y="79.99" class="st0" width="8.34" height="8.36"/>
<rect x="171.51" y="79.99" class="st1" width="8.34" height="8.36"/>
<rect x="163.17" y="79.99" class="st1" width="8.34" height="8.36"/>
<rect x="154.83" y="79.99" class="st1" width="8.34" height="8.36"/>
<rect x="146.49" y="79.99" class="st3" width="8.34" height="8.36"/>
<rect x="138.15" y="79.99" class="st3" width="8.34" height="8.36"/>
<rect x="129.81" y="79.99" class="st3" width="8.34" height="8.36"/>
<rect x="188.19" y="71.65" class="st2" width="8.34" height="8.34"/>
<rect x="179.85" y="71.65" class="st0" width="8.34" height="8.34"/>
<rect x="171.51" y="71.65" class="st1" width="8.34" height="8.34"/>
<rect x="163.17" y="71.65" class="st1" width="8.34" height="8.34"/>
<rect x="154.83" y="71.65" class="st1" width="8.34" height="8.34"/>
<rect x="146.49" y="71.65" class="st1" width="8.34" height="8.34"/>
<rect x="138.15" y="71.65" class="st3" width="8.34" height="8.34"/>
<rect x="179.85" y="63.31" class="st2" width="8.34" height="8.34"/>
<rect x="171.51" y="63.31" class="st0" width="8.34" height="8.34"/>
<rect x="163.17" y="63.31" class="st1" width="8.34" height="8.34"/>
<rect x="154.83" y="63.31" class="st1" width="8.34" height="8.34"/>
<rect x="146.49" y="63.31" class="st1" width="8.34" height="8.34"/>
<rect x="179.85" y="54.97" class="st2" width="8.34" height="8.34"/>
<rect x="171.51" y="54.97" class="st0" width="8.34" height="8.34"/>
<rect x="163.17" y="54.97" class="st1" width="8.34" height="8.34"/>
<rect x="154.83" y="54.97" class="st1" width="8.34" height="8.34"/>
<rect x="146.49" y="54.97" class="st1" width="8.34" height="8.34"/>
<rect x="171.51" y="46.63" class="st0" width="8.34" height="8.34"/>
<rect x="163.17" y="46.63" class="st1" width="8.34" height="8.34"/>
<rect x="154.83" y="46.63" class="st1" width="8.34" height="8.34"/>
<rect x="146.49" y="46.63" class="st1" width="8.34" height="8.34"/>
<rect x="163.17" y="38.29" class="st0" width="8.34" height="8.34"/>
<rect x="154.83" y="38.29" class="st1" width="8.34" height="8.34"/>
</svg>
