<?xml version="1.0" encoding="utf-8"?>
<!-- Generator: Adobe Illustrator 30.0.0, SVG Export Plug-In . SVG Version: 9.03 Build 0)  -->
<svg version="1.1" id="Layer_1" xmlns="http://www.w3.org/2000/svg" xmlns:xlink="http://www.w3.org/1999/xlink" x="0px" y="0px"
	 viewBox="0 0 240 240" style="enable-background:new 0 0 240 240;" xml:space="preserve">
<style type="text/css">
	.st0{fill:#1C1A18;}
	.st1{fill:#737373;}
	.st2{fill:#353535;}
	.st3{fill:#919191;}
	.st4{fill:#00FFA6;}
	.st5{fill:#00A1FF;}
	.st6{fill:#B93EFF;}
	.st7{fill:#FF3C51;}
	.st8{fill:#FF9C1E;}
	.st9{fill:#FFF46D;}
</style>
<rect x="176.25" y="178.2" class="st0" width="8.31" height="8.31"/>
<rect x="176.25" y="169.89" class="st0" width="8.31" height="8.31"/>
<rect x="176.25" y="161.57" class="st0" width="8.31" height="8.31"/>
<rect x="176.25" y="153.26" class="st0" width="8.31" height="8.31"/>
<rect x="176.25" y="144.94" class="st0" width="8.31" height="8.31"/>
<rect x="176.25" y="136.63" class="st0" width="8.31" height="8.31"/>
<rect x="176.25" y="128.31" class="st0" width="8.31" height="8.31"/>
<rect x="176.25" y="120" class="st0" width="8.31" height="8.31"/>
<rect x="176.25" y="111.69" class="st0" width="8.31" height="8.31"/>
<rect x="176.25" y="103.37" class="st0" width="8.31" height="8.31"/>
<rect x="167.94" y="186.51" class="st0" width="8.31" height="8.31"/>
<rect x="167.94" y="178.2" class="st1" width="8.31" height="8.31"/>
<rect x="167.94" y="169.89" class="st1" width="8.31" height="8.31"/>
<rect x="167.94" y="161.57" class="st1" width="8.31" height="8.31"/>
<rect x="167.94" y="153.26" class="st1" width="8.31" height="8.31"/>
<rect x="167.94" y="144.94" class="st1" width="8.31" height="8.31"/>
<rect x="167.94" y="136.63" class="st1" width="8.31" height="8.31"/>
<rect x="167.94" y="128.31" class="st1" width="8.31" height="8.31"/>
<rect x="167.94" y="120" class="st1" width="8.31" height="8.31"/>
<rect x="167.94" y="111.69" class="st1" width="8.31" height="8.31"/>
<rect x="167.94" y="103.37" class="st1" width="8.31" height="8.31"/>
<rect x="167.94" y="95.06" class="st0" width="8.31" height="8.31"/>
<rect x="159.62" y="194.83" class="st0" width="8.31" height="8.31"/>
<rect x="159.62" y="186.51" class="st2" width="8.31" height="8.31"/>
<rect x="159.62" y="178.2" class="st1" width="8.31" height="8.31"/>
<rect x="159.62" y="169.89" class="st0" width="8.31" height="8.31"/>
<rect x="159.62" y="161.57" class="st0" width="8.31" height="8.31"/>
<rect x="159.62" y="153.26" class="st0" width="8.31" height="8.31"/>
<rect x="159.62" y="144.94" class="st0" width="8.31" height="8.31"/>
<rect x="159.62" y="136.63" class="st0" width="8.31" height="8.31"/>
<rect x="159.62" y="128.31" class="st0" width="8.31" height="8.31"/>
<rect x="159.62" y="120" class="st0" width="8.31" height="8.31"/>
<rect x="159.62" y="111.69" class="st0" width="8.31" height="8.31"/>
<rect x="159.62" y="103.37" class="st1" width="8.31" height="8.31"/>
<rect x="159.62" y="95.06" class="st3" width="8.31" height="8.31"/>
<rect x="159.62" y="86.74" class="st0" width="8.31" height="8.31"/>
<rect x="151.31" y="194.83" class="st0" width="8.31" height="8.31"/>
<rect x="151.31" y="186.51" class="st2" width="8.31" height="8.31"/>
<rect x="151.31" y="178.2" class="st2" width="8.31" height="8.31"/>
<rect x="151.31" y="169.89" class="st0" width="8.31" height="8.31"/>
<rect x="151.31" y="161.57" class="st4" width="8.31" height="8.31"/>
<rect x="151.31" y="153.26" class="st5" width="8.31" height="8.31"/>
<rect x="151.31" y="144.94" class="st6" width="8.31" height="8.31"/>
<rect x="151.31" y="136.63" class="st7" width="8.31" height="8.31"/>
<rect x="151.31" y="128.31" class="st8" width="8.31" height="8.31"/>
<rect x="151.31" y="120" class="st9" width="8.31" height="8.31"/>
<rect x="151.31" y="111.69" class="st0" width="8.31" height="8.31"/>
<rect x="151.31" y="103.37" class="st1" width="8.31" height="8.31"/>
<rect x="151.31" y="95.06" class="st3" width="8.31" height="8.31"/>
<rect x="151.31" y="86.74" class="st0" width="8.31" height="8.31"/>
<rect x="151.31" y="36.86" class="st0" width="8.31" height="8.31"/>
<rect x="142.99" y="194.83" class="st0" width="8.31" height="8.31"/>
<rect x="142.99" y="186.51" class="st2" width="8.31" height="8.31"/>
<rect x="142.99" y="178.2" class="st2" width="8.31" height="8.31"/>
<rect x="142.99" y="169.89" class="st0" width="8.31" height="8.31"/>
<rect x="142.99" y="161.57" class="st4" width="8.31" height="8.31"/>
<rect x="142.99" y="153.26" class="st5" width="8.31" height="8.31"/>
<rect x="142.99" y="144.94" class="st6" width="8.31" height="8.31"/>
<rect x="142.99" y="136.63" class="st7" width="8.31" height="8.31"/>
<rect x="142.99" y="128.31" class="st8" width="8.31" height="8.31"/>
<rect x="142.99" y="120" class="st9" width="8.31" height="8.31"/>
<rect x="142.99" y="111.69" class="st0" width="8.31" height="8.31"/>
<rect x="142.99" y="103.37" class="st1" width="8.31" height="8.31"/>
<rect x="142.99" y="95.06" class="st3" width="8.31" height="8.31"/>
<rect x="142.99" y="86.74" class="st0" width="8.31" height="8.31"/>
<rect x="142.99" y="53.49" class="st0" width="8.31" height="8.31"/>
<rect x="142.99" y="45.17" class="st0" width="8.31" height="8.31"/>
<rect x="134.68" y="194.83" class="st0" width="8.31" height="8.31"/>
<rect x="134.68" y="186.51" class="st2" width="8.31" height="8.31"/>
<rect x="134.68" y="178.2" class="st2" width="8.31" height="8.31"/>
<rect x="134.68" y="169.89" class="st0" width="8.31" height="8.31"/>
<rect x="134.68" y="161.57" class="st4" width="8.31" height="8.31"/>
<rect x="134.68" y="153.26" class="st5" width="8.31" height="8.31"/>
<rect x="134.68" y="144.94" class="st6" width="8.31" height="8.31"/>
<rect x="134.68" y="136.63" class="st7" width="8.31" height="8.31"/>
<rect x="134.68" y="128.31" class="st8" width="8.31" height="8.31"/>
<rect x="134.68" y="120" class="st9" width="8.31" height="8.31"/>
<rect x="134.68" y="111.69" class="st0" width="8.31" height="8.31"/>
<rect x="134.68" y="103.37" class="st1" width="8.31" height="8.31"/>
<rect x="134.68" y="95.06" class="st3" width="8.31" height="8.31"/>
<rect x="134.68" y="86.74" class="st0" width="8.31" height="8.31"/>
<rect x="134.68" y="61.8" class="st0" width="8.31" height="8.31"/>
<rect x="126.37" y="194.83" class="st0" width="8.31" height="8.31"/>
<rect x="126.37" y="186.51" class="st2" width="8.31" height="8.31"/>
<rect x="126.37" y="178.2" class="st1" width="8.31" height="8.31"/>
<rect x="126.37" y="169.89" class="st0" width="8.31" height="8.31"/>
<rect x="126.37" y="161.57" class="st4" width="8.31" height="8.31"/>
<rect x="126.37" y="153.26" class="st5" width="8.31" height="8.31"/>
<rect x="126.37" y="144.94" class="st6" width="8.31" height="8.31"/>
<rect x="126.37" y="136.63" class="st7" width="8.31" height="8.31"/>
<rect x="126.37" y="128.31" class="st8" width="8.31" height="8.31"/>
<rect x="126.37" y="120" class="st9" width="8.31" height="8.31"/>
<rect x="126.37" y="111.69" class="st0" width="8.31" height="8.31"/>
<rect x="126.37" y="103.37" class="st1" width="8.31" height="8.31"/>
<rect x="126.37" y="95.06" class="st3" width="8.31" height="8.31"/>
<rect x="126.37" y="86.74" class="st0" width="8.31" height="8.31"/>
<rect x="126.37" y="70.11" class="st0" width="8.31" height="8.31"/>
<rect x="118.05" y="194.83" class="st0" width="8.31" height="8.31"/>
<rect x="118.05" y="186.51" class="st2" width="8.31" height="8.31"/>
<rect x="118.05" y="178.2" class="st1" width="8.31" height="8.31"/>
<rect x="118.05" y="169.89" class="st0" width="8.31" height="8.31"/>
<rect x="118.05" y="161.57" class="st4" width="8.31" height="8.31"/>
<rect x="118.05" y="153.26" class="st5" width="8.31" height="8.31"/>
<rect x="118.05" y="144.94" class="st6" width="8.31" height="8.31"/>
<rect x="118.05" y="136.63" class="st7" width="8.31" height="8.31"/>
<rect x="118.05" y="128.31" class="st8" width="8.31" height="8.31"/>
<rect x="118.05" y="120" class="st9" width="8.31" height="8.31"/>
<rect x="118.05" y="111.69" class="st0" width="8.31" height="8.31"/>
<rect x="118.05" y="103.37" class="st1" width="8.31" height="8.31"/>
<rect x="118.05" y="95.06" class="st3" width="8.31" height="8.31"/>
<rect x="118.05" y="86.74" class="st0" width="8.31" height="8.31"/>
<rect x="118.05" y="78.43" class="st0" width="8.31" height="8.31"/>
<rect x="109.74" y="194.83" class="st0" width="8.31" height="8.31"/>
<rect x="109.74" y="186.51" class="st2" width="8.31" height="8.31"/>
<rect x="109.74" y="178.2" class="st1" width="8.31" height="8.31"/>
<rect x="109.74" y="169.89" class="st0" width="8.31" height="8.31"/>
<rect x="109.74" y="161.57" class="st4" width="8.31" height="8.31"/>
<rect x="109.74" y="153.26" class="st5" width="8.31" height="8.31"/>
<rect x="109.74" y="144.94" class="st6" width="8.31" height="8.31"/>
<rect x="109.74" y="136.63" class="st7" width="8.31" height="8.31"/>
<rect x="109.74" y="128.31" class="st8" width="8.31" height="8.31"/>
<rect x="109.74" y="120" class="st9" width="8.31" height="8.31"/>
<rect x="109.74" y="111.69" class="st0" width="8.31" height="8.31"/>
<rect x="109.74" y="103.37" class="st1" width="8.31" height="8.31"/>
<rect x="109.74" y="95.06" class="st3" width="8.31" height="8.31"/>
<rect x="109.74" y="86.74" class="st0" width="8.31" height="8.31"/>
<rect x="109.74" y="78.43" class="st0" width="8.31" height="8.31"/>
<rect x="101.42" y="194.83" class="st0" width="8.31" height="8.31"/>
<rect x="101.42" y="186.51" class="st2" width="8.31" height="8.31"/>
<rect x="101.42" y="178.2" class="st1" width="8.31" height="8.31"/>
<rect x="101.42" y="169.89" class="st0" width="8.31" height="8.31"/>
<rect x="101.42" y="161.57" class="st4" width="8.31" height="8.31"/>
<rect x="101.42" y="153.26" class="st5" width="8.31" height="8.31"/>
<rect x="101.42" y="144.94" class="st6" width="8.31" height="8.31"/>
<rect x="101.42" y="136.63" class="st7" width="8.31" height="8.31"/>
<rect x="101.42" y="128.31" class="st8" width="8.31" height="8.31"/>
<rect x="101.42" y="120" class="st9" width="8.31" height="8.31"/>
<rect x="101.42" y="111.69" class="st0" width="8.31" height="8.31"/>
<rect x="101.42" y="103.37" class="st1" width="8.31" height="8.31"/>
<rect x="101.42" y="95.06" class="st3" width="8.31" height="8.31"/>
<rect x="101.42" y="86.74" class="st0" width="8.31" height="8.31"/>
<rect x="101.42" y="70.11" class="st0" width="8.31" height="8.31"/>
<rect x="93.11" y="194.83" class="st0" width="8.31" height="8.31"/>
<rect x="93.11" y="186.51" class="st2" width="8.31" height="8.31"/>
<rect x="93.11" y="178.2" class="st1" width="8.31" height="8.31"/>
<rect x="93.11" y="169.89" class="st0" width="8.31" height="8.31"/>
<rect x="93.11" y="161.57" class="st4" width="8.31" height="8.31"/>
<rect x="93.11" y="153.26" class="st5" width="8.31" height="8.31"/>
<rect x="93.11" y="144.94" class="st6" width="8.31" height="8.31"/>
<rect x="93.11" y="136.63" class="st7" width="8.31" height="8.31"/>
<rect x="93.11" y="128.31" class="st8" width="8.31" height="8.31"/>
<rect x="93.11" y="120" class="st9" width="8.31" height="8.31"/>
<rect x="93.11" y="111.69" class="st0" width="8.31" height="8.31"/>
<rect x="93.11" y="103.37" class="st1" width="8.31" height="8.31"/>
<rect x="93.11" y="95.06" class="st3" width="8.31" height="8.31"/>
<rect x="93.11" y="86.74" class="st0" width="8.31" height="8.31"/>
<rect x="93.11" y="61.8" class="st0" width="8.31" height="8.31"/>
<rect x="84.79" y="194.83" class="st0" width="8.31" height="8.31"/>
<rect x="84.79" y="186.51" class="st2" width="8.31" height="8.31"/>
<rect x="84.79" y="178.2" class="st1" width="8.31" height="8.31"/>
<rect x="84.79" y="169.89" class="st0" width="8.31" height="8.31"/>
<rect x="84.79" y="161.57" class="st4" width="8.31" height="8.31"/>
<rect x="84.79" y="153.26" class="st5" width="8.31" height="8.31"/>
<rect x="84.79" y="144.94" class="st6" width="8.31" height="8.31"/>
<rect x="84.79" y="136.63" class="st7" width="8.31" height="8.31"/>
<rect x="84.79" y="128.31" class="st8" width="8.31" height="8.31"/>
<rect x="84.79" y="120" class="st9" width="8.31" height="8.31"/>
<rect x="84.79" y="111.69" class="st0" width="8.31" height="8.31"/>
<rect x="84.79" y="103.37" class="st1" width="8.31" height="8.31"/>
<rect x="84.79" y="95.06" class="st3" width="8.31" height="8.31"/>
<rect x="84.79" y="86.74" class="st0" width="8.31" height="8.31"/>
<rect x="84.79" y="53.49" class="st0" width="8.31" height="8.31"/>
<rect x="84.79" y="45.17" class="st0" width="8.31" height="8.31"/>
<rect x="76.48" y="194.83" class="st0" width="8.31" height="8.31"/>
<rect x="76.48" y="186.51" class="st2" width="8.31" height="8.31"/>
<rect x="76.48" y="178.2" class="st1" width="8.31" height="8.31"/>
<rect x="76.48" y="169.89" class="st0" width="8.31" height="8.31"/>
<rect x="76.48" y="161.57" class="st0" width="8.31" height="8.31"/>
<rect x="76.48" y="153.26" class="st0" width="8.31" height="8.31"/>
<rect x="76.48" y="144.94" class="st0" width="8.31" height="8.31"/>
<rect x="76.48" y="136.63" class="st0" width="8.31" height="8.31"/>
<rect x="76.48" y="128.31" class="st0" width="8.31" height="8.31"/>
<rect x="76.48" y="120" class="st0" width="8.31" height="8.31"/>
<rect x="76.48" y="111.69" class="st0" width="8.31" height="8.31"/>
<rect x="76.48" y="103.37" class="st1" width="8.31" height="8.31"/>
<rect x="76.48" y="95.06" class="st3" width="8.31" height="8.31"/>
<rect x="76.48" y="86.74" class="st0" width="8.31" height="8.31"/>
<rect x="76.48" y="36.86" class="st0" width="8.31" height="8.31"/>
<rect x="68.17" y="186.51" class="st0" width="8.31" height="8.31"/>
<rect x="68.17" y="178.2" class="st1" width="8.31" height="8.31"/>
<rect x="68.17" y="169.89" class="st1" width="8.31" height="8.31"/>
<rect x="68.17" y="161.57" class="st1" width="8.31" height="8.31"/>
<rect x="68.17" y="153.26" class="st1" width="8.31" height="8.31"/>
<rect x="68.17" y="144.94" class="st1" width="8.31" height="8.31"/>
<rect x="68.17" y="136.63" class="st1" width="8.31" height="8.31"/>
<rect x="68.17" y="128.31" class="st1" width="8.31" height="8.31"/>
<rect x="68.17" y="120" class="st1" width="8.31" height="8.31"/>
<rect x="68.17" y="111.69" class="st1" width="8.31" height="8.31"/>
<rect x="68.17" y="103.37" class="st1" width="8.31" height="8.31"/>
<rect x="68.17" y="95.06" class="st0" width="8.31" height="8.31"/>
<rect x="59.85" y="178.2" class="st0" width="8.31" height="8.31"/>
<rect x="59.85" y="169.89" class="st0" width="8.31" height="8.31"/>
<rect x="59.85" y="161.57" class="st0" width="8.31" height="8.31"/>
<rect x="59.85" y="153.26" class="st0" width="8.31" height="8.31"/>
<rect x="59.85" y="144.94" class="st0" width="8.31" height="8.31"/>
<rect x="59.85" y="136.63" class="st0" width="8.31" height="8.31"/>
<rect x="59.85" y="128.31" class="st0" width="8.31" height="8.31"/>
<rect x="59.85" y="120" class="st0" width="8.31" height="8.31"/>
<rect x="59.85" y="111.69" class="st0" width="8.31" height="8.31"/>
<rect x="59.85" y="103.37" class="st0" width="8.31" height="8.31"/>
</svg>
