<?xml version="1.0" encoding="utf-8"?>
<!-- Generator: Adobe Illustrator 30.0.0, SVG Export Plug-In . SVG Version: 9.03 Build 0)  -->
<svg version="1.1" id="Layer_1" xmlns="http://www.w3.org/2000/svg" xmlns:xlink="http://www.w3.org/1999/xlink" x="0px" y="0px"
	 viewBox="0 0 240 240" style="enable-background:new 0 0 240 240;" xml:space="preserve">
<style type="text/css">
	.st0{fill:#EE9A54;}
	.st1{fill:#FF8298;}
	.st2{fill:#E44A6C;}
	.st3{fill:#B62350;}
	.st4{fill:#DF456B;}
	.st5{fill:#FFABBA;}
	.st6{fill:#AE1C4B;}
	.st7{fill:#C22958;}
	.st8{fill:#9D1F44;}
	.st9{fill:#91003D;}
	.st10{fill:#F9AB69;}
	.st11{fill:#E18749;}
	.st12{fill:#D43963;}
	.st13{fill:#E64F70;}
</style>
<g>
	<rect x="120" y="184.1" class="st0" width="6.12" height="6.1"/>
	<rect x="113.88" y="184.1" class="st0" width="6.12" height="6.1"/>
	<rect x="107.75" y="184.1" class="st0" width="6.12" height="6.1"/>
	<rect x="101.63" y="184.1" class="st0" width="6.12" height="6.1"/>
	<rect x="95.51" y="184.1" class="st0" width="6.12" height="6.1"/>
	<rect x="89.38" y="184.1" class="st0" width="6.12" height="6.1"/>
	<rect x="83.26" y="184.1" class="st0" width="6.12" height="6.1"/>
	<rect x="101.63" y="153.57" class="st1" width="6.12" height="6.1"/>
	<rect x="95.51" y="153.57" class="st1" width="6.12" height="6.1"/>
	<rect x="71.01" y="153.57" class="st1" width="6.12" height="6.1"/>
	<rect x="64.89" y="153.57" class="st1" width="6.12" height="6.1"/>
	<rect x="113.88" y="147.47" class="st1" width="6.12" height="6.1"/>
	<rect x="64.89" y="147.47" class="st1" width="6.12" height="6.1"/>
	<rect x="101.63" y="141.37" class="st1" width="6.12" height="6.1"/>
	<rect x="95.51" y="141.37" class="st2" width="6.12" height="6.1"/>
	<rect x="89.38" y="141.37" class="st2" width="6.12" height="6.1"/>
	<rect x="83.26" y="141.37" class="st2" width="6.12" height="6.1"/>
	<rect x="77.14" y="141.37" class="st2" width="6.12" height="6.1"/>
	<rect x="71.01" y="141.37" class="st1" width="6.12" height="6.1"/>
	<rect x="64.89" y="141.37" class="st1" width="6.12" height="6.1"/>
	<rect x="58.77" y="141.37" class="st2" width="6.12" height="6.1"/>
	<g>
		<g>
			<rect x="71.01" y="171.89" class="st3" width="6.12" height="6.1"/>
			<rect x="101.63" y="165.78" class="st4" width="6.12" height="6.1"/>
			<rect x="95.51" y="165.78" class="st4" width="6.12" height="6.1"/>
			<rect x="89.38" y="165.78" class="st4" width="6.12" height="6.1"/>
			<rect x="83.26" y="165.78" class="st4" width="6.12" height="6.1"/>
			<rect x="77.14" y="165.78" class="st4" width="6.12" height="6.1"/>
			<rect x="71.01" y="165.78" class="st4" width="6.12" height="6.1"/>
			<rect x="64.89" y="165.78" class="st4" width="6.12" height="6.1"/>
			<rect x="58.77" y="165.78" class="st4" width="6.12" height="6.1"/>
			<rect x="58.77" y="159.68" class="st4" width="6.12" height="6.1"/>
			<rect x="52.64" y="159.68" class="st4" width="6.12" height="6.1"/>
			<rect x="52.64" y="153.57" class="st4" width="6.12" height="6.1"/>
			<rect x="46.52" y="147.47" class="st4" width="6.12" height="6.1"/>
			<rect x="46.52" y="141.37" class="st4" width="6.12" height="6.1"/>
		</g>
	</g>
	<rect x="126.12" y="135.26" class="st4" width="6.12" height="6.1"/>
	<g>
		<rect x="89.38" y="153.57" class="st5" width="6.12" height="6.1"/>
		<rect x="83.26" y="153.57" class="st5" width="6.12" height="6.1"/>
		<rect x="77.14" y="153.57" class="st5" width="6.12" height="6.1"/>
		<rect x="107.75" y="147.47" class="st5" width="6.12" height="6.1"/>
		<rect x="101.63" y="147.47" class="st5" width="6.12" height="6.1"/>
		<rect x="95.51" y="147.47" class="st5" width="6.12" height="6.1"/>
		<rect x="89.38" y="147.47" class="st5" width="6.12" height="6.1"/>
		<rect x="83.26" y="147.47" class="st5" width="6.12" height="6.1"/>
		<rect x="77.14" y="147.47" class="st5" width="6.12" height="6.1"/>
		<rect x="71.01" y="147.47" class="st5" width="6.12" height="6.1"/>
		<rect x="120" y="141.37" class="st5" width="6.12" height="6.1"/>
		<rect x="113.88" y="141.37" class="st5" width="6.12" height="6.1"/>
		<rect x="107.75" y="141.37" class="st5" width="6.12" height="6.1"/>
		<rect x="120" y="135.26" class="st5" width="6.12" height="6.1"/>
	</g>
	<rect x="113.88" y="135.26" class="st1" width="6.12" height="6.1"/>
	<rect x="107.75" y="135.26" class="st2" width="6.12" height="6.1"/>
	<rect x="101.63" y="135.26" class="st2" width="6.12" height="6.1"/>
	<rect x="95.51" y="135.26" class="st2" width="6.12" height="6.1"/>
	<rect x="89.38" y="135.26" class="st2" width="6.12" height="6.1"/>
	<rect x="83.26" y="135.26" class="st2" width="6.12" height="6.1"/>
	<rect x="77.14" y="135.26" class="st2" width="6.12" height="6.1"/>
	<rect x="71.01" y="135.26" class="st2" width="6.12" height="6.1"/>
	<rect x="64.89" y="135.26" class="st2" width="6.12" height="6.1"/>
	<rect x="58.77" y="135.26" class="st2" width="6.12" height="6.1"/>
	<rect x="52.64" y="135.26" class="st2" width="6.12" height="6.1"/>
	<rect x="138.37" y="129.16" class="st1" width="6.12" height="6.1"/>
	<rect x="126.12" y="129.16" class="st2" width="6.12" height="6.1"/>
	<rect x="120" y="129.16" class="st2" width="6.12" height="6.1"/>
	<rect x="113.88" y="129.16" class="st2" width="6.12" height="6.1"/>
	<rect x="107.75" y="129.16" class="st2" width="6.12" height="6.1"/>
	<rect x="101.63" y="129.16" class="st2" width="6.12" height="6.1"/>
	<rect x="95.51" y="129.16" class="st2" width="6.12" height="6.1"/>
	<rect x="89.38" y="129.16" class="st2" width="6.12" height="6.1"/>
	<rect x="83.26" y="129.16" class="st2" width="6.12" height="6.1"/>
	<rect x="77.14" y="129.16" class="st2" width="6.12" height="6.1"/>
	<rect x="71.01" y="129.16" class="st2" width="6.12" height="6.1"/>
	<rect x="64.89" y="129.16" class="st2" width="6.12" height="6.1"/>
	<rect x="58.77" y="129.16" class="st2" width="6.12" height="6.1"/>
	<rect x="52.64" y="129.16" class="st2" width="6.12" height="6.1"/>
	<g>
		<g>
			<rect x="101.63" y="171.89" class="st3" width="6.12" height="6.1"/>
			<rect x="95.51" y="171.89" class="st3" width="6.12" height="6.1"/>
			<rect x="89.38" y="171.89" class="st3" width="6.12" height="6.1"/>
			<rect x="83.26" y="171.89" class="st3" width="6.12" height="6.1"/>
			<rect x="77.14" y="171.89" class="st3" width="6.12" height="6.1"/>
			<rect x="113.88" y="165.78" class="st3" width="6.12" height="6.1"/>
			<rect x="107.75" y="165.78" class="st3" width="6.12" height="6.1"/>
			<rect x="126.12" y="159.68" class="st3" width="6.12" height="6.1"/>
			<rect x="120" y="159.68" class="st3" width="6.12" height="6.1"/>
			<rect x="132.25" y="153.57" class="st3" width="6.12" height="6.1"/>
			<rect x="138.37" y="147.47" class="st3" width="6.12" height="6.1"/>
			<rect x="144.49" y="141.37" class="st3" width="6.12" height="6.1"/>
			<rect x="150.62" y="135.26" class="st3" width="6.12" height="6.1"/>
			<rect x="156.74" y="129.16" class="st3" width="6.12" height="6.1"/>
			<rect x="162.86" y="123.05" class="st3" width="6.12" height="6.1"/>
		</g>
	</g>
	<rect x="126.12" y="123.05" class="st2" width="6.12" height="6.1"/>
	<rect x="120" y="123.05" class="st2" width="6.12" height="6.1"/>
	<rect x="113.88" y="123.05" class="st2" width="6.12" height="6.1"/>
	<rect x="107.75" y="123.05" class="st2" width="6.12" height="6.1"/>
	<rect x="95.51" y="123.05" class="st6" width="6.12" height="6.1"/>
	<rect x="89.38" y="123.05" class="st7" width="6.12" height="6.1"/>
	<rect x="83.26" y="123.05" class="st2" width="6.12" height="6.1"/>
	<rect x="77.14" y="123.05" class="st2" width="6.12" height="6.1"/>
	<rect x="71.01" y="123.05" class="st2" width="6.12" height="6.1"/>
	<rect x="64.89" y="123.05" class="st2" width="6.12" height="6.1"/>
	<rect x="58.77" y="123.05" class="st2" width="6.12" height="6.1"/>
	<rect x="52.64" y="123.05" class="st2" width="6.12" height="6.1"/>
	<g>
		<rect x="132.25" y="129.16" class="st5" width="6.12" height="6.1"/>
		<rect x="138.37" y="123.05" class="st5" width="6.12" height="6.1"/>
		<rect x="132.25" y="123.05" class="st5" width="6.12" height="6.1"/>
		<rect x="138.37" y="116.95" class="st5" width="6.12" height="6.1"/>
	</g>
	<rect x="132.25" y="116.95" class="st2" width="6.12" height="6.1"/>
	<rect x="126.12" y="116.95" class="st2" width="6.12" height="6.1"/>
	<rect x="120" y="116.95" class="st2" width="6.12" height="6.1"/>
	<rect x="89.38" y="116.95" class="st8" width="6.12" height="6.1"/>
	<rect x="83.26" y="116.95" class="st2" width="6.12" height="6.1"/>
	<rect x="77.14" y="116.95" class="st2" width="6.12" height="6.1"/>
	<rect x="71.01" y="116.95" class="st2" width="6.12" height="6.1"/>
	<rect x="64.89" y="116.95" class="st2" width="6.12" height="6.1"/>
	<rect x="58.77" y="116.95" class="st2" width="6.12" height="6.1"/>
	<rect x="52.64" y="116.95" class="st2" width="6.12" height="6.1"/>
	<rect x="150.62" y="110.84" class="st4" width="6.12" height="6.1"/>
	<rect x="144.49" y="110.84" class="st2" width="6.12" height="6.1"/>
	<rect x="138.37" y="110.84" class="st2" width="6.12" height="6.1"/>
	<rect x="132.25" y="110.84" class="st2" width="6.12" height="6.1"/>
	<rect x="126.12" y="110.84" class="st2" width="6.12" height="6.1"/>
	<rect x="83.26" y="110.84" class="st2" width="6.12" height="6.1"/>
	<rect x="77.14" y="110.84" class="st2" width="6.12" height="6.1"/>
	<rect x="71.01" y="110.84" class="st2" width="6.12" height="6.1"/>
	<rect x="64.89" y="110.84" class="st2" width="6.12" height="6.1"/>
	<rect x="58.77" y="110.84" class="st2" width="6.12" height="6.1"/>
	<rect x="52.64" y="110.84" class="st2" width="6.12" height="6.1"/>
	<rect x="150.62" y="104.74" class="st2" width="6.12" height="6.1"/>
	<rect x="144.49" y="104.74" class="st2" width="6.12" height="6.1"/>
	<rect x="138.37" y="104.74" class="st2" width="6.12" height="6.1"/>
	<rect x="132.25" y="104.74" class="st2" width="6.12" height="6.1"/>
	<rect x="89.38" y="104.74" class="st7" width="6.12" height="6.1"/>
	<rect x="83.26" y="104.74" class="st2" width="6.12" height="6.1"/>
	<rect x="77.14" y="104.74" class="st2" width="6.12" height="6.1"/>
	<rect x="71.01" y="104.74" class="st2" width="6.12" height="6.1"/>
	<rect x="64.89" y="104.74" class="st2" width="6.12" height="6.1"/>
	<rect x="58.77" y="104.74" class="st2" width="6.12" height="6.1"/>
	<rect x="156.74" y="98.63" class="st4" width="6.12" height="6.1"/>
	<rect x="150.62" y="98.63" class="st2" width="6.12" height="6.1"/>
	<rect x="144.49" y="98.63" class="st2" width="6.12" height="6.1"/>
	<rect x="138.37" y="98.63" class="st2" width="6.12" height="6.1"/>
	<rect x="89.38" y="98.63" class="st7" width="6.12" height="6.1"/>
	<rect x="83.26" y="98.63" class="st2" width="6.12" height="6.1"/>
	<rect x="77.14" y="98.63" class="st2" width="6.12" height="6.1"/>
	<rect x="71.01" y="98.63" class="st2" width="6.12" height="6.1"/>
	<rect x="64.89" y="98.63" class="st2" width="6.12" height="6.1"/>
	<rect x="58.77" y="98.63" class="st2" width="6.12" height="6.1"/>
	<rect x="156.74" y="92.53" class="st2" width="6.12" height="6.1"/>
	<rect x="150.62" y="92.53" class="st2" width="6.12" height="6.1"/>
	<rect x="144.49" y="92.53" class="st2" width="6.12" height="6.1"/>
	<rect x="138.37" y="92.53" class="st2" width="6.12" height="6.1"/>
	<g>
		<g>
			<rect x="101.63" y="110.84" class="st6" width="6.12" height="6.1"/>
			<rect x="95.51" y="110.84" class="st6" width="6.12" height="6.1"/>
			<rect x="89.38" y="110.84" class="st6" width="6.12" height="6.1"/>
			<rect x="107.75" y="104.74" class="st6" width="6.12" height="6.1"/>
			<rect x="101.63" y="104.74" class="st6" width="6.12" height="6.1"/>
			<rect x="95.51" y="104.74" class="st6" width="6.12" height="6.1"/>
			<rect x="113.88" y="98.63" class="st6" width="6.12" height="6.1"/>
			<rect x="107.75" y="98.63" class="st6" width="6.12" height="6.1"/>
			<rect x="101.63" y="98.63" class="st6" width="6.12" height="6.1"/>
			<rect x="95.51" y="98.63" class="st6" width="6.12" height="6.1"/>
			<rect x="113.88" y="92.53" class="st6" width="6.12" height="6.1"/>
			<rect x="107.75" y="92.53" class="st6" width="6.12" height="6.1"/>
			<rect x="101.63" y="92.53" class="st6" width="6.12" height="6.1"/>
		</g>
	</g>
	<g>
		<rect x="132.25" y="98.63" class="st1" width="6.12" height="6.1"/>
		<rect x="132.25" y="92.53" class="st1" width="6.12" height="6.1"/>
		<rect x="95.51" y="92.53" class="st1" width="6.12" height="6.1"/>
	</g>
	<rect x="89.38" y="92.53" class="st2" width="6.12" height="6.1"/>
	<rect x="83.26" y="92.53" class="st2" width="6.12" height="6.1"/>
	<rect x="77.14" y="92.53" class="st2" width="6.12" height="6.1"/>
	<rect x="71.01" y="92.53" class="st2" width="6.12" height="6.1"/>
	<rect x="64.89" y="92.53" class="st2" width="6.12" height="6.1"/>
	<rect x="156.74" y="86.43" class="st2" width="6.12" height="6.1"/>
	<rect x="150.62" y="86.43" class="st2" width="6.12" height="6.1"/>
	<rect x="144.49" y="86.43" class="st2" width="6.12" height="6.1"/>
	<rect x="138.37" y="86.43" class="st2" width="6.12" height="6.1"/>
	<g>
		<g>
			<rect x="101.63" y="123.05" class="st6" width="6.12" height="6.1"/>
			<rect x="113.88" y="116.95" class="st9" width="6.12" height="6.1"/>
			<rect x="107.75" y="116.95" class="st9" width="6.12" height="6.1"/>
			<rect x="101.63" y="116.95" class="st9" width="6.12" height="6.1"/>
			<rect x="95.51" y="116.95" class="st9" width="6.12" height="6.1"/>
			<rect x="120" y="110.84" class="st9" width="6.12" height="6.1"/>
			<rect x="113.88" y="110.84" class="st9" width="6.12" height="6.1"/>
			<rect x="107.75" y="110.84" class="st9" width="6.12" height="6.1"/>
			<rect x="126.12" y="104.74" class="st9" width="6.12" height="6.1"/>
			<rect x="120" y="104.74" class="st9" width="6.12" height="6.1"/>
			<rect x="113.88" y="104.74" class="st9" width="6.12" height="6.1"/>
			<rect x="126.12" y="98.63" class="st9" width="6.12" height="6.1"/>
			<rect x="120" y="98.63" class="st9" width="6.12" height="6.1"/>
			<rect x="126.12" y="92.53" class="st9" width="6.12" height="6.1"/>
			<rect x="120" y="92.53" class="st9" width="6.12" height="6.1"/>
			<rect x="126.12" y="86.43" class="st9" width="6.12" height="6.1"/>
			<rect x="120" y="86.43" class="st9" width="6.12" height="6.1"/>
			<rect x="113.88" y="86.43" class="st9" width="6.12" height="6.1"/>
		</g>
	</g>
	<rect x="95.51" y="86.43" class="st2" width="6.12" height="6.1"/>
	<rect x="89.38" y="86.43" class="st2" width="6.12" height="6.1"/>
	<rect x="83.26" y="86.43" class="st2" width="6.12" height="6.1"/>
	<rect x="77.14" y="86.43" class="st2" width="6.12" height="6.1"/>
	<rect x="71.01" y="86.43" class="st2" width="6.12" height="6.1"/>
	<g>
		<g>
			<rect x="132.25" y="177.99" class="st0" width="6.12" height="6.1"/>
			<rect x="126.12" y="177.99" class="st0" width="6.12" height="6.1"/>
			<g>
				<rect x="120" y="177.99" class="st10" width="6.12" height="6.1"/>
			</g>
			<g>
				<rect x="113.88" y="177.99" class="st10" width="6.12" height="6.1"/>
			</g>
			<g>
				<rect x="107.75" y="177.99" class="st10" width="6.12" height="6.1"/>
			</g>
			<rect x="101.63" y="177.99" class="st11" width="6.12" height="6.1"/>
			<rect x="95.51" y="177.99" class="st11" width="6.12" height="6.1"/>
			<rect x="89.38" y="177.99" class="st11" width="6.12" height="6.1"/>
			<rect x="83.26" y="177.99" class="st11" width="6.12" height="6.1"/>
			<rect x="77.14" y="177.99" class="st11" width="6.12" height="6.1"/>
			<rect x="138.37" y="171.89" class="st0" width="6.12" height="6.1"/>
			<rect x="132.25" y="171.89" class="st0" width="6.12" height="6.1"/>
			<g>
				<rect x="126.12" y="171.89" class="st10" width="6.12" height="6.1"/>
			</g>
			<g>
				<rect x="120" y="171.89" class="st10" width="6.12" height="6.1"/>
			</g>
			<rect x="113.88" y="171.89" class="st11" width="6.12" height="6.1"/>
			<rect x="107.75" y="171.89" class="st11" width="6.12" height="6.1"/>
			<rect x="150.62" y="165.78" class="st0" width="6.12" height="6.1"/>
			<rect x="144.49" y="165.78" class="st0" width="6.12" height="6.1"/>
			<g>
				<rect x="138.37" y="165.78" class="st10" width="6.12" height="6.1"/>
			</g>
			<g>
				<rect x="132.25" y="165.78" class="st10" width="6.12" height="6.1"/>
			</g>
			<rect x="126.12" y="165.78" class="st11" width="6.12" height="6.1"/>
			<rect x="120" y="165.78" class="st11" width="6.12" height="6.1"/>
			<rect x="156.74" y="159.68" class="st0" width="6.12" height="6.1"/>
			<rect x="150.62" y="159.68" class="st0" width="6.12" height="6.1"/>
			<g>
				<rect x="144.49" y="159.68" class="st10" width="6.12" height="6.1"/>
			</g>
			<g>
				<rect x="138.37" y="159.68" class="st10" width="6.12" height="6.1"/>
			</g>
			<rect x="132.25" y="159.68" class="st11" width="6.12" height="6.1"/>
			<rect x="162.86" y="153.57" class="st0" width="6.12" height="6.1"/>
			<rect x="156.74" y="153.57" class="st0" width="6.12" height="6.1"/>
			<g>
				<rect x="150.62" y="153.57" class="st10" width="6.12" height="6.1"/>
			</g>
			<g>
				<rect x="144.49" y="153.57" class="st10" width="6.12" height="6.1"/>
			</g>
			<rect x="138.37" y="153.57" class="st11" width="6.12" height="6.1"/>
			<rect x="168.99" y="147.47" class="st0" width="6.12" height="6.1"/>
			<rect x="162.86" y="147.47" class="st0" width="6.12" height="6.1"/>
			<rect x="156.74" y="147.47" class="st0" width="6.12" height="6.1"/>
			<g>
				<rect x="150.62" y="147.47" class="st10" width="6.12" height="6.1"/>
			</g>
			<rect x="144.49" y="147.47" class="st11" width="6.12" height="6.1"/>
			<rect x="175.11" y="141.37" class="st0" width="6.12" height="6.1"/>
			<rect x="168.99" y="141.37" class="st0" width="6.12" height="6.1"/>
			<rect x="162.86" y="141.37" class="st0" width="6.12" height="6.1"/>
			<g>
				<rect x="156.74" y="141.37" class="st10" width="6.12" height="6.1"/>
			</g>
			<rect x="150.62" y="141.37" class="st11" width="6.12" height="6.1"/>
			<rect x="175.11" y="135.26" class="st0" width="6.12" height="6.1"/>
			<rect x="168.99" y="135.26" class="st0" width="6.12" height="6.1"/>
			<rect x="162.86" y="135.26" class="st0" width="6.12" height="6.1"/>
			<rect x="156.74" y="135.26" class="st11" width="6.12" height="6.1"/>
			<rect x="181.23" y="129.16" class="st0" width="6.12" height="6.1"/>
			<rect x="175.11" y="129.16" class="st0" width="6.12" height="6.1"/>
			<rect x="168.99" y="129.16" class="st0" width="6.12" height="6.1"/>
			<rect x="162.86" y="129.16" class="st11" width="6.12" height="6.1"/>
			<rect x="181.23" y="123.05" class="st0" width="6.12" height="6.1"/>
			<rect x="175.11" y="123.05" class="st0" width="6.12" height="6.1"/>
			<rect x="168.99" y="123.05" class="st11" width="6.12" height="6.1"/>
			<rect x="187.36" y="116.95" class="st11" width="6.12" height="6.1"/>
			<rect x="181.23" y="116.95" class="st0" width="6.12" height="6.1"/>
			<rect x="175.11" y="116.95" class="st11" width="6.12" height="6.1"/>
			<rect x="187.36" y="110.84" class="st11" width="6.12" height="6.1"/>
			<rect x="181.23" y="110.84" class="st11" width="6.12" height="6.1"/>
			<rect x="187.36" y="104.74" class="st11" width="6.12" height="6.1"/>
			<rect x="181.23" y="104.74" class="st11" width="6.12" height="6.1"/>
			<rect x="187.36" y="98.63" class="st11" width="6.12" height="6.1"/>
			<rect x="181.23" y="98.63" class="st11" width="6.12" height="6.1"/>
			<rect x="187.36" y="92.53" class="st11" width="6.12" height="6.1"/>
			<rect x="181.23" y="92.53" class="st11" width="6.12" height="6.1"/>
			<rect x="181.23" y="86.43" class="st11" width="6.12" height="6.1"/>
			<rect x="181.23" y="80.32" class="st11" width="6.12" height="6.1"/>
		</g>
	</g>
	<rect x="156.74" y="80.32" class="st2" width="6.12" height="6.1"/>
	<rect x="150.62" y="80.32" class="st2" width="6.12" height="6.1"/>
	<rect x="144.49" y="80.32" class="st2" width="6.12" height="6.1"/>
	<rect x="138.37" y="80.32" class="st2" width="6.12" height="6.1"/>
	<rect x="132.25" y="80.32" class="st2" width="6.12" height="6.1"/>
	<g>
		<rect x="132.25" y="86.43" class="st5" width="6.12" height="6.1"/>
		<rect x="107.75" y="86.43" class="st5" width="6.12" height="6.1"/>
		<rect x="101.63" y="86.43" class="st5" width="6.12" height="6.1"/>
		<rect x="126.12" y="80.32" class="st5" width="6.12" height="6.1"/>
		<rect x="120" y="80.32" class="st5" width="6.12" height="6.1"/>
		<rect x="113.88" y="80.32" class="st5" width="6.12" height="6.1"/>
	</g>
	<rect x="107.75" y="80.32" class="st2" width="6.12" height="6.1"/>
	<rect x="101.63" y="80.32" class="st2" width="6.12" height="6.1"/>
	<rect x="95.51" y="80.32" class="st2" width="6.12" height="6.1"/>
	<rect x="89.38" y="80.32" class="st2" width="6.12" height="6.1"/>
	<rect x="83.26" y="80.32" class="st2" width="6.12" height="6.1"/>
	<rect x="77.14" y="80.32" class="st2" width="6.12" height="6.1"/>
	<rect x="156.74" y="74.22" class="st2" width="6.12" height="6.1"/>
	<rect x="150.62" y="74.22" class="st2" width="6.12" height="6.1"/>
	<rect x="144.49" y="74.22" class="st2" width="6.12" height="6.1"/>
	<rect x="138.37" y="74.22" class="st2" width="6.12" height="6.1"/>
	<rect x="132.25" y="74.22" class="st2" width="6.12" height="6.1"/>
	<rect x="126.12" y="74.22" class="st2" width="6.12" height="6.1"/>
	<rect x="120" y="74.22" class="st2" width="6.12" height="6.1"/>
	<rect x="113.88" y="74.22" class="st2" width="6.12" height="6.1"/>
	<rect x="107.75" y="74.22" class="st2" width="6.12" height="6.1"/>
	<rect x="101.63" y="74.22" class="st2" width="6.12" height="6.1"/>
	<rect x="95.51" y="74.22" class="st2" width="6.12" height="6.1"/>
	<rect x="89.38" y="74.22" class="st2" width="6.12" height="6.1"/>
	<rect x="83.26" y="74.22" class="st2" width="6.12" height="6.1"/>
	<g>
		<g>
			<rect x="113.88" y="159.68" class="st12" width="6.12" height="6.1"/>
			<rect x="107.75" y="159.68" class="st12" width="6.12" height="6.1"/>
			<rect x="101.63" y="159.68" class="st12" width="6.12" height="6.1"/>
			<rect x="95.51" y="159.68" class="st12" width="6.12" height="6.1"/>
			<rect x="89.38" y="159.68" class="st12" width="6.12" height="6.1"/>
			<rect x="83.26" y="159.68" class="st12" width="6.12" height="6.1"/>
			<rect x="77.14" y="159.68" class="st12" width="6.12" height="6.1"/>
			<rect x="71.01" y="159.68" class="st12" width="6.12" height="6.1"/>
			<rect x="64.89" y="159.68" class="st12" width="6.12" height="6.1"/>
			<rect x="126.12" y="153.57" class="st12" width="6.12" height="6.1"/>
			<rect x="120" y="153.57" class="st12" width="6.12" height="6.1"/>
			<rect x="113.88" y="153.57" class="st12" width="6.12" height="6.1"/>
			<rect x="107.75" y="153.57" class="st12" width="6.12" height="6.1"/>
			<rect x="58.77" y="153.57" class="st12" width="6.12" height="6.1"/>
			<rect x="132.25" y="147.47" class="st12" width="6.12" height="6.1"/>
			<rect x="126.12" y="147.47" class="st12" width="6.12" height="6.1"/>
			<rect x="120" y="147.47" class="st12" width="6.12" height="6.1"/>
			<rect x="58.77" y="147.47" class="st12" width="6.12" height="6.1"/>
			<rect x="52.64" y="147.47" class="st12" width="6.12" height="6.1"/>
			<rect x="138.37" y="141.37" class="st12" width="6.12" height="6.1"/>
			<rect x="132.25" y="141.37" class="st12" width="6.12" height="6.1"/>
			<rect x="126.12" y="141.37" class="st12" width="6.12" height="6.1"/>
			<rect x="52.64" y="141.37" class="st12" width="6.12" height="6.1"/>
			<rect x="144.49" y="135.26" class="st12" width="6.12" height="6.1"/>
			<rect x="138.37" y="135.26" class="st12" width="6.12" height="6.1"/>
			<rect x="132.25" y="135.26" class="st12" width="6.12" height="6.1"/>
			<rect x="150.62" y="129.16" class="st12" width="6.12" height="6.1"/>
			<rect x="144.49" y="129.16" class="st12" width="6.12" height="6.1"/>
			<rect x="156.74" y="123.05" class="st12" width="6.12" height="6.1"/>
			<rect x="150.62" y="123.05" class="st12" width="6.12" height="6.1"/>
			<rect x="144.49" y="123.05" class="st12" width="6.12" height="6.1"/>
			<rect x="162.86" y="116.95" class="st12" width="6.12" height="6.1"/>
			<rect x="156.74" y="116.95" class="st12" width="6.12" height="6.1"/>
			<rect x="150.62" y="116.95" class="st12" width="6.12" height="6.1"/>
			<rect x="144.49" y="116.95" class="st12" width="6.12" height="6.1"/>
			<rect x="162.86" y="110.84" class="st12" width="6.12" height="6.1"/>
			<rect x="156.74" y="110.84" class="st12" width="6.12" height="6.1"/>
			<rect x="168.99" y="104.74" class="st12" width="6.12" height="6.1"/>
			<rect x="162.86" y="104.74" class="st12" width="6.12" height="6.1"/>
			<rect x="156.74" y="104.74" class="st12" width="6.12" height="6.1"/>
			<rect x="168.99" y="98.63" class="st12" width="6.12" height="6.1"/>
			<rect x="162.86" y="98.63" class="st12" width="6.12" height="6.1"/>
			<rect x="168.99" y="92.53" class="st12" width="6.12" height="6.1"/>
			<rect x="162.86" y="92.53" class="st12" width="6.12" height="6.1"/>
			<rect x="168.99" y="86.43" class="st12" width="6.12" height="6.1"/>
			<rect x="162.86" y="86.43" class="st12" width="6.12" height="6.1"/>
			<rect x="168.99" y="80.32" class="st12" width="6.12" height="6.1"/>
			<rect x="162.86" y="80.32" class="st12" width="6.12" height="6.1"/>
			<g>
				<rect x="162.86" y="74.22" class="st4" width="6.12" height="6.1"/>
			</g>
			<g>
				<rect x="162.86" y="68.11" class="st4" width="6.12" height="6.1"/>
			</g>
		</g>
	</g>
	<rect x="156.74" y="68.11" class="st2" width="6.12" height="6.1"/>
	<rect x="150.62" y="68.11" class="st2" width="6.12" height="6.1"/>
	<rect x="144.49" y="68.11" class="st2" width="6.12" height="6.1"/>
	<rect x="138.37" y="68.11" class="st2" width="6.12" height="6.1"/>
	<rect x="132.25" y="68.11" class="st2" width="6.12" height="6.1"/>
	<rect x="126.12" y="68.11" class="st2" width="6.12" height="6.1"/>
	<rect x="120" y="68.11" class="st2" width="6.12" height="6.1"/>
	<rect x="113.88" y="68.11" class="st2" width="6.12" height="6.1"/>
	<rect x="107.75" y="68.11" class="st2" width="6.12" height="6.1"/>
	<rect x="101.63" y="68.11" class="st2" width="6.12" height="6.1"/>
	<rect x="95.51" y="68.11" class="st2" width="6.12" height="6.1"/>
	<rect x="156.74" y="62.01" class="st2" width="6.12" height="6.1"/>
	<rect x="150.62" y="62.01" class="st2" width="6.12" height="6.1"/>
	<rect x="144.49" y="62.01" class="st2" width="6.12" height="6.1"/>
	<rect x="138.37" y="62.01" class="st2" width="6.12" height="6.1"/>
	<rect x="132.25" y="62.01" class="st2" width="6.12" height="6.1"/>
	<rect x="126.12" y="62.01" class="st2" width="6.12" height="6.1"/>
	<rect x="120" y="62.01" class="st2" width="6.12" height="6.1"/>
	<rect x="113.88" y="62.01" class="st2" width="6.12" height="6.1"/>
	<rect x="107.75" y="62.01" class="st2" width="6.12" height="6.1"/>
	<rect x="101.63" y="62.01" class="st2" width="6.12" height="6.1"/>
	<rect x="138.37" y="55.9" class="st2" width="6.12" height="6.1"/>
	<rect x="132.25" y="55.9" class="st2" width="6.12" height="6.1"/>
	<rect x="126.12" y="55.9" class="st2" width="6.12" height="6.1"/>
	<rect x="120" y="55.9" class="st2" width="6.12" height="6.1"/>
	<rect x="113.88" y="55.9" class="st2" width="6.12" height="6.1"/>
	<g>
		<g>
			<rect x="46.52" y="135.26" class="st5" width="6.12" height="6.1"/>
			<rect x="46.52" y="129.16" class="st5" width="6.12" height="6.1"/>
			<rect x="46.52" y="123.05" class="st5" width="6.12" height="6.1"/>
			<rect x="46.52" y="116.95" class="st5" width="6.12" height="6.1"/>
			<rect x="46.52" y="110.84" class="st5" width="6.12" height="6.1"/>
			<rect x="52.64" y="104.74" class="st5" width="6.12" height="6.1"/>
			<rect x="46.52" y="104.74" class="st5" width="6.12" height="6.1"/>
			<rect x="52.64" y="98.63" class="st5" width="6.12" height="6.1"/>
			<rect x="58.77" y="92.53" class="st5" width="6.12" height="6.1"/>
			<rect x="64.89" y="86.43" class="st5" width="6.12" height="6.1"/>
			<rect x="71.01" y="80.32" class="st5" width="6.12" height="6.1"/>
			<rect x="77.14" y="74.22" class="st5" width="6.12" height="6.1"/>
			<rect x="89.38" y="68.11" class="st5" width="6.12" height="6.1"/>
			<rect x="83.26" y="68.11" class="st5" width="6.12" height="6.1"/>
			<rect x="95.51" y="62.01" class="st5" width="6.12" height="6.1"/>
			<rect x="89.38" y="62.01" class="st5" width="6.12" height="6.1"/>
			<rect x="101.63" y="55.9" class="st5" width="6.12" height="6.1"/>
			<rect x="95.51" y="55.9" class="st5" width="6.12" height="6.1"/>
		</g>
	</g>
	<g>
		<g>
			<rect x="168.99" y="116.95" class="st13" width="6.12" height="6.1"/>
			<rect x="175.11" y="110.84" class="st13" width="6.12" height="6.1"/>
			<rect x="168.99" y="110.84" class="st13" width="6.12" height="6.1"/>
			<rect x="175.11" y="104.74" class="st13" width="6.12" height="6.1"/>
			<rect x="175.11" y="98.63" class="st13" width="6.12" height="6.1"/>
			<rect x="175.11" y="92.53" class="st13" width="6.12" height="6.1"/>
			<rect x="175.11" y="86.43" class="st13" width="6.12" height="6.1"/>
			<rect x="175.11" y="80.32" class="st13" width="6.12" height="6.1"/>
			<rect x="175.11" y="74.22" class="st13" width="6.12" height="6.1"/>
			<rect x="168.99" y="74.22" class="st13" width="6.12" height="6.1"/>
			<rect x="168.99" y="68.11" class="st13" width="6.12" height="6.1"/>
			<rect x="168.99" y="62.01" class="st13" width="6.12" height="6.1"/>
			<rect x="162.86" y="62.01" class="st13" width="6.12" height="6.1"/>
			<rect x="162.86" y="55.9" class="st13" width="6.12" height="6.1"/>
			<rect x="156.74" y="55.9" class="st13" width="6.12" height="6.1"/>
			<rect x="150.62" y="55.9" class="st13" width="6.12" height="6.1"/>
			<rect x="144.49" y="55.9" class="st13" width="6.12" height="6.1"/>
			<rect x="150.62" y="49.8" class="st13" width="6.12" height="6.1"/>
			<rect x="144.49" y="49.8" class="st13" width="6.12" height="6.1"/>
			<rect x="138.37" y="49.8" class="st13" width="6.12" height="6.1"/>
			<rect x="132.25" y="49.8" class="st13" width="6.12" height="6.1"/>
			<rect x="126.12" y="49.8" class="st13" width="6.12" height="6.1"/>
		</g>
	</g>
	<g>
		<g>
			<rect x="107.75" y="55.9" class="st1" width="6.12" height="6.1"/>
			<rect x="120" y="49.8" class="st1" width="6.12" height="6.1"/>
			<rect x="113.88" y="49.8" class="st1" width="6.12" height="6.1"/>
			<rect x="107.75" y="49.8" class="st1" width="6.12" height="6.1"/>
		</g>
	</g>
</g>
</svg>
