<?xml version="1.0" encoding="utf-8"?>
<!-- Generator: Adobe Illustrator 30.0.0, SVG Export Plug-In . SVG Version: 9.03 Build 0)  -->
<svg version="1.1" id="Layer_1" xmlns="http://www.w3.org/2000/svg" xmlns:xlink="http://www.w3.org/1999/xlink" x="0px" y="0px"
	 viewBox="0 0 240 240" style="enable-background:new 0 0 240 240;" xml:space="preserve">
<style type="text/css">
	.st0{fill:#9E4923;}
	.st1{fill:#B86031;}
	.st2{fill:#E2D1CF;}
	.st3{fill:#606060;}
	.st4{fill:#453537;}
</style>
<g>
	<g id="XMLID_103_">
		<g>
			<rect x="174.01" y="137.88" class="st0" width="9.01" height="9.04"/>
			<rect x="174.01" y="128.86" class="st0" width="9.01" height="9.01"/>
			<rect x="174.01" y="119.83" class="st0" width="9.01" height="9.04"/>
			<rect x="174.01" y="110.79" class="st1" width="9.01" height="9.04"/>
			<rect x="164.98" y="192.05" class="st1" width="9.04" height="9.04"/>
			<rect x="164.98" y="183.04" class="st1" width="9.04" height="9.01"/>
			<rect x="164.98" y="174" class="st1" width="9.04" height="9.04"/>
			<rect x="164.98" y="164.97" class="st1" width="9.04" height="9.04"/>
			<rect x="164.98" y="155.95" class="st1" width="9.04" height="9.01"/>
			<rect x="164.98" y="146.91" class="st1" width="9.04" height="9.04"/>
			<rect x="164.98" y="137.88" class="st1" width="9.04" height="9.04"/>
			<rect x="164.98" y="128.86" class="st1" width="9.04" height="9.01"/>
			<rect x="164.98" y="119.83" class="st1" width="9.04" height="9.04"/>
			<rect x="164.98" y="110.79" class="st1" width="9.04" height="9.04"/>
			<rect x="164.98" y="101.77" class="st1" width="9.04" height="9.01"/>
			<rect x="164.98" y="92.74" class="st1" width="9.04" height="9.04"/>
			<rect x="164.98" y="83.7" class="st1" width="9.04" height="9.04"/>
			<rect x="155.94" y="192.05" class="st1" width="9.04" height="9.04"/>
			<rect x="155.94" y="155.95" class="st1" width="9.04" height="9.01"/>
			<rect x="155.94" y="146.91" class="st1" width="9.04" height="9.04"/>
			<rect x="155.94" y="137.88" class="st1" width="9.04" height="9.04"/>
			<rect x="155.94" y="128.86" class="st1" width="9.04" height="9.01"/>
			<rect x="155.94" y="119.83" class="st1" width="9.04" height="9.04"/>
			<rect x="155.94" y="110.79" class="st1" width="9.04" height="9.04"/>
			<rect x="155.94" y="101.77" class="st1" width="9.04" height="9.01"/>
			<rect x="155.94" y="74.68" class="st1" width="9.04" height="9.01"/>
			<rect x="146.93" y="192.05" class="st0" width="9.01" height="9.04"/>
			<rect x="146.93" y="183.04" class="st0" width="9.01" height="9.01"/>
			<rect x="146.93" y="174" class="st0" width="9.01" height="9.04"/>
			<rect x="146.93" y="164.97" class="st0" width="9.01" height="9.04"/>
			<rect x="146.93" y="155.95" class="st0" width="9.01" height="9.01"/>
			<rect x="146.93" y="146.91" class="st1" width="9.01" height="9.04"/>
			<rect x="146.93" y="137.88" class="st2" width="9.01" height="9.04"/>
			<rect x="146.93" y="128.86" class="st1" width="9.01" height="9.01"/>
			<rect x="146.93" y="119.83" class="st1" width="9.01" height="9.04"/>
			<rect x="146.93" y="110.79" class="st1" width="9.01" height="9.04"/>
			<rect x="146.93" y="101.77" class="st1" width="9.01" height="9.01"/>
			<rect x="137.89" y="192.05" class="st0" width="9.04" height="9.04"/>
			<rect x="137.89" y="155.95" class="st0" width="9.04" height="9.01"/>
			<rect x="137.89" y="146.91" class="st2" width="9.04" height="9.04"/>
			<rect x="137.89" y="137.88" class="st2" width="9.04" height="9.04"/>
			<rect x="137.89" y="128.86" class="st0" width="9.04" height="9.01"/>
			<rect x="137.89" y="119.83" class="st1" width="9.04" height="9.04"/>
			<rect x="137.89" y="110.79" class="st1" width="9.04" height="9.04"/>
			<rect x="137.89" y="101.77" class="st1" width="9.04" height="9.01"/>
			<rect x="128.85" y="146.91" class="st2" width="9.04" height="9.04"/>
			<rect x="128.85" y="137.88" class="st2" width="9.04" height="9.04"/>
			<rect x="128.85" y="128.86" class="st0" width="9.04" height="9.01"/>
			<rect x="128.85" y="119.83" class="st1" width="9.04" height="9.04"/>
			<rect x="128.85" y="110.79" class="st1" width="9.04" height="9.04"/>
			<rect x="128.85" y="101.77" class="st1" width="9.04" height="9.01"/>
			<rect x="119.84" y="146.91" class="st2" width="9.01" height="9.04"/>
			<rect x="119.84" y="137.88" class="st0" width="9.01" height="9.04"/>
			<rect x="119.84" y="128.86" class="st1" width="9.01" height="9.01"/>
			<rect x="119.84" y="119.83" class="st1" width="9.01" height="9.04"/>
			<rect x="119.84" y="110.79" class="st1" width="9.01" height="9.04"/>
			<rect x="119.84" y="101.77" class="st1" width="9.01" height="9.01"/>
			<rect x="110.8" y="164.97" class="st1" width="9.04" height="9.04"/>
			<rect x="110.8" y="155.95" class="st1" width="9.04" height="9.01"/>
			<rect x="110.8" y="146.91" class="st0" width="9.04" height="9.04"/>
			<rect x="110.8" y="137.88" class="st1" width="9.04" height="9.04"/>
			<rect x="110.8" y="128.86" class="st1" width="9.04" height="9.01"/>
			<rect x="110.8" y="119.83" class="st1" width="9.04" height="9.04"/>
			<rect x="110.8" y="110.79" class="st1" width="9.04" height="9.04"/>
			<rect x="110.8" y="101.77" class="st1" width="9.04" height="9.01"/>
			<rect x="110.8" y="92.74" class="st3" width="9.04" height="9.04"/>
			<rect x="110.8" y="56.61" class="st0" width="9.04" height="9.04"/>
			<rect x="110.8" y="47.6" class="st0" width="9.04" height="9.01"/>
			<rect x="101.76" y="192.05" class="st1" width="9.04" height="9.04"/>
			<rect x="101.76" y="183.04" class="st1" width="9.04" height="9.01"/>
			<rect x="101.76" y="174" class="st1" width="9.04" height="9.04"/>
			<rect x="101.76" y="164.97" class="st1" width="9.04" height="9.04"/>
			<rect x="101.76" y="155.95" class="st1" width="9.04" height="9.01"/>
			<rect x="101.76" y="146.91" class="st1" width="9.04" height="9.04"/>
			<rect x="101.76" y="137.88" class="st1" width="9.04" height="9.04"/>
			<rect x="101.76" y="128.86" class="st1" width="9.04" height="9.01"/>
			<rect x="101.76" y="119.83" class="st1" width="9.04" height="9.04"/>
			<rect x="101.76" y="110.79" class="st1" width="9.04" height="9.04"/>
			<rect x="101.76" y="101.77" class="st0" width="9.04" height="9.01"/>
			<rect x="101.76" y="92.74" class="st2" width="9.04" height="9.04"/>
			<rect x="101.76" y="83.7" class="st2" width="9.04" height="9.04"/>
			<rect x="101.76" y="74.68" class="st2" width="9.04" height="9.01"/>
			<rect x="101.76" y="65.65" class="st1" width="9.04" height="9.04"/>
			<rect x="101.76" y="56.61" class="st1" width="9.04" height="9.04"/>
			<rect x="101.76" y="47.6" class="st0" width="9.04" height="9.01"/>
			<rect x="101.76" y="38.56" class="st0" width="9.04" height="9.04"/>
			<rect x="92.75" y="192.05" class="st1" width="9.01" height="9.04"/>
			<rect x="92.75" y="146.91" class="st2" width="9.01" height="9.04"/>
			<rect x="92.75" y="137.88" class="st2" width="9.01" height="9.04"/>
			<rect x="92.75" y="128.86" class="st1" width="9.01" height="9.01"/>
			<rect x="92.75" y="119.83" class="st1" width="9.01" height="9.04"/>
			<rect x="92.75" y="110.79" class="st0" width="9.01" height="9.04"/>
			<rect x="92.75" y="101.77" class="st2" width="9.01" height="9.01"/>
			<rect x="92.75" y="92.74" class="st2" width="9.01" height="9.04"/>
			<rect x="92.75" y="83.7" class="st2" width="9.01" height="9.04"/>
			<rect x="92.75" y="74.68" class="st2" width="9.01" height="9.01"/>
			<rect x="92.75" y="65.65" class="st4" width="9.01" height="9.04"/>
			<rect x="92.75" y="56.61" class="st1" width="9.01" height="9.04"/>
			<rect x="92.75" y="47.6" class="st1" width="9.01" height="9.01"/>
			<rect x="83.71" y="137.88" class="st2" width="9.04" height="9.04"/>
			<rect x="83.71" y="128.86" class="st2" width="9.04" height="9.01"/>
			<rect x="83.71" y="119.83" class="st1" width="9.04" height="9.04"/>
			<rect x="83.71" y="110.79" class="st0" width="9.04" height="9.04"/>
			<rect x="83.71" y="101.77" class="st2" width="9.04" height="9.01"/>
			<rect x="83.71" y="92.74" class="st2" width="9.04" height="9.04"/>
			<rect x="83.71" y="83.7" class="st4" width="9.04" height="9.04"/>
			<rect x="83.71" y="74.68" class="st1" width="9.04" height="9.01"/>
			<rect x="83.71" y="65.65" class="st1" width="9.04" height="9.04"/>
			<rect x="83.71" y="56.61" class="st1" width="9.04" height="9.04"/>
			<rect x="83.71" y="47.6" class="st1" width="9.04" height="9.01"/>
			<rect x="74.67" y="192.05" class="st0" width="9.04" height="9.04"/>
			<rect x="74.67" y="183.04" class="st0" width="9.04" height="9.01"/>
			<rect x="74.67" y="174" class="st0" width="9.04" height="9.04"/>
			<rect x="74.67" y="164.97" class="st0" width="9.04" height="9.04"/>
			<rect x="74.67" y="155.95" class="st0" width="9.04" height="9.01"/>
			<rect x="74.67" y="146.91" class="st0" width="9.04" height="9.04"/>
			<rect x="74.67" y="137.88" class="st1" width="9.04" height="9.04"/>
			<rect x="74.67" y="128.86" class="st1" width="9.04" height="9.01"/>
			<rect x="74.67" y="119.83" class="st1" width="9.04" height="9.04"/>
			<rect x="74.67" y="110.79" class="st0" width="9.04" height="9.04"/>
			<rect x="74.67" y="101.77" class="st2" width="9.04" height="9.01"/>
			<rect x="74.67" y="92.74" class="st2" width="9.04" height="9.04"/>
			<rect x="74.67" y="83.7" class="st2" width="9.04" height="9.04"/>
			<rect x="74.67" y="74.68" class="st2" width="9.04" height="9.01"/>
			<rect x="74.67" y="65.65" class="st4" width="9.04" height="9.04"/>
			<rect x="74.67" y="56.61" class="st1" width="9.04" height="9.04"/>
			<rect x="74.67" y="47.6" class="st1" width="9.04" height="9.01"/>
			<rect x="65.66" y="192.05" class="st0" width="9.01" height="9.04"/>
			<rect x="65.66" y="101.77" class="st0" width="9.01" height="9.01"/>
			<rect x="65.66" y="92.74" class="st2" width="9.01" height="9.04"/>
			<rect x="65.66" y="83.7" class="st2" width="9.01" height="9.04"/>
			<rect x="65.66" y="74.68" class="st2" width="9.01" height="9.01"/>
			<rect x="65.66" y="65.65" class="st1" width="9.01" height="9.04"/>
			<rect x="65.66" y="56.61" class="st1" width="9.01" height="9.04"/>
			<rect x="65.66" y="47.6" class="st0" width="9.01" height="9.01"/>
			<rect x="65.66" y="38.56" class="st0" width="9.01" height="9.04"/>
			<rect x="56.62" y="56.61" class="st0" width="9.04" height="9.04"/>
			<rect x="56.62" y="47.6" class="st0" width="9.04" height="9.01"/>
		</g>
	</g>
</g>
</svg>
