<?xml version="1.0" encoding="utf-8"?>
<!-- Generator: Adobe Illustrator 30.0.0, SVG Export Plug-In . SVG Version: 9.03 Build 0)  -->
<svg version="1.1" id="Layer_1" xmlns="http://www.w3.org/2000/svg" xmlns:xlink="http://www.w3.org/1999/xlink" x="0px" y="0px"
	 viewBox="0 0 240 240" style="enable-background:new 0 0 240 240;" xml:space="preserve">
<style type="text/css">
	.st0{fill:#A0640E;}
	.st1{fill:#FFFFFF;}
	.st2{fill:#FFA022;}
	.st3{fill:#141013;}
</style>
<polygon class="st0" points="151.15,198.4 151.15,188.02 140.77,188.02 130.38,188.02 130.38,198.4 140.77,198.4 "/>
<polygon class="st0" points="88.85,198.4 99.23,198.4 109.62,198.4 109.62,188.02 99.23,188.02 88.85,188.02 "/>
<rect x="151.15" y="177.64" class="st0" width="10.38" height="10.38"/>
<rect x="78.46" y="177.64" class="st0" width="10.38" height="10.38"/>
<rect x="151.15" y="156.87" class="st0" width="10.38" height="10.38"/>
<rect x="78.46" y="156.87" class="st0" width="10.38" height="10.38"/>
<rect x="161.54" y="136.1" class="st1" width="10.38" height="10.38"/>
<rect x="68.08" y="136.1" class="st1" width="10.38" height="10.38"/>
<polygon class="st1" points="171.92,125.71 171.92,136.1 182.31,136.1 192.69,136.1 192.69,125.71 182.31,125.71 "/>
<polygon class="st1" points="68.08,125.71 57.69,125.71 47.31,125.71 47.31,136.1 57.69,136.1 68.08,136.1 "/>
<rect x="182.31" y="104.94" class="st1" width="10.38" height="10.38"/>
<rect x="47.31" y="104.94" class="st1" width="10.38" height="10.38"/>
<polygon class="st1" points="171.92,73.79 171.92,63.4 171.92,53.02 161.54,53.02 161.54,63.4 151.15,63.4 151.15,73.79 
	161.54,73.79 "/>
<polygon class="st1" points="88.85,73.79 88.85,63.4 78.46,63.4 78.46,53.02 68.08,53.02 68.08,63.4 68.08,73.79 78.46,73.79 "/>
<polygon class="st2" points="140.77,156.87 130.38,156.87 120,156.87 109.62,156.87 99.23,156.87 88.85,156.87 88.85,167.25 
	78.46,167.25 78.46,177.64 88.85,177.64 88.85,188.02 99.23,188.02 109.62,188.02 120,188.02 130.38,188.02 140.77,188.02 
	151.15,188.02 151.15,177.64 161.54,177.64 161.54,167.25 151.15,167.25 151.15,156.87 "/>
<path class="st2" d="M171.92,73.79h-10.38h-10.38V63.4h10.38V53.02h10.38V42.63h-10.38h-10.38v10.38h-10.38V63.4H130.4H120h-10.38
	H99.23V53.02H88.85V42.63H78.46H68.08v10.38h10.38V63.4h10.38v10.38H78.46H68.08v10.38H57.69v10.38v10.38v10.38v10.38h10.38v10.38
	h10.38v10.38h10.38h10.38h10.38H120h10.38h10.38h10.38h10.38V136.1h10.38v-10.38h10.38v-10.38v-10.38v-10.4V84.17H171.9V73.79
	H171.92z M78.46,115.33v-10.38h10.38h10.38v10.38v10.38H88.85H78.46V115.33z M120,136.1h-10.38v-10.38H120h10.38v10.38H120z
	 M151.15,125.71h-10.38v-10.38v-10.38h10.38h10.38v10.38v10.38H151.15z"/>
<rect x="151.15" y="188.02" class="st3" width="10.38" height="10.38"/>
<polygon class="st3" points="130.38,198.4 130.38,188.02 120,188.02 109.62,188.02 109.62,198.4 120,198.4 "/>
<rect x="78.46" y="188.02" class="st3" width="10.38" height="10.38"/>
<polygon class="st3" points="151.15,146.48 140.77,146.48 130.38,146.48 120,146.48 109.62,146.48 99.23,146.48 88.85,146.48 
	78.46,146.48 68.08,146.48 68.08,156.87 68.08,167.25 68.08,177.64 68.08,188.02 78.46,188.02 78.46,177.64 78.46,167.25 
	78.46,156.87 88.85,156.87 99.23,156.87 109.62,156.87 120,156.87 130.38,156.87 140.77,156.87 151.15,156.87 161.54,156.87 
	161.54,167.25 161.54,177.64 161.54,188.02 171.92,188.02 171.92,177.64 171.92,167.25 171.92,156.87 171.92,146.48 161.54,146.48 
	"/>
<polygon class="st3" points="171.92,136.1 171.92,146.48 182.31,146.48 192.69,146.48 192.69,136.1 182.31,136.1 "/>
<polygon class="st3" points="57.69,136.1 47.31,136.1 47.31,146.48 57.69,146.48 68.08,146.48 68.08,136.1 "/>
<rect x="192.69" y="125.71" class="st3" width="10.38" height="10.38"/>
<polygon class="st3" points="109.62,125.71 109.62,136.1 120,136.1 130.38,136.1 130.38,125.71 120,125.71 "/>
<rect x="36.92" y="125.71" class="st3" width="10.38" height="10.38"/>
<rect x="182.31" y="115.33" class="st3" width="10.38" height="10.38"/>
<rect x="47.31" y="115.33" class="st3" width="10.38" height="10.38"/>
<rect x="192.69" y="104.94" class="st3" width="10.38" height="10.38"/>
<polygon class="st3" points="140.77,104.94 140.77,115.33 140.77,125.71 151.15,125.71 161.54,125.71 161.54,115.33 161.54,104.94 
	151.15,104.94 "/>
<polygon class="st3" points="78.46,104.94 78.46,115.33 78.46,125.71 88.85,125.71 99.23,125.71 99.23,115.33 99.23,104.94 
	88.85,104.94 "/>
<rect x="36.92" y="104.94" class="st3" width="10.38" height="10.38"/>
<polygon class="st3" points="182.31,104.94 192.69,104.94 192.69,94.56 192.69,84.17 182.31,84.17 182.31,94.56 "/>
<polygon class="st3" points="57.69,94.56 57.69,84.17 47.31,84.17 47.31,94.56 47.31,104.94 57.69,104.94 "/>
<polygon class="st3" points="68.08,73.79 68.08,63.4 68.08,53.02 68.08,42.63 78.46,42.63 88.85,42.63 88.85,32.25 78.46,32.25 
	68.08,32.25 57.69,32.25 57.69,42.63 57.69,53.02 57.69,63.4 57.69,73.79 57.69,84.17 68.08,84.17 "/>
<polygon class="st3" points="109.62,63.4 120,63.4 130.38,63.4 140.77,63.4 140.77,53.02 130.38,53.02 120,53.02 109.62,53.02 
	99.23,53.02 99.23,63.4 "/>
<rect x="140.77" y="42.63" class="st3" width="10.38" height="10.38"/>
<rect x="88.85" y="42.63" class="st3" width="10.38" height="10.38"/>
<polygon class="st3" points="171.92,42.63 171.92,53.02 171.92,63.4 171.92,73.79 171.92,84.17 182.31,84.17 182.31,73.79 
	182.31,63.4 182.31,53.02 182.31,42.63 182.31,32.25 171.92,32.25 161.54,32.25 151.15,32.25 151.15,42.63 161.54,42.63 "/>
<rect x="78.46" y="198.4" class="st3" width="83.08" height="9.35"/>
</svg>
