<?xml version="1.0" encoding="utf-8"?>
<!-- Generator: Adobe Illustrator 30.0.0, SVG Export Plug-In . SVG Version: 9.03 Build 0)  -->
<svg version="1.1" id="Layer_1" xmlns="http://www.w3.org/2000/svg" xmlns:xlink="http://www.w3.org/1999/xlink" x="0px" y="0px"
	 viewBox="0 0 240 240" style="enable-background:new 0 0 240 240;" xml:space="preserve">
<style type="text/css">
	.st0{fill:#B24A01;}
	.st1{fill:#F4C97B;}
	.st2{fill:#FF7463;}
	.st3{fill:#E45642;}
	.st4{fill:#863601;}
	.st5{fill:#CA5301;}
	.st6{fill:#FF9680;}
	.st7{fill:#FDD687;}
	.st8{fill:#FFE69B;}
	.st9{fill:#FFF4D6;}
	.st10{fill:#FEBEB5;}
	.st11{fill:#FFF1CE;}
	.st12{fill:#A01B08;}
	.st13{fill:#FFDBC5;}
</style>
<g>
	<rect x="23.69" y="209.61" class="st0" width="6.42" height="6.4"/>
	<rect x="81.48" y="190.41" class="st1" width="6.42" height="6.4"/>
	<rect x="107.16" y="184.01" class="st1" width="6.42" height="6.4"/>
	<rect x="75.05" y="184.01" class="st2" width="6.42" height="6.4"/>
	<rect x="68.63" y="184.01" class="st2" width="6.42" height="6.4"/>
	<g>
		<g>
			<rect x="75.05" y="190.41" class="st3" width="6.42" height="6.4"/>
			<rect x="68.63" y="190.41" class="st3" width="6.42" height="6.4"/>
			<rect x="62.21" y="190.41" class="st3" width="6.42" height="6.4"/>
			<rect x="62.21" y="184.01" class="st3" width="6.42" height="6.4"/>
		</g>
	</g>
	<g>
		<g>
			<rect x="30.11" y="209.61" class="st4" width="6.42" height="6.4"/>
			<rect x="36.53" y="203.21" class="st4" width="6.42" height="6.4"/>
			<rect x="42.95" y="196.81" class="st4" width="6.42" height="6.4"/>
			<rect x="49.37" y="190.41" class="st4" width="6.42" height="6.4"/>
			<rect x="55.79" y="184.01" class="st4" width="6.42" height="6.4"/>
		</g>
	</g>
	<g>
		<g>
			<rect x="30.11" y="203.21" class="st5" width="6.42" height="6.4"/>
			<rect x="23.69" y="203.21" class="st5" width="6.42" height="6.4"/>
			<rect x="36.53" y="196.81" class="st5" width="6.42" height="6.4"/>
			<rect x="30.11" y="196.81" class="st5" width="6.42" height="6.4"/>
			<rect x="42.95" y="190.41" class="st5" width="6.42" height="6.4"/>
			<rect x="36.53" y="190.41" class="st5" width="6.42" height="6.4"/>
			<rect x="42.95" y="184.01" class="st5" width="6.42" height="6.4"/>
		</g>
	</g>
	<rect x="113.58" y="177.61" class="st1" width="6.42" height="6.4"/>
	<rect x="75.05" y="177.61" class="st2" width="6.42" height="6.4"/>
	<rect x="68.63" y="177.61" class="st2" width="6.42" height="6.4"/>
	<rect x="62.21" y="177.61" class="st2" width="6.42" height="6.4"/>
	<g>
		<g>
			<rect x="49.37" y="184.01" class="st0" width="6.42" height="6.4"/>
			<rect x="55.79" y="177.61" class="st0" width="6.42" height="6.4"/>
			<rect x="49.37" y="177.61" class="st0" width="6.42" height="6.4"/>
		</g>
	</g>
	<rect x="120" y="171.21" class="st1" width="6.42" height="6.4"/>
	<rect x="75.05" y="171.21" class="st6" width="6.42" height="6.4"/>
	<rect x="62.21" y="171.21" class="st2" width="6.42" height="6.4"/>
	<rect x="55.79" y="171.21" class="st2" width="6.42" height="6.4"/>
	<rect x="49.37" y="171.21" class="st3" width="6.42" height="6.4"/>
	<rect x="42.95" y="171.21" class="st3" width="6.42" height="6.4"/>
	<rect x="55.79" y="164.81" class="st2" width="6.42" height="6.4"/>
	<rect x="49.37" y="164.81" class="st2" width="6.42" height="6.4"/>
	<rect x="42.95" y="164.81" class="st3" width="6.42" height="6.4"/>
	<rect x="49.37" y="158.4" class="st2" width="6.42" height="6.4"/>
	<rect x="42.95" y="158.4" class="st2" width="6.42" height="6.4"/>
	<rect x="36.53" y="158.4" class="st3" width="6.42" height="6.4"/>
	<g>
		<rect x="62.21" y="164.81" class="st6" width="6.42" height="6.4"/>
		<rect x="55.79" y="158.4" class="st6" width="6.42" height="6.4"/>
		<rect x="49.37" y="152" class="st6" width="6.42" height="6.4"/>
	</g>
	<rect x="42.95" y="152" class="st2" width="6.42" height="6.4"/>
	<rect x="36.53" y="152" class="st2" width="6.42" height="6.4"/>
	<g>
		<g>
			<g>
				<rect x="94.32" y="190.41" class="st1" width="6.42" height="6.4"/>
			</g>
			<g>
				<rect x="87.9" y="190.41" class="st1" width="6.42" height="6.4"/>
			</g>
			<rect x="100.74" y="184.01" class="st7" width="6.42" height="6.4"/>
			<rect x="94.32" y="184.01" class="st7" width="6.42" height="6.4"/>
			<rect x="87.9" y="184.01" class="st7" width="6.42" height="6.4"/>
			<rect x="81.48" y="184.01" class="st7" width="6.42" height="6.4"/>
			<rect x="107.16" y="177.61" class="st7" width="6.42" height="6.4"/>
			<rect x="100.74" y="177.61" class="st7" width="6.42" height="6.4"/>
			<rect x="81.48" y="177.61" class="st7" width="6.42" height="6.4"/>
			<rect x="113.58" y="171.21" class="st7" width="6.42" height="6.4"/>
			<rect x="94.32" y="171.21" class="st7" width="6.42" height="6.4"/>
			<rect x="87.9" y="171.21" class="st7" width="6.42" height="6.4"/>
			<rect x="81.48" y="171.21" class="st7" width="6.42" height="6.4"/>
			<rect x="120" y="164.81" class="st7" width="6.42" height="6.4"/>
			<rect x="113.58" y="164.81" class="st7" width="6.42" height="6.4"/>
			<rect x="100.74" y="164.81" class="st7" width="6.42" height="6.4"/>
			<rect x="120" y="158.4" class="st7" width="6.42" height="6.4"/>
			<rect x="107.16" y="158.4" class="st7" width="6.42" height="6.4"/>
			<rect x="120" y="152" class="st7" width="6.42" height="6.4"/>
			<rect x="107.16" y="152" class="st7" width="6.42" height="6.4"/>
			<rect x="120" y="145.6" class="st7" width="6.42" height="6.4"/>
			<rect x="113.58" y="145.6" class="st7" width="6.42" height="6.4"/>
			<rect x="107.16" y="145.6" class="st7" width="6.42" height="6.4"/>
		</g>
	</g>
	<g>
		<g>
			<rect x="94.32" y="164.81" class="st8" width="6.42" height="6.4"/>
			<rect x="87.9" y="164.81" class="st8" width="6.42" height="6.4"/>
			<rect x="81.48" y="164.81" class="st8" width="6.42" height="6.4"/>
			<rect x="100.74" y="158.4" class="st8" width="6.42" height="6.4"/>
			<rect x="94.32" y="158.4" class="st8" width="6.42" height="6.4"/>
			<rect x="87.9" y="158.4" class="st8" width="6.42" height="6.4"/>
			<rect x="81.48" y="158.4" class="st8" width="6.42" height="6.4"/>
			<rect x="100.74" y="152" class="st8" width="6.42" height="6.4"/>
			<rect x="94.32" y="152" class="st8" width="6.42" height="6.4"/>
			<rect x="87.9" y="152" class="st8" width="6.42" height="6.4"/>
			<rect x="81.48" y="152" class="st8" width="6.42" height="6.4"/>
			<rect x="100.74" y="145.6" class="st8" width="6.42" height="6.4"/>
			<rect x="94.32" y="145.6" class="st8" width="6.42" height="6.4"/>
			<rect x="87.9" y="145.6" class="st8" width="6.42" height="6.4"/>
		</g>
	</g>
	<g>
		<g>
			<rect x="36.53" y="145.6" class="st6" width="6.42" height="6.4"/>
			<rect x="42.95" y="139.2" class="st6" width="6.42" height="6.4"/>
			<rect x="36.53" y="139.2" class="st6" width="6.42" height="6.4"/>
		</g>
	</g>
	<rect x="120" y="132.8" class="st3" width="6.42" height="6.4"/>
	<g>
		<g>
			<rect x="139.26" y="145.6" class="st1" width="6.42" height="6.4"/>
			<rect x="132.84" y="145.6" class="st1" width="6.42" height="6.4"/>
			<rect x="126.42" y="145.6" class="st1" width="6.42" height="6.4"/>
			<rect x="152.1" y="139.2" class="st1" width="6.42" height="6.4"/>
			<rect x="120" y="139.2" class="st1" width="6.42" height="6.4"/>
			<rect x="158.52" y="132.8" class="st1" width="6.42" height="6.4"/>
			<rect x="164.95" y="126.4" class="st1" width="6.42" height="6.4"/>
		</g>
	</g>
	<rect x="120" y="126.4" class="st2" width="6.42" height="6.4"/>
	<rect x="113.58" y="126.4" class="st3" width="6.42" height="6.4"/>
	<g>
		<g>
			<rect x="113.58" y="139.2" class="st6" width="6.42" height="6.4"/>
			<rect x="113.58" y="132.8" class="st6" width="6.42" height="6.4"/>
			<rect x="107.16" y="126.4" class="st6" width="6.42" height="6.4"/>
		</g>
	</g>
	<g>
		<g>
			<rect x="49.37" y="145.6" class="st9" width="6.42" height="6.4"/>
			<rect x="42.95" y="145.6" class="st9" width="6.42" height="6.4"/>
			<rect x="107.16" y="139.2" class="st9" width="6.42" height="6.4"/>
			<rect x="62.21" y="139.2" class="st9" width="6.42" height="6.4"/>
			<rect x="107.16" y="132.8" class="st9" width="6.42" height="6.4"/>
			<rect x="100.74" y="132.8" class="st9" width="6.42" height="6.4"/>
			<rect x="68.63" y="132.8" class="st9" width="6.42" height="6.4"/>
			<rect x="81.48" y="126.4" class="st9" width="6.42" height="6.4"/>
			<rect x="75.05" y="126.4" class="st9" width="6.42" height="6.4"/>
		</g>
	</g>
	<rect x="107.16" y="120" class="st2" width="6.42" height="6.4"/>
	<rect x="100.74" y="120" class="st3" width="6.42" height="6.4"/>
	<rect x="100.74" y="113.6" class="st2" width="6.42" height="6.4"/>
	<rect x="94.32" y="113.6" class="st3" width="6.42" height="6.4"/>
	<g>
		<g>
			<rect x="68.63" y="171.21" class="st6" width="6.42" height="6.4"/>
			<rect x="75.05" y="164.81" class="st10" width="6.42" height="6.4"/>
			<rect x="68.63" y="164.81" class="st10" width="6.42" height="6.4"/>
			<rect x="75.05" y="158.4" class="st10" width="6.42" height="6.4"/>
			<rect x="68.63" y="158.4" class="st10" width="6.42" height="6.4"/>
			<rect x="62.21" y="158.4" class="st10" width="6.42" height="6.4"/>
			<rect x="75.05" y="152" class="st10" width="6.42" height="6.4"/>
			<rect x="62.21" y="152" class="st10" width="6.42" height="6.4"/>
			<rect x="55.79" y="152" class="st10" width="6.42" height="6.4"/>
			<rect x="75.05" y="145.6" class="st10" width="6.42" height="6.4"/>
			<rect x="68.63" y="145.6" class="st10" width="6.42" height="6.4"/>
			<rect x="62.21" y="145.6" class="st10" width="6.42" height="6.4"/>
			<rect x="55.79" y="145.6" class="st10" width="6.42" height="6.4"/>
			<rect x="100.74" y="139.2" class="st10" width="6.42" height="6.4"/>
			<rect x="94.32" y="139.2" class="st10" width="6.42" height="6.4"/>
			<rect x="87.9" y="139.2" class="st10" width="6.42" height="6.4"/>
			<rect x="81.48" y="139.2" class="st10" width="6.42" height="6.4"/>
			<rect x="75.05" y="139.2" class="st10" width="6.42" height="6.4"/>
			<rect x="55.79" y="139.2" class="st10" width="6.42" height="6.4"/>
			<rect x="49.37" y="139.2" class="st10" width="6.42" height="6.4"/>
			<rect x="94.32" y="132.8" class="st10" width="6.42" height="6.4"/>
			<rect x="81.48" y="132.8" class="st10" width="6.42" height="6.4"/>
			<rect x="100.74" y="126.4" class="st10" width="6.42" height="6.4"/>
			<rect x="94.32" y="126.4" class="st10" width="6.42" height="6.4"/>
			<rect x="87.9" y="126.4" class="st10" width="6.42" height="6.4"/>
			<rect x="94.32" y="120" class="st10" width="6.42" height="6.4"/>
			<rect x="87.9" y="120" class="st10" width="6.42" height="6.4"/>
			<rect x="81.48" y="120" class="st10" width="6.42" height="6.4"/>
			<rect x="87.9" y="113.6" class="st10" width="6.42" height="6.4"/>
			<rect x="81.48" y="113.6" class="st10" width="6.42" height="6.4"/>
		</g>
	</g>
	<rect x="94.32" y="107.2" class="st6" width="6.42" height="6.4"/>
	<rect x="87.9" y="107.2" class="st2" width="6.42" height="6.4"/>
	<rect x="81.48" y="107.2" class="st3" width="6.42" height="6.4"/>
	<g>
		<rect x="145.68" y="139.2" class="st7" width="6.42" height="6.4"/>
		<rect x="139.26" y="139.2" class="st7" width="6.42" height="6.4"/>
		<rect x="132.84" y="139.2" class="st7" width="6.42" height="6.4"/>
		<rect x="126.42" y="139.2" class="st7" width="6.42" height="6.4"/>
		<rect x="152.1" y="132.8" class="st7" width="6.42" height="6.4"/>
		<rect x="145.68" y="132.8" class="st7" width="6.42" height="6.4"/>
		<rect x="126.42" y="132.8" class="st7" width="6.42" height="6.4"/>
		<rect x="158.52" y="126.4" class="st7" width="6.42" height="6.4"/>
		<rect x="139.26" y="126.4" class="st7" width="6.42" height="6.4"/>
		<rect x="132.84" y="126.4" class="st7" width="6.42" height="6.4"/>
		<rect x="126.42" y="126.4" class="st7" width="6.42" height="6.4"/>
		<rect x="164.95" y="120" class="st7" width="6.42" height="6.4"/>
		<rect x="158.52" y="120" class="st7" width="6.42" height="6.4"/>
		<rect x="145.68" y="120" class="st7" width="6.42" height="6.4"/>
		<rect x="164.95" y="113.6" class="st7" width="6.42" height="6.4"/>
		<rect x="152.1" y="113.6" class="st7" width="6.42" height="6.4"/>
		<rect x="164.95" y="107.2" class="st7" width="6.42" height="6.4"/>
		<rect x="152.1" y="107.2" class="st7" width="6.42" height="6.4"/>
		<rect x="164.95" y="100.8" class="st7" width="6.42" height="6.4"/>
		<rect x="158.52" y="100.8" class="st7" width="6.42" height="6.4"/>
		<rect x="152.1" y="100.8" class="st7" width="6.42" height="6.4"/>
	</g>
	<g>
		<rect x="139.26" y="120" class="st8" width="6.42" height="6.4"/>
		<rect x="132.84" y="120" class="st8" width="6.42" height="6.4"/>
		<rect x="126.42" y="120" class="st8" width="6.42" height="6.4"/>
		<rect x="145.68" y="113.6" class="st8" width="6.42" height="6.4"/>
		<rect x="139.26" y="113.6" class="st8" width="6.42" height="6.4"/>
		<rect x="132.84" y="113.6" class="st8" width="6.42" height="6.4"/>
		<rect x="126.42" y="113.6" class="st8" width="6.42" height="6.4"/>
		<rect x="145.68" y="107.2" class="st8" width="6.42" height="6.4"/>
		<rect x="139.26" y="107.2" class="st8" width="6.42" height="6.4"/>
		<rect x="132.84" y="107.2" class="st8" width="6.42" height="6.4"/>
		<rect x="126.42" y="107.2" class="st8" width="6.42" height="6.4"/>
		<rect x="145.68" y="100.8" class="st8" width="6.42" height="6.4"/>
		<rect x="139.26" y="100.8" class="st8" width="6.42" height="6.4"/>
		<rect x="132.84" y="100.8" class="st8" width="6.42" height="6.4"/>
	</g>
	<g>
		<rect x="81.48" y="100.8" class="st6" width="6.42" height="6.4"/>
		<rect x="87.9" y="94.4" class="st6" width="6.42" height="6.4"/>
		<rect x="81.48" y="94.4" class="st6" width="6.42" height="6.4"/>
	</g>
	<rect x="164.95" y="88" class="st3" width="6.42" height="6.4"/>
	<g>
		<rect x="184.21" y="100.8" class="st1" width="6.42" height="6.4"/>
		<rect x="177.79" y="100.8" class="st1" width="6.42" height="6.4"/>
		<rect x="171.37" y="100.8" class="st1" width="6.42" height="6.4"/>
		<rect x="197.05" y="94.4" class="st1" width="6.42" height="6.4"/>
		<rect x="164.95" y="94.4" class="st1" width="6.42" height="6.4"/>
		<rect x="203.47" y="88" class="st1" width="6.42" height="6.4"/>
		<rect x="209.89" y="81.6" class="st1" width="6.42" height="6.4"/>
	</g>
	<rect x="164.95" y="81.6" class="st2" width="6.42" height="6.4"/>
	<rect x="158.52" y="81.6" class="st3" width="6.42" height="6.4"/>
	<rect x="152.1" y="75.19" class="st2" width="6.42" height="6.4"/>
	<rect x="145.68" y="75.19" class="st3" width="6.42" height="6.4"/>
	<rect x="139.26" y="75.19" class="st10" width="6.42" height="6.4"/>
	<rect x="145.68" y="68.79" class="st2" width="6.42" height="6.4"/>
	<rect x="139.26" y="68.79" class="st3" width="6.42" height="6.4"/>
	<rect x="132.84" y="68.79" class="st10" width="6.42" height="6.4"/>
	<g>
		<rect x="120" y="120" class="st6" width="6.42" height="6.4"/>
		<rect x="113.58" y="120" class="st6" width="6.42" height="6.4"/>
		<rect x="120" y="113.6" class="st10" width="6.42" height="6.4"/>
		<rect x="113.58" y="113.6" class="st10" width="6.42" height="6.4"/>
		<rect x="107.16" y="113.6" class="st6" width="6.42" height="6.4"/>
		<rect x="120" y="107.2" class="st10" width="6.42" height="6.4"/>
		<rect x="107.16" y="107.2" class="st10" width="6.42" height="6.4"/>
		<rect x="100.74" y="107.2" class="st6" width="6.42" height="6.4"/>
		<rect x="120" y="100.8" class="st10" width="6.42" height="6.4"/>
		<rect x="113.58" y="100.8" class="st10" width="6.42" height="6.4"/>
		<rect x="107.16" y="100.8" class="st10" width="6.42" height="6.4"/>
		<rect x="100.74" y="100.8" class="st10" width="6.42" height="6.4"/>
		<rect x="145.68" y="94.4" class="st10" width="6.42" height="6.4"/>
		<rect x="139.26" y="94.4" class="st10" width="6.42" height="6.4"/>
		<rect x="132.84" y="94.4" class="st10" width="6.42" height="6.4"/>
		<rect x="126.42" y="94.4" class="st10" width="6.42" height="6.4"/>
		<rect x="120" y="94.4" class="st10" width="6.42" height="6.4"/>
		<rect x="100.74" y="94.4" class="st10" width="6.42" height="6.4"/>
		<rect x="94.32" y="94.4" class="st10" width="6.42" height="6.4"/>
		<rect x="139.26" y="88" class="st10" width="6.42" height="6.4"/>
		<rect x="126.42" y="88" class="st10" width="6.42" height="6.4"/>
		<rect x="145.68" y="81.6" class="st10" width="6.42" height="6.4"/>
		<rect x="139.26" y="81.6" class="st10" width="6.42" height="6.4"/>
		<rect x="132.84" y="81.6" class="st10" width="6.42" height="6.4"/>
		<rect x="132.84" y="75.19" class="st10" width="6.42" height="6.4"/>
		<rect x="126.42" y="75.19" class="st10" width="6.42" height="6.4"/>
		<rect x="126.42" y="68.79" class="st10" width="6.42" height="6.4"/>
	</g>
	<g>
		<rect x="94.32" y="177.61" class="st11" width="6.42" height="6.4"/>
		<rect x="87.9" y="177.61" class="st11" width="6.42" height="6.4"/>
		<rect x="107.16" y="171.21" class="st11" width="6.42" height="6.4"/>
		<rect x="100.74" y="171.21" class="st11" width="6.42" height="6.4"/>
		<rect x="107.16" y="164.81" class="st11" width="6.42" height="6.4"/>
		<rect x="113.58" y="158.4" class="st11" width="6.42" height="6.4"/>
		<rect x="113.58" y="152" class="st11" width="6.42" height="6.4"/>
		<rect x="139.26" y="132.8" class="st11" width="6.42" height="6.4"/>
		<rect x="132.84" y="132.8" class="st11" width="6.42" height="6.4"/>
		<rect x="152.1" y="126.4" class="st11" width="6.42" height="6.4"/>
		<rect x="145.68" y="126.4" class="st11" width="6.42" height="6.4"/>
		<rect x="152.1" y="120" class="st11" width="6.42" height="6.4"/>
		<rect x="158.52" y="113.6" class="st11" width="6.42" height="6.4"/>
		<rect x="158.52" y="107.2" class="st11" width="6.42" height="6.4"/>
		<rect x="184.21" y="88" class="st11" width="6.42" height="6.4"/>
		<rect x="177.79" y="88" class="st11" width="6.42" height="6.4"/>
		<rect x="197.05" y="81.6" class="st11" width="6.42" height="6.4"/>
		<rect x="190.63" y="81.6" class="st11" width="6.42" height="6.4"/>
		<rect x="197.05" y="75.19" class="st11" width="6.42" height="6.4"/>
		<rect x="203.47" y="68.79" class="st11" width="6.42" height="6.4"/>
		<rect x="203.47" y="62.39" class="st11" width="6.42" height="6.4"/>
	</g>
	<rect x="139.26" y="62.39" class="st6" width="6.42" height="6.4"/>
	<rect x="132.84" y="62.39" class="st2" width="6.42" height="6.4"/>
	<rect x="126.42" y="62.39" class="st3" width="6.42" height="6.4"/>
	<g>
		<rect x="190.63" y="94.4" class="st7" width="6.42" height="6.4"/>
		<rect x="184.21" y="94.4" class="st7" width="6.42" height="6.4"/>
		<rect x="177.79" y="94.4" class="st7" width="6.42" height="6.4"/>
		<rect x="171.37" y="94.4" class="st7" width="6.42" height="6.4"/>
		<rect x="197.05" y="88" class="st7" width="6.42" height="6.4"/>
		<rect x="190.63" y="88" class="st7" width="6.42" height="6.4"/>
		<rect x="171.37" y="88" class="st7" width="6.42" height="6.4"/>
		<rect x="203.47" y="81.6" class="st7" width="6.42" height="6.4"/>
		<rect x="184.21" y="81.6" class="st7" width="6.42" height="6.4"/>
		<rect x="177.79" y="81.6" class="st7" width="6.42" height="6.4"/>
		<rect x="171.37" y="81.6" class="st7" width="6.42" height="6.4"/>
		<rect x="209.89" y="75.19" class="st7" width="6.42" height="6.4"/>
		<rect x="203.47" y="75.19" class="st7" width="6.42" height="6.4"/>
		<rect x="190.63" y="75.19" class="st7" width="6.42" height="6.4"/>
		<rect x="209.89" y="68.79" class="st7" width="6.42" height="6.4"/>
		<rect x="197.05" y="68.79" class="st7" width="6.42" height="6.4"/>
		<rect x="209.89" y="62.39" class="st7" width="6.42" height="6.4"/>
		<rect x="197.05" y="62.39" class="st7" width="6.42" height="6.4"/>
		<rect x="209.89" y="55.99" class="st7" width="6.42" height="6.4"/>
		<rect x="203.47" y="55.99" class="st7" width="6.42" height="6.4"/>
		<rect x="197.05" y="55.99" class="st7" width="6.42" height="6.4"/>
	</g>
	<g>
		<rect x="184.21" y="75.19" class="st8" width="6.42" height="6.4"/>
		<rect x="177.79" y="75.19" class="st8" width="6.42" height="6.4"/>
		<rect x="171.37" y="75.19" class="st8" width="6.42" height="6.4"/>
		<rect x="190.63" y="68.79" class="st8" width="6.42" height="6.4"/>
		<rect x="184.21" y="68.79" class="st8" width="6.42" height="6.4"/>
		<rect x="177.79" y="68.79" class="st8" width="6.42" height="6.4"/>
		<rect x="171.37" y="68.79" class="st8" width="6.42" height="6.4"/>
		<rect x="190.63" y="62.39" class="st8" width="6.42" height="6.4"/>
		<rect x="184.21" y="62.39" class="st8" width="6.42" height="6.4"/>
		<rect x="177.79" y="62.39" class="st8" width="6.42" height="6.4"/>
		<rect x="171.37" y="62.39" class="st8" width="6.42" height="6.4"/>
		<rect x="190.63" y="55.99" class="st8" width="6.42" height="6.4"/>
		<rect x="184.21" y="55.99" class="st8" width="6.42" height="6.4"/>
		<rect x="177.79" y="55.99" class="st8" width="6.42" height="6.4"/>
	</g>
	<g>
		<rect x="126.42" y="55.99" class="st6" width="6.42" height="6.4"/>
		<rect x="132.84" y="49.59" class="st6" width="6.42" height="6.4"/>
		<rect x="126.42" y="49.59" class="st6" width="6.42" height="6.4"/>
	</g>
	<g>
		<g>
			<rect x="68.63" y="152" class="st12" width="6.42" height="6.4"/>
			<rect x="81.48" y="145.6" class="st12" width="6.42" height="6.4"/>
			<rect x="87.9" y="132.8" class="st12" width="6.42" height="6.4"/>
			<rect x="113.58" y="107.2" class="st12" width="6.42" height="6.4"/>
			<rect x="126.42" y="100.8" class="st12" width="6.42" height="6.4"/>
			<rect x="132.84" y="88" class="st12" width="6.42" height="6.4"/>
			<rect x="158.52" y="62.39" class="st12" width="6.42" height="6.4"/>
			<rect x="171.37" y="55.99" class="st12" width="6.42" height="6.4"/>
			<rect x="177.79" y="43.19" class="st12" width="6.42" height="6.4"/>
		</g>
	</g>
	<g>
		<rect x="68.63" y="139.2" class="st13" width="6.42" height="6.4"/>
		<rect x="75.05" y="132.8" class="st13" width="6.42" height="6.4"/>
		<rect x="113.58" y="94.4" class="st13" width="6.42" height="6.4"/>
		<rect x="120" y="88" class="st13" width="6.42" height="6.4"/>
		<rect x="158.52" y="49.59" class="st13" width="6.42" height="6.4"/>
		<rect x="164.95" y="43.19" class="st13" width="6.42" height="6.4"/>
	</g>
	<g>
		<rect x="158.52" y="94.4" class="st6" width="6.42" height="6.4"/>
		<rect x="158.52" y="88" class="st6" width="6.42" height="6.4"/>
		<rect x="152.1" y="81.6" class="st6" width="6.42" height="6.4"/>
		<rect x="203.47" y="49.59" class="st6" width="6.42" height="6.4"/>
		<rect x="203.47" y="43.19" class="st6" width="6.42" height="6.4"/>
		<rect x="197.05" y="36.79" class="st6" width="6.42" height="6.4"/>
	</g>
	<g>
		<rect x="94.32" y="100.8" class="st9" width="6.42" height="6.4"/>
		<rect x="87.9" y="100.8" class="st9" width="6.42" height="6.4"/>
		<rect x="152.1" y="94.4" class="st9" width="6.42" height="6.4"/>
		<rect x="107.16" y="94.4" class="st9" width="6.42" height="6.4"/>
		<rect x="152.1" y="88" class="st9" width="6.42" height="6.4"/>
		<rect x="145.68" y="88" class="st9" width="6.42" height="6.4"/>
		<rect x="113.58" y="88" class="st9" width="6.42" height="6.4"/>
		<rect x="126.42" y="81.6" class="st9" width="6.42" height="6.4"/>
		<rect x="120" y="81.6" class="st9" width="6.42" height="6.4"/>
		<rect x="139.26" y="55.99" class="st9" width="6.42" height="6.4"/>
		<rect x="132.84" y="55.99" class="st9" width="6.42" height="6.4"/>
		<rect x="197.05" y="49.59" class="st9" width="6.42" height="6.4"/>
		<rect x="152.1" y="49.59" class="st9" width="6.42" height="6.4"/>
		<rect x="197.05" y="43.19" class="st9" width="6.42" height="6.4"/>
		<rect x="190.63" y="43.19" class="st9" width="6.42" height="6.4"/>
		<rect x="158.52" y="43.19" class="st9" width="6.42" height="6.4"/>
		<rect x="171.37" y="36.79" class="st9" width="6.42" height="6.4"/>
		<rect x="164.95" y="36.79" class="st9" width="6.42" height="6.4"/>
	</g>
	<rect x="177.79" y="23.99" class="st10" width="6.42" height="6.4"/>
	<g>
		<rect x="164.95" y="75.19" class="st6" width="6.42" height="6.4"/>
		<rect x="158.52" y="75.19" class="st6" width="6.42" height="6.4"/>
		<rect x="164.95" y="68.79" class="st10" width="6.42" height="6.4"/>
		<rect x="158.52" y="68.79" class="st10" width="6.42" height="6.4"/>
		<rect x="152.1" y="68.79" class="st6" width="6.42" height="6.4"/>
		<rect x="164.95" y="62.39" class="st10" width="6.42" height="6.4"/>
		<rect x="152.1" y="62.39" class="st10" width="6.42" height="6.4"/>
		<rect x="145.68" y="62.39" class="st6" width="6.42" height="6.4"/>
		<rect x="164.95" y="55.99" class="st10" width="6.42" height="6.4"/>
		<rect x="158.52" y="55.99" class="st10" width="6.42" height="6.4"/>
		<rect x="152.1" y="55.99" class="st10" width="6.42" height="6.4"/>
		<rect x="145.68" y="55.99" class="st10" width="6.42" height="6.4"/>
		<rect x="190.63" y="49.59" class="st10" width="6.42" height="6.4"/>
		<rect x="184.21" y="49.59" class="st10" width="6.42" height="6.4"/>
		<rect x="177.79" y="49.59" class="st10" width="6.42" height="6.4"/>
		<rect x="171.37" y="49.59" class="st10" width="6.42" height="6.4"/>
		<rect x="164.95" y="49.59" class="st10" width="6.42" height="6.4"/>
		<rect x="145.68" y="49.59" class="st10" width="6.42" height="6.4"/>
		<rect x="139.26" y="49.59" class="st10" width="6.42" height="6.4"/>
		<rect x="184.21" y="43.19" class="st10" width="6.42" height="6.4"/>
		<rect x="171.37" y="43.19" class="st10" width="6.42" height="6.4"/>
		<rect x="190.63" y="36.79" class="st10" width="6.42" height="6.4"/>
		<rect x="184.21" y="36.79" class="st10" width="6.42" height="6.4"/>
		<rect x="177.79" y="36.79" class="st10" width="6.42" height="6.4"/>
		<rect x="184.21" y="30.39" class="st10" width="6.42" height="6.4"/>
		<rect x="177.79" y="30.39" class="st10" width="6.42" height="6.4"/>
		<rect x="171.37" y="30.39" class="st10" width="6.42" height="6.4"/>
		<rect x="171.37" y="23.99" class="st10" width="6.42" height="6.4"/>
	</g>
	<g>
		<g>
			<g>
				<rect x="62.21" y="132.8" class="st6" width="6.42" height="6.4"/>
			</g>
			<g>
				<rect x="68.63" y="126.4" class="st6" width="6.42" height="6.4"/>
			</g>
			<g>
				<rect x="75.05" y="120" class="st6" width="6.42" height="6.4"/>
			</g>
			<rect x="68.63" y="120" class="st2" width="6.42" height="6.4"/>
			<rect x="75.05" y="113.6" class="st2" width="6.42" height="6.4"/>
			<rect x="68.63" y="113.6" class="st2" width="6.42" height="6.4"/>
			<g>
				<rect x="107.16" y="88" class="st6" width="6.42" height="6.4"/>
			</g>
			<g>
				<rect x="113.58" y="81.6" class="st6" width="6.42" height="6.4"/>
			</g>
			<g>
				<rect x="120" y="75.19" class="st6" width="6.42" height="6.4"/>
			</g>
			<rect x="113.58" y="75.19" class="st2" width="6.42" height="6.4"/>
			<rect x="120" y="68.79" class="st2" width="6.42" height="6.4"/>
			<rect x="113.58" y="68.79" class="st2" width="6.42" height="6.4"/>
			<g>
				<rect x="152.1" y="43.19" class="st6" width="6.42" height="6.4"/>
			</g>
			<g>
				<rect x="158.52" y="36.79" class="st6" width="6.42" height="6.4"/>
			</g>
			<g>
				<rect x="164.95" y="30.39" class="st6" width="6.42" height="6.4"/>
			</g>
			<rect x="158.52" y="30.39" class="st2" width="6.42" height="6.4"/>
			<rect x="164.95" y="23.99" class="st2" width="6.42" height="6.4"/>
			<rect x="158.52" y="23.99" class="st2" width="6.42" height="6.4"/>
		</g>
	</g>
</g>
</svg>
