<?xml version="1.0" encoding="utf-8"?>
<!-- Generator: Adobe Illustrator 30.0.0, SVG Export Plug-In . SVG Version: 9.03 Build 0)  -->
<svg version="1.1" id="Layer_1" xmlns="http://www.w3.org/2000/svg" xmlns:xlink="http://www.w3.org/1999/xlink" x="0px" y="0px"
	 viewBox="0 0 240 240" style="enable-background:new 0 0 240 240;" xml:space="preserve">
<style type="text/css">
	.st0{fill:#EDEBEC;}
	.st1{fill:#9A9A9A;}
	.st2{fill:#F8931D;}
</style>
<rect x="168.55" y="62.26" transform="matrix(-1 -1.224647e-16 1.224647e-16 -1 347.9801 135.3952)" class="st0" width="10.87" height="10.87"/>
<rect x="157.94" y="62.26" transform="matrix(-1 -1.224647e-16 1.224647e-16 -1 326.7528 135.3952)" class="st0" width="10.87" height="10.87"/>
<rect x="147.33" y="62.26" transform="matrix(-1 -1.224647e-16 1.224647e-16 -1 305.5254 135.3952)" class="st0" width="10.87" height="10.87"/>
<rect x="157.94" y="72.1" transform="matrix(-1 -1.224647e-16 1.224647e-16 -1 326.7528 155.0694)" class="st0" width="10.87" height="10.87"/>
<rect x="147.33" y="72.1" transform="matrix(-1 -1.224647e-16 1.224647e-16 -1 305.5254 155.0694)" class="st0" width="10.87" height="10.87"/>
<rect x="136.97" y="72.1" transform="matrix(-1 -1.224647e-16 1.224647e-16 -1 284.8158 155.0694)" class="st0" width="10.87" height="10.87"/>
<rect x="157.94" y="81.94" transform="matrix(-1 -1.224647e-16 1.224647e-16 -1 326.7528 174.7435)" class="st0" width="10.87" height="10.87"/>
<rect x="169.08" y="81.94" transform="matrix(-1 -1.224647e-16 1.224647e-16 -1 349.0363 174.7435)" class="st0" width="10.87" height="10.87"/>
<rect x="147.33" y="81.94" transform="matrix(-1 -1.224647e-16 1.224647e-16 -1 305.5254 174.7435)" class="st0" width="10.87" height="10.87"/>
<rect x="136.97" y="81.94" transform="matrix(-1 -1.224647e-16 1.224647e-16 -1 284.8158 174.7435)" class="st0" width="10.87" height="10.87"/>
<rect x="157.94" y="91.77" transform="matrix(-1 -1.224647e-16 1.224647e-16 -1 326.7528 194.4177)" class="st0" width="10.87" height="10.87"/>
<rect x="168.81" y="91.77" transform="matrix(-1 -1.224647e-16 1.224647e-16 -1 348.4979 194.4177)" class="st0" width="10.87" height="10.87"/>
<rect x="147.33" y="91.77" transform="matrix(-1 -1.224647e-16 1.224647e-16 -1 305.5254 194.4177)" class="st0" width="10.87" height="10.87"/>
<rect x="137.23" y="91.77" transform="matrix(-1 -1.224647e-16 1.224647e-16 -1 285.3335 194.4177)" class="st0" width="10.87" height="10.87"/>
<rect x="157.94" y="101.61" transform="matrix(-1 -1.224647e-16 1.224647e-16 -1 326.7528 214.0918)" class="st0" width="10.87" height="10.87"/>
<rect x="147.33" y="101.61" transform="matrix(-1 -1.224647e-16 1.224647e-16 -1 305.5254 214.0918)" class="st0" width="10.87" height="10.87"/>
<rect x="157.94" y="111.45" transform="matrix(-1 -1.224647e-16 1.224647e-16 -1 326.7528 233.766)" class="st0" width="10.87" height="10.87"/>
<rect x="168.81" y="111.45" transform="matrix(-1 -1.224647e-16 1.224647e-16 -1 348.4979 233.766)" class="st0" width="10.87" height="10.87"/>
<rect x="147.33" y="111.45" transform="matrix(-1 -1.224647e-16 1.224647e-16 -1 305.5254 233.766)" class="st0" width="10.87" height="10.87"/>
<rect x="137.49" y="111.45" transform="matrix(-1 -1.224647e-16 1.224647e-16 -1 285.8513 233.766)" class="st0" width="10.87" height="10.87"/>
<rect x="137.49" y="121.54" transform="matrix(-1 -1.224647e-16 1.224647e-16 -1 285.8513 253.9579)" class="st0" width="10.87" height="10.87"/>
<rect x="137.49" y="131.64" transform="matrix(-1 -1.224647e-16 1.224647e-16 -1 285.8513 274.1498)" class="st0" width="10.87" height="10.87"/>
<rect x="137.49" y="141.73" transform="matrix(-1 -1.224647e-16 1.224647e-16 -1 285.8513 294.3416)" class="st0" width="10.87" height="10.87"/>
<rect x="137.49" y="151.83" transform="matrix(-1 -1.224647e-16 1.224647e-16 -1 285.8513 314.5336)" class="st0" width="10.87" height="10.87"/>
<rect x="126.88" y="121.54" transform="matrix(-1 -1.224647e-16 1.224647e-16 -1 264.6239 253.9579)" class="st0" width="10.87" height="10.87"/>
<rect x="116.26" y="121.54" transform="matrix(-1 -1.224647e-16 1.224647e-16 -1 243.3965 253.9579)" class="st0" width="10.87" height="10.87"/>
<rect x="105.65" y="121.54" transform="matrix(-1 -1.224647e-16 1.224647e-16 -1 222.1691 253.9579)" class="st0" width="10.87" height="10.87"/>
<rect x="95.03" y="121.54" transform="matrix(-1 -1.224647e-16 1.224647e-16 -1 200.9418 253.9579)" class="st0" width="10.87" height="10.87"/>
<rect x="84.42" y="121.54" transform="matrix(-1 -1.224647e-16 1.224647e-16 -1 179.7144 253.9579)" class="st0" width="10.87" height="10.87"/>
<rect x="126.88" y="131.38" transform="matrix(-1 -1.224647e-16 1.224647e-16 -1 264.6239 273.632)" class="st0" width="10.87" height="10.87"/>
<rect x="126.88" y="141.73" transform="matrix(-1 -1.224647e-16 1.224647e-16 -1 264.6239 294.3416)" class="st0" width="10.87" height="10.87"/>
<rect x="116.26" y="131.38" transform="matrix(-1 -1.224647e-16 1.224647e-16 -1 243.3965 273.632)" class="st0" width="10.87" height="10.87"/>
<rect x="116.26" y="142.25" transform="matrix(-1 -1.224647e-16 1.224647e-16 -1 243.3965 295.3771)" class="st0" width="10.87" height="10.87"/>
<rect x="105.65" y="131.38" transform="matrix(-1 -1.224647e-16 1.224647e-16 -1 222.1691 273.632)" class="st0" width="10.87" height="10.87"/>
<rect x="95.03" y="131.38" transform="matrix(-1 -1.224647e-16 1.224647e-16 -1 200.9418 273.632)" class="st0" width="10.87" height="10.87"/>
<rect x="84.42" y="131.38" transform="matrix(-1 -1.224647e-16 1.224647e-16 -1 179.7144 273.632)" class="st0" width="10.87" height="10.87"/>
<rect x="126.88" y="151.83" transform="matrix(-1 -1.224647e-16 1.224647e-16 -1 264.6239 314.5336)" class="st0" width="10.87" height="10.87"/>
<rect x="127.65" y="111.45" transform="matrix(-1 -1.224647e-16 1.224647e-16 -1 266.1771 233.766)" class="st0" width="10.87" height="10.87"/>
<rect x="117.82" y="111.45" transform="matrix(-1 -1.224647e-16 1.224647e-16 -1 246.503 233.766)" class="st0" width="10.87" height="10.87"/>
<rect x="107.98" y="111.45" transform="matrix(-1 -1.224647e-16 1.224647e-16 -1 226.8288 233.766)" class="st0" width="10.87" height="10.87"/>
<rect x="98.14" y="111.45" transform="matrix(-1 -1.224647e-16 1.224647e-16 -1 207.1546 233.766)" class="st0" width="10.87" height="10.87"/>
<rect x="88.3" y="111.45" transform="matrix(-1 -1.224647e-16 1.224647e-16 -1 187.4805 233.766)" class="st0" width="10.87" height="10.87"/>
<rect x="78.47" y="111.45" transform="matrix(-1 -1.224647e-16 1.224647e-16 -1 167.8064 233.766)" class="st0" width="10.87" height="10.87"/>
<rect x="68.63" y="111.45" transform="matrix(-1 -1.224647e-16 1.224647e-16 -1 148.1322 233.766)" class="st0" width="10.87" height="10.87"/>
<rect x="58.79" y="111.45" transform="matrix(-1 -1.224647e-16 1.224647e-16 -1 128.4581 233.766)" class="st0" width="10.87" height="10.87"/>
<rect x="157.94" y="121.28" transform="matrix(-1 -1.224647e-16 1.224647e-16 -1 326.7528 253.4401)" class="st0" width="10.87" height="10.87"/>
<rect x="168.17" y="121.28" transform="matrix(-1 -1.224647e-16 1.224647e-16 -1 347.2036 253.4401)" class="st0" width="10.87" height="10.87"/>
<rect x="168.17" y="123.35" transform="matrix(-1 -1.224647e-16 1.224647e-16 -1 347.2036 257.5821)" class="st0" width="10.87" height="10.87"/>
<rect x="147.33" y="121.28" transform="matrix(-1 -1.224647e-16 1.224647e-16 -1 305.5254 253.4401)" class="st0" width="10.87" height="10.87"/>
<rect x="157.94" y="131.12" transform="matrix(-1 -1.224647e-16 1.224647e-16 -1 326.7528 274.2792)" class="st0" width="10.87" height="12.04"/>
<rect x="147.33" y="131.12" transform="matrix(-1 -1.224647e-16 1.224647e-16 -1 305.5254 274.2792)" class="st0" width="10.87" height="12.04"/>
<rect x="147.33" y="141.48" transform="matrix(-1 -1.224647e-16 1.224647e-16 -1 305.5254 294.9888)" class="st0" width="10.87" height="12.04"/>
<rect x="137.36" y="100.7" transform="matrix(-1 -1.224647e-16 1.224647e-16 -1 285.5924 212.2798)" class="st1" width="10.87" height="10.87"/>
<rect x="53.49" y="111.58" transform="matrix(-1 -1.224647e-16 1.224647e-16 -1 117.8444 234.0249)" class="st1" width="10.87" height="10.87"/>
<rect x="63.84" y="121.41" transform="matrix(-1 -1.224647e-16 1.224647e-16 -1 138.554 253.699)" class="st1" width="10.87" height="10.87"/>
<rect x="74.71" y="121.41" transform="matrix(-1 -1.224647e-16 1.224647e-16 -1 160.2991 253.699)" class="st1" width="10.87" height="10.87"/>
<rect x="74.71" y="131.25" transform="matrix(-1 -1.224647e-16 1.224647e-16 -1 160.2991 273.3732)" class="st1" width="10.87" height="10.87"/>
<rect x="74.71" y="133.58" transform="matrix(-1 -1.224647e-16 1.224647e-16 -1 160.2991 278.0328)" class="st1" width="10.87" height="10.87"/>
<rect x="84.55" y="142.38" transform="matrix(-1 -1.224647e-16 1.224647e-16 -1 179.9733 295.636)" class="st1" width="10.87" height="10.87"/>
<rect x="95.16" y="142.38" transform="matrix(-1 -1.224647e-16 1.224647e-16 -1 201.2006 295.636)" class="st1" width="10.87" height="10.87"/>
<rect x="105.26" y="142.38" transform="matrix(-1 -1.224647e-16 1.224647e-16 -1 221.3925 295.636)" class="st1" width="10.87" height="10.87"/>
<rect x="63.84" y="131.51" transform="matrix(-1 -1.224647e-16 1.224647e-16 -1 138.554 273.8909)" class="st1" width="10.87" height="10.87"/>
<rect x="63.84" y="133.06" transform="matrix(-1 -1.224647e-16 1.224647e-16 -1 138.554 276.9973)" class="st1" width="10.87" height="10.87"/>
<rect x="147.71" y="100.7" transform="matrix(-1 -1.224647e-16 1.224647e-16 -1 306.302 212.2798)" class="st1" width="10.87" height="10.87"/>
<rect x="158.07" y="100.7" transform="matrix(-1 -1.224647e-16 1.224647e-16 -1 327.0117 212.2798)" class="st1" width="10.87" height="10.87"/>
<rect x="168.42" y="100.7" transform="matrix(-1 -1.224647e-16 1.224647e-16 -1 347.7213 212.2798)" class="st1" width="10.87" height="10.87"/>
<rect x="178.78" y="100.7" transform="matrix(-1 -1.224647e-16 1.224647e-16 -1 368.4309 212.2798)" class="st1" width="10.87" height="10.87"/>
<rect x="128.05" y="185.1" transform="matrix(-1 -1.224647e-16 1.224647e-16 -1 266.9636 381.0632)" width="10.87" height="10.87"/>
<rect x="138.92" y="185.1" transform="matrix(-1 -1.224647e-16 1.224647e-16 -1 288.7087 381.0632)" width="10.87" height="10.87"/>
<rect x="128.05" y="174.48" transform="matrix(-1 -1.224647e-16 1.224647e-16 -1 266.9636 359.8359)" width="10.87" height="10.87"/>
<rect x="128.05" y="163.87" transform="matrix(-1 -1.224647e-16 1.224647e-16 -1 266.9636 338.6085)" width="10.87" height="10.87"/>
<rect x="96.34" y="185.1" transform="matrix(-1 -1.224647e-16 1.224647e-16 -1 203.548 381.0632)" width="10.87" height="10.87"/>
<rect x="107.21" y="185.1" transform="matrix(-1 -1.224647e-16 1.224647e-16 -1 225.2931 381.0632)" width="10.87" height="10.87"/>
<rect x="96.34" y="174.48" transform="matrix(-1 -1.224647e-16 1.224647e-16 -1 203.548 359.8359)" width="10.87" height="10.87"/>
<rect x="96.34" y="163.87" transform="matrix(-1 -1.224647e-16 1.224647e-16 -1 203.548 338.6085)" width="10.87" height="10.87"/>
<rect x="116.13" y="153.25" transform="matrix(-1 -1.224647e-16 1.224647e-16 -1 243.1376 317.3811)" width="10.87" height="10.87"/>
<rect x="127.01" y="153.25" transform="matrix(-1 -1.224647e-16 1.224647e-16 -1 264.8828 317.3811)" width="10.87" height="10.87"/>
<rect x="137.88" y="153.25" transform="matrix(-1 -1.224647e-16 1.224647e-16 -1 286.6279 317.3811)" width="10.87" height="10.87"/>
<rect x="148.75" y="153.25" transform="matrix(-1 -1.224647e-16 1.224647e-16 -1 308.373 317.3811)" width="10.87" height="10.87"/>
<rect x="158.72" y="143.29" transform="matrix(-1 -1.224647e-16 1.224647e-16 -1 328.306 297.4481)" width="10.87" height="10.87"/>
<rect x="168.42" y="133.58" transform="matrix(-1 -1.224647e-16 1.224647e-16 -1 347.7213 278.0328)" width="10.87" height="10.87"/>
<rect x="179.17" y="122.84" transform="matrix(-1 -1.224647e-16 1.224647e-16 -1 369.2075 256.5466)" width="10.87" height="10.87"/>
<rect x="179.17" y="112.74" transform="matrix(-1 -1.224647e-16 1.224647e-16 -1 369.2075 236.3547)" width="10.87" height="10.87"/>
<rect x="179.17" y="102.65" transform="matrix(-1 -1.224647e-16 1.224647e-16 -1 369.2075 216.1628)" width="10.87" height="10.87"/>
<rect x="179.17" y="92.55" transform="matrix(-1 -1.224647e-16 1.224647e-16 -1 369.2075 195.9709)" width="10.87" height="10.87"/>
<rect x="179.17" y="82.45" transform="matrix(-1 -1.224647e-16 1.224647e-16 -1 369.2075 175.779)" width="10.87" height="10.87"/>
<rect x="179.17" y="72.36" transform="matrix(-1 -1.224647e-16 1.224647e-16 -1 369.2075 155.5871)" class="st2" width="10.87" height="10.87"/>
<rect x="190.04" y="73.13" transform="matrix(-1 -1.224647e-16 1.224647e-16 -1 390.9526 157.1404)" width="10.87" height="10.87"/>
<rect x="193.75" y="73.13" transform="matrix(-1 -1.224647e-16 1.224647e-16 -1 398.3667 157.1404)" width="10.87" height="10.87"/>
<rect x="168.04" y="73.13" transform="matrix(-1 -1.224647e-16 1.224647e-16 -1 346.9447 157.1404)" width="10.87" height="10.87"/>
<rect x="179.17" y="62.26" transform="matrix(-1 -1.224647e-16 1.224647e-16 -1 369.2075 135.3952)" width="10.87" height="10.87"/>
<rect x="168.81" y="51.91" transform="matrix(-1 -1.224647e-16 1.224647e-16 -1 348.4979 114.6856)" width="10.87" height="10.87"/>
<rect x="158.46" y="51.91" transform="matrix(-1 -1.224647e-16 1.224647e-16 -1 327.7883 114.6856)" width="10.87" height="10.87"/>
<rect x="148.1" y="51.91" transform="matrix(-1 -1.224647e-16 1.224647e-16 -1 307.0786 114.6856)" width="10.87" height="10.87"/>
<rect x="137.49" y="62.52" transform="matrix(-1 -1.224647e-16 1.224647e-16 -1 285.8513 135.913)" width="10.87" height="10.87"/>
<rect x="126.36" y="70.8" transform="matrix(-1 -1.224647e-16 1.224647e-16 -1 263.5884 152.4807)" width="10.87" height="10.87"/>
<rect x="126.36" y="81.68" transform="matrix(-1 -1.224647e-16 1.224647e-16 -1 263.5884 174.2258)" width="10.87" height="10.87"/>
<rect x="126.36" y="92.55" transform="matrix(-1 -1.224647e-16 1.224647e-16 -1 263.5884 195.9709)" width="10.87" height="10.87"/>
<rect x="84.55" y="153.25" transform="matrix(-1 -1.224647e-16 1.224647e-16 -1 179.9733 317.3811)" width="10.87" height="10.87"/>
<rect x="74.07" y="142.77" transform="matrix(-1 -1.224647e-16 1.224647e-16 -1 159.0048 296.4126)" width="10.87" height="10.87"/>
<rect x="63.71" y="142.77" transform="matrix(-1 -1.224647e-16 1.224647e-16 -1 138.2951 296.4126)" width="10.87" height="10.87"/>
<rect x="53.23" y="132.29" transform="matrix(-1 -1.224647e-16 1.224647e-16 -1 117.3266 275.4441)" width="10.87" height="10.87"/>
<rect x="53.23" y="121.41" transform="matrix(-1 -1.224647e-16 1.224647e-16 -1 117.3266 253.699)" width="10.87" height="10.87"/>
<rect x="42.87" y="111.06" transform="matrix(-1 -1.224647e-16 1.224647e-16 -1 96.617 232.9894)" width="10.87" height="10.87"/>
<rect x="32.52" y="100.7" transform="matrix(-1 -1.224647e-16 1.224647e-16 -1 75.9074 212.2798)" width="10.87" height="10.87"/>
<rect x="42.87" y="100.7" transform="matrix(-1 -1.224647e-16 1.224647e-16 -1 96.617 212.2798)" width="10.87" height="10.87"/>
<rect x="53.23" y="100.7" transform="matrix(-1 -1.224647e-16 1.224647e-16 -1 117.3266 212.2798)" width="10.87" height="10.87"/>
<rect x="63.58" y="100.7" transform="matrix(-1 -1.224647e-16 1.224647e-16 -1 138.0363 212.2798)" width="10.87" height="10.87"/>
<rect x="73.94" y="100.7" transform="matrix(-1 -1.224647e-16 1.224647e-16 -1 158.7459 212.2798)" width="10.87" height="10.87"/>
<rect x="84.29" y="100.7" transform="matrix(-1 -1.224647e-16 1.224647e-16 -1 179.4555 212.2798)" width="10.87" height="10.87"/>
<rect x="94.65" y="100.7" transform="matrix(-1 -1.224647e-16 1.224647e-16 -1 200.1651 212.2798)" width="10.87" height="10.87"/>
<rect x="105" y="100.7" transform="matrix(-1 -1.224647e-16 1.224647e-16 -1 220.8748 212.2798)" width="10.87" height="10.87"/>
<rect x="115.36" y="100.7" transform="matrix(-1 -1.224647e-16 1.224647e-16 -1 241.5844 212.2798)" width="10.87" height="10.87"/>
<rect x="115.36" y="111.58" transform="matrix(-1 -1.224647e-16 1.224647e-16 -1 241.5844 234.0249)" width="10.87" height="10.87"/>
<rect x="105.52" y="111.58" transform="matrix(-1 -1.224647e-16 1.224647e-16 -1 221.9103 234.0249)" width="10.87" height="10.87"/>
<rect x="115.36" y="119.47" transform="matrix(-1 -1.224647e-16 1.224647e-16 -1 241.5844 249.816)" width="10.87" height="10.87"/>
<rect x="125.97" y="130.09" transform="matrix(-1 -1.224647e-16 1.224647e-16 -1 262.8118 271.0433)" width="10.87" height="10.87"/>
<rect x="126.35" y="100.7" transform="matrix(-1 -1.224647e-16 1.224647e-16 -1 263.578 212.2798)" width="10.87" height="10.87"/>
<rect x="95.42" y="153.25" transform="matrix(-1 -1.224647e-16 1.224647e-16 -1 201.7184 317.3811)" width="10.87" height="10.87"/>
<rect x="106.3" y="153.25" transform="matrix(-1 -1.224647e-16 1.224647e-16 -1 223.4635 317.3811)" width="10.87" height="10.87"/>
</svg>
