<?xml version="1.0" encoding="utf-8"?>
<!-- Generator: Adobe Illustrator 30.0.0, SVG Export Plug-In . SVG Version: 9.03 Build 0)  -->
<svg version="1.1" id="Layer_1" xmlns="http://www.w3.org/2000/svg" xmlns:xlink="http://www.w3.org/1999/xlink" x="0px" y="0px"
	 viewBox="0 0 240 240" style="enable-background:new 0 0 240 240;" xml:space="preserve">
<style type="text/css">
	.st0{fill:#F08A00;}
	.st1{fill:#FFB200;}
	.st2{fill:#FFB600;}
	.st3{fill:#FFD92E;}
	.st4{fill:#E16217;}
	.st5{fill:#FF67BE;}
	.st6{fill:#FF91D9;}
	.st7{fill:#FF6CB5;}
	.st8{fill:#FFACE1;}
	.st9{fill:#FFDEF5;}
	.st10{fill:#FFAFE2;}
</style>
<rect x="131.24" y="213.42" class="st0" width="5.87" height="5.87"/>
<rect x="125.37" y="213.42" class="st0" width="5.87" height="5.87"/>
<rect x="119.5" y="213.42" class="st0" width="5.87" height="5.87"/>
<rect x="113.63" y="213.42" class="st0" width="5.87" height="5.87"/>
<rect x="142.98" y="207.55" class="st1" width="5.87" height="5.87"/>
<rect x="137.11" y="207.55" class="st2" width="5.87" height="5.87"/>
<rect x="131.24" y="207.55" class="st2" width="5.87" height="5.87"/>
<rect x="125.37" y="207.55" class="st2" width="5.87" height="5.87"/>
<rect x="119.5" y="207.55" class="st0" width="5.87" height="5.87"/>
<rect x="113.63" y="207.55" class="st0" width="5.87" height="5.87"/>
<rect x="107.76" y="207.55" class="st0" width="5.87" height="5.87"/>
<rect x="101.89" y="207.55" class="st0" width="5.87" height="5.87"/>
<rect x="148.85" y="201.68" class="st3" width="5.87" height="5.87"/>
<rect x="142.98" y="201.68" class="st0" width="5.87" height="5.87"/>
<rect x="137.11" y="201.68" class="st2" width="5.87" height="5.87"/>
<rect x="131.24" y="201.68" class="st2" width="5.87" height="5.87"/>
<rect x="125.37" y="201.68" class="st2" width="5.87" height="5.87"/>
<rect x="119.5" y="201.68" class="st2" width="5.87" height="5.87"/>
<rect x="113.63" y="201.68" class="st0" width="5.87" height="5.87"/>
<rect x="107.76" y="201.68" class="st0" width="5.87" height="5.87"/>
<rect x="101.89" y="201.68" class="st0" width="5.87" height="5.87"/>
<rect x="96.02" y="201.68" class="st0" width="5.87" height="5.87"/>
<rect x="148.85" y="195.81" class="st3" width="5.87" height="5.87"/>
<rect x="142.98" y="195.81" class="st3" width="5.87" height="5.87"/>
<rect x="137.11" y="195.81" class="st0" width="5.87" height="5.87"/>
<rect x="131.24" y="195.81" class="st2" width="5.87" height="5.87"/>
<rect x="125.37" y="195.81" class="st2" width="5.87" height="5.87"/>
<rect x="119.5" y="195.81" class="st0" width="5.87" height="5.87"/>
<rect x="113.63" y="195.81" class="st0" width="5.87" height="5.87"/>
<rect x="107.76" y="195.81" class="st0" width="5.87" height="5.87"/>
<rect x="101.89" y="195.81" class="st0" width="5.87" height="5.87"/>
<rect x="96.02" y="195.81" class="st0" width="5.87" height="5.87"/>
<rect x="148.85" y="189.94" class="st3" width="5.87" height="5.87"/>
<rect x="142.98" y="189.94" class="st2" width="5.87" height="5.87"/>
<rect x="137.11" y="189.94" class="st3" width="5.87" height="5.87"/>
<rect x="131.24" y="189.94" class="st0" width="5.87" height="5.87"/>
<rect x="125.37" y="189.94" class="st0" width="5.87" height="5.87"/>
<rect x="119.5" y="189.94" class="st2" width="5.87" height="5.87"/>
<rect x="113.63" y="189.94" class="st0" width="5.87" height="5.87"/>
<rect x="107.76" y="189.94" class="st0" width="5.87" height="5.87"/>
<rect x="101.89" y="189.94" class="st0" width="5.87" height="5.87"/>
<rect x="96.02" y="189.94" class="st0" width="5.87" height="5.87"/>
<rect x="148.85" y="184.07" class="st3" width="5.87" height="5.87"/>
<rect x="142.98" y="184.07" class="st2" width="5.87" height="5.87"/>
<rect x="137.11" y="184.07" class="st2" width="5.87" height="5.87"/>
<rect x="131.24" y="184.07" class="st0" width="5.87" height="5.87"/>
<rect x="125.37" y="184.07" class="st0" width="5.87" height="5.87"/>
<rect x="119.5" y="184.07" class="st2" width="5.87" height="5.87"/>
<rect x="113.63" y="184.07" class="st0" width="5.87" height="5.87"/>
<rect x="107.76" y="184.07" class="st0" width="5.87" height="5.87"/>
<rect x="101.89" y="184.07" class="st0" width="5.87" height="5.87"/>
<rect x="96.02" y="184.07" class="st0" width="5.87" height="5.87"/>
<rect x="148.85" y="178.2" class="st3" width="5.87" height="5.87"/>
<rect x="142.98" y="178.2" class="st2" width="5.87" height="5.87"/>
<rect x="137.11" y="178.2" class="st0" width="5.87" height="5.87"/>
<rect x="131.24" y="178.2" class="st2" width="5.87" height="5.87"/>
<rect x="125.37" y="178.2" class="st3" width="5.87" height="5.87"/>
<rect x="119.5" y="178.2" class="st0" width="5.87" height="5.87"/>
<rect x="113.63" y="178.2" class="st0" width="5.87" height="5.87"/>
<rect x="107.76" y="178.2" class="st0" width="5.87" height="5.87"/>
<rect x="101.89" y="178.2" class="st0" width="5.87" height="5.87"/>
<rect x="96.02" y="178.2" class="st0" width="5.87" height="5.87"/>
<rect x="148.85" y="172.33" class="st3" width="5.87" height="5.87"/>
<rect x="142.98" y="172.33" class="st2" width="5.87" height="5.87"/>
<rect x="137.11" y="172.33" class="st0" width="5.87" height="5.87"/>
<rect x="131.24" y="172.33" class="st0" width="5.87" height="5.87"/>
<rect x="125.37" y="172.33" class="st0" width="5.87" height="5.87"/>
<rect x="119.5" y="172.33" class="st0" width="5.87" height="5.87"/>
<rect x="113.63" y="172.33" class="st0" width="5.87" height="5.87"/>
<rect x="107.76" y="172.33" class="st4" width="5.87" height="5.87"/>
<rect x="101.89" y="172.33" class="st0" width="5.87" height="5.87"/>
<rect x="96.02" y="172.33" class="st0" width="5.87" height="5.87"/>
<rect x="148.85" y="166.46" class="st0" width="5.87" height="5.87"/>
<rect x="142.98" y="166.46" class="st0" width="5.87" height="5.87"/>
<rect x="137.11" y="166.46" class="st2" width="5.87" height="5.87"/>
<rect x="131.24" y="166.46" class="st2" width="5.87" height="5.87"/>
<rect x="125.37" y="166.46" class="st2" width="5.87" height="5.87"/>
<rect x="119.5" y="166.46" class="st0" width="5.87" height="5.87"/>
<rect x="113.63" y="166.46" class="st0" width="5.87" height="5.87"/>
<rect x="107.76" y="166.46" class="st0" width="5.87" height="5.87"/>
<rect x="101.89" y="166.46" class="st4" width="5.87" height="5.87"/>
<rect x="96.02" y="166.46" class="st4" width="5.87" height="5.87"/>
<rect x="154.72" y="160.59" class="st0" width="5.87" height="5.87"/>
<rect x="148.85" y="160.59" class="st2" width="5.87" height="5.87"/>
<rect x="142.98" y="160.59" class="st2" width="5.87" height="5.87"/>
<rect x="137.11" y="160.59" class="st2" width="5.87" height="5.87"/>
<rect x="131.24" y="160.59" class="st2" width="5.87" height="5.87"/>
<rect x="125.37" y="160.59" class="st2" width="5.87" height="5.87"/>
<rect x="119.5" y="160.59" class="st2" width="5.87" height="5.87"/>
<rect x="113.63" y="160.59" class="st0" width="5.87" height="5.87"/>
<rect x="107.76" y="160.59" class="st0" width="5.87" height="5.87"/>
<rect x="101.89" y="160.59" class="st0" width="5.87" height="5.87"/>
<rect x="96.02" y="160.59" class="st0" width="5.87" height="5.87"/>
<rect x="90.15" y="160.59" class="st0" width="5.87" height="5.87"/>
<rect x="160.59" y="154.72" class="st2" width="5.87" height="5.87"/>
<rect x="154.72" y="154.72" class="st2" width="5.87" height="5.87"/>
<rect x="148.85" y="154.72" class="st2" width="5.87" height="5.87"/>
<rect x="142.98" y="154.72" class="st2" width="5.87" height="5.87"/>
<rect x="137.11" y="154.72" class="st2" width="5.87" height="5.87"/>
<rect x="131.24" y="154.72" class="st2" width="5.87" height="5.87"/>
<rect x="125.37" y="154.72" class="st2" width="5.87" height="5.87"/>
<rect x="119.5" y="154.72" class="st2" width="5.87" height="5.87"/>
<rect x="113.63" y="154.72" class="st0" width="5.87" height="5.87"/>
<rect x="107.76" y="154.72" class="st0" width="5.87" height="5.87"/>
<rect x="101.89" y="154.72" class="st0" width="5.87" height="5.87"/>
<rect x="96.02" y="154.72" class="st0" width="5.87" height="5.87"/>
<rect x="90.15" y="154.72" class="st2" width="5.87" height="5.87"/>
<rect x="84.28" y="154.72" class="st0" width="5.87" height="5.87"/>
<rect x="166.46" y="148.85" class="st3" width="5.87" height="5.87"/>
<rect x="160.59" y="148.85" class="st2" width="5.87" height="5.87"/>
<rect x="154.72" y="148.85" class="st2" width="5.87" height="5.87"/>
<rect x="148.85" y="148.85" class="st2" width="5.87" height="5.87"/>
<rect x="142.98" y="148.85" class="st2" width="5.87" height="5.87"/>
<rect x="137.11" y="148.85" class="st2" width="5.87" height="5.87"/>
<rect x="131.24" y="148.85" class="st2" width="5.87" height="5.87"/>
<rect x="125.37" y="148.85" class="st2" width="5.87" height="5.87"/>
<rect x="119.5" y="148.85" class="st2" width="5.87" height="5.87"/>
<rect x="113.63" y="148.85" class="st0" width="5.87" height="5.87"/>
<rect x="107.76" y="148.85" class="st0" width="5.87" height="5.87"/>
<rect x="101.89" y="148.85" class="st0" width="5.87" height="5.87"/>
<rect x="96.02" y="148.85" class="st0" width="5.87" height="5.87"/>
<rect x="90.15" y="148.85" class="st0" width="5.87" height="5.87"/>
<rect x="84.28" y="148.85" class="st2" width="5.87" height="5.87"/>
<rect x="78.41" y="148.85" class="st0" width="5.87" height="5.87"/>
<rect x="166.46" y="142.98" class="st3" width="5.87" height="5.87"/>
<rect x="160.59" y="142.98" class="st2" width="5.87" height="5.87"/>
<rect x="154.72" y="142.98" class="st2" width="5.87" height="5.87"/>
<rect x="148.85" y="142.98" class="st2" width="5.87" height="5.87"/>
<rect x="142.98" y="142.98" class="st2" width="5.87" height="5.87"/>
<rect x="137.11" y="142.98" class="st2" width="5.87" height="5.87"/>
<rect x="131.24" y="142.98" class="st2" width="5.87" height="5.87"/>
<rect x="125.37" y="142.98" class="st2" width="5.87" height="5.87"/>
<rect x="119.5" y="142.98" class="st2" width="5.87" height="5.87"/>
<rect x="113.63" y="142.98" class="st0" width="5.87" height="5.87"/>
<rect x="107.76" y="142.98" class="st0" width="5.87" height="5.87"/>
<rect x="101.89" y="142.98" class="st0" width="5.87" height="5.87"/>
<rect x="96.02" y="142.98" class="st0" width="5.87" height="5.87"/>
<rect x="90.15" y="142.98" class="st0" width="5.87" height="5.87"/>
<rect x="84.28" y="142.98" class="st0" width="5.87" height="5.87"/>
<rect x="78.41" y="142.98" class="st0" width="5.87" height="5.87"/>
<rect x="166.46" y="137.11" class="st3" width="5.87" height="5.87"/>
<rect x="160.59" y="137.11" class="st2" width="5.87" height="5.87"/>
<rect x="154.72" y="137.11" class="st2" width="5.87" height="5.87"/>
<rect x="148.85" y="137.11" class="st0" width="5.87" height="5.87"/>
<rect x="142.98" y="137.11" class="st0" width="5.87" height="5.87"/>
<rect x="137.11" y="137.11" class="st0" width="5.87" height="5.87"/>
<rect x="131.24" y="137.11" class="st0" width="5.87" height="5.87"/>
<rect x="125.37" y="137.11" class="st0" width="5.87" height="5.87"/>
<rect x="119.5" y="137.11" class="st0" width="5.87" height="5.87"/>
<rect x="113.63" y="137.11" class="st0" width="5.87" height="5.87"/>
<rect x="107.76" y="137.11" class="st0" width="5.87" height="5.87"/>
<rect x="101.89" y="137.11" class="st0" width="5.87" height="5.87"/>
<rect x="96.02" y="137.11" class="st0" width="5.87" height="5.87"/>
<rect x="90.15" y="137.11" class="st0" width="5.87" height="5.87"/>
<rect x="84.28" y="137.11" class="st0" width="5.87" height="5.87"/>
<rect x="78.41" y="137.11" class="st0" width="5.87" height="5.87"/>
<rect x="166.46" y="131.24" class="st3" width="5.87" height="5.87"/>
<rect x="160.59" y="131.24" class="st0" width="5.87" height="5.87"/>
<rect x="154.72" y="131.24" class="st0" width="5.87" height="5.87"/>
<rect x="148.85" y="131.24" class="st3" width="5.87" height="5.87"/>
<rect x="142.98" y="131.24" class="st3" width="5.87" height="5.87"/>
<rect x="137.11" y="131.24" class="st3" width="5.87" height="5.87"/>
<rect x="131.24" y="131.24" class="st3" width="5.87" height="5.87"/>
<rect x="125.37" y="131.24" class="st3" width="5.87" height="5.87"/>
<rect x="119.5" y="131.24" class="st2" width="5.87" height="5.87"/>
<rect x="113.63" y="131.24" class="st2" width="5.87" height="5.87"/>
<rect x="107.76" y="131.24" class="st2" width="5.87" height="5.87"/>
<rect x="101.89" y="131.24" class="st2" width="5.87" height="5.87"/>
<rect x="96.02" y="131.24" class="st2" width="5.87" height="5.87"/>
<rect x="90.15" y="131.24" class="st0" width="5.87" height="5.87"/>
<rect x="84.28" y="131.24" class="st0" width="5.87" height="5.87"/>
<rect x="78.41" y="131.24" class="st0" width="5.87" height="5.87"/>
<rect x="166.46" y="125.37" class="st0" width="5.87" height="5.87"/>
<rect x="160.59" y="125.37" class="st3" width="5.87" height="5.87"/>
<rect x="154.72" y="125.37" class="st3" width="5.87" height="5.87"/>
<rect x="148.85" y="125.37" class="st3" width="5.87" height="5.87"/>
<rect x="142.98" y="125.37" class="st5" width="5.87" height="5.87"/>
<rect x="137.11" y="125.37" class="st5" width="5.87" height="5.87"/>
<rect x="131.24" y="125.37" class="st5" width="5.87" height="5.87"/>
<rect x="125.37" y="125.37" class="st5" width="5.87" height="5.87"/>
<rect x="119.5" y="125.37" class="st5" width="5.87" height="5.87"/>
<rect x="113.63" y="125.37" class="st5" width="5.87" height="5.87"/>
<rect x="107.76" y="125.37" class="st5" width="5.87" height="5.87"/>
<rect x="101.89" y="125.37" class="st5" width="5.87" height="5.87"/>
<rect x="96.02" y="125.37" class="st2" width="5.87" height="5.87"/>
<rect x="90.15" y="125.37" class="st2" width="5.87" height="5.87"/>
<rect x="84.28" y="125.37" class="st2" width="5.87" height="5.87"/>
<rect x="78.41" y="125.37" class="st0" width="5.87" height="5.87"/>
<rect x="166.46" y="119.5" class="st3" width="5.87" height="5.87"/>
<rect x="160.59" y="119.5" class="st6" width="5.87" height="5.87"/>
<rect x="154.72" y="119.5" class="st6" width="5.87" height="5.87"/>
<rect x="148.85" y="119.5" class="st6" width="5.87" height="5.87"/>
<rect x="142.98" y="119.5" class="st6" width="5.87" height="5.87"/>
<rect x="137.11" y="119.5" class="st6" width="5.87" height="5.87"/>
<rect x="131.24" y="119.5" class="st6" width="5.87" height="5.87"/>
<rect x="125.37" y="119.5" class="st6" width="5.87" height="5.87"/>
<rect x="119.5" y="119.5" class="st5" width="5.87" height="5.87"/>
<rect x="113.63" y="119.5" class="st6" width="5.87" height="5.87"/>
<rect x="107.76" y="119.5" class="st5" width="5.87" height="5.87"/>
<rect x="101.89" y="119.5" class="st5" width="5.87" height="5.87"/>
<rect x="96.02" y="119.5" class="st5" width="5.87" height="5.87"/>
<rect x="90.15" y="119.5" class="st5" width="5.87" height="5.87"/>
<rect x="84.28" y="119.5" class="st7" width="5.87" height="5.87"/>
<rect x="78.41" y="119.5" class="st2" width="5.87" height="5.87"/>
<rect x="166.46" y="113.63" class="st6" width="5.87" height="5.87"/>
<rect x="160.59" y="113.63" class="st8" width="5.87" height="5.87"/>
<rect x="154.72" y="113.63" class="st8" width="5.87" height="5.87"/>
<rect x="148.85" y="113.63" class="st8" width="5.87" height="5.87"/>
<rect x="142.98" y="113.63" class="st9" width="5.87" height="5.87"/>
<rect x="137.11" y="113.63" class="st8" width="5.87" height="5.87"/>
<rect x="131.24" y="113.63" class="st8" width="5.87" height="5.87"/>
<rect x="125.37" y="113.63" class="st8" width="5.87" height="5.87"/>
<rect x="119.5" y="113.63" class="st6" width="5.87" height="5.87"/>
<rect x="113.63" y="113.63" class="st5" width="5.87" height="5.87"/>
<rect x="107.76" y="113.63" class="st6" width="5.87" height="5.87"/>
<rect x="101.89" y="113.63" class="st5" width="5.87" height="5.87"/>
<rect x="96.02" y="113.63" class="st5" width="5.87" height="5.87"/>
<rect x="90.15" y="113.63" class="st5" width="5.87" height="5.87"/>
<rect x="84.28" y="113.63" class="st5" width="5.87" height="5.87"/>
<rect x="78.41" y="113.63" class="st5" width="5.87" height="5.87"/>
<rect x="172.33" y="107.76" class="st8" width="5.87" height="5.87"/>
<rect x="166.46" y="107.76" class="st8" width="5.87" height="5.87"/>
<rect x="160.59" y="107.76" class="st8" width="5.87" height="5.87"/>
<rect x="154.72" y="107.76" class="st9" width="5.87" height="5.87"/>
<rect x="148.85" y="107.76" class="st8" width="5.87" height="5.87"/>
<rect x="142.98" y="107.76" class="st8" width="5.87" height="5.87"/>
<rect x="137.11" y="107.76" class="st9" width="5.87" height="5.87"/>
<rect x="131.24" y="107.76" class="st9" width="5.87" height="5.87"/>
<rect x="125.37" y="107.76" class="st8" width="5.87" height="5.87"/>
<rect x="119.5" y="107.76" class="st8" width="5.87" height="5.87"/>
<rect x="113.63" y="107.76" class="st6" width="5.87" height="5.87"/>
<rect x="107.76" y="107.76" class="st5" width="5.87" height="5.87"/>
<rect x="101.89" y="107.76" class="st5" width="5.87" height="5.87"/>
<rect x="96.02" y="107.76" class="st5" width="5.87" height="5.87"/>
<rect x="90.15" y="107.76" class="st5" width="5.87" height="5.87"/>
<rect x="84.28" y="107.76" class="st5" width="5.87" height="5.87"/>
<rect x="78.41" y="107.76" class="st5" width="5.87" height="5.87"/>
<rect x="72.54" y="107.76" class="st5" width="5.87" height="5.87"/>
<rect x="172.33" y="101.89" class="st8" width="5.87" height="5.87"/>
<rect x="166.46" y="101.89" class="st9" width="5.87" height="5.87"/>
<rect x="160.59" y="101.89" class="st8" width="5.87" height="5.87"/>
<rect x="154.72" y="101.89" class="st8" width="5.87" height="5.87"/>
<rect x="148.85" y="101.89" class="st9" width="5.87" height="5.87"/>
<rect x="142.98" y="101.89" class="st8" width="5.87" height="5.87"/>
<rect x="137.11" y="101.89" class="st8" width="5.87" height="5.87"/>
<rect x="131.24" y="101.89" class="st8" width="5.87" height="5.87"/>
<rect x="125.37" y="101.89" class="st9" width="5.87" height="5.87"/>
<rect x="119.5" y="101.89" class="st8" width="5.87" height="5.87"/>
<rect x="113.63" y="101.89" class="st6" width="5.87" height="5.87"/>
<rect x="107.76" y="101.89" class="st5" width="5.87" height="5.87"/>
<rect x="101.89" y="101.89" class="st5" width="5.87" height="5.87"/>
<rect x="96.02" y="101.89" class="st5" width="5.87" height="5.87"/>
<rect x="90.15" y="101.89" class="st5" width="5.87" height="5.87"/>
<rect x="84.28" y="101.89" class="st5" width="5.87" height="5.87"/>
<rect x="78.41" y="101.89" class="st5" width="5.87" height="5.87"/>
<rect x="72.54" y="101.89" class="st5" width="5.87" height="5.87"/>
<rect x="172.33" y="96.02" class="st8" width="5.87" height="5.87"/>
<rect x="166.46" y="96.02" class="st10" width="5.87" height="5.87"/>
<rect x="160.59" y="96.02" class="st9" width="5.87" height="5.87"/>
<rect x="154.72" y="96.02" class="st8" width="5.87" height="5.87"/>
<rect x="148.85" y="96.02" class="st8" width="5.87" height="5.87"/>
<rect x="142.98" y="96.02" class="st9" width="5.87" height="5.87"/>
<rect x="137.11" y="96.02" class="st8" width="5.87" height="5.87"/>
<rect x="131.24" y="96.02" class="st8" width="5.87" height="5.87"/>
<rect x="125.37" y="96.02" class="st8" width="5.87" height="5.87"/>
<rect x="119.5" y="96.02" class="st8" width="5.87" height="5.87"/>
<rect x="113.63" y="96.02" class="st5" width="5.87" height="5.87"/>
<rect x="107.76" y="96.02" class="st5" width="5.87" height="5.87"/>
<rect x="101.89" y="96.02" class="st5" width="5.87" height="5.87"/>
<rect x="96.02" y="96.02" class="st5" width="5.87" height="5.87"/>
<rect x="90.15" y="96.02" class="st5" width="5.87" height="5.87"/>
<rect x="84.28" y="96.02" class="st5" width="5.87" height="5.87"/>
<rect x="78.41" y="96.02" class="st5" width="5.87" height="5.87"/>
<rect x="72.54" y="96.02" class="st5" width="5.87" height="5.87"/>
<rect x="166.46" y="90.15" class="st8" width="5.87" height="5.87"/>
<rect x="160.59" y="90.15" class="st8" width="5.87" height="5.87"/>
<rect x="154.72" y="90.15" class="st8" width="5.87" height="5.87"/>
<rect x="148.85" y="90.15" class="st8" width="5.87" height="5.87"/>
<rect x="142.98" y="90.15" class="st8" width="5.87" height="5.87"/>
<rect x="137.11" y="90.15" class="st8" width="5.87" height="5.87"/>
<rect x="131.24" y="90.15" class="st5" width="5.87" height="5.87"/>
<rect x="125.37" y="90.15" class="st5" width="5.87" height="5.87"/>
<rect x="119.5" y="90.15" class="st5" width="5.87" height="5.87"/>
<rect x="113.63" y="90.15" class="st5" width="5.87" height="5.87"/>
<rect x="107.76" y="90.15" class="st5" width="5.87" height="5.87"/>
<rect x="101.89" y="90.15" class="st5" width="5.87" height="5.87"/>
<rect x="96.02" y="90.15" class="st6" width="5.87" height="5.87"/>
<rect x="90.15" y="90.15" class="st5" width="5.87" height="5.87"/>
<rect x="84.28" y="90.15" class="st5" width="5.87" height="5.87"/>
<rect x="78.41" y="90.15" class="st5" width="5.87" height="5.87"/>
<rect x="72.54" y="90.15" class="st5" width="5.87" height="5.87"/>
<rect x="160.59" y="84.28" class="st8" width="5.87" height="5.87"/>
<rect x="154.72" y="84.28" class="st8" width="5.87" height="5.87"/>
<rect x="148.85" y="84.28" class="st8" width="5.87" height="5.87"/>
<rect x="142.98" y="84.28" class="st8" width="5.87" height="5.87"/>
<rect x="137.11" y="84.28" class="st6" width="5.87" height="5.87"/>
<rect x="131.24" y="84.28" class="st8" width="5.87" height="5.87"/>
<rect x="125.37" y="84.28" class="st8" width="5.87" height="5.87"/>
<rect x="119.5" y="84.28" class="st5" width="5.87" height="5.87"/>
<rect x="113.63" y="84.28" class="st5" width="5.87" height="5.87"/>
<rect x="107.76" y="84.28" class="st6" width="5.87" height="5.87"/>
<rect x="101.89" y="84.28" class="st5" width="5.87" height="5.87"/>
<rect x="96.02" y="84.28" class="st5" width="5.87" height="5.87"/>
<rect x="90.15" y="84.28" class="st5" width="5.87" height="5.87"/>
<rect x="84.28" y="84.28" class="st5" width="5.87" height="5.87"/>
<rect x="78.41" y="84.28" class="st5" width="5.87" height="5.87"/>
<rect x="160.59" y="78.41" class="st8" width="5.87" height="5.87"/>
<rect x="154.72" y="78.41" class="st8" width="5.87" height="5.87"/>
<rect x="148.85" y="78.41" class="st8" width="5.87" height="5.87"/>
<rect x="142.98" y="78.41" class="st9" width="5.87" height="5.87"/>
<rect x="137.11" y="78.41" class="st8" width="5.87" height="5.87"/>
<rect x="131.24" y="78.41" class="st8" width="5.87" height="5.87"/>
<rect x="125.37" y="78.41" class="st6" width="5.87" height="5.87"/>
<rect x="119.5" y="78.41" class="st6" width="5.87" height="5.87"/>
<rect x="113.63" y="78.41" class="st6" width="5.87" height="5.87"/>
<rect x="107.76" y="78.41" class="st5" width="5.87" height="5.87"/>
<rect x="101.89" y="78.41" class="st5" width="5.87" height="5.87"/>
<rect x="96.02" y="78.41" class="st5" width="5.87" height="5.87"/>
<rect x="90.15" y="78.41" class="st5" width="5.87" height="5.87"/>
<rect x="84.28" y="78.41" class="st5" width="5.87" height="5.87"/>
<rect x="78.41" y="78.41" class="st5" width="5.87" height="5.87"/>
<rect x="160.59" y="72.54" class="st8" width="5.87" height="5.87"/>
<rect x="154.72" y="72.54" class="st9" width="5.87" height="5.87"/>
<rect x="148.85" y="72.54" class="st8" width="5.87" height="5.87"/>
<rect x="142.98" y="72.54" class="st8" width="5.87" height="5.87"/>
<rect x="137.11" y="72.54" class="st9" width="5.87" height="5.87"/>
<rect x="131.24" y="72.54" class="st8" width="5.87" height="5.87"/>
<rect x="125.37" y="72.54" class="st8" width="5.87" height="5.87"/>
<rect x="119.5" y="72.54" class="st8" width="5.87" height="5.87"/>
<rect x="113.63" y="72.54" class="st6" width="5.87" height="5.87"/>
<rect x="107.76" y="72.54" class="st5" width="5.87" height="5.87"/>
<rect x="101.89" y="72.54" class="st5" width="5.87" height="5.87"/>
<rect x="96.02" y="72.54" class="st5" width="5.87" height="5.87"/>
<rect x="90.15" y="72.54" class="st5" width="5.87" height="5.87"/>
<rect x="84.28" y="72.54" class="st5" width="5.87" height="5.87"/>
<rect x="154.72" y="66.67" class="st8" width="5.87" height="5.87"/>
<rect x="148.85" y="66.67" class="st9" width="5.87" height="5.87"/>
<rect x="142.98" y="66.67" class="st8" width="5.87" height="5.87"/>
<rect x="137.11" y="66.67" class="st8" width="5.87" height="5.87"/>
<rect x="131.24" y="66.67" class="st9" width="5.87" height="5.87"/>
<rect x="125.37" y="66.67" class="st8" width="5.87" height="5.87"/>
<rect x="119.5" y="66.67" class="st8" width="5.87" height="5.87"/>
<rect x="113.63" y="66.67" class="st5" width="5.87" height="5.87"/>
<rect x="107.76" y="66.67" class="st5" width="5.87" height="5.87"/>
<rect x="101.89" y="66.67" class="st5" width="5.87" height="5.87"/>
<rect x="96.02" y="66.67" class="st5" width="5.87" height="5.87"/>
<rect x="90.15" y="66.67" class="st5" width="5.87" height="5.87"/>
<rect x="84.28" y="66.67" class="st5" width="5.87" height="5.87"/>
<rect x="148.85" y="60.8" class="st8" width="5.87" height="5.87"/>
<rect x="142.98" y="60.8" class="st8" width="5.87" height="5.87"/>
<rect x="137.11" y="60.8" class="st8" width="5.87" height="5.87"/>
<rect x="131.24" y="60.8" class="st8" width="5.87" height="5.87"/>
<rect x="125.37" y="60.8" class="st6" width="5.87" height="5.87"/>
<rect x="119.5" y="60.8" class="st5" width="5.87" height="5.87"/>
<rect x="113.63" y="60.8" class="st5" width="5.87" height="5.87"/>
<rect x="107.76" y="60.8" class="st5" width="5.87" height="5.87"/>
<rect x="101.89" y="60.8" class="st5" width="5.87" height="5.87"/>
<rect x="96.02" y="60.8" class="st5" width="5.87" height="5.87"/>
<rect x="90.15" y="60.8" class="st5" width="5.87" height="5.87"/>
<rect x="84.28" y="60.8" class="st5" width="5.87" height="5.87"/>
<rect x="142.98" y="54.93" class="st8" width="5.87" height="5.87"/>
<rect x="137.11" y="54.93" class="st10" width="5.87" height="5.87"/>
<rect x="131.24" y="54.93" class="st6" width="5.87" height="5.87"/>
<rect x="125.37" y="54.93" class="st8" width="5.87" height="5.87"/>
<rect x="119.5" y="54.93" class="st6" width="5.87" height="5.87"/>
<rect x="113.63" y="54.93" class="st5" width="5.87" height="5.87"/>
<rect x="107.76" y="54.93" class="st6" width="5.87" height="5.87"/>
<rect x="101.89" y="54.93" class="st5" width="5.87" height="5.87"/>
<rect x="96.02" y="54.93" class="st5" width="5.87" height="5.87"/>
<rect x="90.15" y="54.93" class="st5" width="5.87" height="5.87"/>
<rect x="142.98" y="49.06" class="st8" width="5.87" height="5.87"/>
<rect x="137.11" y="49.06" class="st8" width="5.87" height="5.87"/>
<rect x="131.24" y="49.06" class="st9" width="5.87" height="5.87"/>
<rect x="125.37" y="49.06" class="st8" width="5.87" height="5.87"/>
<rect x="119.5" y="49.06" class="st8" width="5.87" height="5.87"/>
<rect x="113.63" y="49.06" class="st6" width="5.87" height="5.87"/>
<rect x="107.76" y="49.06" class="st5" width="5.87" height="5.87"/>
<rect x="101.89" y="49.06" class="st5" width="5.87" height="5.87"/>
<rect x="96.02" y="49.06" class="st5" width="5.87" height="5.87"/>
<rect x="137.11" y="43.19" class="st8" width="5.87" height="5.87"/>
<rect x="131.24" y="43.19" class="st8" width="5.87" height="5.87"/>
<rect x="125.37" y="43.19" class="st9" width="5.87" height="5.87"/>
<rect x="119.5" y="43.19" class="st8" width="5.87" height="5.87"/>
<rect x="113.63" y="43.19" class="st6" width="5.87" height="5.87"/>
<rect x="107.76" y="43.19" class="st5" width="5.87" height="5.87"/>
<rect x="101.89" y="43.19" class="st5" width="5.87" height="5.87"/>
<rect x="131.24" y="37.32" class="st8" width="5.87" height="5.87"/>
<rect x="125.37" y="37.32" class="st10" width="5.87" height="5.87"/>
<rect x="119.5" y="37.32" class="st8" width="5.87" height="5.87"/>
<rect x="113.63" y="37.32" class="st8" width="5.87" height="5.87"/>
<rect x="107.76" y="37.32" class="st5" width="5.87" height="5.87"/>
<rect x="101.89" y="37.32" class="st5" width="5.87" height="5.87"/>
<rect x="125.37" y="31.45" class="st8" width="5.87" height="5.87"/>
<rect x="119.5" y="31.45" class="st8" width="5.87" height="5.87"/>
<rect x="113.63" y="31.45" class="st8" width="5.87" height="5.87"/>
<rect x="107.76" y="31.45" class="st5" width="5.87" height="5.87"/>
<rect x="125.37" y="25.58" class="st8" width="5.87" height="5.87"/>
<rect x="119.5" y="25.58" class="st8" width="5.87" height="5.87"/>
<rect x="113.63" y="25.58" class="st5" width="5.87" height="5.87"/>
<rect x="131.24" y="19.71" class="st8" width="5.87" height="5.87"/>
<rect x="125.37" y="19.71" class="st8" width="5.87" height="5.87"/>
<rect x="119.5" y="19.71" class="st8" width="5.87" height="5.87"/>
</svg>
