<?xml version="1.0" encoding="utf-8"?>
<!-- Generator: Adobe Illustrator 30.0.0, SVG Export Plug-In . SVG Version: 9.03 Build 0)  -->
<svg version="1.1" id="Layer_1" xmlns="http://www.w3.org/2000/svg" xmlns:xlink="http://www.w3.org/1999/xlink" x="0px" y="0px"
	 viewBox="0 0 240 240" style="enable-background:new 0 0 240 240;" xml:space="preserve">
<style type="text/css">
	.st0{fill:#B0EBFF;}
	.st1{fill:#EBFAFF;}
	.st2{fill:#FFFFFF;}
</style>
<rect x="201.64" y="150.24" width="9.61" height="9.54"/>
<rect x="192.03" y="159.78" width="9.61" height="9.55"/>
<rect x="192.03" y="150.24" class="st0" width="9.61" height="9.54"/>
<rect x="192.03" y="140.71" width="9.61" height="9.54"/>
<rect x="182.42" y="159.78" width="9.61" height="9.55"/>
<rect x="182.42" y="150.24" class="st0" width="9.61" height="9.54"/>
<rect x="182.42" y="140.71" width="9.61" height="9.54"/>
<rect x="172.82" y="169.33" width="9.61" height="9.54"/>
<rect x="172.82" y="159.78" class="st1" width="9.61" height="9.55"/>
<rect x="172.82" y="150.24" class="st0" width="9.61" height="9.54"/>
<rect x="172.82" y="140.71" width="9.61" height="9.54"/>
<rect x="163.23" y="169.33" width="9.59" height="9.54"/>
<rect x="163.23" y="159.78" class="st1" width="9.59" height="9.55"/>
<rect x="163.23" y="150.24" class="st0" width="9.59" height="9.54"/>
<rect x="163.23" y="140.71" width="9.59" height="9.54"/>
<rect x="163.23" y="131.15" width="9.59" height="9.55"/>
<rect x="153.62" y="178.87" width="9.61" height="9.54"/>
<rect x="153.62" y="169.33" class="st2" width="9.61" height="9.54"/>
<rect x="153.62" y="159.78" class="st1" width="9.61" height="9.55"/>
<rect x="153.62" y="150.24" class="st1" width="9.61" height="9.54"/>
<rect x="153.62" y="140.71" class="st0" width="9.61" height="9.54"/>
<rect x="153.62" y="131.15" class="st0" width="9.61" height="9.55"/>
<rect x="153.62" y="121.62" width="9.61" height="9.54"/>
<rect x="153.62" y="112.08" width="9.61" height="9.54"/>
<rect x="144.01" y="178.87" width="9.61" height="9.54"/>
<rect x="144.01" y="169.33" class="st2" width="9.61" height="9.54"/>
<rect x="144.01" y="159.78" class="st1" width="9.61" height="9.55"/>
<rect x="144.01" y="150.24" class="st1" width="9.61" height="9.54"/>
<rect x="144.01" y="140.71" class="st0" width="9.61" height="9.54"/>
<rect x="144.01" y="131.15" class="st0" width="9.61" height="9.55"/>
<rect x="144.01" y="121.62" class="st0" width="9.61" height="9.54"/>
<rect x="144.01" y="112.08" class="st0" width="9.61" height="9.54"/>
<rect x="144.01" y="102.53" width="9.61" height="9.55"/>
<rect x="144.01" y="92.99" width="9.61" height="9.54"/>
<rect x="144.01" y="83.46" width="9.61" height="9.54"/>
<rect x="144.01" y="73.9" width="9.61" height="9.55"/>
<rect x="134.4" y="178.87" width="9.61" height="9.54"/>
<rect x="134.4" y="169.33" class="st2" width="9.61" height="9.54"/>
<rect x="134.4" y="159.78" class="st1" width="9.61" height="9.55"/>
<rect x="134.4" y="150.24" class="st1" width="9.61" height="9.54"/>
<rect x="134.4" y="140.71" class="st0" width="9.61" height="9.54"/>
<rect x="134.4" y="131.15" width="9.61" height="9.55"/>
<rect x="134.4" y="121.62" class="st1" width="9.61" height="9.54"/>
<rect x="134.4" y="112.08" width="9.61" height="9.54"/>
<rect x="134.4" y="102.53" class="st0" width="9.61" height="9.55"/>
<rect x="134.4" y="92.99" class="st0" width="9.61" height="9.54"/>
<rect x="134.4" y="83.46" class="st0" width="9.61" height="9.54"/>
<rect x="134.4" y="73.9" class="st0" width="9.61" height="9.55"/>
<rect x="134.4" y="64.37" width="9.61" height="9.54"/>
<rect x="124.79" y="169.33" width="9.61" height="9.54"/>
<rect x="124.79" y="159.78" class="st2" width="9.61" height="9.55"/>
<rect x="124.79" y="150.24" class="st1" width="9.61" height="9.54"/>
<rect x="124.79" y="140.71" class="st0" width="9.61" height="9.54"/>
<rect x="124.79" y="131.15" width="9.61" height="9.55"/>
<rect x="124.79" y="121.62" class="st1" width="9.61" height="9.54"/>
<rect x="124.79" y="112.08" width="9.61" height="9.54"/>
<rect x="124.79" y="102.53" class="st1" width="9.61" height="9.55"/>
<rect x="124.79" y="92.99" class="st1" width="9.61" height="9.54"/>
<rect x="124.79" y="83.46" class="st1" width="9.61" height="9.54"/>
<rect x="124.79" y="73.9" class="st1" width="9.61" height="9.55"/>
<rect x="124.79" y="64.37" class="st0" width="9.61" height="9.54"/>
<rect x="124.79" y="54.83" width="9.61" height="9.54"/>
<rect x="115.21" y="169.33" width="9.59" height="9.54"/>
<rect x="115.21" y="159.78" class="st2" width="9.59" height="9.55"/>
<rect x="115.21" y="150.24" class="st0" width="9.59" height="9.54"/>
<rect x="115.21" y="140.71" width="9.59" height="9.54"/>
<rect x="115.21" y="131.15" class="st2" width="9.59" height="9.55"/>
<rect x="115.21" y="121.62" class="st2" width="9.59" height="9.54"/>
<rect x="115.21" y="112.08" width="9.59" height="9.54"/>
<rect x="115.21" y="102.53" class="st1" width="9.59" height="9.55"/>
<rect x="115.21" y="92.99" class="st0" width="9.59" height="9.54"/>
<rect x="115.21" y="83.46" width="9.59" height="9.54"/>
<rect x="115.21" y="73.9" class="st1" width="9.59" height="9.55"/>
<rect x="115.21" y="64.37" class="st1" width="9.59" height="9.54"/>
<rect x="115.21" y="54.83" class="st0" width="9.59" height="9.54"/>
<rect x="115.21" y="45.28" width="9.59" height="9.55"/>
<rect x="105.6" y="169.33" width="9.61" height="9.54"/>
<rect x="105.6" y="159.78" width="9.61" height="9.55"/>
<rect x="105.6" y="150.24" class="st1" width="9.61" height="9.54"/>
<rect x="105.6" y="140.71" class="st0" width="9.61" height="9.54"/>
<rect x="105.6" y="131.15" width="9.61" height="9.55"/>
<rect x="105.6" y="121.62" width="9.61" height="9.54"/>
<rect x="105.6" y="112.08" class="st1" width="9.61" height="9.54"/>
<rect x="105.6" y="102.53" class="st1" width="9.61" height="9.55"/>
<rect x="105.6" y="92.99" class="st1" width="9.61" height="9.54"/>
<rect x="105.6" y="83.46" class="st1" width="9.61" height="9.54"/>
<rect x="105.6" y="73.9" class="st1" width="9.61" height="9.55"/>
<rect x="105.6" y="64.37" class="st1" width="9.61" height="9.54"/>
<rect x="105.6" y="54.83" class="st1" width="9.61" height="9.54"/>
<rect x="105.6" y="45.28" width="9.61" height="9.55"/>
<rect x="95.99" y="159.78" width="9.61" height="9.55"/>
<rect x="95.99" y="150.24" class="st2" width="9.61" height="9.54"/>
<rect x="95.99" y="140.71" class="st1" width="9.61" height="9.54"/>
<rect x="95.99" y="131.15" class="st1" width="9.61" height="9.55"/>
<rect x="95.99" y="121.62" class="st1" width="9.61" height="9.54"/>
<rect x="95.99" y="112.08" class="st0" width="9.61" height="9.54"/>
<rect x="95.99" y="102.53" width="9.61" height="9.55"/>
<rect x="95.99" y="92.99" width="9.61" height="9.54"/>
<rect x="95.99" y="83.46" class="st1" width="9.61" height="9.54"/>
<rect x="95.99" y="73.9" class="st1" width="9.61" height="9.55"/>
<rect x="95.99" y="64.37" class="st1" width="9.61" height="9.54"/>
<rect x="95.99" y="54.83" class="st1" width="9.61" height="9.54"/>
<rect x="95.99" y="45.28" width="9.61" height="9.55"/>
<rect x="86.38" y="159.78" width="9.61" height="9.55"/>
<rect x="86.38" y="150.24" width="9.61" height="9.54"/>
<rect x="86.38" y="140.71" class="st2" width="9.61" height="9.54"/>
<rect x="86.38" y="131.15" class="st2" width="9.61" height="9.55"/>
<rect x="86.38" y="121.62" class="st1" width="9.61" height="9.54"/>
<rect x="86.38" y="112.08" class="st1" width="9.61" height="9.54"/>
<rect x="86.38" y="102.53" class="st1" width="9.61" height="9.55"/>
<rect x="86.38" y="92.99" class="st1" width="9.61" height="9.54"/>
<rect x="86.38" y="83.46" class="st1" width="9.61" height="9.54"/>
<rect x="86.38" y="73.9" class="st1" width="9.61" height="9.55"/>
<rect x="86.38" y="64.37" class="st1" width="9.61" height="9.54"/>
<rect x="86.38" y="54.83" class="st2" width="9.61" height="9.54"/>
<rect x="86.38" y="45.28" width="9.61" height="9.55"/>
<rect x="76.77" y="140.71" width="9.61" height="9.54"/>
<rect x="76.77" y="131.15" width="9.61" height="9.55"/>
<rect x="76.77" y="121.62" class="st2" width="9.61" height="9.54"/>
<rect x="76.77" y="112.08" class="st1" width="9.61" height="9.54"/>
<rect x="76.77" y="102.53" class="st1" width="9.61" height="9.55"/>
<rect x="76.77" y="92.99" class="st0" width="9.61" height="9.54"/>
<rect x="76.77" y="83.46" width="9.61" height="9.54"/>
<rect x="76.77" y="73.9" class="st1" width="9.61" height="9.55"/>
<rect x="76.77" y="64.37" class="st2" width="9.61" height="9.54"/>
<rect x="76.77" y="54.83" width="9.61" height="9.54"/>
<rect x="67.18" y="121.62" width="9.59" height="9.54"/>
<rect x="67.18" y="112.08" width="9.59" height="9.54"/>
<rect x="67.18" y="102.53" class="st2" width="9.59" height="9.55"/>
<rect x="67.18" y="92.99" class="st2" width="9.59" height="9.54"/>
<rect x="67.18" y="83.46" class="st2" width="9.59" height="9.54"/>
<rect x="67.18" y="73.9" class="st2" width="9.59" height="9.55"/>
<rect x="67.18" y="64.37" width="9.59" height="9.54"/>
<rect x="57.58" y="131.15" width="9.61" height="9.55"/>
<rect x="57.58" y="121.62" class="st0" width="9.61" height="9.54"/>
<rect x="57.58" y="112.08" width="9.61" height="9.54"/>
<rect x="57.58" y="102.53" width="9.61" height="9.55"/>
<rect x="57.58" y="92.99" width="9.61" height="9.54"/>
<rect x="57.58" y="83.46" width="9.61" height="9.54"/>
<rect x="57.58" y="73.9" width="9.61" height="9.55"/>
<rect x="47.97" y="131.15" width="9.61" height="9.55"/>
<rect x="47.97" y="121.62" class="st1" width="9.61" height="9.54"/>
<rect x="47.97" y="112.08" width="9.61" height="9.54"/>
<rect x="38.36" y="140.71" width="9.61" height="9.54"/>
<rect x="38.36" y="131.15" class="st2" width="9.61" height="9.55"/>
<rect x="38.36" y="121.62" class="st2" width="9.61" height="9.54"/>
<rect x="38.36" y="112.08" width="9.61" height="9.54"/>
<rect x="28.75" y="131.15" width="9.61" height="9.55"/>
<rect x="28.75" y="121.62" width="9.61" height="9.54"/>
</svg>
