<?xml version="1.0" encoding="utf-8"?>
<!-- Generator: Adobe Illustrator 30.0.0, SVG Export Plug-In . SVG Version: 9.03 Build 0)  -->
<svg version="1.1" id="Layer_1" xmlns="http://www.w3.org/2000/svg" xmlns:xlink="http://www.w3.org/1999/xlink" x="0px" y="0px"
	 viewBox="0 0 240 240" style="enable-background:new 0 0 240 240;" xml:space="preserve">
<style type="text/css">
	.st0{fill:#06995A;}
	.st1{fill:#00400A;}
	.st2{fill:#1D2375;}
	.st3{fill:#3A42A8;}
	.st4{fill:#ECEEEE;}
	.st5{fill:#B7CACE;}
	.st6{fill:#FDDEA7;}
	.st7{fill:#D50E48;}
	.st8{fill:#FC5F88;}
	.st9{fill:#C86100;}
	.st10{fill:#8C3F00;}
	.st11{fill:#1C2426;}
	.st12{fill:#FF9700;}
	.st13{fill:#FFD300;}
	.st14{fill:#01B8D6;}
</style>
<rect x="51.94" y="132.38" class="st0" width="6.11" height="6.11"/>
<rect x="51.94" y="126.27" class="st0" width="6.11" height="6.11"/>
<rect x="45.83" y="132.38" class="st1" width="6.11" height="6.11"/>
<rect x="45.83" y="138.49" class="st1" width="6.11" height="6.11"/>
<rect x="64.15" y="138.49" class="st2" width="6.11" height="6.11"/>
<rect x="58.04" y="150.71" class="st2" width="6.11" height="6.11"/>
<rect x="58.04" y="144.6" class="st2" width="6.11" height="6.11"/>
<rect x="58.04" y="138.49" class="st2" width="6.11" height="6.11"/>
<rect x="51.94" y="138.49" class="st2" width="6.11" height="6.11"/>
<rect x="51.94" y="150.71" class="st2" width="6.11" height="6.11"/>
<rect x="51.94" y="144.6" class="st2" width="6.11" height="6.11"/>
<rect x="186.35" y="138.49" class="st0" width="6.11" height="6.11"/>
<rect x="186.35" y="132.38" class="st1" width="6.11" height="6.11"/>
<rect x="180.24" y="132.38" class="st1" width="6.11" height="6.11"/>
<rect x="180.24" y="126.27" class="st0" width="6.11" height="6.11"/>
<rect x="180.24" y="144.6" class="st3" width="6.11" height="6.11"/>
<rect x="180.24" y="150.71" class="st3" width="6.11" height="6.11"/>
<rect x="180.24" y="138.49" class="st3" width="6.11" height="6.11"/>
<rect x="174.14" y="150.71" class="st3" width="6.11" height="6.11"/>
<rect x="174.14" y="144.6" class="st2" width="6.11" height="6.11"/>
<rect x="174.14" y="138.49" class="st2" width="6.11" height="6.11"/>
<rect x="168.03" y="138.49" class="st2" width="6.11" height="6.11"/>
<rect x="64.15" y="175.16" class="st4" width="6.11" height="6.11"/>
<rect x="70.26" y="181.27" class="st4" width="6.11" height="6.11"/>
<rect x="70.26" y="175.16" class="st4" width="6.11" height="6.11"/>
<rect x="125.26" y="181.27" class="st4" width="6.11" height="6.11"/>
<rect x="125.26" y="175.16" class="st4" width="6.11" height="6.11"/>
<rect x="82.48" y="175.16" class="st4" width="6.11" height="6.11"/>
<rect x="76.37" y="175.16" class="st4" width="6.11" height="6.11"/>
<rect x="76.37" y="181.27" class="st4" width="6.11" height="6.11"/>
<rect x="82.48" y="181.27" class="st4" width="6.11" height="6.11"/>
<rect x="88.59" y="175.16" class="st4" width="6.11" height="6.11"/>
<rect x="88.59" y="181.27" class="st4" width="6.11" height="6.11"/>
<rect x="94.7" y="175.16" class="st4" width="6.12" height="6.11"/>
<rect x="100.82" y="175.16" class="st4" width="6.11" height="6.11"/>
<rect x="100.82" y="181.27" class="st4" width="6.11" height="6.11"/>
<rect x="94.7" y="181.27" class="st4" width="6.12" height="6.11"/>
<rect x="106.93" y="175.16" class="st4" width="6.11" height="6.11"/>
<rect x="106.93" y="181.27" class="st4" width="6.11" height="6.11"/>
<rect x="113.04" y="175.16" class="st4" width="6.11" height="6.11"/>
<rect x="113.04" y="181.27" class="st4" width="6.11" height="6.11"/>
<rect x="119.15" y="175.16" class="st4" width="6.11" height="6.11"/>
<rect x="119.15" y="181.27" class="st4" width="6.11" height="6.11"/>
<rect x="131.37" y="181.27" class="st4" width="6.11" height="6.11"/>
<rect x="143.59" y="175.16" class="st4" width="6.11" height="6.11"/>
<rect x="143.59" y="181.27" class="st4" width="6.11" height="6.11"/>
<rect x="131.37" y="175.16" class="st4" width="6.11" height="6.11"/>
<rect x="168.03" y="175.16" class="st4" width="6.11" height="6.11"/>
<rect x="161.92" y="175.16" class="st4" width="6.11" height="6.11"/>
<rect x="155.81" y="181.27" class="st4" width="6.11" height="6.11"/>
<rect x="161.92" y="181.27" class="st4" width="6.11" height="6.11"/>
<rect x="155.81" y="175.16" class="st4" width="6.11" height="6.11"/>
<rect x="149.7" y="181.27" class="st4" width="6.11" height="6.11"/>
<rect x="149.7" y="175.16" class="st4" width="6.11" height="6.11"/>
<rect x="137.48" y="175.16" class="st4" width="6.11" height="6.11"/>
<rect x="137.48" y="181.27" class="st4" width="6.11" height="6.11"/>
<rect x="64.15" y="169.04" class="st5" width="6.11" height="6.12"/>
<rect x="58.04" y="169.04" class="st5" width="6.11" height="6.12"/>
<rect x="70.26" y="169.04" class="st5" width="6.11" height="6.12"/>
<rect x="125.26" y="169.04" class="st5" width="6.11" height="6.12"/>
<rect x="82.48" y="169.04" class="st5" width="6.11" height="6.12"/>
<rect x="76.37" y="169.04" class="st5" width="6.11" height="6.12"/>
<rect x="88.59" y="169.04" class="st5" width="6.11" height="6.12"/>
<rect x="94.7" y="169.04" class="st5" width="6.12" height="6.12"/>
<rect x="100.82" y="169.04" class="st5" width="6.11" height="6.12"/>
<rect x="113.04" y="169.04" class="st5" width="6.11" height="6.12"/>
<rect x="106.93" y="169.04" class="st5" width="6.11" height="6.12"/>
<rect x="119.15" y="169.04" class="st5" width="6.11" height="6.12"/>
<rect x="143.59" y="169.04" class="st5" width="6.11" height="6.12"/>
<rect x="131.37" y="169.04" class="st5" width="6.11" height="6.12"/>
<rect x="174.14" y="169.04" class="st5" width="6.11" height="6.12"/>
<rect x="168.03" y="169.04" class="st5" width="6.11" height="6.12"/>
<rect x="155.81" y="169.04" class="st5" width="6.11" height="6.12"/>
<rect x="161.92" y="169.04" class="st5" width="6.11" height="6.12"/>
<rect x="149.7" y="169.04" class="st5" width="6.11" height="6.12"/>
<rect x="137.48" y="169.04" class="st5" width="6.11" height="6.12"/>
<rect x="64.15" y="162.93" class="st4" width="6.11" height="6.11"/>
<rect x="58.04" y="162.93" class="st4" width="6.11" height="6.11"/>
<rect x="70.26" y="162.93" class="st4" width="6.11" height="6.11"/>
<rect x="125.26" y="162.93" class="st4" width="6.11" height="6.11"/>
<rect x="76.37" y="162.93" class="st4" width="6.11" height="6.11"/>
<rect x="82.48" y="162.93" class="st4" width="6.11" height="6.11"/>
<rect x="88.59" y="162.93" class="st4" width="6.11" height="6.11"/>
<rect x="94.7" y="162.93" class="st4" width="6.12" height="6.11"/>
<rect x="100.82" y="162.93" class="st4" width="6.11" height="6.11"/>
<rect x="113.04" y="162.93" class="st4" width="6.11" height="6.11"/>
<rect x="106.93" y="162.93" class="st4" width="6.11" height="6.11"/>
<rect x="119.15" y="162.93" class="st4" width="6.11" height="6.11"/>
<rect x="131.37" y="162.93" class="st4" width="6.11" height="6.11"/>
<rect x="180.24" y="162.93" class="st4" width="6.11" height="6.11"/>
<rect x="143.59" y="162.93" class="st4" width="6.11" height="6.11"/>
<rect x="174.14" y="162.93" class="st4" width="6.11" height="6.11"/>
<rect x="168.03" y="162.93" class="st4" width="6.11" height="6.11"/>
<rect x="161.92" y="162.93" class="st4" width="6.11" height="6.11"/>
<rect x="155.81" y="162.93" class="st4" width="6.11" height="6.11"/>
<rect x="149.7" y="162.93" class="st4" width="6.11" height="6.11"/>
<rect x="137.48" y="162.93" class="st4" width="6.11" height="6.11"/>
<rect x="51.94" y="162.93" class="st4" width="6.11" height="6.11"/>
<rect x="45.83" y="162.93" class="st4" width="6.11" height="6.11"/>
<rect x="64.15" y="156.82" class="st4" width="6.11" height="6.11"/>
<rect x="58.04" y="156.82" class="st4" width="6.11" height="6.11"/>
<rect x="70.26" y="156.82" class="st4" width="6.11" height="6.11"/>
<rect x="125.26" y="156.82" class="st4" width="6.11" height="6.11"/>
<rect x="82.48" y="156.82" class="st4" width="6.11" height="6.11"/>
<rect x="76.37" y="156.82" class="st4" width="6.11" height="6.11"/>
<rect x="88.59" y="156.82" class="st4" width="6.11" height="6.11"/>
<rect x="94.7" y="156.82" class="st4" width="6.12" height="6.11"/>
<rect x="100.82" y="156.82" class="st4" width="6.11" height="6.11"/>
<rect x="113.04" y="156.82" class="st4" width="6.11" height="6.11"/>
<rect x="106.93" y="156.82" class="st4" width="6.11" height="6.11"/>
<rect x="119.15" y="156.82" class="st4" width="6.11" height="6.11"/>
<rect x="186.35" y="162.93" class="st4" width="6.11" height="6.11"/>
<rect x="186.35" y="156.82" class="st4" width="6.11" height="6.11"/>
<rect x="131.37" y="156.82" class="st4" width="6.11" height="6.11"/>
<rect x="180.24" y="156.82" class="st4" width="6.11" height="6.11"/>
<rect x="143.59" y="156.82" class="st4" width="6.11" height="6.11"/>
<rect x="174.14" y="156.82" class="st4" width="6.11" height="6.11"/>
<rect x="168.03" y="156.82" class="st4" width="6.11" height="6.11"/>
<rect x="155.81" y="156.82" class="st4" width="6.11" height="6.11"/>
<rect x="161.92" y="156.82" class="st4" width="6.11" height="6.11"/>
<rect x="149.7" y="156.82" class="st4" width="6.11" height="6.11"/>
<rect x="137.48" y="156.82" class="st4" width="6.11" height="6.11"/>
<rect x="51.94" y="156.82" class="st4" width="6.11" height="6.11"/>
<rect x="45.83" y="156.82" class="st4" width="6.11" height="6.11"/>
<rect x="137.48" y="71.29" class="st6" width="6.11" height="6.11"/>
<rect x="119.15" y="52.96" class="st4" width="6.11" height="6.11"/>
<rect x="125.26" y="59.07" class="st4" width="6.11" height="6.11"/>
<rect x="125.26" y="52.96" class="st4" width="6.11" height="6.11"/>
<rect x="131.37" y="52.96" class="st4" width="6.11" height="6.11"/>
<rect x="131.37" y="59.07" class="st4" width="6.11" height="6.11"/>
<rect x="113.04" y="65.18" class="st7" width="6.11" height="6.11"/>
<rect x="119.15" y="65.18" class="st4" width="6.11" height="6.11"/>
<rect x="125.26" y="65.18" class="st4" width="6.11" height="6.11"/>
<rect x="143.59" y="77.4" class="st6" width="6.11" height="6.11"/>
<rect x="143.59" y="83.51" class="st4" width="6.11" height="6.11"/>
<rect x="149.7" y="95.73" class="st4" width="6.11" height="6.11"/>
<rect x="149.7" y="89.62" class="st4" width="6.11" height="6.11"/>
<rect x="131.37" y="65.18" class="st4" width="6.11" height="6.11"/>
<rect x="82.48" y="83.51" class="st7" width="6.11" height="6.11"/>
<rect x="82.48" y="95.73" class="st4" width="6.11" height="6.11"/>
<rect x="82.48" y="89.62" class="st6" width="6.11" height="6.11"/>
<rect x="88.59" y="95.73" class="st4" width="6.11" height="6.11"/>
<rect x="88.59" y="89.62" class="st6" width="6.11" height="6.11"/>
<rect x="94.7" y="95.73" class="st4" width="6.12" height="6.11"/>
<rect x="94.7" y="83.51" class="st7" width="6.12" height="6.11"/>
<rect x="88.59" y="83.51" class="st7" width="6.11" height="6.11"/>
<rect x="94.7" y="89.62" class="st6" width="6.12" height="6.11"/>
<rect x="100.82" y="95.73" class="st6" width="6.11" height="6.11"/>
<rect x="100.82" y="77.4" class="st4" width="6.11" height="6.11"/>
<rect x="100.82" y="89.62" class="st6" width="6.11" height="6.11"/>
<rect x="100.82" y="83.51" class="st7" width="6.11" height="6.11"/>
<rect x="100.82" y="71.29" class="st4" width="6.11" height="6.11"/>
<rect x="113.04" y="83.51" class="st6" width="6.11" height="6.11"/>
<rect x="113.04" y="77.4" class="st4" width="6.11" height="6.11"/>
<rect x="113.04" y="71.29" class="st7" width="6.11" height="6.11"/>
<rect x="113.04" y="95.73" class="st8" width="6.11" height="6.11"/>
<rect x="106.93" y="83.51" class="st8" width="6.11" height="6.11"/>
<rect x="106.93" y="77.4" class="st4" width="6.11" height="6.11"/>
<rect x="113.04" y="89.62" class="st6" width="6.11" height="6.11"/>
<rect x="106.93" y="95.73" class="st8" width="6.11" height="6.11"/>
<rect x="106.93" y="71.29" class="st4" width="6.11" height="6.11"/>
<rect x="106.93" y="89.62" class="st8" width="6.11" height="6.11"/>
<rect x="119.15" y="95.73" class="st6" width="6.11" height="6.11"/>
<rect x="119.15" y="89.62" class="st6" width="6.11" height="6.11"/>
<rect x="119.15" y="83.51" class="st6" width="6.11" height="6.11"/>
<rect x="119.15" y="71.29" class="st7" width="6.11" height="6.11"/>
<rect x="119.15" y="77.4" class="st6" width="6.11" height="6.11"/>
<rect x="137.48" y="83.51" class="st6" width="6.11" height="6.11"/>
<rect x="137.48" y="89.62" class="st4" width="6.11" height="6.11"/>
<rect x="137.48" y="77.4" class="st6" width="6.11" height="6.11"/>
<rect x="125.26" y="77.4" class="st7" width="6.11" height="6.11"/>
<rect x="125.26" y="95.73" class="st6" width="6.11" height="6.11"/>
<rect x="125.26" y="71.29" class="st7" width="6.11" height="6.11"/>
<rect x="125.26" y="89.62" class="st6" width="6.11" height="6.11"/>
<rect x="125.26" y="83.51" class="st7" width="6.11" height="6.11"/>
<rect x="137.48" y="95.73" class="st8" width="6.11" height="6.11"/>
<rect x="143.59" y="89.62" class="st4" width="6.11" height="6.11"/>
<rect x="143.59" y="95.73" class="st8" width="6.11" height="6.11"/>
<rect x="131.37" y="77.4" class="st6" width="6.11" height="6.11"/>
<rect x="131.37" y="71.29" class="st6" width="6.11" height="6.11"/>
<rect x="131.37" y="95.73" class="st8" width="6.11" height="6.11"/>
<rect x="131.37" y="83.51" class="st8" width="6.11" height="6.11"/>
<rect x="131.37" y="89.62" class="st8" width="6.11" height="6.11"/>
<rect x="64.15" y="150.71" class="st9" width="6.11" height="6.11"/>
<rect x="64.15" y="144.6" class="st9" width="6.11" height="6.11"/>
<rect x="70.26" y="150.71" class="st9" width="6.11" height="6.11"/>
<rect x="70.26" y="144.6" class="st9" width="6.11" height="6.11"/>
<rect x="70.26" y="138.49" class="st10" width="6.11" height="6.11"/>
<rect x="125.26" y="150.71" class="st3" width="6.11" height="6.11"/>
<rect x="76.37" y="150.71" class="st9" width="6.11" height="6.11"/>
<rect x="82.48" y="150.71" class="st3" width="6.11" height="6.11"/>
<rect x="94.7" y="150.71" class="st11" width="6.12" height="6.11"/>
<rect x="88.59" y="150.71" class="st11" width="6.11" height="6.11"/>
<rect x="100.82" y="150.71" class="st9" width="6.11" height="6.11"/>
<rect x="106.93" y="150.71" class="st12" width="6.11" height="6.11"/>
<rect x="113.04" y="150.71" class="st11" width="6.11" height="6.11"/>
<rect x="119.15" y="150.71" class="st11" width="6.11" height="6.11"/>
<rect x="131.37" y="150.71" class="st12" width="6.11" height="6.11"/>
<rect x="143.59" y="150.71" class="st12" width="6.11" height="6.11"/>
<rect x="168.03" y="144.6" class="st12" width="6.11" height="6.11"/>
<rect x="168.03" y="150.71" class="st12" width="6.11" height="6.11"/>
<rect x="161.92" y="138.49" class="st12" width="6.11" height="6.11"/>
<rect x="161.92" y="150.71" class="st12" width="6.11" height="6.11"/>
<rect x="161.92" y="144.6" class="st12" width="6.11" height="6.11"/>
<rect x="155.81" y="150.71" class="st12" width="6.11" height="6.11"/>
<rect x="149.7" y="150.71" class="st12" width="6.11" height="6.11"/>
<rect x="137.48" y="150.71" class="st12" width="6.11" height="6.11"/>
<rect x="125.26" y="138.49" class="st13" width="6.11" height="6.11"/>
<rect x="125.26" y="144.6" class="st3" width="6.11" height="6.11"/>
<rect x="76.37" y="144.6" class="st3" width="6.11" height="6.11"/>
<rect x="76.37" y="138.49" class="st10" width="6.11" height="6.11"/>
<rect x="82.48" y="144.6" class="st14" width="6.11" height="6.11"/>
<rect x="82.48" y="138.49" class="st3" width="6.11" height="6.11"/>
<rect x="88.59" y="144.6" class="st11" width="6.11" height="6.11"/>
<rect x="88.59" y="138.49" class="st11" width="6.11" height="6.11"/>
<rect x="94.7" y="144.6" class="st3" width="6.12" height="6.11"/>
<rect x="94.7" y="138.49" class="st3" width="6.12" height="6.11"/>
<rect x="100.82" y="138.49" class="st3" width="6.11" height="6.11"/>
<rect x="100.82" y="144.6" class="st3" width="6.11" height="6.11"/>
<rect x="113.04" y="144.6" class="st11" width="6.11" height="6.11"/>
<rect x="113.04" y="138.49" class="st13" width="6.11" height="6.11"/>
<rect x="106.93" y="144.6" class="st12" width="6.11" height="6.11"/>
<rect x="106.93" y="138.49" class="st3" width="6.11" height="6.11"/>
<rect x="119.15" y="138.49" class="st3" width="6.11" height="6.11"/>
<rect x="119.15" y="144.6" class="st14" width="6.11" height="6.11"/>
<rect x="131.37" y="144.6" class="st13" width="6.11" height="6.11"/>
<rect x="143.59" y="138.49" class="st13" width="6.11" height="6.11"/>
<rect x="143.59" y="144.6" class="st13" width="6.11" height="6.11"/>
<rect x="155.81" y="138.49" class="st13" width="6.11" height="6.11"/>
<rect x="155.81" y="144.6" class="st13" width="6.11" height="6.11"/>
<rect x="149.7" y="144.6" class="st13" width="6.11" height="6.11"/>
<rect x="149.7" y="138.49" class="st13" width="6.11" height="6.11"/>
<rect x="131.37" y="138.49" class="st13" width="6.11" height="6.11"/>
<rect x="137.48" y="144.6" class="st13" width="6.11" height="6.11"/>
<rect x="137.48" y="138.49" class="st7" width="6.11" height="6.11"/>
<rect x="125.26" y="126.27" class="st13" width="6.11" height="6.11"/>
<rect x="76.37" y="126.27" class="st12" width="6.11" height="6.11"/>
<rect x="76.37" y="120.16" class="st10" width="6.11" height="6.11"/>
<rect x="82.48" y="126.27" class="st12" width="6.11" height="6.11"/>
<rect x="82.48" y="120.16" class="st10" width="6.11" height="6.11"/>
<rect x="88.59" y="120.16" class="st9" width="6.11" height="6.11"/>
<rect x="94.7" y="126.27" class="st12" width="6.12" height="6.11"/>
<rect x="94.7" y="120.16" class="st9" width="6.12" height="6.11"/>
<rect x="88.59" y="126.27" class="st12" width="6.11" height="6.11"/>
<rect x="100.82" y="120.16" class="st12" width="6.11" height="6.11"/>
<rect x="100.82" y="126.27" class="st12" width="6.11" height="6.11"/>
<rect x="113.04" y="120.16" class="st13" width="6.11" height="6.11"/>
<rect x="106.93" y="120.16" class="st12" width="6.11" height="6.11"/>
<rect x="113.04" y="126.27" class="st12" width="6.11" height="6.11"/>
<rect x="106.93" y="126.27" class="st12" width="6.11" height="6.11"/>
<rect x="119.15" y="126.27" class="st12" width="6.11" height="6.11"/>
<rect x="119.15" y="120.16" class="st13" width="6.11" height="6.11"/>
<rect x="125.26" y="120.16" class="st13" width="6.11" height="6.11"/>
<rect x="143.59" y="126.27" class="st13" width="6.11" height="6.11"/>
<rect x="143.59" y="120.16" class="st13" width="6.11" height="6.11"/>
<rect x="155.81" y="126.27" class="st13" width="6.11" height="6.11"/>
<rect x="155.81" y="120.16" class="st13" width="6.11" height="6.11"/>
<rect x="149.7" y="120.16" class="st7" width="6.11" height="6.11"/>
<rect x="149.7" y="126.27" class="st7" width="6.11" height="6.11"/>
<rect x="137.48" y="120.16" class="st13" width="6.11" height="6.11"/>
<rect x="137.48" y="126.27" class="st7" width="6.11" height="6.11"/>
<rect x="131.37" y="120.16" class="st7" width="6.11" height="6.11"/>
<rect x="131.37" y="126.27" class="st7" width="6.11" height="6.11"/>
<rect x="64.15" y="132.38" class="st9" width="6.11" height="6.11"/>
<rect x="64.15" y="126.27" class="st9" width="6.11" height="6.11"/>
<rect x="70.26" y="132.38" class="st9" width="6.11" height="6.11"/>
<rect x="70.26" y="126.27" class="st9" width="6.11" height="6.11"/>
<rect x="70.26" y="120.16" class="st10" width="6.11" height="6.11"/>
<rect x="125.26" y="132.38" class="st9" width="6.11" height="6.11"/>
<rect x="82.48" y="132.38" class="st9" width="6.11" height="6.11"/>
<rect x="76.37" y="132.38" class="st9" width="6.11" height="6.11"/>
<rect x="88.59" y="132.38" class="st9" width="6.11" height="6.11"/>
<rect x="94.7" y="132.38" class="st3" width="6.12" height="6.11"/>
<rect x="100.82" y="132.38" class="st14" width="6.11" height="6.11"/>
<rect x="113.04" y="132.38" class="st9" width="6.11" height="6.11"/>
<rect x="106.93" y="132.38" class="st3" width="6.11" height="6.11"/>
<rect x="119.15" y="132.38" class="st9" width="6.11" height="6.11"/>
<rect x="143.59" y="132.38" class="st12" width="6.11" height="6.11"/>
<rect x="168.03" y="126.27" class="st12" width="6.11" height="6.11"/>
<rect x="168.03" y="132.38" class="st12" width="6.11" height="6.11"/>
<rect x="155.81" y="132.38" class="st12" width="6.11" height="6.11"/>
<rect x="161.92" y="126.27" class="st12" width="6.11" height="6.11"/>
<rect x="161.92" y="132.38" class="st12" width="6.11" height="6.11"/>
<rect x="161.92" y="120.16" class="st12" width="6.11" height="6.11"/>
<rect x="149.7" y="132.38" class="st12" width="6.11" height="6.11"/>
<rect x="131.37" y="132.38" class="st12" width="6.11" height="6.11"/>
<rect x="137.48" y="132.38" class="st7" width="6.11" height="6.11"/>
<rect x="64.15" y="114.05" class="st9" width="6.11" height="6.11"/>
<rect x="70.26" y="114.05" class="st9" width="6.11" height="6.11"/>
<rect x="82.48" y="114.05" class="st9" width="6.11" height="6.11"/>
<rect x="76.37" y="114.05" class="st9" width="6.11" height="6.11"/>
<rect x="94.7" y="114.05" class="st12" width="6.12" height="6.11"/>
<rect x="88.59" y="114.05" class="st9" width="6.11" height="6.11"/>
<rect x="100.82" y="114.05" class="st12" width="6.11" height="6.11"/>
<rect x="113.04" y="114.05" class="st12" width="6.11" height="6.11"/>
<rect x="106.93" y="114.05" class="st12" width="6.11" height="6.11"/>
<rect x="119.15" y="114.05" class="st12" width="6.11" height="6.11"/>
<rect x="125.26" y="114.05" class="st8" width="6.11" height="6.11"/>
<rect x="137.48" y="114.05" class="st12" width="6.11" height="6.11"/>
<rect x="143.59" y="114.05" class="st7" width="6.11" height="6.11"/>
<rect x="168.03" y="114.05" class="st12" width="6.11" height="6.11"/>
<rect x="161.92" y="114.05" class="st12" width="6.11" height="6.11"/>
<rect x="155.81" y="114.05" class="st12" width="6.11" height="6.11"/>
<rect x="149.7" y="114.05" class="st7" width="6.11" height="6.11"/>
<rect x="131.37" y="114.05" class="st8" width="6.11" height="6.11"/>
<rect x="64.15" y="107.94" class="st9" width="6.11" height="6.11"/>
<rect x="70.26" y="107.94" class="st12" width="6.11" height="6.11"/>
<rect x="70.26" y="101.84" class="st12" width="6.11" height="6.11"/>
<rect x="82.48" y="107.94" class="st13" width="6.11" height="6.11"/>
<rect x="76.37" y="101.84" class="st13" width="6.11" height="6.11"/>
<rect x="76.37" y="107.94" class="st13" width="6.11" height="6.11"/>
<rect x="82.48" y="101.84" class="st13" width="6.11" height="6.11"/>
<rect x="94.7" y="107.94" class="st13" width="6.12" height="6.11"/>
<rect x="88.59" y="107.94" class="st13" width="6.11" height="6.11"/>
<rect x="94.7" y="101.84" class="st13" width="6.12" height="6.11"/>
<rect x="88.59" y="101.84" class="st13" width="6.11" height="6.11"/>
<rect x="100.82" y="107.94" class="st13" width="6.11" height="6.11"/>
<rect x="100.82" y="101.84" class="st13" width="6.11" height="6.11"/>
<rect x="113.04" y="101.84" class="st8" width="6.11" height="6.11"/>
<rect x="113.04" y="107.94" class="st13" width="6.11" height="6.11"/>
<rect x="106.93" y="101.84" class="st13" width="6.11" height="6.11"/>
<rect x="106.93" y="107.94" class="st13" width="6.11" height="6.11"/>
<rect x="119.15" y="101.84" class="st8" width="6.11" height="6.11"/>
<rect x="119.15" y="107.94" class="st8" width="6.11" height="6.11"/>
<rect x="125.26" y="107.94" class="st8" width="6.11" height="6.11"/>
<rect x="125.26" y="101.84" class="st13" width="6.11" height="6.11"/>
<rect x="137.48" y="107.94" class="st13" width="6.11" height="6.11"/>
<rect x="137.48" y="101.84" class="st13" width="6.11" height="6.11"/>
<rect x="143.59" y="107.94" class="st8" width="6.11" height="6.11"/>
<rect x="143.59" y="101.84" class="st8" width="6.11" height="6.11"/>
<rect x="168.03" y="107.94" class="st12" width="6.11" height="6.11"/>
<rect x="161.92" y="107.94" class="st12" width="6.11" height="6.11"/>
<rect x="155.81" y="101.84" class="st13" width="6.11" height="6.11"/>
<rect x="155.81" y="107.94" class="st13" width="6.11" height="6.11"/>
<rect x="161.92" y="101.84" class="st12" width="6.11" height="6.11"/>
<rect x="149.7" y="107.94" class="st13" width="6.11" height="6.11"/>
<rect x="149.7" y="101.84" class="st13" width="6.11" height="6.11"/>
<rect x="131.37" y="107.94" class="st13" width="6.11" height="6.11"/>
<rect x="131.37" y="101.84" class="st13" width="6.11" height="6.11"/>
</svg>
