<?xml version="1.0" encoding="utf-8"?>
<!-- Generator: Adobe Illustrator 30.0.0, SVG Export Plug-In . SVG Version: 9.03 Build 0)  -->
<svg version="1.1" id="Layer_1" xmlns="http://www.w3.org/2000/svg" xmlns:xlink="http://www.w3.org/1999/xlink" x="0px" y="0px"
	 viewBox="0 0 240 240" style="enable-background:new 0 0 240 240;" xml:space="preserve">
<style type="text/css">
	.st0{fill:#C46027;}
	.st1{fill:#453537;}
	.st2{fill:#E28F2E;}
</style>
<g>
	<g id="XMLID_102_">
		<g>
			<rect x="189.52" y="103.03" class="st0" width="8.25" height="8.22"/>
			<rect x="181.3" y="111.25" class="st0" width="8.22" height="8.25"/>
			<rect x="173.05" y="185.4" class="st1" width="8.25" height="8.25"/>
			<rect x="173.05" y="177.17" class="st2" width="8.25" height="8.22"/>
			<rect x="173.05" y="168.93" class="st2" width="8.25" height="8.25"/>
			<rect x="173.05" y="160.68" class="st2" width="8.25" height="8.25"/>
			<rect x="173.05" y="135.97" class="st0" width="8.25" height="8.25"/>
			<rect x="173.05" y="127.75" class="st0" width="8.25" height="8.22"/>
			<rect x="173.05" y="119.5" class="st0" width="8.25" height="8.25"/>
			<rect x="173.05" y="111.25" class="st2" width="8.25" height="8.25"/>
			<rect x="164.81" y="160.68" class="st2" width="8.25" height="8.25"/>
			<rect x="164.81" y="152.46" class="st2" width="8.25" height="8.22"/>
			<rect x="164.81" y="144.21" class="st2" width="8.25" height="8.25"/>
			<rect x="164.81" y="135.97" class="st2" width="8.25" height="8.25"/>
			<rect x="164.81" y="127.75" class="st2" width="8.25" height="8.22"/>
			<rect x="164.81" y="119.5" class="st2" width="8.25" height="8.25"/>
			<rect x="164.81" y="111.25" class="st2" width="8.25" height="8.25"/>
			<rect x="156.56" y="177.17" class="st1" width="8.24" height="8.22"/>
			<rect x="156.56" y="168.93" class="st0" width="8.24" height="8.25"/>
			<rect x="156.56" y="160.68" class="st0" width="8.24" height="8.25"/>
			<rect x="156.56" y="152.46" class="st2" width="8.24" height="8.22"/>
			<rect x="156.56" y="144.21" class="st2" width="8.24" height="8.25"/>
			<rect x="156.56" y="135.97" class="st2" width="8.24" height="8.25"/>
			<rect x="156.56" y="127.75" class="st2" width="8.24" height="8.22"/>
			<rect x="156.56" y="119.5" class="st2" width="8.24" height="8.25"/>
			<rect x="156.56" y="111.25" class="st2" width="8.24" height="8.25"/>
			<rect x="148.34" y="152.46" class="st2" width="8.22" height="8.22"/>
			<rect x="148.34" y="144.21" class="st2" width="8.22" height="8.25"/>
			<rect x="148.34" y="135.97" class="st2" width="8.22" height="8.25"/>
			<rect x="148.34" y="127.75" class="st2" width="8.22" height="8.22"/>
			<rect x="148.34" y="119.5" class="st2" width="8.22" height="8.25"/>
			<rect x="148.34" y="111.25" class="st2" width="8.22" height="8.25"/>
			<rect x="140.09" y="152.46" class="st0" width="8.25" height="8.22"/>
			<rect x="140.09" y="144.21" class="st2" width="8.25" height="8.25"/>
			<rect x="140.09" y="135.97" class="st2" width="8.25" height="8.25"/>
			<rect x="140.09" y="127.75" class="st2" width="8.25" height="8.22"/>
			<rect x="140.09" y="119.5" class="st2" width="8.25" height="8.25"/>
			<rect x="140.09" y="111.25" class="st2" width="8.25" height="8.25"/>
			<rect x="131.85" y="144.21" class="st0" width="8.25" height="8.25"/>
			<rect x="131.85" y="135.97" class="st0" width="8.25" height="8.25"/>
			<rect x="131.85" y="127.75" class="st2" width="8.25" height="8.22"/>
			<rect x="131.85" y="119.5" class="st2" width="8.25" height="8.25"/>
			<rect x="131.85" y="111.25" class="st2" width="8.25" height="8.25"/>
			<rect x="123.62" y="144.21" class="st0" width="8.22" height="8.25"/>
			<rect x="123.62" y="135.97" class="st2" width="8.22" height="8.25"/>
			<rect x="123.62" y="127.75" class="st2" width="8.22" height="8.22"/>
			<rect x="123.62" y="119.5" class="st2" width="8.22" height="8.25"/>
			<rect x="123.62" y="111.25" class="st2" width="8.22" height="8.25"/>
			<rect x="115.38" y="144.21" class="st0" width="8.25" height="8.25"/>
			<rect x="115.38" y="135.97" class="st2" width="8.25" height="8.25"/>
			<rect x="115.38" y="127.75" class="st2" width="8.25" height="8.22"/>
			<rect x="115.38" y="119.5" class="st2" width="8.25" height="8.25"/>
			<rect x="115.38" y="111.25" class="st2" width="8.25" height="8.25"/>
			<rect x="115.38" y="103.03" class="st2" width="8.25" height="8.22"/>
			<rect x="107.13" y="144.21" class="st0" width="8.25" height="8.25"/>
			<rect x="107.13" y="135.97" class="st0" width="8.25" height="8.25"/>
			<rect x="107.13" y="127.75" class="st2" width="8.25" height="8.22"/>
			<rect x="107.13" y="119.5" class="st2" width="8.25" height="8.25"/>
			<rect x="107.13" y="111.25" class="st2" width="8.25" height="8.25"/>
			<rect x="107.13" y="103.03" class="st2" width="8.25" height="8.22"/>
			<rect x="98.91" y="185.4" class="st1" width="8.22" height="8.25"/>
			<rect x="98.91" y="177.17" class="st2" width="8.22" height="8.22"/>
			<rect x="98.91" y="168.93" class="st2" width="8.22" height="8.25"/>
			<rect x="98.91" y="160.68" class="st2" width="8.22" height="8.25"/>
			<rect x="98.91" y="152.46" class="st2" width="8.22" height="8.22"/>
			<rect x="98.91" y="144.21" class="st2" width="8.22" height="8.25"/>
			<rect x="98.91" y="135.97" class="st2" width="8.22" height="8.25"/>
			<rect x="98.91" y="127.75" class="st2" width="8.22" height="8.22"/>
			<rect x="98.91" y="119.5" class="st2" width="8.22" height="8.25"/>
			<rect x="98.91" y="111.25" class="st2" width="8.22" height="8.25"/>
			<rect x="98.91" y="103.03" class="st2" width="8.22" height="8.22"/>
			<rect x="90.66" y="177.17" class="st1" width="8.25" height="8.22"/>
			<rect x="90.66" y="168.93" class="st0" width="8.25" height="8.25"/>
			<rect x="90.66" y="160.68" class="st0" width="8.25" height="8.25"/>
			<rect x="90.66" y="152.46" class="st0" width="8.25" height="8.22"/>
			<rect x="90.66" y="144.21" class="st2" width="8.25" height="8.25"/>
			<rect x="90.66" y="135.97" class="st2" width="8.25" height="8.25"/>
			<rect x="90.66" y="127.75" class="st2" width="8.25" height="8.22"/>
			<rect x="90.66" y="119.5" class="st2" width="8.25" height="8.25"/>
			<rect x="90.66" y="111.25" class="st2" width="8.25" height="8.25"/>
			<rect x="90.66" y="103.03" class="st2" width="8.25" height="8.22"/>
			<rect x="90.66" y="94.79" class="st2" width="8.25" height="8.25"/>
			<rect x="82.42" y="135.97" class="st0" width="8.25" height="8.25"/>
			<rect x="82.42" y="127.75" class="st2" width="8.25" height="8.22"/>
			<rect x="82.42" y="119.5" class="st2" width="8.25" height="8.25"/>
			<rect x="82.42" y="111.25" class="st2" width="8.25" height="8.25"/>
			<rect x="82.42" y="103.03" class="st2" width="8.25" height="8.22"/>
			<rect x="82.42" y="94.79" class="st2" width="8.25" height="8.25"/>
			<rect x="82.42" y="86.54" class="st2" width="8.25" height="8.25"/>
			<rect x="82.42" y="53.6" class="st1" width="8.25" height="8.22"/>
			<rect x="74.19" y="127.75" class="st0" width="8.22" height="8.22"/>
			<rect x="74.19" y="119.5" class="st0" width="8.22" height="8.25"/>
			<rect x="74.19" y="111.25" class="st0" width="8.22" height="8.25"/>
			<rect x="74.19" y="103.03" class="st2" width="8.22" height="8.22"/>
			<rect x="74.19" y="94.79" class="st2" width="8.22" height="8.25"/>
			<rect x="74.19" y="86.54" class="st2" width="8.22" height="8.25"/>
			<rect x="74.19" y="78.32" class="st2" width="8.22" height="8.22"/>
			<rect x="74.19" y="45.36" class="st1" width="8.22" height="8.25"/>
			<rect x="65.95" y="103.03" class="st0" width="8.25" height="8.22"/>
			<rect x="65.95" y="94.79" class="st0" width="8.25" height="8.25"/>
			<rect x="65.95" y="86.54" class="st2" width="8.25" height="8.25"/>
			<rect x="65.95" y="78.32" class="st2" width="8.25" height="8.22"/>
			<rect x="65.95" y="70.07" class="st2" width="8.25" height="8.25"/>
			<rect x="65.95" y="53.6" class="st1" width="8.25" height="8.22"/>
			<rect x="65.95" y="45.36" class="st1" width="8.25" height="8.25"/>
			<rect x="57.7" y="86.54" class="st0" width="8.25" height="8.25"/>
			<rect x="57.7" y="78.32" class="st1" width="8.25" height="8.22"/>
			<rect x="57.7" y="70.07" class="st2" width="8.25" height="8.25"/>
			<rect x="57.7" y="61.83" class="st1" width="8.25" height="8.25"/>
			<rect x="57.7" y="53.6" class="st1" width="8.25" height="8.22"/>
			<rect x="49.48" y="94.79" class="st0" width="8.22" height="8.25"/>
			<rect x="49.48" y="86.54" class="st2" width="8.22" height="8.25"/>
			<rect x="49.48" y="78.32" class="st2" width="8.22" height="8.22"/>
			<rect x="49.48" y="70.07" class="st1" width="8.22" height="8.25"/>
			<rect x="49.48" y="61.83" class="st1" width="8.22" height="8.25"/>
			<rect x="41.23" y="94.79" class="st2" width="8.25" height="8.25"/>
			<rect x="41.23" y="86.54" class="st2" width="8.25" height="8.25"/>
		</g>
	</g>
</g>
</svg>
