<?xml version="1.0" encoding="utf-8"?>
<!-- Generator: Adobe Illustrator 30.0.0, SVG Export Plug-In . SVG Version: 9.03 Build 0)  -->
<svg version="1.1" id="Layer_1" xmlns="http://www.w3.org/2000/svg" xmlns:xlink="http://www.w3.org/1999/xlink" x="0px" y="0px"
	 viewBox="0 0 240 240" style="enable-background:new 0 0 240 240;" xml:space="preserve">
<style type="text/css">
	.st0{fill:#5A7600;}
	.st1{fill:#610D17;}
	.st2{fill:#FF3540;}
	.st3{fill:#FF634C;}
	.st4{fill:#283216;}
	.st5{fill:#456000;}
	.st6{fill:#FFB000;}
	.st7{fill:#728D14;}
	.st8{fill:#829F23;}
</style>
<g>
	<g>
		<rect x="140.44" y="46.36" class="st0" width="4.2" height="29.38"/>
		<rect x="148.83" y="50.56" class="st0" width="4.2" height="29.38"/>
		<g>
			<polygon class="st1" points="144.63,75.74 144.63,71.55 140.44,71.55 140.44,54.76 136.24,54.76 136.24,50.56 132.04,50.56 
				132.04,46.36 127.84,46.36 127.84,50.56 123.65,50.56 123.65,54.76 119.45,54.76 119.45,67.35 127.84,67.35 127.84,75.74 			"/>
			<polygon class="st1" points="111.06,92.53 102.66,92.53 102.66,88.33 98.47,88.33 94.27,88.33 94.27,84.14 90.07,84.14 
				90.07,79.94 85.88,79.94 85.88,75.74 111.06,75.74 			"/>
			<polygon class="st2" points="119.45,96.73 119.45,92.53 111.06,92.53 111.06,88.33 106.86,88.33 106.86,84.14 98.47,84.14 
				98.47,79.94 94.27,79.94 94.27,75.74 90.07,75.74 90.07,71.55 90.07,67.35 90.07,63.15 94.27,63.15 94.27,58.96 94.27,54.76 
				98.47,54.76 98.47,50.56 102.66,50.56 102.66,54.76 106.86,54.76 106.86,67.35 119.45,67.35 119.45,79.94 127.84,79.94 
				127.84,96.73 			"/>
			<polygon class="st3" points="144.63,96.73 144.63,88.33 140.44,88.33 140.44,79.94 136.24,79.94 136.24,75.74 132.04,75.74 
				132.04,67.35 127.84,67.35 127.84,63.15 127.84,58.96 123.65,58.96 123.65,54.76 119.45,54.76 119.45,50.56 115.25,50.56 
				111.06,50.56 111.06,54.76 106.86,54.76 106.86,58.96 102.66,58.96 102.66,63.15 102.66,67.35 102.66,71.55 106.86,71.55 
				106.86,75.74 111.06,75.74 111.06,79.94 115.25,79.94 115.25,84.14 115.25,88.33 119.45,88.33 119.45,92.53 123.65,92.53 
				123.65,96.73 132.04,96.73 			"/>
			<polygon class="st1" points="140.44,100.92 140.44,96.73 136.24,96.73 136.24,92.53 132.04,92.53 132.04,84.14 127.84,84.14 
				127.84,79.94 123.65,79.94 123.65,88.33 127.84,88.33 127.84,96.73 132.04,96.73 132.04,100.92 			"/>
			<polygon class="st2" points="148.83,75.74 144.63,75.74 144.63,71.55 140.44,71.55 140.44,63.15 140.44,58.96 136.24,58.96 
				136.24,54.76 132.04,54.76 132.04,58.96 127.84,58.96 127.84,63.15 123.65,63.15 123.65,71.55 127.84,71.55 127.84,75.74 
				132.04,75.74 132.04,79.94 132.04,84.14 136.24,84.14 148.83,84.14 			"/>
			<polygon class="st2" points="161.42,96.73 174.01,96.73 174.01,92.53 178.21,92.53 178.21,88.33 182.4,88.33 182.4,84.14 
				186.6,84.14 186.6,75.74 190.8,75.74 190.8,67.35 194.99,67.35 194.99,58.96 190.8,58.96 190.8,54.76 186.6,54.76 186.6,58.96 
				182.4,58.96 178.21,58.96 178.21,67.35 169.81,67.35 169.81,71.55 161.42,71.55 161.42,88.33 157.22,88.33 157.22,96.73 			"/>
			<polygon class="st1" points="144.63,63.15 148.83,63.15 148.83,58.96 148.83,54.76 153.03,54.76 153.03,75.74 144.63,75.74 			
				"/>
			<polygon class="st2" points="140.44,88.33 140.44,84.14 144.63,84.14 144.63,75.74 148.83,75.74 148.83,71.55 148.83,67.35 
				148.83,63.15 153.03,63.15 153.03,58.96 153.03,54.76 157.22,54.76 157.22,50.56 161.42,50.56 161.42,54.76 165.62,54.76 
				165.62,79.94 157.22,79.94 157.22,88.33 			"/>
			<polygon class="st3" points="136.24,96.73 136.24,92.53 140.44,92.53 140.44,88.33 144.63,88.33 144.63,84.14 148.83,84.14 
				148.83,75.74 153.03,75.74 153.03,71.55 153.03,67.35 157.22,67.35 157.22,63.15 157.22,58.96 161.42,58.96 161.42,54.76 
				165.62,54.76 165.62,50.56 174.01,50.56 174.01,54.76 178.21,54.76 178.21,58.96 178.21,63.15 182.4,63.15 182.4,71.55 
				178.21,71.55 178.21,75.74 178.21,79.94 174.01,79.94 174.01,84.14 169.81,84.14 169.81,88.33 165.62,88.33 165.62,92.53 
				161.42,92.53 161.42,96.73 			"/>
			<polygon class="st1" points="144.63,96.73 144.63,92.53 148.83,92.53 148.83,88.33 153.03,88.33 153.03,79.94 157.22,79.94 
				157.22,75.74 161.42,75.74 161.42,84.14 157.22,84.14 157.22,92.53 153.03,92.53 153.03,96.73 			"/>
		</g>
		<g>
			<polygon class="st4" points="146.73,105.12 146.73,126.1 142.53,126.1 142.53,138.7 138.34,138.7 138.34,163.88 134.14,163.88 
				134.14,176.47 129.94,176.47 129.94,210.04 125.75,210.04 125.75,172.27 129.94,172.27 129.94,159.68 134.14,159.68 
				134.14,134.5 138.34,134.5 138.34,121.91 142.53,121.91 142.53,105.12 			"/>
			<polygon class="st5" points="144.63,105.12 144.63,126.1 140.44,126.1 140.44,138.7 136.24,138.7 136.24,163.88 132.04,163.88 
				132.04,176.47 127.84,176.47 127.84,210.04 123.65,210.04 123.65,172.27 127.84,172.27 127.84,159.68 132.04,159.68 
				132.04,134.5 136.24,134.5 136.24,121.91 140.44,121.91 140.44,105.12 			"/>
			<polygon class="st5" points="144.63,105.12 136.24,105.12 136.24,100.92 132.04,100.92 132.04,96.73 153.03,96.73 153.03,100.92 
				148.83,100.92 148.83,105.12 			"/>
		</g>
		<polygon class="st6" points="153.03,42.17 157.22,42.17 157.22,50.56 148.83,50.56 148.83,46.36 153.03,46.36 		"/>
		<polygon class="st6" points="136.24,33.77 140.44,33.77 140.44,37.97 144.63,37.97 144.63,46.36 136.24,46.36 		"/>
	</g>
	<path class="st2" d="M102.66,142.89"/>
	<g>
		<rect x="81.68" y="105.12" class="st0" width="4.2" height="16.79"/>
		<rect x="73.29" y="96.73" class="st0" width="4.2" height="16.79"/>
		<g>
			<polygon class="st1" points="98.47,138.7 106.86,138.7 106.86,134.5 111.06,134.5 115.25,134.5 115.25,130.3 119.45,130.3 
				119.45,121.91 115.25,121.91 98.47,121.91 			"/>
			<polygon class="st2" points="85.88,138.7 98.47,138.7 98.47,134.5 106.86,134.5 106.86,130.3 111.06,130.3 111.06,126.1 
				115.25,126.1 115.25,117.71 119.45,117.71 119.45,109.32 115.25,109.32 115.25,113.51 111.06,113.51 92.17,132.4 85.88,132.4 			
				"/>
			<polygon class="st1" points="60.7,138.7 60.7,134.5 52.3,134.5 48.1,134.5 48.1,130.3 43.91,130.3 43.91,126.1 48.1,126.1 
				48.1,121.91 56.5,121.91 56.5,126.1 73.29,126.1 73.29,130.3 81.68,130.3 81.68,138.7 			"/>
			<polygon class="st2" points="85.88,138.7 77.48,138.7 77.48,134.5 64.89,134.5 64.89,130.3 52.3,130.3 52.3,126.1 48.1,126.1 
				48.1,121.91 48.1,113.51 52.3,113.51 52.3,117.71 73.29,117.71 73.29,126.1 81.68,126.1 81.68,130.3 85.88,130.3 			"/>
			<polygon class="st1" points="85.88,117.71 85.88,113.51 81.68,113.51 81.68,109.32 77.48,109.32 77.48,105.12 73.29,105.12 
				73.29,117.71 			"/>
			<polygon class="st3" points="90.07,138.7 77.48,138.7 77.48,130.3 69.09,130.3 69.09,126.1 69.09,121.91 60.7,121.91 
				60.7,117.71 56.5,117.71 56.5,109.32 60.7,109.32 60.7,105.12 64.89,105.12 64.89,109.32 73.29,109.32 73.29,113.51 
				77.48,113.51 77.48,117.71 81.68,117.71 85.88,117.71 85.88,130.3 90.07,130.3 90.07,134.5 			"/>
			<polygon class="st1" points="85.88,121.91 90.07,121.91 90.07,109.32 94.27,109.32 94.27,105.12 98.47,105.12 98.47,126.1 
				85.88,126.1 			"/>
			<polygon class="st3" points="85.88,138.7 85.88,126.1 90.07,126.1 90.07,121.91 94.27,121.91 94.27,113.51 98.47,113.51 
				98.47,109.32 102.66,109.32 102.66,105.12 106.86,105.12 106.86,109.32 111.06,109.32 111.06,117.71 111.06,121.91 
				106.86,121.91 106.86,126.1 102.66,126.1 102.66,130.3 102.66,134.5 98.47,134.5 98.47,138.7 			"/>
			<polygon class="st5" points="94.27,147.09 81.68,147.09 81.68,142.89 77.48,142.89 77.48,138.7 98.47,138.7 98.47,142.89 
				94.27,142.89 			"/>
		</g>
		<polygon class="st5" points="85.88,147.09 85.88,163.88 90.07,163.88 90.07,168.07 94.27,168.07 94.27,176.47 106.86,176.47 
			106.86,180.66 111.06,180.66 111.06,184.86 123.65,184.86 123.65,180.66 115.25,180.66 115.25,176.47 111.06,176.47 
			111.06,172.27 98.47,172.27 98.47,163.88 94.27,163.88 94.27,159.68 90.07,159.68 90.07,147.09 		"/>
		<polygon class="st6" points="73.29,88.33 73.29,92.53 69.09,92.53 69.09,100.92 73.29,100.92 73.29,96.73 77.48,96.73 
			77.48,88.33 		"/>
		<rect x="81.68" y="96.73" class="st6" width="8.39" height="8.39"/>
	</g>
	<g>
		<g>
			<polygon class="st1" points="157.22,117.71 161.42,117.71 161.42,105.12 165.62,105.12 165.62,100.92 169.81,100.92 
				169.81,121.91 165.62,121.91 165.62,126.1 157.22,126.1 			"/>
			<polygon class="st2" points="157.22,130.3 157.22,113.51 153.03,113.51 153.03,105.12 148.83,105.12 148.83,109.32 
				144.63,109.32 144.63,121.91 148.83,121.91 148.83,130.3 			"/>
			<polygon class="st3" points="148.83,134.5 144.63,134.5 144.63,130.3 140.44,130.3 140.44,117.71 136.24,117.71 136.24,105.12 
				140.44,105.12 140.44,100.92 144.63,100.92 144.63,105.12 148.83,105.12 148.83,113.51 153.03,113.51 153.03,121.91 
				153.03,130.3 157.22,130.3 157.22,134.5 			"/>
			<polygon class="st3" points="157.22,134.5 157.22,126.1 161.42,126.1 161.42,117.71 165.62,117.71 165.62,109.32 169.81,109.32 
				169.81,105.12 174.01,105.12 174.01,100.92 178.21,100.92 178.21,105.12 182.4,105.12 182.4,117.71 178.21,117.71 178.21,121.91 
				174.01,121.91 174.01,130.3 165.62,130.3 165.62,134.5 			"/>
			<polygon class="st5" points="144.63,134.5 144.63,138.7 148.83,138.7 148.83,142.89 161.42,142.89 161.42,138.7 165.62,138.7 
				165.62,134.5 			"/>
		</g>
		<polygon class="st5" points="153.03,142.89 153.03,147.09 148.83,147.09 148.83,159.68 140.44,159.68 140.44,163.88 
			132.04,163.88 132.04,168.07 144.63,168.07 144.63,163.88 153.03,163.88 153.03,151.29 157.22,151.29 157.22,142.89 		"/>
	</g>
	<polygon class="st7" points="165.62,155.48 165.62,159.68 157.22,159.68 157.22,168.07 148.83,168.07 148.83,180.66 136.24,180.66 
		136.24,193.25 148.83,193.25 148.83,189.06 161.42,189.06 161.42,180.66 165.62,180.66 165.62,176.47 174.01,176.47 174.01,159.68 
		178.21,159.68 178.21,155.48 	"/>
	<polygon class="st8" points="127.84,180.66 132.04,180.66 132.04,172.27 136.24,172.27 136.24,159.68 140.44,159.68 140.44,151.29 
		148.83,151.29 148.83,147.09 161.42,147.09 161.42,151.29 157.22,151.29 157.22,163.88 153.03,163.88 153.03,176.47 148.83,176.47 
		148.83,189.06 140.44,189.06 140.44,193.25 136.24,193.25 136.24,193.25 127.84,193.25 	"/>
	<polygon class="st7" points="127.84,151.29 127.84,142.89 123.65,142.89 123.65,138.7 119.45,138.7 119.45,130.3 115.25,130.3 
		115.25,126.1 106.86,126.1 106.86,121.91 102.66,121.91 102.66,126.1 98.47,126.1 98.47,138.7 106.86,138.7 106.86,142.89 
		111.06,142.89 111.06,155.48 115.25,155.48 115.25,159.68 115.25,163.88 123.65,163.88 132.04,163.88 132.04,159.68 132.04,151.29 
			"/>
	<polygon class="st7" points="106.86,180.66 106.86,184.86 102.66,184.86 102.66,189.06 98.47,189.06 98.47,193.25 77.48,193.25 
		77.48,189.06 69.09,189.06 69.09,180.66 60.7,180.66 60.7,172.27 52.3,172.27 52.3,163.88 52.3,159.68 60.7,159.68 69.09,159.68 
		69.09,168.07 81.68,168.07 81.68,176.47 106.86,176.47 	"/>
	<polygon class="st8" points="106.86,172.27 106.86,168.07 98.47,168.07 98.47,163.88 85.88,163.88 85.88,159.68 77.48,159.68 
		77.48,147.09 69.09,147.09 69.09,142.89 64.89,142.89 64.89,151.29 60.7,151.29 60.7,159.68 64.89,159.68 64.89,168.07 
		69.09,168.07 69.09,176.47 81.68,176.47 81.68,180.66 90.07,180.66 90.07,184.86 102.66,184.86 102.66,180.66 106.86,180.66 	"/>
	<polygon class="st5" points="127.84,184.86 136.24,184.86 136.24,180.66 140.44,180.66 140.44,168.07 144.63,168.07 144.63,163.88 
		148.83,163.88 148.83,172.27 144.63,172.27 144.63,184.86 140.44,184.86 140.44,189.06 127.84,189.06 	"/>
	<polygon class="st5" points="106.86,172.27 94.27,172.27 94.27,168.07 81.68,168.07 81.68,163.88 77.48,163.88 77.48,172.27 
		90.07,172.27 90.07,176.47 106.86,176.47 	"/>
	<polygon class="st5" points="132.04,155.48 123.65,155.48 123.65,147.09 119.45,147.09 119.45,142.89 115.25,142.89 115.25,151.29 
		119.45,151.29 119.45,159.68 132.04,159.68 	"/>
</g>
</svg>
